<svg xmlns="http://www.w3.org/2000/svg" xmlns:xlink="http://www.w3.org/1999/xlink" width="537.443" height="589.675" viewBox="0 0 537.443 589.675"><defs><style>.\31 4e721f0-b946-443c-8295-823175cf0a04{fill:#00ff24;}.\31 4e721f0-b946-443c-8295-823175cf0a04,.e739cbe2-7361-44ba-83af-86aa2ce9472d{stroke:#000;stroke-miterlimit:10;stroke-width:5px;}.e739cbe2-7361-44ba-83af-86aa2ce9472d{fill:#fff;}.\32 b4b6502-b925-43a0-b5b0-050b9a61028f,.\35 8041fc3-2d1f-4564-bbd0-db55d728b5c3,.\35 aff1b75-9626-495b-9595-593ec3ddb0e0,.\37 a0fcc53-bea6-4159-aad9-75a3b583c170,.ba1eaed8-bfff-464d-a27b-bc61ecb3b11d{fill:none;stroke-linejoin:round;}.\32 b4b6502-b925-43a0-b5b0-050b9a61028f,.ba1eaed8-bfff-464d-a27b-bc61ecb3b11d{stroke:#c91c1c;}.\32 b4b6502-b925-43a0-b5b0-050b9a61028f,.\35 aff1b75-9626-495b-9595-593ec3ddb0e0{stroke-width:10px;}.\35 aff1b75-9626-495b-9595-593ec3ddb0e0,.\37 a0fcc53-bea6-4159-aad9-75a3b583c170{stroke:#0080ff;}.\35 8041fc3-2d1f-4564-bbd0-db55d728b5c3{stroke:#fff;stroke-width:5.499px;}</style><symbol id="7c2b1aa2-2aa7-4024-a871-adc7c4032716" data-name="fd103434-89f2-4089-acf9-54fed79ed404" viewBox="0 0 200 103.617"><rect class="14e721f0-b946-443c-8295-823175cf0a04" x="2.5" y="54.074" width="195" height="47.043"/><rect class="e739cbe2-7361-44ba-83af-86aa2ce9472d" x="2.5" y="2.5" width="48.75" height="48.75"/><rect class="e739cbe2-7361-44ba-83af-86aa2ce9472d" x="51.25" y="2.5" width="48.75" height="48.75"/><rect class="e739cbe2-7361-44ba-83af-86aa2ce9472d" x="100" y="2.5" width="48.75" height="48.75"/><rect class="e739cbe2-7361-44ba-83af-86aa2ce9472d" x="148.75" y="2.5" width="48.75" height="48.75"/></symbol></defs><title>Bay_Side_Circuit</title><g id="16371cdb-7082-4997-9aaf-d08d508fe05d" data-name="Layer 2"><g id="ae5746c2-2eb3-43bd-a2a6-af9b1fd3b447" data-name="Blaine County"><g id="6aa90ce9-f0f4-41ea-9277-45511474e006" data-name="Bay_Side_Circuit"><path id="7f39b1c3-5543-4ef7-a467-b28d4e889829" data-name="Pit" class="2b4b6502-b925-43a0-b5b0-050b9a61028f" d="M394.862,251.828l-13.785,4a34.3,34.3,0,0,0-14.35,8.338l-11.24,10.917-37.5,34.875-12.639,12.858a33.684,33.684,0,0,0-6.709,9.821h0a33.711,33.711,0,0,1-6.061,9.142l-2.331,2.507a56.057,56.057,0,0,0-6.722,8.846L259.279,392.62"/><path id="d2f5b980-4a9d-453c-b18b-19e51363e756" data-name="Track" class="5aff1b75-9626-495b-9595-593ec3ddb0e0" d="M227.446,280.953l61.666-59.333,1.108-1.163a14.588,14.588,0,0,0-1.108-21.171h0L256.529,168.37l-1.2-1.111a19.143,19.143,0,0,1-2.841-24.806h0l12.625-16.125s21.5-24.375,27.125-29.5L323.612,68.2l31.125-25.625s31.375-24.5,44-29.125l12.75-5.125,7.233-2.272a22.975,22.975,0,0,1,21.967,4.589l3.8,3.308L483.362,52.7l41.25,42.083,1.23,1.174a21.326,21.326,0,0,1-.9,31.66h0l-46.334,46h0a25.3,25.3,0,0,0,.453,36.527l3.714,3.473,11.405,12.262a11.772,11.772,0,0,1-3.405,18.571h0l-24,14.167h0a14.98,14.98,0,0,0-6.064,20.52l.731,1.313,9.666,17.833.865,1.82a13.16,13.16,0,0,1-5.865,17.347h0l-58.333,33.5h0a16.375,16.375,0,0,1-22.578-5.471l-.422-.7-14.167-23.333-4.5-7.031a16.888,16.888,0,0,1,2.19-20.942l3.306-3.36,73.011-72.695a5.846,5.846,0,0,0,.171-8.108h0a5.844,5.844,0,0,0-8.483-.114l-33.2,34.083-63.666,64.667-34.584,38-68.5,70.25L209.946,443.62h0a18.412,18.412,0,0,1-26.284-.376l-1.55-1.624-36-37.334-39.166-40-24-24.166-11-11.667-.569-.656a16.663,16.663,0,0,0-21.51-3.172l-.255.161h0A55.958,55.958,0,0,0,28.17,364.269l-.058.684L26.446,397.62l-.05,2.306a33.787,33.787,0,0,0,8.55,23.194h0l1.852,1.852a65.81,65.81,0,0,0,26.137,16.034h0a65.8,65.8,0,0,1,26.4,16.3l17.943,18.148,16.667,18.5,3.672,4.034a27.049,27.049,0,0,1-1.006,37.466h0l-40,40.333h0a29,29,0,0,1-41.275.519l-3.225-3.185-27.5-28.542h0a40.159,40.159,0,0,1,2.927-55.222l9.573-9.07Z"/><path id="cac8a682-872f-4fb0-9217-fbe986e1e3e4" data-name="Pit" class="58041fc3-2d1f-4564-bbd0-db55d728b5c3" d="M394.862,251.828l-13.785,4a34.3,34.3,0,0,0-14.35,8.338l-11.24,10.917-37.5,34.875-12.639,12.858a33.684,33.684,0,0,0-6.709,9.821h0a33.711,33.711,0,0,1-6.061,9.142l-2.331,2.507a56.057,56.057,0,0,0-6.722,8.846L259.279,392.62"/><path id="8a926475-9c11-4df7-9ce8-e21aa555acdb" data-name="Track" class="58041fc3-2d1f-4564-bbd0-db55d728b5c3" d="M227.446,280.953l61.666-59.333,1.108-1.163a14.588,14.588,0,0,0-1.108-21.171h0L256.529,168.37l-1.2-1.111a19.143,19.143,0,0,1-2.841-24.806h0l12.625-16.125s21.5-24.375,27.125-29.5L323.612,68.2l31.125-25.625s31.375-24.5,44-29.125l12.75-5.125,7.233-2.272a22.975,22.975,0,0,1,21.967,4.589l3.8,3.308L483.362,52.7l41.25,42.083,1.23,1.174a21.326,21.326,0,0,1-.9,31.66h0l-46.334,46h0a25.3,25.3,0,0,0,.453,36.527l3.714,3.473,11.405,12.262a11.772,11.772,0,0,1-3.405,18.571h0l-24,14.167h0a14.98,14.98,0,0,0-6.064,20.52l.731,1.313,9.666,17.833.865,1.82a13.16,13.16,0,0,1-5.865,17.347h0l-58.333,33.5h0a16.375,16.375,0,0,1-22.578-5.471l-.422-.7-14.167-23.333-4.5-7.031a16.888,16.888,0,0,1,2.19-20.942l3.306-3.36,73.011-72.695a5.846,5.846,0,0,0,.171-8.108h0a5.844,5.844,0,0,0-8.483-.114l-33.2,34.083-63.666,64.667-34.584,38-68.5,70.25L209.946,443.62h0a18.412,18.412,0,0,1-26.284-.376l-1.55-1.624-36-37.334-39.166-40-24-24.166-11-11.667-.569-.656a16.663,16.663,0,0,0-21.51-3.172l-.255.161h0A55.958,55.958,0,0,0,28.17,364.269l-.058.684L26.446,397.62l-.05,2.306a33.787,33.787,0,0,0,8.55,23.194h0l1.852,1.852a65.81,65.81,0,0,0,26.137,16.034h0a65.8,65.8,0,0,1,26.4,16.3l17.943,18.148,16.667,18.5,3.672,4.034a27.049,27.049,0,0,1-1.006,37.466h0l-40,40.333h0a29,29,0,0,1-41.275.519l-3.225-3.185-27.5-28.542h0a40.159,40.159,0,0,1,2.927-55.222l9.573-9.07Z"/><path id="64fa6534-359b-4a52-829a-cafd0ad9218e" data-name="Pit" class="ba1eaed8-bfff-464d-a27b-bc61ecb3b11d" d="M394.862,251.828l-13.785,4a34.3,34.3,0,0,0-14.35,8.338l-11.24,10.917-37.5,34.875-12.639,12.858a33.684,33.684,0,0,0-6.709,9.821h0a33.711,33.711,0,0,1-6.061,9.142l-2.331,2.507a56.057,56.057,0,0,0-6.722,8.846L259.279,392.62"/><path id="ccb806e9-ab82-45ec-8ef0-2eddb495b3c7" data-name="Track" class="7a0fcc53-bea6-4159-aad9-75a3b583c170" d="M227.446,280.953l61.666-59.333,1.108-1.163a14.588,14.588,0,0,0-1.108-21.171h0L256.529,168.37l-1.2-1.111a19.143,19.143,0,0,1-2.841-24.806h0l12.625-16.125s21.5-24.375,27.125-29.5L323.612,68.2l31.125-25.625s31.375-24.5,44-29.125l12.75-5.125,7.233-2.272a22.975,22.975,0,0,1,21.967,4.589l3.8,3.308L483.362,52.7l41.25,42.083,1.23,1.174a21.326,21.326,0,0,1-.9,31.66h0l-46.334,46h0a25.3,25.3,0,0,0,.453,36.527l3.714,3.473,11.405,12.262a11.772,11.772,0,0,1-3.405,18.571h0l-24,14.167h0a14.98,14.98,0,0,0-6.064,20.52l.731,1.313,9.666,17.833.865,1.82a13.16,13.16,0,0,1-5.865,17.347h0l-58.333,33.5h0a16.375,16.375,0,0,1-22.578-5.471l-.422-.7-14.167-23.333-4.5-7.031a16.888,16.888,0,0,1,2.19-20.942l3.306-3.36,73.011-72.695a5.846,5.846,0,0,0,.171-8.108h0a5.844,5.844,0,0,0-8.483-.114l-33.2,34.083-63.666,64.667-34.584,38-68.5,70.25L209.946,443.62h0a18.412,18.412,0,0,1-26.284-.376l-1.55-1.624-36-37.334-39.166-40-24-24.166-11-11.667-.569-.656a16.663,16.663,0,0,0-21.51-3.172l-.255.161h0A55.958,55.958,0,0,0,28.17,364.269l-.058.684L26.446,397.62l-.05,2.306a33.787,33.787,0,0,0,8.55,23.194h0l1.852,1.852a65.81,65.81,0,0,0,26.137,16.034h0a65.8,65.8,0,0,1,26.4,16.3l17.943,18.148,16.667,18.5,3.672,4.034a27.049,27.049,0,0,1-1.006,37.466h0l-40,40.333h0a29,29,0,0,1-41.275.519l-3.225-3.185-27.5-28.542h0a40.159,40.159,0,0,1,2.927-55.222l9.573-9.07Z"/><g id="eefec257-18ea-449a-afc8-ed962766275c" data-name="Track2"><line class="5aff1b75-9626-495b-9595-593ec3ddb0e0" x1="140.23" y1="398.282" x2="115.199" y2="372.71"/><line class="58041fc3-2d1f-4564-bbd0-db55d728b5c3" x1="140.23" y1="398.282" x2="115.199" y2="372.71"/><line class="7a0fcc53-bea6-4159-aad9-75a3b583c170" x1="140.23" y1="398.282" x2="115.199" y2="372.71"/><line class="5aff1b75-9626-495b-9595-593ec3ddb0e0" x1="52.092" y1="455.432" x2="77.438" y2="430.203"/><line class="58041fc3-2d1f-4564-bbd0-db55d728b5c3" x1="52.092" y1="455.432" x2="77.438" y2="430.203"/><line class="7a0fcc53-bea6-4159-aad9-75a3b583c170" x1="52.092" y1="455.432" x2="77.438" y2="430.203"/></g><use id="cdec8486-84c8-4eeb-bb39-09627b7e8634" data-name="start finish line" width="200" height="103.617" transform="translate(237.607 296.986) rotate(-134.209) scale(0.171)" xlink:href="#7c2b1aa2-2aa7-4024-a871-adc7c4032716"/></g></g></g></svg>