<svg xmlns="http://www.w3.org/2000/svg" viewBox="0 0 455.293 454.668"><defs><style>.\30 2908cb2-990f-461f-afd1-88ee7e4bb423,.\33 ef3a847-3751-4bdb-a8bc-241df25c6694,.a3af7657-3587-48b0-8ceb-a9cdeff84387,.bc70c0ae-6132-45e3-8c48-443defbfc8ab,.bda8f9b8-68a9-404d-b7a0-e1f2c8417c7e{fill:none;stroke-linejoin:round;}.\30 2908cb2-990f-461f-afd1-88ee7e4bb423,.\33 ef3a847-3751-4bdb-a8bc-241df25c6694{stroke:#c91c1c;}.\30 2908cb2-990f-461f-afd1-88ee7e4bb423,.bda8f9b8-68a9-404d-b7a0-e1f2c8417c7e{stroke-width:14px;}.bc70c0ae-6132-45e3-8c48-443defbfc8ab,.d8435b59-43e4-4b3b-83b3-f1e89af5d3b5{stroke:#fff;}.bc70c0ae-6132-45e3-8c48-443defbfc8ab{stroke-width:7px;}.\33 ef3a847-3751-4bdb-a8bc-241df25c6694,.\37 b51fe72-b5dd-49c3-aa08-1ac5ef75311f,.a3af7657-3587-48b0-8ceb-a9cdeff84387,.b1f995f8-8d50-4464-9e6a-f20623d053ca,.d8435b59-43e4-4b3b-83b3-f1e89af5d3b5{stroke-width:2px;}.a3af7657-3587-48b0-8ceb-a9cdeff84387,.bda8f9b8-68a9-404d-b7a0-e1f2c8417c7e{stroke:#0080ff;}.\37 b51fe72-b5dd-49c3-aa08-1ac5ef75311f{fill:#00ff24;}.\37 b51fe72-b5dd-49c3-aa08-1ac5ef75311f,.b1f995f8-8d50-4464-9e6a-f20623d053ca{stroke:#000;}.\37 b51fe72-b5dd-49c3-aa08-1ac5ef75311f,.b1f995f8-8d50-4464-9e6a-f20623d053ca,.d8435b59-43e4-4b3b-83b3-f1e89af5d3b5{stroke-miterlimit:10;}.b1f995f8-8d50-4464-9e6a-f20623d053ca,.c6bc4d2b-66c6-4358-a690-ce9ff5b00853{fill:#fff;}.d8435b59-43e4-4b3b-83b3-f1e89af5d3b5{fill:#3a3a3a;}.\34 94c757e-bbd9-47ea-a894-ce5a3684766f{isolation:isolate;}</style></defs><title>Grotti_F1_Cluck_in_Bell</title><g id="a6247b1b-471c-48df-8be1-c6ebab015a3b" data-name="Layer 2"><g id="ed970060-2df4-4740-90d4-a58172bbe161" data-name="Blaine County"><g id="d1fa6e47-ff3a-4f5b-ba9d-40efd4a73fca" data-name="Grotti_F1_Cluck_in_Bell"><path class="02908cb2-990f-461f-afd1-88ee7e4bb423" d="M226.737,275.23s10.81-26.11,18.46-33.76,20.57-15.83,17.93-22.16,2.11-11.6,7.39-10.55,31.12-27.42,40.08-37.45,25.32-32.17,31.65-33.76,29.85-9.85,41.9-18.67"/><path class="bc70c0ae-6132-45e3-8c48-443defbfc8ab" d="M226.737,275.23s10.81-26.11,18.46-33.76,20.57-15.83,17.93-22.16,2.11-11.6,7.39-10.55,31.12-27.42,40.08-37.45,25.32-32.17,31.65-33.76,29.85-9.85,41.9-18.67"/><path class="3ef3a847-3751-4bdb-a8bc-241df25c6694" d="M226.737,275.23s10.81-26.11,18.46-33.76,20.57-15.83,17.93-22.16,2.11-11.6,7.39-10.55,31.12-27.42,40.08-37.45,25.32-32.17,31.65-33.76,29.85-9.85,41.9-18.67"/><path class="bda8f9b8-68a9-404d-b7a0-e1f2c8417c7e" d="M335.1,164.37s30.46-29.67,49-45.49,30.07-14.24,37.59-34,6.72-45.1-7.92-43.92-26.5,9.1-21.36,19.39S406.7,90.79,398,96.72s-32-23.34-41.14-32-38.77-47.08-63.3-32.84S235.8,70.61,214,93.16s-46.68,61.32-59.34,76-50.2,31.21-70.37,49.84-39.17,31.64-28.88,44.3,31.25,39.53,45.09,25.7,58.95-59.34,68.44-66.46,13.85-4,22.55,4.74,38.38,28.49,31.26,38S157.467,334.09,148,342s-14.64.39-21.37-7.52-27.29-41.54-42.32-26.9-62.91,57.36-69.24,73.58-9.49,33.63,9.89,51.43,33.63,13.06,47.48,0S335.1,164.37,335.1,164.37Z"/><path class="bc70c0ae-6132-45e3-8c48-443defbfc8ab" d="M335.1,164.37s30.46-29.67,49-45.49,30.07-14.24,37.59-34,6.72-45.1-7.92-43.92-26.5,9.1-21.36,19.39S406.7,90.79,398,96.72s-32-23.34-41.14-32-38.77-47.08-63.3-32.84S235.8,70.61,214,93.16s-46.68,61.32-59.34,76-50.2,31.21-70.37,49.84-39.17,31.64-28.88,44.3,31.25,39.53,45.09,25.7,58.95-59.34,68.44-66.46,13.85-4,22.55,4.74,38.38,28.49,31.26,38S157.467,334.09,148,342s-14.64.39-21.37-7.52-27.29-41.54-42.32-26.9-62.91,57.36-69.24,73.58-9.49,33.63,9.89,51.43,33.63,13.06,47.48,0S335.1,164.37,335.1,164.37Z"/><path class="a3af7657-3587-48b0-8ceb-a9cdeff84387" d="M335.1,164.37s30.46-29.67,49-45.49,30.07-14.24,37.59-34,6.72-45.1-7.92-43.92-26.5,9.1-21.36,19.39S406.7,90.79,398,96.72s-32-23.34-41.14-32-38.77-47.08-63.3-32.84S235.8,70.61,214,93.16s-46.68,61.32-59.34,76-50.2,31.21-70.37,49.84-39.17,31.64-28.88,44.3,31.25,39.53,45.09,25.7,58.95-59.34,68.44-66.46,13.85-4,22.55,4.74,38.38,28.49,31.26,38S157.467,334.09,148,342s-14.64.39-21.37-7.52-27.29-41.54-42.32-26.9-62.91,57.36-69.24,73.58-9.49,33.63,9.89,51.43,33.63,13.06,47.48,0S335.1,164.37,335.1,164.37Z"/><rect class="7b51fe72-b5dd-49c3-aa08-1ac5ef75311f" x="335.756" y="134.048" width="8.8" height="36.48" transform="translate(-2.032 299.954) rotate(-47.46)"/><rect class="b1f995f8-8d50-4464-9e6a-f20623d053ca" x="319.098" y="145.482" width="9.12" height="9.12" transform="translate(-5.72 287.07) rotate(-47.46)"/><rect class="b1f995f8-8d50-4464-9e6a-f20623d053ca" x="325.824" y="151.644" width="9.12" height="9.12" transform="translate(-8.082 294.022) rotate(-47.46)"/><rect class="b1f995f8-8d50-4464-9e6a-f20623d053ca" x="332.534" y="157.813" width="9.12" height="9.12" transform="translate(-10.454 300.965) rotate(-47.46)"/><rect class="b1f995f8-8d50-4464-9e6a-f20623d053ca" x="339.26" y="163.975" width="9.12" height="9.12" transform="translate(-12.816 307.917) rotate(-47.46)"/><g id="6e0c25cb-0861-45e6-92b4-99bc90ff90b7" data-name="Corner Numbers"><g id="87541bc3-c8b6-4166-90d7-1ab123eae2a7" data-name="Layer 49"><path id="77ae9eda-64ad-4e1d-a9ea-6e1179938bec" data-name="Elipse l" class="d8435b59-43e4-4b3b-83b3-f1e89af5d3b5" d="M439.587,60.65a9,9,0,1,1-1.255,12.666l0-.006c-4.15-5.07-6.36-6.18-6.26-7S434.557,64.77,439.587,60.65Z"/><g id="fbfb9aa7-1111-46b0-9f25-334be6c9eda4" data-name="Number l" class="494c757e-bbd9-47ea-a894-ce5a3684766f"><path class="c6bc4d2b-66c6-4358-a690-ce9ff5b00853" d="M446.034,72.15h-1.1v-7a5.6,5.6,0,0,1-1.041.757,7.384,7.384,0,0,1-1.156.569V65.412a6.628,6.628,0,0,0,1.611-1.05,4.118,4.118,0,0,0,.977-1.2h.708Z"/></g></g><g id="0fc3d28b-33dc-47a0-9b43-0d52da40b0b9" data-name="Layer 50"><path id="542fd8fc-8a3b-4ea0-8721-1d8646bd90f3" data-name="Elipse l-2" class="d8435b59-43e4-4b3b-83b3-f1e89af5d3b5" d="M377.347,53.89a9,9,0,1,1,4.646-11.849l0,.009c2.62,6,4.44,7.68,4.11,8.49S383.317,51.3,377.347,53.89Z"/><g id="af442550-1ce2-4492-994b-5e3ede0797bb" data-name="Number l-2" class="494c757e-bbd9-47ea-a894-ce5a3684766f"><path class="c6bc4d2b-66c6-4358-a690-ce9ff5b00853" d="M376.95,49.345V50.4h-5.914a1.917,1.917,0,0,1,.128-.762,4.009,4.009,0,0,1,.723-1.191,11.462,11.462,0,0,1,1.437-1.355A12.155,12.155,0,0,0,375.3,45.2a2.266,2.266,0,0,0,.512-1.321,1.468,1.468,0,0,0-.466-1.1,1.688,1.688,0,0,0-1.218-.449,1.716,1.716,0,0,0-1.27.477,1.8,1.8,0,0,0-.482,1.318L371.243,44a2.777,2.777,0,0,1,.873-1.926,2.978,2.978,0,0,1,2.032-.662,2.838,2.838,0,0,1,2.039.714,2.345,2.345,0,0,1,.75,1.77,2.693,2.693,0,0,1-.219,1.056,4.134,4.134,0,0,1-.729,1.093,17.9,17.9,0,0,1-1.694,1.574q-.988.831-1.27,1.126a3.626,3.626,0,0,0-.464.6Z"/></g></g><g id="bf64d496-0b21-4090-ba5a-7a49c1e2eafd" data-name="Layer 51"><path id="162178f4-def6-434b-8b06-5e44c8adfde9" data-name="Elipse l-3" class="d8435b59-43e4-4b3b-83b3-f1e89af5d3b5" d="M382.157,108.59a9,9,0,1,1-6.751-10.79h0c6.39,1.47,8.8,1,9.26,1.74S383.617,102.25,382.157,108.59Z"/><g id="8153a2e6-0e6c-41b2-9992-8c19b24969cc" data-name="Number l-3" class="494c757e-bbd9-47ea-a894-ce5a3684766f"><path class="c6bc4d2b-66c6-4358-a690-ce9ff5b00853" d="M370.772,108.588l1.1-.147a2.411,2.411,0,0,0,.645,1.346,1.586,1.586,0,0,0,1.107.412,1.778,1.778,0,0,0,1.31-.537,1.815,1.815,0,0,0,.534-1.33,1.682,1.682,0,0,0-.5-1.248,1.706,1.706,0,0,0-1.257-.491,3.172,3.172,0,0,0-.776.121l.122-.964a1.783,1.783,0,0,0,.178.013,2.257,2.257,0,0,0,1.263-.368,1.252,1.252,0,0,0,.561-1.128,1.336,1.336,0,0,0-.408-1,1.452,1.452,0,0,0-1.056-.4,1.493,1.493,0,0,0-1.068.4,2.023,2.023,0,0,0-.55,1.208l-1.1-.2a2.824,2.824,0,0,1,.915-1.712,2.645,2.645,0,0,1,1.776-.607,2.922,2.922,0,0,1,1.349.314,2.274,2.274,0,0,1,.943.858,2.2,2.2,0,0,1,.327,1.153,1.891,1.891,0,0,1-.311,1.056,2.124,2.124,0,0,1-.922.757,2.074,2.074,0,0,1,1.233.76,2.311,2.311,0,0,1,.439,1.444,2.638,2.638,0,0,1-.854,1.986,3.007,3.007,0,0,1-2.161.814,2.81,2.81,0,0,1-1.956-.7A2.712,2.712,0,0,1,370.772,108.588Z"/></g></g><g id="babd8347-3788-457e-a8b5-3e39bf7b2402" data-name="Layer 52"><path id="eb0d5fa3-c7ce-465a-a199-be71bb13c54e" data-name="Elipse l-4" class="d8435b59-43e4-4b3b-83b3-f1e89af5d3b5" d="M304.557,15.36a9,9,0,1,1,12.59,1.87c-5.27,3.9-6.48,6.05-7.34,5.91S308.427,20.58,304.557,15.36Z"/><g id="b2429679-f2b4-48aa-815a-294e55b4aafa" data-name="Number l-4" class="494c757e-bbd9-47ea-a894-ce5a3684766f"><path class="c6bc4d2b-66c6-4358-a690-ce9ff5b00853" d="M312.247,15.01V12.868h-3.881V11.861l4.083-5.8h.9v5.8h1.209v1.007h-1.209V15.01Zm0-3.149V7.827l-2.8,4.034Z"/></g></g><g id="4b3d700a-3b22-490c-a716-e70fddeb0034" data-name="Layer 53"><path id="5dd83c19-6d60-419a-834d-19f83cff0947" data-name="Elipse l-5" class="d8435b59-43e4-4b3b-83b3-f1e89af5d3b5" d="M40.067,262.48a9,9,0,1,1-.556-12.715l.006.005c4.84,4.43,7.17,5.22,7.2,6.09S44.467,257.69,40.067,262.48Z"/><g id="72f756f8-b03b-4d65-8270-ce3647ac4484" data-name="Number l-5" class="494c757e-bbd9-47ea-a894-ce5a3684766f"><path class="c6bc4d2b-66c6-4358-a690-ce9ff5b00853" d="M30.875,258.637l1.154-.1a2.076,2.076,0,0,0,.595,1.267,1.614,1.614,0,0,0,1.126.423,1.755,1.755,0,0,0,1.343-.6,2.258,2.258,0,0,0,.549-1.587,2.044,2.044,0,0,0-.527-1.484,1.842,1.842,0,0,0-1.383-.543,1.91,1.91,0,0,0-.958.242,1.858,1.858,0,0,0-.672.625l-1.031-.134.867-4.6h4.449v1.051h-3.57l-.483,2.4a2.914,2.914,0,0,1,1.691-.561,2.677,2.677,0,0,1,1.977.811,2.84,2.84,0,0,1,.806,2.088,3.259,3.259,0,0,1-.708,2.1,2.838,2.838,0,0,1-2.35,1.086,2.89,2.89,0,0,1-1.992-.684A2.667,2.667,0,0,1,30.875,258.637Z"/></g></g><g id="bd4d180f-456d-466d-b0c6-028ada530556" data-name="Layer 59"><path id="d48ff759-4355-4d9a-ac55-484ff5fafb2f" data-name="Elipse l-6" class="d8435b59-43e4-4b3b-83b3-f1e89af5d3b5" d="M85.657,279.85a9,9,0,1,1,12.72.48c-4.81,4.46-5.78,6.72-6.65,6.68S90.077,284.62,85.657,279.85Z"/><g id="4a2915d1-3489-4629-831a-d1404e857784" data-name="Number l-6" class="494c757e-bbd9-47ea-a894-ce5a3684766f"><path class="c6bc4d2b-66c6-4358-a690-ce9ff5b00853" d="M94.947,271.994l-1.093.086a2.073,2.073,0,0,0-.415-.941,1.455,1.455,0,0,0-1.1-.47,1.514,1.514,0,0,0-.922.293,2.5,2.5,0,0,0-.817,1.105,5.776,5.776,0,0,0-.312,2.069,2.543,2.543,0,0,1,.971-.9,2.6,2.6,0,0,1,1.2-.293,2.491,2.491,0,0,1,1.871.808,2.905,2.905,0,0,1,.772,2.091,3.444,3.444,0,0,1-.363,1.566,2.643,2.643,0,0,1-1,1.107,2.718,2.718,0,0,1-1.44.385,2.811,2.811,0,0,1-2.24-1.01,5.1,5.1,0,0,1-.867-3.33,5.97,5.97,0,0,1,.958-3.772,2.757,2.757,0,0,1,2.253-1.025,2.4,2.4,0,0,1,2.539,2.228Zm-4.487,3.857a2.532,2.532,0,0,0,.242,1.087,1.788,1.788,0,0,0,.674.79,1.678,1.678,0,0,0,.91.271,1.549,1.549,0,0,0,1.2-.561,2.212,2.212,0,0,0,.5-1.525,2.069,2.069,0,0,0-.494-1.462,1.623,1.623,0,0,0-1.245-.535,1.693,1.693,0,0,0-1.264.535A1.924,1.924,0,0,0,90.46,275.851Z"/></g></g><g id="ed225176-f578-4c0c-b901-84a05930accf" data-name="Layer 54"><path id="eb89c43b-64d0-4ab6-a06d-fe04c3260271" data-name="Elipse l-7" class="d8435b59-43e4-4b3b-83b3-f1e89af5d3b5" d="M172,205.72a9,9,0,1,1,12.72.44h0c-4.8,4.48-5.76,6.74-6.63,6.7S176.427,210.48,172,205.72Z"/><g id="5a4a991a-4e28-4169-b61f-b3bf86b74d93" data-name="Number l-7" class="494c757e-bbd9-47ea-a894-ce5a3684766f"><path class="c6bc4d2b-66c6-4358-a690-ce9ff5b00853" d="M175.649,196.825v-1.057h5.792v.855a12.206,12.206,0,0,0-1.694,2.417,14.735,14.735,0,0,0-1.3,3.1,11.45,11.45,0,0,0-.421,2.46H176.9a10.961,10.961,0,0,1,.415-2.551,13.455,13.455,0,0,1,1.138-2.885,12.391,12.391,0,0,1,1.579-2.34Z"/></g></g><g id="e7aafdf4-d68a-47f5-8975-afc3d7c5c6f4" data-name="Layer 55"><path id="ebe31dec-b706-4ea2-9b79-d512f42abcae" data-name="Elipse l-8" class="d8435b59-43e4-4b3b-83b3-f1e89af5d3b5" d="M210.307,267.62a9,9,0,1,1,.337-12.723l0,0c4.51,4.76,6.78,5.71,6.75,6.58S215,263.15,210.307,267.62Z"/><g id="c3c99cf5-ab94-43dd-aee2-521405aa22d1" data-name="Number l-8" class="494c757e-bbd9-47ea-a894-ce5a3684766f"><path class="c6bc4d2b-66c6-4358-a690-ce9ff5b00853" d="M203.246,260.858a2.068,2.068,0,0,1-1.013-.714,1.875,1.875,0,0,1-.329-1.111,2.174,2.174,0,0,1,.7-1.642,2.954,2.954,0,0,1,3.754.016,2.2,2.2,0,0,1,.714,1.657,1.828,1.828,0,0,1-.326,1.083,2.055,2.055,0,0,1-.992.711,2.4,2.4,0,0,1,1.254.867,2.378,2.378,0,0,1,.43,1.428,2.568,2.568,0,0,1-.811,1.928,3.306,3.306,0,0,1-4.273,0,2.61,2.61,0,0,1-.811-1.957,2.36,2.36,0,0,1,.442-1.461A2.212,2.212,0,0,1,203.246,260.858Zm-.573,2.27a2,2,0,0,0,.222.911,1.577,1.577,0,0,0,.662.679,1.936,1.936,0,0,0,.947.241,1.775,1.775,0,0,0,1.3-.506,1.735,1.735,0,0,0,.512-1.288,1.762,1.762,0,0,0-.528-1.312,1.808,1.808,0,0,0-1.321-.519,1.747,1.747,0,0,0-1.794,1.794Zm.354-4.131a1.4,1.4,0,0,0,.408,1.038,1.456,1.456,0,0,0,1.063.4,1.421,1.421,0,0,0,1.04-.4,1.323,1.323,0,0,0,.406-.98,1.371,1.371,0,0,0-.418-1.017,1.535,1.535,0,0,0-2.084-.008A1.291,1.291,0,0,0,203.027,259Z"/></g></g><g id="2040eba9-a5bd-4ecd-b454-25e6384478ee" data-name="Layer 56"><path id="fcdff671-edf8-48fd-b4dd-05d7b6cc3d3e" data-name="Elipse l-9" class="d8435b59-43e4-4b3b-83b3-f1e89af5d3b5" d="M135,330.72a9,9,0,1,1,12.586,1.9l-.006,0c-5.28,3.89-6.5,6-7.36,5.89S138.847,336,135,330.72Z"/><g id="a5b36d55-d572-45b6-b698-225e3598f82c" data-name="Number l-9" class="494c757e-bbd9-47ea-a894-ce5a3684766f"><path class="c6bc4d2b-66c6-4358-a690-ce9ff5b00853" d="M139.341,328.321l1.055-.1a1.843,1.843,0,0,0,.513,1.081,1.412,1.412,0,0,0,.971.335,1.679,1.679,0,0,0,.888-.232,1.889,1.889,0,0,0,.625-.62,3.649,3.649,0,0,0,.41-1.046,5.563,5.563,0,0,0,.164-1.344c0-.048,0-.121-.006-.218a2.52,2.52,0,0,1-.9.85,2.447,2.447,0,0,1-1.236.327,2.5,2.5,0,0,1-1.88-.805,2.947,2.947,0,0,1-.769-2.124,3.021,3.021,0,0,1,.8-2.192,2.686,2.686,0,0,1,2.012-.83,2.865,2.865,0,0,1,1.6.47,2.933,2.933,0,0,1,1.1,1.34,6.6,6.6,0,0,1,.375,2.517,8.159,8.159,0,0,1-.372,2.732,3.191,3.191,0,0,1-1.108,1.547,2.864,2.864,0,0,1-1.724.531,2.363,2.363,0,0,1-2.514-2.222Zm4.5-3.948a2.15,2.15,0,0,0-.5-1.5,1.578,1.578,0,0,0-1.211-.556,1.67,1.67,0,0,0-1.275.6,2.211,2.211,0,0,0-.544,1.55,1.911,1.911,0,0,0,.516,1.388,1.7,1.7,0,0,0,1.273.535,1.627,1.627,0,0,0,1.254-.535A2.1,2.1,0,0,0,143.839,324.373Z"/></g></g><g id="c9bdff7f-e0aa-46dc-9475-19d1e51b697d" data-name="Layer 57"><path id="ac5ab8ee-3157-42d7-ad14-175b8d5b7c5c" data-name="Elipse l-10" class="d8435b59-43e4-4b3b-83b3-f1e89af5d3b5" d="M99.347,317.71a9,9,0,1,1-12.725-.254l0-.006c4.73-4.54,5.66-6.82,6.54-6.79S94.847,313,99.347,317.71Z"/><g id="2627d7ae-96df-4422-8609-16f44da70769" data-name="Number l-10" class="494c757e-bbd9-47ea-a894-ce5a3684766f"><path class="c6bc4d2b-66c6-4358-a690-ce9ff5b00853" d="M90.834,328.121h-1.1v-7a5.709,5.709,0,0,1-1.041.756,7.433,7.433,0,0,1-1.157.569v-1.063a6.605,6.605,0,0,0,1.612-1.05,4.129,4.129,0,0,0,.976-1.2h.708Z"/><path class="c6bc4d2b-66c6-4358-a690-ce9ff5b00853" d="M93.648,323.707a8.2,8.2,0,0,1,.326-2.553,3.164,3.164,0,0,1,.971-1.492,2.475,2.475,0,0,1,1.621-.526,2.645,2.645,0,0,1,1.263.29,2.422,2.422,0,0,1,.9.836,4.5,4.5,0,0,1,.556,1.331,8.857,8.857,0,0,1,.2,2.114,8.227,8.227,0,0,1-.323,2.542,3.189,3.189,0,0,1-.968,1.5,2.484,2.484,0,0,1-1.626.527,2.454,2.454,0,0,1-2.033-.928A5.9,5.9,0,0,1,93.648,323.707Zm1.129,0a5.606,5.606,0,0,0,.516,2.933,1.473,1.473,0,0,0,2.545,0,8.591,8.591,0,0,0,0-5.865,1.532,1.532,0,0,0-1.285-.727,1.407,1.407,0,0,0-1.208.642A5.665,5.665,0,0,0,94.777,323.707Z"/></g></g><g id="1cba0594-70ad-4bd8-a0f5-c84915aed806" data-name="Layer 58"><path id="f41928cf-8bec-4ff1-b5f8-d2a9162d86e6" data-name="Elipse l-11" class="d8435b59-43e4-4b3b-83b3-f1e89af5d3b5" d="M19,444.43a9,9,0,1,1-9.234-8.759h.014c6.55-.17,8.77-1.23,9.4-.63S18.827,437.93,19,444.43Z"/><g id="c7994453-15e1-4a69-b8ab-589f34ea1cb0" data-name="Number l-11" class="494c757e-bbd9-47ea-a894-ce5a3684766f"><path class="c6bc4d2b-66c6-4358-a690-ce9ff5b00853" d="M8.244,448.96h-1.1v-7a5.6,5.6,0,0,1-1.041.757,7.384,7.384,0,0,1-1.156.569v-1.063a6.647,6.647,0,0,0,1.611-1.05,4.118,4.118,0,0,0,.977-1.2h.708Z"/><path class="c6bc4d2b-66c6-4358-a690-ce9ff5b00853" d="M14.268,448.96h-1.1v-7a5.663,5.663,0,0,1-1.041.757,7.428,7.428,0,0,1-1.156.569v-1.063a6.647,6.647,0,0,0,1.611-1.05,4.129,4.129,0,0,0,.976-1.2h.708Z"/></g></g></g></g></g></g></svg>