<svg xmlns="http://www.w3.org/2000/svg" xmlns:xlink="http://www.w3.org/1999/xlink" width="809.939" height="745.345" viewBox="0 0 809.939 745.345"><defs><style>.a34025f6-b28c-444c-b267-6d7dfcf2cec2{fill:#00ff24;}.a34025f6-b28c-444c-b267-6d7dfcf2cec2,.d1b359ed-66ce-404f-b5c7-c561f3474705{stroke:#000;stroke-width:5px;}.\32 1af3b2c-8988-45cd-ba13-54e09435ef4d,.\32 307ad7b-dc65-4885-ae0a-a63a4644da7d,.\34 c7421b0-bdef-4989-8781-0347d1835375,.\35 175aa99-3512-4594-802d-742754fe5d07,.\37 13f6e48-d4f5-4408-ac45-7c5988009b74,.a34025f6-b28c-444c-b267-6d7dfcf2cec2,.d1b359ed-66ce-404f-b5c7-c561f3474705{stroke-miterlimit:10;}.d1b359ed-66ce-404f-b5c7-c561f3474705{fill:#fff;}.\32 1af3b2c-8988-45cd-ba13-54e09435ef4d,.\32 307ad7b-dc65-4885-ae0a-a63a4644da7d,.\34 c7421b0-bdef-4989-8781-0347d1835375,.\35 175aa99-3512-4594-802d-742754fe5d07,.\37 13f6e48-d4f5-4408-ac45-7c5988009b74{fill:none;}.\32 1af3b2c-8988-45cd-ba13-54e09435ef4d,.\32 307ad7b-dc65-4885-ae0a-a63a4644da7d{stroke:#c91c1c;}.\32 1af3b2c-8988-45cd-ba13-54e09435ef4d,.\34 c7421b0-bdef-4989-8781-0347d1835375{stroke-width:20px;}.\34 c7421b0-bdef-4989-8781-0347d1835375,.\35 175aa99-3512-4594-802d-742754fe5d07{stroke:#0080ff;}.\37 13f6e48-d4f5-4408-ac45-7c5988009b74{stroke:#fff;stroke-width:12px;}.\32 307ad7b-dc65-4885-ae0a-a63a4644da7d,.\35 175aa99-3512-4594-802d-742754fe5d07{stroke-width:2px;}</style><symbol id="44556170-250d-4930-897f-3c5ecfe30f4a" data-name="fd103434-89f2-4089-acf9-54fed79ed404" viewBox="0 0 200 103.617"><rect class="a34025f6-b28c-444c-b267-6d7dfcf2cec2" x="2.5" y="54.074" width="195" height="47.043"/><rect class="d1b359ed-66ce-404f-b5c7-c561f3474705" x="2.5" y="2.5" width="48.75" height="48.75"/><rect class="d1b359ed-66ce-404f-b5c7-c561f3474705" x="51.25" y="2.5" width="48.75" height="48.75"/><rect class="d1b359ed-66ce-404f-b5c7-c561f3474705" x="100" y="2.5" width="48.75" height="48.75"/><rect class="d1b359ed-66ce-404f-b5c7-c561f3474705" x="148.75" y="2.5" width="48.75" height="48.75"/></symbol></defs><title>Northwick_GP</title><g id="a889e47d-ebae-4137-88ab-4b080e9055e1" data-name="Layer 2"><g id="2f0ddf1f-6081-4961-9c6e-c4eea882342c" data-name="Blaine County"><g id="3aa7ace5-d8ed-4fa6-b41c-0a06dc5c55cf" data-name="Northwick_GP"><path id="2bd0c364-7ae1-4c58-8faf-00a586c25240" data-name="Pit Outer" class="21af3b2c-8988-45cd-ba13-54e09435ef4d" d="M266.011,349.311c12.67,10.951,4.024,18.784,13.69,28.451s27,26.333,41,36,27,20.333,38.334,14S364.7,416.1,378.7,406.429s85.976-52.689,93-58c6.834-5.167,4.514-12.731,15.4-20.731"/><path id="1d5865c5-4393-4177-a243-961de441d1b3" data-name="Track Outer" class="4c7421b0-bdef-4989-8781-0347d1835375" d="M407.146,378.317S467.7,342.429,492.035,324.1s49.333-40.333,57-48.333,14.333-10,21.333-29.667,46.333-7.333,65-14.666S671.7,205.1,680.035,175.1s-8.111-73.333-10.445-101,.223-38.111,18.223-51.111S716.957,9.023,744.257,10.54c24,1.333,40.778,9.111,48.444,20.666,9.075,13.678,8.556,28.667,4.223,42.667s-26.78,70.856-31.334,86.444c-5.777,19.778-5.333,42.667,5.111,68,5.628,13.651,15.667,27.778-1,40.112S703.368,307.1,691.035,312.1s-63,19.5-76.167,25.167c-6.65,2.862-24.25,10.123-37.833,19.833-11.587,8.283-22.222,19.942-28.667,27-14,15.334-38,31.334-61,39.667s-52.533,41.673-74.333,43C374.7,469.1,340.368,454.1,319.368,468.1s-22.333,37.667-25.333,52.334-6.667,52-24.667,66.666-52.667,40.334-80.333,56.667-47,35-56.556,43.444-24.889,35.111-36.666,42-29.112,9.556-46.223-.444S15.368,696.1,12.035,679.651c-4.067-20.061-1.167-67.722,1.166-90.722s2.834-78.167,9.167-98.834,33.667-34.333,67.667-9.333,67,49.667,82.333,52.333,38.333,5,50.333-19.333,22.334-52.333,11.667-75-82-83-101-99.667-38.667-32.333-16-58.333,42.333-25,63-1,11,23.333,25,39,27.667,5,47.667,20,52,47,64,57,31.666,17,57.333,2S407.146,378.317,407.146,378.317Z"/><path id="b58f79d2-9f4a-4af3-bae5-f5c5f1a19193" data-name="Track Middle" class="713f6e48-d4f5-4408-ac45-7c5988009b74" d="M407.146,378.317S467.7,342.429,492.035,324.1s49.333-40.333,57-48.333,14.333-10,21.333-29.667,46.333-7.333,65-14.666S671.7,205.1,680.035,175.1s-8.111-73.333-10.445-101,.223-38.111,18.223-51.111S716.957,9.023,744.257,10.54c24,1.333,40.778,9.111,48.444,20.666,9.075,13.678,8.556,28.667,4.223,42.667s-26.78,70.856-31.334,86.444c-5.777,19.778-5.333,42.667,5.111,68,5.628,13.651,15.667,27.778-1,40.112S703.368,307.1,691.035,312.1s-63,19.5-76.167,25.167c-6.65,2.862-24.25,10.123-37.833,19.833-11.587,8.283-22.222,19.942-28.667,27-14,15.334-38,31.334-61,39.667s-52.533,41.673-74.333,43C374.7,469.1,340.368,454.1,319.368,468.1s-22.333,37.667-25.333,52.334-6.667,52-24.667,66.666-52.667,40.334-80.333,56.667-47,35-56.556,43.444-24.889,35.111-36.666,42-29.112,9.556-46.223-.444S15.368,696.1,12.035,679.651c-4.067-20.061-1.167-67.722,1.166-90.722s2.834-78.167,9.167-98.834,33.667-34.333,67.667-9.333,67,49.667,82.333,52.333,38.333,5,50.333-19.333,22.334-52.333,11.667-75-82-83-101-99.667-38.667-32.333-16-58.333,42.333-25,63-1,11,23.333,25,39,27.667,5,47.667,20,52,47,64,57,31.666,17,57.333,2S407.146,378.317,407.146,378.317Z"/><path id="52e495fc-bf78-460a-9802-fd7edd44848b" data-name="Pit Middle" class="713f6e48-d4f5-4408-ac45-7c5988009b74" d="M266.011,349.311c12.67,10.951,4.024,18.784,13.69,28.451s27,26.333,41,36,27,20.333,38.334,14S364.7,416.1,378.7,406.429s85.976-52.689,93-58c6.834-5.167,4.514-12.731,15.4-20.731"/><path id="b2e5c0de-c718-43e2-9bab-cee111ec40b0" data-name="Pit Inner" class="2307ad7b-dc65-4885-ae0a-a63a4644da7d" d="M266.011,349.311c12.67,10.951,4.024,18.784,13.69,28.451s27,26.333,41,36,27,20.333,38.334,14S364.7,416.1,378.7,406.429s85.976-52.689,93-58c6.834-5.167,4.514-12.731,15.4-20.731"/><path id="9f60758f-d5df-4b9d-a654-9fc19a8b2763" data-name="Track Inner" class="5175aa99-3512-4594-802d-742754fe5d07" d="M407.146,378.317S467.7,342.429,492.035,324.1s49.333-40.333,57-48.333,14.333-10,21.333-29.667,46.333-7.333,65-14.666S671.7,205.1,680.035,175.1s-8.111-73.333-10.445-101,.223-38.111,18.223-51.111S716.957,9.023,744.257,10.54c24,1.333,40.778,9.111,48.444,20.666,9.075,13.678,8.556,28.667,4.223,42.667s-26.78,70.856-31.334,86.444c-5.777,19.778-5.333,42.667,5.111,68,5.628,13.651,15.667,27.778-1,40.112S703.368,307.1,691.035,312.1s-63,19.5-76.167,25.167c-6.65,2.862-24.25,10.123-37.833,19.833-11.587,8.283-22.222,19.942-28.667,27-14,15.334-38,31.334-61,39.667s-52.533,41.673-74.333,43C374.7,469.1,340.368,454.1,319.368,468.1s-22.333,37.667-25.333,52.334-6.667,52-24.667,66.666-52.667,40.334-80.333,56.667-47,35-56.556,43.444-24.889,35.111-36.666,42-29.112,9.556-46.223-.444S15.368,696.1,12.035,679.651c-4.067-20.061-1.167-67.722,1.166-90.722s2.834-78.167,9.167-98.834,33.667-34.333,67.667-9.333,67,49.667,82.333,52.333,38.333,5,50.333-19.333,22.334-52.333,11.667-75-82-83-101-99.667-38.667-32.333-16-58.333,42.333-25,63-1,11,23.333,25,39,27.667,5,47.667,20,52,47,64,57,31.666,17,57.333,2S407.146,378.317,407.146,378.317Z"/><use id="2722a0cf-793e-4bfb-bfde-7f2e994accc3" data-name="Start-Finish-Line" width="200" height="103.617" transform="matrix(-0.177, -0.225, 0.225, -0.177, 506.689, 348.817)" xlink:href="#44556170-250d-4930-897f-3c5ecfe30f4a"/></g></g></g></svg>