<svg xmlns="http://www.w3.org/2000/svg" xmlns:xlink="http://www.w3.org/1999/xlink" width="491.737" height="602.519" viewBox="0 0 491.737 602.519"><defs><style>.\30 35e585e-888a-4757-86c7-1ed6be60dbdc{fill:#00ff24;}.\30 35e585e-888a-4757-86c7-1ed6be60dbdc,.c8f339f6-34fe-48d3-8352-e31058ef4e5f{stroke:#000;stroke-width:5px;}.\30 35e585e-888a-4757-86c7-1ed6be60dbdc,.\35 21ee3c7-d246-4efa-ab3f-02fb7cc9804a,.\36 2adaaef-3886-4507-b7c6-681218387709,.\36 4b34a1c-f5dc-4307-9350-d9eb09ca49c5,.\39 12b1516-5a81-4510-aa48-88f29fbb7d7e,.b40886fa-62fc-4d1e-a42d-15e4401285c8,.c8f339f6-34fe-48d3-8352-e31058ef4e5f{stroke-miterlimit:10;}.c8f339f6-34fe-48d3-8352-e31058ef4e5f{fill:#fff;}.\35 21ee3c7-d246-4efa-ab3f-02fb7cc9804a,.\36 2adaaef-3886-4507-b7c6-681218387709,.\36 4b34a1c-f5dc-4307-9350-d9eb09ca49c5,.\39 12b1516-5a81-4510-aa48-88f29fbb7d7e,.b40886fa-62fc-4d1e-a42d-15e4401285c8{fill:none;}.\36 2adaaef-3886-4507-b7c6-681218387709,.b40886fa-62fc-4d1e-a42d-15e4401285c8{stroke:#c91c1c;}.\35 21ee3c7-d246-4efa-ab3f-02fb7cc9804a,.b40886fa-62fc-4d1e-a42d-15e4401285c8{stroke-width:20px;}.\35 21ee3c7-d246-4efa-ab3f-02fb7cc9804a,.\36 4b34a1c-f5dc-4307-9350-d9eb09ca49c5{stroke:#0080ff;}.\39 12b1516-5a81-4510-aa48-88f29fbb7d7e{stroke:#fff;stroke-width:12px;}.\36 2adaaef-3886-4507-b7c6-681218387709,.\36 4b34a1c-f5dc-4307-9350-d9eb09ca49c5{stroke-width:2px;}</style><symbol id="3aecdbd2-95f9-4214-bb34-1f97991546e3" data-name="fd103434-89f2-4089-acf9-54fed79ed404" viewBox="0 0 200 103.617"><rect class="035e585e-888a-4757-86c7-1ed6be60dbdc" x="2.5" y="54.074" width="195" height="47.043"/><rect class="c8f339f6-34fe-48d3-8352-e31058ef4e5f" x="2.5" y="2.5" width="48.75" height="48.75"/><rect class="c8f339f6-34fe-48d3-8352-e31058ef4e5f" x="51.25" y="2.5" width="48.75" height="48.75"/><rect class="c8f339f6-34fe-48d3-8352-e31058ef4e5f" x="100" y="2.5" width="48.75" height="48.75"/><rect class="c8f339f6-34fe-48d3-8352-e31058ef4e5f" x="148.75" y="2.5" width="48.75" height="48.75"/></symbol></defs><title>Paleto_Cup_Circuit</title><g id="850acc94-06b8-467c-9a40-79e2637d6b12" data-name="Layer 2"><g id="379af619-df3a-41e4-8d9d-a109c6d265f7" data-name="Blaine County"><g id="9586805d-a126-4262-bc62-3d3cb3547371" data-name="Paleto_Cup_Circuit"><path id="40431818-04e8-4a22-a5f1-f5afb4dfe082" data-name="Pit Outer" class="b40886fa-62fc-4d1e-a42d-15e4401285c8" d="M255.346,73.437c-3.572,8.108,4.51,11.448.278,22.667-4.332,11.482-21.911,70.67-24.334,78.722-2.718,9.035-11.881,13.642-14.77,23.809"/><path id="30805d02-4680-436d-89ee-a451880bda34" data-name="Track Outer" class="521ee3c7-d246-4efa-ab3f-02fb7cc9804a" d="M212.512,212.6c-4.626,17.513-10.666,41.555-12.666,51.111s-7.334,23.111,11.778,36.667,56,35.777,66.666,42.888,25.334,22.223,14.222,37.334-35.333,39.555-46.888,51.333-44,49.111-56,61.111-46,44.222-56,53.556-35.778,34.222-42.445,40.889-18,7.777-29.555-3.334c-20.278-19.5-34.889-37.555-37.556-47.777s-4.222-24.445,7.556-37.556S62.165,467.8,65.846,463.715c6-6.667,6.2-13.3-3.111-22.889-7.556-7.778-20.667-16.889-20.223-32.667s2-40.889,5.778-51.555,7.556-17.556,20.445-25.556a303.332,303.332,0,0,0,36-26.666c8.889-7.778,21.111-14.778,19-29.112-1.991-13.519-13.556-19.222-27.223-22.444-17.889-4.218-32.222-6.667-44.222-9.556-12.435-2.993-38-7.222-41.555,3.223-3.768,11.067,7.53,17.273,20.777,29.222C42.846,285.937,85.4,327.937,98.29,340.826s18.222,20.222,26.222,28.667,17.334,20.666,30.667,6.444,74.889-77.111,86.889-88.667,46.444-43.777,55.556-52.444,22.444-17.556,9.555-30-24.32-23.476-31.049-29.738-16.951-9.595-5.173-27.818,21.555-29.777,33.333-40.666,42.889-38.667,59.556-52.667,45.666-34.667,58.666-39,22.5-10,37.167,3.667,15.5,14.333,19.167,18.166,5.833,9.334-6.167,21.334-47.167,47.833-53.167,54-16.666,18.833-30.666,7.5-50.5-45.834-59.834-54.5-19.833-22.278-39.833-17.389S261.512,58.77,255.346,73.437C249.329,87.747,215.624,200.826,212.512,212.6Z"/><path id="c0494f0e-a906-4378-b3fd-41d13d1ae687" data-name="Track Middle" class="912b1516-5a81-4510-aa48-88f29fbb7d7e" d="M212.512,212.6c-4.626,17.513-10.666,41.555-12.666,51.111s-7.334,23.111,11.778,36.667,56,35.777,66.666,42.888,25.334,22.223,14.222,37.334-35.333,39.555-46.888,51.333-44,49.111-56,61.111-46,44.222-56,53.556-35.778,34.222-42.445,40.889-18,7.777-29.555-3.334c-20.278-19.5-34.889-37.555-37.556-47.777s-4.222-24.445,7.556-37.556S62.165,467.8,65.846,463.715c6-6.667,6.2-13.3-3.111-22.889-7.556-7.778-20.667-16.889-20.223-32.667s2-40.889,5.778-51.555,7.556-17.556,20.445-25.556a303.332,303.332,0,0,0,36-26.666c8.889-7.778,21.111-14.778,19-29.112-1.991-13.519-13.556-19.222-27.223-22.444-17.889-4.218-32.222-6.667-44.222-9.556-12.435-2.993-38-7.222-41.555,3.223-3.768,11.067,7.53,17.273,20.777,29.222C42.846,285.937,85.4,327.937,98.29,340.826s18.222,20.222,26.222,28.667,17.334,20.666,30.667,6.444,74.889-77.111,86.889-88.667,46.444-43.777,55.556-52.444,22.444-17.556,9.555-30-24.32-23.476-31.049-29.738-16.951-9.595-5.173-27.818,21.555-29.777,33.333-40.666,42.889-38.667,59.556-52.667,45.666-34.667,58.666-39,22.5-10,37.167,3.667,15.5,14.333,19.167,18.166,5.833,9.334-6.167,21.334-47.167,47.833-53.167,54-16.666,18.833-30.666,7.5-50.5-45.834-59.834-54.5-19.833-22.278-39.833-17.389S261.512,58.77,255.346,73.437C249.329,87.747,215.624,200.826,212.512,212.6Z"/><path id="cc2a093d-0ffd-4379-a37b-bd3063b3e22c" data-name="Pit Middle" class="912b1516-5a81-4510-aa48-88f29fbb7d7e" d="M255.346,73.437c-3.572,8.108,4.51,11.448.278,22.667-4.332,11.482-21.911,70.67-24.334,78.722-2.718,9.035-11.881,13.642-14.77,23.809"/><path id="a8e7c662-ea5a-4726-a3f2-abb77cda48ef" data-name="Pit Inner" class="62adaaef-3886-4507-b7c6-681218387709" d="M255.346,73.437c-3.572,8.108,4.51,11.448.278,22.667-4.332,11.482-21.911,70.67-24.334,78.722-2.718,9.035-11.881,13.642-14.77,23.809"/><path id="2322398e-accf-4512-a2cf-a19a251a4458" data-name="Track Inner" class="64b34a1c-f5dc-4307-9350-d9eb09ca49c5" d="M212.512,212.6c-4.626,17.513-10.666,41.555-12.666,51.111s-7.334,23.111,11.778,36.667,56,35.777,66.666,42.888,25.334,22.223,14.222,37.334-35.333,39.555-46.888,51.333-44,49.111-56,61.111-46,44.222-56,53.556-35.778,34.222-42.445,40.889-18,7.777-29.555-3.334c-20.278-19.5-34.889-37.555-37.556-47.777s-4.222-24.445,7.556-37.556S62.165,467.8,65.846,463.715c6-6.667,6.2-13.3-3.111-22.889-7.556-7.778-20.667-16.889-20.223-32.667s2-40.889,5.778-51.555,7.556-17.556,20.445-25.556a303.332,303.332,0,0,0,36-26.666c8.889-7.778,21.111-14.778,19-29.112-1.991-13.519-13.556-19.222-27.223-22.444-17.889-4.218-32.222-6.667-44.222-9.556-12.435-2.993-38-7.222-41.555,3.223-3.768,11.067,7.53,17.273,20.777,29.222C42.846,285.937,85.4,327.937,98.29,340.826s18.222,20.222,26.222,28.667,17.334,20.666,30.667,6.444,74.889-77.111,86.889-88.667,46.444-43.777,55.556-52.444,22.444-17.556,9.555-30-24.32-23.476-31.049-29.738-16.951-9.595-5.173-27.818,21.555-29.777,33.333-40.666,42.889-38.667,59.556-52.667,45.666-34.667,58.666-39,22.5-10,37.167,3.667,15.5,14.333,19.167,18.166,5.833,9.334-6.167,21.334-47.167,47.833-53.167,54-16.666,18.833-30.666,7.5-50.5-45.834-59.834-54.5-19.833-22.278-39.833-17.389S261.512,58.77,255.346,73.437C249.329,87.747,215.624,200.826,212.512,212.6Z"/><g id="2c1781f9-fc5f-403e-9eb2-46d57a572f1a" data-name="Crossover 3"><path id="4cbe39a6-0a6f-4342-a137-ea5eb180ac3a" data-name="Crossover Outer" class="521ee3c7-d246-4efa-ab3f-02fb7cc9804a" d="M388.721,119.541c-14-11.333-50.361-45.784-59.695-54.451S309.3,42.8,289.3,47.687"/><path id="d9cbac33-67db-49cf-a27e-eb0defb0f239" data-name="Crossover Middle" class="912b1516-5a81-4510-aa48-88f29fbb7d7e" d="M388.86,119.59c-14-11.333-50.5-45.833-59.834-54.5S309.193,42.812,289.193,47.7"/><path id="c1915828-fc21-493f-9cbd-e8c840ea1ac9" data-name="Crossover Inner" class="64b34a1c-f5dc-4307-9350-d9eb09ca49c5" d="M388.95,119.687c-14-11.333-50.562-45.93-59.9-54.6s-19.982-22.243-39.982-17.354"/></g><g id="66e3ff69-75d4-4484-ad78-0c10fd12e7bb" data-name="Crossover 2"><path id="92b2c220-3a7c-4c0a-81d0-1325fc4ddc26" data-name="Crossover Outer" class="521ee3c7-d246-4efa-ab3f-02fb7cc9804a" d="M31.658,275.875C42.992,286.1,85.415,327.923,98.3,340.812s18.042,20.035,26.042,28.479"/><path id="e7f3839b-544c-4ff5-8215-913daf68995b" data-name="Crossover Middle" class="912b1516-5a81-4510-aa48-88f29fbb7d7e" d="M31.526,275.7C42.86,285.923,85.415,327.923,98.3,340.812s18.222,20.222,26.222,28.667"/><path id="e5c016d5-7d85-4f29-a4d5-41a9affbf4e3" data-name="Crossover Inner" class="64b34a1c-f5dc-4307-9350-d9eb09ca49c5" d="M31.235,275.437c11.333,10.222,54.208,52.486,67.1,65.375s18.451,20.535,26.451,28.979"/></g><g id="9eb0e3b4-f485-430d-bf0b-7c4ac8058afc" data-name="Crossover 1"><path id="c905646a-2c86-4e27-a0cc-abc4a072c04b" data-name="Crossover Outer" class="521ee3c7-d246-4efa-ab3f-02fb7cc9804a" d="M199.8,263.951c-2,9.556-7.278,22.861,11.833,36.417s56,35.777,66.667,42.889,25.4,22.111,14.292,37.222"/><path id="ae4fdca4-6260-4265-9712-d5ab0b73e513" data-name="Crossover Middle" class="912b1516-5a81-4510-aa48-88f29fbb7d7e" d="M199.86,263.7c-2,9.556-7.334,23.111,11.777,36.667s56,35.777,66.667,42.889,25.333,22.222,14.222,37.333"/><path id="e34cbe55-b9b1-4cde-b889-b412b3c610c9" data-name="Crossover Inner" class="64b34a1c-f5dc-4307-9350-d9eb09ca49c5" d="M199.867,263.562c-2,9.556-7.313,23.25,11.8,36.806s56,35.777,66.667,42.889,25.18,22.4,14.069,37.513"/></g><use id="717f864a-5ca1-4ffe-8783-bbfe772c17e6" data-name="Start-Finish-Line" width="200" height="103.617" transform="translate(188.637 191.4) rotate(14.805) scale(0.287)" xlink:href="#3aecdbd2-95f9-4214-bb34-1f97991546e3"/></g></g></g></svg>