<svg xmlns="http://www.w3.org/2000/svg" xmlns:xlink="http://www.w3.org/1999/xlink" width="1221.625" height="1244.1" viewBox="0 0 1221.625 1244.1"><defs><style>.fc90a833-d72f-40da-8389-c26447c70d89{fill:#00ff24;}.c402ec53-28a2-42ba-82ba-717351e5fb31,.fc90a833-d72f-40da-8389-c26447c70d89{stroke:#000;stroke-width:5px;}.af8832b8-f3bc-429a-8e1a-a30ddb8deb66,.b99a9d7a-4091-46fb-9657-ba30ea801bf9,.c402ec53-28a2-42ba-82ba-717351e5fb31,.ee33a14a-24e1-4c6b-8df2-3fc7d2900105,.f7a6bc97-56bf-4183-ad30-526b83739f6d,.f97e8d0d-8579-485d-95d2-60532ddca6e5,.fc90a833-d72f-40da-8389-c26447c70d89{stroke-miterlimit:10;}.c402ec53-28a2-42ba-82ba-717351e5fb31{fill:#fff;}.af8832b8-f3bc-429a-8e1a-a30ddb8deb66,.b99a9d7a-4091-46fb-9657-ba30ea801bf9,.ee33a14a-24e1-4c6b-8df2-3fc7d2900105,.f7a6bc97-56bf-4183-ad30-526b83739f6d,.f97e8d0d-8579-485d-95d2-60532ddca6e5{fill:none;}.af8832b8-f3bc-429a-8e1a-a30ddb8deb66,.ee33a14a-24e1-4c6b-8df2-3fc7d2900105{stroke:#c91c1c;}.b99a9d7a-4091-46fb-9657-ba30ea801bf9,.ee33a14a-24e1-4c6b-8df2-3fc7d2900105{stroke-width:20px;}.b99a9d7a-4091-46fb-9657-ba30ea801bf9,.f97e8d0d-8579-485d-95d2-60532ddca6e5{stroke:#0080ff;}.f7a6bc97-56bf-4183-ad30-526b83739f6d{stroke:#fff;stroke-width:12px;}.af8832b8-f3bc-429a-8e1a-a30ddb8deb66,.f97e8d0d-8579-485d-95d2-60532ddca6e5{stroke-width:2px;}</style><symbol id="6ebf7839-e9d1-454a-bf35-ac5f3955d8a7" data-name="fd103434-89f2-4089-acf9-54fed79ed404" viewBox="0 0 200 103.617"><rect class="fc90a833-d72f-40da-8389-c26447c70d89" x="2.5" y="54.074" width="195" height="47.043"/><rect class="c402ec53-28a2-42ba-82ba-717351e5fb31" x="2.5" y="2.5" width="48.75" height="48.75"/><rect class="c402ec53-28a2-42ba-82ba-717351e5fb31" x="51.25" y="2.5" width="48.75" height="48.75"/><rect class="c402ec53-28a2-42ba-82ba-717351e5fb31" x="100" y="2.5" width="48.75" height="48.75"/><rect class="c402ec53-28a2-42ba-82ba-717351e5fb31" x="148.75" y="2.5" width="48.75" height="48.75"/></symbol></defs><title>Palmyra_Raceway</title><g id="107ba48c-7b12-4f1f-8788-f8e79f9b88aa" data-name="Layer 2"><g id="fef1db75-87d0-4e4d-8b5f-b13396bf8e51" data-name="Blaine County"><g id="5fb2a1aa-d6cb-4a22-acec-e5c3e4863508" data-name="Palmyra_Raceway"><path id="3f64e804-c964-48e5-a25f-10590f6d260c" data-name="Pitlane Outer" class="ee33a14a-24e1-4c6b-8df2-3fc7d2900105" d="M558.747,47.98c18.139,7.328,36.712,18.661,56.545,20.828s35.266-2.029,55.445-1.111c19.555.889,37.122,4.7,49.638,11.333"/><path id="44519963-f159-4529-b796-ad77cc13c5ad" data-name="Track Outer" class="b99a9d7a-4091-46fb-9657-ba30ea801bf9" d="M1030.625,786.474c-6.707-23.087-24.111-84-27-96.444s-15.111-60.222-16.444-70.444-10.889-61.556-13.333-74S936.737,376.252,933.181,360.03s-14.389-65.389-17.389-78.222-13.333-51.167-16.833-60.834-16.834-57.333-18.667-65.166-4.466-18.057-5.833-22.5c-2.667-8.667-1.667-15.5-19.334-11.334,0,0-26.166,8.667-38.666,10.334s-29.667,4-43.167-2.834-51.778-28.333-57.778-32.111-17.222-10.555-21.333-12.777-12.84-7.335-18.778,2.222c-5.833,9.389-18.88,25.277-25.528,32.5-6.75,7.333-22.407,21.51-29.583,28.333-5.083,4.833-18.778,19.056-27.444,27.722S550.4,218.03,543.514,225.03s-53.555,53.778-58.111,58.333-14.032,13.524-4.861,22.695c4.833,4.833,11.75,13,14.5,18s6.667,10.75,4.75,23.416-7.5,45.334-9.333,54.25-4.834,20.084-10.667,28.917a42.3,42.3,0,0,1-27.167,17.722c-10,1.834-18.777,2.223-27.444,7-13.94,7.685-15.364,12.746-23.778,20.778-6.111,5.833-23.944,23.167-31.111,30.167s-34.667,35.166-40.667,40.833-21,20.5-38.666,27.167-40,12.833-50.834,14.5-49.666,7.833-60.5,9.333-43.666,6.556-46.555,6.667-14.445,1.333-20.889,1-15-.889-26.556-12.556-15.333-16.278-23-23.278-22.5-23.166-22.833-35.916,1.75-33.667,1.25-43.834-.917-17.083-7.333-32.833-11.861-28.472-11.972-39.472-1.445-29.778-3.112-44.778-7.333-52.444-8-62.111-1.222-13.889.667-23,3.889-23.222,18.333-31.222,33.556-17,42.778-25.334,48.722-47.666,58.889-57,17.778-16,38.222-32.333,51.445-41,58.778-46.167,18-11.333,24.5-15.666,15.667-5.5,23.333,3.166,16.5,7,27.334-2.5,25.5-21.666,36.833-30.833,33.5-27,50.833-30.333,41-10.5,57.834-9.334,27.5,3,50.166,11.667,42.167,18,50.667,21.833,24.833,12.834,37.333,3.5,28.334-24.166,36-29.5S657.459.641,679.959,23.308s13.166,40.333,42,56.666,105.889,27.612,140.111,27.167,48.889,0,62.889-2.889,22-6.111,31.333-4.611a29.157,29.157,0,0,1,23.333,23.833c2.334,14.167,6.334,33,7.167,47.5s5,38,13.167,48,20.166,21.167,25.5,26.167,15.944,15.111,10.611,20.445-2.778,11.888,2,18.222,18.055,30.5,24.555,48,23.112,55.889,27,65.666,7.556,18.223,10.334,24.556,7.222,21.111,22.778,26.889,27.222,8.472,33.555,10.722,21.445,7.278,32.222,27.278,14.778,40.389,16.278,56.222,6.833,61.667,6.833,81.833-1.5,45.334-11,58.334a77.549,77.549,0,0,1-31.444,25.611c-10.444,4.555-55.556,21.889-64.444,25s-20.278,7.389-27.112,9.222-24.333,8.667-30.5-13.167-43.056-154.519-47.375-173.291C997.07,545.03,973.181,440.03,969.4,420.919S938.737,280.7,934.737,263.363s-9.445-42.389-12.445-53.222-3.087-35.968,16.167-39.083c15.278-2.472,40.055-5.361,65.5,18.194s25,53.889,17.222,71.222-29.556,49.556-43.333,64-76.723,76.5-101.056,100.5S745.4,556.252,736.959,564.252s-13.334,17.111-8.889,28.445,16,31.555,19.778,42.889,8.444,11.555,10.222,46.444,2.444,48.444-1.111,67.333-17.247,52.631-22.222,71.111c-6.223,23.112-12.612,47.417-12,66.223a207.422,207.422,0,0,0,7.444,49.666c4.556,16.889,14.444,36.223,21,44.334s10.667,13.666,15,16.777,15.556,8.112,9.667,20-17.056,34.834-21.223,44.667,5,29.445,21,37.667,55.226,15.311,84.667,21c23,4.444,54.333,17,72.333,34s85.987,60.233,113,75c25,13.666,64.667-7.334,82-34.334s16.826-71.952,5.667-113c-9.333-34.333-15-56.444-22.778-77.777s-10.889-34.889-20.889-61.111S1061.4,874.03,1053.4,851.808,1035.4,802.919,1030.625,786.474Z"/><path id="429f8194-ce1f-4d71-ad88-09ef748959a0" data-name="Track Middle" class="f7a6bc97-56bf-4183-ad30-526b83739f6d" d="M1030.625,786.474c-6.707-23.087-24.111-84-27-96.444s-15.111-60.222-16.444-70.444-10.889-61.556-13.333-74S936.737,376.252,933.181,360.03s-14.389-65.389-17.389-78.222-13.333-51.167-16.833-60.834-16.834-57.333-18.667-65.166-4.466-18.057-5.833-22.5c-2.667-8.667-1.667-15.5-19.334-11.334,0,0-26.166,8.667-38.666,10.334s-29.667,4-43.167-2.834-51.778-28.333-57.778-32.111-17.222-10.555-21.333-12.777-12.84-7.335-18.778,2.222c-5.833,9.389-18.88,25.277-25.528,32.5-6.75,7.333-22.407,21.51-29.583,28.333-5.083,4.833-18.778,19.056-27.444,27.722S550.4,218.03,543.514,225.03s-53.555,53.778-58.111,58.333-14.032,13.524-4.861,22.695c4.833,4.833,11.75,13,14.5,18s6.667,10.75,4.75,23.416-7.5,45.334-9.333,54.25-4.834,20.084-10.667,28.917a42.3,42.3,0,0,1-27.167,17.722c-10,1.834-18.777,2.223-27.444,7-13.94,7.685-15.364,12.746-23.778,20.778-6.111,5.833-23.944,23.167-31.111,30.167s-34.667,35.166-40.667,40.833-21,20.5-38.666,27.167-40,12.833-50.834,14.5-49.666,7.833-60.5,9.333-43.666,6.556-46.555,6.667-14.445,1.333-20.889,1-15-.889-26.556-12.556-15.333-16.278-23-23.278-22.5-23.166-22.833-35.916,1.75-33.667,1.25-43.834-.917-17.083-7.333-32.833-11.861-28.472-11.972-39.472-1.445-29.778-3.112-44.778-7.333-52.444-8-62.111-1.222-13.889.667-23,3.889-23.222,18.333-31.222,33.556-17,42.778-25.334,48.722-47.666,58.889-57,17.778-16,38.222-32.333,51.445-41,58.778-46.167,18-11.333,24.5-15.666,15.667-5.5,23.333,3.166,16.5,7,27.334-2.5,25.5-21.666,36.833-30.833,33.5-27,50.833-30.333,41-10.5,57.834-9.334,27.5,3,50.166,11.667,42.167,18,50.667,21.833,24.833,12.834,37.333,3.5,28.334-24.166,36-29.5S657.459.641,679.959,23.308s13.166,40.333,42,56.666,105.889,27.612,140.111,27.167,48.889,0,62.889-2.889,22-6.111,31.333-4.611a29.157,29.157,0,0,1,23.333,23.833c2.334,14.167,6.334,33,7.167,47.5s5,38,13.167,48,20.166,21.167,25.5,26.167,15.944,15.111,10.611,20.445-2.778,11.888,2,18.222,18.055,30.5,24.555,48,23.112,55.889,27,65.666,7.556,18.223,10.334,24.556,7.222,21.111,22.778,26.889,27.222,8.472,33.555,10.722,21.445,7.278,32.222,27.278,14.778,40.389,16.278,56.222,6.833,61.667,6.833,81.833-1.5,45.334-11,58.334a77.549,77.549,0,0,1-31.444,25.611c-10.444,4.555-55.556,21.889-64.444,25s-20.278,7.389-27.112,9.222-24.333,8.667-30.5-13.167-43.056-154.519-47.375-173.291C997.07,545.03,973.181,440.03,969.4,420.919S938.737,280.7,934.737,263.363s-9.445-42.389-12.445-53.222-3.087-35.968,16.167-39.083c15.278-2.472,40.055-5.361,65.5,18.194s25,53.889,17.222,71.222-29.556,49.556-43.333,64-76.723,76.5-101.056,100.5S745.4,556.252,736.959,564.252s-13.334,17.111-8.889,28.445,16,31.555,19.778,42.889,8.444,11.555,10.222,46.444,2.444,48.444-1.111,67.333-17.247,52.631-22.222,71.111c-6.223,23.112-12.612,47.417-12,66.223a207.422,207.422,0,0,0,7.444,49.666c4.556,16.889,14.444,36.223,21,44.334s10.667,13.666,15,16.777,15.556,8.112,9.667,20-17.056,34.834-21.223,44.667,5,29.445,21,37.667,55.226,15.311,84.667,21c23,4.444,54.333,17,72.333,34s85.987,60.233,113,75c25,13.666,64.667-7.334,82-34.334s16.826-71.952,5.667-113c-9.333-34.333-15-56.444-22.778-77.777s-10.889-34.889-20.889-61.111S1061.4,874.03,1053.4,851.808,1035.4,802.919,1030.625,786.474Z"/><path id="388e833d-acd6-4a2d-9463-d27df8f1242c" data-name="Pitlane Middle" class="f7a6bc97-56bf-4183-ad30-526b83739f6d" d="M558.747,47.98c18.139,7.328,36.712,18.661,56.545,20.828s34.488-2.362,54.667-1.445c19.555.889,37.9,5.032,50.416,11.667"/><path id="1b2faac7-78b7-43d4-a216-23642a958ce7" data-name="Pitlane Inner" class="af8832b8-f3bc-429a-8e1a-a30ddb8deb66" d="M558.747,47.98c18.139,7.328,36.712,18.661,56.545,20.828s35.266-2.029,55.445-1.111c19.555.889,37.122,4.7,49.638,11.333"/><path id="c00e7f62-d9e6-4fcc-9eed-83c43f5a24ad" data-name="Track Inner" class="f97e8d0d-8579-485d-95d2-60532ddca6e5" d="M1030.625,786.474c-6.707-23.087-24.111-84-27-96.444s-15.111-60.222-16.444-70.444-10.889-61.556-13.333-74S936.737,376.252,933.181,360.03s-14.389-65.389-17.389-78.222-13.333-51.167-16.833-60.834-16.834-57.333-18.667-65.166-4.466-18.057-5.833-22.5c-2.667-8.667-1.667-15.5-19.334-11.334,0,0-26.166,8.667-38.666,10.334s-29.667,4-43.167-2.834-51.778-28.333-57.778-32.111-17.222-10.555-21.333-12.777-12.84-7.335-18.778,2.222c-5.833,9.389-18.88,25.277-25.528,32.5-6.75,7.333-22.407,21.51-29.583,28.333-5.083,4.833-18.778,19.056-27.444,27.722S550.4,218.03,543.514,225.03s-53.555,53.778-58.111,58.333-14.032,13.524-4.861,22.695c4.833,4.833,11.75,13,14.5,18s6.667,10.75,4.75,23.416-7.5,45.334-9.333,54.25-4.834,20.084-10.667,28.917a42.3,42.3,0,0,1-27.167,17.722c-10,1.834-18.777,2.223-27.444,7-13.94,7.685-15.364,12.746-23.778,20.778-6.111,5.833-23.944,23.167-31.111,30.167s-34.667,35.166-40.667,40.833-21,20.5-38.666,27.167-40,12.833-50.834,14.5-49.666,7.833-60.5,9.333-43.666,6.556-46.555,6.667-14.445,1.333-20.889,1-15-.889-26.556-12.556-15.333-16.278-23-23.278-22.5-23.166-22.833-35.916,1.75-33.667,1.25-43.834-.917-17.083-7.333-32.833-11.861-28.472-11.972-39.472-1.445-29.778-3.112-44.778-7.333-52.444-8-62.111-1.222-13.889.667-23,3.889-23.222,18.333-31.222,33.556-17,42.778-25.334,48.722-47.666,58.889-57,17.778-16,38.222-32.333,51.445-41,58.778-46.167,18-11.333,24.5-15.666,15.667-5.5,23.333,3.166,16.5,7,27.334-2.5,25.5-21.666,36.833-30.833,33.5-27,50.833-30.333,41-10.5,57.834-9.334,27.5,3,50.166,11.667,42.167,18,50.667,21.833,24.833,12.834,37.333,3.5,28.334-24.166,36-29.5S657.459.641,679.959,23.308s13.166,40.333,42,56.666,105.889,27.612,140.111,27.167,48.889,0,62.889-2.889,22-6.111,31.333-4.611a29.157,29.157,0,0,1,23.333,23.833c2.334,14.167,6.334,33,7.167,47.5s5,38,13.167,48,20.166,21.167,25.5,26.167,15.944,15.111,10.611,20.445-2.778,11.888,2,18.222,18.055,30.5,24.555,48,23.112,55.889,27,65.666,7.556,18.223,10.334,24.556,7.222,21.111,22.778,26.889,27.222,8.472,33.555,10.722,21.445,7.278,32.222,27.278,14.778,40.389,16.278,56.222,6.833,61.667,6.833,81.833-1.5,45.334-11,58.334a77.549,77.549,0,0,1-31.444,25.611c-10.444,4.555-55.556,21.889-64.444,25s-20.278,7.389-27.112,9.222-24.333,8.667-30.5-13.167-43.056-154.519-47.375-173.291C997.07,545.03,973.181,440.03,969.4,420.919S938.737,280.7,934.737,263.363s-9.445-42.389-12.445-53.222-3.087-35.968,16.167-39.083c15.278-2.472,40.055-5.361,65.5,18.194s25,53.889,17.222,71.222-29.556,49.556-43.333,64-76.723,76.5-101.056,100.5S745.4,556.252,736.959,564.252s-13.334,17.111-8.889,28.445,16,31.555,19.778,42.889,8.444,11.555,10.222,46.444,2.444,48.444-1.111,67.333-17.247,52.631-22.222,71.111c-6.223,23.112-12.612,47.417-12,66.223a207.422,207.422,0,0,0,7.444,49.666c4.556,16.889,14.444,36.223,21,44.334s10.667,13.666,15,16.777,15.556,8.112,9.667,20-17.056,34.834-21.223,44.667,5,29.445,21,37.667,55.226,15.311,84.667,21c23,4.444,54.333,17,72.333,34s85.987,60.233,113,75c25,13.666,64.667-7.334,82-34.334s16.826-71.952,5.667-113c-9.333-34.333-15-56.444-22.778-77.777s-10.889-34.889-20.889-61.111S1061.4,874.03,1053.4,851.808,1035.4,802.919,1030.625,786.474Z"/><g id="5a323351-31c3-4992-b475-e13ba46b64f0" data-name="Crossover 2"><path id="9144bad2-3e0a-498b-8b6a-1630e03837b8" data-name="Crossover Outer" class="b99a9d7a-4091-46fb-9657-ba30ea801bf9" d="M969.362,420.738c-3.778-19.111-30.618-140.027-34.618-157.361S925.3,220.988,922.3,210.155s-3.087-35.968,16.167-39.083c15.278-2.473,40.055-5.361,65.5,18.194s25,53.889,17.222,71.222-29.451,49.354-43.229,63.8"/><path id="cb1780ab-e448-4792-bc1c-ed4290d7ea12" data-name="Crossover Middle" class="f7a6bc97-56bf-4183-ad30-526b83739f6d" d="M969.41,420.933c-3.778-19.111-30.666-140.222-34.666-157.556S925.3,220.988,922.3,210.155s-3.087-35.968,16.167-39.083c15.278-2.473,40.055-5.361,65.5,18.194s25,53.889,17.222,71.222-29.556,49.556-43.333,64"/><path id="45f9084b-8b0e-4032-a523-7d7db1a3866d" data-name="Crossover Inner" class="f97e8d0d-8579-485d-95d2-60532ddca6e5" d="M969.473,421.252c-3.778-19.111-30.729-140.541-34.729-157.875S925.3,220.988,922.3,210.155s-3.087-35.968,16.167-39.083c15.278-2.473,40.055-5.361,65.5,18.194s25,53.889,17.222,71.222-29.764,49.75-43.542,64.195"/></g><g id="6c0b7ca8-5952-4a94-b2e5-69b69ec3f769" data-name="Crossover 1"><path id="2dd133cd-ff90-47c9-8216-ee620ff1b235" data-name="Crossover Outer" class="b99a9d7a-4091-46fb-9657-ba30ea801bf9" d="M987.167,619.294c-1.333-10.222-10.917-61.32-13.361-73.764S936.7,376.2,933.139,359.974s-14.284-65.041-17.284-77.875"/><path id="d495d4ca-ae7e-4982-bcb1-4b50bd8dcb87" data-name="Crossover Middle" class="f7a6bc97-56bf-4183-ad30-526b83739f6d" d="M987.188,619.6c-1.333-10.222-10.889-61.555-13.333-74s-37.111-169.333-40.667-185.555S918.8,294.655,915.8,281.822"/><path id="4eea7899-d8a2-4923-8889-b8e2b66aa63c" data-name="Crossover Inner" class="f97e8d0d-8579-485d-95d2-60532ddca6e5" d="M987.188,619.683c-1.333-10.222-10.889-61.639-13.333-74.084s-37.111-169.333-40.667-185.555-14.442-65.62-17.442-78.453"/></g><use id="3ef8da5f-ced0-4cb2-91a9-e01e1aed71df" data-name="Start-Finish-Line" width="200" height="103.617" transform="matrix(-0.274, 0.084, -0.084, -0.274, 1062.908, 793.58)" xlink:href="#6ebf7839-e9d1-454a-bf35-ac5f3955d8a7"/></g></g></g></svg>