<svg xmlns="http://www.w3.org/2000/svg" xmlns:xlink="http://www.w3.org/1999/xlink" width="1239.137" height="977.772" viewBox="0 0 1239.137 977.772"><defs><style>.\30 8982a92-c546-4a41-b7f1-d7119e67e23a{fill:#00ff24;}.\30 8982a92-c546-4a41-b7f1-d7119e67e23a,.\35 7d54dae-29c9-4cf3-8b06-0bc8908cdae5{stroke:#000;stroke-width:5px;}.\30 0b83928-1d2b-41f9-84ca-c3fd8f2fc07b,.\30 8982a92-c546-4a41-b7f1-d7119e67e23a,.\32 261912a-e41d-4cf9-94f4-ce47181ec2fa,.\35 7d54dae-29c9-4cf3-8b06-0bc8908cdae5,.\38 84251f3-262d-4173-8905-157209333483,.b758e8ba-ca85-4eb4-9116-84099609ea07,.e8a52366-ad44-4e00-9bbd-b2d0d2e3566a{stroke-miterlimit:10;}.\35 7d54dae-29c9-4cf3-8b06-0bc8908cdae5,.ad7124d1-fafd-42db-a213-87f766a6d9f4{fill:#fff;}.\32 261912a-e41d-4cf9-94f4-ce47181ec2fa,.\38 84251f3-262d-4173-8905-157209333483,.b758e8ba-ca85-4eb4-9116-84099609ea07{fill:none;}.\38 84251f3-262d-4173-8905-157209333483,.b758e8ba-ca85-4eb4-9116-84099609ea07{stroke:#007fff;}.\38 84251f3-262d-4173-8905-157209333483{stroke-width:25px;}.\30 0b83928-1d2b-41f9-84ca-c3fd8f2fc07b,.\32 261912a-e41d-4cf9-94f4-ce47181ec2fa,.e8a52366-ad44-4e00-9bbd-b2d0d2e3566a{stroke:#fff;}.\32 261912a-e41d-4cf9-94f4-ce47181ec2fa{stroke-width:12.5px;}.b758e8ba-ca85-4eb4-9116-84099609ea07{stroke-width:4px;}.\30 0b83928-1d2b-41f9-84ca-c3fd8f2fc07b,.e8a52366-ad44-4e00-9bbd-b2d0d2e3566a{fill:#333;}.e8a52366-ad44-4e00-9bbd-b2d0d2e3566a{stroke-width:1.5px;}.\30 0b83928-1d2b-41f9-84ca-c3fd8f2fc07b{stroke-width:1.513px;}</style><symbol id="d0fb9656-37cc-4000-ad4e-72c12434db3a" data-name="fd103434-89f2-4089-acf9-54fed79ed404" viewBox="0 0 200 103.617"><rect class="08982a92-c546-4a41-b7f1-d7119e67e23a" x="2.5" y="54.074" width="195" height="47.043"/><rect class="57d54dae-29c9-4cf3-8b06-0bc8908cdae5" x="2.5" y="2.5" width="48.75" height="48.75"/><rect class="57d54dae-29c9-4cf3-8b06-0bc8908cdae5" x="51.25" y="2.5" width="48.75" height="48.75"/><rect class="57d54dae-29c9-4cf3-8b06-0bc8908cdae5" x="100" y="2.5" width="48.75" height="48.75"/><rect class="57d54dae-29c9-4cf3-8b06-0bc8908cdae5" x="148.75" y="2.5" width="48.75" height="48.75"/></symbol></defs><title>Ron&amp;apos;s_Suspension_Pass</title><g id="a35c12ce-6151-4a09-92f6-021c14026095" data-name="Layer 2"><g id="835fddd6-8ce3-49a3-af39-ed2c2ec79db8" data-name="Blaine County"><g id="94b7e71f-e93a-4e83-9b3b-b8084aaf30ae" data-name="Ron&apos;s_Suspension_Pass"><g id="c3008058-ebc3-427b-9c34-ea938ab778b8" data-name="Track-Outer"><path class="884251f3-262d-4173-8905-157209333483" d="M984.9,380.053q35.918,151.712,76.18,302.4a22.275,22.275,0,0,0,28.887,15.257c17.215-6.041,30.231-11.122,53.266-18.994,2.533-.865,24.151-8.768,26.667-9.666,47.167-16.834,59.078-54.314,56.378-92.516-1.481-20.956-2.563-33.194-4.045-54.151-1.294-13.057-2.034-26.074-4.916-38.875-4.975-22.093-11.125-58.875-58.175-72.448a170.776,170.776,0,0,1-17.575-6.552c-13.628-5.778-22.983-12.943-28.236-26.783-5.9-15.539-11.058-27.558-19.533-49.839-10.4-27.336-42.909-46.914-78.231-37.836-11.842,3.043-23.866,9.121-29.334,13.416-6.527,5.129-21.145,15.208-26.666,36.75-3.188,12.438-.375,27.149,1.333,37.667,1.631,10.041,3.2,16.89,3.917,19.5,1.725,6.239,7.15,30.659,18,79.5,2.426,10.919,6.867,34.113,15.75,80.5,7.688,40.149,7.471,39.929,9.5,50,4.557,22.629,11.773,54.13,23.43,92.635a15.108,15.108,0,0,0,18.593,10.156l.287-.082a15.447,15.447,0,0,1,18.879,9.947l45.624,136.1a12.711,12.711,0,0,1-7.7,15.984l-.233.084a12.211,12.211,0,0,1-15.649-7.282l-43.855-120.042c-6.829-19.689-26.706-30.573-45.978-22.641q-4.5,1.853-9.231,3.974a222.191,222.191,0,0,0-29.166,15.167c-16.893,10.6-27.831,21.063-40,32.833a404.127,404.127,0,0,0-32.5,35.667c-15.952,19.653-26.014,35.63-38.25,55.25-12.288,19.7-25.655,41.388-39.911,64.9a26.4,26.4,0,0,1-34.418,9.9L254.46,677.227A415.6,415.6,0,0,1,122.838,573.453c-15.079-17.916-23.468-26.795-28.4-31.317-9.1-8.347-17.122-17.793-25.875-26.5a64.844,64.844,0,0,1-7.625-9.125c-2.386-3.444-4.639-6.7-6.125-11.5-1.4-4.509-1.439-8.205-1.5-13.25-.038-3.13.125-4.855.5-10,.678-9.3,1.082-14.843,1.25-20.625.217-7.5.326-11.244-.25-15.5-.756-5.587-2.139-9.592-4.875-17.375-3.359-9.554-4.3-10.077-7.625-19.5a116.357,116.357,0,0,1-5.125-17.375c-1.177-5.942-1.344-9.922-1.75-17.125,0,0-.875-15.522-2-29.75-.517-6.535-1.636-14.607-3.875-30.75-1.709-12.323-3.453-24.022-5-40.25a78.525,78.525,0,0,1,.5-22.875,47.635,47.635,0,0,1,5.5-15.875,41.863,41.863,0,0,1,7.625-9.625c3.6-3.329,6.8-5.018,12.125-7.75,12.414-6.371,14.165-7.008,17.875-9,9.615-5.164,16.012-10.641,23-16.625a201.558,201.558,0,0,0,16.375-15.875s16.533-17.365,38.375-37.75c11.989-11.189,21.129-18.454,35.25-29.625,21.576-17.068,44.872-36.25,72.165-56.114a33.651,33.651,0,0,1,44.665,4.488c5.956,6.56,12.022,13.958,18.961,22,20.45,23.7,25.442,31.505,44.584,53.375,16.34,18.668,33.286,38.03,56.5,61.5,38.5,38.92,57.743,58.381,64.25,63.625,0,0,9.987,8.049,23.125,25.063a43.167,43.167,0,0,1,5.687,9.625,38.866,38.866,0,0,1,2.688,9.187,38.357,38.357,0,0,1-.188,11.5c-1.5,11.593-2.247,17.39-2.562,18.938-2.207,10.829-6.677,33.368-12.607,62.622a14.811,14.811,0,0,0,11.267,17.4c16.052,3.6,34.92,7.869,55.84,12.665,0,0,10.873,2.493,29.833,7.5,10.014,2.645,16,4.356,23.333,7,7.85,2.829,13.212,4.791,19.5,8.5,7.563,4.46,12.54,9.131,17.5,14,12.754,12.517,19.131,18.776,27.334,29,8.067,10.055,20.524,24.113,40.344,42.754a15.907,15.907,0,0,0,22.113-.328Q893.583,375.448,1041.642,228.08a19.448,19.448,0,0,0-.508-28.048c-2.857-2.645-5.433-4.878-7.651-6.729a122.32,122.32,0,0,1-15.354-15.229,60.29,60.29,0,0,1-8.562-12.605c-3.6-7.383-4.805-13.668-6-20.916-3.1-18.81-4.56-34.492-4.667-35.667-.619-6.791-1.586-18.552-4.917-31.417a35.1,35.1,0,0,0-5.583-12.25,27.053,27.053,0,0,0-10.333-9.083,28.1,28.1,0,0,0-11.667-2.5,45.839,45.839,0,0,0-14.917,1.833q-6.246,1.749-14.272,3.765a23.711,23.711,0,0,0-17.432,27.792Q950.325,234.008,984.9,380.053Z"/></g><g id="659dcca6-3164-4076-8394-a208df03be4e" data-name="Track-Mid"><path class="2261912a-e41d-4cf9-94f4-ce47181ec2fa" d="M984.9,380.053q35.918,151.712,76.18,302.4a22.275,22.275,0,0,0,28.887,15.257c17.215-6.041,30.231-11.122,53.266-18.994,2.533-.865,24.151-8.768,26.667-9.666,47.167-16.834,59.078-54.314,56.378-92.516-1.481-20.956-2.563-33.194-4.045-54.151-1.294-13.057-2.034-26.074-4.916-38.875-4.975-22.093-11.125-58.875-58.175-72.448a170.776,170.776,0,0,1-17.575-6.552c-13.628-5.778-22.983-12.943-28.236-26.783-5.9-15.539-11.058-27.558-19.533-49.839-10.4-27.336-42.909-46.914-78.231-37.836-11.842,3.043-23.866,9.121-29.334,13.416-6.527,5.129-21.145,15.208-26.666,36.75-3.188,12.438-.375,27.149,1.333,37.667,1.631,10.041,3.2,16.89,3.917,19.5,1.725,6.239,7.15,30.659,18,79.5,2.426,10.919,6.867,34.113,15.75,80.5,7.688,40.149,7.471,39.929,9.5,50,4.557,22.629,11.773,54.13,23.43,92.635a15.108,15.108,0,0,0,18.593,10.156l.287-.082a15.447,15.447,0,0,1,18.879,9.947l45.624,136.1a12.711,12.711,0,0,1-7.7,15.984l-.233.084a12.211,12.211,0,0,1-15.649-7.282l-43.855-120.042c-6.829-19.689-26.706-30.573-45.978-22.641q-4.5,1.853-9.231,3.974a222.191,222.191,0,0,0-29.166,15.167c-16.893,10.6-27.831,21.063-40,32.833a404.127,404.127,0,0,0-32.5,35.667c-15.952,19.653-26.014,35.63-38.25,55.25-12.288,19.7-25.655,41.388-39.911,64.9a26.4,26.4,0,0,1-34.418,9.9L254.46,677.227A415.6,415.6,0,0,1,122.838,573.453c-15.079-17.916-23.468-26.795-28.4-31.317-9.1-8.347-17.122-17.793-25.875-26.5a64.844,64.844,0,0,1-7.625-9.125c-2.386-3.444-4.639-6.7-6.125-11.5-1.4-4.509-1.439-8.205-1.5-13.25-.038-3.13.125-4.855.5-10,.678-9.3,1.082-14.843,1.25-20.625.217-7.5.326-11.244-.25-15.5-.756-5.587-2.139-9.592-4.875-17.375-3.359-9.554-4.3-10.077-7.625-19.5a116.357,116.357,0,0,1-5.125-17.375c-1.177-5.942-1.344-9.922-1.75-17.125,0,0-.875-15.522-2-29.75-.517-6.535-1.636-14.607-3.875-30.75-1.709-12.323-3.453-24.022-5-40.25a78.525,78.525,0,0,1,.5-22.875,47.635,47.635,0,0,1,5.5-15.875,41.863,41.863,0,0,1,7.625-9.625c3.6-3.329,6.8-5.018,12.125-7.75,12.414-6.371,14.165-7.008,17.875-9,9.615-5.164,16.012-10.641,23-16.625a201.558,201.558,0,0,0,16.375-15.875s16.533-17.365,38.375-37.75c11.989-11.189,21.129-18.454,35.25-29.625,21.576-17.068,44.872-36.25,72.165-56.114a33.651,33.651,0,0,1,44.665,4.488c5.956,6.56,12.022,13.958,18.961,22,20.45,23.7,25.442,31.505,44.584,53.375,16.34,18.668,33.286,38.03,56.5,61.5,38.5,38.92,57.743,58.381,64.25,63.625,0,0,9.987,8.049,23.125,25.063a43.167,43.167,0,0,1,5.687,9.625,38.866,38.866,0,0,1,2.688,9.187,38.357,38.357,0,0,1-.188,11.5c-1.5,11.593-2.247,17.39-2.562,18.938-2.207,10.829-6.677,33.368-12.607,62.622a14.811,14.811,0,0,0,11.267,17.4c16.052,3.6,34.92,7.869,55.84,12.665,0,0,10.873,2.493,29.833,7.5,10.014,2.645,16,4.356,23.333,7,7.85,2.829,13.212,4.791,19.5,8.5,7.563,4.46,12.54,9.131,17.5,14,12.754,12.517,19.131,18.776,27.334,29,8.067,10.055,20.524,24.113,40.344,42.754a15.907,15.907,0,0,0,22.113-.328Q893.583,375.448,1041.642,228.08a19.448,19.448,0,0,0-.508-28.048c-2.857-2.645-5.433-4.878-7.651-6.729a122.32,122.32,0,0,1-15.354-15.229,60.29,60.29,0,0,1-8.562-12.605c-3.6-7.383-4.805-13.668-6-20.916-3.1-18.81-4.56-34.492-4.667-35.667-.619-6.791-1.586-18.552-4.917-31.417a35.1,35.1,0,0,0-5.583-12.25,27.053,27.053,0,0,0-10.333-9.083,28.1,28.1,0,0,0-11.667-2.5,45.839,45.839,0,0,0-14.917,1.833q-6.246,1.749-14.272,3.765a23.711,23.711,0,0,0-17.432,27.792Q950.325,234.008,984.9,380.053Z"/></g><g id="4e878b8d-f63a-4645-994c-9a32f0b13eb9" data-name="Track-Inner"><path class="b758e8ba-ca85-4eb4-9116-84099609ea07" d="M984.9,380.053q35.918,151.712,76.18,302.4a22.275,22.275,0,0,0,28.887,15.257c17.215-6.041,30.231-11.122,53.266-18.994,2.533-.865,24.151-8.768,26.667-9.666,47.167-16.834,59.078-54.314,56.378-92.516-1.481-20.956-2.563-33.194-4.045-54.151-1.294-13.057-2.034-26.074-4.916-38.875-4.975-22.093-11.125-58.875-58.175-72.448a170.776,170.776,0,0,1-17.575-6.552c-13.628-5.778-22.983-12.943-28.236-26.783-5.9-15.539-11.058-27.558-19.533-49.839-10.4-27.336-42.909-46.914-78.231-37.836-11.842,3.043-23.866,9.121-29.334,13.416-6.527,5.129-21.145,15.208-26.666,36.75-3.188,12.438-.375,27.149,1.333,37.667,1.631,10.041,3.2,16.89,3.917,19.5,1.725,6.239,7.15,30.659,18,79.5,2.426,10.919,6.867,34.113,15.75,80.5,7.688,40.149,7.471,39.929,9.5,50,4.557,22.629,11.773,54.13,23.43,92.635a15.108,15.108,0,0,0,18.593,10.156l.287-.082a15.447,15.447,0,0,1,18.879,9.947l45.624,136.1a12.711,12.711,0,0,1-7.7,15.984l-.233.084a12.211,12.211,0,0,1-15.649-7.282l-43.855-120.042c-6.829-19.689-26.706-30.573-45.978-22.641q-4.5,1.853-9.231,3.974a222.191,222.191,0,0,0-29.166,15.167c-16.893,10.6-27.831,21.063-40,32.833a404.127,404.127,0,0,0-32.5,35.667c-15.952,19.653-26.014,35.63-38.25,55.25-12.288,19.7-25.655,41.388-39.911,64.9a26.4,26.4,0,0,1-34.418,9.9L254.46,677.227A415.6,415.6,0,0,1,122.838,573.453c-15.079-17.916-23.468-26.795-28.4-31.317-9.1-8.347-17.122-17.793-25.875-26.5a64.844,64.844,0,0,1-7.625-9.125c-2.386-3.444-4.639-6.7-6.125-11.5-1.4-4.509-1.439-8.205-1.5-13.25-.038-3.13.125-4.855.5-10,.678-9.3,1.082-14.843,1.25-20.625.217-7.5.326-11.244-.25-15.5-.756-5.587-2.139-9.592-4.875-17.375-3.359-9.554-4.3-10.077-7.625-19.5a116.357,116.357,0,0,1-5.125-17.375c-1.177-5.942-1.344-9.922-1.75-17.125,0,0-.875-15.522-2-29.75-.517-6.535-1.636-14.607-3.875-30.75-1.709-12.323-3.453-24.022-5-40.25a78.525,78.525,0,0,1,.5-22.875,47.635,47.635,0,0,1,5.5-15.875,41.863,41.863,0,0,1,7.625-9.625c3.6-3.329,6.8-5.018,12.125-7.75,12.414-6.371,14.165-7.008,17.875-9,9.615-5.164,16.012-10.641,23-16.625a201.558,201.558,0,0,0,16.375-15.875s16.533-17.365,38.375-37.75c11.989-11.189,21.129-18.454,35.25-29.625,21.576-17.068,44.872-36.25,72.165-56.114a33.651,33.651,0,0,1,44.665,4.488c5.956,6.56,12.022,13.958,18.961,22,20.45,23.7,25.442,31.505,44.584,53.375,16.34,18.668,33.286,38.03,56.5,61.5,38.5,38.92,57.743,58.381,64.25,63.625,0,0,9.987,8.049,23.125,25.063a43.167,43.167,0,0,1,5.687,9.625,38.866,38.866,0,0,1,2.688,9.187,38.357,38.357,0,0,1-.188,11.5c-1.5,11.593-2.247,17.39-2.562,18.938-2.207,10.829-6.677,33.368-12.607,62.622a14.811,14.811,0,0,0,11.267,17.4c16.052,3.6,34.92,7.869,55.84,12.665,0,0,10.873,2.493,29.833,7.5,10.014,2.645,16,4.356,23.333,7,7.85,2.829,13.212,4.791,19.5,8.5,7.563,4.46,12.54,9.131,17.5,14,12.754,12.517,19.131,18.776,27.334,29,8.067,10.055,20.524,24.113,40.344,42.754a15.907,15.907,0,0,0,22.113-.328Q893.583,375.448,1041.642,228.08a19.448,19.448,0,0,0-.508-28.048c-2.857-2.645-5.433-4.878-7.651-6.729a122.32,122.32,0,0,1-15.354-15.229,60.29,60.29,0,0,1-8.562-12.605c-3.6-7.383-4.805-13.668-6-20.916-3.1-18.81-4.56-34.492-4.667-35.667-.619-6.791-1.586-18.552-4.917-31.417a35.1,35.1,0,0,0-5.583-12.25,27.053,27.053,0,0,0-10.333-9.083,28.1,28.1,0,0,0-11.667-2.5,45.839,45.839,0,0,0-14.917,1.833q-6.246,1.749-14.272,3.765a23.711,23.711,0,0,0-17.432,27.792Q950.325,234.008,984.9,380.053Z"/></g><g id="5623bdcb-20a8-4e0a-81c5-3d69bdc6911d" data-name="Crossover1-Outer"><line class="884251f3-262d-4173-8905-157209333483" x1="958.343" y1="260.445" x2="978.921" y2="353.24"/></g><g id="75609bc0-5f89-4780-83d4-4617d39e5d4d" data-name="Crossover1-Mid"><line class="2261912a-e41d-4cf9-94f4-ce47181ec2fa" x1="958.343" y1="260.445" x2="978.921" y2="353.24"/></g><g id="4435694b-fc3f-458a-9832-c6bb6fce6fb6" data-name="Crossover1-Inner"><line class="b758e8ba-ca85-4eb4-9116-84099609ea07" x1="958.343" y1="260.445" x2="978.921" y2="353.24"/></g><g id="2ecfc6ee-4088-480b-9601-02a18f83b621" data-name="Crossover2-Outer"><path class="884251f3-262d-4173-8905-157209333483" d="M1029.233,287.7a95.681,95.681,0,0,0-29.5,8.354,75.681,75.681,0,0,0-19.951,12.556c-4.566,4.056-14.628,13.214-19.206,28.106-2.839,9.236-2.222,16.3-1.009,30.171.968,11.074,2.672,17.984,6.666,35.5,1.973,8.65,4.944,21.817,8.532,38.289"/></g><g id="6e9ff3d5-93ff-4a84-9e0f-bd2382ccd833" data-name="Crossover2-Mid"><path class="2261912a-e41d-4cf9-94f4-ce47181ec2fa" d="M1029.442,287.868a95.517,95.517,0,0,0-29.709,8.185,75.681,75.681,0,0,0-19.951,12.556c-4.566,4.056-14.628,13.214-19.206,28.106-2.839,9.236-2.222,16.3-1.009,30.171.968,11.074,2.672,17.984,6.666,35.5,1.973,8.65,4.944,21.817,8.532,38.289"/></g><g id="fc7fb3a3-6622-4c73-b126-73779763450e" data-name="Crossover2-Inner"><path class="b758e8ba-ca85-4eb4-9116-84099609ea07" d="M1029.606,287.868a95.123,95.123,0,0,0-29.873,8.012,75.708,75.708,0,0,0-19.951,12.556c-4.566,4.056-14.628,13.215-19.206,28.107-2.839,9.236-2.222,16.3-1.009,30.17.968,11.074,2.672,17.984,6.666,35.5,1.973,8.65,4.989,22.192,8.577,38.664"/></g><g id="3d3d0800-9293-4705-9891-d415044108b6" data-name="Start-Finish Line"><use width="200" height="103.617" transform="translate(978.989 442.804) rotate(-13.453) scale(0.215)" xlink:href="#d0fb9656-37cc-4000-ad4e-72c12434db3a"/></g><g id="8de7530b-f78e-46bf-a41b-3f800955a57e" data-name="Corner Numbers"><g id="3a95dddb-e7ed-41dd-acd8-d6fc0e7f9e67" data-name="1"><path class="e8a52366-ad44-4e00-9bbd-b2d0d2e3566a" d="M1074.594,676.443a10.417,10.417,0,1,1,13.23,6.48h0c-7.165,2.453-9.26,4.391-10.166,3.948S1077.037,683.582,1074.594,676.443Z"/><path class="ad7124d1-fafd-42db-a213-87f766a6d9f4" d="M1083.807,668.652h-.037l-2.086,1.123-.312-1.236,2.621-1.4,1.384,0-.014,11.992-1.568,0Z"/></g><g id="bcbc099b-3606-4a20-a321-aba49c66dda3" data-name="2"><path class="e8a52366-ad44-4e00-9bbd-b2d0d2e3566a" d="M1198.9,625.677a10.811,10.811,0,1,1,6.611-13.787h0c2.609,7.416,4.638,9.573,4.186,10.517S1206.291,623.079,1198.9,625.677Z"/><path class="ad7124d1-fafd-42db-a213-87f766a6d9f4" d="M1191.761,621.212v-1.034l1.323-1.282c3.183-3.021,4.622-4.627,4.643-6.5a2.221,2.221,0,0,0-2.466-2.436,4.244,4.244,0,0,0-2.645,1.05l-.535-1.188a5.462,5.462,0,0,1,3.526-1.259,3.5,3.5,0,0,1,3.806,3.624c0,2.3-1.672,4.154-4.3,6.678l-1,.918v.039l5.592.007,0,1.4Z"/></g><g id="c4bc17bd-5ad8-4202-b952-a8383e606362" data-name="3"><path class="e8a52366-ad44-4e00-9bbd-b2d0d2e3566a" d="M1206.562,417.793a10.512,10.512,0,1,1,10.139,10.873h0c-7.639-.267-10.312.806-11.006.062S1206.294,425.4,1206.562,417.793Z"/><path class="ad7124d1-fafd-42db-a213-87f766a6d9f4" d="M1213.384,422.317a5.478,5.478,0,0,0,2.681.761c2.1,0,2.755-1.339,2.736-2.345-.019-1.694-1.546-2.42-3.128-2.42h-.912v-1.229h.912c1.192,0,2.7-.614,2.7-2.048,0-.967-.614-1.824-2.122-1.824a4.438,4.438,0,0,0-2.42.8l-.429-1.191a5.751,5.751,0,0,1,3.165-.932c2.383,0,3.463,1.414,3.463,2.885a3,3,0,0,1-2.234,2.848v.037a3.152,3.152,0,0,1,2.7,3.109c0,1.936-1.507,3.631-4.412,3.631a6.154,6.154,0,0,1-3.146-.819Z"/></g><g id="98e63943-a70b-45a7-9d8b-3d22cd20a017" data-name="4"><path class="e8a52366-ad44-4e00-9bbd-b2d0d2e3566a" d="M1127.588,417.668a10.195,10.195,0,1,1-11.815-8.263h0c7.3-1.291,9.618-2.849,10.427-2.284S1126.3,410.4,1127.588,417.668Z"/><path class="ad7124d1-fafd-42db-a213-87f766a6d9f4" d="M1118.375,425l0-3.2-5.451,0v-1.047l5.242-7.487,1.715,0-.007,7.293,1.642,0v1.245l-1.643,0,0,3.2Zm0-4.441,0-3.917q0-.921.056-1.841h-.054c-.362.685-.651,1.19-.976,1.732l-2.874,3.986v.036Z"/></g><g id="fa0b6b70-db6e-42df-9f7b-5d1a43754797" data-name="5"><path class="e8a52366-ad44-4e00-9bbd-b2d0d2e3566a" d="M1019.324,307.94a10.194,10.194,0,1,1-13.11,6h0c2.585-6.947,2.416-9.735,3.314-10.146S1012.4,305.363,1019.324,307.94Z"/><path class="ad7124d1-fafd-42db-a213-87f766a6d9f4" d="M1019.174,312.95l-4.477,0-.454,3.014a6.306,6.306,0,0,1,.956-.071,4.951,4.951,0,0,1,2.527.634,3.346,3.346,0,0,1,1.675,3.017,4.071,4.071,0,0,1-4.373,4,5.746,5.746,0,0,1-2.923-.725l.4-1.21a5.246,5.246,0,0,0,2.509.654,2.589,2.589,0,0,0,2.782-2.542c-.016-1.517-1.026-2.6-3.372-2.6a12.219,12.219,0,0,0-1.625.124l.764-5.631,5.614.007Z"/></g><g id="dcbbc1a8-b910-4ed1-bad1-b4908b84789e" data-name="6"><path class="e8a52366-ad44-4e00-9bbd-b2d0d2e3566a" d="M1015.726,710.108a10.521,10.521,0,1,1,6.208-13.522h0c2.659,7.173,4.669,9.239,4.244,10.165S1022.873,707.46,1015.726,710.108Z"/><path class="ad7124d1-fafd-42db-a213-87f766a6d9f4" d="M1015.171,695.266a5.906,5.906,0,0,0-1.229.072,4.922,4.922,0,0,0-4.217,4.3h.056a3.691,3.691,0,0,1,6.573,2.525,4.049,4.049,0,0,1-4.031,4.26c-2.589,0-4.283-2.018-4.278-5.167a7.622,7.622,0,0,1,2.058-5.456,6.6,6.6,0,0,1,3.878-1.782,7.908,7.908,0,0,1,1.192-.092Zm-.475,6.985a2.462,2.462,0,0,0-2.493-2.779,2.7,2.7,0,0,0-2.35,1.487,1.4,1.4,0,0,0-.187.726c.035,1.994.945,3.468,2.659,3.47C1013.741,705.158,1014.693,703.985,1014.7,702.251Z"/></g><g id="f2c089f6-b7cc-4a46-a37c-5d48926d47e9" data-name="7"><path class="e8a52366-ad44-4e00-9bbd-b2d0d2e3566a" d="M1085.4,710.527a10.468,10.468,0,1,1-4.535,14.093h0c-3.474-6.772-5.7-8.575-5.394-9.54S1078.65,713.987,1085.4,710.527Z"/><path class="ad7124d1-fafd-42db-a213-87f766a6d9f4" d="M1094.428,714.377v1.075l-5.244,10.977H1087.5l5.225-10.662v-.037l-5.895,0v-1.354Z"/></g><g id="bc2ccea9-0a7c-465e-935f-207022142666" data-name="8"><path class="00b83928-1d2b-41f9-84ca-c3fd8f2fc07b" d="M1121.338,886.717a10.558,10.558,0,1,1-13.644,6.066h0c2.755-7.165,2.612-10.054,3.546-10.47S1114.2,883.97,1121.338,886.717Z"/><path class="ad7124d1-fafd-42db-a213-87f766a6d9f4" d="M1113.487,899.607a3.473,3.473,0,0,1,2.409-3.255l-.019-.056a3.008,3.008,0,0,1-1.928-2.727c0-1.925,1.623-3.235,3.754-3.237,2.355,0,3.534,1.473,3.536,2.987a3.087,3.087,0,0,1-2,2.843v.056a3.368,3.368,0,0,1,2.451,3.138c0,2.112-1.809,3.535-4.127,3.537C1115.023,902.9,1113.489,901.383,1113.487,899.607Zm6.543-.081c0-1.477-1.031-2.186-2.676-2.652a2.639,2.639,0,0,0-2.184,2.507,2.246,2.246,0,0,0,2.431,2.316A2.2,2.2,0,0,0,1120.03,899.526Zm-4.53-6.07c0,1.215.918,1.868,2.32,2.241a2.4,2.4,0,0,0,1.849-2.208,1.888,1.888,0,0,0-2.058-1.979A1.932,1.932,0,0,0,1115.5,893.456Z"/></g><g id="22aebc11-1427-4cd5-a5af-c06d034ec215" data-name="9"><path class="e8a52366-ad44-4e00-9bbd-b2d0d2e3566a" d="M1027.079,743.116a10.468,10.468,0,1,1-12.368-8.136h0c7.454-1.538,9.788-3.205,10.635-2.648S1025.548,735.689,1027.079,743.116Z"/><path class="ad7124d1-fafd-42db-a213-87f766a6d9f4" d="M1014.709,749.7a6.785,6.785,0,0,0,1.316-.056,4.539,4.539,0,0,0,2.52-1.169,5.282,5.282,0,0,0,1.594-3.208h-.056a3.534,3.534,0,0,1-2.836,1.3,3.491,3.491,0,0,1-3.561-3.688,4.132,4.132,0,0,1,4.115-4.284c2.466,0,3.987,2,3.988,5.078a7.615,7.615,0,0,1-2.075,5.656,6.029,6.029,0,0,1-3.5,1.614,7.609,7.609,0,0,1-1.5.093Zm.59-6.934a2.319,2.319,0,0,0,2.319,2.558,2.7,2.7,0,0,0,2.373-1.262,1.083,1.083,0,0,0,.148-.593c0-2.058-.762-3.634-2.468-3.633C1016.281,739.831,1015.3,741.055,1015.3,742.761Z"/></g><g id="714b6c98-2f6f-4b17-8e2f-b5d6f084c8c8" data-name="10"><path class="00b83928-1d2b-41f9-84ca-c3fd8f2fc07b" d="M811.567,957.219a10.559,10.559,0,1,1-14.352,4.121h0c3.72-6.715,3.978-9.6,4.96-9.878S804.877,953.512,811.567,957.219Z"/><path class="ad7124d1-fafd-42db-a213-87f766a6d9f4" d="M800.721,962.136h-.037l-2.112,1.14-.318-1.253,2.655-1.42h1.4v12.149H800.72Z"/><path class="ad7124d1-fafd-42db-a213-87f766a6d9f4" d="M814.816,966.55c0,4.131-1.533,6.411-4.225,6.41-2.374,0-3.981-2.225-4.018-6.243,0-4.075,1.758-6.318,4.226-6.318C813.359,960.4,814.817,962.68,814.816,966.55Zm-6.6.186c0,3.159.971,4.953,2.466,4.953,1.683,0,2.487-1.962,2.487-5.065,0-2.99-.765-4.954-2.466-4.954C809.266,961.67,808.219,963.427,808.218,966.736Z"/></g><g id="47648e09-f17c-453a-bb90-e70942198876" data-name="11"><path class="e8a52366-ad44-4e00-9bbd-b2d0d2e3566a" d="M41.647,511.131a10.468,10.468,0,1,1-5.7-13.664h0c7.039,2.9,9.9,2.822,10.3,3.757S44.534,504.119,41.647,511.131Z"/><path class="ad7124d1-fafd-42db-a213-87f766a6d9f4" d="M27.391,502.769h-.037L25.261,503.9l-.317-1.242,2.632-1.412h1.39l.013,12.05-1.576,0Z"/><path class="ad7124d1-fafd-42db-a213-87f766a6d9f4" d="M36.9,502.759h-.037l-2.093,1.133-.317-1.242,2.631-1.412h1.391l.013,12.05-1.576,0Z"/></g><g id="b836a418-57c8-49d2-98c6-cac71a0764df" data-name="12"><path class="00b83928-1d2b-41f9-84ca-c3fd8f2fc07b" d="M73.146,426.432a10.558,10.558,0,1,1,2.516,14.718h0c-6.265-4.437-9.1-5.01-9.273-6.017S68.724,432.673,73.146,426.432Z"/><path class="ad7124d1-fafd-42db-a213-87f766a6d9f4" d="M75.645,427.837h-.037l-2.11,1.146-.321-1.251,2.651-1.428,1.4,0,.033,12.15-1.589,0Z"/><path class="ad7124d1-fafd-42db-a213-87f766a6d9f4" d="M81.695,438.438l0-1.01,1.286-1.256c3.1-2.961,4.493-4.535,4.507-6.367a2.168,2.168,0,0,0-2.418-2.367,4.135,4.135,0,0,0-2.577,1.034l-.527-1.157a5.338,5.338,0,0,1,3.437-1.243,3.419,3.419,0,0,1,3.729,3.523c.006,2.243-1.616,4.061-4.17,6.535l-.969.9v.037l5.458-.015,0,1.365Z"/></g><g id="fb42554c-ee67-477a-914a-84a09ba608e2" data-name="13"><path class="e8a52366-ad44-4e00-9bbd-b2d0d2e3566a" d="M20.2,393.421A10.468,10.468,0,1,1,16.6,379.059h0c6.527,3.916,9.372,4.269,9.619,5.252S24.1,386.918,20.2,393.421Z"/><path class="ad7124d1-fafd-42db-a213-87f766a6d9f4" d="M5.954,383.246H5.916l-2.1,1.129-.315-1.242,2.634-1.407H7.531l-.012,12.051H5.943Z"/><path class="ad7124d1-fafd-42db-a213-87f766a6d9f4" d="M12.3,391.91a5.455,5.455,0,0,0,2.669.763c2.095,0,2.745-1.332,2.728-2.333-.018-1.688-1.536-2.412-3.113-2.413h-.908V386.7h.908c1.187,0,2.69-.609,2.691-2.037,0-.964-.611-1.817-2.112-1.819a4.43,4.43,0,0,0-2.411.8l-.425-1.187a5.725,5.725,0,0,1,3.152-.924c2.373,0,3.447,1.413,3.446,2.877a2.993,2.993,0,0,1-2.227,2.834v.038a3.139,3.139,0,0,1,2.685,3.1c0,1.928-1.506,3.614-4.4,3.611a6.125,6.125,0,0,1-3.133-.819Z"/></g><g id="867f2862-5088-4d5e-bc46-e754fd2f8b91" data-name="14"><path class="00b83928-1d2b-41f9-84ca-c3fd8f2fc07b" d="M49.434,230.4a10.558,10.558,0,1,1-7.286,13.033h0c-2.09-7.387-3.936-9.613-3.438-10.506S42.073,232.475,49.434,230.4Z"/><path class="ad7124d1-fafd-42db-a213-87f766a6d9f4" d="M46.294,235.678h-.037l-2.113,1.139-.317-1.253,2.655-1.419h1.4l-.009,12.15H46.287Z"/><path class="ad7124d1-fafd-42db-a213-87f766a6d9f4" d="M57.392,246.3l0-3.309-5.645,0v-1.084l5.427-7.753h1.776l0,7.552h1.7V243h-1.7l0,3.309Zm0-4.6,0-4.057q0-.952.057-1.906H57.4c-.374.71-.674,1.233-1.01,1.793l-2.976,4.129v.038Z"/></g><g id="d78af2ce-e8da-4d7c-9454-7f945a2041e3" data-name="15"><path class="00b83928-1d2b-41f9-84ca-c3fd8f2fc07b" d="M275.023,18.076a10.558,10.558,0,1,1,14.871,1.348h0c-5.9,4.916-7.179,7.509-8.2,7.417S279.92,23.952,275.023,18.076Z"/><path class="ad7124d1-fafd-42db-a213-87f766a6d9f4" d="M277.371,7.427h-.038L275.22,8.566,274.9,7.314l2.655-1.42h1.4l0,12.149h-1.589Z"/><path class="ad7124d1-fafd-42db-a213-87f766a6d9f4" d="M290.644,7.283l-4.636,0-.469,3.121a6.569,6.569,0,0,1,.991-.074,5.135,5.135,0,0,1,2.617.655,3.463,3.463,0,0,1,1.736,3.123,4.214,4.214,0,0,1-4.525,4.147,5.949,5.949,0,0,1-3.028-.749l.413-1.252a5.421,5.421,0,0,0,2.6.674,2.681,2.681,0,0,0,2.88-2.634c-.018-1.57-1.064-2.692-3.494-2.693a12.447,12.447,0,0,0-1.683.13L284.83,5.9l5.814,0Z"/></g><g id="69e31b4d-802f-4fea-b8d2-efd6ede85448" data-name="16"><path class="00b83928-1d2b-41f9-84ca-c3fd8f2fc07b" d="M528.916,276.057a10.558,10.558,0,1,1,4.977,14.078h0c-6.927-3.309-9.818-3.392-10.16-4.356S525.618,282.958,528.916,276.057Z"/><path class="ad7124d1-fafd-42db-a213-87f766a6d9f4" d="M532.543,276.394h-.037l-2.113,1.14-.317-1.253,2.654-1.42h1.4l0,12.15H532.54Z"/><path class="ad7124d1-fafd-42db-a213-87f766a6d9f4" d="M545.5,276.023a5.96,5.96,0,0,0-1.233.074,4.939,4.939,0,0,0-4.226,4.317h.057a3.7,3.7,0,0,1,6.6,2.525,4.063,4.063,0,0,1-4.038,4.28c-2.6,0-4.3-2.02-4.3-5.179a7.639,7.639,0,0,1,2.056-5.476,6.619,6.619,0,0,1,3.889-1.794,7.855,7.855,0,0,1,1.2-.093Zm-.468,7.009a2.47,2.47,0,0,0-2.5-2.786,2.709,2.709,0,0,0-2.355,1.5,1.4,1.4,0,0,0-.187.729c.037,2,.952,3.477,2.672,3.478C544.076,285.948,545.029,284.77,545.03,283.032Z"/></g><g id="cbfbedf8-dc45-4d26-a535-eed67f5493a3" data-name="17"><path class="00b83928-1d2b-41f9-84ca-c3fd8f2fc07b" d="M492.542,414.688a10.558,10.558,0,1,1-10.306-10.806h0c7.675.182,10.346-.925,11.052-.186S492.725,407.041,492.542,414.688Z"/><path class="ad7124d1-fafd-42db-a213-87f766a6d9f4" d="M477.263,409.677h-.037l-2.113,1.139-.317-1.253,2.655-1.419h1.4l0,12.15h-1.589Z"/><path class="ad7124d1-fafd-42db-a213-87f766a6d9f4" d="M491.173,408.15v1.084L485.878,420.3h-1.7l5.276-10.745v-.038l-5.944,0v-1.364Z"/></g><g id="49de00c7-aa23-4dbc-b436-9b4f98b72f0c" data-name="18"><path class="e8a52366-ad44-4e00-9bbd-b2d0d2e3566a" d="M639.452,416.411a10.468,10.468,0,1,1,12.74,7.539h0c-7.372,1.891-9.624,3.667-10.5,3.151S641.334,423.757,639.452,416.411Z"/><path class="ad7124d1-fafd-42db-a213-87f766a6d9f4" d="M644.022,409.56h-.037l-2.094,1.131-.316-1.241,2.632-1.411H645.6l0,12.05h-1.576Z"/><path class="ad7124d1-fafd-42db-a213-87f766a6d9f4" d="M649.845,417.029a3.441,3.441,0,0,1,2.39-3.227l-.019-.056a2.986,2.986,0,0,1-1.91-2.706c0-1.909,1.612-3.208,3.726-3.209,2.336,0,3.5,1.463,3.5,2.965a3.062,3.062,0,0,1-1.983,2.819v.055a3.342,3.342,0,0,1,2.43,3.114c0,2.1-1.8,3.5-4.1,3.506C651.367,420.291,649.845,418.79,649.845,417.029Zm6.489-.078c0-1.464-1.02-2.168-2.653-2.631a2.62,2.62,0,0,0-2.168,2.485,2.228,2.228,0,0,0,2.411,2.3A2.181,2.181,0,0,0,656.334,416.951Zm-4.489-6.023c0,1.2.909,1.854,2.3,2.224a2.375,2.375,0,0,0,1.834-2.189,1.873,1.873,0,0,0-2.04-1.964A1.916,1.916,0,0,0,651.845,410.928Z"/></g><g id="30f3e9f2-d819-403e-b546-dd1696b93432" data-name="19"><path class="00b83928-1d2b-41f9-84ca-c3fd8f2fc07b" d="M740.488,547.085a10.558,10.558,0,1,1-14.927-.353h0c5.555-5.3,6.662-7.971,7.684-7.947S735.211,541.549,740.488,547.085Z"/><path class="ad7124d1-fafd-42db-a213-87f766a6d9f4" d="M727.339,550.437H727.3l-2.113,1.139-.317-1.252,2.655-1.42h1.4l-.006,12.15h-1.589Z"/><path class="ad7124d1-fafd-42db-a213-87f766a6d9f4" d="M734.309,559.9a6.8,6.8,0,0,0,1.327-.055,4.578,4.578,0,0,0,2.543-1.176,5.334,5.334,0,0,0,1.609-3.233h-.056a3.571,3.571,0,0,1-2.86,1.307,3.519,3.519,0,0,1-3.587-3.722,4.165,4.165,0,0,1,4.151-4.316c2.486,0,4.018,2.021,4.016,5.124a7.676,7.676,0,0,1-2.1,5.7,6.084,6.084,0,0,1-3.533,1.625,7.657,7.657,0,0,1-1.514.092Zm.6-6.99a2.337,2.337,0,0,0,2.335,2.58,2.718,2.718,0,0,0,2.393-1.269,1.085,1.085,0,0,0,.149-.6c0-2.074-.764-3.664-2.483-3.664C735.9,549.955,734.911,551.188,734.911,552.908Z"/></g><g id="343b93ff-a5b7-4c6b-9682-1d193755bf09" data-name="20"><path class="e8a52366-ad44-4e00-9bbd-b2d0d2e3566a" d="M1065.044,203.17a10.468,10.468,0,1,1,1.283,14.749h0c-5.828-4.9-8.583-5.694-8.671-6.7S1060.165,208.976,1065.044,203.17Z"/><path class="ad7124d1-fafd-42db-a213-87f766a6d9f4" d="M1065.067,215.3v-.925l1.191-1.15c2.866-2.712,4.16-4.153,4.177-5.834a2,2,0,0,0-2.23-2.177,3.841,3.841,0,0,0-2.383.945l-.484-1.064a4.955,4.955,0,0,1,3.178-1.133,3.148,3.148,0,0,1,3.439,3.24c0,2.057-1.5,3.723-3.866,5.988l-.9.823v.035l5.044,0V215.3Z"/><path class="ad7124d1-fafd-42db-a213-87f766a6d9f4" d="M1081.39,209.6c0,3.791-1.414,5.884-3.9,5.886-2.194,0-3.68-2.039-3.717-5.726,0-3.739,1.621-5.8,3.9-5.8C1080.039,203.959,1081.387,206.051,1081.39,209.6Zm-6.1.176c0,2.9.9,4.545,2.283,4.544,1.554,0,2.3-1.8,2.295-4.65,0-2.744-.712-4.544-2.284-4.543C1076.257,205.128,1075.29,206.74,1075.292,209.776Z"/></g><g id="062b1459-2c48-4f99-a4cc-c1740fe52fe2" data-name="21"><path class="e8a52366-ad44-4e00-9bbd-b2d0d2e3566a" d="M1022.854,151.356a10.468,10.468,0,1,1,6.886,13.105h0c-7.268-2.261-10.116-1.932-10.588-2.829S1020.6,158.6,1022.854,151.356Z"/><path class="ad7124d1-fafd-42db-a213-87f766a6d9f4" d="M1025.569,160v-.925l1.192-1.151c2.867-2.71,4.163-4.15,4.18-5.831a2,2,0,0,0-2.229-2.179,3.835,3.835,0,0,0-2.383.944l-.484-1.064a4.953,4.953,0,0,1,3.178-1.132,3.15,3.15,0,0,1,3.438,3.243c0,2.057-1.5,3.721-3.869,5.985l-.9.823v.034h5.043V160Z"/><path class="ad7124d1-fafd-42db-a213-87f766a6d9f4" d="M1037.73,150.257h-.034l-1.952,1.046-.294-1.149,2.453-1.3h1.3V160h-1.468Z"/></g><g id="138f71e4-08f0-44fa-8d02-4ecf33ec0456" data-name="22"><path class="e8a52366-ad44-4e00-9bbd-b2d0d2e3566a" d="M989.352,40.846a10.468,10.468,0,1,1,11.109,9.784h0c-7.6.482-10.139,1.806-10.9,1.137S989.83,48.414,989.352,40.846Z"/><path class="ad7124d1-fafd-42db-a213-87f766a6d9f4" d="M991.434,45.65v-.926l1.194-1.148c2.87-2.707,4.167-4.146,4.186-5.826a2,2,0,0,0-2.226-2.182,3.834,3.834,0,0,0-2.384.942l-.483-1.065a4.949,4.949,0,0,1,3.18-1.128,3.147,3.147,0,0,1,3.433,3.245c0,2.058-1.506,3.721-3.876,5.982l-.9.822V44.4l5.044.006,0,1.252Z"/><path class="ad7124d1-fafd-42db-a213-87f766a6d9f4" d="M1000.3,45.66v-.926l1.193-1.148c2.87-2.707,4.167-4.146,4.187-5.826a2,2,0,0,0-2.226-2.182,3.842,3.842,0,0,0-2.385.941l-.483-1.064a4.948,4.948,0,0,1,3.18-1.128,3.148,3.148,0,0,1,3.434,3.245c0,2.058-1.507,3.721-3.876,5.982l-.9.822v.034l5.043.006v1.252Z"/></g><g id="afb85f02-aabd-4767-ac3f-374c289dfcb3" data-name="23"><path class="e8a52366-ad44-4e00-9bbd-b2d0d2e3566a" d="M902.924,69.669a10.468,10.468,0,1,1,5.591-13.708h0c2.951,7.017,5.037,8.984,4.655,9.922S909.915,66.73,902.924,69.669Z"/><path class="ad7124d1-fafd-42db-a213-87f766a6d9f4" d="M891.628,65.57v-.926l1.193-1.148c2.869-2.708,4.166-4.148,4.185-5.828a2,2,0,0,0-2.227-2.181,3.842,3.842,0,0,0-2.385.942l-.482-1.064a4.945,4.945,0,0,1,3.179-1.13,3.148,3.148,0,0,1,3.434,3.245c0,2.058-1.5,3.721-3.873,5.983l-.9.822v.034l5.043,0v1.252Z"/><path class="ad7124d1-fafd-42db-a213-87f766a6d9f4" d="M900.856,63.845a5.109,5.109,0,0,0,2.487.7c1.951,0,2.557-1.233,2.54-2.16-.015-1.56-1.431-2.23-2.9-2.231h-.846V59.025h.847c1.105,0,2.5-.563,2.506-1.885,0-.891-.569-1.68-1.968-1.681a4.138,4.138,0,0,0-2.246.735l-.4-1.1a5.365,5.365,0,0,1,2.937-.855c2.211,0,3.212,1.306,3.211,2.66a2.772,2.772,0,0,1-2.075,2.623v.035a2.911,2.911,0,0,1,2.5,2.866c0,1.783-1.4,3.342-4.1,3.34a5.738,5.738,0,0,1-2.919-.756Z"/></g></g></g></g></g></svg>