<svg xmlns="http://www.w3.org/2000/svg" xmlns:xlink="http://www.w3.org/1999/xlink" width="755.09" height="623.351" viewBox="0 0 755.09 623.351"><defs><style>.\35 ce02538-7acc-4c08-b98a-9c6df0861bcc{fill:#00ff24;}.\35 ce02538-7acc-4c08-b98a-9c6df0861bcc,.c40a77cd-f34e-4628-b1b2-d76ba83deaf6{stroke:#000;stroke-width:5px;}.\32 72e18e4-b026-4584-b0ce-7e96effa3341,.\35 266722e-3220-4f8d-a702-ca42ae630a97,.\35 ce02538-7acc-4c08-b98a-9c6df0861bcc,.\37 cd2f353-d0e1-432a-b487-068800535646,.c40a77cd-f34e-4628-b1b2-d76ba83deaf6{stroke-miterlimit:10;}.c40a77cd-f34e-4628-b1b2-d76ba83deaf6{fill:#fff;}.\32 72e18e4-b026-4584-b0ce-7e96effa3341,.\35 266722e-3220-4f8d-a702-ca42ae630a97,.\37 cd2f353-d0e1-432a-b487-068800535646{fill:none;}.\32 72e18e4-b026-4584-b0ce-7e96effa3341,.\35 266722e-3220-4f8d-a702-ca42ae630a97{stroke:#0080ff;}.\32 72e18e4-b026-4584-b0ce-7e96effa3341{stroke-width:20px;}.\37 cd2f353-d0e1-432a-b487-068800535646{stroke:#fff;stroke-width:12px;}.\35 266722e-3220-4f8d-a702-ca42ae630a97{stroke-width:2px;}</style><symbol id="fcac22c7-f365-4606-866b-3b03fe8b4468" data-name="fd103434-89f2-4089-acf9-54fed79ed404" viewBox="0 0 200 103.617"><rect class="5ce02538-7acc-4c08-b98a-9c6df0861bcc" x="2.5" y="54.074" width="195" height="47.043"/><rect class="c40a77cd-f34e-4628-b1b2-d76ba83deaf6" x="2.5" y="2.5" width="48.75" height="48.75"/><rect class="c40a77cd-f34e-4628-b1b2-d76ba83deaf6" x="51.25" y="2.5" width="48.75" height="48.75"/><rect class="c40a77cd-f34e-4628-b1b2-d76ba83deaf6" x="100" y="2.5" width="48.75" height="48.75"/><rect class="c40a77cd-f34e-4628-b1b2-d76ba83deaf6" x="148.75" y="2.5" width="48.75" height="48.75"/></symbol></defs><title>Stab_Valley_5M</title><g id="3b0441e1-74b0-446c-8a4b-915439b8ebe0" data-name="Layer 2"><g id="937ee908-995e-4c3b-8aab-bef2d933011d" data-name="Blaine County"><g id="ee38a0d2-454f-44ac-8c99-74c4acca3f52" data-name="Stab_Valley_5M"><path id="1a89ad5b-9767-46e8-b532-6372a18620dc" data-name="Track Outer" class="272e18e4-b026-4584-b0ce-7e96effa3341" d="M171.543,45.15c-5.814-20.488-10.667-23-29-26s-29-4.667-38.334-6-22.333-7.833-39.166,3-25.167,11.667-36.5,13.833S7.21,36.438,10.709,49.817c2.834,10.833,10.5,9,16.667,10.166C33.256,61.1,38.642,64.029,46.1,76.705c6.667,11.334,63.334,101.112,70.889,114s11.415,23.106,10.889,38.889c-.444,13.334-5.768,30.1,16,30.889,12.222.445,16-6.666,47.333,12.667s126.93,88.8,143.556,100c15.833,10.667,32.146,14.069,68.444,22,26.445,5.778,66,14.444,91.778,27.333s48.95,24.768,76.889,22.167c20.889-1.945,34.667-4.167,46.444-9.056s24.223-17.555,35.778-26.889,34-22.444,49.111-28.444,24.167-9.111,30.334-10.778,12.833-3.333,11.333-16.833-2.833-31.667-3.333-45.5-.834-24-.834-33,2.684-23.34-28.666-22.5c-18.667.5-23.972,4.048-37.5,13.5-12.167,8.5-31.334,20.444-48.223,35.778s-48.444,51.111-57.777,60-37.778,4.444-49.778,21.777-49.648,153.242-54.889,171.334c-6.889,23.778-15.333,36.444-21.778,47.555s-22.444,18.667-36.444,2.223-45.69-40.211-11.111-70.223c23.555-20.444,48.889-38.666,59.777-53.333s16-46,9.112-62.444c-6.959-16.611-16.748-22.5-12.445-47.556,3.778-22,16.445-36.222,16.222-54.889s-.889-27.333-10.222-37.333-17.555-10-31.111-13.111-28.667-7.111-39.333-9.556-18.889-4-37.334-3.333-24.222,0-34.666.222-23.778.222-40.223-10.889-48.536-35.014-60.888-47.778c-13.334-13.777-15.167-22.277-18.056-36.944s-5.833-37-9.5-55.833C182.258,82.232,173.876,53.372,171.543,45.15Z"/><path id="352f79dc-de2f-46ac-be0b-3cd5c47c5cb3" data-name="Track Middle" class="7cd2f353-d0e1-432a-b487-068800535646" d="M171.543,45.15c-5.814-20.488-10.667-23-29-26s-29-4.667-38.334-6-22.333-7.833-39.166,3-25.167,11.667-36.5,13.833S7.21,36.438,10.709,49.817c2.834,10.833,10.5,9,16.667,10.166C33.256,61.1,38.642,64.029,46.1,76.705c6.667,11.334,63.334,101.112,70.889,114s11.415,23.106,10.889,38.889c-.444,13.334-5.768,30.1,16,30.889,12.222.445,16-6.666,47.333,12.667s126.93,88.8,143.556,100c15.833,10.667,32.146,14.069,68.444,22,26.445,5.778,66,14.444,91.778,27.333s48.95,24.768,76.889,22.167c20.889-1.945,34.667-4.167,46.444-9.056s24.223-17.555,35.778-26.889,34-22.444,49.111-28.444,24.167-9.111,30.334-10.778,12.833-3.333,11.333-16.833-2.833-31.667-3.333-45.5-.834-24-.834-33,2.684-23.34-28.666-22.5c-18.667.5-23.972,4.048-37.5,13.5-12.167,8.5-31.334,20.444-48.223,35.778s-48.444,51.111-57.777,60-37.778,4.444-49.778,21.777-49.648,153.242-54.889,171.334c-6.889,23.778-15.333,36.444-21.778,47.555s-22.444,18.667-36.444,2.223-45.69-40.211-11.111-70.223c23.555-20.444,48.889-38.666,59.777-53.333s16-46,9.112-62.444c-6.959-16.611-16.748-22.5-12.445-47.556,3.778-22,16.445-36.222,16.222-54.889s-.889-27.333-10.222-37.333-17.555-10-31.111-13.111-28.667-7.111-39.333-9.556-18.889-4-37.334-3.333-24.222,0-34.666.222-23.778.222-40.223-10.889-48.536-35.014-60.888-47.778c-13.334-13.777-15.167-22.277-18.056-36.944s-5.833-37-9.5-55.833C182.258,82.232,173.876,53.372,171.543,45.15Z"/><path id="0ec2e192-4b51-4167-ad99-f39641e23216" data-name="Track Inner" class="5266722e-3220-4f8d-a702-ca42ae630a97" d="M171.543,45.15c-5.814-20.488-10.667-23-29-26s-29-4.667-38.334-6-22.333-7.833-39.166,3-25.167,11.667-36.5,13.833S7.21,36.438,10.709,49.817c2.834,10.833,10.5,9,16.667,10.166C33.256,61.1,38.642,64.029,46.1,76.705c6.667,11.334,63.334,101.112,70.889,114s11.415,23.106,10.889,38.889c-.444,13.334-5.768,30.1,16,30.889,12.222.445,16-6.666,47.333,12.667s126.93,88.8,143.556,100c15.833,10.667,32.146,14.069,68.444,22,26.445,5.778,66,14.444,91.778,27.333s48.95,24.768,76.889,22.167c20.889-1.945,34.667-4.167,46.444-9.056s24.223-17.555,35.778-26.889,34-22.444,49.111-28.444,24.167-9.111,30.334-10.778,12.833-3.333,11.333-16.833-2.833-31.667-3.333-45.5-.834-24-.834-33,2.684-23.34-28.666-22.5c-18.667.5-23.972,4.048-37.5,13.5-12.167,8.5-31.334,20.444-48.223,35.778s-48.444,51.111-57.777,60-37.778,4.444-49.778,21.777-49.648,153.242-54.889,171.334c-6.889,23.778-15.333,36.444-21.778,47.555s-22.444,18.667-36.444,2.223-45.69-40.211-11.111-70.223c23.555-20.444,48.889-38.666,59.777-53.333s16-46,9.112-62.444c-6.959-16.611-16.748-22.5-12.445-47.556,3.778-22,16.445-36.222,16.222-54.889s-.889-27.333-10.222-37.333-17.555-10-31.111-13.111-28.667-7.111-39.333-9.556-18.889-4-37.334-3.333-24.222,0-34.666.222-23.778.222-40.223-10.889-48.536-35.014-60.888-47.778c-13.334-13.777-15.167-22.277-18.056-36.944s-5.833-37-9.5-55.833C182.258,82.232,173.876,53.372,171.543,45.15Z"/><path id="d8cf8e3f-6aca-4b11-a27e-b232912c8772" data-name="Crossover Outer" class="272e18e4-b026-4584-b0ce-7e96effa3341" d="M403.293,395.178c26.444,5.777,64.111,14.083,90.222,26.555,9.054,4.325,13.18,7.056,30.319,14.334"/><path id="caf64ec9-808a-4d93-8326-ad1d9b522fce" data-name="Crossover Middle" class="7cd2f353-d0e1-432a-b487-068800535646" d="M403.076,395.118c26.444,5.778,64.328,14.143,90.439,26.615,9.054,4.325,13.305,7.139,30.444,14.417"/><path id="7db9e2a6-c69b-4e97-93a0-ad4fae3b3802" data-name="Crossover Inner" class="5266722e-3220-4f8d-a702-ca42ae630a97" d="M402.765,395.067c26.444,5.777,64.837,14.256,90.948,26.729,9.054,4.324,13.3,7.139,30.444,14.416"/><use id="cfaf450f-ac54-479e-80bf-b1047125f4be" data-name="Start-Finish-Line" width="200" height="103.617" transform="matrix(-0.234, 0.071, -0.071, -0.234, 198.369, 50.594)" xlink:href="#fcac22c7-f365-4606-866b-3b03fe8b4468"/></g></g></g></svg>