<svg xmlns="http://www.w3.org/2000/svg" xmlns:xlink="http://www.w3.org/1999/xlink" width="755.09" height="623.351" viewBox="0 0 755.09 623.351"><defs><style>.f0d9fedf-d882-4a72-bd5d-762cb6f96879{fill:#00ff24;}.\36 b834ba8-64cd-416a-a7e4-1d17b6cee781,.f0d9fedf-d882-4a72-bd5d-762cb6f96879{stroke:#000;stroke-width:5px;}.\31 4ce8307-96cd-400e-b81e-b538726ebf4d,.\36 b834ba8-64cd-416a-a7e4-1d17b6cee781,.\36 efbf071-3dec-4740-a001-1962b7604c0f,.\36 f1ad66c-f31a-4217-9fc2-a540ed3dc8eb,.d5790da2-ef84-4144-a5e5-0ffaa505e575,.ec9301ee-002c-4b7d-912d-7ff05fc3d040,.f0d9fedf-d882-4a72-bd5d-762cb6f96879{stroke-miterlimit:10;}.\36 b834ba8-64cd-416a-a7e4-1d17b6cee781{fill:#fff;}.\31 4ce8307-96cd-400e-b81e-b538726ebf4d,.\36 efbf071-3dec-4740-a001-1962b7604c0f,.\36 f1ad66c-f31a-4217-9fc2-a540ed3dc8eb,.d5790da2-ef84-4144-a5e5-0ffaa505e575,.ec9301ee-002c-4b7d-912d-7ff05fc3d040{fill:none;}.d5790da2-ef84-4144-a5e5-0ffaa505e575,.ec9301ee-002c-4b7d-912d-7ff05fc3d040{stroke:#c91c1c;}.\36 f1ad66c-f31a-4217-9fc2-a540ed3dc8eb,.d5790da2-ef84-4144-a5e5-0ffaa505e575{stroke-width:20px;}.\31 4ce8307-96cd-400e-b81e-b538726ebf4d,.\36 f1ad66c-f31a-4217-9fc2-a540ed3dc8eb{stroke:#0080ff;}.\36 efbf071-3dec-4740-a001-1962b7604c0f{stroke:#fff;stroke-width:12px;}.\31 4ce8307-96cd-400e-b81e-b538726ebf4d,.ec9301ee-002c-4b7d-912d-7ff05fc3d040{stroke-width:2px;}</style><symbol id="b5997841-6c4d-4b7a-bea8-262c1e9b76cb" data-name="fd103434-89f2-4089-acf9-54fed79ed404" viewBox="0 0 200 103.617"><rect class="f0d9fedf-d882-4a72-bd5d-762cb6f96879" x="2.5" y="54.074" width="195" height="47.043"/><rect class="6b834ba8-64cd-416a-a7e4-1d17b6cee781" x="2.5" y="2.5" width="48.75" height="48.75"/><rect class="6b834ba8-64cd-416a-a7e4-1d17b6cee781" x="51.25" y="2.5" width="48.75" height="48.75"/><rect class="6b834ba8-64cd-416a-a7e4-1d17b6cee781" x="100" y="2.5" width="48.75" height="48.75"/><rect class="6b834ba8-64cd-416a-a7e4-1d17b6cee781" x="148.75" y="2.5" width="48.75" height="48.75"/></symbol></defs><title>Stab_Valley</title><g id="d2412783-163c-41dd-b9ea-7ec9bdd3cc4a" data-name="Layer 2"><g id="ca6b7d01-cc6e-425d-9a65-10bd5b7e92ef" data-name="Blaine County"><g id="56f0429f-5f44-4400-bf47-874eda2e5bfc" data-name="Stab_Valley"><path id="03e6650a-9314-4107-bd93-14335748295c" data-name="Pitlane Outer" class="d5790da2-ef84-4144-a5e5-0ffaa505e575" d="M531.973,439.122c16.584,5.792,37.986,26.945,43.9,42.528s12.833,12,18.583.833,13-25,21.084-35.333S629.034,429.937,637.272,423"/><path id="caf646fe-d6e7-46f0-b7c5-69d60e3b0505" data-name="Track Outer" class="6f1ad66c-f31a-4217-9fc2-a540ed3dc8eb" d="M171.543,45.15c-5.814-20.488-10.667-23-29-26s-29-4.667-38.334-6-22.333-7.833-39.166,3-25.167,11.667-36.5,13.833S7.21,36.438,10.709,49.817c2.834,10.833,10.5,9,16.667,10.166C33.256,61.1,38.642,64.029,46.1,76.705c6.667,11.334,63.334,101.112,70.889,114s11.415,23.106,10.889,38.889c-.444,13.334-5.768,30.1,16,30.889,12.222.445,16-6.666,47.333,12.667s126.93,88.8,143.556,100c15.833,10.667,32.146,14.069,68.444,22,26.445,5.778,66,14.444,91.778,27.333s48.95,24.768,76.889,22.167c20.889-1.945,34.667-4.167,46.444-9.056s24.223-17.555,35.778-26.889,34-22.444,49.111-28.444,24.167-9.111,30.334-10.778,12.833-3.333,11.333-16.833-2.833-31.667-3.333-45.5-.834-24-.834-33,2.684-23.34-28.666-22.5c-18.667.5-23.972,4.048-37.5,13.5-12.167,8.5-31.334,20.444-48.223,35.778s-48.444,51.111-57.777,60-37.778,4.444-49.778,21.777-49.648,153.242-54.889,171.334c-6.889,23.778-15.333,36.444-21.778,47.555s-22.444,18.667-36.444,2.223-45.69-40.211-11.111-70.223c23.555-20.444,48.889-38.666,59.777-53.333s16-46,9.112-62.444c-6.959-16.611-16.748-22.5-12.445-47.556,3.778-22,16.445-36.222,16.222-54.889s-.889-27.333-10.222-37.333-17.555-10-31.111-13.111-28.667-7.111-39.333-9.556-18.889-4-37.334-3.333-24.222,0-34.666.222-23.778.222-40.223-10.889-48.536-35.014-60.888-47.778c-13.334-13.777-15.167-22.277-18.056-36.944s-5.833-37-9.5-55.833C182.258,82.232,173.876,53.372,171.543,45.15Z"/><path id="cdcae09c-4e99-4506-8220-a1e9f55e03eb" data-name="Track Middle" class="6efbf071-3dec-4740-a001-1962b7604c0f" d="M171.543,45.15c-5.814-20.488-10.667-23-29-26s-29-4.667-38.334-6-22.333-7.833-39.166,3-25.167,11.667-36.5,13.833S7.21,36.438,10.709,49.817c2.834,10.833,10.5,9,16.667,10.166C33.256,61.1,38.642,64.029,46.1,76.705c6.667,11.334,63.334,101.112,70.889,114s11.415,23.106,10.889,38.889c-.444,13.334-5.768,30.1,16,30.889,12.222.445,16-6.666,47.333,12.667s126.93,88.8,143.556,100c15.833,10.667,32.146,14.069,68.444,22,26.445,5.778,66,14.444,91.778,27.333s48.95,24.768,76.889,22.167c20.889-1.945,34.667-4.167,46.444-9.056s24.223-17.555,35.778-26.889,34-22.444,49.111-28.444,24.167-9.111,30.334-10.778,12.833-3.333,11.333-16.833-2.833-31.667-3.333-45.5-.834-24-.834-33,2.684-23.34-28.666-22.5c-18.667.5-23.972,4.048-37.5,13.5-12.167,8.5-31.334,20.444-48.223,35.778s-48.444,51.111-57.777,60-37.778,4.444-49.778,21.777-49.648,153.242-54.889,171.334c-6.889,23.778-15.333,36.444-21.778,47.555s-22.444,18.667-36.444,2.223-45.69-40.211-11.111-70.223c23.555-20.444,48.889-38.666,59.777-53.333s16-46,9.112-62.444c-6.959-16.611-16.748-22.5-12.445-47.556,3.778-22,16.445-36.222,16.222-54.889s-.889-27.333-10.222-37.333-17.555-10-31.111-13.111-28.667-7.111-39.333-9.556-18.889-4-37.334-3.333-24.222,0-34.666.222-23.778.222-40.223-10.889-48.536-35.014-60.888-47.778c-13.334-13.777-15.167-22.277-18.056-36.944s-5.833-37-9.5-55.833C182.258,82.232,173.876,53.372,171.543,45.15Z"/><path id="9edd2722-cd62-48de-890d-c304b460f9fe" data-name="Pitlane Middle" class="6efbf071-3dec-4740-a001-1962b7604c0f" d="M531.973,439.122c16.584,5.792,37.986,26.945,43.9,42.528s12.833,12,18.583.833,13-25,21.084-35.333S629.034,429.937,637.272,423"/><path id="2b315079-0290-4ced-84fc-decd9492f507" data-name="Pitlane Inner" class="ec9301ee-002c-4b7d-912d-7ff05fc3d040" d="M531.973,439.122c16.584,5.792,37.986,26.945,43.9,42.528s12.833,12,18.583.833,13-25,21.084-35.333S629.034,429.937,637.272,423"/><path id="d052052e-7ddf-484e-b288-eecddd68d452" data-name="Track Inner" class="14ce8307-96cd-400e-b81e-b538726ebf4d" d="M171.543,45.15c-5.814-20.488-10.667-23-29-26s-29-4.667-38.334-6-22.333-7.833-39.166,3-25.167,11.667-36.5,13.833S7.21,36.438,10.709,49.817c2.834,10.833,10.5,9,16.667,10.166C33.256,61.1,38.642,64.029,46.1,76.705c6.667,11.334,63.334,101.112,70.889,114s11.415,23.106,10.889,38.889c-.444,13.334-5.768,30.1,16,30.889,12.222.445,16-6.666,47.333,12.667s126.93,88.8,143.556,100c15.833,10.667,32.146,14.069,68.444,22,26.445,5.778,66,14.444,91.778,27.333s48.95,24.768,76.889,22.167c20.889-1.945,34.667-4.167,46.444-9.056s24.223-17.555,35.778-26.889,34-22.444,49.111-28.444,24.167-9.111,30.334-10.778,12.833-3.333,11.333-16.833-2.833-31.667-3.333-45.5-.834-24-.834-33,2.684-23.34-28.666-22.5c-18.667.5-23.972,4.048-37.5,13.5-12.167,8.5-31.334,20.444-48.223,35.778s-48.444,51.111-57.777,60-37.778,4.444-49.778,21.777-49.648,153.242-54.889,171.334c-6.889,23.778-15.333,36.444-21.778,47.555s-22.444,18.667-36.444,2.223-45.69-40.211-11.111-70.223c23.555-20.444,48.889-38.666,59.777-53.333s16-46,9.112-62.444c-6.959-16.611-16.748-22.5-12.445-47.556,3.778-22,16.445-36.222,16.222-54.889s-.889-27.333-10.222-37.333-17.555-10-31.111-13.111-28.667-7.111-39.333-9.556-18.889-4-37.334-3.333-24.222,0-34.666.222-23.778.222-40.223-10.889-48.536-35.014-60.888-47.778c-13.334-13.777-15.167-22.277-18.056-36.944s-5.833-37-9.5-55.833C182.258,82.232,173.876,53.372,171.543,45.15Z"/><path id="62cb3058-d0e9-4bd1-8bdf-539e883f3eda" data-name="Crossover Outer" class="6f1ad66c-f31a-4217-9fc2-a540ed3dc8eb" d="M403.293,395.178c26.444,5.777,64.111,14.083,90.222,26.555,9.054,4.325,13.18,7.056,30.319,14.334"/><path id="5d945ee8-36f6-4ca2-958b-b676592aca3c" data-name="Crossover Middle" class="6efbf071-3dec-4740-a001-1962b7604c0f" d="M403.076,395.118c26.444,5.778,64.328,14.143,90.439,26.615,9.054,4.325,13.305,7.139,30.444,14.417"/><path id="ef9709e4-d058-473f-88c6-fd00f3606cc9" data-name="Crossover Inner" class="14ce8307-96cd-400e-b81e-b538726ebf4d" d="M402.765,395.067c26.444,5.777,64.837,14.256,90.948,26.729,9.054,4.324,13.3,7.139,30.444,14.416"/><use id="10cf2308-8003-45b9-ad6f-f57e4a286eb2" data-name="Start-Finish-Line" width="200" height="103.617" transform="matrix(-0.234, 0.071, -0.071, -0.234, 198.369, 50.594)" xlink:href="#b5997841-6c4d-4b7a-bea8-262c1e9b76cb"/></g></g></g></svg>