<svg xmlns="http://www.w3.org/2000/svg" xmlns:xlink="http://www.w3.org/1999/xlink" width="942.851" height="635.739" viewBox="0 0 942.851 635.739"><defs><style>.\33 1884e78-b7d5-4393-b9fe-f1ac98ff803b{fill:#00ff24;}.\33 1884e78-b7d5-4393-b9fe-f1ac98ff803b,.a1eac0db-091d-49bb-8596-9b5f81e20ff5{stroke:#000;stroke-width:5px;}.\30 f55df7a-1389-4f55-bef7-67fa2a1bc286,.\33 1884e78-b7d5-4393-b9fe-f1ac98ff803b,.a1eac0db-091d-49bb-8596-9b5f81e20ff5,.a5767e49-8390-4015-a991-5416d51e8f56,.cdeb1ef4-b618-4afd-b423-81da0f24721f,.d062c9ff-a655-4f00-8341-f4c04722c666,.deddb516-2d7b-48df-995a-524b52866232{stroke-miterlimit:10;}.a1eac0db-091d-49bb-8596-9b5f81e20ff5{fill:#fff;}.\30 f55df7a-1389-4f55-bef7-67fa2a1bc286,.a5767e49-8390-4015-a991-5416d51e8f56,.cdeb1ef4-b618-4afd-b423-81da0f24721f,.d062c9ff-a655-4f00-8341-f4c04722c666,.deddb516-2d7b-48df-995a-524b52866232{fill:none;}.cdeb1ef4-b618-4afd-b423-81da0f24721f,.d062c9ff-a655-4f00-8341-f4c04722c666{stroke:#c91c1c;}.a5767e49-8390-4015-a991-5416d51e8f56,.cdeb1ef4-b618-4afd-b423-81da0f24721f{stroke-width:20px;}.a5767e49-8390-4015-a991-5416d51e8f56,.deddb516-2d7b-48df-995a-524b52866232{stroke:#0080ff;}.\30 f55df7a-1389-4f55-bef7-67fa2a1bc286{stroke:#fff;stroke-width:12px;}.d062c9ff-a655-4f00-8341-f4c04722c666,.deddb516-2d7b-48df-995a-524b52866232{stroke-width:2px;}</style><symbol id="ec25917d-6891-4d46-a24c-103eab578a74" data-name="fd103434-89f2-4089-acf9-54fed79ed404" viewBox="0 0 200 103.617"><rect class="31884e78-b7d5-4393-b9fe-f1ac98ff803b" x="2.5" y="54.074" width="195" height="47.043"/><rect class="a1eac0db-091d-49bb-8596-9b5f81e20ff5" x="2.5" y="2.5" width="48.75" height="48.75"/><rect class="a1eac0db-091d-49bb-8596-9b5f81e20ff5" x="51.25" y="2.5" width="48.75" height="48.75"/><rect class="a1eac0db-091d-49bb-8596-9b5f81e20ff5" x="100" y="2.5" width="48.75" height="48.75"/><rect class="a1eac0db-091d-49bb-8596-9b5f81e20ff5" x="148.75" y="2.5" width="48.75" height="48.75"/></symbol></defs><title>VIG_Paleto_Bae_CPF</title><g id="b7b14e99-3838-4082-89cc-a7e106d5bab6" data-name="Layer 2"><g id="0dbd22a2-5ecb-45bd-a868-66fd44bcb92d" data-name="Blaine County"><g id="820a64f8-f91a-43d7-a3cc-856aa728bf6d" data-name="VIG_Paleto_Bae_CPF"><path id="2de82900-0bee-40c3-ba5a-356ae09717ff" data-name="Pitlane Outer" class="cdeb1ef4-b618-4afd-b423-81da0f24721f" d="M511.616,256.364c-11.373,10.786-12.326,26.888-20.826,40.221s-36.444,39.722-50.611,54.056-56.333,56.666-72,72.666-32.444,11.584-52.056,32.584"/><path id="819e5393-c4d8-4276-ad7a-baa3d43a3ca0" data-name="Track Outer" class="a5767e49-8390-4015-a991-5416d51e8f56" d="M283.346,491.363c-14.174,16-111.223,113.555-119.445,121.778s-14.489,14.647-39.578,11.99-31.755-5.768-45.311-18.657-12.833-13-17.333-17.167-5.5-5.5-11.167-4.833-6.833,3-16.5-5.833-24.5-15.5-24-43.5,2.5-54.167,16.334-64.5,22.833-15.834,35.833-.167,22.072,26.279,29,34c10.917,12.167,19.817,17.25,30.583,6.5,56.584-56.5,80.25-80.667,97.084-97.833s17.833-19.167,28.833-29.5,13.833-11.834,21.5-19.5,13.333-13.334-1.667-27.834-18.5-18.833-26.166-26-13.5-13-8.167-22.333,27.5-35.5,42.667-50.833,43.666-40,63.666-54.834,43.334-29.833,54.167-34,21.122-9.964,36,5.334c11.833,12.166,27.167,21.166,4.833,42.833s-44.05,46.435-53.55,56.435-16.527,21.8-37.95,2.065c-14.833-13.667-23-21.667-30.5-29.333s-13.166-10.667-7.166-37.5,5.166-37.5,32.5-65.167,70.055-66.056,89.833-84.5S458.79,9.363,492.346,10.03s55.98,5.353,70,9.111,21.333,7.777,26.889,15.555S600.4,48.284,629.457,56.252c27.555,7.555,39.555,6.889,64.555,17.555s41,19.334,65.223,39.111,33.444,24.723,46.277,34.723,20,16,26.5,25.333,7.834,13.333,30.167,17.5,32.833,6.833,49.833,10.833,21,5,20.834,21.334.666,23.333-12.5,21.333-56.223-11.056-84.889-17.5-89.111-18-132.445-15.111-83.166,8.778-98.833,10.611-31.167,3-35.5-9.667,2-25.833-3.667-33.833-24-11.167-32.5-11.167-26.548-3.537-22.333,16.834c2,9.666,17.167,25.166,24.833,33.5,7.152,7.773.423,16.719-7.666,24-13.334,12-53,50.833-61.667,57.833s-28.167,9.5-41.333,20.333-5.9,31.176-28.445,52.889C374.846,392.974,297.179,475.752,283.346,491.363Z"/><path id="ff8367b9-3555-49b0-9b9c-9ab486449fec" data-name="Track Middle" class="0f55df7a-1389-4f55-bef7-67fa2a1bc286" d="M283.346,491.363c-14.174,16-111.223,113.555-119.445,121.778s-14.489,14.647-39.578,11.99-31.755-5.768-45.311-18.657-12.833-13-17.333-17.167-5.5-5.5-11.167-4.833-6.833,3-16.5-5.833-24.5-15.5-24-43.5,2.5-54.167,16.334-64.5,22.833-15.834,35.833-.167,22.072,26.279,29,34c10.917,12.167,19.817,17.25,30.583,6.5,56.584-56.5,80.25-80.667,97.084-97.833s17.833-19.167,28.833-29.5,13.833-11.834,21.5-19.5,13.333-13.334-1.667-27.834-18.5-18.833-26.166-26-13.5-13-8.167-22.333,27.5-35.5,42.667-50.833,43.666-40,63.666-54.834,43.334-29.833,54.167-34,21.122-9.964,36,5.334c11.833,12.166,27.167,21.166,4.833,42.833s-44.05,46.435-53.55,56.435-16.527,21.8-37.95,2.065c-14.833-13.667-23-21.667-30.5-29.333s-13.166-10.667-7.166-37.5,5.166-37.5,32.5-65.167,70.055-66.056,89.833-84.5S458.79,9.363,492.346,10.03s55.98,5.353,70,9.111,21.333,7.777,26.889,15.555S600.4,48.284,629.457,56.252c27.555,7.555,39.555,6.889,64.555,17.555s41,19.334,65.223,39.111,33.444,24.723,46.277,34.723,20,16,26.5,25.333,7.834,13.333,30.167,17.5,32.833,6.833,49.833,10.833,21,5,20.834,21.334.666,23.333-12.5,21.333-56.223-11.056-84.889-17.5-89.111-18-132.445-15.111-83.166,8.778-98.833,10.611-31.167,3-35.5-9.667,2-25.833-3.667-33.833-24-11.167-32.5-11.167-26.548-3.537-22.333,16.834c2,9.666,17.167,25.166,24.833,33.5,7.152,7.773.423,16.719-7.666,24-13.334,12-53,50.833-61.667,57.833s-28.167,9.5-41.333,20.333-5.9,31.176-28.445,52.889C374.846,392.974,297.179,475.752,283.346,491.363Z"/><path id="b98e912d-cc0e-41f5-ab4b-849f899f7a1b" data-name="Pitlane Middle" class="0f55df7a-1389-4f55-bef7-67fa2a1bc286" d="M511.616,256.364c-11.373,10.786-12.326,26.888-20.826,40.221s-36.444,39.722-50.611,54.056-56.333,56.666-72,72.666-32.444,11.584-52.056,32.584"/><path id="301df052-9906-4e5a-b42f-7c329e2696fd" data-name="Pitlane Inner" class="d062c9ff-a655-4f00-8341-f4c04722c666" d="M511.616,256.364c-11.373,10.786-12.326,26.888-20.826,40.221s-36.444,39.722-50.611,54.056-56.333,56.666-72,72.666-32.444,11.584-52.056,32.584"/><path id="68df2312-afa2-4e15-ad36-8892d1f4a946" data-name="Track Inner" class="deddb516-2d7b-48df-995a-524b52866232" d="M283.346,491.363c-14.174,16-111.223,113.555-119.445,121.778s-14.489,14.647-39.578,11.99-31.755-5.768-45.311-18.657-12.833-13-17.333-17.167-5.5-5.5-11.167-4.833-6.833,3-16.5-5.833-24.5-15.5-24-43.5,2.5-54.167,16.334-64.5,22.833-15.834,35.833-.167,22.072,26.279,29,34c10.917,12.167,19.817,17.25,30.583,6.5,56.584-56.5,80.25-80.667,97.084-97.833s17.833-19.167,28.833-29.5,13.833-11.834,21.5-19.5,13.333-13.334-1.667-27.834-18.5-18.833-26.166-26-13.5-13-8.167-22.333,27.5-35.5,42.667-50.833,43.666-40,63.666-54.834,43.334-29.833,54.167-34,21.122-9.964,36,5.334c11.833,12.166,27.167,21.166,4.833,42.833s-44.05,46.435-53.55,56.435-16.527,21.8-37.95,2.065c-14.833-13.667-23-21.667-30.5-29.333s-13.166-10.667-7.166-37.5,5.166-37.5,32.5-65.167,70.055-66.056,89.833-84.5S458.79,9.363,492.346,10.03s55.98,5.353,70,9.111,21.333,7.777,26.889,15.555S600.4,48.284,629.457,56.252c27.555,7.555,39.555,6.889,64.555,17.555s41,19.334,65.223,39.111,33.444,24.723,46.277,34.723,20,16,26.5,25.333,7.834,13.333,30.167,17.5,32.833,6.833,49.833,10.833,21,5,20.834,21.334.666,23.333-12.5,21.333-56.223-11.056-84.889-17.5-89.111-18-132.445-15.111-83.166,8.778-98.833,10.611-31.167,3-35.5-9.667,2-25.833-3.667-33.833-24-11.167-32.5-11.167-26.548-3.537-22.333,16.834c2,9.666,17.167,25.166,24.833,33.5,7.152,7.773.423,16.719-7.666,24-13.334,12-53,50.833-61.667,57.833s-28.167,9.5-41.333,20.333-5.9,31.176-28.445,52.889C374.846,392.974,297.179,475.752,283.346,491.363Z"/><path id="6814df5f-7eb5-4630-b5e6-a4838048e571" data-name="Crossover Outer" class="a5767e49-8390-4015-a991-5416d51e8f56" d="M312.193,225.335c-7.5-7.667-12.847-10.3-6.847-37.132"/><path id="0a7fd1cf-3d98-4d7f-925c-b1f7d8c416b6" data-name="Crossover Inner" class="0f55df7a-1389-4f55-bef7-67fa2a1bc286" d="M312.505,225.627c-7.5-7.667-13.166-10.667-7.166-37.5"/><path id="3e66d76d-be77-4204-bb6d-4af05bf1af2d" data-name="Crossover Inner" class="deddb516-2d7b-48df-995a-524b52866232" d="M312.623,225.752c-7.5-7.667-13.245-10.915-7.245-37.749"/><use id="a714e537-e77b-40ec-88d0-1f38814d077d" data-name="Start-Finish-Line" width="200" height="103.617" transform="translate(279.601 460.207) rotate(42.805) scale(0.238)" xlink:href="#ec25917d-6891-4d46-a24c-103eab578a74"/></g></g></g></svg>