<svg xmlns="http://www.w3.org/2000/svg" xmlns:xlink="http://www.w3.org/1999/xlink" viewBox="0 0 2020.05 2560.141"><defs><style>.\30 805f89c-e838-436d-b4e6-e17fdfc21744,.b699b812-6201-4797-a0ec-ec9a25c0ac0d{fill:#fff;}.\30 bf9c467-f29f-47de-9fca-80d2254c0592{fill:#00ff24;}.\32 e2d4909-4ffc-482e-b9b9-ff3cc5629bd3{fill:#3a3a3a;stroke-width:21.436px;}.\32 e2d4909-4ffc-482e-b9b9-ff3cc5629bd3,.\37 d37e7b1-bdd8-434e-a924-90d888e907f7,.\38 55ca386-73b4-4304-88a2-d626895b9048,.e819ef2d-2481-49f6-9a07-09ce8b147a00{stroke:#fff;}.\32 e2d4909-4ffc-482e-b9b9-ff3cc5629bd3,.\38 55ca386-73b4-4304-88a2-d626895b9048,.b699b812-6201-4797-a0ec-ec9a25c0ac0d,.cf084bf4-2fd3-42e7-adb4-deeeee77d350,.e819ef2d-2481-49f6-9a07-09ce8b147a00,.ee43914a-3b5d-495f-9103-fd70054354a4{stroke-miterlimit:10;}.\30 b5facda-723e-40ea-9441-8915dfd470b8,.\33 5ac72af-d787-4446-9066-74447b92a89e,.\34 248945e-8759-4ccf-b675-5dff5c5aaa37,.\37 d37e7b1-bdd8-434e-a924-90d888e907f7,.\39 b75a56c-5bbf-4851-927c-9336a2990f4a,.ae7be03d-a425-463d-834c-777de1da93d7,.cd3e87d8-f10a-4516-9a2f-2df88f573e18,.cf084bf4-2fd3-42e7-adb4-deeeee77d350,.e819ef2d-2481-49f6-9a07-09ce8b147a00,.eb26b512-45c7-400e-a14e-a167fb69d84d,.ee43914a-3b5d-495f-9103-fd70054354a4,.fdae5153-01f3-4b5c-8085-86ac763bb72a{fill:none;}.\34 248945e-8759-4ccf-b675-5dff5c5aaa37,.cd3e87d8-f10a-4516-9a2f-2df88f573e18{stroke:#ffb600;}.\30 b5facda-723e-40ea-9441-8915dfd470b8,.\34 248945e-8759-4ccf-b675-5dff5c5aaa37,.\37 d37e7b1-bdd8-434e-a924-90d888e907f7,.\39 b75a56c-5bbf-4851-927c-9336a2990f4a,.cd3e87d8-f10a-4516-9a2f-2df88f573e18,.eb26b512-45c7-400e-a14e-a167fb69d84d,.fdae5153-01f3-4b5c-8085-86ac763bb72a{stroke-linejoin:round;}.\39 b75a56c-5bbf-4851-927c-9336a2990f4a,.cd3e87d8-f10a-4516-9a2f-2df88f573e18,.cf084bf4-2fd3-42e7-adb4-deeeee77d350,.fdae5153-01f3-4b5c-8085-86ac763bb72a{stroke-width:140px;}.\37 d37e7b1-bdd8-434e-a924-90d888e907f7,.e819ef2d-2481-49f6-9a07-09ce8b147a00{stroke-width:77px;}.\30 b5facda-723e-40ea-9441-8915dfd470b8,.\34 248945e-8759-4ccf-b675-5dff5c5aaa37,.eb26b512-45c7-400e-a14e-a167fb69d84d,.ee43914a-3b5d-495f-9103-fd70054354a4{stroke-width:7px;}.\30 b5facda-723e-40ea-9441-8915dfd470b8,.\39 b75a56c-5bbf-4851-927c-9336a2990f4a{stroke:#009e04;}.cf084bf4-2fd3-42e7-adb4-deeeee77d350,.ee43914a-3b5d-495f-9103-fd70054354a4{stroke:#c91c1c;}.eb26b512-45c7-400e-a14e-a167fb69d84d,.fdae5153-01f3-4b5c-8085-86ac763bb72a{stroke:#0080ff;}.b699b812-6201-4797-a0ec-ec9a25c0ac0d{stroke:#000;}.\38 55ca386-73b4-4304-88a2-d626895b9048,.b699b812-6201-4797-a0ec-ec9a25c0ac0d{stroke-width:5.767px;}.ae7be03d-a425-463d-834c-777de1da93d7{stroke:#ff4141;stroke-linecap:round;stroke-width:17px;}</style><symbol id="6d87b3bc-ae30-475a-b446-ceb48063bde5" data-name="start line" viewBox="0 0 131.5 34"><rect class="0bf9c467-f29f-47de-9fca-80d2254c0592" x="1.5" y="1.5" width="128.5" height="31"/><path d="M131.5,34H0V0H131.5ZM3,31H128.5V3H3Z"/></symbol><symbol id="31028261-66cf-49f7-a611-eaa782459026" data-name="finish line" viewBox="0 0 131.5 35.125"><rect class="0805f89c-e838-436d-b4e6-e17fdfc21744" x="1.5" y="1.5" width="32.125" height="32.125"/><path d="M35.125,35.125H0V0H35.125ZM3,32.125H32.125V3H3Z"/><rect class="0805f89c-e838-436d-b4e6-e17fdfc21744" x="33.625" y="1.5" width="32.125" height="32.125"/><path d="M67.25,35.125H32.125V0H67.25Zm-32.125-3H64.25V3H35.125Z"/><rect class="0805f89c-e838-436d-b4e6-e17fdfc21744" x="65.75" y="1.5" width="32.125" height="32.125"/><path d="M99.375,35.125H64.25V0H99.375Zm-32.125-3H96.375V3H67.25Z"/><rect class="0805f89c-e838-436d-b4e6-e17fdfc21744" x="97.875" y="1.5" width="32.125" height="32.125"/><path d="M131.5,35.125H96.375V0H131.5Zm-32.125-3H128.5V3H99.375Z"/></symbol></defs><title>Legend</title><g id="f382cd7f-3e62-4b1a-9c64-e0d727dc1f4c" data-name="Layer 2"><g id="48cf6852-57e8-4cb1-b2b5-a6b2bf998533" data-name="Legend"><path id="dcb7c4c6-0c39-48c1-b47d-7bf9040ae809" data-name="Elipse_l" class="2e2d4909-4ffc-482e-b9b9-ff3cc5629bd3" d="M452.221,1465.7a85.891,85.891,0,1,1-85.891-85.891c62.6,0,84.068-9.565,89.892-3.61S452.221,1403.624,452.221,1465.7Z"/><g id="365cc0f9-cd88-4f06-8793-ca6c96a1a02e" data-name="Number_l"><path class="0805f89c-e838-436d-b4e6-e17fdfc21744" d="M363.837,1433.727h-.257l-14.534,7.846-2.186-8.618,18.263-9.775h9.647v83.6H363.837Z"/></g><g id="7df299f5-7a67-4d13-bbda-7d5186b826e4" data-name="Turn Number_l"><path d="M757.855,1553.8V1449.131H720.472v-21.312H820.589v21.312h-37.3V1553.8Z"/><path d="M883.839,1553.8v-13.664a35.173,35.173,0,0,1-13.105,11.516,36.755,36.755,0,0,1-17.145,4.211,33.524,33.524,0,0,1-16.5-4.039,23.844,23.844,0,0,1-10.57-11.344q-3.267-7.3-3.266-20.195v-57.75H847.4v41.937q0,19.251,1.332,23.59a12.857,12.857,0,0,0,4.855,6.875,14.923,14.923,0,0,0,8.938,2.535,19,19,0,0,0,11.086-3.395,17.266,17.266,0,0,0,6.7-8.421q1.8-5.028,1.8-24.621v-38.5h24.149V1553.8Z"/><path d="M954.394,1553.8H930.245v-91.265h22.43v12.976q5.757-9.195,10.356-12.117a19.051,19.051,0,0,1,10.441-2.922,30.653,30.653,0,0,1,15.9,4.555l-7.476,21.054q-6.1-3.951-11.344-3.953a13.408,13.408,0,0,0-8.594,2.793q-3.524,2.794-5.543,10.1t-2.019,30.594Z"/><path d="M1082.784,1553.8h-24.148v-46.578q0-14.781-1.547-19.121a13.411,13.411,0,0,0-5.027-6.746,14.372,14.372,0,0,0-8.379-2.406,19.365,19.365,0,0,0-11.258,3.437,17.317,17.317,0,0,0-6.832,9.109q-1.848,5.673-1.848,20.969V1553.8H999.6v-91.265h22.43v13.406q11.945-15.469,30.078-15.469a36.239,36.239,0,0,1,14.609,2.879,24.5,24.5,0,0,1,10.012,7.348,26.614,26.614,0,0,1,4.726,10.14q1.332,5.671,1.332,16.242Z"/><path d="M1156.605,1553.8V1427.819h24.75l51.562,84.133v-84.133h23.633V1553.8h-25.523l-50.789-82.156V1553.8Z"/><path d="M1343.347,1553.8v-13.664a35.168,35.168,0,0,1-13.106,11.516,36.751,36.751,0,0,1-17.144,4.211,33.524,33.524,0,0,1-16.5-4.039,23.839,23.839,0,0,1-10.57-11.344q-3.267-7.3-3.266-20.195v-57.75h24.148v41.937q0,19.251,1.332,23.59a12.859,12.859,0,0,0,4.856,6.875,14.922,14.922,0,0,0,8.937,2.535,18.993,18.993,0,0,0,11.086-3.395,17.261,17.261,0,0,0,6.7-8.421q1.806-5.028,1.8-24.621v-38.5h24.149V1553.8Z"/><path d="M1388.98,1462.538h22.258V1475q11.943-14.522,28.445-14.523a30.639,30.639,0,0,1,15.211,3.609,27.746,27.746,0,0,1,10.57,10.914,42.177,42.177,0,0,1,12.977-10.914,31.834,31.834,0,0,1,14.867-3.609q10.054,0,17.015,4.082a25.014,25.014,0,0,1,10.4,11.988q2.492,5.845,2.492,18.907V1553.8h-24.148v-52.164q0-13.578-2.493-17.531-3.351-5.157-10.312-5.156a16.456,16.456,0,0,0-9.539,3.093,17.155,17.155,0,0,0-6.445,9.067q-1.978,5.973-1.977,18.863V1553.8h-24.148v-50.015q0-13.32-1.289-17.188a10.975,10.975,0,0,0-4-5.758,12.631,12.631,0,0,0-7.347-1.89,17.605,17.605,0,0,0-10.055,3.007,16.5,16.5,0,0,0-6.4,8.68q-1.934,5.672-1.934,18.82V1553.8H1388.98Z"/><path d="M1546.245,1553.8V1427.819h24.149v45.375q11.17-12.718,26.469-12.719,16.671,0,27.585,12.074t10.915,34.676q0,23.376-11.129,36.008t-27.028,12.633a33.4,33.4,0,0,1-15.425-3.911,36.865,36.865,0,0,1-13.106-11.558V1553.8Zm23.977-47.609q0,14.179,4.469,20.969,6.272,9.625,16.672,9.625,7.992,0,13.621-6.833t5.629-21.527q0-15.641-5.672-22.558a17.95,17.95,0,0,0-14.524-6.918,18.2,18.2,0,0,0-14.437,6.746Q1570.222,1492.445,1570.222,1506.194Z"/><path d="M1707.636,1524.756l24.062,4.039q-4.639,13.236-14.652,20.153T1692,1555.866q-23.8,0-35.234-15.555-9.024-12.46-9.023-31.453,0-22.687,11.859-35.535t29.992-12.848q20.367,0,32.141,13.449t11.258,41.207h-60.5q.257,10.743,5.843,16.715a18.275,18.275,0,0,0,13.922,5.973,14.783,14.783,0,0,0,9.539-3.094Q1705.659,1531.632,1707.636,1524.756Zm1.375-24.406q-.258-10.483-5.414-15.941a17.427,17.427,0,0,0-25.609.3q-5.157,5.758-5.071,15.641Z"/><path d="M1775.784,1553.8h-24.148v-91.265h22.43v12.976q5.757-9.195,10.355-12.117a19.057,19.057,0,0,1,10.442-2.922,30.656,30.656,0,0,1,15.9,4.555l-7.477,21.054q-6.1-3.951-11.343-3.953a13.408,13.408,0,0,0-8.594,2.793q-3.525,2.794-5.543,10.1t-2.02,30.594Z"/></g><g id="e4898f0c-673a-4b64-9203-54472ea5df19" data-name="Track_l"><path d="M757.855,126.325V21.653H720.472V.34H820.589V21.653h-37.3V126.325Z"/><path d="M850.238,126.325H826.089V35.059h22.43V48.036q5.757-9.2,10.355-12.118A19.057,19.057,0,0,1,869.316,33a30.653,30.653,0,0,1,15.9,4.555l-7.476,21.055q-6.1-3.953-11.344-3.953a13.4,13.4,0,0,0-8.594,2.793q-3.525,2.793-5.543,10.1t-2.019,30.594Z"/><path d="M913.659,62.9,891.745,58.95q3.694-13.234,12.719-19.594T931.277,33q16.155,0,24.062,3.825t11.129,9.711q3.222,5.886,3.223,21.613l-.258,28.187q0,12.033,1.16,17.747a51.766,51.766,0,0,0,4.34,12.246H951.042q-.947-2.406-2.32-7.133-.6-2.148-.859-2.836a43.533,43.533,0,0,1-13.235,9.023,37.909,37.909,0,0,1-15.039,3.008q-14.094,0-22.215-7.648a25.423,25.423,0,0,1-8.121-19.336,25.958,25.958,0,0,1,3.695-13.793A24.141,24.141,0,0,1,903.3,78.329q6.659-3.223,19.207-5.629,16.929-3.18,23.461-5.93V64.364q0-6.962-3.438-9.926t-12.976-2.965q-6.446,0-10.055,2.535T913.659,62.9ZM945.972,82.5a150.608,150.608,0,0,1-14.695,3.7Q921.221,88.34,918.128,90.4q-4.727,3.351-4.726,8.508a11.839,11.839,0,0,0,3.781,8.765,13.2,13.2,0,0,0,9.625,3.695,20.912,20.912,0,0,0,12.461-4.3,15.126,15.126,0,0,0,5.758-7.993q.943-3.093.945-11.773Z"/><path d="M1073.073,62.043l-23.8,4.3q-1.2-7.133-5.457-10.742t-11.043-3.609q-9.024,0-14.395,6.23T1013,79.059Q1013,95.3,1018.46,102t14.653,6.7a16.268,16.268,0,0,0,11.257-3.91q4.383-3.909,6.188-13.449l23.719,4.039q-3.7,16.329-14.18,24.664t-28.1,8.336q-20.023,0-31.925-12.633t-11.9-34.976q0-22.6,11.946-35.192T1032.425,33q16.671,0,26.512,7.176T1073.073,62.043Z"/><path d="M1090.519,126.325V.34h24.148V67.2l28.274-32.141h29.734L1141.48,68.4l33.429,57.922H1148.87l-22.945-40.993-11.258,11.774v29.219Z"/></g><g id="5cac104e-2cc8-4641-bec9-c3d42a1305a1" data-name="Alternate Route_l"><path d="M843.115,364.235H815.443l-11-28.617h-50.36l-10.4,28.617H716.7L765.771,238.25h26.9Zm-46.836-49.844-17.36-46.75L761.9,314.391Z"/><path d="M856.435,364.235V238.25h24.148V364.235Z"/><path d="M947.185,272.969v19.25h-16.5V329q0,11.173.472,13.02a5.306,5.306,0,0,0,2.149,3.051,6.813,6.813,0,0,0,4.082,1.2q3.351,0,9.711-2.32l2.062,18.734a48.009,48.009,0,0,1-19.078,3.609,30.254,30.254,0,0,1-11.773-2.191,17.187,17.187,0,0,1-7.692-5.672,22.393,22.393,0,0,1-3.394-9.41q-.774-4.211-.774-17.016V292.219H895.365v-19.25H906.45V254.836l24.235-14.093v32.226Z"/><path d="M1016.794,335.188l24.063,4.039q-4.641,13.235-14.653,20.152t-25.05,6.918q-23.806,0-35.235-15.554-9.022-12.461-9.023-31.454,0-22.687,11.859-35.535t29.992-12.847q20.367,0,32.141,13.449t11.258,41.207h-60.5q.258,10.743,5.844,16.715a18.274,18.274,0,0,0,13.921,5.972,14.787,14.787,0,0,0,9.539-3.093Q1014.819,342.063,1016.794,335.188Zm1.375-24.406q-.258-10.485-5.414-15.942a17.426,17.426,0,0,0-25.609.3q-5.157,5.758-5.071,15.641Z"/><path d="M1084.943,364.235h-24.149V272.969h22.43v12.977q5.757-9.2,10.355-12.117a19.048,19.048,0,0,1,10.442-2.922,30.652,30.652,0,0,1,15.9,4.554l-7.476,21.055q-6.1-3.953-11.344-3.953a13.408,13.408,0,0,0-8.594,2.793q-3.524,2.793-5.543,10.1t-2.019,30.593Z"/><path d="M1213.333,364.235h-24.148V317.657q0-14.781-1.547-19.121a13.418,13.418,0,0,0-5.027-6.747,14.38,14.38,0,0,0-8.379-2.406,19.366,19.366,0,0,0-11.258,3.438,17.317,17.317,0,0,0-6.832,9.109q-1.85,5.671-1.848,20.969v41.336h-24.148V272.969h22.429v13.406q11.944-15.468,30.079-15.468a36.239,36.239,0,0,1,14.609,2.879,24.5,24.5,0,0,1,10.012,7.347A26.64,26.64,0,0,1,1212,291.274q1.332,5.672,1.332,16.242Z"/><path d="M1255.872,300.813l-21.914-3.953q3.695-13.233,12.719-19.594t26.813-6.359q16.155,0,24.062,3.824t11.129,9.711q3.222,5.888,3.223,21.613l-.258,28.188q0,12.031,1.16,17.746a51.766,51.766,0,0,0,4.34,12.246h-23.891q-.947-2.406-2.32-7.133-.6-2.148-.86-2.836a43.512,43.512,0,0,1-13.234,9.023A37.909,37.909,0,0,1,1261.8,366.3q-14.094,0-22.215-7.648a25.423,25.423,0,0,1-8.121-19.336,25.96,25.96,0,0,1,3.7-13.793,24.135,24.135,0,0,1,10.356-9.281q6.658-3.224,19.207-5.629,16.929-3.179,23.461-5.93v-2.406q0-6.962-3.438-9.926t-12.976-2.965q-6.446,0-10.055,2.535T1255.872,300.813Zm32.313,19.594a150.97,150.97,0,0,1-14.695,3.695q-10.056,2.15-13.149,4.211-4.726,3.351-4.726,8.508a11.837,11.837,0,0,0,3.781,8.765,13.2,13.2,0,0,0,9.625,3.7,20.913,20.913,0,0,0,12.461-4.3,15.127,15.127,0,0,0,5.758-7.992q.943-3.094.945-11.774Z"/><path d="M1377.56,272.969v19.25h-16.5V329q0,11.173.472,13.02a5.306,5.306,0,0,0,2.149,3.051,6.813,6.813,0,0,0,4.082,1.2q3.351,0,9.711-2.32l2.062,18.734a48.009,48.009,0,0,1-19.078,3.609,30.254,30.254,0,0,1-11.773-2.191,17.187,17.187,0,0,1-7.692-5.672,22.393,22.393,0,0,1-3.394-9.41q-.774-4.211-.774-17.016V292.219H1325.74v-19.25h11.085V254.836l24.235-14.093v32.226Z"/><path d="M1447.169,335.188l24.063,4.039q-4.641,13.235-14.653,20.152t-25.05,6.918q-23.807,0-35.235-15.554-9.023-12.461-9.023-31.454,0-22.687,11.859-35.535t29.992-12.847q20.367,0,32.141,13.449t11.258,41.207h-60.5q.258,10.743,5.844,16.715a18.274,18.274,0,0,0,13.921,5.972,14.787,14.787,0,0,0,9.539-3.093Q1445.193,342.063,1447.169,335.188Zm1.375-24.406q-.258-10.485-5.414-15.942a17.426,17.426,0,0,0-25.609.3q-5.157,5.758-5.071,15.641Z"/><path d="M1541.357,364.235V238.25H1594.9q20.194,0,29.347,3.4a28.959,28.959,0,0,1,14.653,12.074,36.3,36.3,0,0,1,5.5,19.852q0,14.179-8.336,23.418t-24.922,11.644a59.386,59.386,0,0,1,13.621,10.571q5.37,5.757,14.481,20.453l15.382,24.578H1624.2l-18.39-27.414q-9.8-14.7-13.406-18.52a19.527,19.527,0,0,0-7.649-5.242q-4.04-1.418-12.805-1.418h-5.156v52.594Zm25.437-72.7h18.821q18.3,0,22.859-1.547a13.7,13.7,0,0,0,7.133-5.328,16.41,16.41,0,0,0,2.578-9.453q0-6.36-3.395-10.27a15.578,15.578,0,0,0-9.582-4.941q-3.093-.43-18.562-.43h-19.852Z"/><path d="M1662.615,317.313a49.372,49.372,0,0,1,5.929-23.289,40.7,40.7,0,0,1,16.8-17.188,49.859,49.859,0,0,1,24.277-5.929q20.71,0,33.946,13.449t13.234,33.988q0,20.712-13.363,34.332T1709.794,366.3a52.981,52.981,0,0,1-23.933-5.672A38.9,38.9,0,0,1,1668.544,344Q1662.614,333.04,1662.615,317.313Zm24.75,1.289q0,13.579,6.445,20.8a21.069,21.069,0,0,0,31.754,0q6.4-7.219,6.4-20.969,0-13.406-6.4-20.625a21.069,21.069,0,0,0-31.754,0Q1687.365,305.025,1687.365,318.6Z"/><path d="M1835.779,364.235V350.571a35.172,35.172,0,0,1-13.106,11.515,36.742,36.742,0,0,1-17.144,4.211,33.514,33.514,0,0,1-16.5-4.039,23.832,23.832,0,0,1-10.571-11.344q-3.266-7.3-3.265-20.195v-57.75h24.148v41.938q0,19.251,1.332,23.589a12.852,12.852,0,0,0,4.856,6.875,14.914,14.914,0,0,0,8.937,2.536,19,19,0,0,0,11.086-3.395,17.263,17.263,0,0,0,6.7-8.422q1.8-5.026,1.8-24.621v-38.5h24.148v91.266Z"/><path d="M1925.068,272.969v19.25h-16.5V329q0,11.173.472,13.02a5.306,5.306,0,0,0,2.149,3.051,6.813,6.813,0,0,0,4.082,1.2q3.351,0,9.711-2.32l2.062,18.734a48.009,48.009,0,0,1-19.078,3.609,30.254,30.254,0,0,1-11.773-2.191,17.187,17.187,0,0,1-7.692-5.672,22.38,22.38,0,0,1-3.394-9.41q-.774-4.211-.774-17.016V292.219h-11.086v-19.25h11.086V254.836l24.235-14.093v32.226Z"/><path d="M1994.677,335.188l24.063,4.039q-4.641,13.235-14.653,20.152t-25.051,6.918q-23.805,0-35.234-15.554-9.024-12.461-9.023-31.454,0-22.687,11.859-35.535t29.992-12.847q20.367,0,32.141,13.449t11.258,41.207h-60.5q.256,10.743,5.843,16.715a18.277,18.277,0,0,0,13.922,5.972,14.788,14.788,0,0,0,9.539-3.093Q1992.7,342.063,1994.677,335.188Zm1.375-24.406q-.258-10.485-5.414-15.942a17.426,17.426,0,0,0-25.609.3q-5.157,5.758-5.071,15.641Z"/></g><path d="M774.966,476.161h25.352v79.75q0,15.641-2.75,24.062a34.07,34.07,0,0,1-13.407,17.66q-9.711,6.661-25.609,6.66-18.649,0-28.7-10.441t-10.141-30.637l23.977-2.75q.429,10.828,3.18,15.3,4.125,6.789,12.546,6.789,8.508,0,12.032-4.855t3.523-20.153Z"/><path d="M821.63,555.223a49.376,49.376,0,0,1,5.93-23.289,40.7,40.7,0,0,1,16.8-17.188,49.857,49.857,0,0,1,24.277-5.929q20.711,0,33.945,13.449t13.235,33.988q0,20.712-13.364,34.332T868.81,604.207a53,53,0,0,1-23.934-5.671,38.91,38.91,0,0,1-17.316-16.629Q821.631,570.95,821.63,555.223Zm24.75,1.289q0,13.58,6.445,20.8a21.069,21.069,0,0,0,31.754,0q6.4-7.219,6.4-20.969,0-13.405-6.4-20.625a21.069,21.069,0,0,0-31.754,0Q846.381,542.935,846.38,556.512Z"/><path d="M933.865,602.145V476.161h24.148V543.02l28.273-32.141h29.735l-31.2,33.344,33.43,57.922H992.216l-22.945-40.992-11.258,11.773v29.219Z"/><path d="M1085.458,573.1l24.063,4.039q-4.641,13.235-14.653,20.152t-25.05,6.918q-23.8,0-35.235-15.554-9.023-12.461-9.023-31.453,0-22.687,11.859-35.536t29.992-12.847q20.369,0,32.141,13.449t11.258,41.207h-60.5q.258,10.743,5.844,16.715a18.275,18.275,0,0,0,13.921,5.973,14.792,14.792,0,0,0,9.54-3.094Q1083.482,579.973,1085.458,573.1Zm1.375-24.406q-.258-10.484-5.414-15.942a17.426,17.426,0,0,0-25.609.3q-5.157,5.758-5.07,15.641Z"/><path d="M1153.607,602.145h-24.149V510.879h22.43v12.977q5.757-9.195,10.355-12.117a19.048,19.048,0,0,1,10.442-2.922,30.652,30.652,0,0,1,15.9,4.554l-7.476,21.055q-6.1-3.952-11.344-3.953a13.408,13.408,0,0,0-8.594,2.793q-3.524,2.793-5.543,10.1t-2.019,30.593Z"/><path d="M1248.138,602.145V476.161h53.539q20.195,0,29.348,3.394a28.96,28.96,0,0,1,14.652,12.074,36.3,36.3,0,0,1,5.5,19.852q0,14.179-8.336,23.418t-24.922,11.644a59.386,59.386,0,0,1,13.621,10.571q5.37,5.758,14.481,20.453l15.383,24.578h-30.422l-18.391-27.414q-9.8-14.7-13.406-18.52a19.53,19.53,0,0,0-7.649-5.242q-4.039-1.418-12.8-1.418h-5.157v52.594Zm25.437-72.7H1292.4q18.3,0,22.859-1.547a13.7,13.7,0,0,0,7.133-5.328,16.4,16.4,0,0,0,2.578-9.453q0-6.36-3.394-10.27a15.581,15.581,0,0,0-9.582-4.941q-3.095-.429-18.563-.43h-19.852Z"/><path d="M1369.4,555.223a49.375,49.375,0,0,1,5.929-23.289,40.71,40.71,0,0,1,16.8-17.188,49.86,49.86,0,0,1,24.278-5.929q20.709,0,33.945,13.449t13.234,33.988q0,20.712-13.363,34.332t-33.645,13.621a53,53,0,0,1-23.933-5.671,38.917,38.917,0,0,1-17.317-16.629Q1369.4,570.95,1369.4,555.223Zm24.75,1.289q0,13.58,6.445,20.8a21.069,21.069,0,0,0,31.754,0q6.4-7.219,6.4-20.969,0-13.405-6.4-20.625a21.069,21.069,0,0,0-31.754,0Q1394.146,542.935,1394.146,556.512Z"/><path d="M1542.56,602.145V588.481A35.165,35.165,0,0,1,1529.454,600a36.742,36.742,0,0,1-17.144,4.211,33.514,33.514,0,0,1-16.5-4.039,23.832,23.832,0,0,1-10.57-11.343q-3.267-7.305-3.266-20.2v-57.75h24.148v41.938q0,19.251,1.332,23.59a12.859,12.859,0,0,0,4.856,6.875,14.92,14.92,0,0,0,8.937,2.535,18.993,18.993,0,0,0,11.086-3.395,17.258,17.258,0,0,0,6.7-8.422q1.806-5.026,1.8-24.621v-38.5h24.149v91.266Z"/><path d="M1631.849,510.879v19.25h-16.5v36.782q0,11.172.473,13.019a5.3,5.3,0,0,0,2.148,3.051,6.808,6.808,0,0,0,4.082,1.2q3.351,0,9.711-2.32l2.062,18.734a48.009,48.009,0,0,1-19.078,3.609,30.254,30.254,0,0,1-11.773-2.191,17.187,17.187,0,0,1-7.692-5.672,22.393,22.393,0,0,1-3.394-9.41q-.774-4.211-.773-17.016V530.129h-11.086v-19.25h11.086V492.746l24.234-14.093v32.226Z"/><path d="M1701.458,573.1l24.063,4.039q-4.641,13.235-14.653,20.152t-25.05,6.918q-23.8,0-35.235-15.554-9.023-12.461-9.023-31.453,0-22.687,11.859-35.536t29.992-12.847q20.369,0,32.141,13.449t11.258,41.207h-60.5q.258,10.743,5.844,16.715a18.275,18.275,0,0,0,13.921,5.973,14.792,14.792,0,0,0,9.54-3.094Q1699.482,579.973,1701.458,573.1Zm1.375-24.406q-.258-10.484-5.414-15.942a17.426,17.426,0,0,0-25.609.3q-5.157,5.758-5.07,15.641Z"/><g id="6611de66-8588-420c-aaf6-4f8e57b2b21e" data-name="Pit Lane_l"><path d="M729.5,840.055V714.071h40.821q23.2,0,30.25,1.89A33.039,33.039,0,0,1,818.7,728.293q7.3,9.5,7.305,24.536,0,11.6-4.211,19.507a34.538,34.538,0,0,1-10.7,12.418,36.875,36.875,0,0,1-13.191,5.973q-9.111,1.8-26.383,1.805H754.933v47.523Zm25.438-104.672v35.75h13.922q15.037,0,20.109-1.976a16.7,16.7,0,0,0,7.949-6.188,16.933,16.933,0,0,0,2.879-9.8,16.271,16.271,0,0,0-4.039-11.343,17.592,17.592,0,0,0-10.226-5.586q-4.556-.86-18.305-.86Z"/><path d="M846.714,736.414V714.071h24.149v22.343Zm0,103.641V748.789h24.149v91.266Z"/><path d="M937.464,748.789v19.25h-16.5v36.782q0,11.172.473,13.019a5.3,5.3,0,0,0,2.148,3.051,6.808,6.808,0,0,0,4.082,1.2q3.353,0,9.711-2.32l2.063,18.734a48.016,48.016,0,0,1-19.078,3.61,30.256,30.256,0,0,1-11.774-2.192,17.176,17.176,0,0,1-7.691-5.672,22.38,22.38,0,0,1-3.395-9.41q-.772-4.209-.773-17.015v-39.79H885.644v-19.25H896.73V730.657l24.234-14.094v32.226Z"/><path d="M1003.98,840.055V715.1h25.437V818.829h63.25v21.226Z"/><path d="M1128.675,776.633l-21.914-3.953q3.695-13.233,12.719-19.594t26.812-6.359q16.157,0,24.063,3.824t11.129,9.711q3.222,5.888,3.222,21.613l-.258,28.188q0,12.031,1.161,17.746a51.729,51.729,0,0,0,4.339,12.246h-23.89q-.947-2.4-2.32-7.133-.6-2.147-.86-2.836a43.533,43.533,0,0,1-13.234,9.024,37.909,37.909,0,0,1-15.039,3.008q-14.1,0-22.215-7.649a25.421,25.421,0,0,1-8.121-19.336,25.951,25.951,0,0,1,3.695-13.793,24.135,24.135,0,0,1,10.356-9.281q6.659-3.222,19.207-5.629,16.929-3.178,23.461-5.93v-2.406q0-6.96-3.438-9.926t-12.977-2.964q-6.444,0-10.054,2.535T1128.675,776.633Zm32.313,19.594a150.711,150.711,0,0,1-14.7,3.7q-10.054,2.149-13.148,4.211-4.728,3.352-4.727,8.508a11.843,11.843,0,0,0,3.781,8.766,13.2,13.2,0,0,0,9.625,3.695,20.911,20.911,0,0,0,12.461-4.3,15.127,15.127,0,0,0,5.758-7.992q.945-3.095.946-11.774Z"/><path d="M1291.527,840.055h-24.149V793.477q0-14.781-1.547-19.121a13.411,13.411,0,0,0-5.027-6.746,14.368,14.368,0,0,0-8.379-2.406,19.367,19.367,0,0,0-11.258,3.437,17.322,17.322,0,0,0-6.832,9.109q-1.848,5.673-1.847,20.969v41.336h-24.149V748.789h22.43V762.2q11.944-15.47,30.078-15.469a36.239,36.239,0,0,1,14.609,2.879,24.5,24.5,0,0,1,10.012,7.348,26.631,26.631,0,0,1,4.727,10.14q1.331,5.671,1.332,16.242Z"/><path d="M1368.87,811.008l24.063,4.039q-4.641,13.236-14.652,20.153t-25.051,6.918q-23.805,0-35.235-15.555-9.022-12.461-9.023-31.453,0-22.687,11.859-35.535t29.992-12.848q20.368,0,32.141,13.449t11.258,41.207h-60.5q.258,10.743,5.844,16.715a18.275,18.275,0,0,0,13.922,5.973,14.791,14.791,0,0,0,9.539-3.094Q1366.894,817.882,1368.87,811.008Zm1.375-24.406q-.258-10.483-5.414-15.941a17.427,17.427,0,0,0-25.609.3q-5.157,5.758-5.07,15.641Z"/></g><g id="14dcc0d0-e58a-4d83-b3a9-7ed696931412" data-name="Start Line_l"><path d="M723.06,1036.981l24.75-2.406q2.234,12.46,9.066,18.3t18.434,5.844q12.288,0,18.519-5.2t6.231-12.16a11.474,11.474,0,0,0-2.621-7.606q-2.622-3.137-9.153-5.457-4.468-1.546-20.367-5.5-20.454-5.07-28.7-12.461-11.6-10.4-11.6-25.351a32.38,32.38,0,0,1,5.457-18A34.157,34.157,0,0,1,748.8,954.223q10.269-4.383,24.793-4.383,23.72,0,35.707,10.4T821.888,988l-25.438,1.118q-1.632-9.711-7-13.965T773.333,970.9q-11.085,0-17.359,4.555a9.176,9.176,0,0,0-4.039,7.82,9.674,9.674,0,0,0,3.781,7.648q4.812,4.041,23.375,8.422t27.457,9.067a35.391,35.391,0,0,1,13.922,12.8q5.028,8.121,5.027,20.067a37.113,37.113,0,0,1-6.015,20.281,36.051,36.051,0,0,1-17.016,14.051q-11,4.6-27.414,4.6-23.892,0-36.7-11.043T723.06,1036.981Z"/><path d="M888.575,986.707v19.25h-16.5v36.782q0,11.172.473,13.019a5.3,5.3,0,0,0,2.149,3.051,6.806,6.806,0,0,0,4.082,1.2q3.351,0,9.711-2.32l2.062,18.734a48.012,48.012,0,0,1-19.078,3.61,30.26,30.26,0,0,1-11.774-2.192,17.176,17.176,0,0,1-7.691-5.672,22.366,22.366,0,0,1-3.394-9.41q-.774-4.21-.774-17.016v-39.789H836.755v-19.25h11.086V968.575l24.234-14.094v32.226Z"/><path d="M923.38,1014.551l-21.914-3.953q3.694-13.233,12.719-19.594T941,984.645q16.157,0,24.063,3.824t11.129,9.711q3.222,5.888,3.222,21.613l-.257,28.188q0,12.031,1.16,17.746a51.69,51.69,0,0,0,4.34,12.246H960.763q-.947-2.4-2.32-7.133-.6-2.146-.86-2.836a43.533,43.533,0,0,1-13.234,9.024,37.909,37.909,0,0,1-15.039,3.008q-14.1,0-22.215-7.649a25.423,25.423,0,0,1-8.121-19.336,25.951,25.951,0,0,1,3.695-13.793,24.135,24.135,0,0,1,10.356-9.281q6.659-3.222,19.207-5.629,16.929-3.178,23.461-5.93v-2.406q0-6.961-3.438-9.926t-12.976-2.965q-6.446,0-10.055,2.536T923.38,1014.551Zm32.313,19.594a150.711,150.711,0,0,1-14.7,3.695q-10.054,2.149-13.148,4.211-4.727,3.353-4.727,8.508a11.84,11.84,0,0,0,3.782,8.766,13.2,13.2,0,0,0,9.625,3.695,20.915,20.915,0,0,0,12.461-4.3,15.13,15.13,0,0,0,5.757-7.992q.945-3.095.946-11.774Z"/><path d="M1026.333,1077.973h-24.148V986.707h22.43v12.977q5.755-9.195,10.355-12.117a19.053,19.053,0,0,1,10.441-2.922,30.65,30.65,0,0,1,15.9,4.555l-7.477,21.054q-6.1-3.951-11.343-3.953a13.407,13.407,0,0,0-8.594,2.793q-3.525,2.793-5.543,10.1t-2.02,30.594Z"/><path d="M1113.56,986.707v19.25h-16.5v36.782q0,11.172.472,13.019a5.3,5.3,0,0,0,2.149,3.051,6.806,6.806,0,0,0,4.082,1.2q3.351,0,9.711-2.32l2.062,18.734a48.009,48.009,0,0,1-19.078,3.61,30.255,30.255,0,0,1-11.773-2.192,17.18,17.18,0,0,1-7.692-5.672,22.393,22.393,0,0,1-3.394-9.41q-.774-4.21-.774-17.016v-39.789H1061.74v-19.25h11.085V968.575l24.235-14.094v32.226Z"/><path d="M1180.075,1077.973V953.02h25.438v103.726h63.25v21.227Z"/><path d="M1286.724,974.332V951.989h24.148v22.343Zm0,103.641V986.707h24.148v91.266Z"/><path d="M1418.638,1077.973H1394.49V1031.4q0-14.781-1.547-19.121a13.413,13.413,0,0,0-5.028-6.746,14.369,14.369,0,0,0-8.379-2.407,19.365,19.365,0,0,0-11.257,3.438,17.311,17.311,0,0,0-6.832,9.109q-1.85,5.673-1.848,20.969v41.336H1335.45V986.707h22.43v13.407q11.945-15.469,30.078-15.469a36.244,36.244,0,0,1,14.61,2.879,24.5,24.5,0,0,1,10.011,7.347,26.642,26.642,0,0,1,4.727,10.141q1.332,5.672,1.332,16.242Z"/><path d="M1495.982,1048.926l24.062,4.039q-4.641,13.235-14.652,20.153t-25.051,6.918q-23.8,0-35.234-15.555-9.024-12.46-9.024-31.453,0-22.687,11.86-35.535t29.992-12.848q20.367,0,32.14,13.449t11.258,41.207h-60.5q.258,10.743,5.844,16.715a18.277,18.277,0,0,0,13.922,5.973,14.789,14.789,0,0,0,9.539-3.094Q1494.005,1055.8,1495.982,1048.926Zm1.375-24.406q-.258-10.484-5.414-15.941a17.426,17.426,0,0,0-25.61.3q-5.156,5.758-5.07,15.641Z"/></g><g id="8c7ce0be-a2e6-4fc0-a5a0-56c91a224027" data-name="Finish Line_l"><path d="M729.677,1315.893V1189.909h86.367v21.312H755.115v29.82h52.593v21.313H755.115v53.539Z"/><path d="M836.841,1212.252v-22.343H860.99v22.343Zm0,103.641v-91.266H860.99v91.266Z"/><path d="M968.755,1315.893H944.607v-46.578q0-14.781-1.547-19.121a13.407,13.407,0,0,0-5.028-6.746,14.368,14.368,0,0,0-8.378-2.407,19.366,19.366,0,0,0-11.258,3.438,17.317,17.317,0,0,0-6.832,9.109q-1.849,5.673-1.848,20.969v41.336H885.568v-91.266H908v13.407q11.945-15.47,30.078-15.469a36.24,36.24,0,0,1,14.61,2.879,24.506,24.506,0,0,1,10.012,7.347,26.655,26.655,0,0,1,4.726,10.141q1.332,5.671,1.332,16.242Z"/><path d="M993.247,1212.252v-22.343H1017.4v22.343Zm0,103.641v-91.266H1017.4v91.266Z"/><path d="M1033.638,1289.854l24.234-3.695q1.548,7.047,6.274,10.7t13.234,3.652q9.366,0,14.094-3.437a7.675,7.675,0,0,0,3.18-6.446,6.343,6.343,0,0,0-1.719-4.554q-1.8-1.719-8.078-3.18-29.22-6.446-37.039-11.773a23.513,23.513,0,0,1-10.828-20.54q0-11.859,9.367-19.937t29.047-8.078q18.734,0,27.843,6.1t12.547,18.047l-22.773,4.211a14.091,14.091,0,0,0-5.543-8.164q-4.083-2.835-11.645-2.836-9.539,0-13.664,2.664a5.721,5.721,0,0,0-2.75,4.9,5.34,5.34,0,0,0,2.406,4.383q3.265,2.406,22.559,6.789t26.941,10.742q7.562,6.446,7.563,17.961,0,12.548-10.484,21.57t-31.024,9.023q-18.648,0-29.519-7.562A34.837,34.837,0,0,1,1033.638,1289.854Z"/><path d="M1164.091,1189.909v46.32q11.687-13.664,27.93-13.664a35.471,35.471,0,0,1,15.039,3.094,24.57,24.57,0,0,1,10.1,7.906,28.675,28.675,0,0,1,4.641,10.656q1.245,5.845,1.246,18.133v53.539H1198.9v-48.211q0-14.351-1.375-18.219a11.953,11.953,0,0,0-4.856-6.144,15.617,15.617,0,0,0-8.722-2.278,20.019,20.019,0,0,0-10.743,2.922,16.866,16.866,0,0,0-6.918,8.809q-2.19,5.887-2.191,17.4v45.719h-24.148V1189.909Z"/><path d="M1297.294,1315.893V1190.94h25.438v103.726h63.25v21.227Z"/><path d="M1403.943,1212.252v-22.343h24.148v22.343Zm0,103.641v-91.266h24.148v91.266Z"/><path d="M1535.857,1315.893h-24.149v-46.578q0-14.781-1.547-19.121a13.411,13.411,0,0,0-5.027-6.746,14.369,14.369,0,0,0-8.379-2.407,19.37,19.37,0,0,0-11.258,3.438,17.322,17.322,0,0,0-6.832,9.109q-1.848,5.673-1.847,20.969v41.336h-24.149v-91.266h22.43v13.407q11.944-15.47,30.078-15.469a36.239,36.239,0,0,1,14.609,2.879,24.5,24.5,0,0,1,10.012,7.347,26.642,26.642,0,0,1,4.727,10.141q1.331,5.671,1.332,16.242Z"/><path d="M1613.2,1286.846l24.063,4.039q-4.641,13.235-14.652,20.153t-25.051,6.917q-23.8,0-35.235-15.554-9.023-12.46-9.023-31.453,0-22.687,11.859-35.535t29.993-12.848q20.367,0,32.14,13.449t11.258,41.207h-60.5q.258,10.743,5.844,16.715a18.275,18.275,0,0,0,13.922,5.973,14.789,14.789,0,0,0,9.539-3.094Q1611.224,1293.721,1613.2,1286.846Zm1.375-24.406q-.257-10.484-5.414-15.942a17.426,17.426,0,0,0-25.609.3q-5.155,5.758-5.07,15.641Z"/></g><g id="064ba31b-746e-46dc-aea9-44ac6b9fb4cb" data-name="alt_l"><line class="cd3e87d8-f10a-4516-9a2f-2df88f573e18" x1="130.647" y1="307.91" x2="592.44" y2="307.91"/><line class="7d37e7b1-bdd8-434e-a924-90d888e907f7" x1="130.647" y1="307.91" x2="592.44" y2="307.91"/><line class="4248945e-8759-4ccf-b675-5dff5c5aaa37" x1="130.647" y1="307.91" x2="592.44" y2="307.91"/></g><g id="05dd5f96-2b35-4d02-a29c-c1dcaa65da2f" data-name="joke_l"><line class="9b75a56c-5bbf-4851-927c-9336a2990f4a" x1="130.647" y1="545.82" x2="592.44" y2="545.82"/><line class="7d37e7b1-bdd8-434e-a924-90d888e907f7" x1="130.647" y1="545.82" x2="592.44" y2="545.82"/><line class="0b5facda-723e-40ea-9441-8915dfd470b8" x1="130.647" y1="545.82" x2="592.44" y2="545.82"/></g><g id="fe54eaae-ddf9-4ffb-aa49-d9e5de9442a3" data-name="pit_l"><line class="cf084bf4-2fd3-42e7-adb4-deeeee77d350" x1="130.647" y1="783.73" x2="592.44" y2="783.73"/><line class="e819ef2d-2481-49f6-9a07-09ce8b147a00" x1="130.647" y1="783.73" x2="592.44" y2="783.73"/><line class="ee43914a-3b5d-495f-9103-fd70054354a4" x1="130.647" y1="783.73" x2="592.44" y2="783.73"/></g><g id="69643aaa-42ed-450d-ba13-56a0924c6685" data-name="tra_l"><line class="fdae5153-01f3-4b5c-8085-86ac763bb72a" x1="130.647" y1="70" x2="592.44" y2="70"/><line class="7d37e7b1-bdd8-434e-a924-90d888e907f7" x1="130.647" y1="70" x2="592.44" y2="70"/><line class="eb26b512-45c7-400e-a14e-a167fb69d84d" x1="130.647" y1="70" x2="592.44" y2="70"/></g><g id="b14ebd9c-02f1-45ab-b1bc-ac78a68ab3f7" data-name="teleportEnter copy"><path class="b699b812-6201-4797-a0ec-ec9a25c0ac0d" d="M410.03,1873.739s5.283,59.781,12.56,75.544,32.326-37.585,32.326-37.585-25.018,53.527-26.6,70.816,46.491-15.5,46.491-15.5-48.134,32.96-58.146,47.142,47.716,10.71,47.716,10.71-57.87,3.591-73.632,10.867,35.673,34.019,35.673,34.019-51.616-26.711-68.905-28.291,13.588,48.185,13.588,48.185-31.049-49.828-45.232-59.84-12.62,49.409-12.62,49.409-1.679-59.562-8.956-75.324-35.93,37.365-35.93,37.365,28.623-53.308,30.2-70.6-50.095,15.28-50.095,15.28,51.738-32.741,61.751-46.924-51.321-10.928-51.321-10.928,61.473-3.371,77.236-10.648-39.277-34.238-39.277-34.238,55.219,26.93,72.508,28.51-17.192-48.4-17.192-48.4,34.653,50.046,48.836,60.058S410.03,1873.739,410.03,1873.739Z"/><path d="M359.446,1940.42h-.305l-17.241,9.307-2.594-10.223,21.666-11.594h11.442v99.171H359.446Z"/></g><g id="8358b086-b6a6-438f-b5e2-0d7b278f6a48" data-name="teleportExit copy"><path class="855ca386-73b4-4304-88a2-d626895b9048" d="M410.03,1622.573s5.283,59.781,12.56,75.544,32.326-37.584,32.326-37.584-25.018,53.527-26.6,70.815,46.491-15.5,46.491-15.5-48.134,32.96-58.146,47.143,47.716,10.709,47.716,10.709-57.87,3.591-73.632,10.868,35.673,34.018,35.673,34.018-51.616-26.711-68.905-28.29,13.588,48.184,13.588,48.184-31.049-49.827-45.232-59.84-12.62,49.409-12.62,49.409-1.679-59.562-8.956-75.324-35.93,37.366-35.93,37.366,28.623-53.309,30.2-70.6-50.095,15.28-50.095,15.28,51.738-32.741,61.751-46.924-51.321-10.928-51.321-10.928,61.473-3.371,77.236-10.648-39.277-34.238-39.277-34.238,55.219,26.93,72.508,28.51-17.192-48.4-17.192-48.4,34.653,50.046,48.836,60.058S410.03,1622.573,410.03,1622.573Z"/><path class="0805f89c-e838-436d-b4e6-e17fdfc21744" d="M361.367,1690.943h-.3l-17.241,9.306-2.594-10.222,21.666-11.6h11.442V1777.6H361.367Z"/><rect class="35ac72af-d787-4446-9066-74447b92a89e" y="1907.284" width="459.816" height="652.856"/><line class="ae7be03d-a425-463d-834c-777de1da93d7" x1="229.906" y1="2233.696" x2="459.816" y2="2233.696"/><polyline class="ae7be03d-a425-463d-834c-777de1da93d7" points="393.963 2311.607 460.067 2233.696 393.753 2158.524"/><path d="M757.865,2296.712V2192.04H720.482v-21.312H820.6v21.312H783.3v104.672Z"/><path d="M876.63,2267.665l24.063,4.04q-4.641,13.234-14.653,20.152t-25.05,6.918q-23.806,0-35.235-15.555-9.022-12.46-9.023-31.453,0-22.687,11.859-35.535t29.992-12.848q20.367,0,32.141,13.449t11.258,41.207h-60.5q.258,10.744,5.843,16.715a18.275,18.275,0,0,0,13.922,5.973,14.781,14.781,0,0,0,9.539-3.094Q874.655,2274.541,876.63,2267.665Zm1.375-24.406q-.258-10.484-5.414-15.941a17.426,17.426,0,0,0-25.609.3q-5.157,5.757-5.071,15.64Z"/><path d="M921.661,2296.712V2170.728H945.81v125.984Z"/><path d="M1023.411,2267.665l24.063,4.04q-4.641,13.234-14.652,20.152t-25.051,6.918q-23.805,0-35.235-15.555-9.022-12.46-9.023-31.453,0-22.687,11.859-35.535t29.993-12.848q20.367,0,32.14,13.449t11.258,41.207h-60.5q.258,10.744,5.844,16.715a18.272,18.272,0,0,0,13.922,5.973,14.783,14.783,0,0,0,9.539-3.094Q1021.435,2274.541,1023.411,2267.665Zm1.375-24.406q-.256-10.484-5.414-15.941a17.426,17.426,0,0,0-25.609.3q-5.157,5.757-5.07,15.64Z"/><path d="M1067.755,2205.447h22.516v13.406a33.7,33.7,0,0,1,11.859-11.172,32.7,32.7,0,0,1,16.586-4.3q15.9,0,26.984,12.461t11.086,34.719q0,22.86-11.171,35.535t-27.071,12.676a30.759,30.759,0,0,1-13.707-3.008q-6.146-3.007-12.933-10.312v45.976h-24.149Zm23.891,44.086q0,15.383,6.1,22.73t14.868,7.348a17.446,17.446,0,0,0,14.007-6.746q5.586-6.745,5.586-22.129,0-14.352-5.758-21.313a17.811,17.811,0,0,0-14.265-6.961,18.526,18.526,0,0,0-14.695,6.832Q1091.645,2236.127,1091.646,2249.533Z"/><path d="M1170.365,2249.79a49.375,49.375,0,0,1,5.929-23.289,40.7,40.7,0,0,1,16.8-17.187,49.86,49.86,0,0,1,24.277-5.93q20.71,0,33.946,13.449t13.234,33.989q0,20.71-13.363,34.332t-33.645,13.621a52.994,52.994,0,0,1-23.933-5.672,38.9,38.9,0,0,1-17.317-16.629Q1170.364,2265.516,1170.365,2249.79Zm24.75,1.29q0,13.578,6.445,20.8a21.069,21.069,0,0,0,31.754,0q6.4-7.218,6.4-20.968,0-13.407-6.4-20.625a21.069,21.069,0,0,0-31.754,0Q1195.115,2237.5,1195.115,2251.08Z"/><path d="M1306.575,2296.712h-24.148v-91.265h22.43v12.976q5.757-9.195,10.355-12.117a19.057,19.057,0,0,1,10.442-2.922,30.656,30.656,0,0,1,15.9,4.555l-7.477,21.055q-6.1-3.953-11.343-3.954a13.408,13.408,0,0,0-8.594,2.793q-3.525,2.794-5.543,10.1t-2.02,30.594Z"/><path d="M1393.8,2205.447v19.25h-16.5v36.781q0,11.172.473,13.019a5.3,5.3,0,0,0,2.148,3.051,6.808,6.808,0,0,0,4.082,1.2q3.352,0,9.711-2.32l2.063,18.734a48,48,0,0,1-19.079,3.61,30.255,30.255,0,0,1-11.773-2.192,17.177,17.177,0,0,1-7.691-5.671,22.384,22.384,0,0,1-3.4-9.411q-.774-4.209-.773-17.015V2224.7h-11.086v-19.25h11.086v-18.133l24.234-14.094v32.227Z"/><path d="M1459.63,2296.712V2170.728h40.82q23.2,0,30.25,1.891a33.033,33.033,0,0,1,18.133,12.332q7.3,9.5,7.3,24.535,0,11.6-4.211,19.508a34.556,34.556,0,0,1-10.7,12.418,36.869,36.869,0,0,1-13.192,5.972q-9.11,1.8-26.382,1.8h-16.586v47.523Zm25.438-104.672v35.75h13.922q15.038,0,20.109-1.976a16.7,16.7,0,0,0,7.949-6.188,16.932,16.932,0,0,0,2.879-9.8,16.277,16.277,0,0,0-4.039-11.344,17.594,17.594,0,0,0-10.227-5.586q-4.555-.858-18.3-.86Z"/><path d="M1594.9,2233.29l-21.914-3.953q3.695-13.233,12.718-19.593t26.813-6.36q16.155,0,24.062,3.824t11.129,9.711q3.224,5.888,3.223,21.614l-.258,28.187q0,12.033,1.16,17.746a51.779,51.779,0,0,0,4.34,12.246h-23.89q-.947-2.4-2.321-7.132-.6-2.148-.859-2.836a43.547,43.547,0,0,1-13.234,9.023,37.914,37.914,0,0,1-15.04,3.008q-14.094,0-22.214-7.649a25.421,25.421,0,0,1-8.121-19.336,25.954,25.954,0,0,1,3.695-13.793,24.145,24.145,0,0,1,10.355-9.281q6.66-3.222,19.207-5.629,16.929-3.179,23.461-5.929v-2.407q0-6.96-3.437-9.925t-12.977-2.965q-6.446,0-10.054,2.535T1594.9,2233.29Zm32.312,19.594a150.827,150.827,0,0,1-14.7,3.7q-10.054,2.148-13.148,4.21-4.728,3.352-4.727,8.508a11.843,11.843,0,0,0,3.781,8.766,13.2,13.2,0,0,0,9.625,3.7,20.9,20.9,0,0,0,12.461-4.3,15.123,15.123,0,0,0,5.758-7.992q.945-3.093.945-11.773Z"/><path d="M1716.583,2205.447v19.25h-16.5v36.781q0,11.172.473,13.019a5.3,5.3,0,0,0,2.148,3.051,6.81,6.81,0,0,0,4.082,1.2q3.352,0,9.711-2.32l2.063,18.734a48,48,0,0,1-19.078,3.61,30.256,30.256,0,0,1-11.774-2.192,17.182,17.182,0,0,1-7.691-5.671,22.384,22.384,0,0,1-3.395-9.411q-.773-4.209-.773-17.015V2224.7h-11.086v-19.25h11.086v-18.133l24.234-14.094v32.227Z"/><path d="M1757.4,2170.728v46.32q11.686-13.663,27.929-13.664a35.464,35.464,0,0,1,15.039,3.094,24.58,24.58,0,0,1,10.1,7.906,28.675,28.675,0,0,1,4.641,10.656q1.245,5.845,1.246,18.133v53.539h-24.149V2248.5q0-14.351-1.375-18.218a11.963,11.963,0,0,0-4.855-6.145,15.631,15.631,0,0,0-8.723-2.277,20,20,0,0,0-10.742,2.922,16.86,16.86,0,0,0-6.918,8.808q-2.192,5.888-2.191,17.4v45.718h-24.149V2170.728Z"/></g><path d="M760.872,1797.619V1692.947H723.49v-21.313H823.607v21.313h-37.3v104.672Z"/><path d="M879.638,1768.572l24.062,4.039q-4.64,13.234-14.652,20.152T864,1799.681q-23.8,0-35.234-15.555-9.024-12.459-9.023-31.453,0-22.687,11.859-35.535t29.992-12.848q20.367,0,32.141,13.45t11.258,41.207h-60.5q.256,10.743,5.843,16.715a18.277,18.277,0,0,0,13.922,5.972,14.783,14.783,0,0,0,9.539-3.094Q877.661,1775.447,879.638,1768.572Zm1.375-24.407q-.258-10.484-5.414-15.941a17.426,17.426,0,0,0-25.609.3q-5.157,5.758-5.071,15.64Z"/><path d="M924.669,1797.619V1671.634h24.149v125.985Z"/><path d="M1026.419,1768.572l24.063,4.039q-4.641,13.234-14.653,20.152t-25.05,6.918q-23.806,0-35.235-15.555-9.022-12.459-9.023-31.453,0-22.687,11.859-35.535t29.992-12.848q20.367,0,32.141,13.45t11.258,41.207h-60.5q.258,10.743,5.844,16.715a18.274,18.274,0,0,0,13.921,5.972,14.781,14.781,0,0,0,9.539-3.094Q1024.443,1775.447,1026.419,1768.572Zm1.375-24.407q-.258-10.484-5.414-15.941a17.426,17.426,0,0,0-25.609.3q-5.157,5.758-5.071,15.64Z"/><path d="M1070.763,1706.353h22.516v13.406a33.7,33.7,0,0,1,11.859-11.172,32.694,32.694,0,0,1,16.586-4.3q15.9,0,26.984,12.461t11.086,34.719q0,22.86-11.172,35.535t-27.07,12.676a30.759,30.759,0,0,1-13.707-3.008q-6.145-3.008-12.934-10.312v45.976h-24.148Zm23.891,44.086q0,15.384,6.1,22.73t14.867,7.348a17.447,17.447,0,0,0,14.008-6.746q5.586-6.746,5.586-22.129,0-14.351-5.758-21.312a17.809,17.809,0,0,0-14.265-6.961,18.527,18.527,0,0,0-14.7,6.832Q1094.653,1737.032,1094.654,1750.439Z"/><path d="M1173.372,1750.7a49.37,49.37,0,0,1,5.93-23.289,40.7,40.7,0,0,1,16.8-17.188,49.86,49.86,0,0,1,24.277-5.93q20.71,0,33.945,13.45t13.235,33.988q0,20.712-13.363,34.332t-33.645,13.621a53,53,0,0,1-23.934-5.672,38.9,38.9,0,0,1-17.316-16.629Q1173.373,1766.424,1173.372,1750.7Zm24.75,1.289q0,13.578,6.446,20.8a21.071,21.071,0,0,0,31.754,0q6.4-7.219,6.4-20.969,0-13.407-6.4-20.625a21.069,21.069,0,0,0-31.754,0Q1198.123,1738.407,1198.122,1751.986Z"/><path d="M1309.583,1797.619h-24.148v-91.266h22.43v12.977q5.755-9.195,10.355-12.118a19.053,19.053,0,0,1,10.441-2.922,30.659,30.659,0,0,1,15.9,4.555l-7.477,21.055q-6.1-3.952-11.343-3.953a13.4,13.4,0,0,0-8.594,2.793q-3.525,2.793-5.543,10.1t-2.02,30.594Z"/><path d="M1396.81,1706.353v19.25h-16.5v36.781q0,11.172.472,13.02a5.306,5.306,0,0,0,2.149,3.051,6.813,6.813,0,0,0,4.082,1.2q3.351,0,9.711-2.321l2.062,18.735a48.009,48.009,0,0,1-19.078,3.609,30.254,30.254,0,0,1-11.773-2.191,17.187,17.187,0,0,1-7.692-5.672,22.4,22.4,0,0,1-3.394-9.41q-.774-4.21-.774-17.016V1725.6H1344.99v-19.25h11.085V1688.22l24.235-14.094v32.227Z"/><path d="M1462.638,1797.619V1671.634h93.414v21.313h-67.977v27.929h63.25V1742.1h-63.25v34.289h70.383v21.227Z"/><path d="M1662.872,1797.619h-24.148V1751.04q0-14.78-1.547-19.121a13.42,13.42,0,0,0-5.027-6.746,14.38,14.38,0,0,0-8.379-2.406,19.358,19.358,0,0,0-11.258,3.438,17.313,17.313,0,0,0-6.832,9.109q-1.849,5.671-1.848,20.969v41.336h-24.148v-91.266h22.43v13.406q11.943-15.468,30.078-15.469a36.239,36.239,0,0,1,14.609,2.879,24.5,24.5,0,0,1,10.012,7.348,26.626,26.626,0,0,1,4.726,10.141q1.332,5.672,1.332,16.242Z"/><path d="M1729.216,1706.353v19.25h-16.5v36.781q0,11.172.473,13.02a5.3,5.3,0,0,0,2.148,3.051,6.815,6.815,0,0,0,4.082,1.2q3.352,0,9.711-2.321l2.063,18.735a48.016,48.016,0,0,1-19.078,3.609,30.256,30.256,0,0,1-11.774-2.191,17.178,17.178,0,0,1-7.691-5.672,22.385,22.385,0,0,1-3.395-9.41q-.773-4.21-.773-17.016V1725.6H1677.4v-19.25h11.086V1688.22l24.234-14.094v32.227Z"/><path d="M1769.091,1797.619h-24.148v-91.266h22.429v12.977q5.757-9.195,10.356-12.118a19.053,19.053,0,0,1,10.441-2.922,30.659,30.659,0,0,1,15.9,4.555l-7.477,21.055q-6.1-3.952-11.344-3.953a13.4,13.4,0,0,0-8.593,2.793q-3.525,2.793-5.543,10.1t-2.02,30.594Z"/><path d="M1803.036,1706.353h25.7l21.828,64.8,21.312-64.8h25.008l-32.226,87.828-5.758,15.9a64.863,64.863,0,0,1-6.059,12.2,26.484,26.484,0,0,1-6.617,6.832,28.965,28.965,0,0,1-9.195,4.082,47.8,47.8,0,0,1-12.332,1.461,64.032,64.032,0,0,1-13.664-1.461l-2.149-18.907a53.41,53.41,0,0,0,10.227,1.118q8.421,0,12.461-4.942a34.3,34.3,0,0,0,6.187-12.59Z"/><path d="M757.865,2044.644V1939.972H720.482V1918.66H820.6v21.312H783.3v104.672Z"/><path d="M876.63,2015.6l24.063,4.039q-4.641,13.235-14.653,20.152t-25.05,6.918q-23.806,0-35.235-15.554-9.022-12.461-9.023-31.453,0-22.687,11.859-35.536t29.992-12.847q20.367,0,32.141,13.449t11.258,41.207h-60.5q.258,10.743,5.843,16.715a18.278,18.278,0,0,0,13.922,5.973,14.787,14.787,0,0,0,9.539-3.094Q874.655,2022.471,876.63,2015.6Zm1.375-24.406q-.258-10.484-5.414-15.942a17.426,17.426,0,0,0-25.609.3q-5.157,5.758-5.071,15.641Z"/><path d="M921.661,2044.644V1918.66H945.81v125.984Z"/><path d="M1023.411,2015.6l24.063,4.039q-4.641,13.235-14.652,20.152t-25.051,6.918q-23.805,0-35.235-15.554-9.022-12.461-9.023-31.453,0-22.687,11.859-35.536t29.993-12.847q20.367,0,32.14,13.449t11.258,41.207h-60.5q.258,10.743,5.844,16.715a18.275,18.275,0,0,0,13.922,5.973,14.789,14.789,0,0,0,9.539-3.094Q1021.435,2022.471,1023.411,2015.6Zm1.375-24.406q-.256-10.484-5.414-15.942a17.426,17.426,0,0,0-25.609.3q-5.157,5.758-5.07,15.641Z"/><path d="M1067.755,1953.378h22.516v13.407a33.7,33.7,0,0,1,11.859-11.172,32.687,32.687,0,0,1,16.586-4.3q15.9,0,26.984,12.461t11.086,34.719q0,22.86-11.171,35.535t-27.071,12.675a30.758,30.758,0,0,1-13.707-3.007q-6.146-3.008-12.933-10.313v45.977h-24.149Zm23.891,44.086q0,15.384,6.1,22.731t14.868,7.347a17.446,17.446,0,0,0,14.007-6.746q5.586-6.746,5.586-22.129,0-14.351-5.758-21.312a17.808,17.808,0,0,0-14.265-6.961,18.523,18.523,0,0,0-14.695,6.832Q1091.645,1984.058,1091.646,1997.464Z"/><path d="M1170.365,1997.722a49.375,49.375,0,0,1,5.929-23.289,40.7,40.7,0,0,1,16.8-17.187,49.849,49.849,0,0,1,24.277-5.93q20.71,0,33.946,13.449t13.234,33.988q0,20.712-13.363,34.332t-33.645,13.621a52.993,52.993,0,0,1-23.933-5.671,38.912,38.912,0,0,1-17.317-16.629Q1170.364,2013.449,1170.365,1997.722Zm24.75,1.289q0,13.58,6.445,20.8a21.069,21.069,0,0,0,31.754,0q6.4-7.218,6.4-20.969,0-13.405-6.4-20.625a21.071,21.071,0,0,0-31.754,0Q1195.115,1985.434,1195.115,1999.011Z"/><path d="M1306.575,2044.644h-24.148v-91.266h22.43v12.977q5.757-9.2,10.355-12.117a19.048,19.048,0,0,1,10.442-2.922,30.646,30.646,0,0,1,15.9,4.555l-7.477,21.054q-6.1-3.953-11.343-3.953a13.408,13.408,0,0,0-8.594,2.793q-3.525,2.793-5.543,10.1t-2.02,30.593Z"/><path d="M1393.8,1953.378v19.25h-16.5v36.782q0,11.172.473,13.019a5.3,5.3,0,0,0,2.148,3.051,6.808,6.808,0,0,0,4.082,1.2q3.352,0,9.711-2.32l2.063,18.734a48.017,48.017,0,0,1-19.079,3.609,30.254,30.254,0,0,1-11.773-2.191,17.178,17.178,0,0,1-7.691-5.672,22.38,22.38,0,0,1-3.4-9.41q-.774-4.211-.773-17.016v-39.789h-11.086v-19.25h11.086v-18.132l24.234-14.094v32.226Z"/><path d="M1459.63,2044.644V1918.66h93.414v21.312h-67.976v27.93h63.25v21.226h-63.25v34.289h70.382v21.227Z"/><path d="M1565.247,2044.644l32.914-47.008-31.539-44.258H1596.1l16.156,25.094,17.016-25.094h28.359l-30.937,43.227,33.773,48.039h-29.648l-18.563-28.273-18.734,28.273Z"/><path d="M1674.732,1941V1918.66h24.148V1941Zm0,103.641v-91.266h24.148v91.266Z"/><path d="M1765.482,1953.378v19.25h-16.5v36.782q0,11.172.472,13.019a5.3,5.3,0,0,0,2.149,3.051,6.806,6.806,0,0,0,4.082,1.2q3.351,0,9.711-2.32l2.062,18.734a48.009,48.009,0,0,1-19.078,3.609,30.254,30.254,0,0,1-11.773-2.191,17.187,17.187,0,0,1-7.692-5.672,22.38,22.38,0,0,1-3.394-9.41q-.774-4.211-.774-17.016v-39.789h-11.086v-19.25h11.086v-18.132l24.235-14.094v32.226Z"/><use width="131.5" height="34" transform="translate(130.647 957.976) scale(3.498)" xlink:href="#6d87b3bc-ae30-475a-b446-ceb48063bde5"/><use width="131.5" height="35.125" transform="translate(132.894 1192.69) scale(3.501)" xlink:href="#31028261-66cf-49f7-a611-eaa782459026"/></g></g></svg>