<svg xmlns="http://www.w3.org/2000/svg" xmlns:xlink="http://www.w3.org/1999/xlink" width="944.164" height="1015.87" viewBox="0 0 944.164 1015.87"><defs><style>.\31 63044fa-8dc7-4210-b1fc-d0ba09871a4c{fill:#00ff24;}.\31 63044fa-8dc7-4210-b1fc-d0ba09871a4c,.\33 32e019b-972b-41cb-a21d-e14ec68b1391{stroke:#000;stroke-width:5px;}.\31 63044fa-8dc7-4210-b1fc-d0ba09871a4c,.\31 a5c6922-e3ef-4d46-8c86-bdda51f71701,.\31 c8f8ff0-a597-4cd5-ba64-153775a68a49,.\33 32e019b-972b-41cb-a21d-e14ec68b1391,.ccf52829-42a5-4934-a798-1e3f504ba1a3{stroke-miterlimit:10;}.\33 32e019b-972b-41cb-a21d-e14ec68b1391{fill:#fff;}.\31 a5c6922-e3ef-4d46-8c86-bdda51f71701,.\31 c8f8ff0-a597-4cd5-ba64-153775a68a49,.ccf52829-42a5-4934-a798-1e3f504ba1a3{fill:none;}.\31 c8f8ff0-a597-4cd5-ba64-153775a68a49,.ccf52829-42a5-4934-a798-1e3f504ba1a3{stroke:#0080ff;}.ccf52829-42a5-4934-a798-1e3f504ba1a3{stroke-width:22px;}.\31 a5c6922-e3ef-4d46-8c86-bdda51f71701{stroke:#fff;stroke-width:12.5px;}.\31 c8f8ff0-a597-4cd5-ba64-153775a68a49{stroke-width:2.2px;}</style><symbol id="9fca0feb-e6b0-489f-b7e3-79c0f3f7d5ae" data-name="fd103434-89f2-4089-acf9-54fed79ed404" viewBox="0 0 200 103.617"><rect class="163044fa-8dc7-4210-b1fc-d0ba09871a4c" x="2.5" y="54.074" width="195" height="47.043"/><rect class="332e019b-972b-41cb-a21d-e14ec68b1391" x="2.5" y="2.5" width="48.75" height="48.75"/><rect class="332e019b-972b-41cb-a21d-e14ec68b1391" x="51.25" y="2.5" width="48.75" height="48.75"/><rect class="332e019b-972b-41cb-a21d-e14ec68b1391" x="100" y="2.5" width="48.75" height="48.75"/><rect class="332e019b-972b-41cb-a21d-e14ec68b1391" x="148.75" y="2.5" width="48.75" height="48.75"/></symbol></defs><title>Blaine_County_24h_North</title><g id="510ec588-f0a0-48a5-8a0b-d21b81c267dd" data-name="Layer 2"><g id="04cb2072-5ca6-4ea5-9081-30a7fada12f7" data-name="Broughy1322"><g id="59681550-e19d-421e-a243-5bd3126515d4" data-name="Blaine_County_24h_North"><path id="86966cc9-4e9c-4c7f-b5d9-de0613dbf94e" data-name="Track Outer" class="ccf52829-42a5-4934-a798-1e3f504ba1a3" d="M563.884,906.522c-2.833,4.584-45.778,74.667-56.666,93.334-3.447,5.908-10.972,6-14.417,3.333,0,0-8.583-6.166-13.167-11.5-9.75-9.583-22.249-34.471-27.916-53.833a174.673,174.673,0,0,1-7.112-49.889c.088-17.322,4.643-35.193,7.112-46.222,2.22-9.921,5.778-25.556,10.666-38.889,6.4-17.461,11.958-33.324,13.778-40.222a143.478,143.478,0,0,0,4.556-34.111c.25-11-1.334-47.112-2.556-62.445-1.044-13.1-9-30.667-14.889-42.889s-14.221-32.354-24.555-45.444c-10-12.667-29.344-30.545-37.556-39s-40.8-42.149-44.889-45.334A100.609,100.609,0,0,0,329.606,478.3c-11.333-4.444-66.222-17.777-66.222-17.777l-48.326-10.56a12.8,12.8,0,0,1-10.09-14.94s16.416-75.917,16.666-86.084-1.25-16.944-4.75-22.361-20.833-23.639-31.916-34.889c-10.678-10.838-72.639-73.333-83.139-84.166C97.782,203.347,61.857,163.37,46.94,145.3c-10.289-12.463-25.674-30.024-33.84-40.486a9.922,9.922,0,0,1,1.618-13.847S60.071,52.7,77.8,39.606c12.417-9.167,21.948-14.426,43-18.917,18.75-4,31.639-8.694,56.083-7.583s46.084,12.417,46.084,12.417,47.75,21.29,61.166,26.416c10.25,3.917,17.5,2.75,28.167-4.25s31-26,41.417-33.25,27.083-2.25,33.583,7.667c5.61,8.558,5.083,12,5.583,19.417.623,9.242.274,14.956,2.167,24.333,1.75,8.667,6.972,11.75,16.555,18.667s24.778,15,37.778,22.333,22.889,14,36.445,20.667,23.111,10.222,32.777,10.111,26.334-4.111,26.334-4.111,102.222-28.445,116.666-30.112,23.445-1.166,32.445,8.028S704.5,140.745,704.5,140.745s3.222,32.778,4.777,43,3.833,22.944,8.528,31.361,18.417,21.667,18.417,21.667S751.8,251.189,756.3,257.856s-5.083,16.417,1.333,25.417a165.649,165.649,0,0,1,12.834,20.25c4.416,8,14.083,30.916,14.083,30.916s35.278,89.389,41.055,99.528,8.2,11.139,13.528,14.889,17.084,6.417,26.834,10,15.333,4.25,23.5,9.083,13.25,10.167,18.333,17.5,13.611,32.139,15.695,41.639,5.555,39.445,6.222,50.445,2.778,23.555,3,39.444,1.444,27-1.445,43.222S926.5,679.3,919.718,689.411s-15.445,15.112-24.556,19.778-19.666,9.834-28.944,13.584-63.921,22.062-75.167,25.416c-12.667,3.778-28.778,8.333-44.889,12.778s-44.444,10-67.667,23.444c-9.625,5.573-25.555,17.079-40.777,31.2a423.567,423.567,0,0,0-46.334,51.25c-17,22.444-23.062,32.6-27.5,39.666"/><path id="ff556797-0f53-47d5-bf8e-7190df51e10d" data-name="Track Middle" class="1a5c6922-e3ef-4d46-8c86-bdda51f71701" d="M563.884,906.522c-2.833,4.584-45.778,74.667-56.666,93.334-3.447,5.908-10.972,6-14.417,3.333,0,0-8.583-6.166-13.167-11.5-9.75-9.583-22.249-34.471-27.916-53.833a174.673,174.673,0,0,1-7.112-49.889c.088-17.322,4.643-35.193,7.112-46.222,2.22-9.921,5.778-25.556,10.666-38.889,6.4-17.461,11.958-33.324,13.778-40.222a143.478,143.478,0,0,0,4.556-34.111c.25-11-1.334-47.112-2.556-62.445-1.044-13.1-9-30.667-14.889-42.889s-14.221-32.354-24.555-45.444c-10-12.667-29.344-30.545-37.556-39s-40.8-42.149-44.889-45.334A100.609,100.609,0,0,0,329.606,478.3c-11.333-4.444-66.222-17.777-66.222-17.777l-48.326-10.56a12.8,12.8,0,0,1-10.09-14.94s16.416-75.917,16.666-86.084-1.25-16.944-4.75-22.361-20.833-23.639-31.916-34.889c-10.678-10.838-72.639-73.333-83.139-84.166C97.782,203.347,61.857,163.37,46.94,145.3c-10.289-12.463-25.674-30.024-33.84-40.486a9.922,9.922,0,0,1,1.618-13.847S60.071,52.7,77.8,39.606c12.417-9.167,21.948-14.426,43-18.917,18.75-4,31.639-8.694,56.083-7.583s46.084,12.417,46.084,12.417,47.75,21.29,61.166,26.416c10.25,3.917,17.5,2.75,28.167-4.25s31-26,41.417-33.25,27.083-2.25,33.583,7.667c5.61,8.558,5.083,12,5.583,19.417.623,9.242.274,14.956,2.167,24.333,1.75,8.667,6.972,11.75,16.555,18.667s24.778,15,37.778,22.333,22.889,14,36.445,20.667,23.111,10.222,32.777,10.111,26.334-4.111,26.334-4.111,102.222-28.445,116.666-30.112,23.445-1.166,32.445,8.028S704.5,140.745,704.5,140.745s3.222,32.778,4.777,43,3.833,22.944,8.528,31.361,18.417,21.667,18.417,21.667S751.8,251.189,756.3,257.856s-5.083,16.417,1.333,25.417a165.649,165.649,0,0,1,12.834,20.25c4.416,8,14.083,30.916,14.083,30.916s35.278,89.389,41.055,99.528,8.2,11.139,13.528,14.889,17.084,6.417,26.834,10,15.333,4.25,23.5,9.083,13.25,10.167,18.333,17.5,13.611,32.139,15.695,41.639,5.555,39.445,6.222,50.445,2.778,23.555,3,39.444,1.444,27-1.445,43.222S926.5,679.3,919.718,689.411s-15.445,15.112-24.556,19.778-19.666,9.834-28.944,13.584-63.921,22.062-75.167,25.416c-12.667,3.778-28.778,8.333-44.889,12.778s-44.444,10-67.667,23.444c-9.625,5.573-25.555,17.079-40.777,31.2a423.567,423.567,0,0,0-46.334,51.25c-17,22.444-23.062,32.6-27.5,39.666"/><path id="65d96dbd-4a5d-47e3-aa43-574c827d3e63" data-name="Track Inner" class="1c8f8ff0-a597-4cd5-ba64-153775a68a49" d="M563.884,906.522c-2.833,4.584-45.778,74.667-56.666,93.334-3.447,5.908-10.972,6-14.417,3.333,0,0-8.583-6.166-13.167-11.5-9.75-9.583-22.249-34.471-27.916-53.833a174.673,174.673,0,0,1-7.112-49.889c.088-17.322,4.643-35.193,7.112-46.222,2.22-9.921,5.778-25.556,10.666-38.889,6.4-17.461,11.958-33.324,13.778-40.222a143.478,143.478,0,0,0,4.556-34.111c.25-11-1.334-47.112-2.556-62.445-1.044-13.1-9-30.667-14.889-42.889s-14.221-32.354-24.555-45.444c-10-12.667-29.344-30.545-37.556-39s-40.8-42.149-44.889-45.334A100.609,100.609,0,0,0,329.606,478.3c-11.333-4.444-66.222-17.777-66.222-17.777l-48.326-10.56a12.8,12.8,0,0,1-10.09-14.94s16.416-75.917,16.666-86.084-1.25-16.944-4.75-22.361-20.833-23.639-31.916-34.889c-10.678-10.838-72.639-73.333-83.139-84.166C97.782,203.347,61.857,163.37,46.94,145.3c-10.289-12.463-25.674-30.024-33.84-40.486a9.922,9.922,0,0,1,1.618-13.847S60.071,52.7,77.8,39.606c12.417-9.167,21.948-14.426,43-18.917,18.75-4,31.639-8.694,56.083-7.583s46.084,12.417,46.084,12.417,47.75,21.29,61.166,26.416c10.25,3.917,17.5,2.75,28.167-4.25s31-26,41.417-33.25,27.083-2.25,33.583,7.667c5.61,8.558,5.083,12,5.583,19.417.623,9.242.274,14.956,2.167,24.333,1.75,8.667,6.972,11.75,16.555,18.667s24.778,15,37.778,22.333,22.889,14,36.445,20.667,23.111,10.222,32.777,10.111,26.334-4.111,26.334-4.111,102.222-28.445,116.666-30.112,23.445-1.166,32.445,8.028S704.5,140.745,704.5,140.745s3.222,32.778,4.777,43,3.833,22.944,8.528,31.361,18.417,21.667,18.417,21.667S751.8,251.189,756.3,257.856s-5.083,16.417,1.333,25.417a165.649,165.649,0,0,1,12.834,20.25c4.416,8,14.083,30.916,14.083,30.916s35.278,89.389,41.055,99.528,8.2,11.139,13.528,14.889,17.084,6.417,26.834,10,15.333,4.25,23.5,9.083,13.25,10.167,18.333,17.5,13.611,32.139,15.695,41.639,5.555,39.445,6.222,50.445,2.778,23.555,3,39.444,1.444,27-1.445,43.222S926.5,679.3,919.718,689.411s-15.445,15.112-24.556,19.778-19.666,9.834-28.944,13.584-63.921,22.062-75.167,25.416c-12.667,3.778-28.778,8.333-44.889,12.778s-44.444,10-67.667,23.444c-9.625,5.573-25.555,17.079-40.777,31.2a423.567,423.567,0,0,0-46.334,51.25c-17,22.444-23.062,32.6-27.5,39.666"/><use id="14c0e496-f96b-4942-bb64-5df0bd24a765" data-name="Start-Finish-Line" width="200" height="103.617" transform="translate(547.053 879.518) rotate(31.696) scale(0.287)" xlink:href="#9fca0feb-e6b0-489f-b7e3-79c0f3f7d5ae"/></g></g></g></svg>