<svg xmlns="http://www.w3.org/2000/svg" xmlns:xlink="http://www.w3.org/1999/xlink" width="1565.454" height="2086.854" viewBox="0 0 1565.454 2086.854"><defs><style>.\31 3818559-a78a-46ec-abf2-8070a1d3057f{fill:#00ff24;}.\31 3818559-a78a-46ec-abf2-8070a1d3057f,.a6a5a4e2-03ff-4465-8834-174ae9e08dd6{stroke:#000;stroke-width:5px;}.\31 3818559-a78a-46ec-abf2-8070a1d3057f,.\31 48da57a-2728-4d39-9d6e-12e0012a199f,.\33 9c4c8f4-6064-49a7-9795-979107d71ee8,.\37 0d328c3-2821-4d9e-b511-b9b8be57b920,.\39 dfeac44-fc3c-4e6e-a4c3-6d62adae82b7,.a6a5a4e2-03ff-4465-8834-174ae9e08dd6,.ef9f4be3-5070-44b0-b9a1-31efed9f37fa{stroke-miterlimit:10;}.a6a5a4e2-03ff-4465-8834-174ae9e08dd6{fill:#fff;}.\31 48da57a-2728-4d39-9d6e-12e0012a199f,.\33 9c4c8f4-6064-49a7-9795-979107d71ee8,.\37 0d328c3-2821-4d9e-b511-b9b8be57b920,.\39 dfeac44-fc3c-4e6e-a4c3-6d62adae82b7,.ef9f4be3-5070-44b0-b9a1-31efed9f37fa{fill:none;}.\31 48da57a-2728-4d39-9d6e-12e0012a199f,.\33 9c4c8f4-6064-49a7-9795-979107d71ee8{stroke:#c91c1c;}.\31 48da57a-2728-4d39-9d6e-12e0012a199f,.ef9f4be3-5070-44b0-b9a1-31efed9f37fa{stroke-width:22px;}.\39 dfeac44-fc3c-4e6e-a4c3-6d62adae82b7,.ef9f4be3-5070-44b0-b9a1-31efed9f37fa{stroke:#0080ff;}.\37 0d328c3-2821-4d9e-b511-b9b8be57b920{stroke:#fff;stroke-width:12.5px;}.\33 9c4c8f4-6064-49a7-9795-979107d71ee8,.\39 dfeac44-fc3c-4e6e-a4c3-6d62adae82b7{stroke-width:2.2px;}</style><symbol id="ff0feed7-a145-4e23-9d5a-c35fdd1e0097" data-name="fd103434-89f2-4089-acf9-54fed79ed404" viewBox="0 0 200 103.617"><rect class="13818559-a78a-46ec-abf2-8070a1d3057f" x="2.5" y="54.074" width="195" height="47.043"/><rect class="a6a5a4e2-03ff-4465-8834-174ae9e08dd6" x="2.5" y="2.5" width="48.75" height="48.75"/><rect class="a6a5a4e2-03ff-4465-8834-174ae9e08dd6" x="51.25" y="2.5" width="48.75" height="48.75"/><rect class="a6a5a4e2-03ff-4465-8834-174ae9e08dd6" x="100" y="2.5" width="48.75" height="48.75"/><rect class="a6a5a4e2-03ff-4465-8834-174ae9e08dd6" x="148.75" y="2.5" width="48.75" height="48.75"/></symbol></defs><title>Blaine_County_24h_-_Update</title><g id="83c4248c-7902-455d-85fb-a07318f5ece1" data-name="Layer 2"><g id="5db83b1c-304c-47ee-99d2-b1fc0b2d372e" data-name="Broughy1322"><g id="997dd09f-aab5-47b9-9619-57f1bcb29b78" data-name="Blaine_County_24h_-_Update"><path id="4adb28fc-98ef-46c6-a284-91138391ca86" data-name="Pitlane Outer" class="148da57a-2728-4d39-9d6e-12e0012a199f" d="M1453.11,1448.617c-7.394,29.864,15.549,28.815,6.787,54.128-6,17.333-16.164,45.363-25.334,68.777-12.444,31.778-20.333,49.445-35.444,84.334-10.2,23.555-27.278,9.708-38.778,35.375"/><path id="5e36e748-df85-487f-9ba0-0d381ec46c5f" data-name="Track Outer" class="ef9f4be3-5070-44b0-b9a1-31efed9f37fa" d="M886.341,1284.522s45.111-25.833,66-38.833c11.187-6.962,43.614-27.836,70.667-56.5,23.46-24.858,43.419-57.721,47.778-65.222,11.555-19.889,18.131-37.5,30.333-64.889,7.647-17.162,15.093-33.3,19.707-42.374,3.1-6.1-1.04-9.459-4.485-12.126,0,0-10.833-7.555-15.417-12.889-9.75-9.583-22.249-34.471-27.916-53.833a174.644,174.644,0,0,1-7.111-49.889c.087-17.322,4.642-35.193,7.111-46.222,2.22-9.921,5.778-25.556,10.666-38.889,6.4-17.461,11.958-33.324,13.778-40.222a143.478,143.478,0,0,0,4.556-34.111c.25-11-1.334-47.112-2.556-62.445-1.044-13.1-9-30.667-14.889-42.889s-14.221-32.354-24.555-45.444c-10-12.667-29.344-30.545-37.556-39s-40.8-42.149-44.889-45.334A100.618,100.618,0,0,0,950.9,478.3c-11.334-4.444-66.223-17.777-66.223-17.777l-48.326-10.56a12.8,12.8,0,0,1-10.09-14.94s16.416-75.917,16.666-86.084-1.25-16.944-4.75-22.361-20.833-23.639-31.916-34.889c-10.678-10.838-72.639-73.333-83.139-84.166-4.047-4.176-39.972-44.153-54.889-62.223-10.288-12.463-25.674-30.024-33.84-40.486a9.923,9.923,0,0,1,1.618-13.847S681.361,52.7,699.091,39.606c12.417-9.167,21.948-14.426,43-18.917,18.75-4,31.639-8.694,56.083-7.583s46.084,12.417,46.084,12.417,47.75,21.29,61.166,26.416c10.25,3.917,17.5,2.75,28.167-4.25s31-26,41.417-33.25,27.083-2.25,33.583,7.667c5.61,8.558,5.083,12,5.583,19.417.623,9.242.274,14.956,2.167,24.333,1.75,8.667,6.972,11.75,16.556,18.667s24.777,15,37.777,22.333,22.889,14,36.445,20.667,23.111,10.222,32.778,10.111,26.333-4.111,26.333-4.111,102.222-28.445,116.667-30.112,23.444-1.166,32.444,8.028,10.445,29.306,10.445,29.306,3.222,32.778,4.777,43,3.834,22.944,8.528,31.361,18.417,21.667,18.417,21.667,15.583,14.416,20.083,21.083-5.083,16.417,1.333,25.417a165.649,165.649,0,0,1,12.834,20.25c4.416,8,14.083,30.916,14.083,30.916s35.278,89.389,41.056,99.528,8.194,11.139,13.527,14.889,17.084,6.417,26.834,10,15.333,4.25,23.5,9.083,13.25,10.167,18.333,17.5,13.611,32.139,15.7,41.639,5.555,39.445,6.222,50.445,2.778,23.555,3,39.444,1.444,27-1.445,43.222-4.777,19.111-11.555,29.222-15.445,15.112-24.556,19.778-19.666,9.834-28.944,13.584-57.722,19.861-68.834,23.638-39.222,8-46,18.445-.888,22.222,5.334,39,13.54,37.513,20.111,54.222c7.778,19.778,31.722,80.833,37.222,95.556s29.389,89.5,32.167,100.555,16.666,62.334,19.333,84c1.081,8.778,3.233,24.052,5,46.667,1.409,18.024,1.893,37.9,2,46.666a570.52,570.52,0,0,1-3.833,64.5c-3.386,27.337-11.334,54.167-15.834,70.667s-22.833,91.333-31.333,119-32,85.833-32,85.833-46.278,109.445-57.278,135.889-25.775,61.572-38,83.556c-13.222,23.777-31.856,57.163-45.222,76.444-13.555,19.556-54.222,71.167-62.778,80.223s-38.389,34.722-57.222,47.555-79.167,45.833-79.167,45.833-56.166,33.278-65.277,34.5-13.334-.888-22.667-7.111c-7.568-5.045-33.333-18.777-46.444-23.667s-41.539-14.681-59-15.333c-14.889-.555-18.028-.389-23.778,2.778s-34.647,33.358-40,36.278c-3.056,1.667-7.5,1.495-11.834-.945-4.444-2.5-22-15.416-31.666-19.333s-22.917-7.75-33.667-7.833c-8.462-.066-32.625,4.661-38.75,4.916a5.587,5.587,0,0,1-5.417-5.833c.417-4.333,7.028-9.847,9.612-14.139a55.7,55.7,0,0,0,5.722-11.611c2.043-6.052,2.385-14.831,1.389-19.167-2.223-9.666-5.111-20.388-15.778-29.722-4.269-3.735-22.192-14.185-40.278-26.111-16.373-10.8-32.775-22.928-41.222-30.055-8.021-6.768-21.911-18.544-34.278-30.445-15.044-14.477-28.17-28.883-30-31.445-3.845-5.382-4.778-11.055-.278-15.166,3.346-3.056,10.5-7.225,22.111-10.834,13.223-4.11,25.112-9.222,34.889-15.444,5.982-3.806,29.445-19.111,30.556-26,.912-5.654-2-9.111-8.445-15.222-6.412-6.081-12.777-8.889-27.333-11.778-12.288-2.439-22-2.889-37.778-.778-14.071,1.883-26,6-36.444,9.667-5.843,2.052-15.833,8.111-21.111,9.333s-10.305-1.817-14.111-7.444c-5.111-7.556-70.723-125.389-74.639-133.139-4.1-8.116-24.417-45.361-30.806-49.305s-18.5,5.388-27.389,9.166a188.681,188.681,0,0,1-27.805,8.639c-17.417,3.583-35.736,2.838-55.334,2.917-20.583.083-33.361-1.389-66.694-8.056S108.4,1571.8,78.9,1565.634s-57.889-10.612-64.389-13.278-3-8.5,2.666-10.167,23-9.5,28.917-11.167c6.5-1.833,11.311-5.754,8.083-15-3.083-8.833-17.071-46.284-20.666-55.333-2.417-6.083-4.334-13.667,6.5-19.083,9.766-4.883,43.166-15.222,59.666-21.862s60.611-22.444,73.223-27.888,32.166-14,41.777-20.334,19.834-15.166,26.667-16.583,11.291,6.221,15.083,11.25c3.834,5.083,33.528,48,41.25,59.555s51.162,89.333,55.223,95.112c2.889,4.111,5.623,12.658,15,7.333,9-5.111,236.889-136.889,242.111-140.167,4.742-2.976,6.666-6.666,3-12.916-3.753-6.4-16.5-28.862-20.834-35.584s-29.833-50.055-37.388-63.555-10.721-39.811-14.278-46.111c-2.917-5.167-8.357-5.056-12.25-3.917-4.084,1.195-28.584,9.833-35.25,12.5a186.687,186.687,0,0,0-26.042,13.25c-5.577,3.471-10.639,2.57-15.083-4.208s-19.042-34.417-21.542-38.625c-1.589-2.675-4.861-6.792-.167-11.125s31.806-11.417,44.25-14.083a190.262,190.262,0,0,1,35.528-4.625c13.278-.445,49.222-6.056,62.667-.834s23.5,8.889,33.111,20.556,12.247,15.805,19.389,27.333c7.055,11.389,78.051,133.608,86.639,146.694,3.5,5.334,9.916,6.7,13.916,4.917s160.667-93.167,160.667-93.167"/><path id="566ffd2f-3b50-4ffd-acbf-c188989e6959" data-name="Track Middle" class="70d328c3-2821-4d9e-b511-b9b8be57b920" d="M886.341,1284.522s45.111-25.833,66-38.833c11.187-6.962,43.614-27.836,70.667-56.5,23.46-24.858,43.419-57.721,47.778-65.222,11.555-19.889,18.131-37.5,30.333-64.889,7.647-17.162,15.093-33.3,19.707-42.374,3.1-6.1-1.04-9.459-4.485-12.126,0,0-10.833-7.555-15.417-12.889-9.75-9.583-22.249-34.471-27.916-53.833a174.644,174.644,0,0,1-7.111-49.889c.087-17.322,4.642-35.193,7.111-46.222,2.22-9.921,5.778-25.556,10.666-38.889,6.4-17.461,11.958-33.324,13.778-40.222a143.478,143.478,0,0,0,4.556-34.111c.25-11-1.334-47.112-2.556-62.445-1.044-13.1-9-30.667-14.889-42.889s-14.221-32.354-24.555-45.444c-10-12.667-29.344-30.545-37.556-39s-40.8-42.149-44.889-45.334A100.618,100.618,0,0,0,950.9,478.3c-11.334-4.444-66.223-17.777-66.223-17.777l-48.326-10.56a12.8,12.8,0,0,1-10.09-14.94s16.416-75.917,16.666-86.084-1.25-16.944-4.75-22.361-20.833-23.639-31.916-34.889c-10.678-10.838-72.639-73.333-83.139-84.166-4.047-4.176-39.972-44.153-54.889-62.223-10.288-12.463-25.674-30.024-33.84-40.486a9.923,9.923,0,0,1,1.618-13.847S681.361,52.7,699.091,39.606c12.417-9.167,21.948-14.426,43-18.917,18.75-4,31.639-8.694,56.083-7.583s46.084,12.417,46.084,12.417,47.75,21.29,61.166,26.416c10.25,3.917,17.5,2.75,28.167-4.25s31-26,41.417-33.25,27.083-2.25,33.583,7.667c5.61,8.558,5.083,12,5.583,19.417.623,9.242.274,14.956,2.167,24.333,1.75,8.667,6.972,11.75,16.556,18.667s24.777,15,37.777,22.333,22.889,14,36.445,20.667,23.111,10.222,32.778,10.111,26.333-4.111,26.333-4.111,102.222-28.445,116.667-30.112,23.444-1.166,32.444,8.028,10.445,29.306,10.445,29.306,3.222,32.778,4.777,43,3.834,22.944,8.528,31.361,18.417,21.667,18.417,21.667,15.583,14.416,20.083,21.083-5.083,16.417,1.333,25.417a165.649,165.649,0,0,1,12.834,20.25c4.416,8,14.083,30.916,14.083,30.916s35.278,89.389,41.056,99.528,8.194,11.139,13.527,14.889,17.084,6.417,26.834,10,15.333,4.25,23.5,9.083,13.25,10.167,18.333,17.5,13.611,32.139,15.7,41.639,5.555,39.445,6.222,50.445,2.778,23.555,3,39.444,1.444,27-1.445,43.222-4.777,19.111-11.555,29.222-15.445,15.112-24.556,19.778-19.666,9.834-28.944,13.584-57.722,19.861-68.834,23.638-39.222,8-46,18.445-.888,22.222,5.334,39,13.54,37.513,20.111,54.222c7.778,19.778,31.722,80.833,37.222,95.556s29.389,89.5,32.167,100.555,16.666,62.334,19.333,84c1.081,8.778,3.233,24.052,5,46.667,1.409,18.024,1.893,37.9,2,46.666a570.52,570.52,0,0,1-3.833,64.5c-3.386,27.337-11.334,54.167-15.834,70.667s-22.833,91.333-31.333,119-32,85.833-32,85.833-46.278,109.445-57.278,135.889-25.775,61.572-38,83.556c-13.222,23.777-31.856,57.163-45.222,76.444-13.555,19.556-54.222,71.167-62.778,80.223s-38.389,34.722-57.222,47.555-79.167,45.833-79.167,45.833-56.166,33.278-65.277,34.5-13.334-.888-22.667-7.111c-7.568-5.045-33.333-18.777-46.444-23.667s-41.539-14.681-59-15.333c-14.889-.555-18.028-.389-23.778,2.778s-34.647,33.358-40,36.278c-3.056,1.667-7.5,1.495-11.834-.945-4.444-2.5-22-15.416-31.666-19.333s-22.917-7.75-33.667-7.833c-8.462-.066-32.625,4.661-38.75,4.916a5.587,5.587,0,0,1-5.417-5.833c.417-4.333,7.028-9.847,9.612-14.139a55.7,55.7,0,0,0,5.722-11.611c2.043-6.052,2.385-14.831,1.389-19.167-2.223-9.666-5.111-20.388-15.778-29.722-4.269-3.735-22.192-14.185-40.278-26.111-16.373-10.8-32.775-22.928-41.222-30.055-8.021-6.768-21.911-18.544-34.278-30.445-15.044-14.477-28.17-28.883-30-31.445-3.845-5.382-4.778-11.055-.278-15.166,3.346-3.056,10.5-7.225,22.111-10.834,13.223-4.11,25.112-9.222,34.889-15.444,5.982-3.806,29.445-19.111,30.556-26,.912-5.654-2-9.111-8.445-15.222-6.412-6.081-12.777-8.889-27.333-11.778-12.288-2.439-22-2.889-37.778-.778-14.071,1.883-26,6-36.444,9.667-5.843,2.052-15.833,8.111-21.111,9.333s-10.305-1.817-14.111-7.444c-5.111-7.556-70.723-125.389-74.639-133.139-4.1-8.116-24.417-45.361-30.806-49.305s-18.5,5.388-27.389,9.166a188.681,188.681,0,0,1-27.805,8.639c-17.417,3.583-35.736,2.838-55.334,2.917-20.583.083-33.361-1.389-66.694-8.056S108.4,1571.8,78.9,1565.634s-57.889-10.612-64.389-13.278-3-8.5,2.666-10.167,23-9.5,28.917-11.167c6.5-1.833,11.311-5.754,8.083-15-3.083-8.833-17.071-46.284-20.666-55.333-2.417-6.083-4.334-13.667,6.5-19.083,9.766-4.883,43.166-15.222,59.666-21.862s60.611-22.444,73.223-27.888,32.166-14,41.777-20.334,19.834-15.166,26.667-16.583,11.291,6.221,15.083,11.25c3.834,5.083,33.528,48,41.25,59.555s51.162,89.333,55.223,95.112c2.889,4.111,5.623,12.658,15,7.333,9-5.111,236.889-136.889,242.111-140.167,4.742-2.976,6.666-6.666,3-12.916-3.753-6.4-16.5-28.862-20.834-35.584s-29.833-50.055-37.388-63.555-10.721-39.811-14.278-46.111c-2.917-5.167-8.357-5.056-12.25-3.917-4.084,1.195-28.584,9.833-35.25,12.5a186.687,186.687,0,0,0-26.042,13.25c-5.577,3.471-10.639,2.57-15.083-4.208s-19.042-34.417-21.542-38.625c-1.589-2.675-4.861-6.792-.167-11.125s31.806-11.417,44.25-14.083a190.262,190.262,0,0,1,35.528-4.625c13.278-.445,49.222-6.056,62.667-.834s23.5,8.889,33.111,20.556,12.247,15.805,19.389,27.333c7.055,11.389,78.051,133.608,86.639,146.694,3.5,5.334,9.916,6.7,13.916,4.917s160.667-93.167,160.667-93.167"/><path id="9ac9f21a-dc3d-49b1-8302-a29367a88dc3" data-name="Pitlane Middle" class="70d328c3-2821-4d9e-b511-b9b8be57b920" d="M1453.11,1448.617c-7.394,29.864,15.549,28.815,6.787,54.128-6,17.333-16.164,45.363-25.334,68.777-12.444,31.778-20.333,49.445-35.444,84.334-10.2,23.555-27.278,9.708-38.778,35.375"/><path id="bc9e4870-ca7f-4894-96a2-2a7473b44888" data-name="Pitlane Inner" class="39c4c8f4-6064-49a7-9795-979107d71ee8" d="M1453.11,1448.617c-7.394,29.864,15.549,28.815,6.787,54.128-6,17.333-16.164,45.363-25.334,68.777-12.444,31.778-20.333,49.445-35.444,84.334-10.2,23.555-27.278,9.708-38.778,35.375"/><path id="892632c0-4348-40c0-9e01-23ba45c6fada" data-name="Track Inner" class="9dfeac44-fc3c-4e6e-a4c3-6d62adae82b7" d="M886.341,1284.522s45.111-25.833,66-38.833c11.187-6.962,43.614-27.836,70.667-56.5,23.46-24.858,43.419-57.721,47.778-65.222,11.555-19.889,18.131-37.5,30.333-64.889,7.647-17.162,15.093-33.3,19.707-42.374,3.1-6.1-1.04-9.459-4.485-12.126,0,0-10.833-7.555-15.417-12.889-9.75-9.583-22.249-34.471-27.916-53.833a174.644,174.644,0,0,1-7.111-49.889c.087-17.322,4.642-35.193,7.111-46.222,2.22-9.921,5.778-25.556,10.666-38.889,6.4-17.461,11.958-33.324,13.778-40.222a143.478,143.478,0,0,0,4.556-34.111c.25-11-1.334-47.112-2.556-62.445-1.044-13.1-9-30.667-14.889-42.889s-14.221-32.354-24.555-45.444c-10-12.667-29.344-30.545-37.556-39s-40.8-42.149-44.889-45.334A100.618,100.618,0,0,0,950.9,478.3c-11.334-4.444-66.223-17.777-66.223-17.777l-48.326-10.56a12.8,12.8,0,0,1-10.09-14.94s16.416-75.917,16.666-86.084-1.25-16.944-4.75-22.361-20.833-23.639-31.916-34.889c-10.678-10.838-72.639-73.333-83.139-84.166-4.047-4.176-39.972-44.153-54.889-62.223-10.288-12.463-25.674-30.024-33.84-40.486a9.923,9.923,0,0,1,1.618-13.847S681.361,52.7,699.091,39.606c12.417-9.167,21.948-14.426,43-18.917,18.75-4,31.639-8.694,56.083-7.583s46.084,12.417,46.084,12.417,47.75,21.29,61.166,26.416c10.25,3.917,17.5,2.75,28.167-4.25s31-26,41.417-33.25,27.083-2.25,33.583,7.667c5.61,8.558,5.083,12,5.583,19.417.623,9.242.274,14.956,2.167,24.333,1.75,8.667,6.972,11.75,16.556,18.667s24.777,15,37.777,22.333,22.889,14,36.445,20.667,23.111,10.222,32.778,10.111,26.333-4.111,26.333-4.111,102.222-28.445,116.667-30.112,23.444-1.166,32.444,8.028,10.445,29.306,10.445,29.306,3.222,32.778,4.777,43,3.834,22.944,8.528,31.361,18.417,21.667,18.417,21.667,15.583,14.416,20.083,21.083-5.083,16.417,1.333,25.417a165.649,165.649,0,0,1,12.834,20.25c4.416,8,14.083,30.916,14.083,30.916s35.278,89.389,41.056,99.528,8.194,11.139,13.527,14.889,17.084,6.417,26.834,10,15.333,4.25,23.5,9.083,13.25,10.167,18.333,17.5,13.611,32.139,15.7,41.639,5.555,39.445,6.222,50.445,2.778,23.555,3,39.444,1.444,27-1.445,43.222-4.777,19.111-11.555,29.222-15.445,15.112-24.556,19.778-19.666,9.834-28.944,13.584-57.722,19.861-68.834,23.638-39.222,8-46,18.445-.888,22.222,5.334,39,13.54,37.513,20.111,54.222c7.778,19.778,31.722,80.833,37.222,95.556s29.389,89.5,32.167,100.555,16.666,62.334,19.333,84c1.081,8.778,3.233,24.052,5,46.667,1.409,18.024,1.893,37.9,2,46.666a570.52,570.52,0,0,1-3.833,64.5c-3.386,27.337-11.334,54.167-15.834,70.667s-22.833,91.333-31.333,119-32,85.833-32,85.833-46.278,109.445-57.278,135.889-25.775,61.572-38,83.556c-13.222,23.777-31.856,57.163-45.222,76.444-13.555,19.556-54.222,71.167-62.778,80.223s-38.389,34.722-57.222,47.555-79.167,45.833-79.167,45.833-56.166,33.278-65.277,34.5-13.334-.888-22.667-7.111c-7.568-5.045-33.333-18.777-46.444-23.667s-41.539-14.681-59-15.333c-14.889-.555-18.028-.389-23.778,2.778s-34.647,33.358-40,36.278c-3.056,1.667-7.5,1.495-11.834-.945-4.444-2.5-22-15.416-31.666-19.333s-22.917-7.75-33.667-7.833c-8.462-.066-32.625,4.661-38.75,4.916a5.587,5.587,0,0,1-5.417-5.833c.417-4.333,7.028-9.847,9.612-14.139a55.7,55.7,0,0,0,5.722-11.611c2.043-6.052,2.385-14.831,1.389-19.167-2.223-9.666-5.111-20.388-15.778-29.722-4.269-3.735-22.192-14.185-40.278-26.111-16.373-10.8-32.775-22.928-41.222-30.055-8.021-6.768-21.911-18.544-34.278-30.445-15.044-14.477-28.17-28.883-30-31.445-3.845-5.382-4.778-11.055-.278-15.166,3.346-3.056,10.5-7.225,22.111-10.834,13.223-4.11,25.112-9.222,34.889-15.444,5.982-3.806,29.445-19.111,30.556-26,.912-5.654-2-9.111-8.445-15.222-6.412-6.081-12.777-8.889-27.333-11.778-12.288-2.439-22-2.889-37.778-.778-14.071,1.883-26,6-36.444,9.667-5.843,2.052-15.833,8.111-21.111,9.333s-10.305-1.817-14.111-7.444c-5.111-7.556-70.723-125.389-74.639-133.139-4.1-8.116-24.417-45.361-30.806-49.305s-18.5,5.388-27.389,9.166a188.681,188.681,0,0,1-27.805,8.639c-17.417,3.583-35.736,2.838-55.334,2.917-20.583.083-33.361-1.389-66.694-8.056S108.4,1571.8,78.9,1565.634s-57.889-10.612-64.389-13.278-3-8.5,2.666-10.167,23-9.5,28.917-11.167c6.5-1.833,11.311-5.754,8.083-15-3.083-8.833-17.071-46.284-20.666-55.333-2.417-6.083-4.334-13.667,6.5-19.083,9.766-4.883,43.166-15.222,59.666-21.862s60.611-22.444,73.223-27.888,32.166-14,41.777-20.334,19.834-15.166,26.667-16.583,11.291,6.221,15.083,11.25c3.834,5.083,33.528,48,41.25,59.555s51.162,89.333,55.223,95.112c2.889,4.111,5.623,12.658,15,7.333,9-5.111,236.889-136.889,242.111-140.167,4.742-2.976,6.666-6.666,3-12.916-3.753-6.4-16.5-28.862-20.834-35.584s-29.833-50.055-37.388-63.555-10.721-39.811-14.278-46.111c-2.917-5.167-8.357-5.056-12.25-3.917-4.084,1.195-28.584,9.833-35.25,12.5a186.687,186.687,0,0,0-26.042,13.25c-5.577,3.471-10.639,2.57-15.083-4.208s-19.042-34.417-21.542-38.625c-1.589-2.675-4.861-6.792-.167-11.125s31.806-11.417,44.25-14.083a190.262,190.262,0,0,1,35.528-4.625c13.278-.445,49.222-6.056,62.667-.834s23.5,8.889,33.111,20.556,12.247,15.805,19.389,27.333c7.055,11.389,78.051,133.608,86.639,146.694,3.5,5.334,9.916,6.7,13.916,4.917s160.667-93.167,160.667-93.167"/><use id="35bcf71f-ce31-4959-b90e-c16224f2e2e2" data-name="Start-Finish-Line" width="200" height="103.617" transform="translate(888.591 1316.514) rotate(-120.642) scale(0.287)" xlink:href="#ff0feed7-a145-4e23-9d5a-c35fdd1e0097"/></g></g></g></svg>