<svg xmlns="http://www.w3.org/2000/svg" xmlns:xlink="http://www.w3.org/1999/xlink" width="1223.401" height="2086.854" viewBox="0 0 1223.401 2086.854"><defs><style>.\32 700d54c-a631-474a-a23d-89e5e9769809{fill:#00ff24;}.\32 700d54c-a631-474a-a23d-89e5e9769809,.\33 df72122-9255-4cb1-b68c-0ab8a1ce031e{stroke:#000;stroke-width:5px;}.\31 8f337b0-9d0b-4ff7-8f50-6ac88d1a122c,.\32 700d54c-a631-474a-a23d-89e5e9769809,.\32 9eddd49-fc19-4d47-844b-3780ceb61c45,.\33 df72122-9255-4cb1-b68c-0ab8a1ce031e,.\35 82a9ec3-6286-4a23-97f5-a8e7a4ab4f13,.\38 5d38bcc-812f-4528-9ef8-073d000b8ab6,.f5675508-5dae-4e8c-9c00-e527d701b75d{stroke-miterlimit:10;}.\33 df72122-9255-4cb1-b68c-0ab8a1ce031e{fill:#fff;}.\31 8f337b0-9d0b-4ff7-8f50-6ac88d1a122c,.\32 9eddd49-fc19-4d47-844b-3780ceb61c45,.\35 82a9ec3-6286-4a23-97f5-a8e7a4ab4f13,.\38 5d38bcc-812f-4528-9ef8-073d000b8ab6,.f5675508-5dae-4e8c-9c00-e527d701b75d{fill:none;}.\31 8f337b0-9d0b-4ff7-8f50-6ac88d1a122c,.\32 9eddd49-fc19-4d47-844b-3780ceb61c45{stroke:#c91c1c;}.\32 9eddd49-fc19-4d47-844b-3780ceb61c45,.\35 82a9ec3-6286-4a23-97f5-a8e7a4ab4f13{stroke-width:22px;}.\35 82a9ec3-6286-4a23-97f5-a8e7a4ab4f13,.\38 5d38bcc-812f-4528-9ef8-073d000b8ab6{stroke:#0080ff;}.f5675508-5dae-4e8c-9c00-e527d701b75d{stroke:#fff;stroke-width:12.5px;}.\31 8f337b0-9d0b-4ff7-8f50-6ac88d1a122c,.\38 5d38bcc-812f-4528-9ef8-073d000b8ab6{stroke-width:2.2px;}</style><symbol id="97c3b2f6-74d3-4d86-881f-2cb0c14116bf" data-name="fd103434-89f2-4089-acf9-54fed79ed404" viewBox="0 0 200 103.617"><rect class="2700d54c-a631-474a-a23d-89e5e9769809" x="2.5" y="54.074" width="195" height="47.043"/><rect class="3df72122-9255-4cb1-b68c-0ab8a1ce031e" x="2.5" y="2.5" width="48.75" height="48.75"/><rect class="3df72122-9255-4cb1-b68c-0ab8a1ce031e" x="51.25" y="2.5" width="48.75" height="48.75"/><rect class="3df72122-9255-4cb1-b68c-0ab8a1ce031e" x="100" y="2.5" width="48.75" height="48.75"/><rect class="3df72122-9255-4cb1-b68c-0ab8a1ce031e" x="148.75" y="2.5" width="48.75" height="48.75"/></symbol></defs><title>Blaine_County_24h_Long</title><g id="dbf90cdd-eef6-4d51-961c-bb9681ee8635" data-name="Layer 2"><g id="3322fcf8-eb9b-47c3-ac61-5eee5297760b" data-name="Broughy1322"><g id="7c96b10d-1c9b-49ef-b375-d788128760eb" data-name="Blaine_County_24h_Long"><path id="dc41d0af-3452-473a-bb36-04d1bc6f38b4" data-name="Pitlane Outer" class="29eddd49-fc19-4d47-844b-3780ceb61c45" d="M1111.057,1448.617c-7.394,29.864,15.549,28.815,6.786,54.128-6,17.333-16.164,45.363-25.333,68.777-12.444,31.778-20.333,49.445-35.444,84.334-10.2,23.555-27.278,9.708-38.778,35.375"/><path id="f54bd7c1-b58d-401d-8f3c-a9584743ed99" data-name="Track Outer" class="582a9ec3-6286-4a23-97f5-a8e7a4ab4f13" d="M544.288,1284.522s45.111-25.833,66-38.833c11.187-6.962,43.614-27.836,70.667-56.5,23.46-24.858,43.419-57.721,47.778-65.222,11.555-19.889,18.131-37.5,30.333-64.889,7.647-17.162,15.092-33.3,19.707-42.374,3.1-6.1-1.04-9.459-4.485-12.126,0,0-10.833-7.555-15.417-12.889-9.75-9.583-22.249-34.471-27.916-53.833a174.673,174.673,0,0,1-7.112-49.889c.088-17.322,4.643-35.193,7.112-46.222,2.22-9.921,5.778-25.556,10.666-38.889,6.4-17.461,11.958-33.324,13.778-40.222a143.478,143.478,0,0,0,4.556-34.111c.25-11-1.334-47.112-2.556-62.445-1.044-13.1-9-30.667-14.889-42.889s-14.221-32.354-24.555-45.444c-10-12.667-29.345-30.545-37.556-39S639.6,496.6,635.51,493.411A100.609,100.609,0,0,0,608.843,478.3c-11.333-4.444-66.222-17.777-66.222-17.777s-34.652-7.619-48.326-10.56-28.618-9.274-41.785-7.774-16,3.667-26.667,13.222c-10.434,9.348-98.222,99.223-105.555,104.778s-23.86,15.687-36.333,20.445c-4.85,1.85-20.458,6.64-37.778,10.444-21.17,4.649-44.906,8.338-54.778,9.778-10.667,1.555-66.895,7.756-76.722,7.889-12.389.166-23.953-9.531-30.389-15.723-3.391-3.262-9.75-10.083-17.417-17.416-6.961-6.658-14.025-13.941-17.5-18.75-7.166-9.917-8.833-14.75-9-26.75S42.205,504,42.288,493.022a73.647,73.647,0,0,0-5.917-28.333c-2.97-7.224-8.666-20.25-10.666-28.333s-3-18.25-3.334-30.167S20.01,380.717,18.4,366.411s-6.306-40.333-6.944-51.639-1.223-23.361,2.833-34,6.055-13.416,12.778-18.583,10.517-6.939,19.555-11.667c5.417-2.833,9.983-4.864,16.75-9.25a137.91,137.91,0,0,0,16.5-12.916c4.056-3.695,21.75-22.389,29.972-30.056s24.139-23.5,34.112-31.861,37.056-29.468,45.416-36.333c10.25-8.417,49.445-41.25,62.334-43.917,6.369-1.318,9.906-2.209,19.666-.417,4.833.888,8.667,4.5,15.417,8,4.575,2.373,10.167-4,12.667-6.25,7.884-7.095,39.853-34.827,57.583-47.916,12.417-9.167,21.947-14.426,43-18.917,18.75-4,31.639-8.694,56.083-7.583s46.084,12.417,46.084,12.417,47.75,21.29,61.166,26.416c10.25,3.917,17.5,2.75,28.167-4.25s31-26,41.417-33.25,27.083-2.25,33.583,7.667c5.61,8.558,5.083,12,5.583,19.417.623,9.242.274,14.956,2.167,24.333,1.75,8.667,6.972,11.75,16.555,18.667s24.778,15,37.778,22.333,22.889,14,36.445,20.667,23.111,10.222,32.777,10.111,26.334-4.111,26.334-4.111S926.4,105.078,940.843,103.411s23.445-1.166,32.445,8.028,10.445,29.306,10.445,29.306,3.222,32.778,4.777,43,3.833,22.944,8.528,31.361,18.417,21.667,18.417,21.667,15.583,14.416,20.083,21.083-5.083,16.417,1.333,25.417a165.649,165.649,0,0,1,12.834,20.25c4.416,8,14.083,30.916,14.083,30.916s35.278,89.389,41.055,99.528,8.195,11.139,13.528,14.889,17.084,6.417,26.834,10,15.333,4.25,23.5,9.083,13.25,10.167,18.333,17.5,13.611,32.139,15.695,41.639,5.555,39.445,6.222,50.445,2.778,23.555,3,39.444,1.444,27-1.445,43.222-4.777,19.111-11.555,29.222-15.445,15.112-24.556,19.778-19.666,9.834-28.944,13.584-57.722,19.861-68.834,23.638-39.222,8-46,18.445-.888,22.222,5.334,39,13.54,37.513,20.111,54.222c7.777,19.778,31.722,80.833,37.222,95.556s29.389,89.5,32.167,100.555,16.666,62.334,19.333,84c1.08,8.778,3.233,24.052,5,46.667,1.408,18.024,1.893,37.9,2,46.666a570.52,570.52,0,0,1-3.833,64.5c-3.386,27.337-11.334,54.167-15.834,70.667s-22.833,91.333-31.333,119-32,85.833-32,85.833-46.278,109.445-57.278,135.889-25.775,61.572-38,83.556c-13.222,23.777-31.857,57.163-45.222,76.444-13.555,19.556-54.222,71.167-62.778,80.223s-38.389,34.722-57.222,47.555-79.167,45.833-79.167,45.833-56.166,33.278-65.278,34.5-13.333-.888-22.666-7.111c-7.568-5.045-33.334-18.777-46.444-23.667s-32.945-11.222-61.667-16c-19.284-3.208-46.278-8.389-71.945-16.889-25.823-8.552-55.611-20.167-81.833-33.5a713.127,713.127,0,0,1-68-39.667c-16.373-10.8-32.775-22.928-41.222-30.055-8.021-6.768-21.911-18.544-34.278-30.445-15.044-14.477-28.036-28.985-30-31.445-6.389-8-21.457-26.662-29.945-39.444s-20.777-33-28-44.222c-5.11-7.556-76.3-134.94-80.722-142.722-5.25-9.25-16.083-28.084-20.5-35.334-2.633-4.323-2.5-10.166,4.084-14s493.583-286.5,493.583-286.5"/><path id="bb6018e9-c3e1-489b-b25e-f715579beadb" data-name="Track Middle" class="f5675508-5dae-4e8c-9c00-e527d701b75d" d="M544.288,1284.522s45.111-25.833,66-38.833c11.187-6.962,43.614-27.836,70.667-56.5,23.46-24.858,43.419-57.721,47.778-65.222,11.555-19.889,18.131-37.5,30.333-64.889,7.647-17.162,15.092-33.3,19.707-42.374,3.1-6.1-1.04-9.459-4.485-12.126,0,0-10.833-7.555-15.417-12.889-9.75-9.583-22.249-34.471-27.916-53.833a174.673,174.673,0,0,1-7.112-49.889c.088-17.322,4.643-35.193,7.112-46.222,2.22-9.921,5.778-25.556,10.666-38.889,6.4-17.461,11.958-33.324,13.778-40.222a143.478,143.478,0,0,0,4.556-34.111c.25-11-1.334-47.112-2.556-62.445-1.044-13.1-9-30.667-14.889-42.889s-14.221-32.354-24.555-45.444c-10-12.667-29.345-30.545-37.556-39S639.6,496.6,635.51,493.411A100.609,100.609,0,0,0,608.843,478.3c-11.333-4.444-66.222-17.777-66.222-17.777s-34.652-7.619-48.326-10.56-28.618-9.274-41.785-7.774-16,3.667-26.667,13.222c-10.434,9.348-98.222,99.223-105.555,104.778s-23.86,15.687-36.333,20.445c-4.85,1.85-20.458,6.64-37.778,10.444-21.17,4.649-44.906,8.338-54.778,9.778-10.667,1.555-66.895,7.756-76.722,7.889-12.389.166-23.953-9.531-30.389-15.723-3.391-3.262-9.75-10.083-17.417-17.416-6.961-6.658-14.025-13.941-17.5-18.75-7.166-9.917-8.833-14.75-9-26.75S42.205,504,42.288,493.022a73.647,73.647,0,0,0-5.917-28.333c-2.97-7.224-8.666-20.25-10.666-28.333s-3-18.25-3.334-30.167S20.01,380.717,18.4,366.411s-6.306-40.333-6.944-51.639-1.223-23.361,2.833-34,6.055-13.416,12.778-18.583,10.517-6.939,19.555-11.667c5.417-2.833,9.983-4.864,16.75-9.25a137.91,137.91,0,0,0,16.5-12.916c4.056-3.695,21.75-22.389,29.972-30.056s24.139-23.5,34.112-31.861,37.056-29.468,45.416-36.333c10.25-8.417,49.445-41.25,62.334-43.917,6.369-1.318,9.906-2.209,19.666-.417,4.833.888,8.667,4.5,15.417,8,4.575,2.373,10.167-4,12.667-6.25,7.884-7.095,39.853-34.827,57.583-47.916,12.417-9.167,21.947-14.426,43-18.917,18.75-4,31.639-8.694,56.083-7.583s46.084,12.417,46.084,12.417,47.75,21.29,61.166,26.416c10.25,3.917,17.5,2.75,28.167-4.25s31-26,41.417-33.25,27.083-2.25,33.583,7.667c5.61,8.558,5.083,12,5.583,19.417.623,9.242.274,14.956,2.167,24.333,1.75,8.667,6.972,11.75,16.555,18.667s24.778,15,37.778,22.333,22.889,14,36.445,20.667,23.111,10.222,32.777,10.111,26.334-4.111,26.334-4.111S926.4,105.078,940.843,103.411s23.445-1.166,32.445,8.028,10.445,29.306,10.445,29.306,3.222,32.778,4.777,43,3.833,22.944,8.528,31.361,18.417,21.667,18.417,21.667,15.583,14.416,20.083,21.083-5.083,16.417,1.333,25.417a165.649,165.649,0,0,1,12.834,20.25c4.416,8,14.083,30.916,14.083,30.916s35.278,89.389,41.055,99.528,8.195,11.139,13.528,14.889,17.084,6.417,26.834,10,15.333,4.25,23.5,9.083,13.25,10.167,18.333,17.5,13.611,32.139,15.695,41.639,5.555,39.445,6.222,50.445,2.778,23.555,3,39.444,1.444,27-1.445,43.222-4.777,19.111-11.555,29.222-15.445,15.112-24.556,19.778-19.666,9.834-28.944,13.584-57.722,19.861-68.834,23.638-39.222,8-46,18.445-.888,22.222,5.334,39,13.54,37.513,20.111,54.222c7.777,19.778,31.722,80.833,37.222,95.556s29.389,89.5,32.167,100.555,16.666,62.334,19.333,84c1.08,8.778,3.233,24.052,5,46.667,1.408,18.024,1.893,37.9,2,46.666a570.52,570.52,0,0,1-3.833,64.5c-3.386,27.337-11.334,54.167-15.834,70.667s-22.833,91.333-31.333,119-32,85.833-32,85.833-46.278,109.445-57.278,135.889-25.775,61.572-38,83.556c-13.222,23.777-31.857,57.163-45.222,76.444-13.555,19.556-54.222,71.167-62.778,80.223s-38.389,34.722-57.222,47.555-79.167,45.833-79.167,45.833-56.166,33.278-65.278,34.5-13.333-.888-22.666-7.111c-7.568-5.045-33.334-18.777-46.444-23.667s-32.945-11.222-61.667-16c-19.284-3.208-46.278-8.389-71.945-16.889-25.823-8.552-55.611-20.167-81.833-33.5a713.127,713.127,0,0,1-68-39.667c-16.373-10.8-32.775-22.928-41.222-30.055-8.021-6.768-21.911-18.544-34.278-30.445-15.044-14.477-28.036-28.985-30-31.445-6.389-8-21.457-26.662-29.945-39.444s-20.777-33-28-44.222c-5.11-7.556-76.3-134.94-80.722-142.722-5.25-9.25-16.083-28.084-20.5-35.334-2.633-4.323-2.5-10.166,4.084-14s493.583-286.5,493.583-286.5"/><path id="0cc764bb-e1bd-463f-af3a-71d3cfe0e70c" data-name="Pitlane Middle" class="f5675508-5dae-4e8c-9c00-e527d701b75d" d="M1111.057,1448.617c-7.394,29.864,15.549,28.815,6.786,54.128-6,17.333-16.164,45.363-25.333,68.777-12.444,31.778-20.333,49.445-35.444,84.334-10.2,23.555-27.278,9.708-38.778,35.375"/><path id="dafde179-3f69-4a95-b1ce-7cd9f44776dc" data-name="Pitlane Inner" class="18f337b0-9d0b-4ff7-8f50-6ac88d1a122c" d="M1111.057,1448.617c-7.394,29.864,15.549,28.815,6.786,54.128-6,17.333-16.164,45.363-25.333,68.777-12.444,31.778-20.333,49.445-35.444,84.334-10.2,23.555-27.278,9.708-38.778,35.375"/><path id="9c9b03c7-a529-4ae5-a866-9c4332424a1a" data-name="Track Inner" class="85d38bcc-812f-4528-9ef8-073d000b8ab6" d="M544.288,1284.522s45.111-25.833,66-38.833c11.187-6.962,43.614-27.836,70.667-56.5,23.46-24.858,43.419-57.721,47.778-65.222,11.555-19.889,18.131-37.5,30.333-64.889,7.647-17.162,15.092-33.3,19.707-42.374,3.1-6.1-1.04-9.459-4.485-12.126,0,0-10.833-7.555-15.417-12.889-9.75-9.583-22.249-34.471-27.916-53.833a174.673,174.673,0,0,1-7.112-49.889c.088-17.322,4.643-35.193,7.112-46.222,2.22-9.921,5.778-25.556,10.666-38.889,6.4-17.461,11.958-33.324,13.778-40.222a143.478,143.478,0,0,0,4.556-34.111c.25-11-1.334-47.112-2.556-62.445-1.044-13.1-9-30.667-14.889-42.889s-14.221-32.354-24.555-45.444c-10-12.667-29.345-30.545-37.556-39S639.6,496.6,635.51,493.411A100.609,100.609,0,0,0,608.843,478.3c-11.333-4.444-66.222-17.777-66.222-17.777s-34.652-7.619-48.326-10.56-28.618-9.274-41.785-7.774-16,3.667-26.667,13.222c-10.434,9.348-98.222,99.223-105.555,104.778s-23.86,15.687-36.333,20.445c-4.85,1.85-20.458,6.64-37.778,10.444-21.17,4.649-44.906,8.338-54.778,9.778-10.667,1.555-66.895,7.756-76.722,7.889-12.389.166-23.953-9.531-30.389-15.723-3.391-3.262-9.75-10.083-17.417-17.416-6.961-6.658-14.025-13.941-17.5-18.75-7.166-9.917-8.833-14.75-9-26.75S42.205,504,42.288,493.022a73.647,73.647,0,0,0-5.917-28.333c-2.97-7.224-8.666-20.25-10.666-28.333s-3-18.25-3.334-30.167S20.01,380.717,18.4,366.411s-6.306-40.333-6.944-51.639-1.223-23.361,2.833-34,6.055-13.416,12.778-18.583,10.517-6.939,19.555-11.667c5.417-2.833,9.983-4.864,16.75-9.25a137.91,137.91,0,0,0,16.5-12.916c4.056-3.695,21.75-22.389,29.972-30.056s24.139-23.5,34.112-31.861,37.056-29.468,45.416-36.333c10.25-8.417,49.445-41.25,62.334-43.917,6.369-1.318,9.906-2.209,19.666-.417,4.833.888,8.667,4.5,15.417,8,4.575,2.373,10.167-4,12.667-6.25,7.884-7.095,39.853-34.827,57.583-47.916,12.417-9.167,21.947-14.426,43-18.917,18.75-4,31.639-8.694,56.083-7.583s46.084,12.417,46.084,12.417,47.75,21.29,61.166,26.416c10.25,3.917,17.5,2.75,28.167-4.25s31-26,41.417-33.25,27.083-2.25,33.583,7.667c5.61,8.558,5.083,12,5.583,19.417.623,9.242.274,14.956,2.167,24.333,1.75,8.667,6.972,11.75,16.555,18.667s24.778,15,37.778,22.333,22.889,14,36.445,20.667,23.111,10.222,32.777,10.111,26.334-4.111,26.334-4.111S926.4,105.078,940.843,103.411s23.445-1.166,32.445,8.028,10.445,29.306,10.445,29.306,3.222,32.778,4.777,43,3.833,22.944,8.528,31.361,18.417,21.667,18.417,21.667,15.583,14.416,20.083,21.083-5.083,16.417,1.333,25.417a165.649,165.649,0,0,1,12.834,20.25c4.416,8,14.083,30.916,14.083,30.916s35.278,89.389,41.055,99.528,8.195,11.139,13.528,14.889,17.084,6.417,26.834,10,15.333,4.25,23.5,9.083,13.25,10.167,18.333,17.5,13.611,32.139,15.695,41.639,5.555,39.445,6.222,50.445,2.778,23.555,3,39.444,1.444,27-1.445,43.222-4.777,19.111-11.555,29.222-15.445,15.112-24.556,19.778-19.666,9.834-28.944,13.584-57.722,19.861-68.834,23.638-39.222,8-46,18.445-.888,22.222,5.334,39,13.54,37.513,20.111,54.222c7.777,19.778,31.722,80.833,37.222,95.556s29.389,89.5,32.167,100.555,16.666,62.334,19.333,84c1.08,8.778,3.233,24.052,5,46.667,1.408,18.024,1.893,37.9,2,46.666a570.52,570.52,0,0,1-3.833,64.5c-3.386,27.337-11.334,54.167-15.834,70.667s-22.833,91.333-31.333,119-32,85.833-32,85.833-46.278,109.445-57.278,135.889-25.775,61.572-38,83.556c-13.222,23.777-31.857,57.163-45.222,76.444-13.555,19.556-54.222,71.167-62.778,80.223s-38.389,34.722-57.222,47.555-79.167,45.833-79.167,45.833-56.166,33.278-65.278,34.5-13.333-.888-22.666-7.111c-7.568-5.045-33.334-18.777-46.444-23.667s-32.945-11.222-61.667-16c-19.284-3.208-46.278-8.389-71.945-16.889-25.823-8.552-55.611-20.167-81.833-33.5a713.127,713.127,0,0,1-68-39.667c-16.373-10.8-32.775-22.928-41.222-30.055-8.021-6.768-21.911-18.544-34.278-30.445-15.044-14.477-28.036-28.985-30-31.445-6.389-8-21.457-26.662-29.945-39.444s-20.777-33-28-44.222c-5.11-7.556-76.3-134.94-80.722-142.722-5.25-9.25-16.083-28.084-20.5-35.334-2.633-4.323-2.5-10.166,4.084-14s493.583-286.5,493.583-286.5"/><use id="825a1ce5-7e2a-45eb-b31f-6e4e3ddbfd61" data-name="Start-Finish-Line" width="200" height="103.617" transform="translate(546.538 1316.514) rotate(-120.642) scale(0.287)" xlink:href="#97c3b2f6-74d3-4d86-881f-2cb0c14116bf"/></g></g></g></svg>