<svg xmlns="http://www.w3.org/2000/svg" xmlns:xlink="http://www.w3.org/1999/xlink" width="1128.58" height="1331.686" viewBox="0 0 1128.58 1331.686"><defs><style>.bb7e0ff9-9f5c-4422-bee9-73ee19fe4a39{fill:#00ff24;}.bb7e0ff9-9f5c-4422-bee9-73ee19fe4a39,.cbfece4c-7951-4fac-bd44-77df4849fe5c{stroke:#000;stroke-width:5px;}.\31 2d73cc8-6873-4b03-9163-912ecae62ad3,.\38 59fbc2a-f0a0-41fa-ba4a-1f44dc5373e0,.\39 76c726b-8d81-41c8-9115-7f0d0f229556,.bb75c571-0635-49ef-93da-cd731f4fe52e,.bb7e0ff9-9f5c-4422-bee9-73ee19fe4a39,.cb3711dd-ef59-487b-85e3-3548f6ba73a8,.cbfece4c-7951-4fac-bd44-77df4849fe5c{stroke-miterlimit:10;}.cbfece4c-7951-4fac-bd44-77df4849fe5c{fill:#fff;}.\31 2d73cc8-6873-4b03-9163-912ecae62ad3,.\38 59fbc2a-f0a0-41fa-ba4a-1f44dc5373e0,.\39 76c726b-8d81-41c8-9115-7f0d0f229556,.bb75c571-0635-49ef-93da-cd731f4fe52e,.cb3711dd-ef59-487b-85e3-3548f6ba73a8{fill:none;}.\38 59fbc2a-f0a0-41fa-ba4a-1f44dc5373e0,.cb3711dd-ef59-487b-85e3-3548f6ba73a8{stroke:#c91c1c;}.bb75c571-0635-49ef-93da-cd731f4fe52e,.cb3711dd-ef59-487b-85e3-3548f6ba73a8{stroke-width:22px;}.\31 2d73cc8-6873-4b03-9163-912ecae62ad3,.bb75c571-0635-49ef-93da-cd731f4fe52e{stroke:#0080ff;}.\39 76c726b-8d81-41c8-9115-7f0d0f229556{stroke:#fff;stroke-width:12.5px;}.\31 2d73cc8-6873-4b03-9163-912ecae62ad3,.\38 59fbc2a-f0a0-41fa-ba4a-1f44dc5373e0{stroke-width:2.2px;}</style><symbol id="9a505cb3-5328-448f-8fd8-eca4ee2e14e1" data-name="fd103434-89f2-4089-acf9-54fed79ed404" viewBox="0 0 200 103.617"><rect class="bb7e0ff9-9f5c-4422-bee9-73ee19fe4a39" x="2.5" y="54.074" width="195" height="47.043"/><rect class="cbfece4c-7951-4fac-bd44-77df4849fe5c" x="2.5" y="2.5" width="48.75" height="48.75"/><rect class="cbfece4c-7951-4fac-bd44-77df4849fe5c" x="51.25" y="2.5" width="48.75" height="48.75"/><rect class="cbfece4c-7951-4fac-bd44-77df4849fe5c" x="100" y="2.5" width="48.75" height="48.75"/><rect class="cbfece4c-7951-4fac-bd44-77df4849fe5c" x="148.75" y="2.5" width="48.75" height="48.75"/></symbol></defs><title>Blaine_County_24h_South</title><g id="c885c786-c3be-4e9a-9e6e-c9698c2287b4" data-name="Layer 2"><g id="3debd444-7687-4f42-909b-76e9be379c06" data-name="Broughy1322"><g id="eaa71d27-2e10-4f54-b233-7d46fe8aba61" data-name="Blaine_County_24h_South"><path id="02051d31-6320-4679-8a10-4749be5c0a94" data-name="Pitlane Outer" class="cb3711dd-ef59-487b-85e3-3548f6ba73a8" d="M1076.833,693.449c-7.393,29.864,15.55,28.815,6.787,54.128-6,17.333-16.164,45.363-25.333,68.777-12.444,31.778-20.333,49.445-35.444,84.334-10.2,23.555-27.278,9.708-38.778,35.375"/><path id="be9263ef-e1bf-4c59-b465-b54baa47231e" data-name="Track Outer" class="bb75c571-0635-49ef-93da-cd731f4fe52e" d="M510.065,529.354s45.111-25.833,66-38.833c11.187-6.962,43.613-27.836,70.667-56.5,23.46-24.858,43.419-57.721,47.777-65.222,11.556-19.889,18.132-37.5,30.333-64.889,7.647-17.162,15.093-33.3,19.707-42.374,3.1-6.1,20.294-40.4,32.071-57.737,5.6-8.241,24.882-45.956,49.778-78.889,15.068-19.932,24.412-31.9,33.333-41.889a238.121,238.121,0,0,1,27.112-25.889C900.465,45.751,918.358,30.5,943.9,20.021c23.708-9.728,36.167-11.167,42.667-6.333s8.944,18.222,15.167,35,13.54,37.513,20.11,54.222c7.778,19.778,31.723,80.833,37.223,95.556s29.389,89.5,32.167,100.555,16.666,62.334,19.333,84c1.08,8.778,3.233,24.052,5,46.667,1.408,18.024,1.893,37.905,2,46.666a570.52,570.52,0,0,1-3.833,64.5c-3.387,27.337-11.334,54.167-15.834,70.667s-22.833,91.333-31.333,119-32,85.833-32,85.833S988.287,925.8,977.287,952.243s-25.776,61.572-38,83.556c-13.222,23.777-31.857,57.163-45.222,76.444-13.556,19.556-54.223,71.167-62.778,80.223s-38.389,34.722-57.222,47.555-79.167,45.833-79.167,45.833-56.166,33.278-65.278,34.5-13.333-.888-22.666-7.111c-7.568-5.045-33.334-18.777-46.445-23.667s-41.539-14.681-59-15.333c-14.889-.555-18.027-.389-23.777,2.778s-34.647,33.358-40,36.278c-3.056,1.667-7.5,1.5-11.834-.945-4.444-2.5-22-15.416-31.666-19.333s-22.917-7.75-33.667-7.833c-8.462-.066-32.625,4.661-38.75,4.916a5.587,5.587,0,0,1-5.417-5.833c.417-4.333,7.028-9.847,9.611-14.139a55.692,55.692,0,0,0,5.723-11.611c2.043-6.052,2.385-14.831,1.388-19.167-2.222-9.666-5.111-20.388-15.778-29.722-4.269-3.735-22.191-14.185-40.277-26.111-16.373-10.8-32.775-22.928-41.223-30.055-8.021-6.768-21.91-18.544-34.277-30.445-15.044-14.477-28.171-28.883-30-31.445-3.845-5.382-4.778-11.055-.278-15.166,3.346-3.056,10.5-7.225,22.111-10.834,13.222-4.11,25.111-9.222,34.889-15.444,5.981-3.806,29.445-19.111,30.555-26,.913-5.654-2-9.111-8.444-15.222-6.412-6.081-12.778-8.889-27.333-11.778-12.288-2.439-22-2.889-37.778-.778-14.071,1.883-26,6-36.445,9.667-5.842,2.052-15.833,8.111-21.11,9.333s-10.3-1.817-14.112-7.444c-5.111-7.556-70.722-125.389-74.638-133.139-4.1-8.116-21.834-38.5-25.917-44.667-4.363-6.588-1.287-12.178,4.333-15.416,4.917-2.834,492.667-285.334,492.667-285.334"/><path id="f5469507-8a64-4d80-a64f-e335ef15fe27" data-name="Track Middle" class="976c726b-8d81-41c8-9115-7f0d0f229556" d="M510.065,529.354s45.111-25.833,66-38.833c11.187-6.962,43.613-27.836,70.667-56.5,23.46-24.858,43.419-57.721,47.777-65.222,11.556-19.889,18.132-37.5,30.333-64.889,7.647-17.162,15.093-33.3,19.707-42.374,3.1-6.1,20.294-40.4,32.071-57.737,5.6-8.241,24.882-45.956,49.778-78.889,15.068-19.932,24.412-31.9,33.333-41.889a238.121,238.121,0,0,1,27.112-25.889C900.465,45.751,918.358,30.5,943.9,20.021c23.708-9.728,36.167-11.167,42.667-6.333s8.944,18.222,15.167,35,13.54,37.513,20.11,54.222c7.778,19.778,31.723,80.833,37.223,95.556s29.389,89.5,32.167,100.555,16.666,62.334,19.333,84c1.08,8.778,3.233,24.052,5,46.667,1.408,18.024,1.893,37.905,2,46.666a570.52,570.52,0,0,1-3.833,64.5c-3.387,27.337-11.334,54.167-15.834,70.667s-22.833,91.333-31.333,119-32,85.833-32,85.833S988.287,925.8,977.287,952.243s-25.776,61.572-38,83.556c-13.222,23.777-31.857,57.163-45.222,76.444-13.556,19.556-54.223,71.167-62.778,80.223s-38.389,34.722-57.222,47.555-79.167,45.833-79.167,45.833-56.166,33.278-65.278,34.5-13.333-.888-22.666-7.111c-7.568-5.045-33.334-18.777-46.445-23.667s-41.539-14.681-59-15.333c-14.889-.555-18.027-.389-23.777,2.778s-34.647,33.358-40,36.278c-3.056,1.667-7.5,1.5-11.834-.945-4.444-2.5-22-15.416-31.666-19.333s-22.917-7.75-33.667-7.833c-8.462-.066-32.625,4.661-38.75,4.916a5.587,5.587,0,0,1-5.417-5.833c.417-4.333,7.028-9.847,9.611-14.139a55.692,55.692,0,0,0,5.723-11.611c2.043-6.052,2.385-14.831,1.388-19.167-2.222-9.666-5.111-20.388-15.778-29.722-4.269-3.735-22.191-14.185-40.277-26.111-16.373-10.8-32.775-22.928-41.223-30.055-8.021-6.768-21.91-18.544-34.277-30.445-15.044-14.477-28.171-28.883-30-31.445-3.845-5.382-4.778-11.055-.278-15.166,3.346-3.056,10.5-7.225,22.111-10.834,13.222-4.11,25.111-9.222,34.889-15.444,5.981-3.806,29.445-19.111,30.555-26,.913-5.654-2-9.111-8.444-15.222-6.412-6.081-12.778-8.889-27.333-11.778-12.288-2.439-22-2.889-37.778-.778-14.071,1.883-26,6-36.445,9.667-5.842,2.052-15.833,8.111-21.11,9.333s-10.3-1.817-14.112-7.444c-5.111-7.556-70.722-125.389-74.638-133.139-4.1-8.116-21.834-38.5-25.917-44.667-4.363-6.588-1.287-12.178,4.333-15.416,4.917-2.834,492.667-285.334,492.667-285.334"/><path id="6b112599-23bd-4a29-821b-15da9f1fe6ec" data-name="Pitlane Middle" class="976c726b-8d81-41c8-9115-7f0d0f229556" d="M1076.833,693.449c-7.393,29.864,15.55,28.815,6.787,54.128-6,17.333-16.164,45.363-25.333,68.777-12.444,31.778-20.333,49.445-35.444,84.334-10.2,23.555-27.278,9.708-38.778,35.375"/><path id="1f549e76-dfd6-45f7-a619-4c8f2d25dbeb" data-name="Pitlane Inner" class="859fbc2a-f0a0-41fa-ba4a-1f44dc5373e0" d="M1076.833,693.449c-7.393,29.864,15.55,28.815,6.787,54.128-6,17.333-16.164,45.363-25.333,68.777-12.444,31.778-20.333,49.445-35.444,84.334-10.2,23.555-27.278,9.708-38.778,35.375"/><path id="5305e3a7-b9fc-40bb-aa8a-15e7e8f7e5b9" data-name="Track Inner" class="12d73cc8-6873-4b03-9163-912ecae62ad3" d="M510.065,529.354s45.111-25.833,66-38.833c11.187-6.962,43.613-27.836,70.667-56.5,23.46-24.858,43.419-57.721,47.777-65.222,11.556-19.889,18.132-37.5,30.333-64.889,7.647-17.162,15.093-33.3,19.707-42.374,3.1-6.1,20.294-40.4,32.071-57.737,5.6-8.241,24.882-45.956,49.778-78.889,15.068-19.932,24.412-31.9,33.333-41.889a238.121,238.121,0,0,1,27.112-25.889C900.465,45.751,918.358,30.5,943.9,20.021c23.708-9.728,36.167-11.167,42.667-6.333s8.944,18.222,15.167,35,13.54,37.513,20.11,54.222c7.778,19.778,31.723,80.833,37.223,95.556s29.389,89.5,32.167,100.555,16.666,62.334,19.333,84c1.08,8.778,3.233,24.052,5,46.667,1.408,18.024,1.893,37.905,2,46.666a570.52,570.52,0,0,1-3.833,64.5c-3.387,27.337-11.334,54.167-15.834,70.667s-22.833,91.333-31.333,119-32,85.833-32,85.833S988.287,925.8,977.287,952.243s-25.776,61.572-38,83.556c-13.222,23.777-31.857,57.163-45.222,76.444-13.556,19.556-54.223,71.167-62.778,80.223s-38.389,34.722-57.222,47.555-79.167,45.833-79.167,45.833-56.166,33.278-65.278,34.5-13.333-.888-22.666-7.111c-7.568-5.045-33.334-18.777-46.445-23.667s-41.539-14.681-59-15.333c-14.889-.555-18.027-.389-23.777,2.778s-34.647,33.358-40,36.278c-3.056,1.667-7.5,1.5-11.834-.945-4.444-2.5-22-15.416-31.666-19.333s-22.917-7.75-33.667-7.833c-8.462-.066-32.625,4.661-38.75,4.916a5.587,5.587,0,0,1-5.417-5.833c.417-4.333,7.028-9.847,9.611-14.139a55.692,55.692,0,0,0,5.723-11.611c2.043-6.052,2.385-14.831,1.388-19.167-2.222-9.666-5.111-20.388-15.778-29.722-4.269-3.735-22.191-14.185-40.277-26.111-16.373-10.8-32.775-22.928-41.223-30.055-8.021-6.768-21.91-18.544-34.277-30.445-15.044-14.477-28.171-28.883-30-31.445-3.845-5.382-4.778-11.055-.278-15.166,3.346-3.056,10.5-7.225,22.111-10.834,13.222-4.11,25.111-9.222,34.889-15.444,5.981-3.806,29.445-19.111,30.555-26,.913-5.654-2-9.111-8.444-15.222-6.412-6.081-12.778-8.889-27.333-11.778-12.288-2.439-22-2.889-37.778-.778-14.071,1.883-26,6-36.445,9.667-5.842,2.052-15.833,8.111-21.11,9.333s-10.3-1.817-14.112-7.444c-5.111-7.556-70.722-125.389-74.638-133.139-4.1-8.116-21.834-38.5-25.917-44.667-4.363-6.588-1.287-12.178,4.333-15.416,4.917-2.834,492.667-285.334,492.667-285.334"/><use id="bb16d764-b1fb-48d0-96c9-5f5eaf0480eb" data-name="Start-Finish-Line" width="200" height="103.617" transform="translate(512.315 561.346) rotate(-120.642) scale(0.287)" xlink:href="#9a505cb3-5328-448f-8fd8-eca4ee2e14e1"/></g></g></g></svg>