<svg xmlns="http://www.w3.org/2000/svg" xmlns:xlink="http://www.w3.org/1999/xlink" width="724.547" height="447.38" viewBox="0 0 724.547 447.38"><defs><style>.\39 09d4e72-3cc5-4ab6-ac4f-99883969fa4a{fill:#00ff24;}.\39 09d4e72-3cc5-4ab6-ac4f-99883969fa4a,.d36eb32b-d360-43fb-ac16-2ac823594112{stroke:#000;stroke-width:5px;}.\38 48aece5-45c0-43f1-b174-93df70f2ae5a,.\39 09d4e72-3cc5-4ab6-ac4f-99883969fa4a,.ab61fedd-f0b9-4687-9892-9162f9c59414,.d36eb32b-d360-43fb-ac16-2ac823594112,.fa6aff41-f091-455a-b24e-a16473c25532{stroke-miterlimit:10;}.d36eb32b-d360-43fb-ac16-2ac823594112{fill:#fff;}.\38 48aece5-45c0-43f1-b174-93df70f2ae5a,.ab61fedd-f0b9-4687-9892-9162f9c59414,.fa6aff41-f091-455a-b24e-a16473c25532{fill:none;}.\38 48aece5-45c0-43f1-b174-93df70f2ae5a,.fa6aff41-f091-455a-b24e-a16473c25532{stroke:#0080ff;}.fa6aff41-f091-455a-b24e-a16473c25532{stroke-width:22px;}.ab61fedd-f0b9-4687-9892-9162f9c59414{stroke:#fff;stroke-width:12.5px;}.\38 48aece5-45c0-43f1-b174-93df70f2ae5a{stroke-width:2.2px;}</style><symbol id="6c0deab2-f340-4fa3-8f7e-6946c4778d46" data-name="fd103434-89f2-4089-acf9-54fed79ed404" viewBox="0 0 200 103.617"><rect class="909d4e72-3cc5-4ab6-ac4f-99883969fa4a" x="2.5" y="54.074" width="195" height="47.043"/><rect class="d36eb32b-d360-43fb-ac16-2ac823594112" x="2.5" y="2.5" width="48.75" height="48.75"/><rect class="d36eb32b-d360-43fb-ac16-2ac823594112" x="51.25" y="2.5" width="48.75" height="48.75"/><rect class="d36eb32b-d360-43fb-ac16-2ac823594112" x="100" y="2.5" width="48.75" height="48.75"/><rect class="d36eb32b-d360-43fb-ac16-2ac823594112" x="148.75" y="2.5" width="48.75" height="48.75"/></symbol></defs><title>Blaine_County_24h_Short</title><g id="b6a66520-0ac1-413a-99cd-8aa5a6429c53" data-name="Layer 2"><g id="f521d95f-8f7a-493b-8966-84339399fcd1" data-name="Broughy1322"><g id="5d6596f1-5479-4c25-a726-c61fd24085d1" data-name="Blaine_County_24h_Short"><path id="49c13ec3-c621-426f-a8e5-b4a2a74a7610" data-name="Track Outer" class="fa6aff41-f091-455a-b24e-a16473c25532" d="M497.424,344.96l-98.416,57.695S372.119,418.321,363.23,422.1c-8.134,3.458-25.639,10.306-34.056,11.722-17.535,2.952-35.652,2.477-55.25,2.556-20.583.084-33.361-1.389-66.694-8.056S108.4,406.821,78.9,400.655s-57.889-10.611-64.389-13.278-3-8.5,2.666-10.166,23-9.5,28.917-11.167c6.5-1.833,11.311-5.754,8.083-15-3.083-8.833-17.071-46.285-20.666-55.333-2.417-6.084-4.334-13.667,6.5-19.084,9.766-4.883,43.166-15.222,59.666-21.861s60.611-22.445,73.223-27.889,32.166-14,41.777-20.333,19.834-15.167,26.667-16.583,11.291,6.221,15.083,11.25c3.834,5.083,33.528,48,41.25,59.555S348.836,350.1,352.9,355.877c2.889,4.111,5.623,12.658,15,7.334,9-5.112,236.889-136.89,242.111-140.167,4.742-2.977,6.666-6.667,3-12.917-3.753-6.4-16.5-28.861-20.834-35.583s-29.833-50.056-37.388-63.556-10.721-39.811-14.278-46.111c-2.917-5.166-8.357-5.056-12.25-3.916-4.084,1.194-28.584,9.833-35.25,12.5a186.469,186.469,0,0,0-26.042,13.25c-5.577,3.47-10.639,2.569-15.083-4.209s-19.042-34.417-21.542-38.625c-1.589-2.675-4.861-6.792-.167-11.125s31.806-11.417,44.25-14.083a190.345,190.345,0,0,1,35.528-4.625c13.278-.445,49.222-6.056,62.667-.834s23.5,8.889,33.111,20.556S617.977,49.571,625.119,61.1c7.055,11.389,84.611,143.139,86.639,146.7s4.25,10.208-5.084,15.708c-8.99,5.3-209.25,121.458-209.25,121.458"/><path id="5a697072-0aad-48bf-9153-5ad9895bd73c" data-name="Track Middle" class="ab61fedd-f0b9-4687-9892-9162f9c59414" d="M497.424,344.96l-98.416,57.695S372.119,418.321,363.23,422.1c-8.134,3.458-25.639,10.306-34.056,11.722-17.535,2.952-35.652,2.477-55.25,2.556-20.583.084-33.361-1.389-66.694-8.056S108.4,406.821,78.9,400.655s-57.889-10.611-64.389-13.278-3-8.5,2.666-10.166,23-9.5,28.917-11.167c6.5-1.833,11.311-5.754,8.083-15-3.083-8.833-17.071-46.285-20.666-55.333-2.417-6.084-4.334-13.667,6.5-19.084,9.766-4.883,43.166-15.222,59.666-21.861s60.611-22.445,73.223-27.889,32.166-14,41.777-20.333,19.834-15.167,26.667-16.583,11.291,6.221,15.083,11.25c3.834,5.083,33.528,48,41.25,59.555S348.836,350.1,352.9,355.877c2.889,4.111,5.623,12.658,15,7.334,9-5.112,236.889-136.89,242.111-140.167,4.742-2.977,6.666-6.667,3-12.917-3.753-6.4-16.5-28.861-20.834-35.583s-29.833-50.056-37.388-63.556-10.721-39.811-14.278-46.111c-2.917-5.166-8.357-5.056-12.25-3.916-4.084,1.194-28.584,9.833-35.25,12.5a186.469,186.469,0,0,0-26.042,13.25c-5.577,3.47-10.639,2.569-15.083-4.209s-19.042-34.417-21.542-38.625c-1.589-2.675-4.861-6.792-.167-11.125s31.806-11.417,44.25-14.083a190.345,190.345,0,0,1,35.528-4.625c13.278-.445,49.222-6.056,62.667-.834s23.5,8.889,33.111,20.556S617.977,49.571,625.119,61.1c7.055,11.389,84.611,143.139,86.639,146.7s4.25,10.208-5.084,15.708c-8.99,5.3-209.25,121.458-209.25,121.458"/><path id="431bf5f3-3a85-4a6d-98f3-20ef63758692" data-name="Track Inner" class="848aece5-45c0-43f1-b174-93df70f2ae5a" d="M497.424,344.96l-98.416,57.695S372.119,418.321,363.23,422.1c-8.134,3.458-25.639,10.306-34.056,11.722-17.535,2.952-35.652,2.477-55.25,2.556-20.583.084-33.361-1.389-66.694-8.056S108.4,406.821,78.9,400.655s-57.889-10.611-64.389-13.278-3-8.5,2.666-10.166,23-9.5,28.917-11.167c6.5-1.833,11.311-5.754,8.083-15-3.083-8.833-17.071-46.285-20.666-55.333-2.417-6.084-4.334-13.667,6.5-19.084,9.766-4.883,43.166-15.222,59.666-21.861s60.611-22.445,73.223-27.889,32.166-14,41.777-20.333,19.834-15.167,26.667-16.583,11.291,6.221,15.083,11.25c3.834,5.083,33.528,48,41.25,59.555S348.836,350.1,352.9,355.877c2.889,4.111,5.623,12.658,15,7.334,9-5.112,236.889-136.89,242.111-140.167,4.742-2.977,6.666-6.667,3-12.917-3.753-6.4-16.5-28.861-20.834-35.583s-29.833-50.056-37.388-63.556-10.721-39.811-14.278-46.111c-2.917-5.166-8.357-5.056-12.25-3.916-4.084,1.194-28.584,9.833-35.25,12.5a186.469,186.469,0,0,0-26.042,13.25c-5.577,3.47-10.639,2.569-15.083-4.209s-19.042-34.417-21.542-38.625c-1.589-2.675-4.861-6.792-.167-11.125s31.806-11.417,44.25-14.083a190.345,190.345,0,0,1,35.528-4.625c13.278-.445,49.222-6.056,62.667-.834s23.5,8.889,33.111,20.556S617.977,49.571,625.119,61.1c7.055,11.389,84.611,143.139,86.639,146.7s4.25,10.208-5.084,15.708c-8.99,5.3-209.25,121.458-209.25,121.458"/><use id="50180a00-2a6e-4720-aec1-0bd6645a6a0e" data-name="Start-Finish-Line" width="200" height="103.617" transform="translate(499.394 377.102) rotate(-120.642) scale(0.287)" xlink:href="#6c0deab2-f340-4fa3-8f7e-6946c4778d46"/></g></g></g></svg>