<svg xmlns="http://www.w3.org/2000/svg" xmlns:xlink="http://www.w3.org/1999/xlink" width="649.976" height="823.429" viewBox="0 0 649.976 823.429"><defs><style>.\39 b960a07-9af3-404c-bb16-2c27552e7985{fill:#00ff24;}.\39 b960a07-9af3-404c-bb16-2c27552e7985,.f878f845-0e7a-4534-965b-61b187ae11e2{stroke:#000;stroke-width:5px;}.\32 1b7829f-0194-4708-9524-7c76638afde7,.\33 38c5a98-44e0-4835-a48c-341c8a2a56e4,.\36 baffda3-3f49-416b-8d17-b42cae1e3591,.\39 b960a07-9af3-404c-bb16-2c27552e7985,.bb4be49f-8102-4885-99cb-f60c9b33c48d,.e06dc12a-d11a-48a9-ae10-ea77889a4693,.f878f845-0e7a-4534-965b-61b187ae11e2{stroke-miterlimit:10;}.f878f845-0e7a-4534-965b-61b187ae11e2{fill:#fff;}.\32 1b7829f-0194-4708-9524-7c76638afde7,.\33 38c5a98-44e0-4835-a48c-341c8a2a56e4,.\36 baffda3-3f49-416b-8d17-b42cae1e3591,.bb4be49f-8102-4885-99cb-f60c9b33c48d,.e06dc12a-d11a-48a9-ae10-ea77889a4693{fill:none;}.\32 1b7829f-0194-4708-9524-7c76638afde7,.\33 38c5a98-44e0-4835-a48c-341c8a2a56e4{stroke:#c91c1c;}.\33 38c5a98-44e0-4835-a48c-341c8a2a56e4,.bb4be49f-8102-4885-99cb-f60c9b33c48d{stroke-width:20px;}.bb4be49f-8102-4885-99cb-f60c9b33c48d,.e06dc12a-d11a-48a9-ae10-ea77889a4693{stroke:#0080ff;}.\36 baffda3-3f49-416b-8d17-b42cae1e3591{stroke:#fff;stroke-width:12px;}.\32 1b7829f-0194-4708-9524-7c76638afde7,.e06dc12a-d11a-48a9-ae10-ea77889a4693{stroke-width:2px;}</style><symbol id="f694bf91-6289-4b81-b499-40e06d66afcf" data-name="fd103434-89f2-4089-acf9-54fed79ed404" viewBox="0 0 200 103.617"><rect class="9b960a07-9af3-404c-bb16-2c27552e7985" x="2.5" y="54.074" width="195" height="47.043"/><rect class="f878f845-0e7a-4534-965b-61b187ae11e2" x="2.5" y="2.5" width="48.75" height="48.75"/><rect class="f878f845-0e7a-4534-965b-61b187ae11e2" x="51.25" y="2.5" width="48.75" height="48.75"/><rect class="f878f845-0e7a-4534-965b-61b187ae11e2" x="100" y="2.5" width="48.75" height="48.75"/><rect class="f878f845-0e7a-4534-965b-61b187ae11e2" x="148.75" y="2.5" width="48.75" height="48.75"/></symbol></defs><title>Los_Santos_GP</title><g id="5e28b841-4c71-4238-a14b-b33c69bbab2e" data-name="Layer 2"><g id="311e27fe-fa95-41e7-a1e7-58102ac12e48" data-name="Broughy1322"><g id="3c318c3c-d00b-4797-81fa-86e18e75e189" data-name="Los_Santos_GP"><path id="b7879d0d-7440-4bd2-be54-d5b8f0fdb1f4" data-name="Pitlane Outer" class="338c5a98-44e0-4835-a48c-341c8a2a56e4" d="M455.947,700.884c6.334-16.5,1.013-40.756,7.889-59.306C471,622.245,485.947,578.72,494.5,554.912c10.222-28.445,29.342-79.61,40.944-116.778,6.732-21.565,19.312-55.665,27.334-84.667,6.5-23.5,14.843-39.769,19.722-50.111,12.429-26.35,21.444-27,29.111-48"/><path id="b0cb4676-c3b9-4cea-b0ba-e663fd8ac054" data-name="Track Outer" class="bb4be49f-8102-4885-99cb-f60c9b33c48d" d="M575.169,363.356c2-5.333,19.445-60.111,31.667-94.778s31.445-79.778,32.611-91.111c1.207-11.724,1.056-20.555-8.278-29s-53.777-26-53.777-26-73.611-26.667-105.611-38-64.49-22.583-78.167-26.889c-12-3.778-28.333-10.444-31-2.444C360.5,61.467,381.4,67.891,388.947,70.8c9.222,3.556,49.237,17.315,63.111,22.112,17.377,6.007,42.758,12.991,47.111,24.666,4.889,13.111-2.717,38.565-5.222,53.056-2.333,13.5-3.778,26.944-12.111,30.278-9.433,3.773-33.555-7.778-43.722-12.278-18.993-8.407-41.558-16.761-63.167-23.834-24.266-7.942-44.666-2.666-68.166,3.334-8.968,2.289-37.5,12.778-46.167,16.333-9.83,4.033-36.167,15.667-44,19.833-8.252,4.39-17.853-2.028-23.667-11.666-6.333-10.5-17.379-30.617-24-42.667-8.333-15.167-13.917-24.482-18.666-31.167-4.5-6.333-12-7-21.778-.111-12.854,9.056-18.222,5.945-24.556-4.389-6.436-10.5-11.906-17.857-16.833-24.666C81,81.189,74.725,74.245,72.947,61.467c-1.394-10.02.628-21.531,5-28.5,5.334-8.5,10.738-17.095,37.889-21.389,23.889-3.778,94.551.115,114.222,2.445a303.669,303.669,0,0,1,65.778,14.889c22,7.777,44.233,18.658,44,41.777-.144,14.371-4.889,50.667-6.444,79.111-1.391,25.423-1.84,49.849-.667,72,1.409,26.614,6.117,52.042,4.889,64.445-2.455,24.8-21.467,12.66-37,4.555-15.333-8-34.036-21.235-38.167-24.333-16-12-34.831-25.248-40-30.167a98.641,98.641,0,0,1-8.611-9.611,23.548,23.548,0,0,0-14.555-7.889c-8.223-1.333-18.112,5.112-27.445,10.445S143.588,243,133.058,247.689c-10.611,4.723-45.611,19.278-55.611,24.945-9.776,5.54-30.083,16.333-38.833,21.5-8.6,5.078-17.667,8.5-23,15.75-5.248,7.133-7.167,15.666-4.25,22.166a23.776,23.776,0,0,0,19,13.25c9.778,1.112,37.389.706,50.75.5,10.833-.166,25.577-1.316,45,.167,21.833,1.667,51.31,6.553,56.833,7.333,15.334,2.167,93.234,10.75,110.5,12.334,18.167,1.666,54.667,4.833,72.5,16,16.143,10.108,24.667,21.055,28.445,38.278,3.733,17.019,5.288,26.377,1.333,48.666-3.667,20.667-13.468,46.614-19.028,60.556-5.583,14-9.416,29.083-15.25,34.916-5.5,5.5-10.25,5.75-16.166,4.862-7.371-1.108-9.556-2-18.889-1.556-9.418.449-12.667.778-19.778,5.667-7.035,4.836-10.222,10-10.445,16.777-.132,4.053,1.068,11.335,6.556,14.778,5.667,3.556,10.222,3.889,18.444,4.334s15.635,1.152,23.112,3.555c6.222,2,12.222,5,16.777,10.889,4.8,6.205,6.445,10.889,6.223,18.222-.136,4.465-1,14.522-9.223,37.556-14.544,40.753-20.666,52.889-24.444,63.111-3.342,9.042-14.3,32.388-10.778,40.444,3.445,7.889,15.79,11.449,26.445,15,12.333,4.111,30.111,9.889,41.111,13.111,11.2,3.281,19.444,5.445,26.777-5.888s20.389-55.667,29.945-80.778S492.645,604.025,507.281,563.8C524.5,516.467,575.169,363.356,575.169,363.356Z"/><path id="921ecc9c-8c50-4f76-bec9-1a73b5a66162" data-name="Track Middle" class="6baffda3-3f49-416b-8d17-b42cae1e3591" d="M575.169,363.356c2-5.333,19.445-60.111,31.667-94.778s31.445-79.778,32.611-91.111c1.207-11.724,1.056-20.555-8.278-29s-53.777-26-53.777-26-73.611-26.667-105.611-38-64.49-22.583-78.167-26.889c-12-3.778-28.333-10.444-31-2.444C360.5,61.467,381.4,67.891,388.947,70.8c9.222,3.556,49.237,17.315,63.111,22.112,17.377,6.007,42.758,12.991,47.111,24.666,4.889,13.111-2.717,38.565-5.222,53.056-2.333,13.5-3.778,26.944-12.111,30.278-9.433,3.773-33.555-7.778-43.722-12.278-18.993-8.407-41.558-16.761-63.167-23.834-24.266-7.942-44.666-2.666-68.166,3.334-8.968,2.289-37.5,12.778-46.167,16.333-9.83,4.033-36.167,15.667-44,19.833-8.252,4.39-17.853-2.028-23.667-11.666-6.333-10.5-17.379-30.617-24-42.667-8.333-15.167-13.917-24.482-18.666-31.167-4.5-6.333-12-7-21.778-.111-12.854,9.056-18.222,5.945-24.556-4.389-6.436-10.5-11.906-17.857-16.833-24.666C81,81.189,74.725,74.245,72.947,61.467c-1.394-10.02.628-21.531,5-28.5,5.334-8.5,10.738-17.095,37.889-21.389,23.889-3.778,94.551.115,114.222,2.445a303.669,303.669,0,0,1,65.778,14.889c22,7.777,44.233,18.658,44,41.777-.144,14.371-4.889,50.667-6.444,79.111-1.391,25.423-1.84,49.849-.667,72,1.409,26.614,6.117,52.042,4.889,64.445-2.455,24.8-21.467,12.66-37,4.555-15.333-8-34.036-21.235-38.167-24.333-16-12-34.831-25.248-40-30.167a98.641,98.641,0,0,1-8.611-9.611,23.548,23.548,0,0,0-14.555-7.889c-8.223-1.333-18.112,5.112-27.445,10.445S143.588,243,133.058,247.689c-10.611,4.723-45.611,19.278-55.611,24.945-9.776,5.54-30.083,16.333-38.833,21.5-8.6,5.078-17.667,8.5-23,15.75-5.248,7.133-7.167,15.666-4.25,22.166a23.776,23.776,0,0,0,19,13.25c9.778,1.112,37.389.706,50.75.5,10.833-.166,25.577-1.316,45,.167,21.833,1.667,51.31,6.553,56.833,7.333,15.334,2.167,93.234,10.75,110.5,12.334,18.167,1.666,54.667,4.833,72.5,16,16.143,10.108,24.667,21.055,28.445,38.278,3.733,17.019,5.288,26.377,1.333,48.666-3.667,20.667-13.468,46.614-19.028,60.556-5.583,14-9.416,29.083-15.25,34.916-5.5,5.5-10.25,5.75-16.166,4.862-7.371-1.108-9.556-2-18.889-1.556-9.418.449-12.667.778-19.778,5.667-7.035,4.836-10.222,10-10.445,16.777-.132,4.053,1.068,11.335,6.556,14.778,5.667,3.556,10.222,3.889,18.444,4.334s15.635,1.152,23.112,3.555c6.222,2,12.222,5,16.777,10.889,4.8,6.205,6.445,10.889,6.223,18.222-.136,4.465-1,14.522-9.223,37.556-14.544,40.753-20.666,52.889-24.444,63.111-3.342,9.042-14.3,32.388-10.778,40.444,3.445,7.889,15.79,11.449,26.445,15,12.333,4.111,30.111,9.889,41.111,13.111,11.2,3.281,19.444,5.445,26.777-5.888s20.389-55.667,29.945-80.778S492.645,604.025,507.281,563.8C524.5,516.467,575.169,363.356,575.169,363.356Z"/><path id="85f84e47-dc2d-45b0-a5c4-db209c382fe8" data-name="Pitlane Middle" class="6baffda3-3f49-416b-8d17-b42cae1e3591" d="M455.947,700.884c6.334-16.5,1.013-40.756,7.889-59.306C471,622.245,485.947,578.72,494.5,554.912c10.222-28.445,29.342-79.61,40.944-116.778,6.732-21.565,19.312-55.665,27.334-84.667,6.5-23.5,14.843-39.769,19.722-50.111,12.429-26.35,21.444-27,29.111-48"/><path id="de796779-6c7b-4162-b71a-b56f238e0e0e" data-name="Pitlane Inner" class="21b7829f-0194-4708-9524-7c76638afde7" d="M455.947,700.884c6.334-16.5,1.013-40.756,7.889-59.306C471,622.245,485.947,578.72,494.5,554.912c10.222-28.445,29.342-79.61,40.944-116.778,6.732-21.565,19.312-55.665,27.334-84.667,6.5-23.5,14.843-39.769,19.722-50.111,12.429-26.35,21.444-27,29.111-48"/><path id="d276ae7d-6ae5-4b1c-bd55-8081c1af5236" data-name="Track Inner" class="e06dc12a-d11a-48a9-ae10-ea77889a4693" d="M575.169,363.356c2-5.333,19.445-60.111,31.667-94.778s31.445-79.778,32.611-91.111c1.207-11.724,1.056-20.555-8.278-29s-53.777-26-53.777-26-73.611-26.667-105.611-38-64.49-22.583-78.167-26.889c-12-3.778-28.333-10.444-31-2.444C360.5,61.467,381.4,67.891,388.947,70.8c9.222,3.556,49.237,17.315,63.111,22.112,17.377,6.007,42.758,12.991,47.111,24.666,4.889,13.111-2.717,38.565-5.222,53.056-2.333,13.5-3.778,26.944-12.111,30.278-9.433,3.773-33.555-7.778-43.722-12.278-18.993-8.407-41.558-16.761-63.167-23.834-24.266-7.942-44.666-2.666-68.166,3.334-8.968,2.289-37.5,12.778-46.167,16.333-9.83,4.033-36.167,15.667-44,19.833-8.252,4.39-17.853-2.028-23.667-11.666-6.333-10.5-17.379-30.617-24-42.667-8.333-15.167-13.917-24.482-18.666-31.167-4.5-6.333-12-7-21.778-.111-12.854,9.056-18.222,5.945-24.556-4.389-6.436-10.5-11.906-17.857-16.833-24.666C81,81.189,74.725,74.245,72.947,61.467c-1.394-10.02.628-21.531,5-28.5,5.334-8.5,10.738-17.095,37.889-21.389,23.889-3.778,94.551.115,114.222,2.445a303.669,303.669,0,0,1,65.778,14.889c22,7.777,44.233,18.658,44,41.777-.144,14.371-4.889,50.667-6.444,79.111-1.391,25.423-1.84,49.849-.667,72,1.409,26.614,6.052,52.036,4.889,64.445-2.333,24.889-21.467,12.66-37,4.555-15.333-8-34.036-21.235-38.167-24.333-16-12-34.831-25.248-40-30.167a98.641,98.641,0,0,1-8.611-9.611,23.548,23.548,0,0,0-14.555-7.889c-8.223-1.333-18.112,5.112-27.445,10.445S143.588,243,133.058,247.689c-10.611,4.723-45.611,19.278-55.611,24.945-9.776,5.54-30.083,16.333-38.833,21.5-8.6,5.078-17.667,8.5-23,15.75-5.248,7.133-7.167,15.666-4.25,22.166a23.776,23.776,0,0,0,19,13.25c9.778,1.112,37.389.706,50.75.5,10.833-.166,25.577-1.316,45,.167,21.833,1.667,51.31,6.553,56.833,7.333,15.334,2.167,93.234,10.75,110.5,12.334,18.167,1.666,54.667,4.833,72.5,16,16.143,10.108,24.667,21.055,28.445,38.278,3.733,17.019,5.288,26.377,1.333,48.666-3.667,20.667-13.468,46.614-19.028,60.556-5.583,14-9.416,29.083-15.25,34.916-5.5,5.5-10.25,5.75-16.166,4.862-7.371-1.108-9.556-2-18.889-1.556-9.418.449-12.667.778-19.778,5.667-7.035,4.836-10.222,10-10.445,16.777-.132,4.053,1.068,11.335,6.556,14.778,5.667,3.556,10.222,3.889,18.444,4.334s15.635,1.152,23.112,3.555c6.222,2,12.222,5,16.777,10.889,4.8,6.205,6.445,10.889,6.223,18.222-.136,4.465-1,14.522-9.223,37.556-14.544,40.753-20.666,52.889-24.444,63.111-3.342,9.042-14.3,32.388-10.778,40.444,3.445,7.889,15.79,11.449,26.445,15,12.333,4.111,30.111,9.889,41.111,13.111,11.2,3.281,19.444,5.445,26.777-5.888s20.389-55.667,29.945-80.778S492.645,604.025,507.281,563.8C524.5,516.467,575.169,363.356,575.169,363.356Z"/><use id="5863893d-232e-4af4-b738-2a4f5ea412d7" data-name="Start-Finish-Line" width="200" height="103.617" transform="matrix(-0.273, -0.088, 0.088, -0.273, 595.456, 370.458)" xlink:href="#f694bf91-6289-4b81-b499-40e06d66afcf"/><g id="5f879b14-be22-4b1b-a5e2-6854a3f5784f" data-name="Crossover"><path id="c83fd48a-b250-45e7-aba6-f051ffd46417" data-name="Crossover Outer" class="bb4be49f-8102-4885-99cb-f60c9b33c48d" d="M333.544,147.37c-.847,14.594-1.055,21.6-1.319,32.514"/><path id="c4589b80-5777-4ba3-873b-f7811ca0fb4e" data-name="Crossover Middle" class="6baffda3-3f49-416b-8d17-b42cae1e3591" d="M333.551,146.957c-.847,14.593-1.09,22.385-1.354,33.3"/><path id="cbb4bf01-9819-42d3-b079-63262d3d773e" data-name="Crossover Inner" class="e06dc12a-d11a-48a9-ae10-ea77889a4693" d="M333.572,146.79c-.847,14.594-1.1,22.705-1.361,33.622"/></g></g></g></g></svg>