<svg xmlns="http://www.w3.org/2000/svg" xmlns:xlink="http://www.w3.org/1999/xlink" width="649.976" height="784.008" viewBox="0 0 649.976 784.008"><defs><style>.\30 d012a9f-5225-4118-81c2-e3cb0a084c19{fill:#00ff24;}.\30 d012a9f-5225-4118-81c2-e3cb0a084c19,.fbc10aae-3f24-4341-b8c8-73161022f400{stroke:#000;stroke-width:5px;}.\30 d012a9f-5225-4118-81c2-e3cb0a084c19,.\31 fcb6074-06d5-45a0-9cd4-0dfa6fb7c2ab,.\33 0130b54-77f1-4fba-8290-512367021f9b,.\33 9557d06-6142-4e12-99c4-4ee3249039d0,.\35 50bb617-ca33-4fc1-8365-31d97d36fa21,.bc2377c9-b52b-40b7-9470-be36677ad163,.fbc10aae-3f24-4341-b8c8-73161022f400{stroke-miterlimit:10;}.fbc10aae-3f24-4341-b8c8-73161022f400{fill:#fff;}.\31 fcb6074-06d5-45a0-9cd4-0dfa6fb7c2ab,.\33 0130b54-77f1-4fba-8290-512367021f9b,.\33 9557d06-6142-4e12-99c4-4ee3249039d0,.\35 50bb617-ca33-4fc1-8365-31d97d36fa21,.bc2377c9-b52b-40b7-9470-be36677ad163{fill:none;}.\33 9557d06-6142-4e12-99c4-4ee3249039d0,.\35 50bb617-ca33-4fc1-8365-31d97d36fa21{stroke:#c91c1c;}.\33 0130b54-77f1-4fba-8290-512367021f9b,.\33 9557d06-6142-4e12-99c4-4ee3249039d0{stroke-width:20px;}.\31 fcb6074-06d5-45a0-9cd4-0dfa6fb7c2ab,.\33 0130b54-77f1-4fba-8290-512367021f9b{stroke:#0080ff;}.bc2377c9-b52b-40b7-9470-be36677ad163{stroke:#fff;stroke-width:12px;}.\31 fcb6074-06d5-45a0-9cd4-0dfa6fb7c2ab,.\35 50bb617-ca33-4fc1-8365-31d97d36fa21{stroke-width:2px;}</style><symbol id="64b21359-0599-4f00-9dff-f6071f1bc287" data-name="fd103434-89f2-4089-acf9-54fed79ed404" viewBox="0 0 200 103.617"><rect class="0d012a9f-5225-4118-81c2-e3cb0a084c19" x="2.5" y="54.074" width="195" height="47.043"/><rect class="fbc10aae-3f24-4341-b8c8-73161022f400" x="2.5" y="2.5" width="48.75" height="48.75"/><rect class="fbc10aae-3f24-4341-b8c8-73161022f400" x="51.25" y="2.5" width="48.75" height="48.75"/><rect class="fbc10aae-3f24-4341-b8c8-73161022f400" x="100" y="2.5" width="48.75" height="48.75"/><rect class="fbc10aae-3f24-4341-b8c8-73161022f400" x="148.75" y="2.5" width="48.75" height="48.75"/></symbol></defs><title>Los_Santos_GP_Lower_Loop</title><g id="1491c5c6-5c60-4425-ace3-a070cd0e419b" data-name="Layer 2"><g id="da8040dc-6e56-46fa-885b-fd8e691a2970" data-name="Broughy1322"><g id="67b0bb24-216d-487b-9450-db365c9aeb1b" data-name="Los_Santos_GP_Lower_Loop"><path id="81b588dc-b4ab-4475-9241-588f3749e948" data-name="Pitlane Outer" class="39557d06-6142-4e12-99c4-4ee3249039d0" d="M455.947,661.463c6.334-16.5,1.013-40.756,7.889-59.3C471,582.825,485.947,539.3,494.5,515.491c10.222-28.444,29.342-79.609,40.944-116.778,6.732-21.565,19.312-55.665,27.334-84.666,6.5-23.5,14.843-39.769,19.722-50.111,12.429-26.35,21.444-27,29.111-48"/><path id="bb0dca85-fff0-4096-a0bf-2473e4cc7f03" data-name="Track Outer" class="30130b54-77f1-4fba-8290-512367021f9b" d="M575.169,323.936c2-5.334,19.445-60.111,31.667-94.778s31.445-79.778,32.611-91.111c1.207-11.724,1.056-20.556-8.278-29s-53.777-26-53.777-26-73.611-26.667-105.611-38S393.169,16.6,379.2,13.38C361.954,9.4,355.706,8.6,347.114,12.8a29.751,29.751,0,0,0-15.25,18.416c-2.222,7.778-3.583,58.112-2.25,85s1.5,49.5,2.833,75.334c1.322,25.618,9.334,63.555,4.667,70-4.157,5.74-7.5,5.944-19.056.389S280.5,240.6,264.5,228.6s-41.111-30.444-42.889-32.222-6.222-7.111-7.778-9.111a23.543,23.543,0,0,0-14.555-7.889c-8.223-1.333-18.112,5.111-27.445,10.445s-28.248,13.758-38.778,18.444c-10.611,4.722-45.611,19.278-55.611,24.944-9.776,5.54-30.083,16.334-38.833,21.5-8.6,5.079-17.667,8.5-23,15.75-5.248,7.134-7.167,15.667-4.25,22.167a23.776,23.776,0,0,0,19,13.25c9.778,1.111,37.389.706,50.75.5,10.833-.167,25.577-1.316,45,.167,21.833,1.666,51.31,6.553,56.833,7.333,15.334,2.167,93.234,10.749,110.5,12.333,18.167,1.667,54.667,4.834,72.5,16,16.143,10.109,24.667,21.056,28.445,38.278,3.733,17.02,5.288,26.378,1.333,48.667-3.667,20.667-13.468,46.614-19.028,60.555-5.583,14-9.416,29.084-15.25,34.917-5.5,5.5-10.25,5.75-16.166,4.861-7.371-1.107-9.556-2-18.889-1.555-9.418.448-12.667.777-19.778,5.666-7.035,4.837-10.222,10-10.445,16.778-.132,4.053,1.068,11.334,6.556,14.778,5.667,3.555,10.222,3.889,18.444,4.333s15.635,1.153,23.112,3.556c6.222,2,12.222,5,16.777,10.889,4.8,6.2,6.445,10.889,6.223,18.222-.136,4.464-1,14.522-9.223,37.555-14.544,40.754-20.666,52.889-24.444,63.111-3.342,9.043-14.3,32.388-10.778,40.445,3.445,7.889,15.79,11.449,26.445,15,12.333,4.111,30.111,9.889,41.111,13.111,11.2,3.28,19.444,5.445,26.777-5.889s20.389-55.666,29.945-80.778,45.531-120.108,60.167-160.333C524.5,477.047,575.169,323.936,575.169,323.936Z"/><path id="48dcf055-a588-42ee-98ab-3d5fec50053a" data-name="Track Middle" class="bc2377c9-b52b-40b7-9470-be36677ad163" d="M575.169,323.936c2-5.334,19.445-60.111,31.667-94.778s31.445-79.778,32.611-91.111c1.207-11.724,1.056-20.556-8.278-29s-53.777-26-53.777-26-73.611-26.667-105.611-38S393.169,16.6,379.2,13.38C361.954,9.4,355.706,8.6,347.114,12.8a29.751,29.751,0,0,0-15.25,18.416c-2.222,7.778-3.583,58.112-2.25,85s1.5,49.5,2.833,75.334c1.322,25.618,9.334,63.555,4.667,70-4.157,5.74-7.5,5.944-19.056.389S280.5,240.6,264.5,228.6s-41.111-30.444-42.889-32.222-6.222-7.111-7.778-9.111a23.543,23.543,0,0,0-14.555-7.889c-8.223-1.333-18.112,5.111-27.445,10.445s-28.248,13.758-38.778,18.444c-10.611,4.722-45.611,19.278-55.611,24.944-9.776,5.54-30.083,16.334-38.833,21.5-8.6,5.079-17.667,8.5-23,15.75-5.248,7.134-7.167,15.667-4.25,22.167a23.776,23.776,0,0,0,19,13.25c9.778,1.111,37.389.706,50.75.5,10.833-.167,25.577-1.316,45,.167,21.833,1.666,51.31,6.553,56.833,7.333,15.334,2.167,93.234,10.749,110.5,12.333,18.167,1.667,54.667,4.834,72.5,16,16.143,10.109,24.667,21.056,28.445,38.278,3.733,17.02,5.288,26.378,1.333,48.667-3.667,20.667-13.468,46.614-19.028,60.555-5.583,14-9.416,29.084-15.25,34.917-5.5,5.5-10.25,5.75-16.166,4.861-7.371-1.107-9.556-2-18.889-1.555-9.418.448-12.667.777-19.778,5.666-7.035,4.837-10.222,10-10.445,16.778-.132,4.053,1.068,11.334,6.556,14.778,5.667,3.555,10.222,3.889,18.444,4.333s15.635,1.153,23.112,3.556c6.222,2,12.222,5,16.777,10.889,4.8,6.2,6.445,10.889,6.223,18.222-.136,4.464-1,14.522-9.223,37.555-14.544,40.754-20.666,52.889-24.444,63.111-3.342,9.043-14.3,32.388-10.778,40.445,3.445,7.889,15.79,11.449,26.445,15,12.333,4.111,30.111,9.889,41.111,13.111,11.2,3.28,19.444,5.445,26.777-5.889s20.389-55.666,29.945-80.778,45.531-120.108,60.167-160.333C524.5,477.047,575.169,323.936,575.169,323.936Z"/><path id="d4ddeae7-b403-49e7-87b0-2349cf91767a" data-name="Pitlane Middle" class="bc2377c9-b52b-40b7-9470-be36677ad163" d="M455.947,661.463c6.334-16.5,1.013-40.756,7.889-59.3C471,582.825,485.947,539.3,494.5,515.491c10.222-28.444,29.342-79.609,40.944-116.778,6.732-21.565,19.312-55.665,27.334-84.666,6.5-23.5,14.843-39.769,19.722-50.111,12.429-26.35,21.444-27,29.111-48"/><path id="d0fed18c-0376-48ef-baf8-be4b7f6d3bea" data-name="Pitlane Inner" class="550bb617-ca33-4fc1-8365-31d97d36fa21" d="M455.947,661.463c6.334-16.5,1.013-40.756,7.889-59.3C471,582.825,485.947,539.3,494.5,515.491c10.222-28.444,29.342-79.609,40.944-116.778,6.732-21.565,19.312-55.665,27.334-84.666,6.5-23.5,14.843-39.769,19.722-50.111,12.429-26.35,21.444-27,29.111-48"/><path id="00024825-46dc-4467-9c0f-33d612b63d7d" data-name="Track Inner" class="1fcb6074-06d5-45a0-9cd4-0dfa6fb7c2ab" d="M575.169,323.936c2-5.334,19.445-60.111,31.667-94.778s31.445-79.778,32.611-91.111c1.207-11.724,1.056-20.556-8.278-29s-53.777-26-53.777-26-73.611-26.667-105.611-38S393.169,16.6,379.2,13.38C361.954,9.4,355.706,8.6,347.114,12.8a29.751,29.751,0,0,0-15.25,18.416c-2.222,7.778-3.583,58.112-2.25,85s1.5,49.5,2.833,75.334c1.322,25.618,9.334,63.555,4.667,70-4.157,5.74-7.5,5.944-19.056.389S280.5,240.6,264.5,228.6s-41.111-30.444-42.889-32.222-6.222-7.111-7.778-9.111a23.543,23.543,0,0,0-14.555-7.889c-8.223-1.333-18.112,5.111-27.445,10.445s-28.248,13.758-38.778,18.444c-10.611,4.722-45.611,19.278-55.611,24.944-9.776,5.54-30.083,16.334-38.833,21.5-8.6,5.079-17.667,8.5-23,15.75-5.248,7.134-7.167,15.667-4.25,22.167a23.776,23.776,0,0,0,19,13.25c9.778,1.111,37.389.706,50.75.5,10.833-.167,25.577-1.316,45,.167,21.833,1.666,51.31,6.553,56.833,7.333,15.334,2.167,93.234,10.749,110.5,12.333,18.167,1.667,54.667,4.834,72.5,16,16.143,10.109,24.667,21.056,28.445,38.278,3.733,17.02,5.288,26.378,1.333,48.667-3.667,20.667-13.468,46.614-19.028,60.555-5.583,14-9.416,29.084-15.25,34.917-5.5,5.5-10.25,5.75-16.166,4.861-7.371-1.107-9.556-2-18.889-1.555-9.418.448-12.667.777-19.778,5.666-7.035,4.837-10.222,10-10.445,16.778-.132,4.053,1.068,11.334,6.556,14.778,5.667,3.555,10.222,3.889,18.444,4.333s15.635,1.153,23.112,3.556c6.222,2,12.222,5,16.777,10.889,4.8,6.2,6.445,10.889,6.223,18.222-.136,4.464-1,14.522-9.223,37.555-14.544,40.754-20.666,52.889-24.444,63.111-3.342,9.043-14.3,32.388-10.778,40.445,3.445,7.889,15.79,11.449,26.445,15,12.333,4.111,30.111,9.889,41.111,13.111,11.2,3.28,19.444,5.445,26.777-5.889s20.389-55.666,29.945-80.778,45.531-120.108,60.167-160.333C524.5,477.047,575.169,323.936,575.169,323.936Z"/><use id="2806dd5e-58da-4262-9c8f-f8559dcff723" data-name="Start-Finish-Line" width="200" height="103.617" transform="matrix(-0.273, -0.088, 0.088, -0.273, 595.456, 331.038)" xlink:href="#64b21359-0599-4f00-9dff-f6071f1bc287"/></g></g></g></svg>