<svg xmlns="http://www.w3.org/2000/svg" xmlns:xlink="http://www.w3.org/1999/xlink" width="587.465" height="672.231" viewBox="0 0 587.465 672.231"><defs><style>.\35 23407bb-cc31-4144-87ec-d7406704bc35{fill:#00ff24;}.\33 fe7516d-1046-48f3-bbde-f5458059cb35,.\35 23407bb-cc31-4144-87ec-d7406704bc35{stroke:#000;stroke-width:5px;}.\33 fe7516d-1046-48f3-bbde-f5458059cb35,.\35 23407bb-cc31-4144-87ec-d7406704bc35,.\39 53880ff-5d4d-484d-bd78-d4a6fb935380,.a5d0b5aa-ee10-49a9-b67a-d577ee3f760f,.a6f95c9f-c8c6-4915-bb94-04c54866c2ad,.b94e724b-9032-44f0-a299-bbde48bbd865,.dea11d6e-ef12-466e-9fb8-9560170f0a9c{stroke-miterlimit:10;}.\33 fe7516d-1046-48f3-bbde-f5458059cb35{fill:#fff;}.\39 53880ff-5d4d-484d-bd78-d4a6fb935380,.a5d0b5aa-ee10-49a9-b67a-d577ee3f760f,.a6f95c9f-c8c6-4915-bb94-04c54866c2ad,.b94e724b-9032-44f0-a299-bbde48bbd865,.dea11d6e-ef12-466e-9fb8-9560170f0a9c{fill:none;}.a6f95c9f-c8c6-4915-bb94-04c54866c2ad,.b94e724b-9032-44f0-a299-bbde48bbd865{stroke:#c91c1c;}.a6f95c9f-c8c6-4915-bb94-04c54866c2ad,.dea11d6e-ef12-466e-9fb8-9560170f0a9c{stroke-width:20px;}.\39 53880ff-5d4d-484d-bd78-d4a6fb935380,.dea11d6e-ef12-466e-9fb8-9560170f0a9c{stroke:#0080ff;}.a5d0b5aa-ee10-49a9-b67a-d577ee3f760f{stroke:#fff;stroke-width:12px;}.\39 53880ff-5d4d-484d-bd78-d4a6fb935380,.b94e724b-9032-44f0-a299-bbde48bbd865{stroke-width:2px;}</style><symbol id="1c710ade-12a3-4c96-8a59-64452a3c6ecd" data-name="fd103434-89f2-4089-acf9-54fed79ed404" viewBox="0 0 200 103.617"><rect class="523407bb-cc31-4144-87ec-d7406704bc35" x="2.5" y="54.074" width="195" height="47.043"/><rect class="3fe7516d-1046-48f3-bbde-f5458059cb35" x="2.5" y="2.5" width="48.75" height="48.75"/><rect class="3fe7516d-1046-48f3-bbde-f5458059cb35" x="51.25" y="2.5" width="48.75" height="48.75"/><rect class="3fe7516d-1046-48f3-bbde-f5458059cb35" x="100" y="2.5" width="48.75" height="48.75"/><rect class="3fe7516d-1046-48f3-bbde-f5458059cb35" x="148.75" y="2.5" width="48.75" height="48.75"/></symbol></defs><title>Los_Santos_GP_Upper_Loop</title><g id="877e040b-25f9-42c0-840e-98c22e61613b" data-name="Layer 2"><g id="e0affc3b-1314-4852-8428-4d9deeda1bf7" data-name="Broughy1322"><g id="a162a3b1-4b33-411b-81ea-2c8152add02a" data-name="Los_Santos_GP_Upper_Loop"><path id="9605aea0-a9fd-4c4e-a4c5-1ced45e6939b" data-name="Pitlane Outer" class="a6f95c9f-c8c6-4915-bb94-04c54866c2ad" d="M376.922,655.134c10.445,3.68,17.971,4.438,24.848-14.111,7.166-19.334,21.666-62.3,30.222-86.111,10.222-28.445,29.342-79.609,40.944-116.778,6.732-21.565,19.312-55.665,27.334-84.667,6.5-23.5,14.843-39.769,19.722-50.111,12.429-26.35,21.444-27,29.111-48"/><path id="bf8b94a4-82cc-47cc-94b5-1584ee9a55a1" data-name="Track Outer" class="dea11d6e-ef12-466e-9fb8-9560170f0a9c" d="M447.992,563.245c15.723-47.853,64.666-199.889,64.666-199.889,2-5.333,19.445-60.111,31.667-94.778s31.444-79.777,32.611-91.111c1.207-11.724,1.056-20.555-8.278-29s-53.777-26-53.777-26-73.612-26.666-105.612-38S344.78,61.884,331.1,57.578c-12-3.777-28.334-10.444-31-2.444-2.111,6.333,18.786,12.757,26.333,15.667,9.222,3.555,49.237,17.314,63.111,22.111,17.377,6.007,42.758,12.991,47.111,24.666,4.889,13.111-2.717,38.565-5.222,53.056-2.333,13.5-3.778,26.944-12.111,30.278-9.433,3.773-33.556-7.778-43.722-12.278-18.993-8.407-41.558-16.761-63.167-23.833-24.266-7.943-44.667-2.667-68.167,3.333-8.967,2.29-37.5,12.778-46.166,16.333-9.83,4.033-36.167,15.667-44,19.834-8.252,4.389-17.853-2.029-23.667-11.667-6.333-10.5-17.379-30.617-24-42.667C98.1,134.8,92.519,125.486,87.769,118.8c-4.5-6.334-12-7-21.777-.112-12.854,9.056-18.223,5.945-24.556-4.388C35,103.8,29.53,96.443,24.6,89.634c-6.111-8.445-12.389-15.389-14.167-28.167-1.394-10.02.628-21.531,5-28.5,5.333-8.5,10.738-17.095,37.889-21.389,23.889-3.777,94.551.115,114.222,2.445a303.669,303.669,0,0,1,65.778,14.889c22,7.777,44.233,18.658,44,41.777-.144,14.371-4.889,50.667-6.444,79.112-1.391,25.422-1.84,49.849-.667,72,1.409,26.613,4.168,51.953,6.056,65.666,5,36.334,6.679,48.207,14.666,66.25,7.084,16,10.515,20.051,19.834,34.25,10.5,16,14,20,20,38,5.51,16.53,3.833,31.167.166,49.334-4.016,19.9-11.556,39.75-16.75,53.833-5.145,13.952-11.523,31.172-14.583,39.333-8,21.334-9.78,27.839-6.833,41.334,3.166,14.5,14.416,19.332,21.333,21.777,16.5,5.834,27.722,10.667,42.555,16s27.112,10.445,38.667,13.889c11.805,3.519,20.445-5.666,24.667-16.444s10.527-29.365,14.333-41.111C438.214,591.912,445.436,571.023,447.992,563.245Z"/><path id="df91c107-e363-4c17-81d3-225adac4cc3d" data-name="Track Middle" class="a5d0b5aa-ee10-49a9-b67a-d577ee3f760f" d="M447.992,563.245c15.723-47.853,64.666-199.889,64.666-199.889,2-5.333,19.445-60.111,31.667-94.778s31.444-79.777,32.611-91.111c1.207-11.724,1.056-20.555-8.278-29s-53.777-26-53.777-26-73.612-26.666-105.612-38S344.78,61.884,331.1,57.578c-12-3.777-28.334-10.444-31-2.444-2.111,6.333,18.786,12.757,26.333,15.667,9.222,3.555,49.237,17.314,63.111,22.111,17.377,6.007,42.758,12.991,47.111,24.666,4.889,13.111-2.717,38.565-5.222,53.056-2.333,13.5-3.778,26.944-12.111,30.278-9.433,3.773-33.556-7.778-43.722-12.278-18.993-8.407-41.558-16.761-63.167-23.833-24.266-7.943-44.667-2.667-68.167,3.333-8.967,2.29-37.5,12.778-46.166,16.333-9.83,4.033-36.167,15.667-44,19.834-8.252,4.389-17.853-2.029-23.667-11.667-6.333-10.5-17.379-30.617-24-42.667C98.1,134.8,92.519,125.486,87.769,118.8c-4.5-6.334-12-7-21.777-.112-12.854,9.056-18.223,5.945-24.556-4.388C35,103.8,29.53,96.443,24.6,89.634c-6.111-8.445-12.389-15.389-14.167-28.167-1.394-10.02.628-21.531,5-28.5,5.333-8.5,10.738-17.095,37.889-21.389,23.889-3.777,94.551.115,114.222,2.445a303.669,303.669,0,0,1,65.778,14.889c22,7.777,44.233,18.658,44,41.777-.144,14.371-4.889,50.667-6.444,79.112-1.391,25.422-1.84,49.849-.667,72,1.409,26.613,4.168,51.953,6.056,65.666,5,36.334,6.679,48.207,14.666,66.25,7.084,16,10.515,20.051,19.834,34.25,10.5,16,14,20,20,38,5.51,16.53,3.833,31.167.166,49.334-4.016,19.9-11.556,39.75-16.75,53.833-5.145,13.952-11.523,31.172-14.583,39.333-8,21.334-9.78,27.839-6.833,41.334,3.166,14.5,14.416,19.332,21.333,21.777,16.5,5.834,27.722,10.667,42.555,16s27.112,10.445,38.667,13.889c11.805,3.519,20.445-5.666,24.667-16.444s10.527-29.365,14.333-41.111C438.214,591.912,445.436,571.023,447.992,563.245Z"/><path id="9b3e590d-fe0c-4a9e-8ffc-0bdc7a7d1717" data-name="Pitlane Middle" class="a5d0b5aa-ee10-49a9-b67a-d577ee3f760f" d="M376.922,655.134c10.445,3.68,17.971,4.438,24.848-14.111,7.166-19.334,21.666-62.3,30.222-86.111,10.222-28.445,29.342-79.609,40.944-116.778,6.732-21.565,19.312-55.665,27.334-84.667,6.5-23.5,14.843-39.769,19.722-50.111,12.429-26.35,21.444-27,29.111-48"/><path id="dce7e8bf-8119-4e42-ace9-f9d317d9b22c" data-name="Pitlane Inner" class="b94e724b-9032-44f0-a299-bbde48bbd865" d="M376.922,655.134c10.445,3.68,17.971,4.438,24.848-14.111,7.166-19.334,21.666-62.3,30.222-86.111,10.222-28.445,29.342-79.609,40.944-116.778,6.732-21.565,19.312-55.665,27.334-84.667,6.5-23.5,14.843-39.769,19.722-50.111,12.429-26.35,21.444-27,29.111-48"/><path id="2fe47b20-9d97-419f-8f7c-78d41d455d1a" data-name="Track Inner" class="953880ff-5d4d-484d-bd78-d4a6fb935380" d="M447.992,563.245c15.723-47.853,64.666-199.889,64.666-199.889,2-5.333,19.445-60.111,31.667-94.778s31.444-79.777,32.611-91.111c1.207-11.724,1.056-20.555-8.278-29s-53.777-26-53.777-26-73.612-26.666-105.612-38S344.78,61.884,331.1,57.578c-12-3.777-28.334-10.444-31-2.444-2.111,6.333,18.786,12.757,26.333,15.667,9.222,3.555,49.237,17.314,63.111,22.111,17.377,6.007,42.758,12.991,47.111,24.666,4.889,13.111-2.717,38.565-5.222,53.056-2.333,13.5-3.778,26.944-12.111,30.278-9.433,3.773-33.556-7.778-43.722-12.278-18.993-8.407-41.558-16.761-63.167-23.833-24.266-7.943-44.667-2.667-68.167,3.333-8.967,2.29-37.5,12.778-46.166,16.333-9.83,4.033-36.167,15.667-44,19.834-8.252,4.389-17.853-2.029-23.667-11.667-6.333-10.5-17.379-30.617-24-42.667C98.1,134.8,92.519,125.486,87.769,118.8c-4.5-6.334-12-7-21.777-.112-12.854,9.056-18.223,5.945-24.556-4.388C35,103.8,29.53,96.443,24.6,89.634c-6.111-8.445-12.389-15.389-14.167-28.167-1.394-10.02.628-21.531,5-28.5,5.333-8.5,10.738-17.095,37.889-21.389,23.889-3.777,94.551.115,114.222,2.445a303.669,303.669,0,0,1,65.778,14.889c22,7.777,44.233,18.658,44,41.777-.144,14.371-4.889,50.667-6.444,79.112-1.391,25.422-1.84,49.849-.667,72,1.409,26.613,4.168,51.953,6.056,65.666,5,36.334,6.679,48.207,14.666,66.25,7.084,16,10.515,20.051,19.834,34.25,10.5,16,14,20,20,38,5.51,16.53,3.833,31.167.166,49.334-4.016,19.9-11.556,39.75-16.75,53.833-5.145,13.952-11.523,31.172-14.583,39.333-8,21.334-9.78,27.839-6.833,41.334,3.166,14.5,14.416,19.332,21.333,21.777,16.5,5.834,27.722,10.667,42.555,16s27.112,10.445,38.667,13.889c11.805,3.519,20.445-5.666,24.667-16.444s10.527-29.365,14.333-41.111C438.214,591.912,445.436,571.023,447.992,563.245Z"/><g id="9b29690c-1fbc-4b57-9d48-200cfe631772" data-name="Crossover 1 Kopie"><path id="dea0eadb-793d-44f5-bfdb-650a81c5933c" data-name="Crossover Outer" class="dea11d6e-ef12-466e-9fb8-9560170f0a9c" d="M271.033,147.37c-.847,14.594-1.055,21.6-1.319,32.514"/><path id="4cc7ab00-0b86-4acc-8635-6ede860c92e5" data-name="Crossover Middle" class="a5d0b5aa-ee10-49a9-b67a-d577ee3f760f" d="M271.04,146.957c-.847,14.594-1.09,22.385-1.354,33.3"/><path id="6bb90128-45c5-4fe9-bf5b-9eb2b0a93ad6" data-name="Crossover Inner" class="953880ff-5d4d-484d-bd78-d4a6fb935380" d="M271.061,146.79c-.847,14.594-1.1,22.705-1.361,33.622"/></g><use id="ea7a0d5d-bc93-44ce-bef6-fa568da78876" data-name="Start-Finish-Line" width="200" height="103.617" transform="matrix(-0.273, -0.088, 0.088, -0.273, 532.945, 370.458)" xlink:href="#1c710ade-12a3-4c96-8a59-64452a3c6ecd"/></g></g></g></svg>