<svg xmlns="http://www.w3.org/2000/svg" xmlns:xlink="http://www.w3.org/1999/xlink" width="2497.898" height="3429.31" viewBox="0 0 2497.898 3429.31"><defs><style>.\35 5c6c5db-3c20-4aa9-ae74-913aae087130{fill:#00ff24;}.\32 60a42cd-3a32-4b21-8d2e-1d87a0d311fc,.\35 5c6c5db-3c20-4aa9-ae74-913aae087130{stroke:#000;stroke-width:5px;}.\32 60a42cd-3a32-4b21-8d2e-1d87a0d311fc,.\35 5c6c5db-3c20-4aa9-ae74-913aae087130,.\36 e4c132c-39d7-4f12-90eb-850dd50e87e4,.\38 70e25d8-541f-4d9c-937f-9f9edd247080,.d034e88c-a428-40c5-8cb3-6d284824cae9{stroke-miterlimit:10;}.\32 60a42cd-3a32-4b21-8d2e-1d87a0d311fc{fill:#fff;}.\36 e4c132c-39d7-4f12-90eb-850dd50e87e4,.\38 70e25d8-541f-4d9c-937f-9f9edd247080,.d034e88c-a428-40c5-8cb3-6d284824cae9{fill:none;}.\36 e4c132c-39d7-4f12-90eb-850dd50e87e4,.d034e88c-a428-40c5-8cb3-6d284824cae9{stroke:#0080ff;}.\36 e4c132c-39d7-4f12-90eb-850dd50e87e4{stroke-width:22px;}.\38 70e25d8-541f-4d9c-937f-9f9edd247080{stroke:#fff;stroke-width:12.5px;}.d034e88c-a428-40c5-8cb3-6d284824cae9{stroke-width:2.2px;}</style><symbol id="d5669d23-915b-4f44-9684-8010e07c979a" data-name="fd103434-89f2-4089-acf9-54fed79ed404" viewBox="0 0 200 103.617"><rect class="55c6c5db-3c20-4aa9-ae74-913aae087130" x="2.5" y="54.074" width="195" height="47.043"/><rect class="260a42cd-3a32-4b21-8d2e-1d87a0d311fc" x="2.5" y="2.5" width="48.75" height="48.75"/><rect class="260a42cd-3a32-4b21-8d2e-1d87a0d311fc" x="51.25" y="2.5" width="48.75" height="48.75"/><rect class="260a42cd-3a32-4b21-8d2e-1d87a0d311fc" x="100" y="2.5" width="48.75" height="48.75"/><rect class="260a42cd-3a32-4b21-8d2e-1d87a0d311fc" x="148.75" y="2.5" width="48.75" height="48.75"/></symbol></defs><title>Los_Santos_GP_North_Loop</title><g id="27fe1f67-903f-4d65-a0dc-cfe50c9d9a86" data-name="Layer 2"><g id="c96ace03-8247-4932-b5ab-5a620050a32a" data-name="Broughy1322"><g id="3ceb33f4-0963-46fe-a7ee-a16bdc52dea0" data-name="Los_Santos_GP_North_Loop"><path id="22bcb5fc-9342-4b22-aac5-f8265d0a413c" data-name="Track Outer" class="6e4c132c-39d7-4f12-90eb-850dd50e87e4" d="M853.592,1851.348a289.272,289.272,0,0,1-28.848,31.25c-15.43,14.195-28.291,25.167-41.125,33.834,0,0-20.861,15.694-31.639,22.25s-30.222,20.889-40.333,28.889-22.611,16.777-36.944,35.444-19.334,33.333-24.334,44.333-8.333,31.334-13.833,54.167-16.5,52-16.667,67.5,11.5,47,14.167,68.333,5,77.334,12.167,107,16,49.5,25,65.167a340.225,340.225,0,0,0,27.333,40c7.667,9.667,36.444,34.278,49.556,44.5s54.222,45.333,80.666,68,58.445,51,79.111,73,30.667,39.667,45.334,68.667,15.833,30.833,24,40.5,15.333,18.833,25.166,21,17.334-1.5,33.834-13.834,49.524-43.82,61.666-52.444c11.889-8.445,29-15.667,46.889-20.889,15.81-4.615,30.445-7.833,49.945-8.333s29.166-.667,48.166,4,28,9.5,42.167,17.333,13.611,8.333,24.389,13.889,16.667,8.778,24.111,9.555,9-2.222,18.444,0,23.445,9.889,35.667,16.223,30.667,15.777,53.778,26.889,36.444,17.777,58.444,29.333,28,14.222,37.778,15.333,36.889-13.555,47.111-18.222,29.611-13.167,37.945-17.667,22-9.166,16.166-21.333-11.478-19.219-8.166-27.167c4.166-10,29.666-19.666,41.333-26s42.722-22.722,64.944-33.611,47.556-28,69.778-33.111,54.667-10.444,87.111-13.333,25.111-5.111,58.667-4.889,70.222.222,95.556,2.667,56.444,11.777,78.666,20.444,44.889,14.667,55.111,22.222,6.334,19.222,5.778,26.445c-.459,5.975-5.778,47.555-7.333,76-1.39,25.422-1.84,49.849-.667,72,1.409,26.613,6.052,52.035,4.889,64.444-2.333,24.889-21.467,12.66-37,4.556-15.333-8-34.036-21.236-38.167-24.334-16-12-34.831-25.248-40-30.166a98.759,98.759,0,0,1-8.611-9.611,23.543,23.543,0,0,0-14.555-7.889c-8.223-1.334-18.111,5.111-27.445,10.444s-28.248,13.758-38.778,18.445c-10.611,4.722-45.611,19.277-55.611,24.944-9.776,5.54-30.083,16.333-38.833,21.5-8.6,5.078-17.667,8.5-23,15.75-5.247,7.133-7.167,15.667-4.25,22.167a23.778,23.778,0,0,0,19,13.25c9.778,1.111,37.389.705,50.75.5,10.833-.167,25.577-1.316,45,.166,21.833,1.667,51.31,6.553,56.833,7.334,15.334,2.166,93.234,10.749,110.5,12.333,18.167,1.667,54.667,4.833,72.5,16,16.143,10.108,24.667,21.056,28.445,38.278,3.733,17.019,5.288,26.377,1.333,48.666-3.667,20.667-13.468,46.614-19.028,60.556-5.583,14-9.416,29.083-15.25,34.917-5.5,5.5-10.25,5.75-16.166,4.861-7.371-1.108-9.556-2-18.889-1.556-9.418.449-12.667.778-19.778,5.667-7.035,4.837-10.222,10-10.444,16.778-.133,4.053,1.067,11.334,6.555,14.777,5.667,3.556,10.222,3.889,18.445,4.334s15.634,1.152,23.111,3.555c6.222,2,12.222,5,16.777,10.889,4.8,6.2,6.445,10.889,6.223,18.222-.136,4.465-1,14.522-9.223,37.556-14.544,40.754-20.666,52.889-24.444,63.111-3.342,9.043-14.3,32.388-10.778,40.445,3.445,7.888,15.791,11.448,26.445,15,12.333,4.111,30.111,9.888,41.111,13.111,11.2,3.28,19.444,5.444,26.778-5.889s20.388-55.667,29.944-80.778,45.531-120.109,60.167-160.333c17.222-47.334,67.889-200.445,67.889-200.445,2-5.333,19.444-60.111,31.666-94.778s31.445-79.777,32.611-91.111c1.207-11.724,1.056-20.555-8.277-29s-53.778-26-53.778-26-73.611-26.666-105.611-38-64.49-22.583-78.167-26.889c-12-3.777-28.333-10.444-31-2.444-2.111,6.333,18.786,12.757,26.333,15.667,9.223,3.555,49.237,17.315,63.111,22.111,17.377,6.007,42.758,12.991,47.112,24.666,4.888,13.112-2.718,38.565-5.223,53.056-2.333,13.5-3.777,26.944-12.111,30.278-9.433,3.773-33.555-7.778-43.722-12.278-18.993-8.407-41.558-16.761-63.167-23.833-24.266-7.943-44.666-2.667-68.166,3.333-8.968,2.289-37.5,12.778-46.167,16.333-9.83,4.033-36.167,15.667-44,19.834-8.252,4.389-17.853-2.029-23.667-11.667-6.333-10.5-17.379-30.617-24-42.667-8.333-15.166-13.916-24.481-18.666-31.166-4.5-6.334-12-7-21.778-.111-12.854,9.055-18.222,5.944-24.556-4.389-6.436-10.5-11.9-17.858-16.833-24.667-6.111-8.444-11.389-23.167-13.5-40.056-1.465-11.72-3.248-26.791-.667-48.444,6.889-57.778,8.667-77.111,10.445-116.667s5-110.5,8.889-144.333c3.9-33.907,6.222-65.222,4-94.111s-12.667-52.056-17.778-69.333c-5.443-18.4-9.222-26.723-5.222-39.723s38.666-36.5,44.666-47.5,6.667-14,7-29-14-46-21.666-55.333-11-17.333-7-27.333,17.333-17.667,30.333-25.667,24.333-18,25.333-37.667.5-35.666-12.833-49-22.167-20-44.5-22.666-30.333-3.334-53-23.667-16.333-21.333-42.333-37-45.334-17.667-56.334-33.333a143.852,143.852,0,0,1-19.666-42.334c-2-8-3.667-26,4.333-55.333s11.667-40.333,10.333-51.333-4.666-19.334-17.333-31.334-25.167-22.666-31.333-32c-4.407-6.669-10.167-16.166-12.334-33-.887-6.9-2.555-15.444-3.372-23.852-.744-7.663-1.85-14.7-2.961-20.981-4.1-23.165-18.167-42.667-22.167-60.167-4.089-17.891-4.163-39.78-3.722-55,.445-15.333,3.648-33.557,4.889-50.889,1.482-20.683,4.614-39.589,6.667-46.444,4.916-16.417,17.333-38,25.666-56s6.667-44.667,5.334-56-9-31.444-25.667-40.111-36.333-10.111-51.778-11.111a62.894,62.894,0,0,1-37.555-15.222c-9-8-11.834-11.389-12-19.223s5.5-22.9,19.666-39a196.793,196.793,0,0,1,20.556-20.555c6.549-5.573,16.9-13.031,27.778-21,14.555-10.667,13.166-13.778,21.166-22.611s32.834-20.667,45.834-28,37.166-21.667,43.166-30,15.167-13.834,15.5-33.834-21.777-35.222-38.666-44.333c-7.606-4.1-24.889-12.889-38.778-20.889-16.524-9.518-28.449-18.2-30.556-20.333-6.271-6.362-20.166-25.111-15.5-45.111s13.667-31.167,34-49.334,20.5-19.666,25.334-26.666,8.5-24.5-2.334-39.834-28.333-34.666-33.333-46.5-3.743-26.268,11.833-43.833c7.834-8.833,22.391-19.978,30.167-26.167,11.114-8.844,19.774-16.459,25.167-22.833,9.166-10.833,9.166-22.5,8.166-35.167s-1.666-32.166,20.167-45.5,65.667-27.722,80.778-34.5,30.555-17.5,39.889-39.333,9.111-30.222,8.444-46.222-14.889-43.111-21.778-68.445-8.666-49.777,7.334-68.666,34.222-38.334,50.444-48.111,23.556-11.556,30.445-17.112,6.694-19.277,4.361-25.444-11.139-18.222-29.695-21.556-41.333-4.444-60-8.333-43.222-5.611-67.555,3.722-66,38.167-78.167,44.5-54.5,31.167-80.167,37.167-24.5,7.667-47.666,8-39.834-2.333-55.667-5-36.5-.833-47.667,3.833-45.5,17.5-79.333,45.167-36.444,29.833-52,43.833-29.556,26.667-52.222,47.111-64.889,64-88.445,88.889-44.222,44-50.666,50.889-4.889,13.334-4.889,23.778c0,5.546-.439,17.231-1.15,28.669-.627,10.1-1.468,20.015-2.406,25.331-2,11.333-5.111,37.778-4.889,69.333s.223,76.889-3.777,90.223-11.334,31.111-26.667,34-36.222,1.555-57.333,1.333-35.112,1.333-42.223,8.222-13.777,11.778-9.111,33.556a192.485,192.485,0,0,0,19.556,53.777c9.111,17.334,32.889,60.223,36.444,66s10.445,15.556,15.611,27.889,5.5,18.834,5,24.834-3.333,21.666-7.333,36.5-18,43.666-23.833,55.166-29,53.334-34.5,62.334-13.834,31.833-12.167,47.5,1.333,19.666,5.833,31.5,17.667,51.5,19,62.666,4.167,16,3.5,30.167-6.833,56.5-12.333,68.167-17,33.5-31.5,47.333-45.667,42-53,52.167-19.167,19.333-27.5,44-11,43.666-14.5,65-3.333,54.333-.167,67.833,6.167,25.667,8,36.167,1.167,33.833-1.166,48.5-13.389,54.944-21.389,76.722-29.778,80.667-43.778,102.889-23.611,39.222-30.944,47.555c-8.535,9.7-11.167,12.889-15.612,14.667-6.23,2.492-12.777-2.917-17.277-6.333s-18-9.5-28.834-8.417-19.666,5.083-29,13.75-29.555,28.444-37.111,34.889-35.555,31.555-42.111,35.889-25,19.333-37,25.778-18.889,10.666-29.555,12.444-18.445,1.778-24.556-5.889-9.333-16.333-9.667-29.778-.111-18,1.667-37.555,7.778-50.556,8.333-65.778,2.889-29.222-.666-46.333-7.778-21.667-14.889-27.556-21.667-8.778-33.445-10.555-32.111-8-41.222-13.334-23.222-15.222-34.333-28.666-16.556-22.778-28.667-36.334-26.778-30-36.333-35.778-17.778-8.888-24.778-7.666-13.778,4.889-26,20.111-23,26.889-37.444,29-19.778-1-34.112-2.556-53.222-6-68.555-8.555-60.722-9.445-80.222-16.611-38.5-12.5-54.834-22.334S59.2,1617.126,52.2,1610.9s-9.778-12.222-12.111-18-3.889-34.333-4.778-46.667-5.111-49-4.556-66.666.111-27.889,1.778-49.223,4.333-54.5,4.833-71.5.389-27.277-.5-46.833-3.333-35.444-6.333-44.333S24.425,1254.9,16.758,1249.9s-6.778-13-2.555-19.333,10.833-16.056,11.333-25.889-4.167-14-4.667-22-.833-21.334,4-30.834,11.334-26.5,16.334-34,10.111-11.722,19.333-16.722,13.222-5.667,17.889-7.444,15.555-4.223,29.555-3.889,21,.666,28.556-4.889,11-7.667,11.889-19.667.861-20.889,3.944-25.055,6.278-10.389,17.278-16.167,14-12.556,15.111-17-.333-9.889-3-16.889-10.222-22.444-17.444-30.333-12.695-13.528-19.611-19.2-19.584-20.916-24.25-28.333-10.139-15.694-10.584-22.472-1-13.111,3-19.334,11.778-16,18.223-21.333,14.888-9.444,26.555-12,14.111-3.555,27.556-3.889,31.666,2,48,5.556a114.039,114.039,0,0,1,34.333,13.444c7.889,4.445,10.778,6.889,13.667,13.222s5.333,20.556,9.555,26.445,8.667,13.222,24.222,17.111,29.223,5.778,38,.889,21.556-27.667,28.112-31.445,9.333-10.222,33.555-18,29.222-15.222,32.333-21.777,4.667-18.334,11.667-25.334,16.333-18,30.556-19.666,8.777.111,25.222-3,21-6.223,29.889-7.778,15.555-3.222,21,.111,10.666,10.667,7.889,18.778-12.223,22.778-14.445,29.889-4.222,10.222-.666,17.555,11.555,12.778,23.444,15.445,29.222,3.777,37.222,6.222,15.445,5.278,19.778,10.778a26.994,26.994,0,0,1,4.167,25.833c-3.834,10.833-4.5,15.167-14.5,32.5s-17.167,29.833-19.667,38.333-2.5,12.834,2,18.334,14,12.166,28,12.333,35.167-1.5,46.333-7.167,22.334-9.333,27.167-20,3-19.333,6.167-25.666,9.333-16,22.833-17.167,44.833-1.111,50.389-5.778,11.444-10.666,5.444-27-26.111-45-36.666-54.555-12.111-12.889-23.556-23.778-19.333-19.222-19.222-28.667,1.444-25.889,11-31.555,11.778-7.556,22.889-8.223,28.333-.555,40.666-5.444,41.723-37.167,51.889-47.167,30-27.611,40.556-32.944,23-12.111,30.778-17.778,17.555-16.222,19.444-26.778,2-13.111,1.556-21-5.223-12.333-16.556-16.889-29.555-11.333-35.333-14.555-16.556-9.333-25-27.778-15.611-24.111-28.278-28.111-30-7-66.333-7.5-32.834-1.5-46-1.833-23.667-.167-54.5,10-29.834,15.666-62.5,15.666-24-.333-38.334,0-32.5-1-40.166-14.666,3-17.334,9.166-19,24.334-8.667,44.334-17,26-13,42.5-17,17.5-2.167,26.333-5.167,33.333-12.167,40.833-14,16.334-4.833,21.834-5.167,26.333-3.833,33.833-6.333,29.667-6,53-19.333,36.176-20.322,45.833-23.889c10-3.695,29.334-4.75,36.167-4.722,0,0,16-.056,19.167,2.944s1.166,7.667,2.5,16.167,1.333,11.333,7.5,17.5,21.5,22.166,25.5,26.333,11.5,14.1,31.833,14.333c14.667.167,20.083.084,24.833.834,9.175,1.448,18.014,2.1,23.667,18.416,2.917,8.417,2.667,17.584,2.333,26.584s-.333,16.833,4,28.833,11.167,38.667,11.334,47.333-.167,19.834-2.167,25.834a43.617,43.617,0,0,0-.667,28.333c4.9,16.7,12.945,30.778,18.778,45.611s18.722,39.306,25.222,53.639"/><path id="d6544b7e-d370-4093-86d5-15afb45527b0" data-name="Track Middle" class="870e25d8-541f-4d9c-937f-9f9edd247080" d="M853.592,1851.348a289.272,289.272,0,0,1-28.848,31.25c-15.43,14.195-28.291,25.167-41.125,33.834,0,0-20.861,15.694-31.639,22.25s-30.222,20.889-40.333,28.889-22.611,16.777-36.944,35.444-19.334,33.333-24.334,44.333-8.333,31.334-13.833,54.167-16.5,52-16.667,67.5,11.5,47,14.167,68.333,5,77.334,12.167,107,16,49.5,25,65.167a340.225,340.225,0,0,0,27.333,40c7.667,9.667,36.444,34.278,49.556,44.5s54.222,45.333,80.666,68,58.445,51,79.111,73,30.667,39.667,45.334,68.667,15.833,30.833,24,40.5,15.333,18.833,25.166,21,17.334-1.5,33.834-13.834,49.524-43.82,61.666-52.444c11.889-8.445,29-15.667,46.889-20.889,15.81-4.615,30.445-7.833,49.945-8.333s29.166-.667,48.166,4,28,9.5,42.167,17.333,13.611,8.333,24.389,13.889,16.667,8.778,24.111,9.555,9-2.222,18.444,0,23.445,9.889,35.667,16.223,30.667,15.777,53.778,26.889,36.444,17.777,58.444,29.333,28,14.222,37.778,15.333,36.889-13.555,47.111-18.222,29.611-13.167,37.945-17.667,22-9.166,16.166-21.333-11.478-19.219-8.166-27.167c4.166-10,29.666-19.666,41.333-26s42.722-22.722,64.944-33.611,47.556-28,69.778-33.111,54.667-10.444,87.111-13.333,25.111-5.111,58.667-4.889,70.222.222,95.556,2.667,56.444,11.777,78.666,20.444,44.889,14.667,55.111,22.222,6.334,19.222,5.778,26.445c-.459,5.975-5.778,47.555-7.333,76-1.39,25.422-1.84,49.849-.667,72,1.409,26.613,6.052,52.035,4.889,64.444-2.333,24.889-21.467,12.66-37,4.556-15.333-8-34.036-21.236-38.167-24.334-16-12-34.831-25.248-40-30.166a98.759,98.759,0,0,1-8.611-9.611,23.543,23.543,0,0,0-14.555-7.889c-8.223-1.334-18.111,5.111-27.445,10.444s-28.248,13.758-38.778,18.445c-10.611,4.722-45.611,19.277-55.611,24.944-9.776,5.54-30.083,16.333-38.833,21.5-8.6,5.078-17.667,8.5-23,15.75-5.247,7.133-7.167,15.667-4.25,22.167a23.778,23.778,0,0,0,19,13.25c9.778,1.111,37.389.705,50.75.5,10.833-.167,25.577-1.316,45,.166,21.833,1.667,51.31,6.553,56.833,7.334,15.334,2.166,93.234,10.749,110.5,12.333,18.167,1.667,54.667,4.833,72.5,16,16.143,10.108,24.667,21.056,28.445,38.278,3.733,17.019,5.288,26.377,1.333,48.666-3.667,20.667-13.468,46.614-19.028,60.556-5.583,14-9.416,29.083-15.25,34.917-5.5,5.5-10.25,5.75-16.166,4.861-7.371-1.108-9.556-2-18.889-1.556-9.418.449-12.667.778-19.778,5.667-7.035,4.837-10.222,10-10.444,16.778-.133,4.053,1.067,11.334,6.555,14.777,5.667,3.556,10.222,3.889,18.445,4.334s15.634,1.152,23.111,3.555c6.222,2,12.222,5,16.777,10.889,4.8,6.2,6.445,10.889,6.223,18.222-.136,4.465-1,14.522-9.223,37.556-14.544,40.754-20.666,52.889-24.444,63.111-3.342,9.043-14.3,32.388-10.778,40.445,3.445,7.888,15.791,11.448,26.445,15,12.333,4.111,30.111,9.888,41.111,13.111,11.2,3.28,19.444,5.444,26.778-5.889s20.388-55.667,29.944-80.778,45.531-120.109,60.167-160.333c17.222-47.334,67.889-200.445,67.889-200.445,2-5.333,19.444-60.111,31.666-94.778s31.445-79.777,32.611-91.111c1.207-11.724,1.056-20.555-8.277-29s-53.778-26-53.778-26-73.611-26.666-105.611-38-64.49-22.583-78.167-26.889c-12-3.777-28.333-10.444-31-2.444-2.111,6.333,18.786,12.757,26.333,15.667,9.223,3.555,49.237,17.315,63.111,22.111,17.377,6.007,42.758,12.991,47.112,24.666,4.888,13.112-2.718,38.565-5.223,53.056-2.333,13.5-3.777,26.944-12.111,30.278-9.433,3.773-33.555-7.778-43.722-12.278-18.993-8.407-41.558-16.761-63.167-23.833-24.266-7.943-44.666-2.667-68.166,3.333-8.968,2.289-37.5,12.778-46.167,16.333-9.83,4.033-36.167,15.667-44,19.834-8.252,4.389-17.853-2.029-23.667-11.667-6.333-10.5-17.379-30.617-24-42.667-8.333-15.166-13.916-24.481-18.666-31.166-4.5-6.334-12-7-21.778-.111-12.854,9.055-18.222,5.944-24.556-4.389-6.436-10.5-11.9-17.858-16.833-24.667-6.111-8.444-11.389-23.167-13.5-40.056-1.465-11.72-3.248-26.791-.667-48.444,6.889-57.778,8.667-77.111,10.445-116.667s5-110.5,8.889-144.333c3.9-33.907,6.222-65.222,4-94.111s-12.667-52.056-17.778-69.333c-5.443-18.4-9.222-26.723-5.222-39.723s38.666-36.5,44.666-47.5,6.667-14,7-29-14-46-21.666-55.333-11-17.333-7-27.333,17.333-17.667,30.333-25.667,24.333-18,25.333-37.667.5-35.666-12.833-49-22.167-20-44.5-22.666-30.333-3.334-53-23.667-16.333-21.333-42.333-37-45.334-17.667-56.334-33.333a143.852,143.852,0,0,1-19.666-42.334c-2-8-3.667-26,4.333-55.333s11.667-40.333,10.333-51.333-4.666-19.334-17.333-31.334-25.167-22.666-31.333-32c-4.407-6.669-10.167-16.166-12.334-33-.887-6.9-2.555-15.444-3.372-23.852-.744-7.663-1.85-14.7-2.961-20.981-4.1-23.165-18.167-42.667-22.167-60.167-4.089-17.891-4.163-39.78-3.722-55,.445-15.333,3.648-33.557,4.889-50.889,1.482-20.683,4.614-39.589,6.667-46.444,4.916-16.417,17.333-38,25.666-56s6.667-44.667,5.334-56-9-31.444-25.667-40.111-36.333-10.111-51.778-11.111a62.894,62.894,0,0,1-37.555-15.222c-9-8-11.834-11.389-12-19.223s5.5-22.9,19.666-39a196.793,196.793,0,0,1,20.556-20.555c6.549-5.573,16.9-13.031,27.778-21,14.555-10.667,13.166-13.778,21.166-22.611s32.834-20.667,45.834-28,37.166-21.667,43.166-30,15.167-13.834,15.5-33.834-21.777-35.222-38.666-44.333c-7.606-4.1-24.889-12.889-38.778-20.889-16.524-9.518-28.449-18.2-30.556-20.333-6.271-6.362-20.166-25.111-15.5-45.111s13.667-31.167,34-49.334,20.5-19.666,25.334-26.666,8.5-24.5-2.334-39.834-28.333-34.666-33.333-46.5-3.743-26.268,11.833-43.833c7.834-8.833,22.391-19.978,30.167-26.167,11.114-8.844,19.774-16.459,25.167-22.833,9.166-10.833,9.166-22.5,8.166-35.167s-1.666-32.166,20.167-45.5,65.667-27.722,80.778-34.5,30.555-17.5,39.889-39.333,9.111-30.222,8.444-46.222-14.889-43.111-21.778-68.445-8.666-49.777,7.334-68.666,34.222-38.334,50.444-48.111,23.556-11.556,30.445-17.112,6.694-19.277,4.361-25.444-11.139-18.222-29.695-21.556-41.333-4.444-60-8.333-43.222-5.611-67.555,3.722-66,38.167-78.167,44.5-54.5,31.167-80.167,37.167-24.5,7.667-47.666,8-39.834-2.333-55.667-5-36.5-.833-47.667,3.833-45.5,17.5-79.333,45.167-36.444,29.833-52,43.833-29.556,26.667-52.222,47.111-64.889,64-88.445,88.889-44.222,44-50.666,50.889-4.889,13.334-4.889,23.778c0,5.546-.439,17.231-1.15,28.669-.627,10.1-1.468,20.015-2.406,25.331-2,11.333-5.111,37.778-4.889,69.333s.223,76.889-3.777,90.223-11.334,31.111-26.667,34-36.222,1.555-57.333,1.333-35.112,1.333-42.223,8.222-13.777,11.778-9.111,33.556a192.485,192.485,0,0,0,19.556,53.777c9.111,17.334,32.889,60.223,36.444,66s10.445,15.556,15.611,27.889,5.5,18.834,5,24.834-3.333,21.666-7.333,36.5-18,43.666-23.833,55.166-29,53.334-34.5,62.334-13.834,31.833-12.167,47.5,1.333,19.666,5.833,31.5,17.667,51.5,19,62.666,4.167,16,3.5,30.167-6.833,56.5-12.333,68.167-17,33.5-31.5,47.333-45.667,42-53,52.167-19.167,19.333-27.5,44-11,43.666-14.5,65-3.333,54.333-.167,67.833,6.167,25.667,8,36.167,1.167,33.833-1.166,48.5-13.389,54.944-21.389,76.722-29.778,80.667-43.778,102.889-23.611,39.222-30.944,47.555c-8.535,9.7-11.167,12.889-15.612,14.667-6.23,2.492-12.777-2.917-17.277-6.333s-18-9.5-28.834-8.417-19.666,5.083-29,13.75-29.555,28.444-37.111,34.889-35.555,31.555-42.111,35.889-25,19.333-37,25.778-18.889,10.666-29.555,12.444-18.445,1.778-24.556-5.889-9.333-16.333-9.667-29.778-.111-18,1.667-37.555,7.778-50.556,8.333-65.778,2.889-29.222-.666-46.333-7.778-21.667-14.889-27.556-21.667-8.778-33.445-10.555-32.111-8-41.222-13.334-23.222-15.222-34.333-28.666-16.556-22.778-28.667-36.334-26.778-30-36.333-35.778-17.778-8.888-24.778-7.666-13.778,4.889-26,20.111-23,26.889-37.444,29-19.778-1-34.112-2.556-53.222-6-68.555-8.555-60.722-9.445-80.222-16.611-38.5-12.5-54.834-22.334S59.2,1617.126,52.2,1610.9s-9.778-12.222-12.111-18-3.889-34.333-4.778-46.667-5.111-49-4.556-66.666.111-27.889,1.778-49.223,4.333-54.5,4.833-71.5.389-27.277-.5-46.833-3.333-35.444-6.333-44.333S24.425,1254.9,16.758,1249.9s-6.778-13-2.555-19.333,10.833-16.056,11.333-25.889-4.167-14-4.667-22-.833-21.334,4-30.834,11.334-26.5,16.334-34,10.111-11.722,19.333-16.722,13.222-5.667,17.889-7.444,15.555-4.223,29.555-3.889,21,.666,28.556-4.889,11-7.667,11.889-19.667.861-20.889,3.944-25.055,6.278-10.389,17.278-16.167,14-12.556,15.111-17-.333-9.889-3-16.889-10.222-22.444-17.444-30.333-12.695-13.528-19.611-19.2-19.584-20.916-24.25-28.333-10.139-15.694-10.584-22.472-1-13.111,3-19.334,11.778-16,18.223-21.333,14.888-9.444,26.555-12,14.111-3.555,27.556-3.889,31.666,2,48,5.556a114.039,114.039,0,0,1,34.333,13.444c7.889,4.445,10.778,6.889,13.667,13.222s5.333,20.556,9.555,26.445,8.667,13.222,24.222,17.111,29.223,5.778,38,.889,21.556-27.667,28.112-31.445,9.333-10.222,33.555-18,29.222-15.222,32.333-21.777,4.667-18.334,11.667-25.334,16.333-18,30.556-19.666,8.777.111,25.222-3,21-6.223,29.889-7.778,15.555-3.222,21,.111,10.666,10.667,7.889,18.778-12.223,22.778-14.445,29.889-4.222,10.222-.666,17.555,11.555,12.778,23.444,15.445,29.222,3.777,37.222,6.222,15.445,5.278,19.778,10.778a26.994,26.994,0,0,1,4.167,25.833c-3.834,10.833-4.5,15.167-14.5,32.5s-17.167,29.833-19.667,38.333-2.5,12.834,2,18.334,14,12.166,28,12.333,35.167-1.5,46.333-7.167,22.334-9.333,27.167-20,3-19.333,6.167-25.666,9.333-16,22.833-17.167,44.833-1.111,50.389-5.778,11.444-10.666,5.444-27-26.111-45-36.666-54.555-12.111-12.889-23.556-23.778-19.333-19.222-19.222-28.667,1.444-25.889,11-31.555,11.778-7.556,22.889-8.223,28.333-.555,40.666-5.444,41.723-37.167,51.889-47.167,30-27.611,40.556-32.944,23-12.111,30.778-17.778,17.555-16.222,19.444-26.778,2-13.111,1.556-21-5.223-12.333-16.556-16.889-29.555-11.333-35.333-14.555-16.556-9.333-25-27.778-15.611-24.111-28.278-28.111-30-7-66.333-7.5-32.834-1.5-46-1.833-23.667-.167-54.5,10-29.834,15.666-62.5,15.666-24-.333-38.334,0-32.5-1-40.166-14.666,3-17.334,9.166-19,24.334-8.667,44.334-17,26-13,42.5-17,17.5-2.167,26.333-5.167,33.333-12.167,40.833-14,16.334-4.833,21.834-5.167,26.333-3.833,33.833-6.333,29.667-6,53-19.333,36.176-20.322,45.833-23.889c10-3.695,29.334-4.75,36.167-4.722,0,0,16-.056,19.167,2.944s1.166,7.667,2.5,16.167,1.333,11.333,7.5,17.5,21.5,22.166,25.5,26.333,11.5,14.1,31.833,14.333c14.667.167,20.083.084,24.833.834,9.175,1.448,18.014,2.1,23.667,18.416,2.917,8.417,2.667,17.584,2.333,26.584s-.333,16.833,4,28.833,11.167,38.667,11.334,47.333-.167,19.834-2.167,25.834a43.617,43.617,0,0,0-.667,28.333c4.9,16.7,12.945,30.778,18.778,45.611s18.722,39.306,25.222,53.639"/><path id="283b16db-3315-4d81-bcc3-ad1780d52aa0" data-name="Track Inner" class="d034e88c-a428-40c5-8cb3-6d284824cae9" d="M853.592,1851.348a289.272,289.272,0,0,1-28.848,31.25c-15.43,14.195-28.291,25.167-41.125,33.834,0,0-20.861,15.694-31.639,22.25s-30.222,20.889-40.333,28.889-22.611,16.777-36.944,35.444-19.334,33.333-24.334,44.333-8.333,31.334-13.833,54.167-16.5,52-16.667,67.5,11.5,47,14.167,68.333,5,77.334,12.167,107,16,49.5,25,65.167a340.225,340.225,0,0,0,27.333,40c7.667,9.667,36.444,34.278,49.556,44.5s54.222,45.333,80.666,68,58.445,51,79.111,73,30.667,39.667,45.334,68.667,15.833,30.833,24,40.5,15.333,18.833,25.166,21,17.334-1.5,33.834-13.834,49.524-43.82,61.666-52.444c11.889-8.445,29-15.667,46.889-20.889,15.81-4.615,30.445-7.833,49.945-8.333s29.166-.667,48.166,4,28,9.5,42.167,17.333,13.611,8.333,24.389,13.889,16.667,8.778,24.111,9.555,9-2.222,18.444,0,23.445,9.889,35.667,16.223,30.667,15.777,53.778,26.889,36.444,17.777,58.444,29.333,28,14.222,37.778,15.333,36.889-13.555,47.111-18.222,29.611-13.167,37.945-17.667,22-9.166,16.166-21.333-11.478-19.219-8.166-27.167c4.166-10,29.666-19.666,41.333-26s42.722-22.722,64.944-33.611,47.556-28,69.778-33.111,54.667-10.444,87.111-13.333,25.111-5.111,58.667-4.889,70.222.222,95.556,2.667,56.444,11.777,78.666,20.444,44.889,14.667,55.111,22.222,6.334,19.222,5.778,26.445c-.459,5.975-5.778,47.555-7.333,76-1.39,25.422-1.84,49.849-.667,72,1.409,26.613,6.052,52.035,4.889,64.444-2.333,24.889-21.467,12.66-37,4.556-15.333-8-34.036-21.236-38.167-24.334-16-12-34.831-25.248-40-30.166a98.759,98.759,0,0,1-8.611-9.611,23.543,23.543,0,0,0-14.555-7.889c-8.223-1.334-18.111,5.111-27.445,10.444s-28.248,13.758-38.778,18.445c-10.611,4.722-45.611,19.277-55.611,24.944-9.776,5.54-30.083,16.333-38.833,21.5-8.6,5.078-17.667,8.5-23,15.75-5.247,7.133-7.167,15.667-4.25,22.167a23.778,23.778,0,0,0,19,13.25c9.778,1.111,37.389.705,50.75.5,10.833-.167,25.577-1.316,45,.166,21.833,1.667,51.31,6.553,56.833,7.334,15.334,2.166,93.234,10.749,110.5,12.333,18.167,1.667,54.667,4.833,72.5,16,16.143,10.108,24.667,21.056,28.445,38.278,3.733,17.019,5.288,26.377,1.333,48.666-3.667,20.667-13.468,46.614-19.028,60.556-5.583,14-9.416,29.083-15.25,34.917-5.5,5.5-10.25,5.75-16.166,4.861-7.371-1.108-9.556-2-18.889-1.556-9.418.449-12.667.778-19.778,5.667-7.035,4.837-10.222,10-10.444,16.778-.133,4.053,1.067,11.334,6.555,14.777,5.667,3.556,10.222,3.889,18.445,4.334s15.634,1.152,23.111,3.555c6.222,2,12.222,5,16.777,10.889,4.8,6.2,6.445,10.889,6.223,18.222-.136,4.465-1,14.522-9.223,37.556-14.544,40.754-20.666,52.889-24.444,63.111-3.342,9.043-14.3,32.388-10.778,40.445,3.445,7.888,15.791,11.448,26.445,15,12.333,4.111,30.111,9.888,41.111,13.111,11.2,3.28,19.444,5.444,26.778-5.889s20.388-55.667,29.944-80.778,45.531-120.109,60.167-160.333c17.222-47.334,67.889-200.445,67.889-200.445,2-5.333,19.444-60.111,31.666-94.778s31.445-79.777,32.611-91.111c1.207-11.724,1.056-20.555-8.277-29s-53.778-26-53.778-26-73.611-26.666-105.611-38-64.49-22.583-78.167-26.889c-12-3.777-28.333-10.444-31-2.444-2.111,6.333,18.786,12.757,26.333,15.667,9.223,3.555,49.237,17.315,63.111,22.111,17.377,6.007,42.758,12.991,47.112,24.666,4.888,13.112-2.718,38.565-5.223,53.056-2.333,13.5-3.777,26.944-12.111,30.278-9.433,3.773-33.555-7.778-43.722-12.278-18.993-8.407-41.558-16.761-63.167-23.833-24.266-7.943-44.666-2.667-68.166,3.333-8.968,2.289-37.5,12.778-46.167,16.333-9.83,4.033-36.167,15.667-44,19.834-8.252,4.389-17.853-2.029-23.667-11.667-6.333-10.5-17.379-30.617-24-42.667-8.333-15.166-13.916-24.481-18.666-31.166-4.5-6.334-12-7-21.778-.111-12.854,9.055-18.222,5.944-24.556-4.389-6.436-10.5-11.9-17.858-16.833-24.667-6.111-8.444-11.389-23.167-13.5-40.056-1.465-11.72-3.248-26.791-.667-48.444,6.889-57.778,8.667-77.111,10.445-116.667s5-110.5,8.889-144.333c3.9-33.907,6.222-65.222,4-94.111s-12.667-52.056-17.778-69.333c-5.443-18.4-9.222-26.723-5.222-39.723s38.666-36.5,44.666-47.5,6.667-14,7-29-14-46-21.666-55.333-11-17.333-7-27.333,17.333-17.667,30.333-25.667,24.333-18,25.333-37.667.5-35.666-12.833-49-22.167-20-44.5-22.666-30.333-3.334-53-23.667-16.333-21.333-42.333-37-45.334-17.667-56.334-33.333a143.852,143.852,0,0,1-19.666-42.334c-2-8-3.667-26,4.333-55.333s11.667-40.333,10.333-51.333-4.666-19.334-17.333-31.334-25.167-22.666-31.333-32c-4.407-6.669-10.167-16.166-12.334-33-.887-6.9-2.555-15.444-3.372-23.852-.744-7.663-1.85-14.7-2.961-20.981-4.1-23.165-18.167-42.667-22.167-60.167-4.089-17.891-4.163-39.78-3.722-55,.445-15.333,3.648-33.557,4.889-50.889,1.482-20.683,4.614-39.589,6.667-46.444,4.916-16.417,17.333-38,25.666-56s6.667-44.667,5.334-56-9-31.444-25.667-40.111-36.333-10.111-51.778-11.111a62.894,62.894,0,0,1-37.555-15.222c-9-8-11.834-11.389-12-19.223s5.5-22.9,19.666-39a196.793,196.793,0,0,1,20.556-20.555c6.549-5.573,16.9-13.031,27.778-21,14.555-10.667,13.166-13.778,21.166-22.611s32.834-20.667,45.834-28,37.166-21.667,43.166-30,15.167-13.834,15.5-33.834-21.777-35.222-38.666-44.333c-7.606-4.1-24.889-12.889-38.778-20.889-16.524-9.518-28.449-18.2-30.556-20.333-6.271-6.362-20.166-25.111-15.5-45.111s13.667-31.167,34-49.334,20.5-19.666,25.334-26.666,8.5-24.5-2.334-39.834-28.333-34.666-33.333-46.5-3.743-26.268,11.833-43.833c7.834-8.833,22.391-19.978,30.167-26.167,11.114-8.844,19.774-16.459,25.167-22.833,9.166-10.833,9.166-22.5,8.166-35.167s-1.666-32.166,20.167-45.5,65.667-27.722,80.778-34.5,30.555-17.5,39.889-39.333,9.111-30.222,8.444-46.222-14.889-43.111-21.778-68.445-8.666-49.777,7.334-68.666,34.222-38.334,50.444-48.111,23.556-11.556,30.445-17.112,6.694-19.277,4.361-25.444-11.139-18.222-29.695-21.556-41.333-4.444-60-8.333-43.222-5.611-67.555,3.722-66,38.167-78.167,44.5-54.5,31.167-80.167,37.167-24.5,7.667-47.666,8-39.834-2.333-55.667-5-36.5-.833-47.667,3.833-45.5,17.5-79.333,45.167-36.444,29.833-52,43.833-29.556,26.667-52.222,47.111-64.889,64-88.445,88.889-44.222,44-50.666,50.889-4.889,13.334-4.889,23.778c0,5.546-.439,17.231-1.15,28.669-.627,10.1-1.468,20.015-2.406,25.331-2,11.333-5.111,37.778-4.889,69.333s.223,76.889-3.777,90.223-11.334,31.111-26.667,34-36.222,1.555-57.333,1.333-35.112,1.333-42.223,8.222-13.777,11.778-9.111,33.556a192.485,192.485,0,0,0,19.556,53.777c9.111,17.334,32.889,60.223,36.444,66s10.445,15.556,15.611,27.889,5.5,18.834,5,24.834-3.333,21.666-7.333,36.5-18,43.666-23.833,55.166-29,53.334-34.5,62.334-13.834,31.833-12.167,47.5,1.333,19.666,5.833,31.5,17.667,51.5,19,62.666,4.167,16,3.5,30.167-6.833,56.5-12.333,68.167-17,33.5-31.5,47.333-45.667,42-53,52.167-19.167,19.333-27.5,44-11,43.666-14.5,65-3.333,54.333-.167,67.833,6.167,25.667,8,36.167,1.167,33.833-1.166,48.5-13.389,54.944-21.389,76.722-29.778,80.667-43.778,102.889-23.611,39.222-30.944,47.555c-8.535,9.7-11.167,12.889-15.612,14.667-6.23,2.492-12.777-2.917-17.277-6.333s-18-9.5-28.834-8.417-19.666,5.083-29,13.75-29.555,28.444-37.111,34.889-35.555,31.555-42.111,35.889-25,19.333-37,25.778-18.889,10.666-29.555,12.444-18.445,1.778-24.556-5.889-9.333-16.333-9.667-29.778-.111-18,1.667-37.555,7.778-50.556,8.333-65.778,2.889-29.222-.666-46.333-7.778-21.667-14.889-27.556-21.667-8.778-33.445-10.555-32.111-8-41.222-13.334-23.222-15.222-34.333-28.666-16.556-22.778-28.667-36.334-26.778-30-36.333-35.778-17.778-8.888-24.778-7.666-13.778,4.889-26,20.111-23,26.889-37.444,29-19.778-1-34.112-2.556-53.222-6-68.555-8.555-60.722-9.445-80.222-16.611-38.5-12.5-54.834-22.334S59.2,1617.126,52.2,1610.9s-9.778-12.222-12.111-18-3.889-34.333-4.778-46.667-5.111-49-4.556-66.666.111-27.889,1.778-49.223,4.333-54.5,4.833-71.5.389-27.277-.5-46.833-3.333-35.444-6.333-44.333S24.425,1254.9,16.758,1249.9s-6.778-13-2.555-19.333,10.833-16.056,11.333-25.889-4.167-14-4.667-22-.833-21.334,4-30.834,11.334-26.5,16.334-34,10.111-11.722,19.333-16.722,13.222-5.667,17.889-7.444,15.555-4.223,29.555-3.889,21,.666,28.556-4.889,11-7.667,11.889-19.667.861-20.889,3.944-25.055,6.278-10.389,17.278-16.167,14-12.556,15.111-17-.333-9.889-3-16.889-10.222-22.444-17.444-30.333-12.695-13.528-19.611-19.2-19.584-20.916-24.25-28.333-10.139-15.694-10.584-22.472-1-13.111,3-19.334,11.778-16,18.223-21.333,14.888-9.444,26.555-12,14.111-3.555,27.556-3.889,31.666,2,48,5.556a114.039,114.039,0,0,1,34.333,13.444c7.889,4.445,10.778,6.889,13.667,13.222s5.333,20.556,9.555,26.445,8.667,13.222,24.222,17.111,29.223,5.778,38,.889,21.556-27.667,28.112-31.445,9.333-10.222,33.555-18,29.222-15.222,32.333-21.777,4.667-18.334,11.667-25.334,16.333-18,30.556-19.666,8.777.111,25.222-3,21-6.223,29.889-7.778,15.555-3.222,21,.111,10.666,10.667,7.889,18.778-12.223,22.778-14.445,29.889-4.222,10.222-.666,17.555,11.555,12.778,23.444,15.445,29.222,3.777,37.222,6.222,15.445,5.278,19.778,10.778a26.994,26.994,0,0,1,4.167,25.833c-3.834,10.833-4.5,15.167-14.5,32.5s-17.167,29.833-19.667,38.333-2.5,12.834,2,18.334,14,12.166,28,12.333,35.167-1.5,46.333-7.167,22.334-9.333,27.167-20,3-19.333,6.167-25.666,9.333-16,22.833-17.167,44.833-1.111,50.389-5.778,11.444-10.666,5.444-27-26.111-45-36.666-54.555-12.111-12.889-23.556-23.778-19.333-19.222-19.222-28.667,1.444-25.889,11-31.555,11.778-7.556,22.889-8.223,28.333-.555,40.666-5.444,41.723-37.167,51.889-47.167,30-27.611,40.556-32.944,23-12.111,30.778-17.778,17.555-16.222,19.444-26.778,2-13.111,1.556-21-5.223-12.333-16.556-16.889-29.555-11.333-35.333-14.555-16.556-9.333-25-27.778-15.611-24.111-28.278-28.111-30-7-66.333-7.5-32.834-1.5-46-1.833-23.667-.167-54.5,10-29.834,15.666-62.5,15.666-24-.333-38.334,0-32.5-1-40.166-14.666,3-17.334,9.166-19,24.334-8.667,44.334-17,26-13,42.5-17,17.5-2.167,26.333-5.167,33.333-12.167,40.833-14,16.334-4.833,21.834-5.167,26.333-3.833,33.833-6.333,29.667-6,53-19.333,36.176-20.322,45.833-23.889c10-3.695,29.334-4.75,36.167-4.722,0,0,16-.056,19.167,2.944s1.166,7.667,2.5,16.167,1.333,11.333,7.5,17.5,21.5,22.166,25.5,26.333,11.5,14.1,31.833,14.333c14.667.167,20.083.084,24.833.834,9.175,1.448,18.014,2.1,23.667,18.416,2.917,8.417,2.667,17.584,2.333,26.584s-.333,16.833,4,28.833,11.167,38.667,11.334,47.333-.167,19.834-2.167,25.834a43.617,43.617,0,0,0-.667,28.333c4.9,16.7,12.945,30.778,18.778,45.611s18.722,39.306,25.222,53.639"/><g id="d767f6bd-c7e3-4e57-9d97-e161d59b1659" data-name="Crossover 2"><path id="524b4668-379c-40c8-8f39-628eaae5e7ac" data-name="Track Outer" class="6e4c132c-39d7-4f12-90eb-850dd50e87e4" d="M1933.911,2694.338c-6.111-8.445-11.389-23.167-13.5-40.056-1.465-11.72-3.248-26.791-.667-48.444,6.889-57.778,8.764-76.642,10.542-116.2"/><path id="ade02a83-9f32-4335-822b-94ffc9797aa5" data-name="Track Middle" class="870e25d8-541f-4d9c-937f-9f9edd247080" d="M1934.04,2694.534c-6.111-8.444-11.389-23.166-13.5-40.055-1.465-11.72-3.248-26.792-.666-48.445,6.888-57.778,8.666-77.111,10.444-116.666"/><path id="86025109-812f-4d29-89a6-c92886ff9b75" data-name="Track Inner" class="d034e88c-a428-40c5-8cb3-6d284824cae9" d="M1934.088,2694.579c-6.111-8.445-11.389-23.167-13.5-40.056-1.465-11.72-3.248-26.792-.666-48.444,6.889-57.778,8.619-77.3,10.4-116.854"/></g><g id="1dac8925-47cc-4d19-a6d2-c51500229c6b" data-name="Crossover 1"><path id="df30bf3c-c641-4cdd-85e6-f14f421f69de" data-name="Crossover Outer" class="6e4c132c-39d7-4f12-90eb-850dd50e87e4" d="M2180.467,2752.251c-.848,14.594-1.056,21.6-1.32,32.514"/><path id="079d0355-827e-4306-a4ee-812f328978b6" data-name="Crossover Middle" class="870e25d8-541f-4d9c-937f-9f9edd247080" d="M2180.474,2751.838c-.848,14.594-1.091,22.385-1.355,33.3"/><path id="99556e93-97ce-4f65-90a3-ab90d293a14d" data-name="Crossover Inner" class="d034e88c-a428-40c5-8cb3-6d284824cae9" d="M2180.494,2751.671c-.847,14.594-1.1,22.705-1.361,33.622"/></g><use id="dc2401df-3370-4fbd-bfb6-4fe3bf72e1e2" data-name="Start-Finish-Line" width="200" height="103.617" transform="matrix(-0.273, -0.088, 0.088, -0.273, 2449.711, 2976.089)" xlink:href="#d5669d23-915b-4f44-9684-8010e07c979a"/></g></g></g></svg>