<svg xmlns="http://www.w3.org/2000/svg" xmlns:xlink="http://www.w3.org/1999/xlink" width="1142.148" height="615.392" viewBox="0 0 1142.148 615.392"><defs><style>.a6c028a7-13cc-4ba3-a353-b31fa7d40bbf{fill:#00ff24;}.a6c028a7-13cc-4ba3-a353-b31fa7d40bbf,.bbe0f596-dfde-457b-871c-d20276bd1bd5{stroke:#000;stroke-width:5px;}.\34 39415b8-18ce-4bad-964d-cbae1f983580,.\37 348ce8c-74fa-4cdf-a003-440f9c015702,.a37da762-693d-4adf-a902-43e922dc0509,.a6c028a7-13cc-4ba3-a353-b31fa7d40bbf,.bbe0f596-dfde-457b-871c-d20276bd1bd5,.ce9cf12f-3379-457c-8de7-cf90d8e37321,.ceef4477-1bff-46ce-bb6c-9ad7f4d2d04a{stroke-miterlimit:10;}.bbe0f596-dfde-457b-871c-d20276bd1bd5{fill:#fff;}.\34 39415b8-18ce-4bad-964d-cbae1f983580,.\37 348ce8c-74fa-4cdf-a003-440f9c015702,.a37da762-693d-4adf-a902-43e922dc0509,.ce9cf12f-3379-457c-8de7-cf90d8e37321,.ceef4477-1bff-46ce-bb6c-9ad7f4d2d04a{fill:none;}.\37 348ce8c-74fa-4cdf-a003-440f9c015702,.a37da762-693d-4adf-a902-43e922dc0509{stroke:#c91c1c;}.\34 39415b8-18ce-4bad-964d-cbae1f983580,.a37da762-693d-4adf-a902-43e922dc0509{stroke-width:20px;}.\34 39415b8-18ce-4bad-964d-cbae1f983580,.ceef4477-1bff-46ce-bb6c-9ad7f4d2d04a{stroke:#0080ff;}.ce9cf12f-3379-457c-8de7-cf90d8e37321{stroke:#fff;stroke-width:12px;}.\37 348ce8c-74fa-4cdf-a003-440f9c015702,.ceef4477-1bff-46ce-bb6c-9ad7f4d2d04a{stroke-width:2px;}</style><symbol id="3a4c534b-6f06-4842-ab06-1cb914d68a58" data-name="fd103434-89f2-4089-acf9-54fed79ed404" viewBox="0 0 200 103.617"><rect class="a6c028a7-13cc-4ba3-a353-b31fa7d40bbf" x="2.5" y="54.074" width="195" height="47.043"/><rect class="bbe0f596-dfde-457b-871c-d20276bd1bd5" x="2.5" y="2.5" width="48.75" height="48.75"/><rect class="bbe0f596-dfde-457b-871c-d20276bd1bd5" x="51.25" y="2.5" width="48.75" height="48.75"/><rect class="bbe0f596-dfde-457b-871c-d20276bd1bd5" x="100" y="2.5" width="48.75" height="48.75"/><rect class="bbe0f596-dfde-457b-871c-d20276bd1bd5" x="148.75" y="2.5" width="48.75" height="48.75"/></symbol></defs><title>Olympic_GP</title><g id="25cb4f29-1b85-40ab-9f52-eef5253b0364" data-name="Layer 2"><g id="12d443f0-1a15-4992-9f61-f7f235e1b66f" data-name="Broughy1322"><g id="9790c049-9aa6-451e-a4fd-2dea55e440cc" data-name="Olympic_GP"><path id="dcf160d7-dc28-4544-b187-2633fffb380a" data-name="Pit Outer" class="a37da762-693d-4adf-a902-43e922dc0509" d="M143.99,445.107c21.177-.286,31.243-4.925,45.816-3.375,11.75,1.25,17.061,2.883,27.944,9.667,13.037,8.125,23.278,17.777,35.723,28.555,5.183,4.489,103.5,88.785,115.555,98.111,16.667,12.889,19,15.556,31.667,1.667,13.848-15.185,104.444-124.167,113.778-135.667s13.555-19.528,11.222-27.778-21.528-31-28.445-39.333c-6.983-8.414-25.555-33-33.555-47s-5.694-24.94-5.277-32.273"/><path id="44580730-b7af-4170-9f3a-54656132a93f" data-name="Track Outer" class="439415b8-18ce-4bad-964d-cbae1f983580" d="M525.417,456.315c6.167-7.25,20.889-23.416,16-43.416s-34.788-41.429-48.056-55.278c-15.222-15.889-37.36-41.946-34.777-61.667,3.5-26.722,1.557-87.321.916-104.472-.75-20.083,11.75-19.306,36.861-19.639,10.557-.14,34.479-.309,54.112-.111,33,.333,41.129,1.3,50.777-14.445,9.056-14.777-1.581-32.384,10.556-61.444C623.639,67.51,631.439,44.988,638.7,25.065c6.778-18.611,17.222-14.778,45.666-14.666,15.117.059,49.582.733,82.556,1.166,31.043.408,60.8.721,70.667.5,22.333-.5,30.889-.778,30.222,18.111-.706,20,.164,228.23-.306,242.556-.166,5.083.917,16.5-15.666,16.333-31.667-.318-52.473.778-67.361,1-12.7.19-13.389,1.667-26.056,17s-21.389,23.334-27.278,31.778c-5.8,8.316-4.222,16.556,8.445,26.556s73.536,59.841,90.222,66.333c17.278,6.722,45.644,12.316,57.667,13,13.666.778,20,16.417,13.333,22.667-6.347,5.95-14.889-2.556-21.667-5.778-6.713-3.192-22.555-5.778-36.889-5.111a78.411,78.411,0,0,0-37.666,11.722c-11.667,7.167-61.778,39.611-76.223,43.833-13.64,3.988-29.111,5.5-52.277-8.333-11.519-6.878-88.171-60.607-96.167-75-11.111-20-9.417-39.373,3.556-67.889,12.333-27.111,21.777-47.444,23.111-81.111s-3.262-72.083-4-82c-1.167-15.667-2.334-23.167,23.333-23.833,36-.936,104.507-.874,121.5-.5,15.167.333,24.246,2.5,24.333-17,.056-12.445.056-33.538.167-45.778C772.028,98.4,779.75,99.9,808.75,95.9s232.851-30.555,272.334-36c24.166-3.334,38.017-8.359,41.666,19.166,4,30.167,8.167,71.334,9,88.834.752,15.79,2.167,21.277-14.5,22-21.669.939-96.222-.167-113.444,4.611-15.986,4.434-49.556,22.555-73.222,23.555s-50,1-85.667,1.334-129.889,1.777-161.556,1.777-93.555-1.777-140.444,1.556c-45.094,3.206-111.333,8.222-170.667,6.222-57.945-1.953-119.555-2-154.444-2.889-33.323-.849-67.889-.833-89.889-6.166-25.034-6.069-47.333-20.334-55.333-39.667-7.949-19.21-8.178-55.326-8.5-78.667C63.75,77.4,62.74,48.462,57.75,38.482,49.084,21.149,35,24.537,29.75,38.4c-3,7.916-6.833,14.25-7.25,38.75-.417,24.522-6.916,68.25-9.583,90.25S6.7,206.287,16.25,223.51c6.787,12.232,21.183,29.333,43.834,36.055,10.981,3.259,37.359,2.175,62.944,2.056,26.321-.122,53.239-.133,67.889,0,24.556.222,23.667,15.666,3.667,15.666-17.89,0-64.667-2.222-80.334,4.445-14.547,6.19-37.247,30.544-39.166,55-1.945,24.778-1.809,78.445-1.945,88.111-.222,15.778-.834,20.12,13.778,20.444,15,.334,40.648-.016,61.444-.222,11.223-.111,31.723-4,61.223,21.667C240.543,493.668,350.25,584.9,365.25,596.9s31.679,11.064,42.834-1.417c11.916-13.333,52.461-63.2,68.722-82.195C493.361,493.954,520.2,462.454,525.417,456.315Z"/><path id="8bcb2453-64bc-4d4a-8c64-6bd51dfd8ec5" data-name="Track Middle" class="ce9cf12f-3379-457c-8de7-cf90d8e37321" d="M525.417,456.315c6.167-7.25,20.889-23.416,16-43.416s-34.788-41.429-48.056-55.278c-15.222-15.889-37.36-41.946-34.777-61.667,3.5-26.722,1.557-87.321.916-104.472-.75-20.083,11.75-19.306,36.861-19.639,10.557-.14,34.479-.309,54.112-.111,33,.333,41.129,1.3,50.777-14.445,9.056-14.777-1.581-32.384,10.556-61.444C623.639,67.51,631.439,44.988,638.7,25.065c6.778-18.611,17.222-14.778,45.666-14.666,15.117.059,49.582.733,82.556,1.166,31.043.408,60.8.721,70.667.5,22.333-.5,30.889-.778,30.222,18.111-.706,20,.164,228.23-.306,242.556-.166,5.083.917,16.5-15.666,16.333-31.667-.318-52.473.778-67.361,1-12.7.19-13.389,1.667-26.056,17s-21.389,23.334-27.278,31.778c-5.8,8.316-4.222,16.556,8.445,26.556s73.536,59.841,90.222,66.333c17.278,6.722,45.644,12.316,57.667,13,13.666.778,20,16.417,13.333,22.667-6.347,5.95-14.889-2.556-21.667-5.778-6.713-3.192-22.555-5.778-36.889-5.111a78.411,78.411,0,0,0-37.666,11.722c-11.667,7.167-61.778,39.611-76.223,43.833-13.64,3.988-29.111,5.5-52.277-8.333-11.519-6.878-88.171-60.607-96.167-75-11.111-20-9.417-39.373,3.556-67.889,12.333-27.111,21.777-47.444,23.111-81.111s-3.262-72.083-4-82c-1.167-15.667-2.334-23.167,23.333-23.833,36-.936,104.507-.874,121.5-.5,15.167.333,24.246,2.5,24.333-17,.056-12.445.056-33.538.167-45.778C772.028,98.4,779.75,99.9,808.75,95.9s232.851-30.555,272.334-36c24.166-3.334,38.017-8.359,41.666,19.166,4,30.167,8.167,71.334,9,88.834.752,15.79,2.167,21.277-14.5,22-21.669.939-96.222-.167-113.444,4.611-15.986,4.434-49.556,22.555-73.222,23.555s-50,1-85.667,1.334-129.889,1.777-161.556,1.777-93.555-1.777-140.444,1.556c-45.094,3.206-111.333,8.222-170.667,6.222-57.945-1.953-119.555-2-154.444-2.889-33.323-.849-67.889-.833-89.889-6.166-25.034-6.069-47.333-20.334-55.333-39.667-7.949-19.21-8.178-55.326-8.5-78.667C63.75,77.4,62.74,48.462,57.75,38.482,49.084,21.149,35,24.537,29.75,38.4c-3,7.916-6.833,14.25-7.25,38.75-.417,24.522-6.916,68.25-9.583,90.25S6.7,206.287,16.25,223.51c6.787,12.232,21.183,29.333,43.834,36.055,10.981,3.259,37.359,2.175,62.944,2.056,26.321-.122,53.239-.133,67.889,0,24.556.222,23.667,15.666,3.667,15.666-17.89,0-64.667-2.222-80.334,4.445-14.547,6.19-37.247,30.544-39.166,55-1.945,24.778-1.809,78.445-1.945,88.111-.222,15.778-.834,20.12,13.778,20.444,15,.334,40.648-.016,61.444-.222,11.223-.111,31.723-4,61.223,21.667C240.543,493.668,350.25,584.9,365.25,596.9s31.679,11.064,42.834-1.417c11.916-13.333,52.461-63.2,68.722-82.195C493.361,493.954,520.2,462.454,525.417,456.315Z"/><path id="06d858ab-6470-44cd-90f7-bbfcbff8fb3a" data-name="Pit Middle" class="ce9cf12f-3379-457c-8de7-cf90d8e37321" d="M143.99,445.107c21.177-.286,31.243-4.925,45.816-3.375,11.75,1.25,17.061,2.883,27.944,9.667,13.037,8.125,23.278,17.777,35.723,28.555,5.183,4.489,103.5,88.785,115.555,98.111,16.667,12.889,19,15.556,31.667,1.667,13.848-15.185,104.444-124.167,113.778-135.667s13.555-19.528,11.222-27.778-21.528-31-28.445-39.333c-6.983-8.414-25.555-33-33.555-47s-5.694-24.94-5.277-32.273"/><path id="25515ec7-4659-4ead-ab06-acec45d80b69" data-name="Pit Inner" class="7348ce8c-74fa-4cdf-a003-440f9c015702" d="M143.99,445.107c21.177-.286,31.243-4.925,45.816-3.375,11.75,1.25,17.061,2.883,27.944,9.667,13.037,8.125,23.278,17.777,35.723,28.555,5.183,4.489,103.5,88.785,115.555,98.111,16.667,12.889,19,15.556,31.667,1.667,13.848-15.185,104.444-124.167,113.778-135.667s13.555-19.528,11.222-27.778-21.528-31-28.445-39.333c-6.983-8.414-25.555-33-33.555-47s-5.694-24.94-5.277-32.273"/><path id="d79ed58d-43b0-4f3b-9e0d-c013cf59fbb9" data-name="Track Inner" class="ceef4477-1bff-46ce-bb6c-9ad7f4d2d04a" d="M525.417,456.315c6.167-7.25,20.889-23.416,16-43.416s-34.788-41.429-48.056-55.278c-15.222-15.889-37.36-41.946-34.777-61.667,3.5-26.722,1.557-87.321.916-104.472-.75-20.083,11.75-19.306,36.861-19.639,10.557-.14,34.479-.309,54.112-.111,33,.333,41.129,1.3,50.777-14.445,9.056-14.777-1.581-32.384,10.556-61.444C623.639,67.51,631.439,44.988,638.7,25.065c6.778-18.611,17.222-14.778,45.666-14.666,15.117.059,49.582.733,82.556,1.166,31.043.408,60.8.721,70.667.5,22.333-.5,30.889-.778,30.222,18.111-.706,20,.164,228.23-.306,242.556-.166,5.083.917,16.5-15.666,16.333-31.667-.318-52.473.778-67.361,1-12.7.19-13.389,1.667-26.056,17s-21.389,23.334-27.278,31.778c-5.8,8.316-4.222,16.556,8.445,26.556s73.536,59.841,90.222,66.333c17.278,6.722,45.644,12.316,57.667,13,13.666.778,20,16.417,13.333,22.667-6.347,5.95-14.889-2.556-21.667-5.778-6.713-3.192-22.555-5.778-36.889-5.111a78.411,78.411,0,0,0-37.666,11.722c-11.667,7.167-61.778,39.611-76.223,43.833-13.64,3.988-29.111,5.5-52.277-8.333-11.519-6.878-88.171-60.607-96.167-75-11.111-20-9.417-39.373,3.556-67.889,12.333-27.111,21.777-47.444,23.111-81.111s-3.262-72.083-4-82c-1.167-15.667-2.334-23.167,23.333-23.833,36-.936,104.507-.874,121.5-.5,15.167.333,24.246,2.5,24.333-17,.056-12.445.056-33.538.167-45.778C772.028,98.4,779.75,99.9,808.75,95.9s232.851-30.555,272.334-36c24.166-3.334,38.017-8.359,41.666,19.166,4,30.167,8.167,71.334,9,88.834.752,15.79,2.167,21.277-14.5,22-21.669.939-96.222-.167-113.444,4.611-15.986,4.434-49.556,22.555-73.222,23.555s-50,1-85.667,1.334-129.889,1.777-161.556,1.777-93.555-1.777-140.444,1.556c-45.094,3.206-111.333,8.222-170.667,6.222-57.945-1.953-119.555-2-154.444-2.889-33.323-.849-67.889-.833-89.889-6.166-25.034-6.069-47.333-20.334-55.333-39.667-7.949-19.21-8.178-55.326-8.5-78.667C63.75,77.4,62.74,48.462,57.75,38.482,49.084,21.149,35,24.537,29.75,38.4c-3,7.916-6.833,14.25-7.25,38.75-.417,24.522-6.916,68.25-9.583,90.25S6.7,206.287,16.25,223.51c6.787,12.232,21.183,29.333,43.834,36.055,10.981,3.259,37.359,2.175,62.944,2.056,26.321-.122,53.239-.133,67.889,0,24.556.222,23.667,15.666,3.667,15.666-17.89,0-64.667-2.222-80.334,4.445-14.547,6.19-37.247,30.544-39.166,55-1.945,24.778-1.809,78.445-1.945,88.111-.222,15.778-.834,20.12,13.778,20.444,15,.334,40.648-.016,61.444-.222,11.223-.111,31.723-4,61.223,21.667C240.543,493.668,350.25,584.9,365.25,596.9s31.679,11.064,42.834-1.417c11.916-13.333,52.461-63.2,68.722-82.195C493.361,493.954,520.2,462.454,525.417,456.315Z"/><g id="8d9eda37-0e60-4846-9332-42300932d8dd" data-name="Crossover"><path id="75e1f6f0-6ff1-44b5-b709-5c4381d33824" data-name="Crossover Outer" class="439415b8-18ce-4bad-964d-cbae1f983580" d="M809.084,95.878c29-4,232.518-30.543,272-35.989,24.166-3.333,38.017-8.358,41.666,19.167,4,30.167,8.167,71.333,9,88.833.752,15.79,2.167,21.278-14.5,22-21.669.939-96.222-.166-113.444,4.611-15.986,4.435-49.556,22.556-73.222,23.556s-50,1-85.667,1.333-129.889,1.778-161.556,1.778-93.555-1.778-140.444,1.556c-45.094,3.2-111.105,8.259-170.438,6.259"/><path id="2d4654b0-9678-484c-a978-60077504414b" data-name="Crossover Middle" class="ce9cf12f-3379-457c-8de7-cf90d8e37321" d="M808.751,95.889c29-4,232.851-30.554,272.334-36,24.166-3.333,38.017-8.358,41.666,19.167,4,30.167,8.167,71.333,9,88.833.752,15.79,2.167,21.278-14.5,22-21.669.939-96.222-.166-113.444,4.611-15.986,4.435-49.556,22.556-73.222,23.556s-50,1-85.667,1.333-129.889,1.778-161.556,1.778-93.555-1.778-140.444,1.556c-45.094,3.2-111.333,8.222-170.667,6.222"/><path id="056aef23-9acf-405c-b2e5-9d8205c7ae9c" data-name="Crossover Inner" class="ceef4477-1bff-46ce-bb6c-9ad7f4d2d04a" d="M808.532,95.93c29-4,233.07-30.6,272.553-36.041,24.166-3.333,38.017-8.358,41.666,19.167,4,30.167,8.167,71.333,9,88.833.752,15.79,2.167,21.278-14.5,22-21.669.939-96.222-.166-113.444,4.611-15.986,4.435-49.556,22.556-73.222,23.556s-50,1-85.667,1.333-129.889,1.778-161.556,1.778-93.555-1.778-140.444,1.556c-45.094,3.2-111.563,8.217-170.9,6.217"/></g><use id="f86f7d86-affc-4315-8a04-ac782f4831cd" data-name="Start-Finish-Line" width="200" height="103.617" transform="translate(527.913 485.345) rotate(-142.055) scale(0.287)" xlink:href="#3a4c534b-6f06-4842-ab06-1cb914d68a58"/></g></g></g></svg>