<svg xmlns="http://www.w3.org/2000/svg" xmlns:xlink="http://www.w3.org/1999/xlink" width="350.918" height="524.839" viewBox="0 0 350.918 524.839"><defs><style>.cfd009aa-b952-40bd-a3e5-11d06a45b7bd{fill:#00ff24;}.ca700ff6-f9bc-48d9-b086-7370ab03c449,.cfd009aa-b952-40bd-a3e5-11d06a45b7bd{stroke:#000;stroke-width:5px;}.\31 0ad7818-7a66-497b-8cf2-2d70b1c7bec2,.\31 44cae8a-bef9-46c3-a1b8-c7e75684d30d,.\33 1831360-d943-4bb0-80c8-0fea5bc1135c,.ca700ff6-f9bc-48d9-b086-7370ab03c449,.cfd009aa-b952-40bd-a3e5-11d06a45b7bd{stroke-miterlimit:10;}.ca700ff6-f9bc-48d9-b086-7370ab03c449{fill:#fff;}.\31 0ad7818-7a66-497b-8cf2-2d70b1c7bec2,.\31 44cae8a-bef9-46c3-a1b8-c7e75684d30d,.\33 1831360-d943-4bb0-80c8-0fea5bc1135c{fill:none;}.\31 44cae8a-bef9-46c3-a1b8-c7e75684d30d,.\33 1831360-d943-4bb0-80c8-0fea5bc1135c{stroke:#0080ff;}.\33 1831360-d943-4bb0-80c8-0fea5bc1135c{stroke-width:20px;}.\31 0ad7818-7a66-497b-8cf2-2d70b1c7bec2{stroke:#fff;stroke-width:12px;}.\31 44cae8a-bef9-46c3-a1b8-c7e75684d30d{stroke-width:2px;}</style><symbol id="f07675f7-a005-4f91-be4a-054e77a3c533" data-name="fd103434-89f2-4089-acf9-54fed79ed404" viewBox="0 0 200 103.617"><rect class="cfd009aa-b952-40bd-a3e5-11d06a45b7bd" x="2.5" y="54.074" width="195" height="47.043"/><rect class="ca700ff6-f9bc-48d9-b086-7370ab03c449" x="2.5" y="2.5" width="48.75" height="48.75"/><rect class="ca700ff6-f9bc-48d9-b086-7370ab03c449" x="51.25" y="2.5" width="48.75" height="48.75"/><rect class="ca700ff6-f9bc-48d9-b086-7370ab03c449" x="100" y="2.5" width="48.75" height="48.75"/><rect class="ca700ff6-f9bc-48d9-b086-7370ab03c449" x="148.75" y="2.5" width="48.75" height="48.75"/></symbol></defs><title>Olympic_GP_East_Short</title><g id="fef158f8-9768-4c04-981c-90891f2c358f" data-name="Layer 2"><g id="83d4c021-b0ff-4f80-a89b-12257368c92f" data-name="Broughy1322"><g id="c3d3ce9f-60e8-4e81-be32-93b4109c173e" data-name="Olympic_GP_East_Short"><path id="bbf514e7-e97f-407a-a085-29f475ada95a" data-name="Track Outer" class="31831360-d943-4bb0-80c8-0fea5bc1135c" d="M38.583,148.065c.444-10.111-1.47-23.162,10.666-52.222C61.083,67.51,68.883,44.988,76.138,25.065,82.916,6.454,93.361,10.287,121.805,10.4c15.116.059,49.581.733,82.556,1.166,31.042.408,60.8.721,70.666.5,22.334-.5,30.889-.778,30.222,18.111-.705,20,.165,228.23-.305,242.556-.167,5.083.917,16.5-15.667,16.333-31.667-.318-52.472.778-67.361,1-12.7.19-13.389,1.667-26.055,17s-21.389,23.334-27.278,31.778c-5.8,8.316-4.222,16.556,8.444,26.556s73.537,59.841,90.222,66.333c17.278,6.722,45.645,12.316,57.667,13,13.667.778,20,16.417,13.333,22.667-6.347,5.95-14.888-2.556-21.666-5.778-6.713-3.192-22.556-5.778-36.889-5.111a78.415,78.415,0,0,0-37.667,11.722c-11.666,7.167-61.778,39.611-76.222,43.833-13.641,3.988-29.111,5.5-52.278-8.333-11.519-6.878-88.17-60.607-96.166-75-11.112-20-9.417-39.373,3.555-67.889,12.333-27.111,21.778-47.444,23.111-81.111s-2.938-72.584-4.222-82.445C36.694,173.4,38.106,158.915,38.583,148.065Z"/><path id="0cd8850f-7f75-46d1-bc5b-ae90251002d7" data-name="Track Middle" class="10ad7818-7a66-497b-8cf2-2d70b1c7bec2" d="M38.583,148.065c.444-10.111-1.47-23.162,10.666-52.222C61.083,67.51,68.883,44.988,76.138,25.065,82.916,6.454,93.361,10.287,121.805,10.4c15.116.059,49.581.733,82.556,1.166,31.042.408,60.8.721,70.666.5,22.334-.5,30.889-.778,30.222,18.111-.705,20,.165,228.23-.305,242.556-.167,5.083.917,16.5-15.667,16.333-31.667-.318-52.472.778-67.361,1-12.7.19-13.389,1.667-26.055,17s-21.389,23.334-27.278,31.778c-5.8,8.316-4.222,16.556,8.444,26.556s73.537,59.841,90.222,66.333c17.278,6.722,45.645,12.316,57.667,13,13.667.778,20,16.417,13.333,22.667-6.347,5.95-14.888-2.556-21.666-5.778-6.713-3.192-22.556-5.778-36.889-5.111a78.415,78.415,0,0,0-37.667,11.722c-11.666,7.167-61.778,39.611-76.222,43.833-13.641,3.988-29.111,5.5-52.278-8.333-11.519-6.878-88.17-60.607-96.166-75-11.112-20-9.417-39.373,3.555-67.889,12.333-27.111,21.778-47.444,23.111-81.111s-2.938-72.584-4.222-82.445C36.694,173.4,38.106,158.915,38.583,148.065Z"/><path id="c0c45726-102e-459e-a990-ffa3aced8507" data-name="Track Inner" class="144cae8a-bef9-46c3-a1b8-c7e75684d30d" d="M38.583,148.065c.444-10.111-1.47-23.162,10.666-52.222C61.083,67.51,68.883,44.988,76.138,25.065,82.916,6.454,93.361,10.287,121.805,10.4c15.116.059,49.581.733,82.556,1.166,31.042.408,60.8.721,70.666.5,22.334-.5,30.889-.778,30.222,18.111-.705,20,.165,228.23-.305,242.556-.167,5.083.917,16.5-15.667,16.333-31.667-.318-52.472.778-67.361,1-12.7.19-13.389,1.667-26.055,17s-21.389,23.334-27.278,31.778c-5.8,8.316-4.222,16.556,8.444,26.556s73.537,59.841,90.222,66.333c17.278,6.722,45.645,12.316,57.667,13,13.667.778,20,16.417,13.333,22.667-6.347,5.95-14.888-2.556-21.666-5.778-6.713-3.192-22.556-5.778-36.889-5.111a78.415,78.415,0,0,0-37.667,11.722c-11.666,7.167-61.778,39.611-76.222,43.833-13.641,3.988-29.111,5.5-52.278-8.333-11.519-6.878-88.17-60.607-96.166-75-11.112-20-9.417-39.373,3.555-67.889,12.333-27.111,21.778-47.444,23.111-81.111s-2.938-72.584-4.222-82.445C36.694,173.4,38.106,158.915,38.583,148.065Z"/><use id="326ffc34-8784-4838-b81a-b534ec35dba8" data-name="Start-Finish-Line" width="200" height="103.617" transform="translate(68.274 197.665) rotate(177.74) scale(0.287)" xlink:href="#f07675f7-a005-4f91-be4a-054e77a3c533"/></g></g></g></svg>