<svg xmlns="http://www.w3.org/2000/svg" xmlns:xlink="http://www.w3.org/1999/xlink" width="552.395" height="598.682" viewBox="0 0 552.395 598.682"><defs><style>.d778ea7f-aff2-43e8-9c79-e9d41e66e971{fill:#00ff24;}.d005bc73-ab4b-490c-8414-8b08e3d50947,.d778ea7f-aff2-43e8-9c79-e9d41e66e971{stroke:#000;stroke-width:5px;}.\31 165a633-0a91-44aa-8a4a-5f318aa349f8,.\33 e4f5e3e-47e2-4a43-9a90-1c5f804632f9,.\34 14de15f-324d-4e8d-93ad-a1ab82e05ad8,.\35 794702e-8244-4897-83ae-fe740dac046b,.cee76482-d7db-4e2b-a69c-b7119fec9005,.d005bc73-ab4b-490c-8414-8b08e3d50947,.d778ea7f-aff2-43e8-9c79-e9d41e66e971{stroke-miterlimit:10;}.d005bc73-ab4b-490c-8414-8b08e3d50947{fill:#fff;}.\31 165a633-0a91-44aa-8a4a-5f318aa349f8,.\33 e4f5e3e-47e2-4a43-9a90-1c5f804632f9,.\34 14de15f-324d-4e8d-93ad-a1ab82e05ad8,.\35 794702e-8244-4897-83ae-fe740dac046b,.cee76482-d7db-4e2b-a69c-b7119fec9005{fill:none;}.\31 165a633-0a91-44aa-8a4a-5f318aa349f8,.\35 794702e-8244-4897-83ae-fe740dac046b{stroke:#c91c1c;}.\34 14de15f-324d-4e8d-93ad-a1ab82e05ad8,.\35 794702e-8244-4897-83ae-fe740dac046b{stroke-width:20px;}.\33 e4f5e3e-47e2-4a43-9a90-1c5f804632f9,.\34 14de15f-324d-4e8d-93ad-a1ab82e05ad8{stroke:#0080ff;}.cee76482-d7db-4e2b-a69c-b7119fec9005{stroke:#fff;stroke-width:12px;}.\31 165a633-0a91-44aa-8a4a-5f318aa349f8,.\33 e4f5e3e-47e2-4a43-9a90-1c5f804632f9{stroke-width:2px;}</style><symbol id="2b883b68-def9-4f69-821c-bb14b6f6aa75" data-name="fd103434-89f2-4089-acf9-54fed79ed404" viewBox="0 0 200 103.617"><rect class="d778ea7f-aff2-43e8-9c79-e9d41e66e971" x="2.5" y="54.074" width="195" height="47.043"/><rect class="d005bc73-ab4b-490c-8414-8b08e3d50947" x="2.5" y="2.5" width="48.75" height="48.75"/><rect class="d005bc73-ab4b-490c-8414-8b08e3d50947" x="51.25" y="2.5" width="48.75" height="48.75"/><rect class="d005bc73-ab4b-490c-8414-8b08e3d50947" x="100" y="2.5" width="48.75" height="48.75"/><rect class="d005bc73-ab4b-490c-8414-8b08e3d50947" x="148.75" y="2.5" width="48.75" height="48.75"/></symbol></defs><title>Olympic_GP_West_Short</title><g id="184405b5-c06f-4cf2-a05c-c835b9674685" data-name="Layer 2"><g id="08c31b6f-6c5b-43c8-b70d-6823ecf48fdd" data-name="Broughy1322"><g id="0d4aeb6f-3aa1-4f90-b094-f469c39cc53e" data-name="Olympic_GP_West_Short"><path id="459e7a33-d6ff-48f3-b8e3-62fdebb8a815" data-name="Pit Outer" class="5794702e-8244-4897-83ae-fe740dac046b" d="M143.99,428.4c21.177-.285,31.243-4.925,45.816-3.375,11.75,1.25,17.061,2.884,27.944,9.667,13.037,8.126,23.278,17.778,35.723,28.556,5.183,4.489,103.5,88.785,115.555,98.111,16.667,12.889,19,15.555,31.667,1.666,13.848-15.184,104.444-124.166,113.778-135.666s13.555-19.528,11.222-27.778-21.528-31-28.445-39.333c-6.983-8.414-25.555-33-33.555-47s-5.694-24.94-5.277-32.274"/><path id="190132c5-8745-4895-ab37-7ca274790c0c" data-name="Track Outer" class="414de15f-324d-4e8d-93ad-a1ab82e05ad8" d="M387.25,193.689c-15.721,1.029-38.944.222-69.666,5-35.47,5.516-64.889,11.556-99.778,10.667-33.323-.849-67.889-.834-89.889-6.167-25.034-6.069-47.333-20.333-55.333-39.667-7.949-19.21-8.178-55.326-8.5-78.666-.334-24.167-1.344-53.1-6.334-63.084C49.084,4.439,35,7.827,29.75,21.689c-3,7.917-6.833,14.25-7.25,38.75-.417,24.523-6.916,68.25-9.583,90.25S6.7,189.578,16.25,206.8c6.787,12.232,21.183,29.334,43.834,36.056,10.981,3.258,37.359,2.174,62.944,2.055,26.321-.122,53.239-.132,67.889,0,24.556.223,23.667,15.667,3.667,15.667-17.89,0-64.667-2.222-80.334,4.444-14.547,6.191-37.247,30.545-39.166,55-1.945,24.778-1.809,78.446-1.945,88.112-.222,15.777-.834,20.119,13.778,20.444,15,.333,40.648-.016,61.444-.222,11.223-.111,31.723-4,61.223,21.666C240.543,476.958,350.25,568.189,365.25,580.189s31.679,11.065,42.834-1.417c11.916-13.333,52.461-63.205,68.722-82.194,16.555-19.333,43.389-50.833,48.611-56.972,6.167-7.25,20.889-23.417,16-43.417s-34.788-41.429-48.056-55.278c-15.222-15.889-37.36-41.946-34.777-61.666,3.5-26.723,9.7-53.844,9.222-71-.556-19.723-5.53-23.019-28.389-20.223C416.6,190.814,403.275,192.64,387.25,193.689Z"/><path id="bffa2cc0-60ee-42d8-a179-b2c23e9e41aa" data-name="Track Middle" class="cee76482-d7db-4e2b-a69c-b7119fec9005" d="M387.25,193.689c-15.721,1.029-38.944.222-69.666,5-35.47,5.516-64.889,11.556-99.778,10.667-33.323-.849-67.889-.834-89.889-6.167-25.034-6.069-47.333-20.333-55.333-39.667-7.949-19.21-8.178-55.326-8.5-78.666-.334-24.167-1.344-53.1-6.334-63.084C49.084,4.439,35,7.827,29.75,21.689c-3,7.917-6.833,14.25-7.25,38.75-.417,24.523-6.916,68.25-9.583,90.25S6.7,189.578,16.25,206.8c6.787,12.232,21.183,29.334,43.834,36.056,10.981,3.258,37.359,2.174,62.944,2.055,26.321-.122,53.239-.132,67.889,0,24.556.223,23.667,15.667,3.667,15.667-17.89,0-64.667-2.222-80.334,4.444-14.547,6.191-37.247,30.545-39.166,55-1.945,24.778-1.809,78.446-1.945,88.112-.222,15.777-.834,20.119,13.778,20.444,15,.333,40.648-.016,61.444-.222,11.223-.111,31.723-4,61.223,21.666C240.543,476.958,350.25,568.189,365.25,580.189s31.679,11.065,42.834-1.417c11.916-13.333,52.461-63.205,68.722-82.194,16.555-19.333,43.389-50.833,48.611-56.972,6.167-7.25,20.889-23.417,16-43.417s-34.788-41.429-48.056-55.278c-15.222-15.889-37.36-41.946-34.777-61.666,3.5-26.723,9.7-53.844,9.222-71-.556-19.723-5.53-23.019-28.389-20.223C416.6,190.814,403.275,192.64,387.25,193.689Z"/><path id="e7b14817-4697-42c9-acd3-8d851100f215" data-name="Pit Middle" class="cee76482-d7db-4e2b-a69c-b7119fec9005" d="M143.99,428.4c21.177-.285,31.243-4.925,45.816-3.375,11.75,1.25,17.061,2.884,27.944,9.667,13.037,8.126,23.278,17.778,35.723,28.556,5.183,4.489,103.5,88.785,115.555,98.111,16.667,12.889,19,15.555,31.667,1.666,13.848-15.184,104.444-124.166,113.778-135.666s13.555-19.528,11.222-27.778-21.528-31-28.445-39.333c-6.983-8.414-25.555-33-33.555-47s-5.694-24.94-5.277-32.274"/><path id="2865aea1-9ceb-4582-9c40-8ef660af8f9a" data-name="Pit Inner" class="1165a633-0a91-44aa-8a4a-5f318aa349f8" d="M143.99,428.4c21.177-.285,31.243-4.925,45.816-3.375,11.75,1.25,17.061,2.884,27.944,9.667,13.037,8.126,23.278,17.778,35.723,28.556,5.183,4.489,103.5,88.785,115.555,98.111,16.667,12.889,19,15.555,31.667,1.666,13.848-15.184,104.444-124.166,113.778-135.666s13.555-19.528,11.222-27.778-21.528-31-28.445-39.333c-6.983-8.414-25.555-33-33.555-47s-5.694-24.94-5.277-32.274"/><path id="e10f8ccd-56e6-49c4-8e9d-d61278b73ef1" data-name="Track Inner" class="3e4f5e3e-47e2-4a43-9a90-1c5f804632f9" d="M387.25,193.689c-15.721,1.029-38.944.222-69.666,5-35.47,5.516-64.889,11.556-99.778,10.667-33.323-.849-67.889-.834-89.889-6.167-25.034-6.069-47.333-20.333-55.333-39.667-7.949-19.21-8.178-55.326-8.5-78.666-.334-24.167-1.344-53.1-6.334-63.084C49.084,4.439,35,7.827,29.75,21.689c-3,7.917-6.833,14.25-7.25,38.75-.417,24.523-6.916,68.25-9.583,90.25S6.7,189.578,16.25,206.8c6.787,12.232,21.183,29.334,43.834,36.056,10.981,3.258,37.359,2.174,62.944,2.055,26.321-.122,53.239-.132,67.889,0,24.556.223,23.667,15.667,3.667,15.667-17.89,0-64.667-2.222-80.334,4.444-14.547,6.191-37.247,30.545-39.166,55-1.945,24.778-1.809,78.446-1.945,88.112-.222,15.777-.834,20.119,13.778,20.444,15,.333,40.648-.016,61.444-.222,11.223-.111,31.723-4,61.223,21.666C240.543,476.958,350.25,568.189,365.25,580.189s31.679,11.065,42.834-1.417c11.916-13.333,52.461-63.205,68.722-82.194,16.555-19.333,43.389-50.833,48.611-56.972,6.167-7.25,20.889-23.417,16-43.417s-34.788-41.429-48.056-55.278c-15.222-15.889-37.36-41.946-34.777-61.666,3.5-26.723,9.7-53.844,9.222-71-.556-19.723-5.53-23.019-28.389-20.223C416.6,190.814,403.275,192.64,387.25,193.689Z"/><use id="71ccb043-13ed-4485-aa25-e6e8ea61168f" data-name="Start-Finish-Line" width="200" height="103.617" transform="translate(527.913 468.636) rotate(-142.055) scale(0.287)" xlink:href="#2b883b68-def9-4f69-821c-bb14b6f6aa75"/></g></g></g></svg>