<svg xmlns="http://www.w3.org/2000/svg" xmlns:xlink="http://www.w3.org/1999/xlink" width="1142.147" height="598.682" viewBox="0 0 1142.147 598.682"><defs><style>.d8a41ff5-471b-4f03-8557-b17ffe2efcbd{fill:#00ff24;}.\35 5d8525b-3e9e-43a9-a4e4-8986eb24348b,.d8a41ff5-471b-4f03-8557-b17ffe2efcbd{stroke:#000;stroke-width:5px;}.\35 5d8525b-3e9e-43a9-a4e4-8986eb24348b,.\36 699df9b-b76f-484a-ba46-f14571b0c568,.\36 9d63be3-df0f-42c1-a36a-de7b716bcf30,.ac066021-221e-4425-b52e-b8f8811ff0e6,.ccf99f04-b88d-424e-8a27-976f3e99847c,.d8a41ff5-471b-4f03-8557-b17ffe2efcbd,.db493a8b-ca4f-4e40-8780-b94eaa05a25c{stroke-miterlimit:10;}.\35 5d8525b-3e9e-43a9-a4e4-8986eb24348b{fill:#fff;}.\36 699df9b-b76f-484a-ba46-f14571b0c568,.\36 9d63be3-df0f-42c1-a36a-de7b716bcf30,.ac066021-221e-4425-b52e-b8f8811ff0e6,.ccf99f04-b88d-424e-8a27-976f3e99847c,.db493a8b-ca4f-4e40-8780-b94eaa05a25c{fill:none;}.\36 699df9b-b76f-484a-ba46-f14571b0c568,.ccf99f04-b88d-424e-8a27-976f3e99847c{stroke:#c91c1c;}.\36 699df9b-b76f-484a-ba46-f14571b0c568,.db493a8b-ca4f-4e40-8780-b94eaa05a25c{stroke-width:20px;}.\36 9d63be3-df0f-42c1-a36a-de7b716bcf30,.db493a8b-ca4f-4e40-8780-b94eaa05a25c{stroke:#0080ff;}.ac066021-221e-4425-b52e-b8f8811ff0e6{stroke:#fff;stroke-width:12px;}.\36 9d63be3-df0f-42c1-a36a-de7b716bcf30,.ccf99f04-b88d-424e-8a27-976f3e99847c{stroke-width:2px;}</style><symbol id="3a928509-1262-4035-a080-5b062d069909" data-name="fd103434-89f2-4089-acf9-54fed79ed404" viewBox="0 0 200 103.617"><rect class="d8a41ff5-471b-4f03-8557-b17ffe2efcbd" x="2.5" y="54.074" width="195" height="47.043"/><rect class="55d8525b-3e9e-43a9-a4e4-8986eb24348b" x="2.5" y="2.5" width="48.75" height="48.75"/><rect class="55d8525b-3e9e-43a9-a4e4-8986eb24348b" x="51.25" y="2.5" width="48.75" height="48.75"/><rect class="55d8525b-3e9e-43a9-a4e4-8986eb24348b" x="100" y="2.5" width="48.75" height="48.75"/><rect class="55d8525b-3e9e-43a9-a4e4-8986eb24348b" x="148.75" y="2.5" width="48.75" height="48.75"/></symbol></defs><title>Olympic_GP_West_Long</title><g id="5f9d9598-d421-4d2d-8edb-6ae18d24bc51" data-name="Layer 2"><g id="378dc0e9-79fe-4b1e-a8f9-35ca9a343cb8" data-name="Broughy1322"><g id="fabe0799-5585-4276-bde5-e3967384bd7f" data-name="Olympic_GP_West_Long"><path id="e83d58e1-bc59-435f-a4ce-170876d61750" data-name="Pit Outer" class="6699df9b-b76f-484a-ba46-f14571b0c568" d="M143.99,428.4c21.177-.285,31.243-4.925,45.816-3.375,11.75,1.25,17.061,2.884,27.944,9.667,13.037,8.126,23.278,17.778,35.723,28.556,5.183,4.489,103.5,88.785,115.555,98.111,16.667,12.889,19,15.555,31.667,1.666,13.848-15.184,104.444-124.166,113.778-135.666s13.555-19.528,11.222-27.778-21.528-31-28.445-39.333c-6.983-8.414-25.555-33-33.555-47s-5.694-24.94-5.277-32.274"/><path id="ec3fef97-a20c-4db4-9933-f567a9d94b8a" data-name="Track Outer" class="db493a8b-ca4f-4e40-8780-b94eaa05a25c" d="M744.917,157.022c15.167.334,26.746,2.17,26.833-17.333.056-12.444.056-33.538.167-45.778.111-12.222,7.833-10.722,36.833-14.722s232.851-30.554,272.334-36c24.166-3.333,38.017-8.358,41.666,19.167,4,30.166,8.167,71.333,9,88.833.752,15.79,2.167,21.278-14.5,22-21.669.939-96.222-.167-113.444,4.611-15.986,4.435-49.556,22.556-73.222,23.556s-50,1-85.667,1.333-129.889,1.778-161.556,1.778-93.555-1.778-140.444,1.555c-45.094,3.206-111.333,8.223-170.667,6.223-57.945-1.954-119.555-2-154.444-2.889-33.323-.849-67.889-.834-89.889-6.167-25.034-6.069-47.333-20.333-55.333-39.667-7.949-19.21-8.178-55.326-8.5-78.666-.334-24.167-1.344-53.1-6.334-63.084C49.084,4.439,35,7.827,29.75,21.689c-3,7.917-6.833,14.25-7.25,38.75-.417,24.523-6.916,68.25-9.583,90.25S6.7,189.578,16.25,206.8c6.787,12.232,21.183,29.334,43.834,36.056,10.981,3.258,37.359,2.174,62.944,2.055,26.321-.122,53.239-.132,67.889,0,24.556.223,23.667,15.667,3.667,15.667-17.89,0-64.667-2.222-80.334,4.444-14.547,6.191-37.247,30.545-39.166,55-1.945,24.778-1.809,78.446-1.945,88.112-.222,15.777-.834,20.119,13.778,20.444,15,.333,40.648-.016,61.444-.222,11.223-.111,31.723-4,61.223,21.666C240.543,476.958,350.25,568.189,365.25,580.189s31.679,11.065,42.834-1.417c11.916-13.333,52.461-63.205,68.722-82.194,16.555-19.333,43.389-50.833,48.611-56.972,6.167-7.25,20.889-23.417,16-43.417s-34.788-41.429-48.056-55.278c-15.222-15.889-37.36-41.946-34.777-61.666,3.5-26.723,1.557-87.322.916-104.473-.75-20.083,11.75-19.3,36.861-19.638,10.557-.141,34.479-.31,54.112-.112,33,.334,65.314.523,83.777.834C683.75,156.689,729.75,156.689,744.917,157.022Z"/><path id="78345abf-a827-48ee-9cef-c7f7c959a6b5" data-name="Track Middle" class="ac066021-221e-4425-b52e-b8f8811ff0e6" d="M744.917,157.022c15.167.334,26.746,2.17,26.833-17.333.056-12.444.056-33.538.167-45.778.111-12.222,7.833-10.722,36.833-14.722s232.851-30.554,272.334-36c24.166-3.333,38.017-8.358,41.666,19.167,4,30.166,8.167,71.333,9,88.833.752,15.79,2.167,21.278-14.5,22-21.669.939-96.222-.167-113.444,4.611-15.986,4.435-49.556,22.556-73.222,23.556s-50,1-85.667,1.333-129.889,1.778-161.556,1.778-93.555-1.778-140.444,1.555c-45.094,3.206-111.333,8.223-170.667,6.223-57.945-1.954-119.555-2-154.444-2.889-33.323-.849-67.889-.834-89.889-6.167-25.034-6.069-47.333-20.333-55.333-39.667-7.949-19.21-8.178-55.326-8.5-78.666-.334-24.167-1.344-53.1-6.334-63.084C49.084,4.439,35,7.827,29.75,21.689c-3,7.917-6.833,14.25-7.25,38.75-.417,24.523-6.916,68.25-9.583,90.25S6.7,189.578,16.25,206.8c6.787,12.232,21.183,29.334,43.834,36.056,10.981,3.258,37.359,2.174,62.944,2.055,26.321-.122,53.239-.132,67.889,0,24.556.223,23.667,15.667,3.667,15.667-17.89,0-64.667-2.222-80.334,4.444-14.547,6.191-37.247,30.545-39.166,55-1.945,24.778-1.809,78.446-1.945,88.112-.222,15.777-.834,20.119,13.778,20.444,15,.333,40.648-.016,61.444-.222,11.223-.111,31.723-4,61.223,21.666C240.543,476.958,350.25,568.189,365.25,580.189s31.679,11.065,42.834-1.417c11.916-13.333,52.461-63.205,68.722-82.194,16.555-19.333,43.389-50.833,48.611-56.972,6.167-7.25,20.889-23.417,16-43.417s-34.788-41.429-48.056-55.278c-15.222-15.889-37.36-41.946-34.777-61.666,3.5-26.723,1.557-87.322.916-104.473-.75-20.083,11.75-19.3,36.861-19.638,10.557-.141,34.479-.31,54.112-.112,33,.334,65.314.523,83.777.834C683.75,156.689,729.75,156.689,744.917,157.022Z"/><path id="06d488ec-9073-4aff-bd9b-33b4745473f0" data-name="Pit Middle" class="ac066021-221e-4425-b52e-b8f8811ff0e6" d="M143.99,428.4c21.177-.285,31.243-4.925,45.816-3.375,11.75,1.25,17.061,2.884,27.944,9.667,13.037,8.126,23.278,17.778,35.723,28.556,5.183,4.489,103.5,88.785,115.555,98.111,16.667,12.889,19,15.555,31.667,1.666,13.848-15.184,104.444-124.166,113.778-135.666s13.555-19.528,11.222-27.778-21.528-31-28.445-39.333c-6.983-8.414-25.555-33-33.555-47s-5.694-24.94-5.277-32.274"/><path id="ff72bbab-2a43-407d-9418-4bb8e1f412fe" data-name="Pit Inner" class="ccf99f04-b88d-424e-8a27-976f3e99847c" d="M143.99,428.4c21.177-.285,31.243-4.925,45.816-3.375,11.75,1.25,17.061,2.884,27.944,9.667,13.037,8.126,23.278,17.778,35.723,28.556,5.183,4.489,103.5,88.785,115.555,98.111,16.667,12.889,19,15.555,31.667,1.666,13.848-15.184,104.444-124.166,113.778-135.666s13.555-19.528,11.222-27.778-21.528-31-28.445-39.333c-6.983-8.414-25.555-33-33.555-47s-5.694-24.94-5.277-32.274"/><path id="5a48c8f6-3538-42b1-a754-4d2cebbfec82" data-name="Track Inner" class="69d63be3-df0f-42c1-a36a-de7b716bcf30" d="M744.917,157.022c15.167.334,26.746,2.17,26.833-17.333.056-12.444.056-33.538.167-45.778.111-12.222,7.833-10.722,36.833-14.722s232.851-30.554,272.334-36c24.166-3.333,38.017-8.358,41.666,19.167,4,30.166,8.167,71.333,9,88.833.752,15.79,2.167,21.278-14.5,22-21.669.939-96.222-.167-113.444,4.611-15.986,4.435-49.556,22.556-73.222,23.556s-50,1-85.667,1.333-129.889,1.778-161.556,1.778-93.555-1.778-140.444,1.555c-45.094,3.206-111.333,8.223-170.667,6.223-57.945-1.954-119.555-2-154.444-2.889-33.323-.849-67.889-.834-89.889-6.167-25.034-6.069-47.333-20.333-55.333-39.667-7.949-19.21-8.178-55.326-8.5-78.666-.334-24.167-1.344-53.1-6.334-63.084C49.084,4.439,35,7.827,29.75,21.689c-3,7.917-6.833,14.25-7.25,38.75-.417,24.523-6.916,68.25-9.583,90.25S6.7,189.578,16.25,206.8c6.787,12.232,21.183,29.334,43.834,36.056,10.981,3.258,37.359,2.174,62.944,2.055,26.321-.122,53.239-.132,67.889,0,24.556.223,23.667,15.667,3.667,15.667-17.89,0-64.667-2.222-80.334,4.444-14.547,6.191-37.247,30.545-39.166,55-1.945,24.778-1.809,78.446-1.945,88.112-.222,15.777-.834,20.119,13.778,20.444,15,.333,40.648-.016,61.444-.222,11.223-.111,31.723-4,61.223,21.666C240.543,476.958,350.25,568.189,365.25,580.189s31.679,11.065,42.834-1.417c11.916-13.333,52.461-63.205,68.722-82.194,16.555-19.333,43.389-50.833,48.611-56.972,6.167-7.25,20.889-23.417,16-43.417s-34.788-41.429-48.056-55.278c-15.222-15.889-37.36-41.946-34.777-61.666,3.5-26.723,1.557-87.322.916-104.473-.75-20.083,11.75-19.3,36.861-19.638,10.557-.141,34.479-.31,54.112-.112,33,.334,65.314.523,83.777.834C683.75,156.689,729.75,156.689,744.917,157.022Z"/><g id="152e441f-b1dc-4ab1-9dbd-df2cefc1ea09" data-name="Crossover"><path id="f357ef54-7931-4daa-93e6-741e0a846671" data-name="Crossover Outer" class="db493a8b-ca4f-4e40-8780-b94eaa05a25c" d="M542.778,206.05c-45.094,3.206-111.069,8.222-170.4,6.222"/><path id="9c43aceb-50ec-45b1-9986-7431d1f53fb0" data-name="Crossover Middle" class="ac066021-221e-4425-b52e-b8f8811ff0e6" d="M542.918,206.013c-45.094,3.206-111.563,8.218-170.9,6.218"/><path id="21fe2332-69dc-4d2d-ac32-42620d808095" data-name="Crossover Inner" class="69d63be3-df0f-42c1-a36a-de7b716bcf30" d="M543.2,206c-45.1,3.206-112.363,8.227-171.7,6.227"/></g><use id="8b7549e7-11f9-4d74-997f-89cf20df4a82" data-name="Start-Finish-Line" width="200" height="103.617" transform="translate(527.913 468.636) rotate(-142.055) scale(0.287)" xlink:href="#3a928509-1262-4035-a080-5b062d069909"/></g></g></g></svg>