<svg xmlns="http://www.w3.org/2000/svg" xmlns:xlink="http://www.w3.org/1999/xlink" width="682.918" height="524.839" viewBox="0 0 682.918 524.839"><defs><style>.e5028ee1-9a2e-4a23-8ff1-a41ae1753e43{fill:#00ff24;}.d880f2be-e77e-400a-9e19-8e171004d5b8,.e5028ee1-9a2e-4a23-8ff1-a41ae1753e43{stroke:#000;stroke-width:5px;}.\35 6eeae51-5fe6-4210-a3a7-298bb2255288,.d880f2be-e77e-400a-9e19-8e171004d5b8,.e19f454f-4afa-4616-b9d8-920dd84a54e7,.e5028ee1-9a2e-4a23-8ff1-a41ae1753e43,.f2c5a864-1632-4010-9a93-b6499b6f659f{stroke-miterlimit:10;}.d880f2be-e77e-400a-9e19-8e171004d5b8{fill:#fff;}.\35 6eeae51-5fe6-4210-a3a7-298bb2255288,.e19f454f-4afa-4616-b9d8-920dd84a54e7,.f2c5a864-1632-4010-9a93-b6499b6f659f{fill:none;}.\35 6eeae51-5fe6-4210-a3a7-298bb2255288,.e19f454f-4afa-4616-b9d8-920dd84a54e7{stroke:#0080ff;}.e19f454f-4afa-4616-b9d8-920dd84a54e7{stroke-width:20px;}.f2c5a864-1632-4010-9a93-b6499b6f659f{stroke:#fff;stroke-width:12px;}.\35 6eeae51-5fe6-4210-a3a7-298bb2255288{stroke-width:2px;}</style><symbol id="57d172e8-1671-46e9-acb3-8b220d44d428" data-name="fd103434-89f2-4089-acf9-54fed79ed404" viewBox="0 0 200 103.617"><rect class="e5028ee1-9a2e-4a23-8ff1-a41ae1753e43" x="2.5" y="54.074" width="195" height="47.043"/><rect class="d880f2be-e77e-400a-9e19-8e171004d5b8" x="2.5" y="2.5" width="48.75" height="48.75"/><rect class="d880f2be-e77e-400a-9e19-8e171004d5b8" x="51.25" y="2.5" width="48.75" height="48.75"/><rect class="d880f2be-e77e-400a-9e19-8e171004d5b8" x="100" y="2.5" width="48.75" height="48.75"/><rect class="d880f2be-e77e-400a-9e19-8e171004d5b8" x="148.75" y="2.5" width="48.75" height="48.75"/></symbol></defs><title>Olympic_GP_East_Long</title><g id="1c508f63-bdde-46fa-b42d-c3bd43e41481" data-name="Layer 2"><g id="e82541d6-44dc-4c15-81a9-b0f44c2c7014" data-name="Broughy1322"><g id="269436e0-2a27-4e4a-b666-b6f81756b95f" data-name="Olympic_GP_East_Long"><path id="ccc8474d-da65-4c12-a818-97dfc936a693" data-name="Track Outer" class="e19f454f-4afa-4616-b9d8-920dd84a54e7" d="M85.305,199.065c-13.5,0-41.992,1.024-56.166.834-24.834-.334-25.5-26.834-2-27.5,10.33-.294,44.256-.865,63.889-.667,33,.333,41.129,1.3,50.777-14.445,9.056-14.777-1.581-32.384,10.556-61.444,11.833-28.333,19.633-50.855,26.889-70.778,6.778-18.611,17.222-14.778,45.667-14.666,15.116.059,49.581.733,82.555,1.166,31.043.408,60.8.721,70.667.5,22.333-.5,30.889-.778,30.222,18.111-.706,20,.164,228.23-.306,242.556-.166,5.083.917,16.5-15.666,16.333-31.667-.318-52.472.778-67.361,1-12.705.19-13.389,1.667-26.056,17s-21.389,23.334-27.278,31.778c-5.8,8.316-4.222,16.556,8.445,26.556s73.536,59.841,90.222,66.333c17.278,6.722,45.645,12.316,57.667,13,13.666.778,20,16.417,13.333,22.667-6.347,5.95-14.889-2.556-21.667-5.778-6.713-3.192-22.555-5.778-36.889-5.111a78.411,78.411,0,0,0-37.666,11.722c-11.667,7.167-61.778,39.611-76.222,43.833-13.641,3.988-29.112,5.5-52.278-8.333-11.519-6.878-88.171-60.607-96.167-75-11.111-20-9.417-39.373,3.556-67.889,12.333-27.111,21.777-47.444,23.111-81.111s-3.262-72.083-4-82c-1.167-15.667-2.334-23.167,23.333-23.833,36-.936,104.507-.874,121.5-.5,15.167.333,24.246,2.5,24.333-17,.056-12.445.056-33.538.167-45.778C312.583,98.4,320.305,99.9,349.305,95.9s232.851-30.555,272.334-36c24.166-3.334,38.017-8.359,41.666,19.166,4,30.167,8.167,71.334,9,88.834.752,15.79,2.167,21.277-14.5,22-21.669.939-96.222-.167-113.444,4.611-15.986,4.434-49.556,22.555-73.222,23.555s-50,1-85.667,1.334-137.833.111-170.5-2.334c-31.578-2.363-48.333-12.333-75.833-15C122.509,200.453,99.972,199.065,85.305,199.065Z"/><path id="35a6ec1b-4810-4e1a-85ca-5e3ac09a3fea" data-name="Track Middle" class="f2c5a864-1632-4010-9a93-b6499b6f659f" d="M85.305,199.065c-13.5,0-41.992,1.024-56.166.834-24.834-.334-25.5-26.834-2-27.5,10.33-.294,44.256-.865,63.889-.667,33,.333,41.129,1.3,50.777-14.445,9.056-14.777-1.581-32.384,10.556-61.444,11.833-28.333,19.633-50.855,26.889-70.778,6.778-18.611,17.222-14.778,45.667-14.666,15.116.059,49.581.733,82.555,1.166,31.043.408,60.8.721,70.667.5,22.333-.5,30.889-.778,30.222,18.111-.706,20,.164,228.23-.306,242.556-.166,5.083.917,16.5-15.666,16.333-31.667-.318-52.472.778-67.361,1-12.705.19-13.389,1.667-26.056,17s-21.389,23.334-27.278,31.778c-5.8,8.316-4.222,16.556,8.445,26.556s73.536,59.841,90.222,66.333c17.278,6.722,45.645,12.316,57.667,13,13.666.778,20,16.417,13.333,22.667-6.347,5.95-14.889-2.556-21.667-5.778-6.713-3.192-22.555-5.778-36.889-5.111a78.411,78.411,0,0,0-37.666,11.722c-11.667,7.167-61.778,39.611-76.222,43.833-13.641,3.988-29.112,5.5-52.278-8.333-11.519-6.878-88.171-60.607-96.167-75-11.111-20-9.417-39.373,3.556-67.889,12.333-27.111,21.777-47.444,23.111-81.111s-3.262-72.083-4-82c-1.167-15.667-2.334-23.167,23.333-23.833,36-.936,104.507-.874,121.5-.5,15.167.333,24.246,2.5,24.333-17,.056-12.445.056-33.538.167-45.778C312.583,98.4,320.305,99.9,349.305,95.9s232.851-30.555,272.334-36c24.166-3.334,38.017-8.359,41.666,19.166,4,30.167,8.167,71.334,9,88.834.752,15.79,2.167,21.277-14.5,22-21.669.939-96.222-.167-113.444,4.611-15.986,4.434-49.556,22.555-73.222,23.555s-50,1-85.667,1.334-137.833.111-170.5-2.334c-31.578-2.363-48.333-12.333-75.833-15C122.509,200.453,99.972,199.065,85.305,199.065Z"/><path id="983173c7-88de-400a-88dd-e1b3010def08" data-name="Track Inner" class="56eeae51-5fe6-4210-a3a7-298bb2255288" d="M85.305,199.065c-13.5,0-41.992,1.024-56.166.834-24.834-.334-25.5-26.834-2-27.5,10.33-.294,44.256-.865,63.889-.667,33,.333,41.129,1.3,50.777-14.445,9.056-14.777-1.581-32.384,10.556-61.444,11.833-28.333,19.633-50.855,26.889-70.778,6.778-18.611,17.222-14.778,45.667-14.666,15.116.059,49.581.733,82.555,1.166,31.043.408,60.8.721,70.667.5,22.333-.5,30.889-.778,30.222,18.111-.706,20,.164,228.23-.306,242.556-.166,5.083.917,16.5-15.666,16.333-31.667-.318-52.472.778-67.361,1-12.705.19-13.389,1.667-26.056,17s-21.389,23.334-27.278,31.778c-5.8,8.316-4.222,16.556,8.445,26.556s73.536,59.841,90.222,66.333c17.278,6.722,45.645,12.316,57.667,13,13.666.778,20,16.417,13.333,22.667-6.347,5.95-14.889-2.556-21.667-5.778-6.713-3.192-22.555-5.778-36.889-5.111a78.411,78.411,0,0,0-37.666,11.722c-11.667,7.167-61.778,39.611-76.222,43.833-13.641,3.988-29.112,5.5-52.278-8.333-11.519-6.878-88.171-60.607-96.167-75-11.111-20-9.417-39.373,3.556-67.889,12.333-27.111,21.777-47.444,23.111-81.111s-3.262-72.083-4-82c-1.167-15.667-2.334-23.167,23.333-23.833,36-.936,104.507-.874,121.5-.5,15.167.333,24.246,2.5,24.333-17,.056-12.445.056-33.538.167-45.778C312.583,98.4,320.305,99.9,349.305,95.9s232.851-30.555,272.334-36c24.166-3.334,38.017-8.359,41.666,19.166,4,30.167,8.167,71.334,9,88.834.752,15.79,2.167,21.277-14.5,22-21.669.939-96.222-.167-113.444,4.611-15.986,4.434-49.556,22.555-73.222,23.555s-50,1-85.667,1.334-137.833.111-170.5-2.334c-31.578-2.363-48.333-12.333-75.833-15C122.509,200.453,99.972,199.065,85.305,199.065Z"/><g id="6385e2fb-ec08-42cc-8885-b123251bd62b" data-name="Crossover"><path id="93b36e3a-bf00-4ce4-9af7-1f2d3b297609" data-name="Crossover Outer" class="e19f454f-4afa-4616-b9d8-920dd84a54e7" d="M312.667,110.565c.111-12.222,7.854-10.66,36.854-14.66s232.85-30.554,272.333-36c24.167-3.333,38.017-8.358,41.667,19.167,4,30.167,8.166,71.333,9,88.833.752,15.79,2.166,21.278-14.5,22-21.67.939-96.222-.166-113.445,4.612-15.986,4.434-49.555,22.555-73.222,23.555s-50,1-85.667,1.333-137.833.112-170.5-2.333c-31.578-2.363-48.333-12.333-75.833-15-16.629-1.612-39.09-3.007-53.757-3.007"/><path id="392c1f2a-fc2f-4e4b-828a-2005785fdc4b" data-name="Crossover Middle" class="f2c5a864-1632-4010-9a93-b6499b6f659f" d="M312.479,110.628c.111-12.223,7.833-10.723,36.833-14.723s232.851-30.554,272.334-36c24.166-3.333,38.017-8.358,41.666,19.167,4,30.167,8.167,71.333,9,88.833.752,15.79,2.167,21.278-14.5,22-21.669.939-96.222-.166-113.444,4.612-15.986,4.434-49.556,22.555-73.222,23.555s-50,1-85.667,1.333-137.833.112-170.5-2.333c-31.578-2.363-48.333-12.333-75.833-15-16.63-1.612-39.167-3-53.834-3"/><path id="742f9051-07b4-4248-ad1b-8a47307d38ba" data-name="Crossover Inner" class="56eeae51-5fe6-4210-a3a7-298bb2255288" d="M312.468,110.724c.111-12.222,7.844-10.819,36.844-14.819s232.851-30.554,272.334-36c24.166-3.333,38.017-8.358,41.666,19.167,4,30.167,8.167,71.333,9,88.833.752,15.79,2.167,21.278-14.5,22-21.669.939-96.222-.166-113.444,4.612-15.986,4.434-49.556,22.555-73.222,23.555s-50,1-85.667,1.333-137.833.112-170.5-2.333c-31.578-2.363-48.333-12.333-75.833-15-16.63-1.612-39.229-3.006-53.9-3.006"/></g><use id="d66d87b3-5d5b-4ef1-a0c8-f7fe708f3151" data-name="Start-Finish-Line" width="200" height="103.617" transform="translate(378.937 190.85) rotate(90.185) scale(0.287)" xlink:href="#57d172e8-1671-46e9-acb3-8b220d44d428"/></g></g></g></svg>