<svg xmlns="http://www.w3.org/2000/svg" width="587.925" height="672.443" viewBox="0 0 587.925 672.443"><defs><style>.\31 b704cd2-8ee4-48a3-921c-4cb9e23f9676,.\35 773a022-9524-4ccd-b405-013778705483,.\38 6c75f2a-0082-45c9-8cac-01931e22639b,.a86fea5a-292c-4893-a015-19b64d0854cf,.d7409681-8bc9-4541-8cd0-187d91a0fa69,.ec021dfd-4308-4b61-8db0-fd4385c9fa9e{fill:none;stroke-linejoin:round;}.\38 6c75f2a-0082-45c9-8cac-01931e22639b,.d7409681-8bc9-4541-8cd0-187d91a0fa69{stroke:#c91c1c;}.\38 6c75f2a-0082-45c9-8cac-01931e22639b{stroke-width:27.646px;}.\31 b704cd2-8ee4-48a3-921c-4cb9e23f9676,.a86fea5a-292c-4893-a015-19b64d0854cf{stroke:#0080ff;}.\31 b704cd2-8ee4-48a3-921c-4cb9e23f9676{stroke-width:27.646px;}.\35 773a022-9524-4ccd-b405-013778705483,.ec021dfd-4308-4b61-8db0-fd4385c9fa9e{stroke:#fff;}.ec021dfd-4308-4b61-8db0-fd4385c9fa9e{stroke-width:13.823px;}.\35 773a022-9524-4ccd-b405-013778705483{stroke-width:13.823px;}.a86fea5a-292c-4893-a015-19b64d0854cf,.d7409681-8bc9-4541-8cd0-187d91a0fa69{stroke-width:2.765px;}.d86e06d1-7dbe-4127-ad65-60c3e494e091{fill:#00ff24;}.\34 a4d4507-c904-400a-a1fb-829465699256,.d86e06d1-7dbe-4127-ad65-60c3e494e091{stroke:#000;stroke-miterlimit:10;stroke-width:1.382px;}.\34 a4d4507-c904-400a-a1fb-829465699256{fill:#fff;}</style></defs><title>RON_Raceway_National</title><g id="fa777b1e-fb6e-4c54-ac4e-3db587868028" data-name="Layer 2"><g id="2698050f-88ee-4cfd-aef8-f8861e2f33ff" data-name="Broughy1322"><g id="00dd177a-08e0-4a37-9929-1cd5948ab14e" data-name="RON_Raceway_National"><path id="cce73845-945c-4041-a8dc-2acc2af64f88" data-name="Pit Outer" class="86c75f2a-0082-45c9-8cac-01931e22639b" d="M301.848,632.408s-20.9,33.175-36.754,24.881-144.7-81.554-154.926-87.083.341-25.547-16.053-34.9"/><path id="ca10840e-bd74-4f33-9ac3-287870b73c9c" data-name="Track Outer" class="1b704cd2-8ee4-48a3-921c-4cb9e23f9676" d="M26,444.218c22.117-41.745,85.09-143.778,99.645-165.645s56.149,17.5,70.732-5.833,42.684-75.459,54.71-97.327-28.807-55.056-19.352-71.878S285.372,4.8,313.805,14.641s206.153,106.09,206.153,106.09S574.1,144.782,574.1,165.572s-37.736,78.789-49.762,85.3-28.448,7.658-46.486-6.013-50.315-28.433-62.88-36.644-26.263,22.973-46.486,19.144-88.466-17.5-100.575-9.288-138.67,170.973-169.6,223.652c-18.619,31.7-18.205,63.972,7.3,79.288s133.238,73.827,146.37,80.932,19.13,6.013,25.143-4.921,36.645,1.092,31.724,21.328S289.7,645.692,256.9,625.455,73.273,524.379,51.171,511.718C3.643,488.6,9.06,476.94,26,444.218Z"/><path id="42e83756-596f-4bce-8679-ea1807622e33" data-name="Track Mid" class="ec021dfd-4308-4b61-8db0-fd4385c9fa9e" d="M26,444.218c22.117-41.745,85.09-143.778,99.645-165.645s56.149,17.5,70.732-5.833,42.684-75.459,54.71-97.327-28.807-55.056-19.352-71.878S285.372,4.8,313.805,14.641s206.153,106.09,206.153,106.09S574.1,144.782,574.1,165.572s-37.736,78.789-49.762,85.3-28.448,7.658-46.486-6.013-50.315-28.433-62.88-36.644-26.263,22.973-46.486,19.144-88.466-17.5-100.575-9.288-138.67,170.973-169.6,223.652c-18.619,31.7-18.205,63.972,7.3,79.288s133.238,73.827,146.37,80.932,19.13,6.013,25.143-4.921,36.645,1.092,31.724,21.328S289.7,645.692,256.9,625.455,73.273,524.379,51.171,511.718C3.643,488.6,9.06,476.94,26,444.218Z"/><path id="eca62a80-2d23-4a89-903f-5a3046bf218a" data-name="Pit Mid" class="5773a022-9524-4ccd-b405-013778705483" d="M302.8,631.509s-21.848,33.452-37.7,25.158-144.7-81.554-154.926-87.083,1.184-24.745-16.053-34.283"/><path id="0db1a18c-ca16-419e-bd57-1da1ab37b7fe" data-name="Pit Inner" class="d7409681-8bc9-4541-8cd0-187d91a0fa69" d="M300.088,634.134s-19.14,30.841-34.994,22.533-144.7-81.554-154.926-87.083.341-24.925-16.053-34.283"/><path id="b31024d2-77b8-47de-a6e0-8444dd6f2fce" data-name="Track Inner" class="a86fea5a-292c-4893-a015-19b64d0854cf" d="M26,444.218c22.117-41.745,85.09-143.778,99.645-165.645s56.149,17.5,70.732-5.833,42.684-75.459,54.71-97.327-28.807-55.056-19.352-71.878S285.372,4.8,313.805,14.641s206.153,106.09,206.153,106.09S574.1,144.782,574.1,165.572s-37.736,78.789-49.762,85.3-28.448,7.658-46.486-6.013-50.315-28.433-62.88-36.644-26.263,22.973-46.486,19.144-88.466-17.5-100.575-9.288-138.67,170.973-169.6,223.652c-18.619,31.7-18.205,63.972,7.3,79.288s133.238,73.827,146.37,80.932,19.13,6.013,25.143-4.921,36.645,1.092,31.724,21.328S289.7,645.692,256.9,625.455,73.273,524.379,51.171,511.718C3.643,488.6,9.06,476.94,26,444.218Z"/><rect class="d86e06d1-7dbe-4127-ad65-60c3e494e091" x="84.809" y="533.881" width="30.839" height="7.437" transform="translate(-412.505 347.433) rotate(-59.09)"/><rect class="4a4d4507-c904-400a-a1fb-829465699256" x="97.324" y="547.788" width="7.713" height="7.713" transform="translate(-424.093 355.081) rotate(-59.09)"/><rect class="4a4d4507-c904-400a-a1fb-829465699256" x="101.277" y="541.175" width="7.713" height="7.713" transform="translate(-416.496 355.256) rotate(-59.09)"/><rect class="4a4d4507-c904-400a-a1fb-829465699256" x="105.249" y="534.557" width="7.713" height="7.713" transform="translate(-408.887 355.445) rotate(-59.09)"/><rect class="4a4d4507-c904-400a-a1fb-829465699256" x="109.187" y="527.944" width="7.713" height="7.713" transform="translate(-401.297 355.608) rotate(-59.09)"/></g></g></g></svg>