<svg xmlns="http://www.w3.org/2000/svg" width="284.72" height="265.25" viewBox="0 0 284.72 265.25"><defs><style>.cls-1,.cls-2,.track-inner-6{fill:none;stroke-linejoin:round;}.cls-1,.track-inner-6{stroke:#0080ff;}.cls-1{stroke-width:16px;}.cls-2,.cls-5{stroke:#fff;}.cls-2{stroke-width:8px;}.cls-3,.cls-4,.cls-5,.track-inner-6{stroke-width:2px;}.cls-3{fill:#00ff24;}.cls-3,.cls-4{stroke:#000;}.cls-3,.cls-4,.cls-5{stroke-miterlimit:10;}.cls-4,.cls-6{fill:#fff;}.cls-5{fill:#3a3a3a;}.cls-6{font-size:12.5px;font-family:MyriadPro-Regular, Myriad Pro;}</style></defs><title>RON_Raceway_Indy</title><g id="Layer_2" data-name="Layer 2"><g id="Airport"><g id="RON_Raceway_Indy"><path class="cls-1" d="M9.1,59.57C14.37,50.45,73.59,54,79.52,46.91s23-43.86,35.21-38.35,66.86,40.73,77.14,46.26-5.54,41.15,9.5,51.43,27.69,22.55,16.61,34-28.88,23.35-12.66,32,75.17,34.81,71.21,58.94S261.89,262.91,239,253,127,187.75,135.7,184.19s67.25-15,51-24.53-44.7-25.72-54.59-32-17,3.56-19.78,8.7-10.29,32.83-29.67,21-36.4-22.95-48.27-41.54S3.17,69.86,9.1,59.57Z"/><path class="cls-2" d="M9.1,59.57C14.37,50.45,73.59,54,79.52,46.91s23-43.86,35.21-38.35,66.86,40.73,77.14,46.26-5.54,41.15,9.5,51.43,27.69,22.55,16.61,34-28.88,23.35-12.66,32,75.17,34.81,71.21,58.94S261.89,262.91,239,253,127,187.75,135.7,184.19s67.25-15,51-24.53-44.7-25.72-54.59-32-17,3.56-19.78,8.7-10.29,32.83-29.67,21-36.4-22.95-48.27-41.54S3.17,69.86,9.1,59.57Z"/><path class="track-inner-6" d="M9.1,59.57C14.37,50.45,73.59,54,79.52,46.91s23-43.86,35.21-38.35,66.86,40.73,77.14,46.26-5.54,41.15,9.5,51.43,27.69,22.55,16.61,34-28.88,23.35-12.66,32,75.17,34.81,71.21,58.94S261.89,262.91,239,253,127,187.75,135.7,184.19s67.25-15,51-24.53-44.7-25.72-54.59-32-17,3.56-19.78,8.7-10.29,32.83-29.67,21-36.4-22.95-48.27-41.54S3.17,69.86,9.1,59.57Z"/><rect class="cls-3" x="33.45" y="131.31" width="36.48" height="8.8" transform="translate(189.14 182.55) rotate(129.67)"/><rect class="cls-4" x="48.55" y="114.56" width="9.12" height="9.12" transform="translate(178.71 154.27) rotate(129.67)"/><rect class="cls-4" x="42.73" y="121.58" width="9.12" height="9.12" transform="translate(174.58 170.26) rotate(129.67)"/><rect class="cls-4" x="36.91" y="128.6" width="9.12" height="9.12" transform="translate(170.44 186.24) rotate(129.67)"/><rect class="cls-4" x="31.09" y="135.62" width="9.12" height="9.12" transform="translate(166.31 202.22) rotate(129.67)"/><g id="Corner_Numbers" data-name="Corner Numbers"><g id="Layer_87" data-name="Layer 87"><path id="Elipse_l" class="cls-5" d="M25.82,62.06a9,9,0,1,1-5.9,11.28c-2-6.26-3.58-8.11-3.17-8.87S19.62,64,25.82,62.06Z"/><text id="Number_l" class="cls-6" transform="translate(24.64 75.04)">2</text></g><g id="Layer_88" data-name="Layer 88"><path id="Elipse_l-2" data-name="Elipse_l" class="cls-5" d="M65,39.35a9,9,0,1,1,10.24-7.56c-1,6.48-.32,8.86-1,9.37S71.45,40.32,65,39.35Z"/><text id="Number_l-2" data-name="Number_l" class="cls-6" transform="translate(63.11 35.39)">3</text></g><g id="Layer_89" data-name="Layer 89"><path id="Elipse_l-3" data-name="Elipse_l" class="cls-5" d="M118.47,21.91a9,9,0,1,1-12.68,1c4.25-5,4.95-7.35,5.82-7.41S113.52,17.69,118.47,21.91Z"/><text id="Number_l-3" data-name="Number_l" class="cls-6" transform="translate(109.12 32.93)">4</text></g><g id="Layer_90" data-name="Layer 90"><path id="Elipse_l-4" data-name="Elipse_l" class="cls-5" d="M183.65,70a9,9,0,1,1-3.76-12.15c5.8,3.06,8.26,3.22,8.51,4.06S186.68,64.23,183.65,70Z"/><text id="Number_l-4" data-name="Number_l" class="cls-6" transform="translate(172.6 70.26)">5</text></g><g id="Layer_91" data-name="Layer 91"><path id="Elipse_l-5" data-name="Elipse_l" class="cls-5" d="M207.14,89.07a9,9,0,1,1,6.17,11.13c-6.3-1.81-8.74-1.47-9.15-2.23S205.35,95.32,207.14,89.07Z"/><text id="Number_l-5" data-name="Number_l" class="cls-6" transform="translate(211.92 96.34)">6</text></g><g id="Layer_92" data-name="Layer 92"><path id="Elipse_l-6" data-name="Elipse_l" class="cls-5" d="M207.06,136.79a9,9,0,1,1,.58-12.71c4.42,4.85,6.68,5.83,6.63,6.7S211.86,132.41,207.06,136.79Z"/><text id="Number_l-6" data-name="Number_l" class="cls-6" transform="translate(197.92 134.77)">7</text></g><g id="Layer_93" data-name="Layer 93"><path id="Elipse_l-7" data-name="Elipse_l" class="cls-5" d="M214.3,155.93a9,9,0,1,1,3.18,12.33c-5.65-3.34-8.1-3.62-8.31-4.47S211,161.53,214.3,155.93Z"/><text id="Number_l-7" data-name="Number_l" class="cls-6" transform="translate(218.14 165.2)">8</text></g><g id="Layer_94" data-name="Layer 94"><path id="Elipse_l-8" data-name="Elipse_l" class="cls-5" d="M261,241.11a9,9,0,1,1,2.2-12.54c3.77,5.37,5.88,6.64,5.72,7.5S266.29,237.37,261,241.11Z"/><text id="Number_l-8" data-name="Number_l" class="cls-6" transform="translate(252.72 238.42)">9</text></g><g id="Layer_95" data-name="Layer 95"><path id="Elipse_l-9" data-name="Elipse_l" class="cls-5" d="M159.43,183.78a9,9,0,1,1-1.83,12.6c-3.92-5.26-6.07-6.46-5.93-7.33S154.22,187.67,159.43,183.78Z"/><text id="Number_l-9" data-name="Number_l" class="cls-6" transform="translate(157.69 195.52)">10</text></g><g id="Layer_96" data-name="Layer 96"><path id="Elipse_l-10" data-name="Elipse_l" class="cls-5" d="M166.61,168.64A9,9,0,1,1,168.19,156c4,5.18,6.2,6.34,6.08,7.21S171.74,164.65,166.61,168.64Z"/><text id="Number_l-10" data-name="Number_l" class="cls-6" transform="translate(154.8 166.2)">11</text></g><g id="Layer_97" data-name="Layer 97"><path id="Elipse_l-11" data-name="Elipse_l" class="cls-5" d="M132.43,137.39a9,9,0,1,1-12.4,2.86c3.48-5.56,3.82-8,4.67-8.19S126.92,133.94,132.43,137.39Z"/><text id="Number_l-11" data-name="Number_l" class="cls-6" transform="translate(120.87 149.2)">12</text></g><g id="Layer_98" data-name="Layer 98"><path id="Elipse_l-12" data-name="Elipse_l" class="cls-5" d="M84.91,145.55a9,9,0,1,1,12.7-.9c-4.3,4.95-5,7.31-5.89,7.36S89.82,149.81,84.91,145.55Z"/><text id="Number_l-12" data-name="Number_l" class="cls-6" transform="translate(84.13 143.77)">13</text></g></g></g></g></g></svg>