<svg xmlns="http://www.w3.org/2000/svg" width="518.63" height="786.78" viewBox="0 0 518.63 786.78"><defs><style>.cls-1,.pit-inner-4,.pit-outer-2,.track-inner-4,.track-outer{fill:none;stroke-linejoin:round;}.pit-inner-4,.pit-outer-2{stroke:#c91c1c;}.pit-outer-2,.track-outer{stroke-width:20px;}.track-inner-4,.track-outer{stroke:#0080ff;}.cls-1,.cls-4{stroke:#fff;}.cls-1{stroke-width:10px;}.cls-4,.pit-inner-4,.track-inner-4{stroke-width:2px;}.cls-2{fill:#00ff24;}.cls-2,.cls-3{stroke:#000;}.cls-2,.cls-3,.cls-4{stroke-miterlimit:10;}.cls-3,.cls-5{fill:#fff;}.cls-4{fill:#3a3a3a;}.cls-5{font-size:12.5px;font-family:MyriadPro-Regular, Myriad Pro;}</style></defs><title>RON_Raceway</title><g id="Layer_2" data-name="Layer 2"><g id="Airport"><g id="RON_Raceway"><path id="Pit_Outer" data-name="Pit Outer" class="pit-outer-2" d="M254.72,457.51s-15.12,24-26.59,18-104.68-59-112.08-63,1.61-18.38-10.25-25.15"/><path id="Track_Outer" data-name="Track Outer" class="track-outer" d="M107.47,319.56C94,342.49,94.3,365.84,112.75,376.92s96.39,53.41,105.89,58.55,13.84,4.35,18.19-3.56,26.51.79,22.95,15.43-13.85,19.78-37.58,5.14-115.48-64-129.76-72.79c-21.76-13.45-38.38,19-24.13,26.9s21.75,17.8,17.8,28.88-22.79,35.21-10,42.33,35.33,22.15,42.45,8.7,14.24-36.44,29.67-26.33,26.23,15.08,39.95,35c0,0,41.45,65,51.47,71.88,9.73,6.67,66.46,3.17,72.26-4.75s22.16-39.51,32.71-38.21,90.2,49.29,88.09,57.2-14.25,30.6-4.75,34.82,30.06,20,24.79,31.64-31.12,31.13-19.52,36.4,49.06,30.07,61.72,35.34,17.4,28.48,10.55,43.25-26.38,16.9-36.93,10.82c0,0-80.17-47.23-97.05-56.72s-6.33-21.63,11.6-23.74,50.11-7.91,29-21.1-54.85-35.87-59.6-31.65S330.89,685.76,321.4,681,276,647.25,262.85,627.73,243.53,586.59,232.09,576s-88.21-14.31-92.14-5.27C134.67,582.9,188,608.35,181.71,619S30.19,636.44,47.2,601.23s25.32-37.58,23-62.51-5.54-24.13-7.52-38,2.77-29.67-8.7-36S9.22,446.94,10,429.14s6.21-39.82,14.25-55c16-30.2,92.47-156.79,103-172.61s40.62,12.66,51.17-4.22S209.3,142.72,218,126.9s-20.84-39.83-14-52S242.8,3.47,263.37,10.59,412.51,87.34,412.51,87.34s39.17,17.4,39.17,32.44-27.3,57-36,61.71-20.58,5.54-33.63-4.35-36.4-20.57-45.49-26.51-19,16.62-33.63,13.85-64-12.66-72.76-6.72S129.85,281.45,107.47,319.56Z"/><path id="Pit_Mid" data-name="Pit Mid" class="cls-1" d="M254.72,457.06s-15.12,24-26.59,18-104.68-59-112.08-63,1.56-18.17-10.91-25.07"/><path id="Track_Mid" data-name="Track Mid" class="cls-1" d="M107.47,319.56C94,342.49,94.3,365.84,112.75,376.92s96.39,53.41,105.89,58.55,13.84,4.35,18.19-3.56,26.51.79,22.95,15.43-13.85,19.78-37.58,5.14-115.48-64-129.76-72.79c-21.76-13.45-38.38,19-24.13,26.9s21.75,17.8,17.8,28.88-22.79,35.21-10,42.33,35.33,22.15,42.45,8.7,14.24-36.44,29.67-26.33,26.23,15.08,39.95,35c0,0,41.45,65,51.47,71.88,9.73,6.67,66.46,3.17,72.26-4.75s22.16-39.51,32.71-38.21,90.2,49.29,88.09,57.2-14.25,30.6-4.75,34.82,30.06,20,24.79,31.64-31.12,31.13-19.52,36.4,49.06,30.07,61.72,35.34,17.4,28.48,10.55,43.25-26.38,16.9-36.93,10.82c0,0-80.17-47.23-97.05-56.72s-6.33-21.63,11.6-23.74,50.11-7.91,29-21.1-54.85-35.87-59.6-31.65S330.89,685.76,321.4,681,276,647.25,262.85,627.73,243.53,586.59,232.09,576s-88.21-14.31-92.14-5.27C134.67,582.9,188,608.35,181.71,619S30.19,636.44,47.2,601.23s25.32-37.58,23-62.51-5.54-24.13-7.52-38,2.77-29.67-8.7-36S9.22,446.94,10,429.14s6.21-39.82,14.25-55c16-30.2,92.47-156.79,103-172.61s40.62,12.66,51.17-4.22S209.3,142.72,218,126.9s-20.84-39.83-14-52S242.8,3.47,263.37,10.59,412.51,87.34,412.51,87.34s39.17,17.4,39.17,32.44-27.3,57-36,61.71-20.58,5.54-33.63-4.35-36.4-20.57-45.49-26.51-19,16.62-33.63,13.85-64-12.66-72.76-6.72S129.85,281.45,107.47,319.56Z"/><path id="Pit_Inner" data-name="Pit Inner" class="pit-inner-4" d="M253.23,458.81s-13.63,22.26-25.1,16.25-104.68-59-112.08-63,1.61-17.92-10.25-24.69"/><path id="Track_Inner" data-name="Track Inner" class="track-inner-4" d="M107.47,319.56C94,342.49,94.3,365.84,112.75,376.92s96.39,53.41,105.89,58.55,13.84,4.35,18.19-3.56,26.51.79,22.95,15.43-13.85,19.78-37.58,5.14S108.43,388.85,92.44,379.69c-22.2-12.71-38.38,19-24.13,26.9s21.75,17.8,17.8,28.88-22.79,35.21-10,42.33,35.33,22.15,42.45,8.7,14.24-36.44,29.67-26.33,26.23,15.08,39.95,35c0,0,41.45,65,51.47,71.88,9.73,6.67,66.46,3.17,72.26-4.75s22.16-39.51,32.71-38.21,90.2,49.29,88.09,57.2-14.25,30.6-4.75,34.82,30.06,20,24.79,31.64-31.12,31.13-19.52,36.4,49.06,30.07,61.72,35.34,17.4,28.48,10.55,43.25-26.38,16.9-36.93,10.82c0,0-80.17-47.23-97.05-56.72s-6.33-21.63,11.6-23.74,50.11-7.91,29-21.1-54.85-35.87-59.6-31.65S330.89,685.76,321.4,681,276,647.25,262.85,627.73,243.53,586.59,232.09,576s-88.21-14.31-92.14-5.27C134.67,582.9,188,608.35,181.71,619S30.19,636.44,47.2,601.23s25.32-37.58,23-62.51-5.54-24.13-7.52-38,2.77-29.67-8.7-36S9.22,446.94,10,429.14s6.21-39.82,14.25-55c16-30.2,92.47-156.79,103-172.61s40.62,12.66,51.17-4.22S209.3,142.72,218,126.9s-20.84-39.83-14-52S242.8,3.47,263.37,10.59,412.51,87.34,412.51,87.34s39.17,17.4,39.17,32.44-27.3,57-36,61.71-20.58,5.54-33.63-4.35-36.4-20.57-45.49-26.51-19,16.62-33.63,13.85-64-12.66-72.76-6.72S129.85,281.45,107.47,319.56Z"/><rect class="cls-2" x="97.71" y="386.21" width="22.31" height="5.38" transform="translate(-280.73 282.55) rotate(-59.09)"/><rect class="cls-3" x="106.76" y="396.27" width="5.58" height="5.58" transform="translate(-289.11 288.08) rotate(-59.09)"/><rect class="cls-3" x="109.62" y="391.48" width="5.58" height="5.58" transform="translate(-283.61 288.21) rotate(-59.09)"/><rect class="cls-3" x="112.49" y="386.7" width="5.58" height="5.58" transform="translate(-278.11 288.34) rotate(-59.09)"/><rect class="cls-3" x="115.35" y="381.91" width="5.58" height="5.58" transform="translate(-272.62 288.47) rotate(-59.09)"/><g id="Corner_Numbers" data-name="Corner Numbers"><g id="Layer_99" data-name="Layer 99"><path id="Elipse_l" class="cls-4" d="M82.72,387.83A9,9,0,1,1,78,399.63c-2.56-6-4.36-7.72-4-8.52S76.73,390.37,82.72,387.83Z"/><text id="Number_l" class="cls-5" transform="translate(82.35 400.55)">1</text></g><g id="Layer_100" data-name="Layer 100"><path id="Elipse_l-2" data-name="Elipse_l" class="cls-4" d="M101.58,422.59a9,9,0,1,1,0,12.72c-4.62-4.65-6.91-5.54-6.9-6.41S97,427.17,101.58,422.59Z"/><text id="Number_l-2" data-name="Number_l" class="cls-5" transform="translate(104 433.56)">2</text></g><g id="Layer_117" data-name="Layer 117"><path id="Elipse_l-3" data-name="Elipse_l" class="cls-4" d="M86,461.05a9,9,0,1,1,2.74,12.42c-5.53-3.53-8-3.9-8.14-4.75S82.54,466.53,86,461.05Z"/><text id="Number_l-3" data-name="Number_l" class="cls-5" transform="translate(89.71 470.57)">3</text></g><g id="Layer_118" data-name="Layer 118"><path id="Elipse_l-4" data-name="Elipse_l" class="cls-4" d="M121.67,505a9,9,0,0,1,2.19,12.72,9.1,9.1,0,0,1-12.15,2.26,9,9,0,0,1-2.55-12.65c3.71-5.41,4.15-7.83,5-8S116.3,501.28,121.67,505Z"/><text id="Number_l-4" data-name="Number_l" class="cls-5" transform="translate(113.02 516.56)">4</text></g><g id="Layer_119" data-name="Layer 119"><path id="Elipse_l-5" data-name="Elipse_l" class="cls-4" d="M148.15,473.53a9,9,0,1,1-12.43,2.71c3.54-5.52,3.91-7.95,4.77-8.13S142.68,470,148.15,473.53Z"/><text id="Number_l-5" data-name="Number_l" class="cls-5" transform="translate(139.71 485.28)">5</text></g><g id="Layer_120" data-name="Layer 120"><path id="Elipse_l-6" data-name="Elipse_l" class="cls-4" d="M243,551.71a9,9,0,1,1,11.92,4.47c-6,2.71-7.61,4.56-8.42,4.24S245.66,557.63,243,551.71Z"/><text id="Number_l-6" data-name="Number_l" class="cls-5" transform="translate(247.51 552.98)">6</text></g><g id="Layer_121" data-name="Layer 121"><path id="Elipse_l-7" data-name="Elipse_l" class="cls-4" d="M296.15,555.42a9,9,0,1,1,9.21-8.79c-.16,6.56.79,8.83.15,9.43S302.65,555.57,296.15,555.42Z"/><text id="Number_l-7" data-name="Number_l" class="cls-5" transform="translate(293.15 551.33)">7</text></g><g id="Layer_122" data-name="Layer 122"><path id="Elipse_l-8" data-name="Elipse_l" class="cls-4" d="M352.43,538.78A9,9,0,1,1,340,541.45c3.56-5.51,3.94-7.94,4.8-8.12S347,535.25,352.43,538.78Z"/><text id="Number_l-8" data-name="Number_l" class="cls-5" transform="translate(343.97 550.51)">8</text></g><g id="Layer_123" data-name="Layer 123"><path id="Elipse_l-9" data-name="Elipse_l" class="cls-4" d="M416.89,589.38a9,9,0,1,1-2.12-12.55c5.35,3.8,7.76,4.29,7.9,5.15S420.66,584.08,416.89,589.38Z"/><text id="Number_l-9" data-name="Number_l" class="cls-5" transform="translate(406.48 588.7)">9</text></g><g id="Layer_124" data-name="Layer 124"><path id="Elipse_l-10" data-name="Elipse_l" class="cls-4" d="M438.6,600a9,9,0,1,1,4.39,12c-5.95-2.76-8.41-2.79-8.7-3.61S435.87,605.89,438.6,600Z"/><text id="Number_l-10" data-name="Number_l" class="cls-5" transform="translate(439.67 608.5)">10</text></g><g id="Layer_125" data-name="Layer 125"><path id="Elipse_l-11" data-name="Elipse_l" class="cls-4" d="M437.66,649.66a9,9,0,1,1-.35-12.73c4.76,4.51,7.09,5.33,7.1,6.2S442.13,644.93,437.66,649.66Z"/><text id="Number_l-11" data-name="Number_l" class="cls-5" transform="translate(424.84 648.06)">11</text></g><g id="Layer_126" data-name="Layer 126"><path id="Elipse_l-12" data-name="Elipse_l" class="cls-4" d="M449.09,670.39a9,9,0,1,1,1.79,12.6c-5.24-3.94-7.64-4.49-7.76-5.35S445.18,675.59,449.09,670.39Z"/><text id="Number_l-12" data-name="Number_l" class="cls-5" transform="translate(449.16 680.44)">12</text></g><g id="Layer_127" data-name="Layer 127"><path id="Elipse_l-13" data-name="Elipse_l" class="cls-4" d="M491.37,758.93a9,9,0,1,1,3.41-12.26c3.23,5.7,5.2,7.17,5,8S497,755.73,491.37,758.93Z"/><text id="Number_l-13" data-name="Number_l" class="cls-5" transform="translate(480.65 755.81)">13</text></g><g id="Layer_128" data-name="Layer 128"><path id="Elipse_l-14" data-name="Elipse_l" class="cls-4" d="M347.58,712.58a9,9,0,1,1-.16-12.73c4.69,4.58,7,5.43,7,6.31S352.12,707.92,347.58,712.58Z"/><text id="Number_l-14" data-name="Number_l" class="cls-5" transform="translate(334.85 710.9)">14</text></g><g id="Layer_129" data-name="Layer 129"><path id="Elipse_l-15" data-name="Elipse_l" class="cls-4" d="M394.89,683.69a9,9,0,1,1,1.61-12.63c4,5.19,6.18,6.36,6.06,7.22S400,679.71,394.89,683.69Z"/><text id="Number_l-15" data-name="Number_l" class="cls-5" transform="translate(383.1 681.23)">15</text></g><g id="Layer_130" data-name="Layer 130"><path id="Elipse_l-16" data-name="Elipse_l" class="cls-4" d="M345.48,625.09A9,9,0,1,1,358,622.76c-3.71,5.41-4.16,7.83-5,8S350.84,628.77,345.48,625.09Z"/><text id="Number_l-16" data-name="Number_l" class="cls-5" transform="translate(343.93 622.68)">16</text></g><g id="Layer_131" data-name="Layer 131"><path id="Elipse_l-17" data-name="Elipse_l" class="cls-4" d="M315.37,664.22A9,9,0,1,1,327.9,662c-3.75,5.39-4.21,7.81-5.07,8S320.71,667.93,315.37,664.22Z"/><text id="Number_l-17" data-name="Number_l" class="cls-5" transform="translate(313.87 661.84)">17</text></g><g id="Layer_132" data-name="Layer 132"><path id="Elipse_l-18" data-name="Elipse_l" class="cls-4" d="M227.85,590.44a9,9,0,1,1-10.68-6.92c6.41-1.37,8.4-2.82,9.13-2.34S226.49,584.08,227.85,590.44Z"/><text id="Number_l-18" data-name="Number_l" class="cls-5" transform="translate(212.59 596.57)">18</text></g><g id="Layer_133" data-name="Layer 133"><path id="Elipse_l-19" data-name="Elipse_l" class="cls-4" d="M123.57,567.16A9,9,0,1,1,129.66,556c1.85,6.29,3.45,8.17,3,8.93S129.81,565.32,123.57,567.16Z"/><text id="Number_l-19" data-name="Number_l" class="cls-5" transform="translate(114.69 563.34)">19</text></g><g id="Layer_134" data-name="Layer 134"><path id="Elipse_l-20" data-name="Elipse_l" class="cls-4" d="M199.3,619.29A9,9,0,1,1,194,630.87c-2.3-6.14-4-7.89-3.66-8.68S193.21,621.57,199.3,619.29Z"/><text id="Number_l-20" data-name="Number_l" class="cls-5" transform="translate(195.37 632.13)">20</text></g><g id="Layer_135" data-name="Layer 135"><path id="Elipse_l-21" data-name="Elipse_l" class="cls-4" d="M61.22,598.79a9,9,0,1,1,5.63,11.42c-6.21-2.11-8.66-1.89-9-2.68S59.13,605,61.22,598.79Z"/><text id="Number_l-21" data-name="Number_l" class="cls-5" transform="translate(62.66 606.46)">21</text></g><g id="Layer_136" data-name="Layer 136"><path id="Elipse_l-22" data-name="Elipse_l" class="cls-4" d="M53.89,554.13A9,9,0,1,1,54,541.4c4.61,4.67,6.9,5.57,6.88,6.45S58.52,549.56,53.89,554.13Z"/><text id="Number_l-22" data-name="Number_l" class="cls-5" transform="translate(41.29 552.33)">22</text></g><g id="Layer_137" data-name="Layer 137"><path id="Elipse_l-23" data-name="Elipse_l" class="cls-4" d="M47.16,484A9,9,0,1,1,41,472.82c6.3,1.83,8.74,1.5,9.15,2.27S49,477.73,47.16,484Z"/><text id="Number_l-23" data-name="Number_l" class="cls-5" transform="translate(32.2 485.87)">23</text></g><g id="Layer_138" data-name="Layer 138"><path id="Elipse_l-24" data-name="Elipse_l" class="cls-4" d="M24.47,423.34a9,9,0,1,1,5.86,11.3c-6.25-2-8.7-1.71-9.09-2.48S22.5,429.54,24.47,423.34Z"/><text id="Number_l-24" data-name="Number_l" class="cls-5" transform="translate(25.96 430.84)">24</text></g><g id="Layer_139" data-name="Layer 139"><path id="Elipse_l-25" data-name="Elipse_l" class="cls-4" d="M144.33,211.63a9,9,0,1,1-12.53,2.22c3.76-5.38,4.23-7.79,5.09-7.93S139,207.91,144.33,211.63Z"/><text id="Number_l-25" data-name="Number_l" class="cls-5" transform="translate(132.4 223.18)">25</text></g><g id="Layer_140" data-name="Layer 140"><path id="Elipse_l-26" data-name="Elipse_l" class="cls-4" d="M160.61,188.53a9,9,0,1,1,12-4.22c-2.84,5.92-2.91,8.38-3.74,8.66S166.47,191.35,160.61,188.53Z"/><text id="Number_l-26" data-name="Number_l" class="cls-5" transform="translate(157.93 185.42)">26</text></g><g id="Layer_141" data-name="Layer 141"><path id="Elipse_l-27" data-name="Elipse_l" class="cls-4" d="M203,126.65a9,9,0,1,1,.89-12.69c4.3,5,6.53,6,6.46,6.86S207.86,122.38,203,126.65Z"/><text id="Number_l-27" data-name="Number_l" class="cls-5" transform="translate(190.77 124.49)">27</text></g><g id="Layer_142" data-name="Layer 142"><path id="Elipse_l-28" data-name="Elipse_l" class="cls-4" d="M219.44,74a9,9,0,1,1-.83,12.7c-4.33-4.93-6.56-6-6.5-6.84S214.55,78.24,219.44,74Z"/><text id="Number_l-28" data-name="Number_l" class="cls-5" transform="translate(218.25 85.27)">28</text></g><g id="Layer_143" data-name="Layer 143"><path id="Elipse_l-29" data-name="Elipse_l" class="cls-4" d="M266.33,25.7a9,9,0,1,1-12.67,1.19c4.18-5.05,4.84-7.43,5.71-7.5S261.32,21.55,266.33,25.7Z"/><text id="Number_l-29" data-name="Number_l" class="cls-5" transform="translate(253.85 36.8)">29</text></g><g id="Layer_144" data-name="Layer 144"><path id="Elipse_l-30" data-name="Elipse_l" class="cls-4" d="M436.7,126.41a9,9,0,1,1-3.32-12.29c5.69,3.27,8.13,3.52,8.35,4.37S439.94,120.77,436.7,126.41Z"/><text id="Number_l-30" data-name="Number_l" class="cls-5" transform="translate(422.6 126.42)">30</text></g><g id="Layer_145" data-name="Layer 145"><path id="Elipse_l-31" data-name="Elipse_l" class="cls-4" d="M395.58,168.83a9,9,0,1,1,12.71-.66c-4.39,4.87-5.15,7.21-6,7.25S400.41,173.18,395.58,168.83Z"/><text id="Number_l-31" data-name="Number_l" class="cls-5" transform="translate(394.91 167.16)">31</text></g><g id="Layer_146" data-name="Layer 146"><path id="Elipse_l-32" data-name="Elipse_l" class="cls-4" d="M326.71,133.8a9,9,0,1,1,12.71-.6c-4.41,4.85-5.18,7.19-6.05,7.22S331.52,138.18,326.71,133.8Z"/><text id="Number_l-32" data-name="Number_l" class="cls-5" transform="translate(326.07 132.16)">32</text></g><g id="Layer_147" data-name="Layer 147"><path id="Elipse_l-33" data-name="Elipse_l" class="cls-4" d="M314.23,179.24a9,9,0,1,1-12.63,1.55c4-5.17,4.63-7.56,5.5-7.66S309.1,175.23,314.23,179.24Z"/><text id="Number_l-33" data-name="Number_l" class="cls-5" transform="translate(301.94 190.5)">33</text></g><g id="Layer_148" data-name="Layer 148"><path id="Elipse_l-34" data-name="Elipse_l" class="cls-4" d="M244.16,169.25a9,9,0,1,1-12,4.33c2.79-5.94,2.83-8.4,3.66-8.69S238.27,166.49,244.16,169.25Z"/><text id="Number_l-34" data-name="Number_l" class="cls-5" transform="translate(233.5 181.59)">34</text></g><g id="Layer_149" data-name="Layer 149"><path id="Elipse_l-35" data-name="Elipse_l" class="cls-4" d="M114,344.15a9,9,0,1,1,.08,12.72c-4.66-4.6-7-5.47-7-6.34S109.39,348.77,114,344.15Z"/><text id="Number_l-35" data-name="Number_l" class="cls-5" transform="translate(113.24 355.05)">35</text></g><g id="Layer_150" data-name="Layer 150"><path id="Elipse_l-36" data-name="Elipse_l" class="cls-4" d="M219.48,422.35A9,9,0,1,1,232,420c-3.71,5.41-4.15,7.83-5,8S224.85,426,219.48,422.35Z"/><text id="Number_l-36" data-name="Number_l" class="cls-5" transform="translate(217.92 419.93)">36</text></g><g id="Layer_151" data-name="Layer 151"><path id="Elipse_l-37" data-name="Elipse_l" class="cls-4" d="M275.72,442.64a9,9,0,1,1-1.25,12.66c-4.16-5.07-6.36-6.17-6.26-7S270.69,446.76,275.72,442.64Z"/><text id="Number_l-37" data-name="Number_l" class="cls-5" transform="translate(274.31 454.14)">37</text></g></g></g></g></g></svg>