<svg xmlns="http://www.w3.org/2000/svg" width="286.96" height="354.85" viewBox="0 0 286.96 354.85"><defs><style>.cls-1,.pit-inner-4,.pit-outer,.track-inner-8,.track-outer{fill:none;stroke-linejoin:round;}.pit-inner-4,.pit-outer{stroke:#c91c1c;}.pit-outer,.track-outer{stroke-width:20px;}.track-inner-8,.track-outer{stroke:#0080ff;}.cls-1,.cls-4{stroke:#fff;}.cls-1{stroke-width:10px;}.cls-4,.pit-inner-4,.track-inner-8{stroke-width:2px;}.cls-2{fill:#00ff24;}.cls-2,.cls-3{stroke:#000;}.cls-2,.cls-3,.cls-4{stroke-miterlimit:10;}.cls-3,.cls-5{fill:#fff;}.cls-4{fill:#3a3a3a;}.cls-5{font-size:12.5px;font-family:MyriadPro-Regular, Myriad Pro;}</style></defs><title>RON_Raceway_Club</title><g id="Layer_2" data-name="Layer 2"><g id="Airport"><g id="RON_Raceway_Club"><path id="Pit_Outer" data-name="Pit Outer" class="pit-outer" d="M253.8,174.76s-15.13,24-26.6,18-104.68-59-112.07-63,1.6-18.37-10.26-25.15"/><path id="Track_Outer" data-name="Track Outer" class="track-outer" d="M217.71,276.94c-7.84,19.16-98.51,1.58-72.4,18.6s42.73,30.06,36.4,40.74S30.19,353.69,47.2,318.48s25.32-37.58,23-62.5-5.54-24.14-7.52-38,2.77-29.67-8.7-36S9.22,164.2,10,146.39s6.73-39.56,14.25-55,33-55,41.53-70.81c11.38-21,51-8.31,40.75,16.22S93.37,83.1,111.82,94.17s96.39,53.41,105.89,58.55,13.84,4.35,18.19-3.56,26.51.79,23,15.43-13.85,19.78-37.58,5.14-115.48-64-129.76-72.79c-21.76-13.45-38.38,19-24.13,26.9s21.75,17.81,17.8,28.88-22.78,35.21-10,42.33,35.33,22.16,42.45,8.71,14.24-36.45,29.67-26.33,24.92,16,40,35S224.83,259.54,217.71,276.94Z"/><path id="Pit_Mid" data-name="Pit Mid" class="cls-1" d="M253.8,174.31s-15.13,24-26.6,18-104.68-59-112.07-63,1.6-18.38-10.26-25.15"/><path id="Track_Mid" data-name="Track Mid" class="cls-1" d="M217.71,276.94c-7.84,19.16-98.51,1.58-72.4,18.6s42.73,30.06,36.4,40.74S30.19,353.69,47.2,318.48s25.32-37.58,23-62.5-5.54-24.14-7.52-38,2.77-29.67-8.7-36S9.22,164.2,10,146.39s6.73-39.56,14.25-55,33-55,41.53-70.81c11.38-21,51-8.31,40.75,16.22S93.37,83.1,111.82,94.17s96.39,53.41,105.89,58.55,13.84,4.35,18.19-3.56,26.51.79,23,15.43-13.85,19.78-37.58,5.14-115.48-64-129.76-72.79c-21.76-13.45-38.38,19-24.13,26.9s21.75,17.81,17.8,28.88-22.78,35.21-10,42.33,35.33,22.16,42.45,8.71,14.24-36.45,29.67-26.33,24.92,16,40,35S224.83,259.54,217.71,276.94Z"/><path id="Pit_Inner" data-name="Pit Inner" class="pit-inner-4" d="M253.8,174.31s-15.13,24-26.6,18-104.68-59-112.07-63,1.6-18.38-10.26-25.15"/><path id="Track_Inner" data-name="Track Inner" class="track-inner-8" d="M217.71,276.94c-7.84,19.16-98.51,1.58-72.4,18.6s42.73,30.06,36.4,40.74S30.19,353.69,47.2,318.48s25.32-37.58,23-62.5-5.54-24.14-7.52-38,2.77-29.67-8.7-36S9.22,164.2,10,146.39s6.73-39.56,14.25-55,33-55,41.53-70.81c11.38-21,51-8.31,40.75,16.22S93.37,83.1,111.82,94.17s96.39,53.41,105.89,58.55,13.84,4.35,18.19-3.56,26.51.79,23,15.43-13.85,19.78-37.58,5.14-115.48-64-129.76-72.79c-21.76-13.45-38.38,19-24.13,26.9s21.75,17.81,17.8,28.88-22.78,35.21-10,42.33,35.33,22.16,42.45,8.71,14.24-36.45,29.67-26.33,24.92,16,40,35S224.83,259.54,217.71,276.94Z"/><rect class="cls-2" x="97.14" y="105.77" width="22.31" height="5.38" transform="translate(-40.39 145.67) rotate(-59.09)"/><rect class="cls-3" x="106.19" y="115.83" width="5.58" height="5.58" transform="translate(-48.77 151.19) rotate(-59.09)"/><rect class="cls-3" x="109.05" y="111.04" width="5.58" height="5.58" transform="translate(-43.27 151.32) rotate(-59.09)"/><rect class="cls-3" x="111.92" y="106.26" width="5.58" height="5.58" transform="translate(-37.77 151.45) rotate(-59.09)"/><rect class="cls-3" x="114.78" y="101.47" width="5.58" height="5.58" transform="translate(-32.27 151.58) rotate(-59.09)"/><g id="Corner_Numbers" data-name="Corner Numbers"><g id="Layer_101" data-name="Layer 101"><path id="Elipse_l" class="cls-4" d="M84,105.59a9,9,0,1,1-6.37,11c-1.69-6.34-3.24-8.25-2.8-9S77.68,107.26,84,105.59Z"/><text id="Number_l" class="cls-5" transform="translate(82.42 118.66)">1</text></g><g id="Layer_102" data-name="Layer 102"><path id="Elipse_l-2" data-name="Elipse_l" class="cls-4" d="M70.57,153.24a9,9,0,1,1-1.22-12.67c5.06,4.17,7.43,4.83,7.51,5.7S74.71,148.22,70.57,153.24Z"/><text id="Number_l-2" data-name="Number_l" class="cls-5" transform="translate(60.55 152.07)">2</text></g><g id="Layer_103" data-name="Layer 103"><path id="Elipse_l-3" data-name="Elipse_l" class="cls-4" d="M85.84,178.92a9,9,0,1,1,2.76,12.43c-5.53-3.52-8-3.89-8.15-4.74S82.35,184.41,85.84,178.92Z"/><text id="Number_l-3" data-name="Number_l" class="cls-5" transform="translate(89.52 188.44)">3</text></g><g id="Layer_104" data-name="Layer 104"><path id="Elipse_l-4" data-name="Elipse_l" class="cls-4" d="M121.78,219.3a9,9,0,1,1-12,4.09c2.9-5.88,3-8.35,3.83-8.62S116,216.42,121.78,219.3Z"/><text id="Number_l-4" data-name="Number_l" class="cls-5" transform="translate(114.18 231.56)">4</text></g><g id="Layer_105" data-name="Layer 105"><path id="Elipse_l-5" data-name="Elipse_l" class="cls-4" d="M148.13,190.18A9,9,0,1,1,135.72,193c3.49-5.55,3.84-8,4.69-8.17S142.62,186.72,148.13,190.18Z"/><text id="Number_l-5" data-name="Number_l" class="cls-5" transform="translate(139.76 201.98)">5</text></g><g id="Layer_106" data-name="Layer 106"><path id="Elipse_l-6" data-name="Elipse_l" class="cls-4" d="M199.91,274.59a9,9,0,1,1,4.6-11.86c2.65,6,4.47,7.65,4.15,8.46S205.86,272,199.91,274.59Z"/><text id="Number_l-6" data-name="Number_l" class="cls-5" transform="translate(193.17 271.12)">6</text></g><g id="Layer_107" data-name="Layer 107"><path id="Elipse_l-7" data-name="Elipse_l" class="cls-4" d="M127.9,292.54a9,9,0,1,1,4.4-12c2.75,6,4.6,7.58,4.29,8.4S133.8,289.81,127.9,292.54Z"/><text id="Number_l-7" data-name="Number_l" class="cls-5" transform="translate(121.02 289.12)">7</text></g><g id="Layer_108" data-name="Layer 108"><path id="Elipse_l-8" data-name="Elipse_l" class="cls-4" d="M199.1,331.81A9,9,0,1,1,195.44,344c-3.11-5.77-5.06-7.28-4.8-8.11S193.37,334.89,199.1,331.81Z"/><text id="Number_l-8" data-name="Number_l" class="cls-5" transform="translate(199.47 344.2)">8</text></g><g id="Layer_109" data-name="Layer 109"><path id="Elipse_l-9" data-name="Elipse_l" class="cls-4" d="M63.8,316.43A9,9,0,1,1,66.11,329c-5.4-3.72-7.82-4.17-8-5S60.11,321.79,63.8,316.43Z"/><text id="Number_l-9" data-name="Number_l" class="cls-5" transform="translate(67.3 326.2)">9</text></g><g id="Layer_110" data-name="Layer 110"><path id="Elipse_l-10" data-name="Elipse_l" class="cls-4" d="M54.73,270.57a9,9,0,1,1-.44-12.72c4.79,4.47,7.12,5.28,7.14,6.15S59.16,265.81,54.73,270.57Z"/><text id="Number_l-10" data-name="Number_l" class="cls-5" transform="translate(41.87 269.02)">10</text></g><g id="Layer_111" data-name="Layer 111"><path id="Elipse_l-11" data-name="Elipse_l" class="cls-4" d="M45.55,202.44a9,9,0,1,1-5.46-11.5c6.18,2.21,8.64,2,9,2.81S47.73,196.32,45.55,202.44Z"/><text id="Number_l-11" data-name="Number_l" class="cls-5" transform="translate(30.76 203.84)">11</text></g><g id="Layer_112" data-name="Layer 112"><path id="Elipse_l-12" data-name="Elipse_l" class="cls-4" d="M25.19,139.83a9,9,0,1,1,5.46,11.5c-6.18-2.2-8.64-2-9-2.81S23,146,25.19,139.83Z"/><text id="Number_l-12" data-name="Number_l" class="cls-5" transform="translate(26.58 147.62)">12</text></g><g id="Layer_113" data-name="Layer 113"><path id="Elipse_l-13" data-name="Elipse_l" class="cls-4" d="M94.44,31.24a9,9,0,1,1-10.87-6.62c6.37-1.55,8.32-3.06,9.06-2.59S92.9,24.92,94.44,31.24Z"/><text id="Number_l-13" data-name="Number_l" class="cls-5" transform="translate(79.22 37.6)">13</text></g><g id="Layer_114" data-name="Layer 114"><path id="Elipse_l-14" data-name="Elipse_l" class="cls-4" d="M113.12,70.4a9,9,0,1,1,5.07,11.68c-6.1-2.41-8.56-2.3-8.9-3.11S110.73,76.45,113.12,70.4Z"/><text id="Number_l-14" data-name="Number_l" class="cls-5" transform="translate(114.4 78.46)">14</text></g><g id="Layer_115" data-name="Layer 115"><path id="Elipse_l-15" data-name="Elipse_l" class="cls-4" d="M219.71,141.38A9,9,0,1,1,232,138.16c-3.32,5.66-3.59,8.11-4.44,8.32S225.32,144.66,219.71,141.38Z"/><text id="Number_l-15" data-name="Number_l" class="cls-5" transform="translate(217.66 138.62)">15</text></g><g id="Layer_116" data-name="Layer 116"><path id="Elipse_l-16" data-name="Elipse_l" class="cls-4" d="M273.87,169.11a9,9,0,1,1-5.36,11.54c-2.26-6.16-4-7.93-3.59-8.71S267.76,171.34,273.87,169.11Z"/><text id="Number_l-16" data-name="Number_l" class="cls-5" transform="translate(269.88 181.97)">16</text></g></g></g></g></g></svg>