<svg xmlns="http://www.w3.org/2000/svg" width="521.65" height="786.76" viewBox="0 0 521.65 786.76"><defs><style>.track-inner-4,.track-mid,.track-outer{fill:none;stroke-linejoin:round;}.track-inner-4,.track-outer{stroke:#0080ff;}.track-outer{stroke-width:20px;}.cls-3,.track-mid{stroke:#fff;}.track-mid{stroke-width:11px;}.cls-1,.cls-2,.cls-3,.track-inner-4{stroke-width:2px;}.cls-1{fill:#00ff24;}.cls-1,.cls-2{stroke:#000;}.cls-1,.cls-2,.cls-3{stroke-miterlimit:10;}.cls-2,.cls-4{fill:#fff;}.cls-3{fill:#3a3a3a;}.cls-4{font-size:12.5px;font-family:MyriadPro-Regular, Myriad Pro;}</style></defs><title>RON_Raceway_Outer_Ring</title><g id="Layer_2" data-name="Layer 2"><g id="Airport"><g id="RON_Raceway_Outer_Ring"><path id="Track_Outer" data-name="Track Outer" class="track-outer" d="M233.2,157.76c-8.73,5.93-158.8,220-163,231s-6.86,20.57,23.21,35.87,74.9,43.78,90.72,60.66,46.95,79.64,58.55,81.75,66.47,3.17,72.27-4.74,22.15-39.52,32.7-38.22,90.2,49.29,88.09,57.21-14.24,30.59-4.75,34.81,30.07,20,24.79,31.65-31.12,31.12-19.51,36.39S485.3,714.24,498,719.51s17.41,28.49,10.55,43.26-26.37,16.89-36.92,10.82-132.4-79.92-149.28-93.11-49.58-43.78-64.88-70.15-14-30.6-22.32-35.34-62.6-5.28-83.7-6.86-62.19-16.88-74.35-34.81S70.71,480,65.43,471.07,20.6,448.39,13.74,436.26s-3.16-28.48,2.11-40.61S119.76,217.36,130.31,201.54s40.62,12.66,51.17-4.22,30.85-54.6,39.56-70.42-20.84-39.83-14-52S245.83,3.47,266.4,10.59,415.54,87.34,415.54,87.34s39.17,17.4,39.17,32.44-27.3,57-36,61.71-20.57,5.54-33.63-4.35-36.39-20.57-45.49-26.51-19,16.62-33.63,13.85S241.93,151.82,233.2,157.76Z"/><path id="Track_Mid" data-name="Track Mid" class="track-mid" d="M233.2,157.76c-8.73,5.93-158.8,220-163,231s-6.86,20.57,23.21,35.87,74.9,43.78,90.72,60.66,46.95,79.64,58.55,81.75,66.47,3.17,72.27-4.74,22.15-39.52,32.7-38.22,90.2,49.29,88.09,57.21-14.24,30.59-4.75,34.81,30.07,20,24.79,31.65-31.12,31.12-19.51,36.39S485.3,714.24,498,719.51s17.41,28.49,10.55,43.26-26.37,16.89-36.92,10.82-132.4-79.92-149.28-93.11-49.58-43.78-64.88-70.15-14-30.6-22.32-35.34-62.6-5.28-83.7-6.86-62.19-16.88-74.35-34.81S70.71,480,65.43,471.07,20.6,448.39,13.74,436.26s-3.16-28.48,2.11-40.61S119.76,217.36,130.31,201.54s40.62,12.66,51.17-4.22,30.85-54.6,39.56-70.42-20.84-39.83-14-52S245.83,3.47,266.4,10.59,415.54,87.34,415.54,87.34s39.17,17.4,39.17,32.44-27.3,57-36,61.71-20.57,5.54-33.63-4.35-36.39-20.57-45.49-26.51-19,16.62-33.63,13.85S241.93,151.82,233.2,157.76Z"/><path id="Track_Inner" data-name="Track Inner" class="track-inner-4" d="M233.2,157.76c-8.73,5.93-158.8,220-163,231s-6.86,20.57,23.21,35.87,74.9,43.78,90.72,60.66,46.95,79.64,58.55,81.75,66.47,3.17,72.27-4.74,22.15-39.52,32.7-38.22,90.2,49.29,88.09,57.21-14.24,30.59-4.75,34.81,30.07,20,24.79,31.65-31.12,31.12-19.51,36.39S485.3,714.24,498,719.51s17.41,28.49,10.55,43.26-26.37,16.89-36.92,10.82-132.4-79.92-149.28-93.11-49.58-43.78-64.88-70.15-14-30.6-22.32-35.34-62.6-5.28-83.7-6.86-62.19-16.88-74.35-34.81S70.71,480,65.43,471.07,20.6,448.39,13.74,436.26s-3.16-28.48,2.11-40.61S119.76,217.36,130.31,201.54s40.62,12.66,51.17-4.22,30.85-54.6,39.56-70.42-20.84-39.83-14-52S245.83,3.47,266.4,10.59,415.54,87.34,415.54,87.34s39.17,17.4,39.17,32.44-27.3,57-36,61.71-20.57,5.54-33.63-4.35-36.39-20.57-45.49-26.51-19,16.62-33.63,13.85S241.93,151.82,233.2,157.76Z"/><rect class="cls-1" x="101.32" y="310.78" width="36.48" height="8.8" transform="translate(24.03 638.45) rotate(-142.76)"/><rect class="cls-2" x="131.63" y="311.34" width="9.12" height="9.12" transform="translate(53.46 649.81) rotate(-142.76)"/><rect class="cls-2" x="124.37" y="305.82" width="9.12" height="9.12" transform="translate(43.76 635.51) rotate(-142.76)"/><rect class="cls-2" x="117.11" y="300.3" width="9.12" height="9.12" transform="translate(34.06 621.2) rotate(-142.76)"/><rect class="cls-2" x="109.85" y="294.79" width="9.12" height="9.12" transform="translate(24.36 606.9) rotate(-142.76)"/><g id="Corner_Numbers" data-name="Corner Numbers"><g id="Layer_60" data-name="Layer 60"><path id="Elipse_l" class="cls-3" d="M82.61,391.72a9,9,0,1,1,3.7,12.18c-5.79-3.09-8.24-3.27-8.49-4.11S79.55,397.46,82.61,391.72Z"/><text id="Number_l" class="cls-4" transform="translate(86.64 400.67)">1</text></g><g id="Layer_61" data-name="Layer 61"><path id="Elipse_l-2" data-name="Elipse_l" class="cls-3" d="M193.37,471.06a9,9,0,1,1,9.63,8.32c-6.54.47-8.71,1.64-9.36,1.06S193.85,477.54,193.37,471.06Z"/><text id="Number_l-2" data-name="Number_l" class="cls-4" transform="translate(198.57 475.31)">2</text></g><g id="Layer_62" data-name="Layer 62"><path id="Elipse_l-3" data-name="Elipse_l" class="cls-3" d="M241.7,549.74a9,9,0,1,1,11.89,4.52c-6,2.69-7.62,4.53-8.43,4.21S244.36,555.68,241.7,549.74Z"/><text id="Number_l-3" data-name="Number_l" class="cls-4" transform="translate(246.25 551.04)">3</text></g><g id="Layer_63" data-name="Layer 63"><path id="Elipse_l-4" data-name="Elipse_l" class="cls-3" d="M298.49,553.68a9,9,0,1,1,9.84-8.06c-.65,6.53.13,8.86-.55,9.41S305,554.33,298.49,553.68Z"/><text id="Number_l-4" data-name="Number_l" class="cls-4" transform="translate(296.14 549.66)">4</text></g><g id="Layer_64" data-name="Layer 64"><path id="Elipse_l-5" data-name="Elipse_l" class="cls-3" d="M355,542.4a9,9,0,1,1-12.69,1c4.26-5,5-7.35,5.83-7.41S350,538.18,355,542.4Z"/><text id="Number_l-5" data-name="Number_l" class="cls-4" transform="translate(345.62 553.42)">5</text></g><g id="Layer_65" data-name="Layer 65"><path id="Elipse_l-6" data-name="Elipse_l" class="cls-3" d="M419.86,590.45a9,9,0,1,1-3.06-12.35c5.62,3.39,8.06,3.69,8.26,4.54S423.22,584.88,419.86,590.45Z"/><text id="Number_l-6" data-name="Number_l" class="cls-4" transform="translate(409.07 590.31)">6</text></g><g id="Layer_66" data-name="Layer 66"><path id="Elipse_l-7" data-name="Elipse_l" class="cls-3" d="M440.83,599.91a9,9,0,1,1,6.47,11c-6.35-1.64-8.78-1.23-9.22-2S439.21,606.2,440.83,599.91Z"/><text id="Number_l-7" data-name="Number_l" class="cls-4" transform="translate(445.68 606.95)">7</text></g><g id="Layer_67" data-name="Layer 67"><path id="Elipse_l-8" data-name="Elipse_l" class="cls-3" d="M441.39,650.38A9,9,0,1,1,440,637.73c5.11,4.11,7.49,4.74,7.58,5.61S445.46,645.31,441.39,650.38Z"/><text id="Number_l-8" data-name="Number_l" class="cls-4" transform="translate(431.3 649.31)">8</text></g><g id="Layer_68" data-name="Layer 68"><path id="Elipse_l-9" data-name="Elipse_l" class="cls-3" d="M451.6,669.82a9,9,0,1,1,4.14,12c-5.89-2.88-8.35-3-8.63-3.8S448.75,675.66,451.6,669.82Z"/><text id="Number_l-9" data-name="Number_l" class="cls-4" transform="translate(455.79 678.49)">9</text></g><g id="Layer_69" data-name="Layer 69"><path id="Elipse_l-10" data-name="Elipse_l" class="cls-3" d="M492.15,757.29a9,9,0,1,1,7-10.61c1.3,6.42,2.73,8.43,2.24,9.15S498.53,756,492.15,757.29Z"/><text id="Number_l-10" data-name="Number_l" class="cls-4" transform="translate(484 753.31)">10</text></g><g id="Layer_70" data-name="Layer 70"><path id="Elipse_l-11" data-name="Elipse_l" class="cls-3" d="M305.07,644a9,9,0,1,1,10.51,7.18c-6.45,1.21-8.47,2.61-9.19,2.11S306.27,650.43,305.07,644Z"/><text id="Number_l-11" data-name="Number_l" class="cls-4" transform="translate(306.96 647.31)">11</text></g><g id="Layer_71" data-name="Layer 71"><path id="Elipse_l-12" data-name="Elipse_l" class="cls-3" d="M231.68,592.57a9,9,0,1,1-10.36-7.4c6.47-1.07,8.53-2.43,9.23-1.92S230.61,586.16,231.68,592.57Z"/><text id="Number_l-12" data-name="Number_l" class="cls-4" transform="translate(216.35 598.31)">12</text></g><g id="Layer_72" data-name="Layer 72"><path id="Elipse_l-13" data-name="Elipse_l" class="cls-3" d="M87.24,518.77a9,9,0,1,1,6.69,10.83c-6.38-1.51-8.8-1.06-9.25-1.8S85.75,525.1,87.24,518.77Z"/><text id="Number_l-13" data-name="Number_l" class="cls-4" transform="translate(88.93 525.65)">13</text></g><g id="Layer_73" data-name="Layer 73"><path id="Elipse_l-14" data-name="Elipse_l" class="cls-3" d="M54.16,485.56A9,9,0,1,1,48.86,474c6.14,2.29,8.6,2.13,9,2.93S56.42,479.46,54.16,485.56Z"/><text id="Number_l-14" data-name="Number_l" class="cls-4" transform="translate(39.41 486.85)">14</text></g><g id="Layer_74" data-name="Layer 74"><path id="Elipse_l-15" data-name="Elipse_l" class="cls-3" d="M25.51,416.15a9,9,0,1,1,2,12.57c-5.31-3.85-7.72-4.36-7.85-5.22S21.69,421.42,25.51,416.15Z"/><text id="Number_l-15" data-name="Number_l" class="cls-4" transform="translate(25.67 426.08)">15</text></g><g id="Layer_75" data-name="Layer 75"><path id="Elipse_l-16" data-name="Elipse_l" class="cls-3" d="M149.1,210.89a9,9,0,1,1-11.88,4.56c2.66-6,2.66-8.45,3.48-8.75S143.16,208.25,149.1,210.89Z"/><text id="Number_l-16" data-name="Number_l" class="cls-4" transform="translate(138.59 223.31)">16</text></g><g id="Layer_76" data-name="Layer 76"><path id="Elipse_l-17" data-name="Elipse_l" class="cls-3" d="M162.38,188.38a9,9,0,1,1,11.46-5.52c-2.16,6.19-2,8.64-2.75,9S168.52,190.53,162.38,188.38Z"/><text id="Number_l-17" data-name="Number_l" class="cls-4" transform="translate(158.82 184.87)">17</text></g><g id="Layer_77" data-name="Layer 77"><path id="Elipse_l-18" data-name="Elipse_l" class="cls-3" d="M206.06,126.82a9,9,0,1,1-.58-12.71c4.84,4.42,7.18,5.2,7.21,6.07S210.44,122,206.06,126.82Z"/><text id="Number_l-18" data-name="Number_l" class="cls-4" transform="translate(193.13 125.34)">18</text></g><g id="Layer_78" data-name="Layer 78"><path id="Elipse_l-19" data-name="Elipse_l" class="cls-3" d="M222.41,74.28a9,9,0,1,1-1.26,12.66c-4.15-5.07-6.35-6.18-6.26-7S217.38,78.4,222.41,74.28Z"/><text id="Number_l-19" data-name="Number_l" class="cls-4" transform="translate(220.99 85.78)">19</text></g><g id="Layer_79" data-name="Layer 79"><path id="Elipse_l-20" data-name="Elipse_l" class="cls-3" d="M268.82,26.07a9,9,0,1,1-12.73.11c4.6-4.67,5.46-7,6.34-7S264.18,21.51,268.82,26.07Z"/><text id="Number_l-20" data-name="Number_l" class="cls-4" transform="translate(255.82 36.66)">20</text></g><g id="Layer_80" data-name="Layer 80"><path id="Elipse_l-21" data-name="Elipse_l" class="cls-3" d="M440.51,127.23a9,9,0,1,1-3.1-12.35c5.62,3.37,8.07,3.67,8.27,4.51S443.85,121.65,440.51,127.23Z"/><text id="Number_l-21" data-name="Number_l" class="cls-4" transform="translate(426.49 127.11)">21</text></g><g id="Layer_81" data-name="Layer 81"><path id="Elipse_l-22" data-name="Elipse_l" class="cls-3" d="M400,169.13a9,9,0,1,1,12.57-2c-3.87,5.3-4.38,7.71-5.25,7.83S405.29,173,400,169.13Z"/><text id="Number_l-22" data-name="Number_l" class="cls-4" transform="translate(398.69 166.87)">22</text></g><g id="Layer_82" data-name="Layer 82"><path id="Elipse_l-23" data-name="Elipse_l" class="cls-3" d="M343.31,167.81a9,9,0,1,1-12.7.82c4.33-4.92,5.06-7.28,5.93-7.32S338.42,163.52,343.31,167.81Z"/><text id="Number_l-23" data-name="Number_l" class="cls-4" transform="translate(330.65 178.74)">23</text></g><g id="Layer_83" data-name="Layer 83"><path id="Elipse_l-24" data-name="Elipse_l" class="cls-3" d="M302.27,149.64a9,9,0,1,1,12.67-1.11c-4.21,5-4.89,7.39-5.76,7.46S307.25,153.82,302.27,149.64Z"/><text id="Number_l-24" data-name="Number_l" class="cls-4" transform="translate(301.37 147.77)">24</text></g><g id="Layer_84" data-name="Layer 84"><path id="Elipse_l-25" data-name="Elipse_l" class="cls-3" d="M248.89,168.61a9,9,0,1,1-11.28,5.89c2-6.26,1.68-8.7,2.46-9.1S242.68,166.66,248.89,168.61Z"/><text id="Number_l-25" data-name="Number_l" class="cls-4" transform="translate(239.3 181.41)">25</text></g></g></g></g></g></svg>