<svg xmlns="http://www.w3.org/2000/svg" xmlns:xlink="http://www.w3.org/1999/xlink" width="2008.915" height="1985.983" viewBox="0 0 2008.915 1985.983"><defs><style>.\34 31f2f17-55de-4648-bf45-a19f110edb49{fill:#00ff24;}.\34 31f2f17-55de-4648-bf45-a19f110edb49,.adfd863c-1150-43d2-851c-f043a188021f{stroke:#000;stroke-width:5px;}.\30 5405510-6341-444c-aa93-8d2010a64884,.\34 31f2f17-55de-4648-bf45-a19f110edb49,.\39 4668304-5fb7-4b2e-b683-98c8f71b49a3,.adfd863c-1150-43d2-851c-f043a188021f,.c36c2749-69b3-4e98-806f-c5b1c590e6b7,.e0208c9b-ef9e-41f0-9d2c-513275ebe128,.fab247f4-07b5-41e0-8705-9156dfa962f3,.ff192541-46ab-454c-87a3-57cd6130c7e2{stroke-miterlimit:10;}.adfd863c-1150-43d2-851c-f043a188021f{fill:#fff;}.\30 5405510-6341-444c-aa93-8d2010a64884,.\39 4668304-5fb7-4b2e-b683-98c8f71b49a3,.c36c2749-69b3-4e98-806f-c5b1c590e6b7,.e0208c9b-ef9e-41f0-9d2c-513275ebe128,.fab247f4-07b5-41e0-8705-9156dfa962f3,.ff192541-46ab-454c-87a3-57cd6130c7e2{fill:none;}.\39 4668304-5fb7-4b2e-b683-98c8f71b49a3,.c36c2749-69b3-4e98-806f-c5b1c590e6b7,.fab247f4-07b5-41e0-8705-9156dfa962f3{stroke:#c91c1c;}.c36c2749-69b3-4e98-806f-c5b1c590e6b7{stroke-width:27px;}.\39 4668304-5fb7-4b2e-b683-98c8f71b49a3,.e0208c9b-ef9e-41f0-9d2c-513275ebe128{stroke-width:22px;}.e0208c9b-ef9e-41f0-9d2c-513275ebe128,.ff192541-46ab-454c-87a3-57cd6130c7e2{stroke:#0080ff;}.\30 5405510-6341-444c-aa93-8d2010a64884{stroke:#fff;stroke-width:12.5px;}.fab247f4-07b5-41e0-8705-9156dfa962f3,.ff192541-46ab-454c-87a3-57cd6130c7e2{stroke-width:2.2px;}</style><symbol id="958908a9-0a0a-40f1-bffa-5de8d82bbd63" data-name="fd103434-89f2-4089-acf9-54fed79ed404" viewBox="0 0 200 103.617"><rect class="431f2f17-55de-4648-bf45-a19f110edb49" x="2.5" y="54.074" width="195" height="47.043"/><rect class="adfd863c-1150-43d2-851c-f043a188021f" x="2.5" y="2.5" width="48.75" height="48.75"/><rect class="adfd863c-1150-43d2-851c-f043a188021f" x="51.25" y="2.5" width="48.75" height="48.75"/><rect class="adfd863c-1150-43d2-851c-f043a188021f" x="100" y="2.5" width="48.75" height="48.75"/><rect class="adfd863c-1150-43d2-851c-f043a188021f" x="148.75" y="2.5" width="48.75" height="48.75"/></symbol></defs><title>The_North_Loop</title><g id="23f23d2d-31a4-4571-b966-9ad6fc332648" data-name="Layer 2"><g id="f27c1bdb-3db4-420e-9bfe-6f75970a8344" data-name="Broughy1322"><g id="4de4765b-9341-4b86-b79c-c1a888d4e852" data-name="The_North_Loop"><g id="7a41108c-8718-481f-b3d9-2cbc23235b26" data-name="Pitlane Outer"><path id="01d8f280-575c-474a-8f69-a89a6bbeb7e6" data-name="Pitlane Shared Out" class="c36c2749-69b3-4e98-806f-c5b1c590e6b7" d="M1053.536,683.682c.718,13.149-2.816,6.55-.292,17.708"/><path id="0c77f822-6d90-4fba-96f5-8565afe8c642" data-name="Pitlane Shared" class="c36c2749-69b3-4e98-806f-c5b1c590e6b7" d="M1202.119,414.876c-1.25,25.917-1.583,33.361-3.361,45.139a438.442,438.442,0,0,0-4.889,69.333c.5,29.834-.055,78.945-3.777,90.223,0,0-7.056,30.111-26.667,34-15.754,3.123-45.384,1.592-57.333,1.333-29.473-.639-37.231,3.864-42.223,8.222-3.5,3.056-11.722,10.167-10.166,22.556"/><path id="04d57574-ae12-4236-bc41-cd018f1ed369" data-name="Pitlane Shared In" class="c36c2749-69b3-4e98-806f-c5b1c590e6b7" d="M1202.119,415.557c.049-5.872-3.639-16.6-10.472-20.709"/><path id="e10e5e1b-c7d6-413f-abda-cedc8e439218" data-name="Pitlane Outer" class="94668304-5fb7-4b2e-b683-98c8f71b49a3" d="M887.647,391.793c21.556,1.111,31.235,2.225,48.389,7.722,18.722,6,24,12,58,18.333s56.5,6,81.333,3.167,54.111-7.778,70.278-14.111,24.889-13.556,40-10.445,16.7,9.084,16.472,18.417"/></g><path id="cac7acf4-cb95-4654-9011-2fdbf94af437" data-name="Track Outer" class="e0208c9b-ef9e-41f0-9d2c-513275ebe128" d="M1070.869,743.765c-6.5-14.333-19.389-38.806-25.222-53.639s-13.873-28.916-18.778-45.611a43.617,43.617,0,0,1,.667-28.333c2-6,2.333-17.167,2.167-25.834s-7-35.333-11.334-47.333-4.333-19.833-4-28.833.584-18.167-2.333-26.584c-5.653-16.312-14.492-16.968-23.667-18.416-4.75-.75-10.166-.667-24.833-.834-20.333-.231-27.833-10.166-31.833-14.333s-19.334-20.167-25.5-26.333-6.167-9-7.5-17.5.666-13.167-2.5-16.167-18.556-2.444-18.556-2.444c-16.444-1-27,1-36.778,4.222s-22.5,10.555-45.833,23.889-45.5,16.833-53,19.333-28.333,6-33.833,6.333-14.334,3.334-21.834,5.167-32,11-40.833,14-9.833,1.167-26.333,5.167-22.5,8.666-42.5,17-38.167,15.333-44.334,17-16.833,5.333-9.166,19,25.833,15,40.166,14.666,5.667,0,38.334,0,31.666-5.5,62.5-15.666,41.333-10.334,54.5-10,9.666,1.333,46,1.833,53.666,3.5,66.333,7.5,19.833,9.667,28.278,28.111,19.222,24.556,25,27.778,24,10,35.333,14.555,16.111,9,16.556,16.889.333,10.445-1.556,21S922.98,650.459,915.2,656.126,894.98,668.571,884.425,673.9s-30.389,22.944-40.556,32.944-39.555,42.278-51.889,47.167-29.555,4.778-40.666,5.444-13.334,2.556-22.889,8.223-10.889,22.111-11,31.555,7.778,17.778,19.222,28.667,13,14.222,23.556,23.778,30.666,38.222,36.666,54.555.111,22.334-5.444,27-36.889,4.611-50.389,5.778-19.667,10.833-22.833,17.167-1.334,15-6.167,25.666-16,14.334-27.167,20-32.333,7.334-46.333,7.167-23.5-6.833-28-12.333-4.5-9.834-2-18.334,9.667-21,19.667-38.333,10.666-21.667,14.5-32.5a26.994,26.994,0,0,0-4.167-25.833c-4.333-5.5-11.778-8.334-19.778-10.778s-25.333-3.556-37.222-6.222-19.889-8.111-23.444-15.445-1.556-10.444.666-17.555S570.425,809.9,573.2,801.793s-2.445-15.445-7.889-18.778-12.111-1.667-21-.111-13.445,4.667-29.889,7.778-11,1.333-25.222,3-23.556,12.666-30.556,19.666-8.555,18.778-11.667,25.334-8.111,14-32.333,21.777-27,14.223-33.555,18S361.758,905.015,352.98,909.9s-22.444,3-38-.889-20-11.222-24.222-17.111-6.666-20.111-9.555-26.445-5.778-8.777-13.667-13.222A114.039,114.039,0,0,0,233.2,838.793c-16.334-3.556-34.556-5.889-48-5.556s-15.889,1.334-27.556,3.889-20.111,6.667-26.555,12-14.223,15.111-18.223,21.333-3.444,12.556-3,19.334,5.917,15.055,10.584,22.472,17.333,22.667,24.25,28.333,12.389,11.306,19.611,19.2,14.778,23.333,17.444,30.333,4.111,12.445,3,16.889-4.111,11.222-15.111,17-14.194,12-17.278,16.167-3.055,13.055-3.944,25.055-4.333,14.111-11.889,19.667-14.556,5.222-28.556,4.889-24.888,2.111-29.555,3.889-8.667,2.444-17.889,7.444S46.2,1110.348,41.2,1117.848s-11.5,24.5-16.334,34-4.5,22.834-4,30.834,5.167,12.166,4.667,22-7.111,19.555-11.333,25.889S9.092,1244.9,16.758,1249.9s10.778,8.889,13.778,17.778,5.444,24.777,6.333,44.333,1,29.833.5,46.833-3.166,50.167-4.833,71.5-1.222,31.556-1.778,49.223,3.667,54.333,4.556,66.666,2.444,40.889,4.778,46.667,5.111,11.778,12.111,18,8.833,7.111,25.166,16.944,35.334,15.167,54.834,22.334,64.889,14.055,80.222,16.611,54.222,7,68.555,8.555,19.667,4.667,34.112,2.556,25.222-13.778,37.444-29,19-18.889,26-20.111,15.222,1.889,24.778,7.666,24.222,22.223,36.333,35.778,17.556,22.889,28.667,36.334,25.222,23.333,34.333,28.666,29.445,11.556,41.222,13.334,26.334,4.666,33.445,10.555,11.333,10.445,14.889,27.556,1.222,31.111.666,46.333-6.555,46.222-8.333,65.778-2,24.111-1.667,37.555,3.556,22.111,9.667,29.778,13.889,7.667,24.556,5.889,17.555-6,29.555-12.444,30.445-21.445,37-25.778,34.556-29.445,42.111-35.889,27.778-26.222,37.111-34.889,18.167-12.667,29-13.75,24.334,5,28.834,8.417,11.047,8.825,17.277,6.333c4.445-1.778,7.077-4.968,15.612-14.667,7.333-8.333,16.944-25.333,30.944-47.555s35.778-81.111,43.778-102.889,19.055-62.056,21.389-76.722,3-38,1.166-48.5-4.833-22.667-8-36.167-3.333-46.5.167-67.833,6.167-40.334,14.5-65,20.167-33.834,27.5-44,38.5-38.334,53-52.167,26-35.667,31.5-47.333,11.667-54,12.333-68.167-2.166-19-3.5-30.167-14.5-50.833-19-62.666-4.166-15.834-5.833-31.5,6.667-38.5,12.167-47.5,28.666-50.834,34.5-62.334,19.833-40.333,23.833-55.166,6.833-30.5,7.333-36.5.167-12.5-5-24.834-12.055-22.111-15.611-27.889-27.333-48.666-36.444-66a192.485,192.485,0,0,1-19.556-53.777c-4.666-21.778,2-26.667,9.111-33.556s21.111-8.444,42.223-8.222,42,1.555,57.333-1.333,22.667-20.667,26.667-34,4-58.667,3.777-90.223,2.889-58,4.889-69.333c.938-5.316,1.779-15.227,2.406-25.331.711-11.438,1.15-23.123,1.15-28.669,0-10.444-1.556-16.889,4.889-23.778s27.111-26,50.666-50.889,65.778-68.444,88.445-88.889,36.666-33.111,52.222-47.111,18.167-16.166,52-43.833,68.167-40.5,79.333-45.167,31.834-6.5,47.667-3.833,32.5,5.333,55.667,5,22-2,47.666-8,68-30.833,80.167-37.167,53.833-35.166,78.167-44.5,48.889-7.611,67.555-3.722,41.445,5,60,8.333,27.361,15.389,29.695,21.556,2.527,19.889-4.361,25.444-14.223,7.334-30.445,17.112-34.444,29.222-50.444,48.111-14.223,43.333-7.334,68.666,21.111,52.445,21.778,68.445.889,24.389-8.444,46.222-24.778,32.556-39.889,39.333-58.945,21.167-80.778,34.5-21.167,32.834-20.167,45.5,1,24.334-8.166,35.167c-5.393,6.374-14.053,13.989-25.167,22.833-7.776,6.189-22.333,17.334-30.167,26.167-15.576,17.565-16.833,32-11.833,43.833s22.5,31.167,33.333,46.5,7.167,32.834,2.334,39.834-5,8.5-25.334,26.666-29.333,29.334-34,49.334,9.229,38.749,15.5,45.111c2.107,2.137,14.032,10.815,30.556,20.333,13.889,8,31.172,16.786,38.778,20.889,16.889,9.111,39,24.333,38.666,44.333s-9.5,25.5-15.5,33.834-30.166,22.666-43.166,30-37.834,19.166-45.834,28-6.611,11.944-21.166,22.611c-10.875,7.969-21.229,15.427-27.778,21a196.793,196.793,0,0,0-20.556,20.555c-14.17,16.1-19.833,31.167-19.666,39s3,11.223,12,19.223a62.894,62.894,0,0,0,37.555,15.222c15.445,1,35.111,2.444,51.778,11.111s24.333,28.778,25.667,40.111,3,38-5.334,56-20.75,39.583-25.666,56c-2.053,6.855-5.185,25.761-6.667,46.444-1.241,17.332-4.444,35.556-4.889,50.889-.441,15.22-.367,37.109,3.722,55,4,17.5,18.067,37,22.167,60.167,1.111,6.278,2.217,13.318,2.961,20.981.817,8.408,2.485,16.956,3.372,23.852,2.167,16.834,7.927,26.331,12.334,33,6.166,9.334,18.666,20,31.333,32s16,20.334,17.333,31.334-1.128,22.355-10.333,51.333c-6,18.889-8.472,29.7-6.222,41.556,0,0,5.666,14.222-8.334,18.666s-50.888,17-59,19.222-31.527,9.806-50.611-3.611-30.083-40.416-34-55.416-12.5-42.75-14.277-52.084-6-38-10.667-45.444-9.333-16.667-24.556-24.778-24.5-12.778-45.166-14.444-24.167-3.334-41.167-.834-33.833,9.167-45,16.334-24,19.944-29.111,30.722-10.389,22.444-13.389,36.278-9.333,36.666-10.833,44.166a348.452,348.452,0,0,0-4.5,39.5c-.5,12-3.5,34-15.334,42.5s-9.611,8.111-19.611,12.778-35.333,15-43.111,24.778-9.028,10.194-14.444,21.778-18.5,33-23.667,44.166-18,36.334-23.167,44.667-20.166,26.667-30.5,29.5-20.777,10-40.444,6.333-39-20.444-46.445-38.111-10.944-26.389-14.277-40.222-10.334-52.333-15.334-60.5-7.835-21.308-32.611-32.167c0,0-25.889-11.666-52.055-23.166s-61.611-26.611-67.056-28.834-11.861-7.354-7.371-20"/><path id="741c1ae7-a8e2-4053-a332-1a049675b082" data-name="Track Middle" class="05405510-6341-444c-aa93-8d2010a64884" d="M1070.869,743.765c-6.5-14.333-19.389-38.806-25.222-53.639s-13.873-28.916-18.778-45.611a43.617,43.617,0,0,1,.667-28.333c2-6,2.333-17.167,2.167-25.834s-7-35.333-11.334-47.333-4.333-19.833-4-28.833.584-18.167-2.333-26.584c-5.653-16.312-14.492-16.968-23.667-18.416-4.75-.75-10.166-.667-24.833-.834-20.333-.231-27.833-10.166-31.833-14.333s-19.334-20.167-25.5-26.333-6.167-9-7.5-17.5.666-13.167-2.5-16.167-18.556-2.444-18.556-2.444c-16.444-1-27,1-36.778,4.222s-22.5,10.555-45.833,23.889-45.5,16.833-53,19.333-28.333,6-33.833,6.333-14.334,3.334-21.834,5.167-32,11-40.833,14-9.833,1.167-26.333,5.167-22.5,8.666-42.5,17-38.167,15.333-44.334,17-16.833,5.333-9.166,19,25.833,15,40.166,14.666,5.667,0,38.334,0,31.666-5.5,62.5-15.666,41.333-10.334,54.5-10,9.666,1.333,46,1.833,53.666,3.5,66.333,7.5,19.833,9.667,28.278,28.111,19.222,24.556,25,27.778,24,10,35.333,14.555,16.111,9,16.556,16.889.333,10.445-1.556,21S922.98,650.459,915.2,656.126,894.98,668.571,884.425,673.9s-30.389,22.944-40.556,32.944-39.555,42.278-51.889,47.167-29.555,4.778-40.666,5.444-13.334,2.556-22.889,8.223-10.889,22.111-11,31.555,7.778,17.778,19.222,28.667,13,14.222,23.556,23.778,30.666,38.222,36.666,54.555.111,22.334-5.444,27-36.889,4.611-50.389,5.778-19.667,10.833-22.833,17.167-1.334,15-6.167,25.666-16,14.334-27.167,20-32.333,7.334-46.333,7.167-23.5-6.833-28-12.333-4.5-9.834-2-18.334,9.667-21,19.667-38.333,10.666-21.667,14.5-32.5a26.994,26.994,0,0,0-4.167-25.833c-4.333-5.5-11.778-8.334-19.778-10.778s-25.333-3.556-37.222-6.222-19.889-8.111-23.444-15.445-1.556-10.444.666-17.555S570.425,809.9,573.2,801.793s-2.445-15.445-7.889-18.778-12.111-1.667-21-.111-13.445,4.667-29.889,7.778-11,1.333-25.222,3-23.556,12.666-30.556,19.666-8.555,18.778-11.667,25.334-8.111,14-32.333,21.777-27,14.223-33.555,18S361.758,905.015,352.98,909.9s-22.444,3-38-.889-20-11.222-24.222-17.111-6.666-20.111-9.555-26.445-5.778-8.777-13.667-13.222A114.039,114.039,0,0,0,233.2,838.793c-16.334-3.556-34.556-5.889-48-5.556s-15.889,1.334-27.556,3.889-20.111,6.667-26.555,12-14.223,15.111-18.223,21.333-3.444,12.556-3,19.334,5.917,15.055,10.584,22.472,17.333,22.667,24.25,28.333,12.389,11.306,19.611,19.2,14.778,23.333,17.444,30.333,4.111,12.445,3,16.889-4.111,11.222-15.111,17-14.194,12-17.278,16.167-3.055,13.055-3.944,25.055-4.333,14.111-11.889,19.667-14.556,5.222-28.556,4.889-24.888,2.111-29.555,3.889-8.667,2.444-17.889,7.444S46.2,1110.348,41.2,1117.848s-11.5,24.5-16.334,34-4.5,22.834-4,30.834,5.167,12.166,4.667,22-7.111,19.555-11.333,25.889S9.092,1244.9,16.758,1249.9s10.778,8.889,13.778,17.778,5.444,24.777,6.333,44.333,1,29.833.5,46.833-3.166,50.167-4.833,71.5-1.222,31.556-1.778,49.223,3.667,54.333,4.556,66.666,2.444,40.889,4.778,46.667,5.111,11.778,12.111,18,8.833,7.111,25.166,16.944,35.334,15.167,54.834,22.334,64.889,14.055,80.222,16.611,54.222,7,68.555,8.555,19.667,4.667,34.112,2.556,25.222-13.778,37.444-29,19-18.889,26-20.111,15.222,1.889,24.778,7.666,24.222,22.223,36.333,35.778,17.556,22.889,28.667,36.334,25.222,23.333,34.333,28.666,29.445,11.556,41.222,13.334,26.334,4.666,33.445,10.555,11.333,10.445,14.889,27.556,1.222,31.111.666,46.333-6.555,46.222-8.333,65.778-2,24.111-1.667,37.555,3.556,22.111,9.667,29.778,13.889,7.667,24.556,5.889,17.555-6,29.555-12.444,30.445-21.445,37-25.778,34.556-29.445,42.111-35.889,27.778-26.222,37.111-34.889,18.167-12.667,29-13.75,24.334,5,28.834,8.417,11.047,8.825,17.277,6.333c4.445-1.778,7.077-4.968,15.612-14.667,7.333-8.333,16.944-25.333,30.944-47.555s35.778-81.111,43.778-102.889,19.055-62.056,21.389-76.722,3-38,1.166-48.5-4.833-22.667-8-36.167-3.333-46.5.167-67.833,6.167-40.334,14.5-65,20.167-33.834,27.5-44,38.5-38.334,53-52.167,26-35.667,31.5-47.333,11.667-54,12.333-68.167-2.166-19-3.5-30.167-14.5-50.833-19-62.666-4.166-15.834-5.833-31.5,6.667-38.5,12.167-47.5,28.666-50.834,34.5-62.334,19.833-40.333,23.833-55.166,6.833-30.5,7.333-36.5.167-12.5-5-24.834-12.055-22.111-15.611-27.889-27.333-48.666-36.444-66a192.485,192.485,0,0,1-19.556-53.777c-4.666-21.778,2-26.667,9.111-33.556s21.111-8.444,42.223-8.222,42,1.555,57.333-1.333,22.667-20.667,26.667-34,4-58.667,3.777-90.223,2.889-58,4.889-69.333c.938-5.316,1.779-15.227,2.406-25.331.711-11.438,1.15-23.123,1.15-28.669,0-10.444-1.556-16.889,4.889-23.778s27.111-26,50.666-50.889,65.778-68.444,88.445-88.889,36.666-33.111,52.222-47.111,18.167-16.166,52-43.833,68.167-40.5,79.333-45.167,31.834-6.5,47.667-3.833,32.5,5.333,55.667,5,22-2,47.666-8,68-30.833,80.167-37.167,53.833-35.166,78.167-44.5,48.889-7.611,67.555-3.722,41.445,5,60,8.333,27.361,15.389,29.695,21.556,2.527,19.889-4.361,25.444-14.223,7.334-30.445,17.112-34.444,29.222-50.444,48.111-14.223,43.333-7.334,68.666,21.111,52.445,21.778,68.445.889,24.389-8.444,46.222-24.778,32.556-39.889,39.333-58.945,21.167-80.778,34.5-21.167,32.834-20.167,45.5,1,24.334-8.166,35.167c-5.393,6.374-14.053,13.989-25.167,22.833-7.776,6.189-22.333,17.334-30.167,26.167-15.576,17.565-16.833,32-11.833,43.833s22.5,31.167,33.333,46.5,7.167,32.834,2.334,39.834-5,8.5-25.334,26.666-29.333,29.334-34,49.334,9.229,38.749,15.5,45.111c2.107,2.137,14.032,10.815,30.556,20.333,13.889,8,31.172,16.786,38.778,20.889,16.889,9.111,39,24.333,38.666,44.333s-9.5,25.5-15.5,33.834-30.166,22.666-43.166,30-37.834,19.166-45.834,28-6.611,11.944-21.166,22.611c-10.875,7.969-21.229,15.427-27.778,21a196.793,196.793,0,0,0-20.556,20.555c-14.17,16.1-19.833,31.167-19.666,39s3,11.223,12,19.223a62.894,62.894,0,0,0,37.555,15.222c15.445,1,35.111,2.444,51.778,11.111s24.333,28.778,25.667,40.111,3,38-5.334,56-20.75,39.583-25.666,56c-2.053,6.855-5.185,25.761-6.667,46.444-1.241,17.332-4.444,35.556-4.889,50.889-.441,15.22-.367,37.109,3.722,55,4,17.5,18.067,37,22.167,60.167,1.111,6.278,2.217,13.318,2.961,20.981.817,8.408,2.485,16.956,3.372,23.852,2.167,16.834,7.927,26.331,12.334,33,6.166,9.334,18.666,20,31.333,32s16,20.334,17.333,31.334-1.128,22.355-10.333,51.333c-6,18.889-8.472,29.7-6.222,41.556,0,0,5.666,14.222-8.334,18.666s-50.888,17-59,19.222-31.527,9.806-50.611-3.611-30.083-40.416-34-55.416-12.5-42.75-14.277-52.084-6-38-10.667-45.444-9.333-16.667-24.556-24.778-24.5-12.778-45.166-14.444-24.167-3.334-41.167-.834-33.833,9.167-45,16.334-24,19.944-29.111,30.722-10.389,22.444-13.389,36.278-9.333,36.666-10.833,44.166a348.452,348.452,0,0,0-4.5,39.5c-.5,12-3.5,34-15.334,42.5s-9.611,8.111-19.611,12.778-35.333,15-43.111,24.778-9.028,10.194-14.444,21.778-18.5,33-23.667,44.166-18,36.334-23.167,44.667-20.166,26.667-30.5,29.5-20.777,10-40.444,6.333-39-20.444-46.445-38.111-10.944-26.389-14.277-40.222-10.334-52.333-15.334-60.5-7.835-21.308-32.611-32.167c0,0-25.889-11.666-52.055-23.166s-61.611-26.611-67.056-28.834-11.861-7.354-7.371-20"/><path id="cb1ca7e8-4cd3-47db-abcd-c676ae607e5f" data-name="Pitlane Middle" class="05405510-6341-444c-aa93-8d2010a64884" d="M887.647,391.793c21.556,1.111,31.235,2.225,48.389,7.722,18.722,6,24,12,58,18.333s56.5,6,81.333,3.167,54.111-7.778,70.278-14.111,24.889-13.556,40-10.445,16.7,9.084,16.472,18.417"/><path id="3e0bbde8-07c2-4938-bf3e-9ce72769c5d9" data-name="Pitlane Inner" class="fab247f4-07b5-41e0-8705-9156dfa962f3" d="M887.647,391.793c21.556,1.111,31.235,2.225,48.389,7.722,18.722,6,24,12,58,18.333s56.5,6,81.333,3.167,54.111-7.778,70.278-14.111,24.889-13.556,40-10.445,16.7,9.084,16.472,18.417"/><path id="b0bce457-95e1-4d06-b502-cca4b74b3891" data-name="Track Inner" class="ff192541-46ab-454c-87a3-57cd6130c7e2" d="M1070.869,743.765c-6.5-14.333-19.389-38.806-25.222-53.639s-13.873-28.916-18.778-45.611a43.617,43.617,0,0,1,.667-28.333c2-6,2.333-17.167,2.167-25.834s-7-35.333-11.334-47.333-4.333-19.833-4-28.833.584-18.167-2.333-26.584c-5.653-16.312-14.492-16.968-23.667-18.416-4.75-.75-10.166-.667-24.833-.834-20.333-.231-27.833-10.166-31.833-14.333s-19.334-20.167-25.5-26.333-6.167-9-7.5-17.5.666-13.167-2.5-16.167-18.556-2.444-18.556-2.444c-16.444-1-27,1-36.778,4.222s-22.5,10.555-45.833,23.889-45.5,16.833-53,19.333-28.333,6-33.833,6.333-14.334,3.334-21.834,5.167-32,11-40.833,14-9.833,1.167-26.333,5.167-22.5,8.666-42.5,17-38.167,15.333-44.334,17-16.833,5.333-9.166,19,25.833,15,40.166,14.666,5.667,0,38.334,0,31.666-5.5,62.5-15.666,41.333-10.334,54.5-10,9.666,1.333,46,1.833,53.666,3.5,66.333,7.5,19.833,9.667,28.278,28.111,19.222,24.556,25,27.778,24,10,35.333,14.555,16.111,9,16.556,16.889.333,10.445-1.556,21S922.98,650.459,915.2,656.126,894.98,668.571,884.425,673.9s-30.389,22.944-40.556,32.944-39.555,42.278-51.889,47.167-29.555,4.778-40.666,5.444-13.334,2.556-22.889,8.223-10.889,22.111-11,31.555,7.778,17.778,19.222,28.667,13,14.222,23.556,23.778,30.666,38.222,36.666,54.555.111,22.334-5.444,27-36.889,4.611-50.389,5.778-19.667,10.833-22.833,17.167-1.334,15-6.167,25.666-16,14.334-27.167,20-32.333,7.334-46.333,7.167-23.5-6.833-28-12.333-4.5-9.834-2-18.334,9.667-21,19.667-38.333,10.666-21.667,14.5-32.5a26.994,26.994,0,0,0-4.167-25.833c-4.333-5.5-11.778-8.334-19.778-10.778s-25.333-3.556-37.222-6.222-19.889-8.111-23.444-15.445-1.556-10.444.666-17.555S570.425,809.9,573.2,801.793s-2.445-15.445-7.889-18.778-12.111-1.667-21-.111-13.445,4.667-29.889,7.778-11,1.333-25.222,3-23.556,12.666-30.556,19.666-8.555,18.778-11.667,25.334-8.111,14-32.333,21.777-27,14.223-33.555,18S361.758,905.015,352.98,909.9s-22.444,3-38-.889-20-11.222-24.222-17.111-6.666-20.111-9.555-26.445-5.778-8.777-13.667-13.222A114.039,114.039,0,0,0,233.2,838.793c-16.334-3.556-34.556-5.889-48-5.556s-15.889,1.334-27.556,3.889-20.111,6.667-26.555,12-14.223,15.111-18.223,21.333-3.444,12.556-3,19.334,5.917,15.055,10.584,22.472,17.333,22.667,24.25,28.333,12.389,11.306,19.611,19.2,14.778,23.333,17.444,30.333,4.111,12.445,3,16.889-4.111,11.222-15.111,17-14.194,12-17.278,16.167-3.055,13.055-3.944,25.055-4.333,14.111-11.889,19.667-14.556,5.222-28.556,4.889-24.888,2.111-29.555,3.889-8.667,2.444-17.889,7.444S46.2,1110.348,41.2,1117.848s-11.5,24.5-16.334,34-4.5,22.834-4,30.834,5.167,12.166,4.667,22-7.111,19.555-11.333,25.889S9.092,1244.9,16.758,1249.9s10.778,8.889,13.778,17.778,5.444,24.777,6.333,44.333,1,29.833.5,46.833-3.166,50.167-4.833,71.5-1.222,31.556-1.778,49.223,3.667,54.333,4.556,66.666,2.444,40.889,4.778,46.667,5.111,11.778,12.111,18,8.833,7.111,25.166,16.944,35.334,15.167,54.834,22.334,64.889,14.055,80.222,16.611,54.222,7,68.555,8.555,19.667,4.667,34.112,2.556,25.222-13.778,37.444-29,19-18.889,26-20.111,15.222,1.889,24.778,7.666,24.222,22.223,36.333,35.778,17.556,22.889,28.667,36.334,25.222,23.333,34.333,28.666,29.445,11.556,41.222,13.334,26.334,4.666,33.445,10.555,11.333,10.445,14.889,27.556,1.222,31.111.666,46.333-6.555,46.222-8.333,65.778-2,24.111-1.667,37.555,3.556,22.111,9.667,29.778,13.889,7.667,24.556,5.889,17.555-6,29.555-12.444,30.445-21.445,37-25.778,34.556-29.445,42.111-35.889,27.778-26.222,37.111-34.889,18.167-12.667,29-13.75,24.334,5,28.834,8.417,11.047,8.825,17.277,6.333c4.445-1.778,7.077-4.968,15.612-14.667,7.333-8.333,16.944-25.333,30.944-47.555s35.778-81.111,43.778-102.889,19.055-62.056,21.389-76.722,3-38,1.166-48.5-4.833-22.667-8-36.167-3.333-46.5.167-67.833,6.167-40.334,14.5-65,20.167-33.834,27.5-44,38.5-38.334,53-52.167,26-35.667,31.5-47.333,11.667-54,12.333-68.167-2.166-19-3.5-30.167-14.5-50.833-19-62.666-4.166-15.834-5.833-31.5,6.667-38.5,12.167-47.5,28.666-50.834,34.5-62.334,19.833-40.333,23.833-55.166,6.833-30.5,7.333-36.5.167-12.5-5-24.834-12.055-22.111-15.611-27.889-27.333-48.666-36.444-66a192.485,192.485,0,0,1-19.556-53.777c-4.666-21.778,2-26.667,9.111-33.556s21.111-8.444,42.223-8.222,42,1.555,57.333-1.333,22.667-20.667,26.667-34,4-58.667,3.777-90.223,2.889-58,4.889-69.333c.938-5.316,1.779-15.227,2.406-25.331.711-11.438,1.15-23.123,1.15-28.669,0-10.444-1.556-16.889,4.889-23.778s27.111-26,50.666-50.889,65.778-68.444,88.445-88.889,36.666-33.111,52.222-47.111,18.167-16.166,52-43.833,68.167-40.5,79.333-45.167,31.834-6.5,47.667-3.833,32.5,5.333,55.667,5,22-2,47.666-8,68-30.833,80.167-37.167,53.833-35.166,78.167-44.5,48.889-7.611,67.555-3.722,41.445,5,60,8.333,27.361,15.389,29.695,21.556,2.527,19.889-4.361,25.444-14.223,7.334-30.445,17.112-34.444,29.222-50.444,48.111-14.223,43.333-7.334,68.666,21.111,52.445,21.778,68.445.889,24.389-8.444,46.222-24.778,32.556-39.889,39.333-58.945,21.167-80.778,34.5-21.167,32.834-20.167,45.5,1,24.334-8.166,35.167c-5.393,6.374-14.053,13.989-25.167,22.833-7.776,6.189-22.333,17.334-30.167,26.167-15.576,17.565-16.833,32-11.833,43.833s22.5,31.167,33.333,46.5,7.167,32.834,2.334,39.834-5,8.5-25.334,26.666-29.333,29.334-34,49.334,9.229,38.749,15.5,45.111c2.107,2.137,14.032,10.815,30.556,20.333,13.889,8,31.172,16.786,38.778,20.889,16.889,9.111,39,24.333,38.666,44.333s-9.5,25.5-15.5,33.834-30.166,22.666-43.166,30-37.834,19.166-45.834,28-6.611,11.944-21.166,22.611c-10.875,7.969-21.229,15.427-27.778,21a196.793,196.793,0,0,0-20.556,20.555c-14.17,16.1-19.833,31.167-19.666,39s3,11.223,12,19.223a62.894,62.894,0,0,0,37.555,15.222c15.445,1,35.111,2.444,51.778,11.111s24.333,28.778,25.667,40.111,3,38-5.334,56-20.75,39.583-25.666,56c-2.053,6.855-5.185,25.761-6.667,46.444-1.241,17.332-4.444,35.556-4.889,50.889-.441,15.22-.367,37.109,3.722,55,4,17.5,18.067,37,22.167,60.167,1.111,6.278,2.217,13.318,2.961,20.981.817,8.408,2.485,16.956,3.372,23.852,2.167,16.834,7.927,26.331,12.334,33,6.166,9.334,18.666,20,31.333,32s16,20.334,17.333,31.334-1.128,22.355-10.333,51.333c-6,18.889-8.472,29.7-6.222,41.556,0,0,5.666,14.222-8.334,18.666s-50.888,17-59,19.222-31.527,9.806-50.611-3.611-30.083-40.416-34-55.416-12.5-42.75-14.277-52.084-6-38-10.667-45.444-9.333-16.667-24.556-24.778-24.5-12.778-45.166-14.444-24.167-3.334-41.167-.834-33.833,9.167-45,16.334-24,19.944-29.111,30.722-10.389,22.444-13.389,36.278-9.333,36.666-10.833,44.166a348.452,348.452,0,0,0-4.5,39.5c-.5,12-3.5,34-15.334,42.5s-9.611,8.111-19.611,12.778-35.333,15-43.111,24.778-9.028,10.194-14.444,21.778-18.5,33-23.667,44.166-18,36.334-23.167,44.667-20.166,26.667-30.5,29.5-20.777,10-40.444,6.333-39-20.444-46.445-38.111-10.944-26.389-14.277-40.222-10.334-52.333-15.334-60.5-7.835-21.308-32.611-32.167c0,0-25.889-11.666-52.055-23.166s-61.611-26.611-67.056-28.834-11.861-7.354-7.371-20"/><use id="238ece26-f8b4-4c2f-b063-033d651924c5" data-name="Start-Finish-Line" width="200" height="103.617" transform="matrix(-0.083, -0.274, 0.274, -0.083, 749.637, 467.016)" xlink:href="#958908a9-0a0a-40f1-bffa-5de8d82bbd63"/></g></g></g></svg>