<svg xmlns="http://www.w3.org/2000/svg" xmlns:xlink="http://www.w3.org/1999/xlink" width="1121.466" height="1944.37" viewBox="0 0 1121.466 1944.37"><defs><style>.\30 8fbc77f-60e2-487d-b607-9f35d84fd03d{fill:#00ff24;}.\30 8fbc77f-60e2-487d-b607-9f35d84fd03d,.a008366c-2044-4317-8bb5-c05ded50eee9{stroke:#000;stroke-width:5px;}.\30 8fbc77f-60e2-487d-b607-9f35d84fd03d,.\30 d31966d-05b0-4b3c-9390-53b86d737c61,.\33 0e6d75a-8ad5-4004-a1ee-71ec7f2e4bb5,.\36 6fdd83a-3bb5-4e52-b863-18c94d428e20,.\36 fe9a414-8a27-4d70-984a-9b512300762b,.\38 c60d6e8-197b-454f-9168-64ee488c3dd9,.a008366c-2044-4317-8bb5-c05ded50eee9{stroke-miterlimit:10;}.a008366c-2044-4317-8bb5-c05ded50eee9{fill:#fff;}.\30 d31966d-05b0-4b3c-9390-53b86d737c61,.\33 0e6d75a-8ad5-4004-a1ee-71ec7f2e4bb5,.\36 6fdd83a-3bb5-4e52-b863-18c94d428e20,.\36 fe9a414-8a27-4d70-984a-9b512300762b,.\38 c60d6e8-197b-454f-9168-64ee488c3dd9{fill:none;}.\30 d31966d-05b0-4b3c-9390-53b86d737c61,.\33 0e6d75a-8ad5-4004-a1ee-71ec7f2e4bb5{stroke:#c91c1c;}.\33 0e6d75a-8ad5-4004-a1ee-71ec7f2e4bb5,.\38 c60d6e8-197b-454f-9168-64ee488c3dd9{stroke-width:22px;}.\36 6fdd83a-3bb5-4e52-b863-18c94d428e20,.\38 c60d6e8-197b-454f-9168-64ee488c3dd9{stroke:#0080ff;}.\36 fe9a414-8a27-4d70-984a-9b512300762b{stroke:#fff;stroke-width:12.5px;}.\30 d31966d-05b0-4b3c-9390-53b86d737c61,.\36 6fdd83a-3bb5-4e52-b863-18c94d428e20{stroke-width:2.2px;}</style><symbol id="d8379b20-345d-4f3c-a717-615603d4327e" data-name="fd103434-89f2-4089-acf9-54fed79ed404" viewBox="0 0 200 103.617"><rect class="08fbc77f-60e2-487d-b607-9f35d84fd03d" x="2.5" y="54.074" width="195" height="47.043"/><rect class="a008366c-2044-4317-8bb5-c05ded50eee9" x="2.5" y="2.5" width="48.75" height="48.75"/><rect class="a008366c-2044-4317-8bb5-c05ded50eee9" x="51.25" y="2.5" width="48.75" height="48.75"/><rect class="a008366c-2044-4317-8bb5-c05ded50eee9" x="100" y="2.5" width="48.75" height="48.75"/><rect class="a008366c-2044-4317-8bb5-c05ded50eee9" x="148.75" y="2.5" width="48.75" height="48.75"/></symbol></defs><title>The_North_Loop_East</title><g id="c1a579d6-af17-4cec-b02f-202afb6d23f1" data-name="Layer 2"><g id="eb117d70-86a8-4791-831a-f62b8a150139" data-name="Broughy1322"><g id="ffed97b5-42d5-4ddd-b785-3050a1b7da79" data-name="The_North_Loop_East"><path id="6a405912-beac-4e46-a734-c6cd89179f7f" data-name="Pitlane Outer" class="30e6d75a-8ad5-4004-a1ee-71ec7f2e4bb5" d="M319.754,382.237c-7.319,5.844-18.722,9.222-26.056,12.222-8.683,3.553-19.944,7.889-35.5,13-16.495,5.42-45.444,10.723-70.277,13.556s-47.757,5.108-81.556-2.222c-23.056-5-37.778-11.611-45.9-14.528-8.923-3.2-23.271-8.031-23.271-8.031-8.1-2.136-13.312-3.844-19.187-.969-3.918,1.917-8.083,6.417-6.75,14.917s1.333,11.333,7.5,17.5,21.5,22.166,25.5,26.333,11.5,14.1,31.833,14.333c14.667.167,20.084.084,24.834.834,9.174,1.448,18.014,2.1,23.666,18.416,2.917,8.417,2.667,17.584,2.334,26.584s-.334,16.833,4,28.833,11.166,38.667,11.333,47.333-.325,19.783-2.167,25.834c-1.75,5.75-3.5,18.055-2,23.722a268.9,268.9,0,0,0,9.667,27.111c3.417,8,7.833,17.75,11.75,24.417s9.057,12,11.083,18.729"/><path id="e6345ff6-993a-47dd-b697-51bd1621d7b8" data-name="Track Outer" class="8c60d6e8-197b-454f-9168-64ee488c3dd9" d="M44.827,1689.348c-4.49,12.646,1.927,17.778,7.371,20s40.889,17.334,67.056,28.834,52.055,23.166,52.055,23.166c24.776,10.859,27.612,24,32.612,32.167s12,46.667,15.333,60.5,6.833,22.556,14.278,40.222,26.777,34.445,46.444,38.111,30.111-3.5,40.445-6.333,25.333-21.167,30.5-29.5,18-33.5,23.166-44.667,18.25-32.583,23.667-44.166,6.667-12,14.444-21.778,33.111-20.111,43.111-24.778,7.778-4.278,19.612-12.778,14.833-30.5,15.333-42.5a348.452,348.452,0,0,1,4.5-39.5c1.5-7.5,7.833-30.333,10.833-44.166s8.278-25.5,13.389-36.278,17.945-23.556,29.111-30.722,28-13.834,45-16.334,20.5-.833,41.167.834,29.944,6.333,45.167,14.444,19.888,17.333,24.555,24.778,8.889,36.111,10.667,45.444,10.361,37.084,14.278,52.084,14.916,42,34,55.416,42.5,5.834,50.611,3.611,45-14.777,59-19.222,8.333-18.666,8.333-18.666c-2.25-11.851.222-22.667,6.222-41.556,9.205-28.978,11.667-40.333,10.334-51.333s-4.667-19.334-17.334-31.334-25.166-22.666-31.333-32c-4.406-6.669-10.167-16.166-12.333-33-.888-6.9-2.556-15.444-3.373-23.852-.744-7.663-1.85-14.7-2.961-20.981-4.1-23.165-18.166-42.667-22.166-60.167-4.09-17.891-4.164-39.78-3.723-55,.445-15.333,3.648-33.557,4.889-50.889,1.482-20.683,4.614-39.589,6.667-46.444,4.917-16.417,17.333-38,25.667-56s6.666-44.667,5.333-56-9-31.444-25.667-40.111-36.333-10.111-51.778-11.111a62.894,62.894,0,0,1-37.555-15.222c-9-8-11.833-11.389-12-19.223s5.5-22.9,19.667-39a196.693,196.693,0,0,1,20.555-20.555c6.549-5.573,16.9-13.031,27.778-21,14.555-10.667,13.167-13.778,21.167-22.611s32.833-20.667,45.833-28,37.167-21.667,43.167-30,15.166-13.834,15.5-33.834-21.778-35.222-38.667-44.333c-7.606-4.1-24.889-12.889-38.778-20.889-16.524-9.518-28.448-18.2-30.555-20.333-6.272-6.362-20.167-25.111-15.5-45.111s13.666-31.167,34-49.334,20.5-19.666,25.333-26.666,8.5-24.5-2.333-39.834-28.334-34.666-33.334-46.5-3.743-26.268,11.834-43.833c7.833-8.833,22.39-19.978,30.166-26.167,11.114-8.844,19.774-16.459,25.167-22.833,9.167-10.833,9.167-22.5,8.167-35.167s-1.667-32.166,20.166-45.5,65.667-27.722,80.778-34.5,30.556-17.5,39.889-39.333,9.111-30.222,8.444-46.222-14.889-43.111-21.777-68.445-8.667-49.777,7.333-68.666,34.222-38.334,50.444-48.111,23.556-11.556,30.445-17.112,6.694-19.277,4.361-25.444-11.139-18.222-29.695-21.556-41.333-4.444-60-8.333-43.222-5.611-67.555,3.722-66,38.167-78.167,44.5-54.5,31.167-80.166,37.167-24.5,7.667-47.667,8-39.833-2.333-55.667-5-36.5-.833-47.666,3.833-45.5,17.5-79.334,45.167-36.444,29.833-52,43.833-29.555,26.667-52.222,47.111-64.889,64-88.444,88.889-44.223,44-50.667,50.889-4.889,13.334-4.889,23.778c0,5.546-.439,17.231-1.149,28.669-.628,10.1-1.469,20.015-2.407,25.331-2,11.333-5.111,37.778-4.888,69.333s.222,76.889-3.778,90.223-11.334,31.111-26.667,34-36.222,1.555-57.333,1.333-35.111,1.333-42.222,8.222-13.778,11.778-9.112,33.556a192.485,192.485,0,0,0,19.556,53.777c9.111,17.334,32.889,60.223,36.444,66s10.445,15.556,15.612,27.889,5.5,18.834,5,24.834-3.334,21.666-7.334,36.5-18,43.666-23.833,55.166-29,53.334-34.5,62.334-13.833,31.833-12.167,47.5,1.334,19.666,5.834,31.5,17.666,51.5,19,62.666,4.166,16,3.5,30.167-6.834,56.5-12.334,68.167-17,33.5-31.5,47.333-45.666,42-53,52.167-19.166,19.333-27.5,44-11,43.666-14.5,65-3.333,54.333-.166,67.833,6.166,25.667,8,36.167,2.67,34.153-1.167,48.5Z"/><path id="d80bebd1-f0dc-4993-b556-f4683cad9f11" data-name="Track Middle" class="6fe9a414-8a27-4d70-984a-9b512300762b" d="M44.827,1689.348c-4.49,12.646,1.927,17.778,7.371,20s40.889,17.334,67.056,28.834,52.055,23.166,52.055,23.166c24.776,10.859,27.612,24,32.612,32.167s12,46.667,15.333,60.5,6.833,22.556,14.278,40.222,26.777,34.445,46.444,38.111,30.111-3.5,40.445-6.333,25.333-21.167,30.5-29.5,18-33.5,23.166-44.667,18.25-32.583,23.667-44.166,6.667-12,14.444-21.778,33.111-20.111,43.111-24.778,7.778-4.278,19.612-12.778,14.833-30.5,15.333-42.5a348.452,348.452,0,0,1,4.5-39.5c1.5-7.5,7.833-30.333,10.833-44.166s8.278-25.5,13.389-36.278,17.945-23.556,29.111-30.722,28-13.834,45-16.334,20.5-.833,41.167.834,29.944,6.333,45.167,14.444,19.888,17.333,24.555,24.778,8.889,36.111,10.667,45.444,10.361,37.084,14.278,52.084,14.916,42,34,55.416,42.5,5.834,50.611,3.611,45-14.777,59-19.222,8.333-18.666,8.333-18.666c-2.25-11.851.222-22.667,6.222-41.556,9.205-28.978,11.667-40.333,10.334-51.333s-4.667-19.334-17.334-31.334-25.166-22.666-31.333-32c-4.406-6.669-10.167-16.166-12.333-33-.888-6.9-2.556-15.444-3.373-23.852-.744-7.663-1.85-14.7-2.961-20.981-4.1-23.165-18.166-42.667-22.166-60.167-4.09-17.891-4.164-39.78-3.723-55,.445-15.333,3.648-33.557,4.889-50.889,1.482-20.683,4.614-39.589,6.667-46.444,4.917-16.417,17.333-38,25.667-56s6.666-44.667,5.333-56-9-31.444-25.667-40.111-36.333-10.111-51.778-11.111a62.894,62.894,0,0,1-37.555-15.222c-9-8-11.833-11.389-12-19.223s5.5-22.9,19.667-39a196.693,196.693,0,0,1,20.555-20.555c6.549-5.573,16.9-13.031,27.778-21,14.555-10.667,13.167-13.778,21.167-22.611s32.833-20.667,45.833-28,37.167-21.667,43.167-30,15.166-13.834,15.5-33.834-21.778-35.222-38.667-44.333c-7.606-4.1-24.889-12.889-38.778-20.889-16.524-9.518-28.448-18.2-30.555-20.333-6.272-6.362-20.167-25.111-15.5-45.111s13.666-31.167,34-49.334,20.5-19.666,25.333-26.666,8.5-24.5-2.333-39.834-28.334-34.666-33.334-46.5-3.743-26.268,11.834-43.833c7.833-8.833,22.39-19.978,30.166-26.167,11.114-8.844,19.774-16.459,25.167-22.833,9.167-10.833,9.167-22.5,8.167-35.167s-1.667-32.166,20.166-45.5,65.667-27.722,80.778-34.5,30.556-17.5,39.889-39.333,9.111-30.222,8.444-46.222-14.889-43.111-21.777-68.445-8.667-49.777,7.333-68.666,34.222-38.334,50.444-48.111,23.556-11.556,30.445-17.112,6.694-19.277,4.361-25.444-11.139-18.222-29.695-21.556-41.333-4.444-60-8.333-43.222-5.611-67.555,3.722-66,38.167-78.167,44.5-54.5,31.167-80.166,37.167-24.5,7.667-47.667,8-39.833-2.333-55.667-5-36.5-.833-47.666,3.833-45.5,17.5-79.334,45.167-36.444,29.833-52,43.833-29.555,26.667-52.222,47.111-64.889,64-88.444,88.889-44.223,44-50.667,50.889-4.889,13.334-4.889,23.778c0,5.546-.439,17.231-1.149,28.669-.628,10.1-1.469,20.015-2.407,25.331-2,11.333-5.111,37.778-4.888,69.333s.222,76.889-3.778,90.223-11.334,31.111-26.667,34-36.222,1.555-57.333,1.333-35.111,1.333-42.222,8.222-13.778,11.778-9.112,33.556a192.485,192.485,0,0,0,19.556,53.777c9.111,17.334,32.889,60.223,36.444,66s10.445,15.556,15.612,27.889,5.5,18.834,5,24.834-3.334,21.666-7.334,36.5-18,43.666-23.833,55.166-29,53.334-34.5,62.334-13.833,31.833-12.167,47.5,1.334,19.666,5.834,31.5,17.666,51.5,19,62.666,4.166,16,3.5,30.167-6.834,56.5-12.334,68.167-17,33.5-31.5,47.333-45.666,42-53,52.167-19.166,19.333-27.5,44-11,43.666-14.5,65-3.333,54.333-.166,67.833,6.166,25.667,8,36.167,2.67,34.153-1.167,48.5Z"/><path id="b603f161-a7fc-48b7-b27f-8c565dd1adb4" data-name="Pitlane Middle" class="6fe9a414-8a27-4d70-984a-9b512300762b" d="M319.754,382.237c-7.319,5.844-18.722,9.222-26.056,12.222-8.683,3.553-19.944,7.889-35.5,13-16.495,5.42-45.444,10.723-70.277,13.556s-47.757,5.108-81.556-2.222c-23.056-5-37.778-11.611-45.9-14.528-8.923-3.2-23.271-8.031-23.271-8.031-8.1-2.136-13.312-3.844-19.187-.969-3.918,1.917-8.083,6.417-6.75,14.917s1.333,11.333,7.5,17.5,21.5,22.166,25.5,26.333,11.5,14.1,31.833,14.333c14.667.167,20.084.084,24.834.834,9.174,1.448,18.014,2.1,23.666,18.416,2.917,8.417,2.667,17.584,2.334,26.584s-.334,16.833,4,28.833,11.166,38.667,11.333,47.333-.325,19.783-2.167,25.834c-1.75,5.75-3.5,18.055-2,23.722a268.9,268.9,0,0,0,9.667,27.111c3.417,8,7.833,17.75,11.75,24.417s9.057,12,11.083,18.729"/><path id="587b5b7a-653e-4063-a044-9e969d966b77" data-name="Pitlane Inner" class="0d31966d-05b0-4b3c-9390-53b86d737c61" d="M319.754,382.237c-7.319,5.844-18.722,9.222-26.056,12.222-8.683,3.553-19.944,7.889-35.5,13-16.495,5.42-45.444,10.723-70.277,13.556s-47.757,5.108-81.556-2.222c-23.056-5-37.778-11.611-45.9-14.528-8.923-3.2-23.271-8.031-23.271-8.031-8.1-2.136-13.312-3.844-19.187-.969-3.918,1.917-8.083,6.417-6.75,14.917s1.333,11.333,7.5,17.5,21.5,22.166,25.5,26.333,11.5,14.1,31.833,14.333c14.667.167,20.084.084,24.834.834,9.174,1.448,18.014,2.1,23.666,18.416,2.917,8.417,2.667,17.584,2.334,26.584s-.334,16.833,4,28.833,11.166,38.667,11.333,47.333-.325,19.783-2.167,25.834c-1.75,5.75-3.5,18.055-2,23.722a268.9,268.9,0,0,0,9.667,27.111c3.417,8,7.833,17.75,11.75,24.417s9.057,12,11.083,18.729"/><path id="506df633-4794-4259-8759-eaffbc538e81" data-name="Track Inner" class="66fdd83a-3bb5-4e52-b863-18c94d428e20" d="M44.827,1689.348c-4.49,12.646,1.927,17.778,7.371,20s40.889,17.334,67.056,28.834,52.055,23.166,52.055,23.166c24.776,10.859,27.612,24,32.612,32.167s12,46.667,15.333,60.5,6.833,22.556,14.278,40.222,26.777,34.445,46.444,38.111,30.111-3.5,40.445-6.333,25.333-21.167,30.5-29.5,18-33.5,23.166-44.667,18.25-32.583,23.667-44.166,6.667-12,14.444-21.778,33.111-20.111,43.111-24.778,7.778-4.278,19.612-12.778,14.833-30.5,15.333-42.5a348.452,348.452,0,0,1,4.5-39.5c1.5-7.5,7.833-30.333,10.833-44.166s8.278-25.5,13.389-36.278,17.945-23.556,29.111-30.722,28-13.834,45-16.334,20.5-.833,41.167.834,29.944,6.333,45.167,14.444,19.888,17.333,24.555,24.778,8.889,36.111,10.667,45.444,10.361,37.084,14.278,52.084,14.916,42,34,55.416,42.5,5.834,50.611,3.611,45-14.777,59-19.222,8.333-18.666,8.333-18.666c-2.25-11.851.222-22.667,6.222-41.556,9.205-28.978,11.667-40.333,10.334-51.333s-4.667-19.334-17.334-31.334-25.166-22.666-31.333-32c-4.406-6.669-10.167-16.166-12.333-33-.888-6.9-2.556-15.444-3.373-23.852-.744-7.663-1.85-14.7-2.961-20.981-4.1-23.165-18.166-42.667-22.166-60.167-4.09-17.891-4.164-39.78-3.723-55,.445-15.333,3.648-33.557,4.889-50.889,1.482-20.683,4.614-39.589,6.667-46.444,4.917-16.417,17.333-38,25.667-56s6.666-44.667,5.333-56-9-31.444-25.667-40.111-36.333-10.111-51.778-11.111a62.894,62.894,0,0,1-37.555-15.222c-9-8-11.833-11.389-12-19.223s5.5-22.9,19.667-39a196.693,196.693,0,0,1,20.555-20.555c6.549-5.573,16.9-13.031,27.778-21,14.555-10.667,13.167-13.778,21.167-22.611s32.833-20.667,45.833-28,37.167-21.667,43.167-30,15.166-13.834,15.5-33.834-21.778-35.222-38.667-44.333c-7.606-4.1-24.889-12.889-38.778-20.889-16.524-9.518-28.448-18.2-30.555-20.333-6.272-6.362-20.167-25.111-15.5-45.111s13.666-31.167,34-49.334,20.5-19.666,25.333-26.666,8.5-24.5-2.333-39.834-28.334-34.666-33.334-46.5-3.743-26.268,11.834-43.833c7.833-8.833,22.39-19.978,30.166-26.167,11.114-8.844,19.774-16.459,25.167-22.833,9.167-10.833,9.167-22.5,8.167-35.167s-1.667-32.166,20.166-45.5,65.667-27.722,80.778-34.5,30.556-17.5,39.889-39.333,9.111-30.222,8.444-46.222-14.889-43.111-21.777-68.445-8.667-49.777,7.333-68.666,34.222-38.334,50.444-48.111,23.556-11.556,30.445-17.112,6.694-19.277,4.361-25.444-11.139-18.222-29.695-21.556-41.333-4.444-60-8.333-43.222-5.611-67.555,3.722-66,38.167-78.167,44.5-54.5,31.167-80.166,37.167-24.5,7.667-47.667,8-39.833-2.333-55.667-5-36.5-.833-47.666,3.833-45.5,17.5-79.334,45.167-36.444,29.833-52,43.833-29.555,26.667-52.222,47.111-64.889,64-88.444,88.889-44.223,44-50.667,50.889-4.889,13.334-4.889,23.778c0,5.546-.439,17.231-1.149,28.669-.628,10.1-1.469,20.015-2.407,25.331-2,11.333-5.111,37.778-4.888,69.333s.222,76.889-3.778,90.223-11.334,31.111-26.667,34-36.222,1.555-57.333,1.333-35.111,1.333-42.222,8.222-13.778,11.778-9.112,33.556a192.485,192.485,0,0,0,19.556,53.777c9.111,17.334,32.889,60.223,36.444,66s10.445,15.556,15.612,27.889,5.5,18.834,5,24.834-3.334,21.666-7.334,36.5-18,43.666-23.833,55.166-29,53.334-34.5,62.334-13.833,31.833-12.167,47.5,1.334,19.666,5.834,31.5,17.666,51.5,19,62.666,4.166,16,3.5,30.167-6.834,56.5-12.334,68.167-17,33.5-31.5,47.333-45.666,42-53,52.167-19.166,19.333-27.5,44-11,43.666-14.5,65-3.333,54.333-.166,67.833,6.166,25.667,8,36.167,2.67,34.153-1.167,48.5Z"/><use id="a5669cf9-27c6-4c38-b0d6-30de924e0251" data-name="Start-Finish-Line" width="200" height="103.617" transform="translate(430.194 228.946) rotate(44.43) scale(0.287)" xlink:href="#d8379b20-345d-4f3c-a717-615603d4327e"/></g></g></g></svg>