<svg xmlns="http://www.w3.org/2000/svg" xmlns:xlink="http://www.w3.org/1999/xlink" width="529.867" height="701.915" viewBox="0 0 529.867 701.915"><defs><style>.\31 e6e7ebe-a2a0-427c-9574-6e17b8a7bf61{fill:#00ff24;}.\31 e6e7ebe-a2a0-427c-9574-6e17b8a7bf61,.\37 e68a224-255e-420c-afd3-5ab67dc79557{stroke:#000;stroke-width:5px;}.\31 e6e7ebe-a2a0-427c-9574-6e17b8a7bf61,.\37 b47b0f5-3617-4584-bac3-bbf832fbe5e2,.\37 e68a224-255e-420c-afd3-5ab67dc79557,.\38 f9bca0a-4ab9-4c29-9eff-9fc7017fe584,.d88b736b-c78a-44fd-b707-3bc699bf64d6,.fc76c5ef-dff4-4730-b49d-be64f142b636{stroke-miterlimit:10;}.\37 e68a224-255e-420c-afd3-5ab67dc79557,.d483acca-79e4-4fa8-8a5c-f554d0e3805d{fill:#fff;}.\37 b47b0f5-3617-4584-bac3-bbf832fbe5e2,.d88b736b-c78a-44fd-b707-3bc699bf64d6,.fc76c5ef-dff4-4730-b49d-be64f142b636{fill:none;}.d88b736b-c78a-44fd-b707-3bc699bf64d6,.fc76c5ef-dff4-4730-b49d-be64f142b636{stroke:#007fff;}.fc76c5ef-dff4-4730-b49d-be64f142b636{stroke-width:20px;}.\37 b47b0f5-3617-4584-bac3-bbf832fbe5e2,.\38 f9bca0a-4ab9-4c29-9eff-9fc7017fe584{stroke:#fff;}.\37 b47b0f5-3617-4584-bac3-bbf832fbe5e2{stroke-width:10px;}.d88b736b-c78a-44fd-b707-3bc699bf64d6{stroke-width:2px;}.\38 f9bca0a-4ab9-4c29-9eff-9fc7017fe584{fill:#333;stroke-width:1.5px;}</style><symbol id="dd588ced-c247-484e-9383-f0901543fce6" data-name="fd103434-89f2-4089-acf9-54fed79ed404" viewBox="0 0 200 103.617"><rect class="1e6e7ebe-a2a0-427c-9574-6e17b8a7bf61" x="2.5" y="54.074" width="195" height="47.043"/><rect class="7e68a224-255e-420c-afd3-5ab67dc79557" x="2.5" y="2.5" width="48.75" height="48.75"/><rect class="7e68a224-255e-420c-afd3-5ab67dc79557" x="51.25" y="2.5" width="48.75" height="48.75"/><rect class="7e68a224-255e-420c-afd3-5ab67dc79557" x="100" y="2.5" width="48.75" height="48.75"/><rect class="7e68a224-255e-420c-afd3-5ab67dc79557" x="148.75" y="2.5" width="48.75" height="48.75"/></symbol></defs><title>Choo_Choo_Motherfucker</title><g id="633836ee-c3c9-4739-b72e-ca394f5a9f83" data-name="Layer 2"><g id="63bd5919-4cb4-4b41-abbb-1de8fdbd51f2" data-name="Docks"><g id="5db50126-429b-4f7d-a1bf-010303c84498" data-name="Choo_Choo_Motherfucker"><g id="5a297f63-f8db-4812-a127-87696da02fd7" data-name="Track-Outer"><path class="fc76c5ef-dff4-4730-b49d-be64f142b636" d="M255.961,521.142c31.5.166,52.168.164,81.916.416,18.085.154,29.763.314,39.25.25,28.169-.189,47.417-1.007,72.917-.833,5.669.039,12.213-.51,25,1.083,5.824.726,11.063,1.618,15.747,4.007a59.092,59.092,0,0,1,11.5,8.243c12.983,11.59,14.147,26.733,14.667,34.917.539,8.5.559,12.33.583,16.25.1,16.4-.611,39.48-.542,71.588.011,5.224-4.215,8.837-9.38,9.619a19.4,19.4,0,0,1-5.6-.2c-4.9-.981-8.085-3.145-9.018-8.051-.545-2.868-1.206-5.735-2-9.25a170.952,170.952,0,0,0-7.125-23.541c-4.75-12.667-7.253-18.1-17.333-40.917-22.738-51.477-21.458-47.64-23.75-53.75-2.235-5.958-8.5-23.431-14.5-66.75-7.112-51.394-12.706-129.1-14.576-163.838,0,0-.64-11.826-7.174-36.912-1.675-6.433-3.118-11.11-7.25-15-2.446-2.3-6.236-4.708-13-9-3.45-2.189-5.6-3.428-6.916-6.25a10.42,10.42,0,0,1-.334-8.167,9.96,9.96,0,0,1,4.584-5c1.771-.869,2.761-.592,6.083-.916a34.23,34.23,0,0,0,8.917-1.834c3.714-1.5,5.9-4.095,7.75-6.333a34.788,34.788,0,0,0,6.75-13.667,322.634,322.634,0,0,0,6.916-39.416c1.971-18.674,2.769-28.729,3.084-32.834,1.336-17.42,1.349-23.715,1.333-26.5a179.735,179.735,0,0,0-1.917-26.25c-2.578-17.013-6.107-22.553-7.25-24.25a33.854,33.854,0,0,0-11.25-10.833c-4.82-2.786-8.968-3.97-15.083-4.917a69.032,69.032,0,0,0-22.5.167,64.463,64.463,0,0,0-22.417,8.417c-6.911,4-11.17,7.963-19.083,15.333a159.809,159.809,0,0,0-13.75,14.25c-6.209,7.322-7.286,9.037-15.167,18.5-6.174,7.414-7.647,9.281-9.916,12a34.146,34.146,0,0,1-8.167,7.417,70.812,70.812,0,0,1-10.35,5.375,210.374,210.374,0,0,0-20.734,9.041c-8.409,4.063-11.447,6.094-16.166,9.75a67.883,67.883,0,0,0-15,16.334,53.8,53.8,0,0,0-6.5,12.75,60.01,60.01,0,0,0-2.917,19.75c.15,14.25-.215,27.781.083,41.916.122,5.753.2,20.918.25,47.167.042,24.272.464,26.543-.166,35.917a255.869,255.869,0,0,1-4.584,35.833c-1.789,8.927-3.617,15.519-6.5,29.75-2.326,11.485-5.291,22.873-6.75,34.5-.466,3.719-1.758,9.823-5.192,14.919-3.346,4.965-7.106,6.719-9.974,8.5a62.731,62.731,0,0,1-12.5,6.166c-8.726,3.291-13.173,4.269-18.334,5.084-5.05.8-9.595,1.462-15-.334a23.171,23.171,0,0,1-8.416-4.916c-2.57-2.421-3.8-4.8-5.5-8.167a56.5,56.5,0,0,1-4.25-11.583,88.027,88.027,0,0,1-2.5-15c-.59-6.523-.517-12.888-.584-24.167-.052-8.861.38-17.558.167-26.417-.144-6.009-.136-11.022-2.417-17.083a27.473,27.473,0,0,0-6.166-9.833,25.036,25.036,0,0,0-10.5-6.25c-6.457-1.8-11.952-.847-17,.666a65.284,65.284,0,0,0-14.167,6.584,41.934,41.934,0,0,0-14,12.416,41.043,41.043,0,0,0-6.667,14.334,72.259,72.259,0,0,0-2.833,17.083c-.417,12.167-.7,23.135-1,34.583-.47,17.895-.633,29.917-.333,45.75.187,9.916,1.134,15.071,4,20.417,1.743,3.252,3.355,4.865,4.333,8.917a26.489,26.489,0,0,1-.833,14.25q-.291.893-.615,1.706a4.1,4.1,0,0,0,3.884,5.6c7.548-.1,14.066-.091,19.314-.055,17.711.123,22.21.634,26.583,1.416a89.539,89.539,0,0,1,20.25,5.834c4.238,1.808,3.844,2.056,12.084,5.916,8.255,3.868,12.49,5.827,17.75,7.084a54.109,54.109,0,0,0,13.5,1.416C209.779,520.99,238.726,521.051,255.961,521.142Z"/></g><g id="818534a1-6068-40b3-a9c3-52a704fd06a7" data-name="Track-Mid"><path class="7b47b0f5-3617-4584-bac3-bbf832fbe5e2" d="M255.961,521.142c31.5.166,52.168.164,81.916.416,18.085.154,29.763.314,39.25.25,28.169-.189,47.417-1.007,72.917-.833,5.669.039,12.213-.51,25,1.083,5.824.726,11.063,1.618,15.747,4.007a59.092,59.092,0,0,1,11.5,8.243c12.983,11.59,14.147,26.733,14.667,34.917.539,8.5.559,12.33.583,16.25.1,16.4-.611,39.48-.542,71.588.011,5.224-4.215,8.837-9.38,9.619a19.4,19.4,0,0,1-5.6-.2c-4.9-.981-8.085-3.145-9.018-8.051-.545-2.868-1.206-5.735-2-9.25a170.952,170.952,0,0,0-7.125-23.541c-4.75-12.667-7.253-18.1-17.333-40.917-22.738-51.477-21.458-47.64-23.75-53.75-2.235-5.958-8.5-23.431-14.5-66.75-7.112-51.394-12.706-129.1-14.576-163.838,0,0-.64-11.826-7.174-36.912-1.675-6.433-3.118-11.11-7.25-15-2.446-2.3-6.236-4.708-13-9-3.45-2.189-5.6-3.428-6.916-6.25a10.42,10.42,0,0,1-.334-8.167,9.96,9.96,0,0,1,4.584-5c1.771-.869,2.761-.592,6.083-.916a34.23,34.23,0,0,0,8.917-1.834c3.714-1.5,5.9-4.095,7.75-6.333a34.788,34.788,0,0,0,6.75-13.667,322.634,322.634,0,0,0,6.916-39.416c1.971-18.674,2.769-28.729,3.084-32.834,1.336-17.42,1.349-23.715,1.333-26.5a179.735,179.735,0,0,0-1.917-26.25c-2.578-17.013-6.107-22.553-7.25-24.25a33.854,33.854,0,0,0-11.25-10.833c-4.82-2.786-8.968-3.97-15.083-4.917a69.032,69.032,0,0,0-22.5.167,64.463,64.463,0,0,0-22.417,8.417c-6.911,4-11.17,7.963-19.083,15.333a159.809,159.809,0,0,0-13.75,14.25c-6.209,7.322-7.286,9.037-15.167,18.5-6.174,7.414-7.647,9.281-9.916,12a34.146,34.146,0,0,1-8.167,7.417,70.812,70.812,0,0,1-10.35,5.375,210.374,210.374,0,0,0-20.734,9.041c-8.409,4.063-11.447,6.094-16.166,9.75a67.883,67.883,0,0,0-15,16.334,53.8,53.8,0,0,0-6.5,12.75,60.01,60.01,0,0,0-2.917,19.75c.15,14.25-.215,27.781.083,41.916.122,5.753.2,20.918.25,47.167.042,24.272.464,26.543-.166,35.917a255.869,255.869,0,0,1-4.584,35.833c-1.789,8.927-3.617,15.519-6.5,29.75-2.326,11.485-5.291,22.873-6.75,34.5-.466,3.719-1.758,9.823-5.192,14.919-3.346,4.965-7.106,6.719-9.974,8.5a62.731,62.731,0,0,1-12.5,6.166c-8.726,3.291-13.173,4.269-18.334,5.084-5.05.8-9.595,1.462-15-.334a23.171,23.171,0,0,1-8.416-4.916c-2.57-2.421-3.8-4.8-5.5-8.167a56.5,56.5,0,0,1-4.25-11.583,88.027,88.027,0,0,1-2.5-15c-.59-6.523-.517-12.888-.584-24.167-.052-8.861.38-17.558.167-26.417-.144-6.009-.136-11.022-2.417-17.083a27.473,27.473,0,0,0-6.166-9.833,25.036,25.036,0,0,0-10.5-6.25c-6.457-1.8-11.952-.847-17,.666a65.284,65.284,0,0,0-14.167,6.584,41.934,41.934,0,0,0-14,12.416,41.043,41.043,0,0,0-6.667,14.334,72.259,72.259,0,0,0-2.833,17.083c-.417,12.167-.7,23.135-1,34.583-.47,17.895-.633,29.917-.333,45.75.187,9.916,1.134,15.071,4,20.417,1.743,3.252,3.355,4.865,4.333,8.917a26.489,26.489,0,0,1-.833,14.25q-.291.893-.615,1.706a4.1,4.1,0,0,0,3.884,5.6c7.548-.1,14.066-.091,19.314-.055,17.711.123,22.21.634,26.583,1.416a89.539,89.539,0,0,1,20.25,5.834c4.238,1.808,3.844,2.056,12.084,5.916,8.255,3.868,12.49,5.827,17.75,7.084a54.109,54.109,0,0,0,13.5,1.416C209.779,520.99,238.726,521.051,255.961,521.142Z"/></g><g id="80f22d2e-6f3c-4646-9979-6e443ace6423" data-name="Track-Inner"><path class="d88b736b-c78a-44fd-b707-3bc699bf64d6" d="M255.961,521.142c31.5.166,52.168.164,81.916.416,18.085.154,29.763.314,39.25.25,28.169-.189,47.417-1.007,72.917-.833,5.669.039,12.213-.51,25,1.083,5.824.726,11.063,1.618,15.747,4.007a59.092,59.092,0,0,1,11.5,8.243c12.983,11.59,14.147,26.733,14.667,34.917.539,8.5.559,12.33.583,16.25.1,16.4-.611,39.48-.542,71.588.011,5.224-4.215,8.837-9.38,9.619a19.4,19.4,0,0,1-5.6-.2c-4.9-.981-8.085-3.145-9.018-8.051-.545-2.868-1.206-5.735-2-9.25a170.952,170.952,0,0,0-7.125-23.541c-4.75-12.667-7.253-18.1-17.333-40.917-22.738-51.477-21.458-47.64-23.75-53.75-2.235-5.958-8.5-23.431-14.5-66.75-7.112-51.394-12.706-129.1-14.576-163.838,0,0-.64-11.826-7.174-36.912-1.675-6.433-3.118-11.11-7.25-15-2.446-2.3-6.236-4.708-13-9-3.45-2.189-5.6-3.428-6.916-6.25a10.42,10.42,0,0,1-.334-8.167,9.96,9.96,0,0,1,4.584-5c1.771-.869,2.761-.592,6.083-.916a34.23,34.23,0,0,0,8.917-1.834c3.714-1.5,5.9-4.095,7.75-6.333a34.788,34.788,0,0,0,6.75-13.667,322.634,322.634,0,0,0,6.916-39.416c1.971-18.674,2.769-28.729,3.084-32.834,1.336-17.42,1.349-23.715,1.333-26.5a179.735,179.735,0,0,0-1.917-26.25c-2.578-17.013-6.107-22.553-7.25-24.25a33.854,33.854,0,0,0-11.25-10.833c-4.82-2.786-8.968-3.97-15.083-4.917a69.032,69.032,0,0,0-22.5.167,64.463,64.463,0,0,0-22.417,8.417c-6.911,4-11.17,7.963-19.083,15.333a159.809,159.809,0,0,0-13.75,14.25c-6.209,7.322-7.286,9.037-15.167,18.5-6.174,7.414-7.647,9.281-9.916,12a34.146,34.146,0,0,1-8.167,7.417,70.812,70.812,0,0,1-10.35,5.375,210.374,210.374,0,0,0-20.734,9.041c-8.409,4.063-11.447,6.094-16.166,9.75a67.883,67.883,0,0,0-15,16.334,53.8,53.8,0,0,0-6.5,12.75,60.01,60.01,0,0,0-2.917,19.75c.15,14.25-.215,27.781.083,41.916.122,5.753.2,20.918.25,47.167.042,24.272.464,26.543-.166,35.917a255.869,255.869,0,0,1-4.584,35.833c-1.789,8.927-3.617,15.519-6.5,29.75-2.326,11.485-5.291,22.873-6.75,34.5-.466,3.719-1.758,9.823-5.192,14.919-3.346,4.965-7.106,6.719-9.974,8.5a62.731,62.731,0,0,1-12.5,6.166c-8.726,3.291-13.173,4.269-18.334,5.084-5.05.8-9.595,1.462-15-.334a23.171,23.171,0,0,1-8.416-4.916c-2.57-2.421-3.8-4.8-5.5-8.167a56.5,56.5,0,0,1-4.25-11.583,88.027,88.027,0,0,1-2.5-15c-.59-6.523-.517-12.888-.584-24.167-.052-8.861.38-17.558.167-26.417-.144-6.009-.136-11.022-2.417-17.083a27.473,27.473,0,0,0-6.166-9.833,25.036,25.036,0,0,0-10.5-6.25c-6.457-1.8-11.952-.847-17,.666a65.284,65.284,0,0,0-14.167,6.584,41.934,41.934,0,0,0-14,12.416,41.043,41.043,0,0,0-6.667,14.334,72.259,72.259,0,0,0-2.833,17.083c-.417,12.167-.7,23.135-1,34.583-.47,17.895-.633,29.917-.333,45.75.187,9.916,1.134,15.071,4,20.417,1.743,3.252,3.355,4.865,4.333,8.917a26.489,26.489,0,0,1-.833,14.25q-.291.893-.615,1.706a4.1,4.1,0,0,0,3.884,5.6c7.548-.1,14.066-.091,19.314-.055,17.711.123,22.21.634,26.583,1.416a89.539,89.539,0,0,1,20.25,5.834c4.238,1.808,3.844,2.056,12.084,5.916,8.255,3.868,12.49,5.827,17.75,7.084a54.109,54.109,0,0,0,13.5,1.416C209.779,520.99,238.726,521.051,255.961,521.142Z"/></g><g id="f7482e81-805a-4418-8bb8-970b49a3aaa6" data-name="Crossover-Outer"><path class="fc76c5ef-dff4-4730-b49d-be64f142b636" d="M394.33,521.609c.588-.006,26.5-.537,32-.545,8.044-.011,30.083-.256,34.325-.106"/></g><g id="bc3ec7c0-58ed-4e34-8af7-877488ea34a0" data-name="Crossover-Mid"><path class="7b47b0f5-3617-4584-bac3-bbf832fbe5e2" d="M394.33,521.609c.588-.006,26.5-.537,32-.545,8.044-.011,30.083-.256,34.325-.106"/></g><g id="873e8d0a-1e0c-413c-98db-11cdf599ef33" data-name="Crossover-Inner"><path class="d88b736b-c78a-44fd-b707-3bc699bf64d6" d="M394.33,521.609c.588-.006,26.8-.537,32.3-.545,8.044-.011,30.083-.256,34.325-.106"/></g><g id="a4ec1a5f-d61d-4258-8279-9b28a620335d" data-name="Corner Numbers"><g id="e11bcd19-835c-4c5e-b25f-63d806480378" data-name="1"><path class="8f9bca0a-4ab9-4c29-9eff-9fc7017fe584" d="M508.288,518.025a10.417,10.417,0,1,1,10.722,10.1h0c-7.571.225-10.145,1.457-10.879.766S508.511,525.568,508.288,518.025Z"/><path class="d483acca-79e4-4fa8-8a5c-f554d0e3805d" d="M517.824,513.25h-.036l-2.065,1.16-.334-1.23,2.6-1.447,1.383-.024.205,11.99-1.569.026Z"/></g><g id="6fea24d3-2140-4b3a-ba94-616691ebdc2e" data-name="2"><path class="8f9bca0a-4ab9-4c29-9eff-9fc7017fe584" d="M512.983,682.617a10.811,10.811,0,1,1-15.288.184h0c5.491-5.625,6.525-8.4,7.572-8.413S507.38,677.145,512.983,682.617Z"/><path class="d483acca-79e4-4fa8-8a5c-f554d0e3805d" d="M501.281,695.941v-1.034l1.322-1.283c3.178-3.026,4.615-4.634,4.634-6.511a2.221,2.221,0,0,0-2.47-2.432,4.237,4.237,0,0,0-2.643,1.053l-.536-1.188a5.463,5.463,0,0,1,3.524-1.263,3.5,3.5,0,0,1,3.81,3.619c0,2.3-1.666,4.156-4.289,6.683l-1,.919v.04h5.592v1.4Z"/></g><g id="c02d5a1a-f9fd-4eff-b547-ce406546c662" data-name="3"><path class="8f9bca0a-4ab9-4c29-9eff-9fc7017fe584" d="M393.516,266.25a10.512,10.512,0,1,1-9.763-11.212h0c7.626.527,10.333-.454,11,.313S394.043,258.653,393.516,266.25Z"/><path class="d483acca-79e4-4fa8-8a5c-f554d0e3805d" d="M380.231,269.37a5.474,5.474,0,0,0,2.679.767c2.1,0,2.758-1.335,2.741-2.341-.017-1.694-1.542-2.422-3.124-2.425h-.912l0-1.229h.913c1.191,0,2.7-.609,2.7-2.043,0-.968-.611-1.825-2.119-1.828a4.45,4.45,0,0,0-2.422.8l-.426-1.192a5.744,5.744,0,0,1,3.167-.925c2.383,0,3.46,1.42,3.457,2.89a3,3,0,0,1-2.238,2.845v.037a3.151,3.151,0,0,1,2.693,3.112c0,1.937-1.514,3.629-4.418,3.625a6.16,6.16,0,0,1-3.145-.826Z"/></g><g id="1a863f53-0700-451f-995f-6650b5418d77" data-name="4"><path class="8f9bca0a-4ab9-4c29-9eff-9fc7017fe584" d="M360.948,226.243a10.195,10.195,0,1,1,6.321-12.959h0c2.413,7.009,4.313,9.055,3.88,9.943S367.932,223.84,360.948,226.243Z"/><path class="d483acca-79e4-4fa8-8a5c-f554d0e3805d" d="M358.709,222.2l0-3.2-5.452,0v-1.047l5.244-7.487,1.715,0-.008,7.293,1.642,0v1.246l-1.643,0,0,3.2Zm0-4.442,0-3.916q0-.923.057-1.841h-.054c-.362.685-.651,1.191-.977,1.732l-2.875,3.986v.035Z"/></g><g id="1a205510-12a9-4d86-97cb-fdc4d5b406f0" data-name="5"><path class="8f9bca0a-4ab9-4c29-9eff-9fc7017fe584" d="M422.114,218.69a10.195,10.195,0,1,1-10.6,9.768h0c.3-7.407-.721-10,0-10.674S414.735,218.385,422.114,218.69Z"/><path class="d483acca-79e4-4fa8-8a5c-f554d0e3805d" d="M424.922,224.026l-4.477,0-.453,3.015a6.158,6.158,0,0,1,.956-.072,4.958,4.958,0,0,1,2.527.633,3.343,3.343,0,0,1,1.678,3.016,4.07,4.07,0,0,1-4.371,4,5.745,5.745,0,0,1-2.924-.723l.4-1.21a5.249,5.249,0,0,0,2.509.651,2.588,2.588,0,0,0,2.781-2.543c-.017-1.516-1.027-2.6-3.374-2.6a12.179,12.179,0,0,0-1.624.125l.76-5.631,5.614,0Z"/></g><g id="409c48e8-5468-41ef-875a-64931fe535f3" data-name="6"><path class="8f9bca0a-4ab9-4c29-9eff-9fc7017fe584" d="M392.119,16.1A10.521,10.521,0,1,1,406.3,20.619h0c-6.8,3.512-8.6,5.759-9.572,5.45S395.617,22.875,392.119,16.1Z"/><path class="d483acca-79e4-4fa8-8a5c-f554d0e3805d" d="M404.245,6.683a6.015,6.015,0,0,0-1.23.076,4.924,4.924,0,0,0-4.206,4.308h.056a3.692,3.692,0,0,1,6.579,2.509,4.048,4.048,0,0,1-4.02,4.27c-2.589,0-4.287-2.008-4.29-5.156a7.611,7.611,0,0,1,2.044-5.461,6.6,6.6,0,0,1,3.873-1.792,8.007,8.007,0,0,1,1.192-.1Zm-.459,6.987a2.461,2.461,0,0,0-2.5-2.773,2.7,2.7,0,0,0-2.346,1.493,1.4,1.4,0,0,0-.186.727c.039,1.993.954,3.465,2.668,3.463C402.839,16.579,403.788,15.4,403.786,13.67Z"/></g><g id="39c1fff8-34b2-4238-876d-802fac1b15ea" data-name="7"><path class="8f9bca0a-4ab9-4c29-9eff-9fc7017fe584" d="M297.192,112.954a10.468,10.468,0,1,1-10.58,10.355h0c.082-7.611-1.05-10.245-.326-10.954S289.609,112.87,297.192,112.954Z"/><path class="d483acca-79e4-4fa8-8a5c-f554d0e3805d" d="M300.807,117.8l0,1.075-5.279,10.96-1.687,0,5.259-10.645v-.037l-5.9-.018,0-1.353Z"/></g><g id="a0de00a3-ee84-4ca5-8db6-80f8554db879" data-name="8"><path class="8f9bca0a-4ab9-4c29-9eff-9fc7017fe584" d="M203.282,137.29a10.468,10.468,0,1,1,9.951-10.961h0c.367,7.6,1.653,10.166.972,10.916S210.857,136.926,203.282,137.29Z"/><path class="d483acca-79e4-4fa8-8a5c-f554d0e3805d" d="M198.963,130.024a3.444,3.444,0,0,1,2.394-3.225l-.019-.055a2.988,2.988,0,0,1-1.907-2.708c0-1.91,1.615-3.206,3.728-3.2,2.336,0,3.5,1.466,3.5,2.968a3.06,3.06,0,0,1-1.984,2.817v.055a3.343,3.343,0,0,1,2.427,3.117c0,2.095-1.8,3.5-4.1,3.5C200.482,133.288,198.962,131.785,198.963,130.024Zm6.489-.07c0-1.465-1.017-2.17-2.649-2.635a2.619,2.619,0,0,0-2.171,2.483,2.228,2.228,0,0,0,2.409,2.3A2.18,2.18,0,0,0,205.452,129.954Zm-4.482-6.029c0,1.2.907,1.855,2.3,2.227a2.374,2.374,0,0,0,1.836-2.187A1.872,1.872,0,0,0,203.067,122,1.917,1.917,0,0,0,200.97,123.925Z"/></g><g id="c64440d8-3b86-463c-98dd-55de8a391cfd" data-name="9"><path class="8f9bca0a-4ab9-4c29-9eff-9fc7017fe584" d="M200.809,425.208a10.468,10.468,0,1,1-9.215,11.586h0c-.862-7.562-2.312-10.036-1.681-10.83S193.274,426.065,200.809,425.208Z"/><path class="d483acca-79e4-4fa8-8a5c-f554d0e3805d" d="M198.935,440.414a6.784,6.784,0,0,0,1.314-.076,4.536,4.536,0,0,0,2.5-1.206A5.289,5.289,0,0,0,204.3,435.9h-.056a3.537,3.537,0,0,1-2.816,1.341,3.492,3.492,0,0,1-3.615-3.636,4.132,4.132,0,0,1,4.051-4.344c2.464-.038,4.015,1.942,4.062,5.019a7.62,7.62,0,0,1-1.99,5.685,6.027,6.027,0,0,1-3.48,1.666,7.621,7.621,0,0,1-1.5.116Zm.487-6.943A2.319,2.319,0,0,0,201.779,436a2.7,2.7,0,0,0,2.352-1.3,1.072,1.072,0,0,0,.14-.595c-.032-2.058-.814-3.622-2.52-3.6C200.361,430.528,199.4,431.766,199.422,433.471Z"/></g><g id="bd64477e-309e-4828-af83-d69d51eb531a" data-name="10"><path class="8f9bca0a-4ab9-4c29-9eff-9fc7017fe584" d="M129.408,457.7a10.468,10.468,0,1,1-14.23-4.085h0c6.659-3.688,8.39-5.974,9.365-5.694S125.735,451.065,129.408,457.7Z"/><path class="d483acca-79e4-4fa8-8a5c-f554d0e3805d" d="M114.576,458.456h-.037l-2.094,1.13-.316-1.242,2.633-1.408h1.391v12.051h-1.577Z"/><path class="d483acca-79e4-4fa8-8a5c-f554d0e3805d" d="M128.554,462.833c0,4.1-1.522,6.359-4.191,6.358-2.355,0-3.949-2.206-3.986-6.192,0-4.041,1.743-6.266,4.191-6.266C127.108,456.733,128.554,459,128.554,462.833Zm-6.545.184c0,3.134.963,4.913,2.446,4.913,1.669,0,2.467-1.946,2.467-5.023,0-2.967-.76-4.913-2.447-4.913C123.047,457.994,122.009,459.736,122.009,463.017Z"/></g><g id="e105148d-cc9a-4e12-bfff-d341f4c7c33f" data-name="11"><path class="8f9bca0a-4ab9-4c29-9eff-9fc7017fe584" d="M73.855,301.443a10.468,10.468,0,1,1,14.79-.639h0c-5.145,5.609-6.062,8.326-7.075,8.37S79.442,306.57,73.855,301.443Z"/><path class="d483acca-79e4-4fa8-8a5c-f554d0e3805d" d="M76.165,289.668h-.037l-2.095,1.13-.315-1.243,2.633-1.408h1.39l0,12.051H76.162Z"/><path class="d483acca-79e4-4fa8-8a5c-f554d0e3805d" d="M85.674,289.67h-.037L83.542,290.8l-.315-1.242,2.633-1.408h1.39l0,12.051H85.671Z"/></g><g id="a62b4735-0aec-42c9-b979-34c4bb1c21d7" data-name="12"><path class="8f9bca0a-4ab9-4c29-9eff-9fc7017fe584" d="M20.769,476.482a10.468,10.468,0,1,1-5.257-13.839h0c6.942,3.12,9.81,3.137,10.17,4.084S23.879,469.566,20.769,476.482Z"/><path class="d483acca-79e4-4fa8-8a5c-f554d0e3805d" d="M5.7,466.755H5.667l-2.095,1.129-.315-1.243,2.635-1.406h1.39l-.011,12.051H5.7Z"/><path class="d483acca-79e4-4fa8-8a5c-f554d0e3805d" d="M11.662,477.291v-1l1.282-1.242c3.08-2.925,4.471-4.481,4.491-6.3a2.149,2.149,0,0,0-2.389-2.357,4.1,4.1,0,0,0-2.559,1.017l-.518-1.15a5.283,5.283,0,0,1,3.412-1.22,3.392,3.392,0,0,1,3.687,3.507c0,2.225-1.618,4.022-4.159,6.466l-.965.89v.037l5.414,0,0,1.353Z"/></g><g id="88f02d5e-0cb6-413a-a4be-e70d0a792fa2" data-name="13"><path class="8f9bca0a-4ab9-4c29-9eff-9fc7017fe584" d="M51.951,466.537a10.468,10.468,0,1,1,5.876,13.588h0c-7.076-2.8-9.941-2.691-10.344-3.621S49.156,473.587,51.951,466.537Z"/><path class="d483acca-79e4-4fa8-8a5c-f554d0e3805d" d="M55.868,466.783h-.037l-2.094,1.132-.317-1.243,2.633-1.41h1.391l.006,12.051H55.874Z"/><path class="d483acca-79e4-4fa8-8a5c-f554d0e3805d" d="M62.231,475.437a5.454,5.454,0,0,0,2.67.758c2.094,0,2.742-1.336,2.723-2.337-.019-1.688-1.54-2.409-3.116-2.408H63.6v-1.224h.908c1.187,0,2.688-.613,2.687-2.041,0-.964-.614-1.816-2.115-1.815a4.409,4.409,0,0,0-2.409.8l-.428-1.186a5.731,5.731,0,0,1,3.152-.93c2.373,0,3.448,1.408,3.449,2.872a2.991,2.991,0,0,1-2.223,2.838v.037a3.14,3.14,0,0,1,2.691,3.1c0,1.928-1.5,3.616-4.392,3.617a6.138,6.138,0,0,1-3.134-.813Z"/></g><g id="927a4a17-c563-4678-86bd-8fc0bfa700fb" data-name="14"><path class="8f9bca0a-4ab9-4c29-9eff-9fc7017fe584" d="M32.845,514.519a10.468,10.468,0,1,1-10.217-10.713h0c7.61.181,10.259-.918,10.958-.185S33.027,506.938,32.845,514.519Z"/><path class="d483acca-79e4-4fa8-8a5c-f554d0e3805d" d="M17.17,508.888h-.037l-2.1,1.13-.314-1.242,2.633-1.408h1.39l0,12.05H17.165Z"/><path class="d483acca-79e4-4fa8-8a5c-f554d0e3805d" d="M28.176,519.423v-3.282l-5.6,0v-1.075l5.379-7.691H29.72l0,7.489H31.4v1.279H29.716v3.282Zm0-4.56,0-4.024q0-.944.057-1.89h-.056c-.372.7-.668,1.222-1,1.779l-2.95,4.1v.037Z"/></g><g id="bc5662d2-df0f-4e23-a0b8-e464a1ea72f2" data-name="15"><path class="8f9bca0a-4ab9-4c29-9eff-9fc7017fe584" d="M138.649,537.727a10.468,10.468,0,1,1-13.432-6.225h0c7.146-2.62,9.209-4.612,10.129-4.187S136.04,530.606,138.649,537.727Z"/><path class="d483acca-79e4-4fa8-8a5c-f554d0e3805d" d="M123.134,536.96H123.1L121,538.091l-.315-1.242,2.633-1.409h1.39v12.051h-1.576Z"/><path class="d483acca-79e4-4fa8-8a5c-f554d0e3805d" d="M136.295,536.811h-4.6l-.462,3.1a6.435,6.435,0,0,1,.982-.074,5.089,5.089,0,0,1,2.595.649,3.433,3.433,0,0,1,1.725,3.1,4.181,4.181,0,0,1-4.486,4.116,5.912,5.912,0,0,1-3-.741l.408-1.243a5.409,5.409,0,0,0,2.577.667,2.658,2.658,0,0,0,2.855-2.614c-.019-1.557-1.058-2.67-3.468-2.67a12.571,12.571,0,0,0-1.668.13l.779-5.784h5.765Z"/></g></g><g id="d074f285-456c-4286-82ca-8658e4145573" data-name="Start-Finish Line"><use width="200" height="103.617" transform="translate(345.486 541.246) rotate(-90) scale(0.192)" xlink:href="#dd588ced-c247-484e-9383-f0901543fce6"/></g></g></g></g></svg>