<svg xmlns="http://www.w3.org/2000/svg" xmlns:xlink="http://www.w3.org/1999/xlink" width="386.091" height="864.759" viewBox="0 0 386.091 864.759"><defs><style>.\33 0282677-3d91-4bb3-ac61-cfceebc73dbb{fill:#00ff24;}.\33 0282677-3d91-4bb3-ac61-cfceebc73dbb,.\34 db6ee47-be92-4a3a-9c80-948c8aa78642{stroke:#000;stroke-width:5px;}.\32 27d3e52-7c03-4d42-ad5b-89660d097e0b,.\33 0282677-3d91-4bb3-ac61-cfceebc73dbb,.\34 db6ee47-be92-4a3a-9c80-948c8aa78642,.\38 39180d0-0cdb-40d7-aa7b-062c9b1932e2,.\39 8fcbd59-073a-4030-8190-2222c70afe70,.b8d59e0b-ea0a-4a0a-af46-0e4a2dc39eeb,.d0e027f1-0742-43e4-bd47-5e0dd288f05c,.dceb6ff6-4074-451c-8489-971b27adf31e{stroke-miterlimit:10;}.\31 9bf7a97-4142-4eac-b79f-3f8bc950764c,.\34 db6ee47-be92-4a3a-9c80-948c8aa78642{fill:#fff;}.\38 39180d0-0cdb-40d7-aa7b-062c9b1932e2,.\39 8fcbd59-073a-4030-8190-2222c70afe70,.b8d59e0b-ea0a-4a0a-af46-0e4a2dc39eeb,.d0e027f1-0742-43e4-bd47-5e0dd288f05c,.dceb6ff6-4074-451c-8489-971b27adf31e{fill:none;}.\39 8fcbd59-073a-4030-8190-2222c70afe70,.d0e027f1-0742-43e4-bd47-5e0dd288f05c{stroke:#c91d1d;}.\39 8fcbd59-073a-4030-8190-2222c70afe70,.dceb6ff6-4074-451c-8489-971b27adf31e{stroke-width:20px;}.b8d59e0b-ea0a-4a0a-af46-0e4a2dc39eeb,.dceb6ff6-4074-451c-8489-971b27adf31e{stroke:#007fff;}.\32 27d3e52-7c03-4d42-ad5b-89660d097e0b,.\38 39180d0-0cdb-40d7-aa7b-062c9b1932e2{stroke:#fff;}.\38 39180d0-0cdb-40d7-aa7b-062c9b1932e2{stroke-width:9px;}.b8d59e0b-ea0a-4a0a-af46-0e4a2dc39eeb,.d0e027f1-0742-43e4-bd47-5e0dd288f05c{stroke-width:2px;}.\32 27d3e52-7c03-4d42-ad5b-89660d097e0b{fill:#333;stroke-width:1.5px;}</style><symbol id="8616752c-524f-4370-8d68-84e784bd3cb1" data-name="fd103434-89f2-4089-acf9-54fed79ed404" viewBox="0 0 200 103.617"><rect class="30282677-3d91-4bb3-ac61-cfceebc73dbb" x="2.5" y="54.074" width="195" height="47.043"/><rect class="4db6ee47-be92-4a3a-9c80-948c8aa78642" x="2.5" y="2.5" width="48.75" height="48.75"/><rect class="4db6ee47-be92-4a3a-9c80-948c8aa78642" x="51.25" y="2.5" width="48.75" height="48.75"/><rect class="4db6ee47-be92-4a3a-9c80-948c8aa78642" x="100" y="2.5" width="48.75" height="48.75"/><rect class="4db6ee47-be92-4a3a-9c80-948c8aa78642" x="148.75" y="2.5" width="48.75" height="48.75"/></symbol></defs><title>LS_Gas_GP</title><g id="3b63c727-4226-48cb-a1ce-95f2ba0414b2" data-name="Layer 2"><g id="fe62ce60-dccd-4e80-a4d7-6b9007263bcf" data-name="Docks"><g id="ee99d576-6b52-483e-94f6-56350f55d175" data-name="LS_Gas_GP"><g id="9578e5a9-770c-4d00-8848-1d79ae399506" data-name="Pit-Outer"><path class="98fcbd59-073a-4030-8190-2222c70afe70" d="M75.573,671.278c1.493,11.475,8.611,21.185,14.181,31.225a253.315,253.315,0,0,1,13.034,27.044,3.44,3.44,0,0,1-3.218,4.725c-15.795-.092-18.715-.333-23.566-.561-.567-.026-5.25-.333-7.667-.583-1.073-.111-2.169,2.768-3.771,6.312-1.5,3.313-3.515,7.295-4.937,10.063-2.066,4.02-6.209,10.375-13.917,31.68"/></g><g id="2eb60245-088f-4995-ac4f-7d9653cff258" data-name="Track-Outer"><path class="dceb6ff6-4074-451c-8489-971b27adf31e" d="M150.337,646.628l110.99,1.274a41.573,41.573,0,0,0,42.046-40.949q1.359-90.882,2.719-181.765a10.7,10.7,0,0,0-10.647-10.861q-30.577-.1-61.941.3c-21.462.279-33.754.18-50.75,1-8.782.424-16.838.95-24.006,1.5a16.51,16.51,0,0,1-17.684-15.349,65.838,65.838,0,0,1,1.44-20.409,176.54,176.54,0,0,1,5.625-18.867c2.575-6.2,3.937-8.75,7.5-17.625A96.556,96.556,0,0,0,161,327.19c2-9.562,1.469-16.98,1.5-21.562.277-41.323.5-89.167.75-131,.151-25.38,27-43.042,27-43.042a170.452,170.452,0,0,1,21.166-8.125c39.086-11.3,35.059-17.884,46.334-28.333,4.935-4.573,6.551-6.828,11.25-9.25,5.924-3.054,13.652-3.142,29.25-2.5,2.745.113,5.258.255,7.478.4a6.386,6.386,0,0,1,5.925,7.04l-3.82,36.641c-.864,10.782-1.882,19.469-2.667,25.5a167.14,167.14,0,0,0-1.833,19.334c-.2,7.342-.3,11.014.833,15.5a35.509,35.509,0,0,0,10.5,18,31.288,31.288,0,0,0,18.167,8.5,29.587,29.587,0,0,0,18.667-4.334c6.711-4.332,9.457-10.327,12.666-17.333,2.736-5.973,3.964-11.306,5.5-20.5,1.467-8.78,2.762-18.743,4.334-39.833.649-8.716,1.231-17.794,1.666-28.334.723-17.5.374-22.832,0-26.666A130.348,130.348,0,0,0,372,55.045c-2.819-10.9-5.338-14.023-7.5-16.417a34.536,34.536,0,0,0-10.75-7.917,49.334,49.334,0,0,0-12.417-3.833,66.563,66.563,0,0,0-15.5-1.25,75.675,75.675,0,0,0-15.667,2.583,65.761,65.761,0,0,0-15,6.584c-5.483,3.138-8.931,6.315-13.833,10.833a117.334,117.334,0,0,0-11.5,12c-1.97,2.319-6.3,7.746-13.083,16.083C243.428,90.082,245.37,88.1,241.67,91.628c-8.712,8.3-18.2,12.393-28.5,16.833-9.351,4.031-11.045,3.585-19.833,8a88.54,88.54,0,0,0-17.667,11c-5.158,4.227-11.3,9.214-16,18A59.227,59.227,0,0,0,153.5,165.8a70.034,70.034,0,0,0-.667,9.166c-.185,12.834-.867,25.666-.667,38.5.024,1.543.128,17.14.334,48.334.1,15.779.123,25.617-.334,38.833-.607,17.566-1.546,26.339-4.833,36.5-1.742,5.384-2.7,6.709-6.167,16-5.371,14.414-8.359,25.508-9,27.833-7.322,26.559-8.488,32.886-9.041,35.667-1.459,7.333-1.933,9.878,1.625,15.083,3.54,5.18,10.9,6.813,15.166,8.167,12.084,3.837,39.64,12.061,77.749,22.091a8.618,8.618,0,0,1,6.425,8.207l1.315,94.643a6.5,6.5,0,0,1-6.579,6.6c-13.6-.162-26.642-.916-41.889-1.481-7.7-.285-14.4-.471-22.042-.661a6.371,6.371,0,0,1-6.219-6.352c-.013-5.874-.043-14.81-.106-21.783a5.874,5.874,0,0,0-5.907-5.819l-80.565.41a4.578,4.578,0,0,0-3.327,7.708,76.4,76.4,0,0,1,6.9,8.352c7.679,10.775,10.576,20.788,12.5,27.666,2.812,10.05,3.88,17.506,4.75,30.75.816,12.411.777,20.622-.583,32.084A133.853,133.853,0,0,1,74,675.461c-4.517,9.782-9.65,18.737-10.167,19.667-5.8,10.439-7.909,13.186-10.167,20.833-1.029,3.487-1.423,8.262-2.166,17.667-1.233,15.583-.5,16.185-1.5,25A158.887,158.887,0,0,1,45,783.8a201.512,201.512,0,0,1-7.584,22.75c-5.5,13.333-10.994,24.721-16.75,24.083-5.462-.606-8.742-12.3-9.666-18.333a114.044,114.044,0,0,1-1-13c-.061-12.417.673-23.953,1.166-36.334.654-16.4-.014-12.753.667-34,.822-25.673,1.823-31.79,2.833-36.5C16.2,685.341,18.149,679.52,23,666.8c2.284-5.988,4.739-11.474,6.737-15.916a8.553,8.553,0,0,1,7.865-5.045Z"/></g><g id="5f995b0b-aa2e-4563-9699-d453347b3063" data-name="Pit-Mid"><path class="839180d0-0cdb-40d7-aa7b-062c9b1932e2" d="M75.573,671.278c1.493,11.475,8.611,21.185,14.181,31.225a253.315,253.315,0,0,1,13.034,27.044,3.44,3.44,0,0,1-3.218,4.725c-15.795-.092-18.715-.333-23.566-.561-.567-.026-5.25-.333-7.667-.583-1.073-.111-2.169,2.768-3.771,6.312-1.5,3.313-3.515,7.295-4.937,10.063-2.066,4.02-6.209,10.375-13.917,31.68"/></g><g id="7e7fb12c-8a58-460d-a3b2-5566555e6b98" data-name="Track-Mid"><path class="839180d0-0cdb-40d7-aa7b-062c9b1932e2" d="M150.35,646.689l110.99,1.274a41.574,41.574,0,0,0,42.046-40.949q1.359-90.882,2.719-181.765a10.7,10.7,0,0,0-10.647-10.861q-30.578-.1-61.941.3c-21.462.279-33.754.18-50.75,1-8.782.424-16.838.95-24.006,1.5a16.509,16.509,0,0,1-17.684-15.349,65.838,65.838,0,0,1,1.44-20.409,176.458,176.458,0,0,1,5.625-18.867c2.575-6.2,3.937-8.75,7.5-17.625a96.556,96.556,0,0,0,5.375-17.688c2-9.562,1.469-16.98,1.5-21.562.277-41.323.5-89.167.75-131,.151-25.38,27-43.042,27-43.042a170.452,170.452,0,0,1,21.166-8.125c39.086-11.3,35.059-17.884,46.334-28.333,4.935-4.573,6.551-6.828,11.25-9.25,5.924-3.054,13.652-3.142,29.25-2.5,2.745.113,5.258.255,7.478.4a6.386,6.386,0,0,1,5.925,7.04l-3.82,36.641c-.864,10.782-1.882,19.469-2.667,25.5a167.14,167.14,0,0,0-1.833,19.334c-.2,7.342-.3,11.014.833,15.5a35.509,35.509,0,0,0,10.5,18,31.288,31.288,0,0,0,18.167,8.5,29.587,29.587,0,0,0,18.667-4.334c6.711-4.332,9.457-10.327,12.666-17.333,2.736-5.973,3.964-11.306,5.5-20.5,1.467-8.78,2.762-18.743,4.334-39.833.649-8.716,1.231-17.794,1.666-28.334.723-17.5.374-22.832,0-26.666a130.447,130.447,0,0,0-3.666-22.25c-2.819-10.9-5.338-14.023-7.5-16.417a34.536,34.536,0,0,0-10.75-7.917,49.334,49.334,0,0,0-12.417-3.833,66.508,66.508,0,0,0-15.5-1.25,75.675,75.675,0,0,0-15.667,2.583,65.761,65.761,0,0,0-15,6.584c-5.483,3.138-8.931,6.315-13.833,10.833a117.229,117.229,0,0,0-11.5,12c-1.97,2.319-6.3,7.746-13.083,16.083-13.326,16.371-11.384,14.39-15.084,17.917-8.712,8.3-18.2,12.393-28.5,16.833-9.351,4.031-11.045,3.585-19.833,8a88.54,88.54,0,0,0-17.667,11c-5.158,4.227-11.3,9.214-16,18a59.227,59.227,0,0,0-6.166,20.334,70.023,70.023,0,0,0-.667,9.166c-.185,12.834-.867,25.666-.667,38.5.024,1.543.127,17.139.334,48.334.1,15.779.123,25.617-.334,38.833-.607,17.566-1.546,26.339-4.833,36.5-1.742,5.384-2.7,6.709-6.167,16-5.371,14.414-8.359,25.508-9,27.833-7.322,26.558-8.488,32.886-9.041,35.667-1.459,7.333-1.933,9.878,1.625,15.083,3.54,5.18,10.9,6.813,15.166,8.167,12.084,3.837,39.64,12.061,77.749,22.091a8.617,8.617,0,0,1,6.425,8.207l1.315,94.643a6.5,6.5,0,0,1-6.579,6.6c-13.6-.162-26.642-.916-41.889-1.481-7.7-.285-14.4-.472-22.042-.661a6.371,6.371,0,0,1-6.219-6.352c-.013-5.874-.043-14.811-.106-21.783a5.874,5.874,0,0,0-5.907-5.819l-80.565.41a4.578,4.578,0,0,0-3.327,7.708,76.4,76.4,0,0,1,6.9,8.352c7.679,10.775,10.576,20.788,12.5,27.666,2.812,10.05,3.88,17.506,4.75,30.75.816,12.411.777,20.622-.583,32.084a133.853,133.853,0,0,1-8.333,33.166c-4.517,9.782-9.65,18.737-10.167,19.667-5.8,10.439-7.909,13.186-10.167,20.833-1.029,3.487-1.423,8.262-2.166,17.667-1.233,15.583-.5,16.185-1.5,25a158.887,158.887,0,0,1-5,25.167,201.512,201.512,0,0,1-7.584,22.75c-5.5,13.333-10.994,24.721-16.75,24.083-5.462-.606-8.742-12.3-9.666-18.333a114.044,114.044,0,0,1-1-13c-.061-12.417.673-23.953,1.166-36.334.654-16.4-.014-12.753.667-34,.822-25.673,1.823-31.79,2.833-36.5,1.528-7.12,3.479-12.941,8.334-25.666,2.284-5.988,4.739-11.474,6.737-15.916a8.553,8.553,0,0,1,7.865-5.045Z"/></g><g id="88bcc5e9-91d5-4159-ad2e-93a55383b556" data-name="Pit-Inner"><path class="d0e027f1-0742-43e4-bd47-5e0dd288f05c" d="M75.573,671.278c1.493,11.475,8.611,21.185,14.181,31.225a253.315,253.315,0,0,1,13.034,27.044,3.44,3.44,0,0,1-3.218,4.725c-15.795-.092-18.715-.333-23.566-.561-.567-.026-5.25-.333-7.667-.583-1.073-.111-2.169,2.768-3.771,6.312-1.5,3.313-3.515,7.295-4.937,10.063-2.066,4.02-6.209,10.375-13.917,31.68"/></g><g id="b6ad71a3-ef72-440c-a5ab-6b544adf4f0f" data-name="Track-Inner"><path class="b8d59e0b-ea0a-4a0a-af46-0e4a2dc39eeb" d="M150.337,646.628l110.99,1.274a41.573,41.573,0,0,0,42.046-40.949q1.359-90.882,2.719-181.765a10.7,10.7,0,0,0-10.647-10.861q-30.577-.1-61.941.3c-21.462.279-33.754.18-50.75,1-8.782.424-16.838.95-24.006,1.5a16.51,16.51,0,0,1-17.684-15.349,65.838,65.838,0,0,1,1.44-20.409,176.54,176.54,0,0,1,5.625-18.867c2.575-6.2,3.937-8.75,7.5-17.625A96.556,96.556,0,0,0,161,327.19c2-9.562,1.469-16.98,1.5-21.562.277-41.323.5-89.167.75-131,.151-25.38,27-43.042,27-43.042a170.452,170.452,0,0,1,21.166-8.125c39.086-11.3,35.059-17.884,46.334-28.333,4.935-4.573,6.551-6.828,11.25-9.25,5.924-3.054,13.652-3.142,29.25-2.5,2.745.113,5.258.255,7.478.4a6.386,6.386,0,0,1,5.925,7.04l-3.82,36.641c-.864,10.782-1.882,19.469-2.667,25.5a167.14,167.14,0,0,0-1.833,19.334c-.2,7.342-.3,11.014.833,15.5a35.509,35.509,0,0,0,10.5,18,31.288,31.288,0,0,0,18.167,8.5,29.587,29.587,0,0,0,18.667-4.334c6.711-4.332,9.457-10.327,12.666-17.333,2.736-5.973,3.964-11.306,5.5-20.5,1.467-8.78,2.762-18.743,4.334-39.833.649-8.716,1.231-17.794,1.666-28.334.723-17.5.374-22.832,0-26.666A130.348,130.348,0,0,0,372,55.045c-2.819-10.9-5.338-14.023-7.5-16.417a34.536,34.536,0,0,0-10.75-7.917,49.334,49.334,0,0,0-12.417-3.833,66.563,66.563,0,0,0-15.5-1.25,75.675,75.675,0,0,0-15.667,2.583,65.761,65.761,0,0,0-15,6.584c-5.483,3.138-8.931,6.315-13.833,10.833a117.334,117.334,0,0,0-11.5,12c-1.97,2.319-6.3,7.746-13.083,16.083C243.428,90.082,245.37,88.1,241.67,91.628c-8.712,8.3-18.2,12.393-28.5,16.833-9.351,4.031-11.045,3.585-19.833,8a88.54,88.54,0,0,0-17.667,11c-5.158,4.227-11.3,9.214-16,18A59.227,59.227,0,0,0,153.5,165.8a70.034,70.034,0,0,0-.667,9.166c-.185,12.834-.867,25.666-.667,38.5.024,1.543.128,17.14.334,48.334.1,15.779.123,25.617-.334,38.833-.607,17.566-1.546,26.339-4.833,36.5-1.742,5.384-2.7,6.709-6.167,16-5.371,14.414-8.359,25.508-9,27.833-7.322,26.559-8.488,32.886-9.041,35.667-1.459,7.333-1.933,9.878,1.625,15.083,3.54,5.18,10.9,6.813,15.166,8.167,12.084,3.837,39.64,12.061,77.749,22.091a8.618,8.618,0,0,1,6.425,8.207l1.315,94.643a6.5,6.5,0,0,1-6.579,6.6c-13.6-.162-26.642-.916-41.889-1.481-7.7-.285-14.4-.471-22.042-.661a6.371,6.371,0,0,1-6.219-6.352c-.013-5.874-.043-14.81-.106-21.783a5.874,5.874,0,0,0-5.907-5.819l-80.565.41a4.578,4.578,0,0,0-3.327,7.708,76.4,76.4,0,0,1,6.9,8.352c7.679,10.775,10.576,20.788,12.5,27.666,2.812,10.05,3.88,17.506,4.75,30.75.816,12.411.777,20.622-.583,32.084A133.853,133.853,0,0,1,74,675.461c-4.517,9.782-9.65,18.737-10.167,19.667-5.8,10.439-7.909,13.186-10.167,20.833-1.029,3.487-1.423,8.262-2.166,17.667-1.233,15.583-.5,16.185-1.5,25A158.887,158.887,0,0,1,45,783.8a201.512,201.512,0,0,1-7.584,22.75c-5.5,13.333-10.994,24.721-16.75,24.083-5.462-.606-8.742-12.3-9.666-18.333a114.044,114.044,0,0,1-1-13c-.061-12.417.673-23.953,1.166-36.334.654-16.4-.014-12.753.667-34,.822-25.673,1.823-31.79,2.833-36.5C16.2,685.341,18.149,679.52,23,666.8c2.284-5.988,4.739-11.474,6.737-15.916a8.553,8.553,0,0,1,7.865-5.045Z"/></g><g id="ef789253-b940-473a-a58c-ad1097eb79b5" data-name="Crossover-Outer"><line class="dceb6ff6-4074-451c-8489-971b27adf31e" x1="56.629" y1="645.968" x2="113.754" y2="646.37"/></g><g id="3deffa33-6ada-4281-a322-73e9753db927" data-name="Crossover-Mid"><line class="839180d0-0cdb-40d7-aa7b-062c9b1932e2" x1="56.423" y1="646.028" x2="113.945" y2="646.433"/></g><g id="0b1f6639-c47b-4d8e-99c3-87cff1f69eab" data-name="Crossover-Inner"><line class="b8d59e0b-ea0a-4a0a-af46-0e4a2dc39eeb" x1="56.389" y1="645.973" x2="113.911" y2="646.378"/></g><g id="2a5d1ff3-5c9e-4cc1-b4ca-6febe13471b7" data-name="Start-Finish Line"><use width="200" height="103.617" transform="translate(225.929 664.461) rotate(-90) scale(0.166)" xlink:href="#8616752c-524f-4370-8d68-84e784bd3cb1"/></g><g id="ccd7983d-e7a3-4c4f-a6e8-1cb0dc33372c" data-name="Corner Numbers"><g id="cf59f584-2593-4b3e-b12a-dc8772ed2fa3" data-name="1"><path class="227d3e52-7c03-4d42-ad5b-89660d097e0b" d="M310.176,638.811a10.417,10.417,0,1,1-10.1,10.722h0c-.225-7.571-1.457-10.145-.766-10.88S302.633,639.033,310.176,638.811Z"/><path class="19bf7a97-4142-4eac-b79f-3f8bc950764c" d="M309.431,644.837h-.037L307.329,646,307,644.769l2.595-1.448,1.383-.023.2,11.989-1.567.026Z"/></g><g id="f6223d53-a7e9-4ac2-8ee1-0d262cf70df0" data-name="2"><path class="227d3e52-7c03-4d42-ad5b-89660d097e0b" d="M310.15,401a10.811,10.811,0,1,1,10.5,11.11h0c-7.858-.22-10.6.9-11.318.142S309.929,408.828,310.15,401Z"/><path class="19bf7a97-4142-4eac-b79f-3f8bc950764c" d="M316.592,407.394v-1.035l1.321-1.283c3.177-3.026,4.613-4.636,4.632-6.513a2.221,2.221,0,0,0-2.472-2.43,4.239,4.239,0,0,0-2.642,1.054L316.894,396a5.461,5.461,0,0,1,3.524-1.265,3.5,3.5,0,0,1,3.812,3.618c0,2.3-1.665,4.157-4.287,6.685l-1,.919V406l5.592,0v1.4Z"/></g><g id="02a14586-5705-489c-a5c0-403a053ee3c3" data-name="3"><path class="227d3e52-7c03-4d42-ad5b-89660d097e0b" d="M152.158,395.171A10.512,10.512,0,1,1,162.9,405.454h0c-7.642.165-10.25,1.387-10.985.684S152.321,402.785,152.158,395.171Z"/><path class="19bf7a97-4142-4eac-b79f-3f8bc950764c" d="M158.917,399.623a5.47,5.47,0,0,0,2.679.767c2.1,0,2.758-1.336,2.741-2.342-.017-1.694-1.542-2.422-3.124-2.425H160.3l0-1.228h.912c1.191,0,2.7-.611,2.7-2.044,0-.968-.612-1.826-2.119-1.828a4.445,4.445,0,0,0-2.422.8l-.426-1.192a5.748,5.748,0,0,1,3.166-.926c2.383,0,3.46,1.419,3.458,2.89a3,3,0,0,1-2.237,2.844v.038a3.151,3.151,0,0,1,2.694,3.112c0,1.936-1.513,3.629-4.417,3.625a6.159,6.159,0,0,1-3.145-.824Z"/></g><g id="951f4c8b-df6c-40de-b8f0-67916bc44eb6" data-name="4"><path class="227d3e52-7c03-4d42-ad5b-89660d097e0b" d="M177.8,327.2a10.195,10.195,0,1,1-3.8,13.907h0c-3.673-6.439-5.921-8.1-5.661-9.049S171.381,330.86,177.8,327.2Z"/><path class="19bf7a97-4142-4eac-b79f-3f8bc950764c" d="M183.205,341.505l0-3.195-5.451,0v-1.046l5.229-7.5H184.7l0,7.292h1.642v1.246H184.7l0,3.195Zm0-4.441,0-3.917q0-.921.054-1.841H183.2c-.36.686-.65,1.191-.974,1.734l-2.867,3.991v.036Z"/></g><g id="bb5c9470-d725-4a1a-8a74-179a9cacae3c" data-name="5"><path class="227d3e52-7c03-4d42-ad5b-89660d097e0b" d="M190.861,152.819a10.195,10.195,0,1,1-10.6,9.768h0c.3-7.406-.72-10,0-10.673S183.482,152.515,190.861,152.819Z"/><path class="19bf7a97-4142-4eac-b79f-3f8bc950764c" d="M193.916,158.529l-4.477,0-.453,3.015a6.182,6.182,0,0,1,.957-.071,4.947,4.947,0,0,1,2.526.633,3.342,3.342,0,0,1,1.678,3.015,4.07,4.07,0,0,1-4.37,4,5.736,5.736,0,0,1-2.925-.723l.4-1.21a5.237,5.237,0,0,0,2.509.652,2.588,2.588,0,0,0,2.781-2.543c-.017-1.517-1.027-2.6-3.374-2.6a12.35,12.35,0,0,0-1.624.125l.76-5.631,5.614,0Z"/></g><g id="4b4dfb0b-253d-4813-b14c-b5173a11aa2c" data-name="6"><path class="227d3e52-7c03-4d42-ad5b-89660d097e0b" d="M257.65,118.775a10.521,10.521,0,1,1-11.4,9.556h0c.671-7.62-.259-10.348.521-11S250.058,118.1,257.65,118.775Z"/><path class="19bf7a97-4142-4eac-b79f-3f8bc950764c" d="M259.317,123.96a5.9,5.9,0,0,0-1.229.072,4.922,4.922,0,0,0-4.217,4.3h.056a3.692,3.692,0,0,1,6.574,2.524,4.051,4.051,0,0,1-4.031,4.262c-2.589,0-4.282-2.018-4.278-5.167a7.613,7.613,0,0,1,2.057-5.456,6.594,6.594,0,0,1,3.878-1.783,7.908,7.908,0,0,1,1.192-.092Zm-.475,6.985a2.46,2.46,0,0,0-2.493-2.778A2.7,2.7,0,0,0,254,129.653a1.407,1.407,0,0,0-.188.727c.035,1.993.945,3.467,2.659,3.47C257.887,133.852,258.84,132.679,258.842,130.945Z"/></g><g id="fec3dbe5-21ee-406a-baf8-df09288d2498" data-name="7"><path class="227d3e52-7c03-4d42-ad5b-89660d097e0b" d="M282.566,96.27a10.468,10.468,0,1,1-13.478,6.125h0c2.674-7.126,2.508-9.989,3.43-10.409S275.466,93.606,282.566,96.27Z"/><path class="19bf7a97-4142-4eac-b79f-3f8bc950764c" d="M283.351,100.165v1.075L278.1,112.211h-1.686l5.235-10.656v-.037l-5.895,0v-1.354Z"/></g><g id="13a091fd-9553-44d0-b49d-8906484e4f32" data-name="8"><path class="227d3e52-7c03-4d42-ad5b-89660d097e0b" d="M314.409,224.555a10.468,10.468,0,1,1-11.416-9.425h0c7.577-.724,10.077-2.128,10.859-1.484S313.69,217.006,314.409,224.555Z"/><path class="19bf7a97-4142-4eac-b79f-3f8bc950764c" d="M300.144,228.6a3.443,3.443,0,0,1,2.393-3.225l-.019-.056a2.988,2.988,0,0,1-1.908-2.708c0-1.909,1.614-3.207,3.728-3.206,2.335,0,3.5,1.466,3.5,2.968a3.059,3.059,0,0,1-1.983,2.817v.056a3.342,3.342,0,0,1,2.427,3.115c0,2.095-1.8,3.5-4.1,3.5C301.664,231.862,300.144,230.36,300.144,228.6Zm6.489-.073c0-1.464-1.018-2.169-2.65-2.632a2.618,2.618,0,0,0-2.17,2.483,2.229,2.229,0,0,0,2.41,2.3A2.18,2.18,0,0,0,306.633,228.526Zm-4.484-6.026c0,1.205.908,1.854,2.3,2.226a2.375,2.375,0,0,0,1.835-2.188,1.872,1.872,0,0,0-2.038-1.966A1.918,1.918,0,0,0,302.149,222.5Z"/></g><g id="5402140f-abcf-4060-b18b-e0f948d5cfd8" data-name="9"><path class="227d3e52-7c03-4d42-ad5b-89660d097e0b" d="M356.563,12.984a10.468,10.468,0,1,1,12.082,8.554h0c-7.5,1.282-9.892,2.868-10.719,2.283S357.839,20.459,356.563,12.984Z"/><path class="19bf7a97-4142-4eac-b79f-3f8bc950764c" d="M363.6,15.637a6.757,6.757,0,0,0,1.316-.06,4.528,4.528,0,0,0,2.518-1.175,5.282,5.282,0,0,0,1.586-3.212h-.055a3.535,3.535,0,0,1-2.833,1.3,3.492,3.492,0,0,1-3.571-3.68,4.132,4.132,0,0,1,4.106-4.293c2.465-.006,3.991,1.992,4,5.069a7.611,7.611,0,0,1-2.063,5.66,6.024,6.024,0,0,1-3.5,1.623,7.659,7.659,0,0,1-1.5.1Zm.574-6.936a2.318,2.318,0,0,0,2.325,2.552,2.7,2.7,0,0,0,2.37-1.267,1.075,1.075,0,0,0,.146-.593c-.006-2.058-.769-3.632-2.475-3.627C365.148,5.77,364.169,7,364.173,8.7Z"/></g><g id="3d3dc7f8-81df-47bb-ab9e-31560805bbdb" data-name="10"><path class="227d3e52-7c03-4d42-ad5b-89660d097e0b" d="M218.659,88.924A10.468,10.468,0,1,1,231.2,81.059h0c-1.7,7.419-1.155,10.234-2.014,10.773S226.05,90.619,218.659,88.924Z"/><path class="19bf7a97-4142-4eac-b79f-3f8bc950764c" d="M215.58,74.864h-.037L213.449,76l-.317-1.242,2.632-1.411h1.391l.009,12.051h-1.576Z"/><path class="19bf7a97-4142-4eac-b79f-3f8bc950764c" d="M229.561,79.229c0,4.1-1.516,6.361-4.186,6.363-2.355,0-3.951-2.2-3.991-6.19,0-4.042,1.739-6.267,4.186-6.269C228.11,73.131,229.558,75.392,229.561,79.229Zm-6.545.191c0,3.133.967,4.912,2.45,4.911,1.669,0,2.465-1.949,2.463-5.026,0-2.966-.763-4.912-2.451-4.911C224.05,74.4,223.013,76.138,223.016,79.42Z"/></g><g id="0e6572bd-04ca-4a7d-8007-46d614b70c29" data-name="11"><path class="227d3e52-7c03-4d42-ad5b-89660d097e0b" d="M150.393,128.427a10.468,10.468,0,1,1,10.853-10.069h0c-.285,7.606.776,10.27.034,10.959S157.971,128.712,150.393,128.427Z"/><path class="19bf7a97-4142-4eac-b79f-3f8bc950764c" d="M146.132,113.724H146.1L144,114.854l-.316-1.242,2.633-1.409h1.391l0,12.051h-1.576Z"/><path class="19bf7a97-4142-4eac-b79f-3f8bc950764c" d="M155.641,113.725H155.6l-2.1,1.13-.315-1.242,2.633-1.409h1.39l0,12.05h-1.576Z"/></g><g id="5451f3da-f246-4dd4-bd24-72724b7f21b2" data-name="12"><path class="227d3e52-7c03-4d42-ad5b-89660d097e0b" d="M131.128,335.7a10.468,10.468,0,1,1,3.619-14.354h0c3.9,6.534,6.244,8.191,6,9.174S137.639,331.81,131.128,335.7Z"/><path class="19bf7a97-4142-4eac-b79f-3f8bc950764c" d="M120.519,321.962h-.037l-2.094,1.132-.316-1.242,2.633-1.41h1.39l0,12.051h-1.576Z"/><path class="19bf7a97-4142-4eac-b79f-3f8bc950764c" d="M126.49,332.491v-1l1.279-1.243c3.077-2.93,4.466-4.487,4.485-6.3a2.151,2.151,0,0,0-2.393-2.354,4.107,4.107,0,0,0-2.557,1.02l-.52-1.149a5.294,5.294,0,0,1,3.411-1.225,3.391,3.391,0,0,1,3.69,3.5c0,2.226-1.612,4.024-4.15,6.472l-.965.891v.037l5.414,0v1.353Z"/></g><g id="f8d0a93d-9677-4c65-874b-8579e78b6948" data-name="13"><path class="227d3e52-7c03-4d42-ad5b-89660d097e0b" d="M112.954,443.7a10.468,10.468,0,1,1-6.979-13.055h0c7.284,2.209,10.13,1.859,10.608,2.753S115.157,436.44,112.954,443.7Z"/><path class="19bf7a97-4142-4eac-b79f-3f8bc950764c" d="M97.655,436.143h-.037l-2.094,1.131-.316-1.241,2.632-1.411h1.391l.006,12.05H97.661Z"/><path class="19bf7a97-4142-4eac-b79f-3f8bc950764c" d="M104.017,444.8a5.454,5.454,0,0,0,2.67.758c2.095,0,2.743-1.336,2.724-2.337-.02-1.688-1.539-2.409-3.115-2.408h-.909v-1.224h.909c1.186,0,2.688-.613,2.687-2.041,0-.964-.613-1.817-2.114-1.816a4.412,4.412,0,0,0-2.409.8l-.428-1.185a5.72,5.72,0,0,1,3.151-.929c2.373,0,3.449,1.407,3.449,2.871a2.992,2.992,0,0,1-2.223,2.838v.037a3.139,3.139,0,0,1,2.689,3.095c0,1.928-1.5,3.616-4.391,3.617a6.135,6.135,0,0,1-3.134-.813Z"/></g><g id="f4254a98-591b-44cf-8a60-69c11add6aaa" data-name="14"><path class="227d3e52-7c03-4d42-ad5b-89660d097e0b" d="M229.876,450.269a10.468,10.468,0,1,1,10.217,10.713h0c-7.609-.18-10.258.918-10.958.185S229.694,457.851,229.876,450.269Z"/><path class="19bf7a97-4142-4eac-b79f-3f8bc950764c" d="M234.185,446.4h-.037l-2.1,1.13-.314-1.242,2.633-1.408h1.39l0,12.05H234.18Z"/><path class="19bf7a97-4142-4eac-b79f-3f8bc950764c" d="M245.191,456.937v-3.282l-5.6,0v-1.075l5.379-7.691h1.762l0,7.489h1.687v1.279h-1.687v3.282Zm0-4.561,0-4.023q0-.947.057-1.891H245.2c-.372.7-.668,1.223-1,1.779l-2.95,4.1v.037Z"/></g><g id="39139726-25f7-4411-87ca-797e1a2b42c2" data-name="15"><path class="227d3e52-7c03-4d42-ad5b-89660d097e0b" d="M239.917,576.175A10.468,10.468,0,1,1,229.2,586.393h0c.181-7.609-.917-10.258-.184-10.958S232.336,575.994,239.917,576.175Z"/><path class="19bf7a97-4142-4eac-b79f-3f8bc950764c" d="M233.454,582h-.037l-2.1,1.13-.315-1.242,2.633-1.408h1.391l0,12.049h-1.576Z"/><path class="19bf7a97-4142-4eac-b79f-3f8bc950764c" d="M246.615,581.853l-4.6,0-.465,3.1a6.461,6.461,0,0,1,.983-.074,5.1,5.1,0,0,1,2.595.65,3.437,3.437,0,0,1,1.723,3.1,4.18,4.18,0,0,1-4.488,4.114,5.907,5.907,0,0,1-3-.743l.409-1.242a5.4,5.4,0,0,0,2.576.669A2.66,2.66,0,0,0,245.2,588.8c-.019-1.557-1.056-2.67-3.466-2.671a12.4,12.4,0,0,0-1.668.129l.78-5.784,5.766,0Z"/></g><g id="552689c7-f8ad-4ffa-9fd9-1768f337b30e" data-name="16"><path class="227d3e52-7c03-4d42-ad5b-89660d097e0b" d="M145,584.377a10.468,10.468,0,1,1-10.217-10.713h0c7.609.18,10.258-.918,10.958-.185S145.178,576.8,145,584.377Z"/><path class="19bf7a97-4142-4eac-b79f-3f8bc950764c" d="M129.165,579.173h-.037l-2.1,1.13-.315-1.242,2.633-1.409h1.391l-.005,12.05H129.16Z"/><path class="19bf7a97-4142-4eac-b79f-3f8bc950764c" d="M142.011,578.808a5.853,5.853,0,0,0-1.223.073,4.9,4.9,0,0,0-4.193,4.281h.056a3.673,3.673,0,0,1,6.543,2.506,4.029,4.029,0,0,1-4.006,4.243c-2.577,0-4.264-2-4.263-5.137a7.575,7.575,0,0,1,2.043-5.431,6.554,6.554,0,0,1,3.856-1.779,7.961,7.961,0,0,1,1.187-.091Zm-.466,6.952A2.45,2.45,0,0,0,139.061,583a2.684,2.684,0,0,0-2.337,1.483,1.382,1.382,0,0,0-.185.722c.036,1.984.943,3.448,2.649,3.449C140.6,588.651,141.544,587.483,141.545,585.76Z"/></g><g id="8626b6b2-9d6c-4ad0-ac80-caedc82e333f" data-name="17"><path class="227d3e52-7c03-4d42-ad5b-89660d097e0b" d="M153.682,521.274A10.468,10.468,0,1,1,163.9,531.987h0c-7.609-.18-10.258.918-10.958.185S153.5,528.855,153.682,521.274Z"/><path class="19bf7a97-4142-4eac-b79f-3f8bc950764c" d="M158.317,518.128h-.037l-2.1,1.13-.314-1.242,2.633-1.409h1.39l0,12.05h-1.576Z"/><path class="19bf7a97-4142-4eac-b79f-3f8bc950764c" d="M172.109,516.613v1.075l-5.252,10.974h-1.686L170.4,518v-.037l-5.9,0V516.61Z"/></g><g id="f39bd883-77a4-42fd-a13f-62e13b21f211" data-name="18"><path class="227d3e52-7c03-4d42-ad5b-89660d097e0b" d="M41.6,531.731a10.468,10.468,0,1,1,10.713-10.217h0c-.18,7.61.918,10.259.185,10.959S49.177,531.913,41.6,531.731Z"/><path class="19bf7a97-4142-4eac-b79f-3f8bc950764c" d="M36.318,517.468h-.037l-2.1,1.13-.314-1.243,2.633-1.408h1.39l0,12.05H36.313Z"/><path class="19bf7a97-4142-4eac-b79f-3f8bc950764c" d="M42.133,524.941a3.444,3.444,0,0,1,2.394-3.224l-.019-.056a2.987,2.987,0,0,1-1.908-2.708c0-1.909,1.615-3.206,3.728-3.2,2.336,0,3.5,1.466,3.5,2.968a3.06,3.06,0,0,1-1.985,2.816v.056a3.341,3.341,0,0,1,2.427,3.116c0,2.1-1.8,3.5-4.1,3.5C43.653,528.205,42.132,526.7,42.133,524.941Zm6.49-.071c0-1.465-1.019-2.17-2.65-2.634A2.619,2.619,0,0,0,43.8,524.72a2.23,2.23,0,0,0,2.41,2.3A2.181,2.181,0,0,0,48.623,524.87Zm-4.484-6.027c0,1.205.908,1.854,2.3,2.225a2.372,2.372,0,0,0,1.836-2.186,1.872,1.872,0,0,0-2.038-1.966A1.917,1.917,0,0,0,44.139,518.843Z"/></g><g id="ca7f29b9-7436-441c-8673-a545d40bf58e" data-name="19"><path class="227d3e52-7c03-4d42-ad5b-89660d097e0b" d="M38.16,710.1a10.468,10.468,0,1,1,7.866-12.541h0c1.7,7.419,3.416,9.716,2.878,10.575S45.552,708.4,38.16,710.1Z"/><path class="19bf7a97-4142-4eac-b79f-3f8bc950764c" d="M30.65,696.172h-.037L28.519,697.3l-.316-1.242,2.632-1.411h1.39l.009,12.051H30.658Z"/><path class="19bf7a97-4142-4eac-b79f-3f8bc950764c" d="M37.57,705.548a6.714,6.714,0,0,0,1.316-.057,4.533,4.533,0,0,0,2.521-1.17A5.281,5.281,0,0,0,43,701.113h-.056a3.536,3.536,0,0,1-2.836,1.3,3.491,3.491,0,0,1-3.562-3.686,4.132,4.132,0,0,1,4.113-4.287c2.466,0,3.987,2,3.99,5.078a7.618,7.618,0,0,1-2.073,5.656,6.024,6.024,0,0,1-3.5,1.615,7.63,7.63,0,0,1-1.5.094Zm.589-6.935a2.319,2.319,0,0,0,2.319,2.558,2.7,2.7,0,0,0,2.372-1.263,1.075,1.075,0,0,0,.149-.594c0-2.057-.763-3.632-2.469-3.631C39.139,695.684,38.158,696.908,38.159,698.613Z"/></g><g id="d607d97f-9523-4b2e-9312-3620ebf27564" data-name="20"><path class="227d3e52-7c03-4d42-ad5b-89660d097e0b" d="M25.063,847.25a10.468,10.468,0,1,1-14.657-2.076h0c6.083-4.574,7.482-7.078,8.485-6.936S20.507,841.188,25.063,847.25Z"/><path class="19bf7a97-4142-4eac-b79f-3f8bc950764c" d="M9.024,859.208l0-.926,1.194-1.147c2.872-2.705,4.17-4.143,4.191-5.823a2,2,0,0,0-2.225-2.183,3.846,3.846,0,0,0-2.386.938L9.319,849a4.959,4.959,0,0,1,3.181-1.126,3.148,3.148,0,0,1,3.431,3.248c0,2.058-1.509,3.72-3.881,5.979l-.9.822v.034l5.043.009,0,1.252Z"/><path class="19bf7a97-4142-4eac-b79f-3f8bc950764c" d="M25.36,853.543c-.007,3.791-1.427,5.88-3.915,5.876-2.193,0-3.675-2.048-3.7-5.735.007-3.739,1.635-5.794,3.914-5.79C24.023,847.9,25.366,849.993,25.36,853.543Zm-6.1.161c-.006,2.9.89,4.546,2.272,4.549,1.555,0,2.3-1.8,2.306-4.645,0-2.744-.7-4.546-2.272-4.548C20.238,849.057,19.267,850.668,19.262,853.7Z"/></g><g id="8d1c671f-d336-4a9d-a821-1f3e388d9aec" data-name="21"><path class="227d3e52-7c03-4d42-ad5b-89660d097e0b" d="M19.6,636.593a10.468,10.468,0,1,1,13.646-5.74h0c-2.875,7.047-2.791,9.914-3.725,10.307S26.622,639.459,19.6,636.593Z"/><path class="19bf7a97-4142-4eac-b79f-3f8bc950764c" d="M16.713,632.577v-.926l1.193-1.148c2.869-2.708,4.165-4.148,4.184-5.828a2,2,0,0,0-2.227-2.181,3.839,3.839,0,0,0-2.384.942L17,622.372a4.95,4.95,0,0,1,3.179-1.13,3.149,3.149,0,0,1,3.435,3.245c0,2.058-1.5,3.721-3.874,5.983l-.9.822v.034l5.043,0v1.252Z"/><path class="19bf7a97-4142-4eac-b79f-3f8bc950764c" d="M28.882,622.845h-.034L26.9,623.889l-.293-1.15,2.454-1.3h1.3l-.009,11.149H28.875Z"/></g></g></g></g></g></svg>