<svg xmlns="http://www.w3.org/2000/svg" xmlns:xlink="http://www.w3.org/1999/xlink" width="830.629" height="634.952" viewBox="0 0 830.629 634.952"><defs><style>.\33 ef7a382-ba85-4527-917d-cf72387ea508{fill:#00ff24;}.\33 ef7a382-ba85-4527-917d-cf72387ea508,.d0ac70c7-6b86-485f-8111-ea1274d168d7{stroke:#000;stroke-width:5px;}.\32 a41a477-5bd9-4172-9ded-d803be84c8cb,.\33 ef7a382-ba85-4527-917d-cf72387ea508,.c0323a68-c413-476c-b2fb-9b7cce0a2100,.c2919296-4439-4297-b04a-bc20538698d5,.c59e42b2-a74a-438f-bd90-8c641aa28eec,.d0ac70c7-6b86-485f-8111-ea1274d168d7,.f350b82e-480a-450d-ac6d-23b12e74e2ee,.f47861ba-d224-4a37-b43c-e53cc6fb9250{stroke-miterlimit:10;}.\31 d7f70a9-a943-4d5d-a9f4-c9f106c8f410,.d0ac70c7-6b86-485f-8111-ea1274d168d7{fill:#fff;}.\32 a41a477-5bd9-4172-9ded-d803be84c8cb,.c0323a68-c413-476c-b2fb-9b7cce0a2100,.c2919296-4439-4297-b04a-bc20538698d5,.c59e42b2-a74a-438f-bd90-8c641aa28eec,.f47861ba-d224-4a37-b43c-e53cc6fb9250{fill:none;}.c2919296-4439-4297-b04a-bc20538698d5,.f47861ba-d224-4a37-b43c-e53cc6fb9250{stroke:#c91d1d;}.c2919296-4439-4297-b04a-bc20538698d5,.c59e42b2-a74a-438f-bd90-8c641aa28eec{stroke-width:20px;}.c0323a68-c413-476c-b2fb-9b7cce0a2100,.c59e42b2-a74a-438f-bd90-8c641aa28eec{stroke:#007fff;}.\32 a41a477-5bd9-4172-9ded-d803be84c8cb,.f350b82e-480a-450d-ac6d-23b12e74e2ee{stroke:#fff;}.\32 a41a477-5bd9-4172-9ded-d803be84c8cb{stroke-width:10px;}.c0323a68-c413-476c-b2fb-9b7cce0a2100,.f47861ba-d224-4a37-b43c-e53cc6fb9250{stroke-width:2px;}.f350b82e-480a-450d-ac6d-23b12e74e2ee{fill:#333;stroke-width:1.5px;}</style><symbol id="e02a5c48-82a7-46b3-8c73-2404558c665e" data-name="fd103434-89f2-4089-acf9-54fed79ed404" viewBox="0 0 200 103.617"><rect class="3ef7a382-ba85-4527-917d-cf72387ea508" x="2.5" y="54.074" width="195" height="47.043"/><rect class="d0ac70c7-6b86-485f-8111-ea1274d168d7" x="2.5" y="2.5" width="48.75" height="48.75"/><rect class="d0ac70c7-6b86-485f-8111-ea1274d168d7" x="51.25" y="2.5" width="48.75" height="48.75"/><rect class="d0ac70c7-6b86-485f-8111-ea1274d168d7" x="100" y="2.5" width="48.75" height="48.75"/><rect class="d0ac70c7-6b86-485f-8111-ea1274d168d7" x="148.75" y="2.5" width="48.75" height="48.75"/></symbol></defs><title>SCRZ_Portrum_Alba</title><g id="b8e1ae2e-21d5-44e6-b5e6-e2cb6ada322b" data-name="Layer 2"><g id="2554ddce-9c70-4556-9e5c-25f967ce70d3" data-name="Docks"><g id="549c8d63-915b-4f00-81b3-d4ef28d183f8" data-name="SCRZ_Portrum_Alba"><g id="934800d3-c097-4207-9ea0-962fdb3890ff" data-name="Pit-Outer"><path class="c2919296-4439-4297-b04a-bc20538698d5" d="M193.824,364.3c12.584,2.708,22.25,6.467,35.75,5.208,6.111-.57,18.745-8.245,23.322-13.012,17.415-18.14,22.65-25.755,34.82-39.446a330.382,330.382,0,0,1,23.733-24.75c4.558-4.3,20.552-19.573,40.125-40.5,1.8-1.924,10.368-10.571,12.917-15.875a45.111,45.111,0,0,0,4-27c-2.413-14.334-11.238-22.918-14.5-26-5.559-5.252-15.5-6.75-22.58-11.419"/></g><g id="9c0e6b0d-9903-4f66-b522-b8830f4ed767" data-name="Track-Outer"><path class="c59e42b2-a74a-438f-bd90-8c641aa28eec" d="M248.741,475.344c-34.87,33.9-25.733,29.171-73,73.666-14.137,13.307-26.9,28.035-37.333,37.667-10.745,9.916-31.084,29-55.834,34.75-26.9,6.25-46.376-4.538-52.833-11.834-14.75-16.666-16.333-33.583-9.128-51.916,5.9-15.022,14.461-23.334,28.786-29.209,11.857-4.863,32.835-9.034,47.925-12.791,18.553-4.621,25.913-8.6,28.417-9.667,4.178-1.786,21.836-9.643,31.333-29,7.564-15.416,6.081-30.871,4.667-38-1.6-8.045-2.889-10.841-5-22.666-1.437-8.049-2.29-23.816,6-35,4.472-6.035,10.246-7.856,31.083-17.042,9.934-4.38,20.755-9.174,33.917-18.625a161.634,161.634,0,0,0,22.333-19.667c44.861-45.472,48.225-48.987,61.667-61.333,5.513-5.064,13.959-13.573,30.667-31.333,3.465-3.684,8.573-9.255,10-17.667.4-2.375,1.057-8.2-3-18.667-1.648-4.251-7.847-18.252-27.709-34.083a250.428,250.428,0,0,1-21.291-18.583c-6.329-6.172-12.348-16.872-10-32.334a42.355,42.355,0,0,1,10.333-21.666C312.7,75.8,320.1,68.1,328.074,59.344c13.472-14.8,17.408-18.264,19.5-19.334a50.116,50.116,0,0,1,35.667-4.333c12.4,2.875,13.879,9.456,27.5,14.333,14.083,5.042,27.485,5.833,33.833,6.167,5.086.267,11.217.135,19.584.166,16.332.062,24.573-.231,41.25,0,42.041.583,54.16.292,60.416.333,10.519.067,20.834-1.334,35.334,1.666a87.131,87.131,0,0,1,19.729,7.146c8.768,4.359,13.233,6.124,24.854,13.521,17.75,11.3,19.792,11.849,23.5,19.542,2.867,5.946,2.125,11.541.958,15.875-1.588,5.9-4.958,12.416-9.708,19.416-6.758,9.959-10.835,14.93-15.5,17.584-5.949,3.382-10.372,4.51-19.042,3.5-6.531-.762-12.347-2.524-19.041-9-1.395-1.35-4.112-4.706-8.834-11.25-5.247-7.272-6.454-9.158-9.333-13a70.473,70.473,0,0,0-17.667-15c-8.139-4.731-15.381-7.785-29.833-9a410.116,410.116,0,0,0-42.583-1.084c-13.058.241-18.048,2.627-25.584,7.084-16.558,9.795-21.948,27.724-23.333,32.333-2.027,6.743-2.757,14.028-3.083,26.333-.334,12.584-.267,20.583-.584,34.75-.164,7.342-.338,17.421-.311,29.486a9.4,9.4,0,0,0,9.332,9.37c19.211.13,36.691.631,47.479.733,17.75.166,24.905-.05,39.084-.13,10.916-.063,19.647.092,37.75-4.209,28.094-6.675,48.022-16.781,54.916-18.916,29.012-8.986,29.5-10.181,43.125-13.625,25.037-6.33,45.236-4.73,60.625-4.792a317.281,317.281,0,0,1,49.539,3.7,10.116,10.116,0,0,1,6.13,16.647c-1.837,2.088-3.833,4.205-6,6.322a102.188,102.188,0,0,1-33,22.333c-5.4,2.211-10.87,3.847-24.667,6.334-26.489,4.773-42.915,6.546-68.666,9.5-13.812,1.584-34.273,3.113-43.174,3.72-15.75,1.073-39.576.7-68.16.781-18.071.052-44.124-.514-76.378-.64a10.381,10.381,0,0,1-10.343-10.252c-.211-17.968-.427-42.01-.537-54.746a8.993,8.993,0,0,0-8.877-8.917c-7.422-.1-18.119-.139-29.365.3-8.508.335-16.875.417-21.375,3.834a47.131,47.131,0,0,0-9.875,10c-2.427,3.292-6.454,12.179-6.353,19.1.031,2.146,1.4,12.558,3.1,22.025,2.318,12.852-.757,18.473-2.125,21-2.109,3.9-3.791,5.5-7.625,9.75-2.4,2.657-7.968,8.129-15.5,15.5-13.427,13.141-15.841,16.352-26.75,27.708-8.81,9.171-12,12.805-13.666,16.167-2.4,4.85-5.525,8.045-8.834,15-4.166,8.833-6.07,13.219-7.25,15.375-4.183,7.645-5.13,8.953-8.625,15.5a149.959,149.959,0,0,0-8.346,17.806c-2.119,5.282-4.674,11.489-7.195,18.652,0,0-3.917,10.417-8.75,23.5C270.5,454.289,262.761,461.713,248.741,475.344Z"/></g><g id="8d8f3f10-286f-48c5-8c55-be46fc8edff4" data-name="Pir-Inner"><path class="2a41a477-5bd9-4172-9ded-d803be84c8cb" d="M193.824,364.3c13.584.375,22.25,6.467,35.75,5.208,6.111-.57,18.745-8.245,23.322-13.012,17.415-18.14,22.65-25.755,34.82-39.446a330.382,330.382,0,0,1,23.733-24.75c4.558-4.3,20.552-19.573,40.125-40.5,1.8-1.924,10.368-10.571,12.917-15.875a45.111,45.111,0,0,0,4-27c-2.413-14.334-11.238-22.918-14.5-26-5.559-5.252-15.5-6.75-22.58-11.419"/></g><g id="64c0ab07-afab-4e2c-942a-95b4a82aaf6a" data-name="Track-Mid"><path class="2a41a477-5bd9-4172-9ded-d803be84c8cb" d="M248.741,475.344c-34.87,33.9-25.733,29.171-73,73.666-14.137,13.307-26.9,28.035-37.333,37.667-10.745,9.916-31.084,29-55.834,34.75-26.9,6.25-46.376-4.538-52.833-11.834-14.75-16.666-16.333-33.583-9.128-51.916,5.9-15.022,14.461-23.334,28.786-29.209,11.857-4.863,32.835-9.034,47.925-12.791,18.553-4.621,25.913-8.6,28.417-9.667,4.178-1.786,21.836-9.643,31.333-29,7.564-15.416,6.081-30.871,4.667-38-1.6-8.045-2.889-10.841-5-22.666-1.437-8.049-2.29-23.816,6-35,4.472-6.035,10.246-7.856,31.083-17.042,9.934-4.38,20.755-9.174,33.917-18.625a161.634,161.634,0,0,0,22.333-19.667c44.861-45.472,48.225-48.987,61.667-61.333,5.513-5.064,13.959-13.573,30.667-31.333,3.465-3.684,8.573-9.255,10-17.667.4-2.375,1.057-8.2-3-18.667-1.648-4.251-7.847-18.252-27.709-34.083a250.428,250.428,0,0,1-21.291-18.583c-6.329-6.172-12.348-16.872-10-32.334a42.355,42.355,0,0,1,10.333-21.666C312.7,75.8,320.1,68.1,328.074,59.344c13.472-14.8,17.408-18.264,19.5-19.334a50.116,50.116,0,0,1,35.667-4.333c12.4,2.875,13.879,9.456,27.5,14.333,14.083,5.042,27.485,5.833,33.833,6.167,5.086.267,11.217.135,19.584.166,16.332.062,24.573-.231,41.25,0,42.041.583,54.16.292,60.416.333,10.519.067,20.834-1.334,35.334,1.666a87.131,87.131,0,0,1,19.729,7.146c8.768,4.359,13.233,6.124,24.854,13.521,17.75,11.3,19.792,11.849,23.5,19.542,2.867,5.946,2.125,11.541.958,15.875-1.588,5.9-4.958,12.416-9.708,19.416-6.758,9.959-10.835,14.93-15.5,17.584-5.949,3.382-10.372,4.51-19.042,3.5-6.531-.762-12.347-2.524-19.041-9-1.395-1.35-4.112-4.706-8.834-11.25-5.247-7.272-6.454-9.158-9.333-13a70.473,70.473,0,0,0-17.667-15c-8.139-4.731-15.381-7.785-29.833-9a410.116,410.116,0,0,0-42.583-1.084c-13.058.241-18.048,2.627-25.584,7.084-16.558,9.795-21.948,27.724-23.333,32.333-2.027,6.743-2.757,14.028-3.083,26.333-.334,12.584-.267,20.583-.584,34.75-.164,7.342-.338,17.421-.311,29.486a9.4,9.4,0,0,0,9.332,9.37c19.211.13,36.691.631,47.479.733,17.75.166,24.905-.02,39.084-.13,10.75-.084,19.735.56,37.75-4.209,28.333-7.5,48.022-16.781,54.916-18.916,29.012-8.986,29.5-10.181,43.125-13.625,25.037-6.33,45.236-4.73,60.625-4.792a317.281,317.281,0,0,1,49.539,3.7,10.116,10.116,0,0,1,6.13,16.647c-1.837,2.088-3.833,4.205-6,6.322a102.188,102.188,0,0,1-33,22.333c-5.4,2.211-10.87,3.847-24.667,6.334-26.489,4.773-42.915,6.546-68.666,9.5-13.812,1.584-34.273,3.113-43.174,3.72-15.75,1.073-39.576.7-68.16.781-18.071.052-44.124-.514-76.378-.64a10.381,10.381,0,0,1-10.343-10.252c-.211-17.968-.427-42.01-.537-54.746a8.993,8.993,0,0,0-8.877-8.917c-7.422-.1-18.113.074-29.365.3-10.187.209-18.937,1.834-22.43,4.655a56.655,56.655,0,0,0-10.156,11.286,31.532,31.532,0,0,0-4.895,14.545c-.2,4.1,1.6,13.862,2.981,24.473,1.681,12.951-.757,18.473-2.125,21-2.109,3.9-3.791,5.5-7.625,9.75-2.4,2.657-7.968,8.129-15.5,15.5-13.427,13.141-15.841,16.352-26.75,27.708-8.81,9.171-13.21,12.993-14.875,16.354-2.4,4.851-4.316,7.858-7.625,14.813-4.166,8.833-6.07,13.219-7.25,15.375-4.183,7.645-4.913,9.073-8.625,15.5a107.4,107.4,0,0,0-8.541,18.208c-2.167,5.583-4.479,11.087-7,18.25,0,0-4.6,10.38-8.75,23.5C271.134,454.506,262.761,461.713,248.741,475.344Z"/></g><g id="37017339-b4b3-4305-94fc-d05a972960a1" data-name="Pit-Inner"><path class="f47861ba-d224-4a37-b43c-e53cc6fb9250" d="M193.824,364.3c12.834.5,22.25,6.467,35.75,5.208,6.111-.57,18.745-8.245,23.322-13.012,17.415-18.14,22.65-25.755,34.82-39.446a330.382,330.382,0,0,1,23.733-24.75c4.558-4.3,20.552-19.573,40.125-40.5,1.8-1.924,10.368-10.571,12.917-15.875a45.111,45.111,0,0,0,4-27c-2.413-14.334-11.238-22.918-14.5-26-5.559-5.252-15.5-6.75-22.58-11.419"/></g><g id="db4eab89-00e8-4dd2-9b0c-7b01e13f1f29" data-name="Track-Inner"><path class="c0323a68-c413-476c-b2fb-9b7cce0a2100" d="M248.741,475.344c-34.87,33.9-25.733,29.171-73,73.666-14.137,13.307-26.9,28.035-37.333,37.667-10.745,9.916-31.084,29-55.834,34.75-26.9,6.25-46.376-4.538-52.833-11.834-14.75-16.666-16.333-33.583-9.128-51.916,5.9-15.022,14.461-23.334,28.786-29.209,11.857-4.863,32.835-9.034,47.925-12.791,18.553-4.621,25.913-8.6,28.417-9.667,4.178-1.786,21.836-9.643,31.333-29,7.564-15.416,6.081-30.871,4.667-38-1.6-8.045-2.889-10.841-5-22.666-1.437-8.049-2.29-23.816,6-35,4.472-6.035,10.246-7.856,31.083-17.042,9.934-4.38,20.755-9.174,33.917-18.625a161.634,161.634,0,0,0,22.333-19.667c44.861-45.472,48.225-48.987,61.667-61.333,5.513-5.064,13.959-13.573,30.667-31.333,3.465-3.684,8.573-9.255,10-17.667.4-2.375,1.057-8.2-3-18.667-1.648-4.251-7.847-18.252-27.709-34.083a250.428,250.428,0,0,1-21.291-18.583c-6.329-6.172-12.348-16.872-10-32.334a42.355,42.355,0,0,1,10.333-21.666C312.7,75.8,320.1,68.1,328.074,59.344c13.472-14.8,16.4-16.626,19.563-18.98,8.185-6.085,17-6.3,19.375-6.5a59.262,59.262,0,0,1,16.229,1.813c12.4,2.875,13.879,9.456,27.5,14.333,14.083,5.042,27.485,5.833,33.833,6.167,5.086.267,11.217.135,19.584.166,16.332.062,24.573-.231,41.25,0,42.041.583,54.16.292,60.416.333,10.519.067,20.834-1.334,35.334,1.666a87.131,87.131,0,0,1,19.729,7.146c8.768,4.359,13.233,6.124,24.854,13.521,17.75,11.3,19.792,11.849,23.5,19.542,2.867,5.946,2.125,11.541.958,15.875-1.588,5.9-4.958,12.416-9.708,19.416-6.758,9.959-10.835,14.93-15.5,17.584-5.949,3.382-10.372,4.51-19.042,3.5-6.531-.762-12.347-2.524-19.041-9-1.395-1.35-4.112-4.706-8.834-11.25-5.247-7.272-6.454-9.158-9.333-13a70.473,70.473,0,0,0-17.667-15c-8.139-4.731-15.381-7.785-29.833-9a410.116,410.116,0,0,0-42.583-1.084c-13.058.241-18.048,2.627-25.584,7.084-16.558,9.795-21.948,27.724-23.333,32.333-2.027,6.743-2.757,14.028-3.083,26.333-.334,12.584-.267,20.583-.584,34.75-.164,7.341-.338,17.418-.311,29.479a9.4,9.4,0,0,0,9.339,9.377c19.208.13,36.686.631,47.472.733,17.75.166,24.915.4,39.084-.13,10.9-.41,19.921,1.113,37.75-4.209,27.451-8.194,48.093-16.562,54.916-18.916,28.25-9.75,29.5-10.181,43.125-13.625,25.037-6.33,45.236-4.73,60.625-4.792a317.246,317.246,0,0,1,49.536,3.7,10.117,10.117,0,0,1,6.131,16.649c-1.836,2.088-3.832,4.2-6,6.32a102.188,102.188,0,0,1-33,22.333c-5.4,2.211-10.87,3.847-24.667,6.334-26.489,4.773-42.915,6.546-68.666,9.5-13.812,1.584-34.273,3.113-43.174,3.72-15.75,1.073-39.576.7-68.16.781-18.071.052-44.125-.514-76.38-.64a10.374,10.374,0,0,1-10.34-10.246c-.212-17.972-.428-42.022-.538-54.758a8.982,8.982,0,0,0-8.857-8.91c-7.423-.1-18.123.073-29.385.3-10.187.209-18.937,1.834-22.43,4.655a56.655,56.655,0,0,0-10.156,11.286,31.532,31.532,0,0,0-4.895,14.545c-.2,4.1,1.6,13.862,2.981,24.473,1.681,12.951-.757,18.473-2.125,21-2.109,3.9-3.791,5.5-7.625,9.75-2.4,2.657-7.968,8.129-15.5,15.5-13.427,13.141-15.841,16.352-26.75,27.708-8.656,9.01-11.9,12.292-15.021,16.207a2.605,2.605,0,0,0-.287.453c-2.336,4.708-3.939,7.669-7.192,14.507-4.166,8.833-6.07,13.219-7.25,15.375-4.183,7.645-5.25,8.89-8.625,15.5-4,7.829-5.625,11.531-8.541,18.208-2.486,5.69-4.479,11.087-7,18.25,0,0-4.165,10.323-8.75,23.5C270.755,454.38,262.761,461.713,248.741,475.344Z"/></g><g id="677d4f53-9596-4f0a-8c2b-12282300c2fe" data-name="Crossover-Outer"><path class="c59e42b2-a74a-438f-bd90-8c641aa28eec" d="M446.376,177.806c-.156,10.183-.328,24.812-.52,41.6-.028,2.43-.336,7.4.2,9.5a9.491,9.491,0,0,0,6.911,6.786c1.9.478,6.738.332,8.62.349,15.086.135,25.191.377,33.555.535"/></g><g id="38af78b3-d20d-4478-86d3-74441d099dde" data-name="Crossover-Mid"><path class="2a41a477-5bd9-4172-9ded-d803be84c8cb" d="M446.376,177.806c-.156,10.183-.328,24.812-.52,41.6-.028,2.43-.336,7.4.2,9.5a9.491,9.491,0,0,0,6.911,6.786c1.9.478,6.738.332,8.62.349,15.086.135,25.191.377,33.555.535"/></g><g id="babd45b9-3518-4591-a7b7-8b86298f9692" data-name="Crossover-Inner"><path class="c0323a68-c413-476c-b2fb-9b7cce0a2100" d="M446.376,177.806c-.156,10.183-.328,24.812-.52,41.6-.028,2.43-.336,7.4.2,9.5a9.491,9.491,0,0,0,6.911,6.786c1.9.478,6.738.332,8.62.349,15.086.135,25.191.377,33.555.535"/></g><g id="df0308e0-5fe9-48e9-bf8e-c44a0e7a2b0c" data-name="Start-Finish Line"><use width="200" height="103.617" transform="translate(127.413 570.024) rotate(46.351) scale(0.199)" xlink:href="#e02a5c48-82a7-46b3-8c73-2404558c665e"/></g><g id="2ace39c9-d517-496d-b6be-93eed1160e1a" data-name="Corner Numbers"><g id="7b937b4f-59d7-43fa-9219-eecb1b1628ce" data-name="1"><path class="f350b82e-480a-450d-ac6d-23b12e74e2ee" d="M21.579,623.475a10.417,10.417,0,1,1-10.722-10.1h0c7.571-.225,10.145-1.457,10.88-.766S21.357,615.932,21.579,623.475Z"/><path class="1d7f70a9-a943-4d5d-a9f4-c9f106c8f410" d="M10.7,619.387h-.036L8.6,620.548l-.335-1.23,2.6-1.447,1.383-.024.2,11.99-1.568.026Z"/></g><g id="3f3d0af5-e85e-4eec-9658-e6f9a9d32882" data-name="2"><path class="f350b82e-480a-450d-ac6d-23b12e74e2ee" d="M131.424,485.253a10.812,10.812,0,1,1,10.184-11.4h0c.444,7.848,1.793,10.485,1.1,11.266S139.244,484.813,131.424,485.253Z"/><path class="1d7f70a9-a943-4d5d-a9f4-c9f106c8f410" d="M127.239,480.318v-1.034L128.561,478c3.179-3.026,4.616-4.633,4.635-6.51a2.221,2.221,0,0,0-2.469-2.433,4.248,4.248,0,0,0-2.644,1.053l-.536-1.187a5.462,5.462,0,0,1,3.524-1.264,3.5,3.5,0,0,1,3.81,3.62c0,2.3-1.666,4.156-4.29,6.683l-1,.919v.039h5.592v1.4Z"/></g><g id="8d503546-701a-4798-8616-d868ad9c32e0" data-name="3"><path class="f350b82e-480a-450d-ac6d-23b12e74e2ee" d="M177.619,387.634a10.512,10.512,0,1,1-8.521,12.183h0c-1.331-7.527-2.937-9.917-2.355-10.751S170.119,388.958,177.619,387.634Z"/><path class="1d7f70a9-a943-4d5d-a9f4-c9f106c8f410" d="M176.158,402.261a5.484,5.484,0,0,0,2.68.765c2.1,0,2.757-1.337,2.739-2.343-.017-1.693-1.543-2.421-3.125-2.422h-.912l0-1.229h.912c1.191,0,2.7-.612,2.7-2.046,0-.968-.612-1.824-2.12-1.826a4.445,4.445,0,0,0-2.422.8l-.426-1.193a5.751,5.751,0,0,1,3.166-.926c2.382,0,3.461,1.417,3.459,2.887a3.006,3.006,0,0,1-2.237,2.847v.037a3.152,3.152,0,0,1,2.7,3.111c0,1.937-1.511,3.629-4.415,3.626a6.151,6.151,0,0,1-3.145-.822Z"/></g><g id="c8bb13ac-7c85-44ab-948c-67e9a4583621" data-name="4"><path class="f350b82e-480a-450d-ac6d-23b12e74e2ee" d="M336.149,219.752a10.195,10.195,0,1,1,1.587-14.33h0c4.632,5.787,7.111,7.074,7,8.055S341.915,215.137,336.149,219.752Z"/><path class="1d7f70a9-a943-4d5d-a9f4-c9f106c8f410" d="M330.828,217.357v-3.195h-5.451v-1.047l5.235-7.49h1.716v7.293h1.642v1.245h-1.642v3.195Zm0-4.44V209q0-.921.054-1.842h-.054c-.361.687-.65,1.19-.975,1.732l-2.871,3.99v.036Z"/></g><g id="74322914-b496-467e-ac39-9d781a53354b" data-name="5"><path class="f350b82e-480a-450d-ac6d-23b12e74e2ee" d="M274.075,123.286a10.195,10.195,0,1,1,.59-14.4h0c5.023,5.452,7.584,6.564,7.544,7.55S279.508,118.283,274.075,123.286Z"/><path class="1d7f70a9-a943-4d5d-a9f4-c9f106c8f410" d="M270.787,111.026l-4.477,0-.453,3.015a6.182,6.182,0,0,1,.957-.071,4.956,4.956,0,0,1,2.526.632,3.345,3.345,0,0,1,1.678,3.016,4.07,4.07,0,0,1-4.37,4,5.736,5.736,0,0,1-2.925-.723l.4-1.21a5.248,5.248,0,0,0,2.509.652,2.588,2.588,0,0,0,2.781-2.543c-.017-1.517-1.027-2.6-3.374-2.6a12.179,12.179,0,0,0-1.624.125l.76-5.631,5.614,0Z"/></g><g id="8e41d114-6b75-4445-b2b4-5602c7b63db9" data-name="6"><path class="f350b82e-480a-450d-ac6d-23b12e74e2ee" d="M361.345,19.03a10.521,10.521,0,1,1,14.864-.654h0c-5.166,5.642-6.086,8.373-7.1,8.418S366.965,24.178,361.345,19.03Z"/><path class="1d7f70a9-a943-4d5d-a9f4-c9f106c8f410" d="M371.258,7.08a5.868,5.868,0,0,0-1.23.075,4.923,4.923,0,0,0-4.209,4.305h.056a3.692,3.692,0,0,1,6.578,2.512,4.05,4.05,0,0,1-4.022,4.269c-2.59,0-4.287-2.011-4.288-5.159a7.615,7.615,0,0,1,2.048-5.46,6.587,6.587,0,0,1,3.874-1.789,7.843,7.843,0,0,1,1.192-.095Zm-.463,6.986a2.461,2.461,0,0,0-2.5-2.774,2.7,2.7,0,0,0-2.347,1.491,1.407,1.407,0,0,0-.186.727c.039,1.993.952,3.465,2.666,3.464C369.846,16.974,370.8,15.8,370.8,14.066Z"/></g><g id="49a75431-55df-4881-9cd2-f017b21c7e5d" data-name="7"><path class="f350b82e-480a-450d-ac6d-23b12e74e2ee" d="M418.857,69.7A10.468,10.468,0,1,1,405,64.5h0c6.929-3.149,8.836-5.291,9.785-4.935S415.721,62.793,418.857,69.7Z"/><path class="1d7f70a9-a943-4d5d-a9f4-c9f106c8f410" d="M413.615,67.912v1.075l-5.255,10.971h-1.686L411.908,69.3v-.037l-5.9,0V67.906Z"/></g><g id="76634fab-13a9-4059-b5d5-c0edfaf450d7" data-name="8"><path class="f350b82e-480a-450d-ac6d-23b12e74e2ee" d="M606.891,42.865a10.468,10.468,0,1,1,13.786,5.4h0c-6.974,3.05-8.911,5.164-9.855,4.795S609.929,49.814,606.891,42.865Z"/><path class="1d7f70a9-a943-4d5d-a9f4-c9f106c8f410" d="M612,42.273a3.443,3.443,0,0,1,2.393-3.224l-.019-.056a2.985,2.985,0,0,1-1.907-2.707c0-1.91,1.614-3.207,3.727-3.206,2.336,0,3.5,1.467,3.5,2.969a3.061,3.061,0,0,1-1.985,2.816v.056a3.341,3.341,0,0,1,2.428,3.116c0,2.095-1.8,3.5-4.1,3.5C613.516,45.537,612,44.035,612,42.273Zm6.489-.07c0-1.465-1.018-2.17-2.65-2.634a2.617,2.617,0,0,0-2.17,2.483,2.228,2.228,0,0,0,2.409,2.3A2.181,2.181,0,0,0,618.486,42.2ZM614,36.176c0,1.2.907,1.853,2.3,2.225a2.374,2.374,0,0,0,1.836-2.186,1.874,1.874,0,0,0-2.038-1.967A1.917,1.917,0,0,0,614,36.176Z"/></g><g id="c1c3fc54-d7d4-4e65-a37c-3c18a185caf5" data-name="9"><path class="f350b82e-480a-450d-ac6d-23b12e74e2ee" d="M685.927,95.754a10.468,10.468,0,1,1,2.5,14.592h0c-6.212-4.4-9.023-4.967-9.194-5.965S681.544,101.942,685.927,95.754Z"/><path class="1d7f70a9-a943-4d5d-a9f4-c9f106c8f410" d="M691.73,106.489a6.817,6.817,0,0,0,1.315-.059,4.547,4.547,0,0,0,2.519-1.175,5.284,5.284,0,0,0,1.585-3.212h-.055a3.533,3.533,0,0,1-2.833,1.3,3.49,3.49,0,0,1-3.57-3.679,4.131,4.131,0,0,1,4.105-4.293c2.466-.007,3.991,1.991,4,5.068a7.61,7.61,0,0,1-2.063,5.66,6.021,6.021,0,0,1-3.5,1.623,7.578,7.578,0,0,1-1.5.1Zm.574-6.935a2.317,2.317,0,0,0,2.324,2.551,2.7,2.7,0,0,0,2.37-1.266,1.078,1.078,0,0,0,.147-.594c-.006-2.058-.77-3.632-2.476-3.627C693.278,96.622,692.3,97.847,692.3,99.554Z"/></g><g id="5d55b1b6-ced4-453f-a752-5b27ac713c56" data-name="10"><path class="f350b82e-480a-450d-ac6d-23b12e74e2ee" d="M637.256,170.882a10.468,10.468,0,1,1-14.795.519h0c5.19-5.568,6.129-8.277,7.142-8.313S631.71,165.71,637.256,170.882Z"/><path class="1d7f70a9-a943-4d5d-a9f4-c9f106c8f410" d="M624.411,174.128h-.037l-2.1,1.129-.314-1.243,2.635-1.407,1.39,0-.012,12.051-1.577,0Z"/><path class="1d7f70a9-a943-4d5d-a9f4-c9f106c8f410" d="M638.385,178.517c0,4.1-1.527,6.358-4.2,6.355-2.355,0-3.948-2.21-3.98-6.2,0-4.042,1.749-6.265,4.2-6.262C636.944,172.416,638.389,174.68,638.385,178.517Zm-6.545.179c0,3.133.959,4.914,2.442,4.915,1.669,0,2.468-1.944,2.471-5.021,0-2.967-.755-4.914-2.442-4.915C632.883,173.673,631.843,175.415,631.84,178.7Z"/></g><g id="5cf1ba22-199f-44d6-af51-e6c1c06d41e3" data-name="11"><path class="f350b82e-480a-450d-ac6d-23b12e74e2ee" d="M582.192,94.29a10.468,10.468,0,1,1,12.082,8.555h0c-7.5,1.282-9.892,2.868-10.719,2.283S583.468,101.766,582.192,94.29Z"/><path class="1d7f70a9-a943-4d5d-a9f4-c9f106c8f410" d="M587.392,88.649h-.037l-2.092,1.137-.319-1.242,2.629-1.416,1.391,0L589,99.175l-1.576.005Z"/><path class="1d7f70a9-a943-4d5d-a9f4-c9f106c8f410" d="M596.9,88.623h-.037l-2.091,1.137-.319-1.242,2.629-1.416,1.391,0,.033,12.051-1.576,0Z"/></g><g id="ef0d2c1d-2092-462d-b480-59ad46e9420b" data-name="12"><path class="f350b82e-480a-450d-ac6d-23b12e74e2ee" d="M449.326,102.073a10.468,10.468,0,1,1,11.325-9.534h0c-.651,7.583.281,10.3-.494,10.948S456.882,102.723,449.326,102.073Z"/><path class="1d7f70a9-a943-4d5d-a9f4-c9f106c8f410" d="M444.622,87.216h-.037l-2.094,1.132-.316-1.242,2.632-1.411h1.39l.008,12.051h-1.576Z"/><path class="1d7f70a9-a943-4d5d-a9f4-c9f106c8f410" d="M450.6,97.742v-1l1.279-1.243c3.076-2.932,4.464-4.489,4.482-6.307a2.15,2.15,0,0,0-2.394-2.352,4.1,4.1,0,0,0-2.557,1.021l-.52-1.149a5.289,5.289,0,0,1,3.411-1.226,3.39,3.39,0,0,1,3.691,3.5c0,2.225-1.61,4.025-4.147,6.474l-.965.89v.038l5.414,0v1.353Z"/></g><g id="86e79110-ab4c-4b68-8ada-457419dd744d" data-name="13"><path class="f350b82e-480a-450d-ac6d-23b12e74e2ee" d="M442.315,249.249A10.468,10.468,0,1,1,432.1,238.536h0c7.609.18,10.258-.918,10.958-.185S442.5,241.667,442.315,249.249Z"/><path class="1d7f70a9-a943-4d5d-a9f4-c9f106c8f410" d="M426.928,244.179h-.037l-2.1,1.129-.314-1.242,2.632-1.408H428.5l0,12.05h-1.576Z"/><path class="1d7f70a9-a943-4d5d-a9f4-c9f106c8f410" d="M433.281,252.839a5.457,5.457,0,0,0,2.669.761c2.1,0,2.744-1.334,2.726-2.335-.018-1.687-1.536-2.411-3.112-2.411h-.909V247.63h.909c1.186,0,2.688-.612,2.689-2.038,0-.965-.611-1.818-2.112-1.819a4.426,4.426,0,0,0-2.41.8l-.427-1.186a5.729,5.729,0,0,1,3.151-.926c2.373,0,3.448,1.411,3.447,2.876a2.991,2.991,0,0,1-2.225,2.835v.037a3.139,3.139,0,0,1,2.686,3.1c0,1.927-1.5,3.614-4.394,3.613a6.13,6.13,0,0,1-3.134-.818Z"/></g><g id="cab70a17-bd32-44e7-8787-167a6bdecb69" data-name="14"><path class="f350b82e-480a-450d-ac6d-23b12e74e2ee" d="M558.179,220.966a10.468,10.468,0,1,1,14.45-3.219h0c-4.083,6.424-4.51,9.259-5.5,9.48S564.578,225.036,558.179,220.966Z"/><path class="1d7f70a9-a943-4d5d-a9f4-c9f106c8f410" d="M558.318,208.144h-.037l-2.092,1.133-.318-1.242,2.632-1.411,1.391,0,.012,12.051-1.576,0Z"/><path class="1d7f70a9-a943-4d5d-a9f4-c9f106c8f410" d="M569.341,218.663l0-3.282-5.6.007v-1.077l5.369-7.7,1.761,0,.008,7.49,1.687,0v1.28l-1.687,0,0,3.281Zm0-4.561,0-4.023q0-.947.053-1.892h-.056c-.37.7-.665,1.225-1,1.782l-2.943,4.1v.037Z"/></g><g id="c4e4e96a-95ec-456d-af2a-fa83b60e25c7" data-name="15"><path class="f350b82e-480a-450d-ac6d-23b12e74e2ee" d="M685.71,182.3a10.468,10.468,0,1,1,14.557-2.692h0c-4.314,6.271-4.844,9.089-5.84,9.274S691.957,186.6,685.71,182.3Z"/><path class="1d7f70a9-a943-4d5d-a9f4-c9f106c8f410" d="M686.049,169.974h-.037l-2.094,1.133-.316-1.242,2.631-1.411h1.391l.01,12.051h-1.576Z"/><path class="1d7f70a9-a943-4d5d-a9f4-c9f106c8f410" d="M699.21,169.814l-4.6,0-.46,3.1a6.572,6.572,0,0,1,.983-.075,5.1,5.1,0,0,1,2.6.647,3.431,3.431,0,0,1,1.727,3.094,4.18,4.18,0,0,1-4.482,4.12,5.905,5.905,0,0,1-3-.739l.407-1.242a5.407,5.407,0,0,0,2.577.665,2.659,2.659,0,0,0,2.853-2.617c-.02-1.557-1.059-2.669-3.469-2.667a12.69,12.69,0,0,0-1.668.131l.773-5.784,5.766-.006Z"/></g><g id="c04d93d1-3ac3-48fa-b81e-bf7fbd086867" data-name="16"><path class="f350b82e-480a-450d-ac6d-23b12e74e2ee" d="M812.186,199.313a10.468,10.468,0,1,1-.35,14.8h0c-5.253-5.508-7.9-6.6-7.879-7.618S806.7,204.546,812.186,199.313Z"/><path class="1d7f70a9-a943-4d5d-a9f4-c9f106c8f410" d="M813.377,202.368h-.037l-2.1,1.13-.314-1.242,2.633-1.409h1.39l0,12.05h-1.576Z"/><path class="1d7f70a9-a943-4d5d-a9f4-c9f106c8f410" d="M826.224,202a5.862,5.862,0,0,0-1.224.073,4.9,4.9,0,0,0-4.192,4.281h.055a3.673,3.673,0,0,1,6.543,2.506,4.029,4.029,0,0,1-4.006,4.243c-2.577,0-4.263-2-4.262-5.136a7.574,7.574,0,0,1,2.043-5.432,6.553,6.553,0,0,1,3.855-1.778,7.861,7.861,0,0,1,1.188-.092Zm-.467,6.952a2.449,2.449,0,0,0-2.483-2.764,2.684,2.684,0,0,0-2.337,1.483,1.373,1.373,0,0,0-.186.722c.036,1.984.943,3.449,2.649,3.45C824.81,211.847,825.756,210.679,825.757,208.955Z"/></g><g id="2cd9cef7-bc5d-436e-80ff-1c90be58a3fe" data-name="17"><path class="f350b82e-480a-450d-ac6d-23b12e74e2ee" d="M772.56,250a10.468,10.468,0,1,1-10.713,10.217h0c.18-7.609-.918-10.258-.185-10.958S764.978,249.82,772.56,250Z"/><path class="1d7f70a9-a943-4d5d-a9f4-c9f106c8f410" d="M765.787,256.174h-.037l-2.1,1.13-.314-1.243,2.633-1.408h1.39l-.005,12.05h-1.576Z"/><path class="1d7f70a9-a943-4d5d-a9f4-c9f106c8f410" d="M779.579,254.659v1.075l-5.252,10.974h-1.686l5.232-10.658v-.037l-5.9,0v-1.354Z"/></g><g id="6dfb3ee2-c72b-44b3-9736-2513c4faf93a" data-name="18"><path class="f350b82e-480a-450d-ac6d-23b12e74e2ee" d="M460.188,277.854a10.468,10.468,0,1,1-10.217-10.713h0c7.609.181,10.258-.917,10.958-.184S460.369,270.273,460.188,277.854Z"/><path class="1d7f70a9-a943-4d5d-a9f4-c9f106c8f410" d="M444.217,272.91h-.037l-2.1,1.13-.314-1.242,2.632-1.409h1.391l0,12.05h-1.576Z"/><path class="1d7f70a9-a943-4d5d-a9f4-c9f106c8f410" d="M450.032,280.384a3.443,3.443,0,0,1,2.394-3.225l-.019-.056A2.987,2.987,0,0,1,450.5,274.4c0-1.909,1.614-3.206,3.728-3.2,2.336,0,3.5,1.466,3.5,2.968a3.059,3.059,0,0,1-1.985,2.816v.056a3.341,3.341,0,0,1,2.427,3.116c0,2.095-1.8,3.5-4.1,3.5C451.552,283.647,450.031,282.145,450.032,280.384Zm6.49-.072c0-1.465-1.019-2.17-2.65-2.633a2.618,2.618,0,0,0-2.171,2.483,2.229,2.229,0,0,0,2.409,2.3A2.181,2.181,0,0,0,456.522,280.312Zm-4.484-6.027c0,1.2.907,1.854,2.3,2.226a2.374,2.374,0,0,0,1.836-2.187,1.872,1.872,0,0,0-2.038-1.966A1.917,1.917,0,0,0,452.038,274.285Z"/></g><g id="8be80b4c-8864-4d2d-a8a6-2cfe886c5d50" data-name="19"><path class="f350b82e-480a-450d-ac6d-23b12e74e2ee" d="M467.607,176.846a10.468,10.468,0,1,1,10.217,10.713h0c-7.609-.181-10.258.917-10.958.184S467.426,184.427,467.607,176.846Z"/><path class="1d7f70a9-a943-4d5d-a9f4-c9f106c8f410" d="M472.355,173.105h-.038l-2.1,1.13-.315-1.242,2.633-1.408h1.391l0,12.05H472.35Z"/><path class="1d7f70a9-a943-4d5d-a9f4-c9f106c8f410" d="M479.263,182.489a6.851,6.851,0,0,0,1.316-.055,4.541,4.541,0,0,0,2.523-1.167,5.282,5.282,0,0,0,1.6-3.207h-.055a3.536,3.536,0,0,1-2.837,1.3,3.491,3.491,0,0,1-3.558-3.691,4.131,4.131,0,0,1,4.117-4.28c2.466,0,3.987,2,3.985,5.081a7.614,7.614,0,0,1-2.079,5.653,6.022,6.022,0,0,1-3.5,1.611,7.547,7.547,0,0,1-1.5.093Zm.6-6.933a2.318,2.318,0,0,0,2.316,2.559,2.7,2.7,0,0,0,2.374-1.26,1.073,1.073,0,0,0,.148-.592c0-2.059-.757-3.635-2.464-3.635C480.844,172.627,479.86,173.849,479.86,175.556Z"/></g><g id="28b30997-bfc4-43e9-85ad-cb8ac7137e2a" data-name="20"><path class="f350b82e-480a-450d-ac6d-23b12e74e2ee" d="M384.126,189.7a10.468,10.468,0,1,1,10.613-10.322h0c-.106,7.611,1.018,10.249.291,10.956S391.709,189.808,384.126,189.7Z"/><path class="1d7f70a9-a943-4d5d-a9f4-c9f106c8f410" d="M376.878,185.093l0-.926,1.19-1.152c2.863-2.714,4.156-4.157,4.17-5.837A2,2,0,0,0,380,175a3.833,3.833,0,0,0-2.382.947l-.485-1.063a4.947,4.947,0,0,1,3.177-1.137,3.148,3.148,0,0,1,3.442,3.236c0,2.058-1.5,3.725-3.859,5.992l-.9.825v.034l5.043-.008,0,1.252Z"/><path class="1d7f70a9-a943-4d5d-a9f4-c9f106c8f410" d="M393.193,179.371c.006,3.791-1.407,5.886-3.894,5.89-2.194,0-3.683-2.036-3.723-5.723-.006-3.738,1.615-5.8,3.894-5.8C391.837,173.731,393.188,175.821,393.193,179.371Zm-6.1.183c0,2.9.906,4.543,2.287,4.541,1.555,0,2.3-1.805,2.29-4.653,0-2.744-.715-4.544-2.287-4.541C388.056,174.9,387.091,176.517,387.1,179.554Z"/></g><g id="1901e54a-890a-495b-baea-45d16a4cc0b8" data-name="21"><path class="f350b82e-480a-450d-ac6d-23b12e74e2ee" d="M407.438,257.2a10.468,10.468,0,1,1-4.75,14.022h0c-3.371-6.824-5.572-8.661-5.248-9.621S400.638,260.555,407.438,257.2Z"/><path class="1d7f70a9-a943-4d5d-a9f4-c9f106c8f410" d="M405.3,271.846v-.926l1.191-1.151c2.866-2.711,4.161-4.151,4.178-5.832a2,2,0,0,0-2.229-2.177,3.834,3.834,0,0,0-2.384.944l-.483-1.064a4.943,4.943,0,0,1,3.177-1.132,3.148,3.148,0,0,1,3.439,3.24c0,2.058-1.5,3.723-3.867,5.987l-.9.823v.035l5.043,0v1.252Z"/><path class="1d7f70a9-a943-4d5d-a9f4-c9f106c8f410" d="M417.462,262.1h-.034l-1.953,1.047L415.181,262l2.453-1.305h1.3l0,11.149h-1.468Z"/></g><g id="cd388324-c578-4d76-8498-8b2d149ad6ff" data-name="22"><path class="f350b82e-480a-450d-ac6d-23b12e74e2ee" d="M341.274,335.8a10.468,10.468,0,1,1-5.591,13.708h0c-2.951-7.016-5.037-8.983-4.655-9.922S334.283,338.737,341.274,335.8Z"/><path class="1d7f70a9-a943-4d5d-a9f4-c9f106c8f410" d="M337.134,349.918v-.926l1.192-1.148c2.87-2.708,4.166-4.148,4.185-5.829a2,2,0,0,0-2.227-2.18,3.842,3.842,0,0,0-2.385.941l-.482-1.063a4.944,4.944,0,0,1,3.179-1.13,3.149,3.149,0,0,1,3.435,3.245c0,2.058-1.506,3.721-3.874,5.982l-.9.823v.034l5.044,0v1.252Z"/><path class="1d7f70a9-a943-4d5d-a9f4-c9f106c8f410" d="M346,349.924V349l1.193-1.149c2.869-2.708,4.165-4.147,4.184-5.828a2,2,0,0,0-2.227-2.179,3.833,3.833,0,0,0-2.384.941l-.483-1.064a4.949,4.949,0,0,1,3.179-1.129,3.148,3.148,0,0,1,3.435,3.244c0,2.057-1.506,3.721-3.874,5.983l-.9.822v.035l5.044,0v1.252Z"/></g><g id="1056ed86-5aa7-4223-aec9-bbcb358546bd" data-name="23"><path class="f350b82e-480a-450d-ac6d-23b12e74e2ee" d="M293,441.291A10.468,10.468,0,1,1,287.411,455h0c-2.951-7.017-5.037-8.984-4.655-9.922S286.011,444.23,293,441.291Z"/><path class="1d7f70a9-a943-4d5d-a9f4-c9f106c8f410" d="M288.862,455.41v-.926l1.193-1.148c2.869-2.708,4.165-4.148,4.184-5.828a2,2,0,0,0-2.227-2.181,3.848,3.848,0,0,0-2.385.941l-.482-1.063a4.95,4.95,0,0,1,3.179-1.13,3.149,3.149,0,0,1,3.435,3.245c0,2.058-1.506,3.721-3.874,5.983l-.9.822v.034l5.044,0v1.252Z"/><path class="1d7f70a9-a943-4d5d-a9f4-c9f106c8f410" d="M298.089,453.684a5.1,5.1,0,0,0,2.487.7c1.952,0,2.557-1.233,2.541-2.16-.016-1.56-1.432-2.23-2.9-2.231h-.847v-1.132h.847c1.106,0,2.5-.563,2.506-1.885,0-.891-.568-1.68-1.968-1.681a4.132,4.132,0,0,0-2.245.735l-.4-1.1a5.367,5.367,0,0,1,2.937-.855c2.211,0,3.212,1.306,3.211,2.66a2.773,2.773,0,0,1-2.075,2.623v.035a2.909,2.909,0,0,1,2.5,2.865c0,1.784-1.4,3.343-4.1,3.341a5.72,5.72,0,0,1-2.918-.757Z"/></g></g></g></g></g></svg>