<svg xmlns="http://www.w3.org/2000/svg" xmlns:xlink="http://www.w3.org/1999/xlink" width="1096.238" height="1489.073" viewBox="0 0 1096.238 1489.073"><defs><style>.ecb9172f-b053-4993-9bec-3c825240c7fa{fill:#00ff24;}.\34 308b185-ad19-48ef-9108-952fc534c0d3,.ecb9172f-b053-4993-9bec-3c825240c7fa{stroke:#000;stroke-width:5px;}.\34 308b185-ad19-48ef-9108-952fc534c0d3,.\37 bc84936-ea3b-407a-8eef-45f0bd35f2b0,.a1d2cef5-47ea-4240-94c6-1a91043eef89,.ab84d301-1c4e-4085-b985-a58a856eeda5,.ecb9172f-b053-4993-9bec-3c825240c7fa,.f6bf7aef-6e06-4eb7-a1bb-781db8d1d6e6{stroke-miterlimit:10;}.\34 308b185-ad19-48ef-9108-952fc534c0d3,.\34 33e5bef-3bc7-4e49-b343-e3f5574504d2{fill:#fff;}.\37 bc84936-ea3b-407a-8eef-45f0bd35f2b0,.a1d2cef5-47ea-4240-94c6-1a91043eef89,.f6bf7aef-6e06-4eb7-a1bb-781db8d1d6e6{fill:none;}.a1d2cef5-47ea-4240-94c6-1a91043eef89,.f6bf7aef-6e06-4eb7-a1bb-781db8d1d6e6{stroke:#007fff;}.f6bf7aef-6e06-4eb7-a1bb-781db8d1d6e6{stroke-width:25px;}.\37 bc84936-ea3b-407a-8eef-45f0bd35f2b0,.ab84d301-1c4e-4085-b985-a58a856eeda5{stroke:#fff;}.\37 bc84936-ea3b-407a-8eef-45f0bd35f2b0{stroke-width:12.5px;}.a1d2cef5-47ea-4240-94c6-1a91043eef89{stroke-width:4px;}.ab84d301-1c4e-4085-b985-a58a856eeda5{fill:#333;stroke-width:1.5px;}</style><symbol id="c432fba3-5078-4550-a9fa-b2449d5dfb19" data-name="fd103434-89f2-4089-acf9-54fed79ed404" viewBox="0 0 200 103.617"><rect class="ecb9172f-b053-4993-9bec-3c825240c7fa" x="2.5" y="54.074" width="195" height="47.043"/><rect class="4308b185-ad19-48ef-9108-952fc534c0d3" x="2.5" y="2.5" width="48.75" height="48.75"/><rect class="4308b185-ad19-48ef-9108-952fc534c0d3" x="51.25" y="2.5" width="48.75" height="48.75"/><rect class="4308b185-ad19-48ef-9108-952fc534c0d3" x="100" y="2.5" width="48.75" height="48.75"/><rect class="4308b185-ad19-48ef-9108-952fc534c0d3" x="148.75" y="2.5" width="48.75" height="48.75"/></symbol></defs><title>The_Black_Pearl</title><g id="2fa6c378-7ba5-4076-af0d-f57a64affeea" data-name="Layer 2"><g id="4f811e36-762b-4cb3-9410-cef4629ff024" data-name="Docks"><g id="ec14edcc-5f2a-4e2b-a454-7c09801361ee" data-name="The_Black_Pearl"><g id="df594c30-c016-450c-b5cd-028f8ae4246a" data-name="Track-Outer"><path class="f6bf7aef-6e06-4eb7-a1bb-781db8d1d6e6" d="M1050.914,1342.8c-3.253-35.507-2.25-36.125-3.745-81.112a13.258,13.258,0,0,0-13.028-13.066c-18.122-.106-37.219.084-55.31-.03a11.729,11.729,0,0,0-11.8,11.435l0,.086a10.006,10.006,0,0,1-10.022,9.782l-65.646-.2a7.946,7.946,0,0,1-7.921-7.969c.144-48.527.281-83.055.474-95.805.05-3.281.024-8.374-.237-21.67-.179-9.163-7.664-20.817-12.009-25.38-12.224-12.84-15.055-14.522-23.67-19.117-17.5-9.333-31.59-12.429-43.827-13.492-13.17-1.144-15.69-.89-38.173,3.159a91.162,91.162,0,0,0-36.584,15.25c-16.067,11.635-21.5,22.25-21.947,34.486-.311,8.514-.285,19.911-.273,26.015.032,16.75.22,27.749.22,27.749.5,21.921.584,34.75,0,55,.1,6.678.275,16.194-4.75,26.5-2.014,4.132-11.685,13.749-20.5,16.333-9.142,2.681-19.447,3.53-25.666,2-11.421-2.808-10.857-1.582-22.167-7.666-4.951-2.665-14.31-12.157-18.167-30.417-.463-2.2-.559-5.882-.75-13.25-.307-11.888.573-15.2.25-24-.332-9.074-.506-13.837-2.5-20-4.4-13.6-14.042-22.876-15.5-24.25-3.948-3.721-6.648-5.159-10.5-10.25a42.906,42.906,0,0,1-6.5-12,40.118,40.118,0,0,1-2-13.5c.1-16.917-.312-33.833-.25-50.75.015-3.9-.038-.745-.5-28.5-.208-12.5-.361-22.967-.464-30.442a10.319,10.319,0,0,0-1.264-4.806c-2.745-5.024-6.858-18.162-9.6-23.186a14.255,14.255,0,0,1,.081-13.816c1.788-3.181,8.212-14.438,10-17.619a11.5,11.5,0,0,0-.165-11.548l-11-19.166c-1.916-3.193-2.054-8.111-2-11.834.243-16.928-.023-5.913-.084-15.083-.275-41.785-1.795-61.232-1-99,.27-12.8.709-23.121,1-29.25,1.726-17.441,3.492-32.4,5-44.25,1.634-12.834,2.894-21.464,6.5-32.5,5.242-16.038,10.624-22.42,13-25a50.169,50.169,0,0,1,17.25-12.25c7.5-3.084,14.067-3.448,19.5-3.75a96.984,96.984,0,0,1,14.5.5c14.183,1.14,21.273,1.71,25.75,2.25,10.62,1.28,51.751,4.981,167.434,14.385a7.727,7.727,0,0,0,8.316-6.931c11.259-113.395,21.158-224.476,32.417-337.871a6.519,6.519,0,0,0-6.582-7.163c-34.734.5-68.105-1.307-102.839-.8a8.453,8.453,0,0,1-8.551-9.087q10.345-137.3,20.689-274.6a8.264,8.264,0,0,0-7.555-8.857l-116.8-9.715A10.432,10.432,0,0,0,640.2,36.156q-2.019,20.529-4.782,42.016c-2.987,23.1-6.448,45.273-10.244,66.467,0,.022-.008.044-.014.065q-5,19.233-9.992,38.468c-5.447,20.971-7.677,31.581-9.75,44.25-3.723,22.756-2.357,28.633-6.25,59.5-1.211,9.607-1.549,11.213-2.528,17.162a9.244,9.244,0,0,1-9.5,7.537c-49.385-3.241-77.859-6.878-107.6-8.574-21.128-1.205-37.338-2.8-69.875-5.125-7.644-.548-25.384-3.268-40.75,4-7.724,3.654-12.1,6.26-23.962,13.353-.025.014-.049.031-.072.047-13.476,9.865-19.742,18.49-33.466,34.1-27.577,31.368-31.215,35.441-40.5,45.167-12.572,13.17-18.58,17.315-27.75,30.583a108.184,108.184,0,0,0-14,27.5,89.082,89.082,0,0,0-3.5,29.75s1.516,51.839-.5,106c-.168,4.538,1.821,22.85-4.5,44-6.5,21.75-11.2,41.328-18,64.75-2.223,7.665-8.922,27.927-19.75,58-24.338,67.6-28.941,83.866-46.916,133.583a205.746,205.746,0,0,1-13,28c-5.7,10.4-11.668,19.34-18.334,29.334-11.245,16.862-13.11,18.15-16.333,25.333-4.441,9.9-6.03,18.888-7,28-5.089,47.8-.984,92.573-2.667,130-.148,3.3-.584,11.971,0,23.667.537,10.728,1.009,20.408,3.667,31.333,6.024,24.757,19.613,40.987,25.333,47.667,6.5,7.59,12.367,14.291,22.667,19,5.637,2.577,15.52,7.1,27,3.666A33.319,33.319,0,0,0,175,1241.422c4.217-6.268,4.824-12.733,4.791-20.5-.081-19.421,0-33.628-.458-40.833,0,0-1.427-19.844-2.833-52-1.555-35.558-.857-55.349-.834-55.984a.293.293,0,0,1,0-.041c1-10.794,2.256-19.505-.336-31.642-1.434-6.715-3.956-12.7-9-24.667-8.784-20.843-10.331-20.036-13.333-30-4.231-14.043-4.327-26.162-4.334-34-.007-9.537.97-11.594,2-25,1.5-19.479,2.247-29.219.667-38.666-3.993-23.887-19.587-39.8-25.333-45.667-12.774-13.038-25.889-19.138-33.667-22.667C76.287,812.474,62.122,810.278,48,808.089c-2.9-.449-5.679-.827-8.325-1.144a7.21,7.21,0,0,1-3.565-12.852c3.788-2.944,7.769-6.165,11.89-9.671,13.8-11.744,15.441-15.014,24.333-20,11.77-6.6,23.534-8.5,33-11,13.039-3.45,13.116-3.2,23.083-6.438,9.569-3.107,15.25-5.312,25.917-8.895a348.964,348.964,0,0,1,37-15.667c17.171-6.07,30.873-7.484,49-10,23.54-3.268,46.458-4.251,55.333-4.667,14.746-.691,29.315-3.5,44-5a48.059,48.059,0,0,0,18.667-5.666c3.646-2.016,8.1-4.547,11.333-9.667,3.636-5.759,3.651-11.506,3.667-17.667.014-5.279.032-12.521-4-20.666-1.39-2.809-6.355-12.477-17.667-17.667a39.476,39.476,0,0,0-19.312-3.375c-5.785.332-15.99,1.293-24.354,8.708-11.167,9.9-11.039,24.835-11,29.334.037,4.266.767,15.689,8.666,25.666A40.925,40.925,0,0,0,317,701.422c19.195,11.909,28.792,17.863,38.333,22.667a307.582,307.582,0,0,1,50.333,32c11.4,8.785,22.192,17.212,33.334,31.333,3.58,4.537,8.441,11.243,19.333,32,8.65,16.485,20.03,39.785,34,75C500.97,916.2,505.288,927.085,508,938.089c3.837,15.585,4.721,30.935,6.333,61,2.035,37.964.008,38.15,0,90a95.539,95.539,0,0,1-1.667,18.666c-1.877,9.85-5.21,17.532-8,24-1.786,4.142-3.6,7.888-5.346,11.216a10.291,10.291,0,0,1-9.039,5.5l-106.464.894a6.6,6.6,0,0,0-6.539,6.539q-.1,11.442-.2,22.882a9.535,9.535,0,0,0,9.43,9.623c5.842.057,12.756.243,20.488.678,31.2,1.757,38.639,5.5,41.333,7,13.1,7.29,18.878,19.9,22.333,27.333,27.37,58.9,61.851,114.331,89,173.333a211.183,211.183,0,0,0,14,25,82.823,82.823,0,0,0,7,9.667A68.74,68.74,0,0,0,601,1447.089c17.7,9.34,35.948,11.326,39.333,11.666,44.147,4.432,88.536,3.035,130,3,12.2-.011,20.577.1,37.333.334,52.536.72,78.8,1.08,101.334,3.666,15,1.722,40.07,5.27,57,7.667a371.5,371.5,0,0,0,39.416,3c6.4.2,15.543.182,22.032.062,1.057-.019,10.109-.124,14.968-.687,17.813-2.063,30.917-20.125,30.917-33.625,0-21.5-5.623-32.929-9.667-47C1057.414,1373.422,1052.518,1360.294,1050.914,1342.8Z"/></g><g id="5dc2e467-2f34-4ae3-a567-7bdf3ea300a9" data-name="Track-Mid"><path class="7bc84936-ea3b-407a-8eef-45f0bd35f2b0" d="M1050.914,1342.8c-3.253-35.507-2.25-36.125-3.745-81.112a13.258,13.258,0,0,0-13.028-13.066c-18.122-.106-37.219.084-55.31-.03a11.729,11.729,0,0,0-11.8,11.435l0,.086a10.006,10.006,0,0,1-10.022,9.782l-65.646-.2a7.946,7.946,0,0,1-7.921-7.969c.144-48.527.281-83.055.474-95.805.05-3.281.024-8.374-.237-21.67-.179-9.163-7.664-20.817-12.009-25.38-12.224-12.84-15.055-14.522-23.67-19.117-17.5-9.333-31.59-12.429-43.827-13.492-13.17-1.144-15.69-.89-38.173,3.159a91.162,91.162,0,0,0-36.584,15.25c-16.067,11.635-21.5,22.25-21.947,34.486-.311,8.514-.285,19.911-.273,26.015.032,16.75.22,27.749.22,27.749.5,21.921.584,34.75,0,55,.1,6.678.275,16.194-4.75,26.5-2.014,4.132-11.685,13.749-20.5,16.333-9.142,2.681-19.447,3.53-25.666,2-11.421-2.808-10.857-1.582-22.167-7.666-4.951-2.665-14.31-12.157-18.167-30.417-.463-2.2-.559-5.882-.75-13.25-.307-11.888.573-15.2.25-24-.332-9.074-.506-13.837-2.5-20-4.4-13.6-14.042-22.876-15.5-24.25-3.948-3.721-6.648-5.159-10.5-10.25a42.906,42.906,0,0,1-6.5-12,40.118,40.118,0,0,1-2-13.5c.1-16.917-.312-33.833-.25-50.75.015-3.9-.038-.745-.5-28.5-.208-12.5-.361-22.967-.464-30.442a10.319,10.319,0,0,0-1.264-4.806c-2.745-5.024-6.858-18.162-9.6-23.186a14.255,14.255,0,0,1,.081-13.816c1.788-3.181,8.212-14.438,10-17.619a11.5,11.5,0,0,0-.165-11.548l-11-19.166c-1.916-3.193-2.054-8.111-2-11.834.243-16.928-.023-5.913-.084-15.083-.275-41.785-1.795-61.232-1-99,.27-12.8.709-23.121,1-29.25,1.726-17.441,3.492-32.4,5-44.25,1.634-12.834,2.894-21.464,6.5-32.5,5.242-16.038,10.624-22.42,13-25a50.169,50.169,0,0,1,17.25-12.25c7.5-3.084,14.067-3.448,19.5-3.75a96.984,96.984,0,0,1,14.5.5c14.183,1.14,21.273,1.71,25.75,2.25,10.62,1.28,51.751,4.981,167.434,14.385a7.727,7.727,0,0,0,8.316-6.931c11.259-113.395,21.158-224.476,32.417-337.871a6.519,6.519,0,0,0-6.582-7.163c-34.734.5-68.105-1.307-102.839-.8a8.453,8.453,0,0,1-8.551-9.087q10.345-137.3,20.689-274.6a8.264,8.264,0,0,0-7.555-8.857l-116.8-9.715A10.432,10.432,0,0,0,640.2,36.156q-2.019,20.529-4.782,42.016c-2.987,23.1-6.448,45.273-10.244,66.467,0,.022-.008.044-.014.065q-5,19.233-9.992,38.468c-5.447,20.971-7.677,31.581-9.75,44.25-3.723,22.756-2.357,28.633-6.25,59.5-1.211,9.607-1.549,11.213-2.528,17.162a9.244,9.244,0,0,1-9.5,7.537c-49.385-3.241-77.859-6.878-107.6-8.574-21.128-1.205-37.338-2.8-69.875-5.125-7.644-.548-25.384-3.268-40.75,4-7.724,3.654-12.1,6.26-23.962,13.353-.025.014-.049.031-.072.047-13.476,9.865-19.742,18.49-33.466,34.1-27.577,31.368-31.215,35.441-40.5,45.167-12.572,13.17-18.58,17.315-27.75,30.583a108.184,108.184,0,0,0-14,27.5,89.082,89.082,0,0,0-3.5,29.75s1.516,51.839-.5,106c-.168,4.538,1.821,22.85-4.5,44-6.5,21.75-11.2,41.328-18,64.75-2.223,7.665-8.922,27.927-19.75,58-24.338,67.6-28.941,83.866-46.916,133.583a205.746,205.746,0,0,1-13,28c-5.7,10.4-11.668,19.34-18.334,29.334-11.245,16.862-13.11,18.15-16.333,25.333-4.441,9.9-6.03,18.888-7,28-5.089,47.8-.984,92.573-2.667,130-.148,3.3-.584,11.971,0,23.667.537,10.728,1.009,20.408,3.667,31.333,6.024,24.757,19.613,40.987,25.333,47.667,6.5,7.59,12.367,14.291,22.667,19,5.637,2.577,15.52,7.1,27,3.666A33.319,33.319,0,0,0,175,1241.422c4.217-6.268,4.824-12.733,4.791-20.5-.081-19.421,0-33.628-.458-40.833,0,0-1.427-19.844-2.833-52-1.555-35.558-.857-55.349-.834-55.984a.293.293,0,0,1,0-.041c1-10.794,2.256-19.505-.336-31.642-1.434-6.715-3.956-12.7-9-24.667-8.784-20.843-10.331-20.036-13.333-30-4.231-14.043-4.327-26.162-4.334-34-.007-9.537.97-11.594,2-25,1.5-19.479,2.247-29.219.667-38.666-3.993-23.887-19.587-39.8-25.333-45.667-12.774-13.038-25.889-19.138-33.667-22.667C76.287,812.474,62.122,810.278,48,808.089c-2.9-.449-5.679-.827-8.325-1.144a7.21,7.21,0,0,1-3.565-12.852c3.788-2.944,7.769-6.165,11.89-9.671,13.8-11.744,15.441-15.014,24.333-20,11.77-6.6,23.534-8.5,33-11,13.039-3.45,13.116-3.2,23.083-6.438,9.569-3.107,15.25-5.312,25.917-8.895a348.964,348.964,0,0,1,37-15.667c17.171-6.07,30.873-7.484,49-10,23.54-3.268,46.458-4.251,55.333-4.667,14.746-.691,29.315-3.5,44-5a48.059,48.059,0,0,0,18.667-5.666c3.646-2.016,8.1-4.547,11.333-9.667,3.636-5.759,3.651-11.506,3.667-17.667.014-5.279.032-12.521-4-20.666-1.39-2.809-6.355-12.477-17.667-17.667a39.476,39.476,0,0,0-19.312-3.375c-5.785.332-15.99,1.293-24.354,8.708-11.167,9.9-11.039,24.835-11,29.334.037,4.266.767,15.689,8.666,25.666A40.925,40.925,0,0,0,317,701.422c19.195,11.909,28.792,17.863,38.333,22.667a307.582,307.582,0,0,1,50.333,32c11.4,8.785,22.192,17.212,33.334,31.333,3.58,4.537,8.441,11.243,19.333,32,8.65,16.485,20.03,39.785,34,75C500.97,916.2,505.288,927.085,508,938.089c3.837,15.585,4.721,30.935,6.333,61,2.035,37.964.008,38.15,0,90a95.539,95.539,0,0,1-1.667,18.666c-1.877,9.85-5.21,17.532-8,24-1.786,4.142-3.6,7.888-5.346,11.216a10.291,10.291,0,0,1-9.039,5.5l-106.464.894a6.6,6.6,0,0,0-6.539,6.539q-.1,11.442-.2,22.882a9.535,9.535,0,0,0,9.43,9.623c5.842.057,12.756.243,20.488.678,31.2,1.757,38.639,5.5,41.333,7,13.1,7.29,18.878,19.9,22.333,27.333,27.37,58.9,61.851,114.331,89,173.333a211.183,211.183,0,0,0,14,25,82.823,82.823,0,0,0,7,9.667A68.74,68.74,0,0,0,601,1447.089c17.7,9.34,35.948,11.326,39.333,11.666,44.147,4.432,88.536,3.035,130,3,12.2-.011,20.577.1,37.333.334,52.536.72,78.8,1.08,101.334,3.666,15,1.722,40.07,5.27,57,7.667a371.5,371.5,0,0,0,39.416,3c6.4.2,15.448.06,21.938.052,4.312-.006,9.844-.208,15.062-.677,20.9-1.878,30.917-20.125,30.917-33.625,0-21.5-5.623-32.929-9.667-47C1057.414,1373.422,1052.518,1360.294,1050.914,1342.8Z"/></g><g id="7020b79d-f112-49f7-a69b-8bc7c9addc4d" data-name="Track-Inner"><path class="a1d2cef5-47ea-4240-94c6-1a91043eef89" d="M1050.914,1342.8c-3.253-35.507-2.25-36.125-3.745-81.112a13.258,13.258,0,0,0-13.028-13.066c-18.122-.106-37.219.084-55.31-.03a11.729,11.729,0,0,0-11.8,11.435l0,.086a10.006,10.006,0,0,1-10.022,9.782l-65.646-.2a7.946,7.946,0,0,1-7.921-7.969c.144-48.527.281-83.055.474-95.805.05-3.281.024-8.374-.237-21.67-.179-9.163-7.664-20.817-12.009-25.38-12.224-12.84-15.055-14.522-23.67-19.117-17.5-9.333-31.59-12.429-43.827-13.492-13.17-1.144-15.69-.89-38.173,3.159a91.162,91.162,0,0,0-36.584,15.25c-16.067,11.635-21.5,22.25-21.947,34.486-.311,8.514-.285,19.911-.273,26.015.032,16.75.22,27.749.22,27.749.5,21.921.584,34.75,0,55,.1,6.678.275,16.194-4.75,26.5-2.014,4.132-11.685,13.749-20.5,16.333-9.142,2.681-19.447,3.53-25.666,2-11.421-2.808-10.857-1.582-22.167-7.666-4.951-2.665-14.31-12.157-18.167-30.417-.463-2.2-.559-5.882-.75-13.25-.307-11.888.573-15.2.25-24-.332-9.074-.506-13.837-2.5-20-4.4-13.6-14.042-22.876-15.5-24.25-3.948-3.721-6.648-5.159-10.5-10.25a42.906,42.906,0,0,1-6.5-12,40.118,40.118,0,0,1-2-13.5c.1-16.917-.312-33.833-.25-50.75.015-3.9-.038-.745-.5-28.5-.208-12.5-.361-22.967-.464-30.442a10.319,10.319,0,0,0-1.264-4.806c-2.745-5.024-6.858-18.162-9.6-23.186a14.255,14.255,0,0,1,.081-13.816c1.788-3.181,8.212-14.438,10-17.619a11.5,11.5,0,0,0-.165-11.548l-11-19.166c-1.916-3.193-2.054-8.111-2-11.834.243-16.928-.023-5.913-.084-15.083-.275-41.785-1.795-61.232-1-99,.27-12.8.709-23.121,1-29.25,1.726-17.441,3.492-32.4,5-44.25,1.634-12.834,2.894-21.464,6.5-32.5,5.242-16.038,10.624-22.42,13-25a50.169,50.169,0,0,1,17.25-12.25c7.5-3.084,14.067-3.448,19.5-3.75a96.984,96.984,0,0,1,14.5.5c14.183,1.14,21.273,1.71,25.75,2.25,10.62,1.28,51.751,4.981,167.434,14.385a7.727,7.727,0,0,0,8.316-6.931c11.259-113.395,21.158-224.476,32.417-337.871a6.519,6.519,0,0,0-6.582-7.163c-34.734.5-68.105-1.307-102.839-.8a8.453,8.453,0,0,1-8.551-9.087q10.345-137.3,20.689-274.6a8.264,8.264,0,0,0-7.555-8.857l-116.8-9.715A10.432,10.432,0,0,0,640.2,36.156q-2.019,20.529-4.782,42.016c-2.987,23.1-6.448,45.273-10.244,66.467,0,.022-.008.044-.014.065q-5,19.233-9.992,38.468c-5.447,20.971-7.677,31.581-9.75,44.25-3.723,22.756-2.357,28.633-6.25,59.5-1.211,9.607-1.549,11.213-2.528,17.162a9.244,9.244,0,0,1-9.5,7.537c-49.385-3.241-77.859-6.878-107.6-8.574-21.128-1.205-37.338-2.8-69.875-5.125-7.644-.548-25.384-3.268-40.75,4-7.724,3.654-12.1,6.26-23.962,13.353-.025.014-.049.031-.072.047-13.476,9.865-19.742,18.49-33.466,34.1-27.577,31.368-31.215,35.441-40.5,45.167-12.572,13.17-18.58,17.315-27.75,30.583a108.184,108.184,0,0,0-14,27.5,89.082,89.082,0,0,0-3.5,29.75s1.516,51.839-.5,106c-.168,4.538,1.821,22.85-4.5,44-6.5,21.75-11.2,41.328-18,64.75-2.223,7.665-8.922,27.927-19.75,58-24.338,67.6-28.941,83.866-46.916,133.583a205.746,205.746,0,0,1-13,28c-5.7,10.4-11.668,19.34-18.334,29.334-11.245,16.862-13.11,18.15-16.333,25.333-4.441,9.9-6.03,18.888-7,28-5.089,47.8-.984,92.573-2.667,130-.148,3.3-.584,11.971,0,23.667.537,10.728,1.009,20.408,3.667,31.333,6.024,24.757,19.613,40.987,25.333,47.667,6.5,7.59,12.367,14.291,22.667,19,5.637,2.577,15.52,7.1,27,3.666A33.319,33.319,0,0,0,175,1241.422c4.217-6.268,4.824-12.733,4.791-20.5-.081-19.421,0-33.628-.458-40.833,0,0-1.427-19.844-2.833-52-1.555-35.558-.857-55.349-.834-55.984a.293.293,0,0,1,0-.041c1-10.794,2.256-19.505-.336-31.642-1.434-6.715-3.956-12.7-9-24.667-8.784-20.843-10.331-20.036-13.333-30-4.231-14.043-4.327-26.162-4.334-34-.007-9.537.97-11.594,2-25,1.5-19.479,2.247-29.219.667-38.666-3.993-23.887-19.587-39.8-25.333-45.667-12.774-13.038-25.889-19.138-33.667-22.667C76.287,812.474,62.122,810.278,48,808.089c-2.9-.449-5.679-.827-8.325-1.144a7.21,7.21,0,0,1-3.565-12.852c3.788-2.944,7.769-6.165,11.89-9.671,13.8-11.744,15.441-15.014,24.333-20,11.77-6.6,23.534-8.5,33-11,13.039-3.45,13.116-3.2,23.083-6.438,9.569-3.107,15.25-5.312,25.917-8.895a348.964,348.964,0,0,1,37-15.667c17.171-6.07,30.873-7.484,49-10,23.54-3.268,46.458-4.251,55.333-4.667,14.746-.691,29.315-3.5,44-5a48.059,48.059,0,0,0,18.667-5.666c3.646-2.016,8.1-4.547,11.333-9.667,3.636-5.759,3.651-11.506,3.667-17.667.014-5.279.032-12.521-4-20.666-1.39-2.809-6.355-12.477-17.667-17.667a39.476,39.476,0,0,0-19.312-3.375c-5.785.332-15.99,1.293-24.354,8.708-11.167,9.9-11.039,24.835-11,29.334.037,4.266.767,15.689,8.666,25.666A40.925,40.925,0,0,0,317,701.422c19.195,11.909,28.792,17.863,38.333,22.667a307.582,307.582,0,0,1,50.333,32c11.4,8.785,22.192,17.212,33.334,31.333,3.58,4.537,8.441,11.243,19.333,32,8.65,16.485,20.03,39.785,34,75C500.97,916.2,505.288,927.085,508,938.089c3.837,15.585,4.721,30.935,6.333,61,2.035,37.964.008,38.15,0,90a95.539,95.539,0,0,1-1.667,18.666c-1.877,9.85-5.21,17.532-8,24-1.786,4.142-3.6,7.888-5.346,11.216a10.291,10.291,0,0,1-9.039,5.5l-106.464.894a6.6,6.6,0,0,0-6.539,6.539q-.1,11.442-.2,22.882a9.535,9.535,0,0,0,9.43,9.623c5.842.057,12.756.243,20.488.678,31.2,1.757,38.639,5.5,41.333,7,13.1,7.29,18.878,19.9,22.333,27.333,27.37,58.9,61.851,114.331,89,173.333a211.183,211.183,0,0,0,14,25,82.823,82.823,0,0,0,7,9.667A68.74,68.74,0,0,0,601,1447.089c17.7,9.34,35.948,11.326,39.333,11.666,44.147,4.432,88.536,3.035,130,3,12.2-.011,20.577.1,37.333.334,52.536.72,78.8,1.08,101.334,3.666,15,1.722,40.07,5.27,57,7.667a371.5,371.5,0,0,0,39.416,3c6.4.2,15.573.242,22.063.312a92.934,92.934,0,0,0,14.937-.937c22.625-4.25,30.917-20.125,30.917-33.625,0-21.5-5.623-32.929-9.667-47C1057.414,1373.422,1052.518,1360.294,1050.914,1342.8Z"/></g><g id="bb680a93-8292-4810-993b-c835ff910470" data-name="Crossover-Outer"><path class="f6bf7aef-6e06-4eb7-a1bb-781db8d1d6e6" d="M124.559,913.865a203.25,203.25,0,0,0,13.428-30.627c2.784-8.1,4.822-13.105,11.542-32.689,4.254-12.4,8.021-23.026,10.885-31.3"/><path class="f6bf7aef-6e06-4eb7-a1bb-781db8d1d6e6" d="M298.774,678.547a40.621,40.621,0,0,0,8.513,15.118c2.711,3.049,5.127,4.965,11.091,8.613,4.269,2.611,7.755,5.07,17.681,10.9,3.578,2.1,8.23,5.017,14.115,8.209"/></g><g id="4992c960-72ea-4207-ad27-78a3b0b9d8b4" data-name="Crossover-Mid"><path class="7bc84936-ea3b-407a-8eef-45f0bd35f2b0" d="M124.559,913.865a203.25,203.25,0,0,0,13.428-30.627c2.784-8.1,4.822-13.105,11.542-32.689,4.254-12.4,8.021-23.026,10.885-31.3"/><path class="7bc84936-ea3b-407a-8eef-45f0bd35f2b0" d="M298.774,678.547a40.621,40.621,0,0,0,8.513,15.118c2.711,3.049,5.127,4.965,11.091,8.613,4.269,2.611,7.755,5.07,17.681,10.9,3.578,2.1,8.23,5.017,14.115,8.209"/></g><g id="ce1455b2-25fb-4308-be3a-9874d16a6004" data-name="Crossover-Inner"><path class="a1d2cef5-47ea-4240-94c6-1a91043eef89" d="M124.559,913.865a203.25,203.25,0,0,0,13.428-30.627c2.784-8.1,4.822-13.105,11.542-32.689,4.254-12.4,8.021-23.026,10.885-31.3"/><path class="a1d2cef5-47ea-4240-94c6-1a91043eef89" d="M298.774,678.547a40.621,40.621,0,0,0,8.513,15.118c2.711,3.049,5.127,4.965,11.091,8.613,4.269,2.611,7.755,5.07,17.681,10.9,3.578,2.1,8.23,5.017,14.115,8.209"/></g><g id="63ece31b-7cc4-486a-856c-8064e9185c22" data-name="Corner Numbers"><g id="0e5655a3-64b1-497d-acf6-8b5962038f36" data-name="1"><path class="ab84d301-1c4e-4085-b985-a58a856eeda5" d="M1048.576,1235.815a10.417,10.417,0,1,1,10.722,10.1h0c-7.571.225-10.145,1.457-10.879.766S1048.8,1243.358,1048.576,1235.815Z"/><path class="433e5bef-3bc7-4e49-b343-e3f5574504d2" d="M1058.113,1231.04h-.037l-2.065,1.16-.334-1.229,2.6-1.448,1.383-.023.2,11.989-1.568.027Z"/></g><g id="e762e324-81e0-404b-9bd4-fa340dcff6b4" data-name="2"><path class="ab84d301-1c4e-4085-b985-a58a856eeda5" d="M955.469,1245.2a10.812,10.812,0,1,1,10.184-11.4h0c.443,7.848,1.793,10.484,1.1,11.266S963.289,1244.754,955.469,1245.2Z"/><path class="433e5bef-3bc7-4e49-b343-e3f5574504d2" d="M951.284,1240.26v-1.034l1.321-1.284c3.179-3.025,4.616-4.632,4.635-6.509a2.221,2.221,0,0,0-2.47-2.433,4.242,4.242,0,0,0-2.643,1.053l-.536-1.188a5.467,5.467,0,0,1,3.524-1.263,3.5,3.5,0,0,1,3.81,3.62c0,2.3-1.666,4.156-4.29,6.682l-1,.919v.039h5.592v1.4Z"/></g><g id="0ed30bf2-da8b-4aaf-a403-502348dcc860" data-name="3"><path class="ab84d301-1c4e-4085-b985-a58a856eeda5" d="M981.375,1270.759a10.512,10.512,0,1,1-8.52,12.182h0c-1.332-7.527-2.938-9.917-2.355-10.751S973.876,1272.083,981.375,1270.759Z"/><path class="433e5bef-3bc7-4e49-b343-e3f5574504d2" d="M979.914,1285.386a5.474,5.474,0,0,0,2.681.765c2.1,0,2.756-1.337,2.738-2.342-.017-1.694-1.543-2.422-3.125-2.423H981.3l0-1.229h.912c1.191,0,2.7-.612,2.7-2.046,0-.967-.612-1.824-2.12-1.826a4.444,4.444,0,0,0-2.421.8l-.427-1.192a5.748,5.748,0,0,1,3.166-.927c2.383,0,3.461,1.417,3.459,2.888a3,3,0,0,1-2.237,2.846v.037a3.152,3.152,0,0,1,2.7,3.112c0,1.936-1.511,3.629-4.415,3.626a6.15,6.15,0,0,1-3.145-.823Z"/></g><g id="1b0e3949-0cb4-41b3-9ea9-3e6b7c5c1eba" data-name="4"><path class="ab84d301-1c4e-4085-b985-a58a856eeda5" d="M884.062,1284.95a10.195,10.195,0,1,1-11.815-8.263h0c7.3-1.291,9.617-2.848,10.426-2.283S882.777,1277.677,884.062,1284.95Z"/><path class="433e5bef-3bc7-4e49-b343-e3f5574504d2" d="M874.849,1292.283l0-3.195-5.451-.006,0-1.047,5.241-7.486,1.716,0-.008,7.293,1.643,0v1.245l-1.643,0,0,3.2Zm0-4.44,0-3.917q0-.921.056-1.842h-.054c-.362.686-.652,1.19-.977,1.732l-2.874,3.987v.036Z"/></g><g id="56bd2b00-ce42-4ad1-ac85-c0130f65333e" data-name="5"><path class="ab84d301-1c4e-4085-b985-a58a856eeda5" d="M790.683,1070.05a10.195,10.195,0,1,1,14.406.591h0c-5.452,5.022-6.564,7.584-7.55,7.544S795.686,1075.483,790.683,1070.05Z"/><path class="433e5bef-3bc7-4e49-b343-e3f5574504d2" d="M801.786,1059.353l-4.477,0-.453,3.014a6.177,6.177,0,0,1,.956-.071,4.948,4.948,0,0,1,2.527.633,3.344,3.344,0,0,1,1.678,3.015,4.07,4.07,0,0,1-4.371,4,5.746,5.746,0,0,1-2.924-.722l.4-1.21a5.249,5.249,0,0,0,2.509.651,2.588,2.588,0,0,0,2.781-2.543c-.017-1.517-1.027-2.6-3.374-2.6a12.179,12.179,0,0,0-1.624.125l.76-5.631,5.614,0Z"/></g><g id="827c75ad-8d42-478e-a323-869136611c11" data-name="6"><path class="ab84d301-1c4e-4085-b985-a58a856eeda5" d="M672.169,1308.808a10.521,10.521,0,1,1-14.864.655h0c5.166-5.642,6.086-8.373,7.1-8.419S666.549,1303.66,672.169,1308.808Z"/><path class="433e5bef-3bc7-4e49-b343-e3f5574504d2" d="M667.757,1311.1a5.862,5.862,0,0,0-1.229.075,4.922,4.922,0,0,0-4.209,4.3h.056a3.692,3.692,0,0,1,6.578,2.512,4.051,4.051,0,0,1-4.023,4.269c-2.589,0-4.286-2.011-4.287-5.159a7.614,7.614,0,0,1,2.047-5.46,6.586,6.586,0,0,1,3.874-1.789,7.735,7.735,0,0,1,1.193-.1Zm-.462,6.986a2.461,2.461,0,0,0-2.5-2.774,2.7,2.7,0,0,0-2.347,1.491,1.4,1.4,0,0,0-.186.726c.038,1.994.952,3.466,2.666,3.465C666.346,1320.989,667.3,1319.814,667.3,1318.081Z"/></g><g id="f305c769-b847-471f-883c-72ff8e364ddf" data-name="7"><path class="ab84d301-1c4e-4085-b985-a58a856eeda5" d="M623.834,1181.472a10.468,10.468,0,1,1,6.125,13.478h0c-7.126-2.673-9.989-2.508-10.409-3.43S621.17,1188.572,623.834,1181.472Z"/><path class="433e5bef-3bc7-4e49-b343-e3f5574504d2" d="M638.244,1179.488v1.075l-5.255,10.971H631.3l5.236-10.656v-.037l-5.9,0v-1.354Z"/></g><g id="3419197e-70b5-4132-a74e-3185bba33e21" data-name="8"><path class="ab84d301-1c4e-4085-b985-a58a856eeda5" d="M578.435,1176.474a10.468,10.468,0,1,1-8.165-12.349h0c7.458,1.522,10.259.909,10.819,1.754S579.952,1169.044,578.435,1176.474Z"/><path class="433e5bef-3bc7-4e49-b343-e3f5574504d2" d="M564.131,1177.451a3.442,3.442,0,0,1,2.393-3.224l-.019-.056a2.984,2.984,0,0,1-1.908-2.707c0-1.91,1.613-3.207,3.727-3.207,2.336,0,3.5,1.466,3.5,2.968a3.063,3.063,0,0,1-1.985,2.817v.056a3.341,3.341,0,0,1,2.428,3.115c0,2.1-1.8,3.5-4.1,3.5C565.651,1180.715,564.13,1179.213,564.131,1177.451Zm6.49-.072c0-1.464-1.02-2.169-2.651-2.633a2.616,2.616,0,0,0-2.17,2.483,2.228,2.228,0,0,0,2.409,2.3A2.182,2.182,0,0,0,570.621,1177.379Zm-4.485-6.026c0,1.2.907,1.854,2.3,2.225a2.375,2.375,0,0,0,1.836-2.187,1.874,1.874,0,0,0-2.039-1.966A1.916,1.916,0,0,0,566.136,1171.353Z"/></g><g id="199e1d6b-ee5c-40a1-a62a-4355e0233b40" data-name="9"><path class="ab84d301-1c4e-4085-b985-a58a856eeda5" d="M591.48,1017.24a10.468,10.468,0,1,1,2.5,14.593h0c-6.212-4.4-9.023-4.967-9.194-5.966S587.1,1023.429,591.48,1017.24Z"/><path class="433e5bef-3bc7-4e49-b343-e3f5574504d2" d="M597.283,1027.976a6.75,6.75,0,0,0,1.315-.06,4.534,4.534,0,0,0,2.519-1.175,5.282,5.282,0,0,0,1.586-3.212h-.056a3.534,3.534,0,0,1-2.833,1.305,3.49,3.49,0,0,1-3.57-3.68,4.131,4.131,0,0,1,4.105-4.293c2.466-.007,3.991,1.991,4,5.069a7.617,7.617,0,0,1-2.062,5.66,6.027,6.027,0,0,1-3.5,1.623,7.663,7.663,0,0,1-1.5.1Zm.574-6.936a2.318,2.318,0,0,0,2.324,2.552,2.7,2.7,0,0,0,2.37-1.267,1.076,1.076,0,0,0,.147-.594c-.006-2.057-.77-3.631-2.476-3.627C598.831,1018.108,597.852,1019.334,597.857,1021.04Z"/></g><g id="f0b11926-6898-4604-a606-f7771dac09e4" data-name="10"><path class="ab84d301-1c4e-4085-b985-a58a856eeda5" d="M550.31,1003.207a10.468,10.468,0,1,1-2.494-14.592h0c6.212,4.4,9.023,4.967,9.194,5.966S554.694,997.019,550.31,1003.207Z"/><path class="433e5bef-3bc7-4e49-b343-e3f5574504d2" d="M536.272,993.027h-.037l-2.092,1.137-.318-1.242,2.629-1.416,1.39,0,.033,12.051-1.576,0Z"/><path class="433e5bef-3bc7-4e49-b343-e3f5574504d2" d="M550.261,997.364c.012,4.1-1.5,6.364-4.173,6.37-2.354.007-3.955-2.2-4-6.18-.01-4.042,1.727-6.272,4.174-6.279C548.8,991.269,550.251,993.526,550.261,997.364Zm-6.544.2c.009,3.133.978,4.911,2.461,4.907,1.669,0,2.46-1.954,2.452-5.031-.009-2.966-.773-4.911-2.461-4.907C544.742,992.54,543.708,994.286,543.717,997.567Z"/></g><g id="ac933199-6e38-47e5-bbed-d23f07fc2315" data-name="11"><path class="ab84d301-1c4e-4085-b985-a58a856eeda5" d="M592.756,953.9a10.468,10.468,0,1,1,2.494,14.592h0c-6.212-4.4-9.022-4.966-9.194-5.965S588.372,960.088,592.756,953.9Z"/><path class="433e5bef-3bc7-4e49-b343-e3f5574504d2" d="M596.5,955.623h-.037l-2.092,1.137-.318-1.242,2.629-1.416,1.391,0,.033,12.05-1.576,0Z"/><path class="433e5bef-3bc7-4e49-b343-e3f5574504d2" d="M606.012,955.6h-.037l-2.092,1.136-.318-1.241,2.629-1.416,1.39,0,.034,12.051-1.577,0Z"/></g><g id="2b941e46-eeea-41a8-b693-7b4bcf8f215b" data-name="12"><path class="ab84d301-1c4e-4085-b985-a58a856eeda5" d="M550.31,944.163a10.468,10.468,0,1,1-2.494-14.593h0c6.212,4.4,9.023,4.967,9.194,5.966S554.694,937.975,550.31,944.163Z"/><path class="433e5bef-3bc7-4e49-b343-e3f5574504d2" d="M536.272,932.607h-.037l-2.092,1.136-.318-1.241,2.629-1.416,1.39,0,.033,12.051-1.576,0Z"/><path class="433e5bef-3bc7-4e49-b343-e3f5574504d2" d="M542.269,943.122l0-1,1.275-1.246c3.071-2.938,4.456-4.5,4.47-6.315a2.15,2.15,0,0,0-2.4-2.348,4.1,4.1,0,0,0-2.555,1.026l-.522-1.147a5.287,5.287,0,0,1,3.408-1.234,3.391,3.391,0,0,1,3.7,3.5c.006,2.224-1.6,4.027-4.135,6.481l-.962.893v.037l5.414-.015,0,1.354Z"/></g><g id="084b7c5a-d5f1-45c9-9f4e-e51bcb445b94" data-name="13"><path class="ab84d301-1c4e-4085-b985-a58a856eeda5" d="M578.177,668.854a10.468,10.468,0,1,1,10.713-10.217h0c-.181,7.609.918,10.258.184,10.958S585.758,669.035,578.177,668.854Z"/><path class="433e5bef-3bc7-4e49-b343-e3f5574504d2" d="M573.024,654.256h-.037l-2.1,1.13-.314-1.242,2.632-1.409H574.6l0,12.05h-1.576Z"/><path class="433e5bef-3bc7-4e49-b343-e3f5574504d2" d="M579.377,662.916a5.456,5.456,0,0,0,2.669.762c2.095,0,2.744-1.334,2.726-2.335-.018-1.688-1.536-2.411-3.112-2.411h-.909v-1.224h.909c1.186,0,2.688-.611,2.689-2.038,0-.965-.611-1.817-2.112-1.818a4.426,4.426,0,0,0-2.41.8l-.427-1.186a5.729,5.729,0,0,1,3.151-.926c2.373,0,3.448,1.411,3.447,2.876a2.991,2.991,0,0,1-2.225,2.835v.037a3.139,3.139,0,0,1,2.686,3.1c0,1.928-1.5,3.614-4.394,3.613a6.141,6.141,0,0,1-3.134-.817Z"/></g><g id="6d4c2fb2-7990-44a1-ab86-b0a6abf6caf8" data-name="14"><path class="ab84d301-1c4e-4085-b985-a58a856eeda5" d="M854.294,686.9a10.468,10.468,0,1,1-10.713,10.217h0c.18-7.61-.918-10.259-.185-10.958S846.712,686.715,854.294,686.9Z"/><path class="433e5bef-3bc7-4e49-b343-e3f5574504d2" d="M847.938,692.662H847.9l-2.1,1.13-.314-1.242,2.632-1.408h1.391l0,12.049h-1.576Z"/><path class="433e5bef-3bc7-4e49-b343-e3f5574504d2" d="M858.944,703.2v-3.281l-5.6,0v-1.075l5.379-7.692h1.762l0,7.49h1.686v1.279h-1.686V703.2Zm0-4.56,0-4.024q0-.947.056-1.89h-.055c-.372.7-.668,1.222-1,1.779L855,698.6v.037Z"/></g><g id="765033ec-08ae-44a6-bbb0-9c0ba9b4f504" data-name="15"><path class="ab84d301-1c4e-4085-b985-a58a856eeda5" d="M878.168,315.909a10.468,10.468,0,1,1,10.217,10.713h0c-7.61-.181-10.259.917-10.958.184S877.986,323.49,878.168,315.909Z"/><path class="433e5bef-3bc7-4e49-b343-e3f5574504d2" d="M882.822,312.615h-.037l-2.1,1.13-.315-1.242,2.633-1.408H884.4l0,12.049h-1.576Z"/><path class="433e5bef-3bc7-4e49-b343-e3f5574504d2" d="M895.983,312.473l-4.6,0-.465,3.095a6.45,6.45,0,0,1,.983-.074,5.087,5.087,0,0,1,2.594.651,3.432,3.432,0,0,1,1.724,3.1,4.18,4.18,0,0,1-4.488,4.114,5.9,5.9,0,0,1-3-.743l.409-1.242a5.4,5.4,0,0,0,2.576.669,2.66,2.66,0,0,0,2.857-2.613c-.019-1.557-1.056-2.67-3.466-2.671a12.4,12.4,0,0,0-1.668.129l.78-5.784,5.766,0Z"/></g><g id="71436f10-8b50-40d3-ac7d-56c4d47ee134" data-name="16"><path class="ab84d301-1c4e-4085-b985-a58a856eeda5" d="M751.441,343.827a10.468,10.468,0,1,1-10.217-10.713h0c7.609.18,10.258-.918,10.958-.185S751.623,336.246,751.441,343.827Z"/><path class="433e5bef-3bc7-4e49-b343-e3f5574504d2" d="M735.609,338.623h-.037l-2.1,1.13-.314-1.242,2.632-1.408h1.391l0,12.05H735.6Z"/><path class="433e5bef-3bc7-4e49-b343-e3f5574504d2" d="M748.455,338.258a5.853,5.853,0,0,0-1.223.073,4.9,4.9,0,0,0-4.193,4.281h.056a3.673,3.673,0,0,1,6.543,2.506,4.029,4.029,0,0,1-4.006,4.243c-2.577,0-4.263-2-4.262-5.136a7.574,7.574,0,0,1,2.043-5.432,6.548,6.548,0,0,1,3.855-1.778,7.85,7.85,0,0,1,1.187-.092Zm-.466,6.952a2.45,2.45,0,0,0-2.484-2.764,2.686,2.686,0,0,0-2.337,1.483,1.382,1.382,0,0,0-.185.722c.036,1.984.943,3.449,2.649,3.45C747.041,348.1,747.988,346.934,747.989,345.21Z"/></g><g id="ca795249-67bb-4389-ae44-55e0d321b94e" data-name="17"><path class="ab84d301-1c4e-4085-b985-a58a856eeda5" d="M781.325,23.3A10.468,10.468,0,1,1,791.542,34.01h0c-7.61-.181-10.259.917-10.958.184S781.143,30.878,781.325,23.3Z"/><path class="433e5bef-3bc7-4e49-b343-e3f5574504d2" d="M785.959,20.15h-.037l-2.1,1.13-.315-1.242,2.633-1.408h1.391l0,12.05h-1.576Z"/><path class="433e5bef-3bc7-4e49-b343-e3f5574504d2" d="M799.751,18.636v1.075L794.5,30.685h-1.686l5.232-10.659v-.037l-5.895,0V18.633Z"/></g><g id="b1ada54c-30bc-4866-aa45-c5b64b95b310" data-name="18"><path class="ab84d301-1c4e-4085-b985-a58a856eeda5" d="M629.113,21.683a10.468,10.468,0,1,1,10.713-10.217h0c-.181,7.609.917,10.258.184,10.958S636.694,21.864,629.113,21.683Z"/><path class="433e5bef-3bc7-4e49-b343-e3f5574504d2" d="M623.834,7.42H623.8l-2.1,1.13-.315-1.242L624.02,5.9h1.391l0,12.05H623.83Z"/><path class="433e5bef-3bc7-4e49-b343-e3f5574504d2" d="M629.65,14.894a3.444,3.444,0,0,1,2.393-3.225l-.018-.056A2.987,2.987,0,0,1,630.117,8.9c0-1.909,1.614-3.206,3.727-3.2,2.336,0,3.5,1.466,3.5,2.968a3.06,3.06,0,0,1-1.984,2.816v.056a3.34,3.34,0,0,1,2.426,3.116c0,2.1-1.8,3.5-4.1,3.5C631.169,18.157,629.649,16.654,629.65,14.894Zm6.489-.072c0-1.465-1.018-2.17-2.649-2.634a2.619,2.619,0,0,0-2.171,2.484,2.229,2.229,0,0,0,2.409,2.3A2.18,2.18,0,0,0,636.139,14.822ZM631.656,8.8c0,1.205.907,1.854,2.3,2.225a2.371,2.371,0,0,0,1.835-2.186,1.872,1.872,0,0,0-2.038-1.966A1.916,1.916,0,0,0,631.656,8.8Z"/></g><g id="773c4881-9e5f-4eee-aa89-51f444a64e43" data-name="19"><path class="ab84d301-1c4e-4085-b985-a58a856eeda5" d="M608.926,316.878A10.468,10.468,0,1,1,598.213,327.1h0c.181-7.61-.917-10.259-.184-10.958S601.345,316.7,608.926,316.878Z"/><path class="433e5bef-3bc7-4e49-b343-e3f5574504d2" d="M602.445,322.664h-.037l-2.1,1.13L600,322.552l2.633-1.408h1.391l0,12.049H602.44Z"/><path class="433e5bef-3bc7-4e49-b343-e3f5574504d2" d="M609.353,332.048a6.783,6.783,0,0,0,1.316-.056,4.537,4.537,0,0,0,2.523-1.166,5.286,5.286,0,0,0,1.6-3.207h-.056a3.536,3.536,0,0,1-2.837,1.3,3.491,3.491,0,0,1-3.558-3.691,4.132,4.132,0,0,1,4.118-4.281c2.465,0,3.986,2,3.984,5.081a7.617,7.617,0,0,1-2.079,5.654,6.029,6.029,0,0,1-3.5,1.612,7.685,7.685,0,0,1-1.5.092Zm.6-6.934a2.318,2.318,0,0,0,2.315,2.56,2.7,2.7,0,0,0,2.374-1.26,1.074,1.074,0,0,0,.148-.593c0-2.058-.757-3.634-2.463-3.635C610.934,322.186,609.951,323.408,609.951,325.114Z"/></g><g id="1fd56c6e-332f-4836-b6c0-1882532b80a2" data-name="20"><path class="ab84d301-1c4e-4085-b985-a58a856eeda5" d="M360.351,288.659A10.468,10.468,0,1,1,374,282.919h0c-2.874,7.047-2.79,9.914-3.724,10.307S367.373,291.525,360.351,288.659Z"/><path class="433e5bef-3bc7-4e49-b343-e3f5574504d2" d="M356.774,284.521V283.6l1.193-1.149c2.869-2.708,4.165-4.147,4.184-5.828a2,2,0,0,0-2.227-2.181,3.842,3.842,0,0,0-2.385.942l-.482-1.064a4.949,4.949,0,0,1,3.179-1.129,3.148,3.148,0,0,1,3.435,3.245c0,2.057-1.506,3.72-3.874,5.982l-.9.822v.034l5.044,0v1.252Z"/><path class="433e5bef-3bc7-4e49-b343-e3f5574504d2" d="M373.1,278.839c0,3.791-1.42,5.882-3.908,5.88-2.194,0-3.678-2.044-3.709-5.732,0-3.738,1.628-5.8,3.908-5.794C371.761,273.2,373.106,275.289,373.1,278.839Zm-6.1.167c0,2.9.9,4.546,2.277,4.547,1.554,0,2.3-1.8,2.3-4.647,0-2.744-.705-4.546-2.276-4.547C367.977,274.358,367.008,275.97,367.006,279.006Z"/></g><g id="0ac5980a-18df-4861-ae64-73d6652d2978" data-name="21"><path class="ab84d301-1c4e-4085-b985-a58a856eeda5" d="M213.777,445.917a10.468,10.468,0,1,1,5.591-13.708h0c2.951,7.016,5.037,8.983,4.655,9.922S220.768,442.978,213.777,445.917Z"/><path class="433e5bef-3bc7-4e49-b343-e3f5574504d2" d="M202.4,441.444v-.925l1.192-1.149c2.87-2.708,4.166-4.147,4.185-5.828a2,2,0,0,0-2.227-2.181,3.842,3.842,0,0,0-2.385.942l-.482-1.064a4.95,4.95,0,0,1,3.179-1.13,3.149,3.149,0,0,1,3.435,3.245c0,2.058-1.506,3.721-3.874,5.983l-.9.822v.034l5.044,0v1.252Z"/><path class="433e5bef-3bc7-4e49-b343-e3f5574504d2" d="M214.566,431.712h-.034l-1.953,1.044-.292-1.15,2.453-1.3h1.3l-.009,11.148h-1.468Z"/></g><g id="83c335d7-2d91-4a6c-ac92-08bc26e1b51b" data-name="22"><path class="ab84d301-1c4e-4085-b985-a58a856eeda5" d="M242.66,617.238a10.468,10.468,0,1,1-5.591,13.708h0c-2.951-7.016-5.037-8.983-4.655-9.922S235.669,620.177,242.66,617.238Z"/><path class="433e5bef-3bc7-4e49-b343-e3f5574504d2" d="M238.52,631.357v-.925l1.193-1.149c2.869-2.708,4.165-4.147,4.184-5.828a2,2,0,0,0-2.227-2.181,3.839,3.839,0,0,0-2.384.942l-.483-1.064a4.95,4.95,0,0,1,3.179-1.13,3.149,3.149,0,0,1,3.435,3.246c0,2.057-1.5,3.72-3.874,5.982l-.9.822v.034l5.044,0v1.252Z"/><path class="433e5bef-3bc7-4e49-b343-e3f5574504d2" d="M247.383,631.363v-.926l1.193-1.148c2.869-2.708,4.166-4.147,4.185-5.828a2,2,0,0,0-2.227-2.18,3.837,3.837,0,0,0-2.385.942l-.483-1.065a4.955,4.955,0,0,1,3.18-1.129,3.148,3.148,0,0,1,3.434,3.244c0,2.058-1.5,3.721-3.873,5.984l-.9.822v.034l5.043,0v1.252Z"/></g><g id="f4ac028d-6ad1-40e2-b5cc-c9389635c583" data-name="23"><path class="ab84d301-1c4e-4085-b985-a58a856eeda5" d="M68.216,978.755a10.468,10.468,0,1,1,5.59-13.708h0c2.951,7.017,5.038,8.984,4.655,9.922S75.207,975.817,68.216,978.755Z"/><path class="433e5bef-3bc7-4e49-b343-e3f5574504d2" d="M56.92,974.656v-.926l1.193-1.148c2.869-2.708,4.165-4.147,4.185-5.828a2,2,0,0,0-2.228-2.181,3.839,3.839,0,0,0-2.384.942l-.483-1.064a4.95,4.95,0,0,1,3.179-1.13,3.149,3.149,0,0,1,3.435,3.245c0,2.058-1.5,3.721-3.874,5.983l-.9.822v.034l5.043,0v1.252Z"/><path class="433e5bef-3bc7-4e49-b343-e3f5574504d2" d="M66.148,972.931a5.1,5.1,0,0,0,2.486.7c1.952,0,2.558-1.233,2.541-2.159-.016-1.561-1.432-2.231-2.9-2.232h-.847v-1.132h.847c1.105,0,2.5-.563,2.505-1.884,0-.892-.568-1.681-1.967-1.682a4.135,4.135,0,0,0-2.246.735l-.4-1.1a5.356,5.356,0,0,1,2.937-.856c2.21,0,3.211,1.306,3.21,2.66a2.769,2.769,0,0,1-2.074,2.623v.035a2.911,2.911,0,0,1,2.5,2.866c0,1.783-1.4,3.342-4.1,3.341a5.737,5.737,0,0,1-2.919-.757Z"/></g><g id="31506a0f-6e8e-4cce-a8f5-cf800475553a" data-name="24"><path class="ab84d301-1c4e-4085-b985-a58a856eeda5" d="M73.515,1207.982a10.468,10.468,0,1,1-5.74-13.646h0c7.048,2.874,9.915,2.79,10.308,3.724S76.38,1200.96,73.515,1207.982Z"/><path class="433e5bef-3bc7-4e49-b343-e3f5574504d2" d="M56.288,1209.286v-.926l1.193-1.148c2.869-2.708,4.165-4.148,4.184-5.828a2,2,0,0,0-2.227-2.181,3.842,3.842,0,0,0-2.385.942l-.482-1.064a4.95,4.95,0,0,1,3.179-1.13,3.149,3.149,0,0,1,3.435,3.245c0,2.058-1.506,3.721-3.874,5.983l-.9.822v.034l5.044,0v1.252Z"/><path class="433e5bef-3bc7-4e49-b343-e3f5574504d2" d="M69.849,1209.3l0-3.036-5.217,0v-.994l5.015-7.115h1.641l-.006,6.93h1.572v1.183H71.285l0,3.036Zm0-4.219,0-3.722q0-.876.052-1.75h-.051c-.347.652-.623,1.131-.934,1.646l-2.749,3.789v.034Z"/></g><g id="0417344e-ceba-4fdc-90ed-903c23391d4d" data-name="25"><path class="ab84d301-1c4e-4085-b985-a58a856eeda5" d="M146.48,1242.049a10.468,10.468,0,1,1,13.942-4.978h0c-3.259,6.879-3.333,9.745-4.288,10.086S153.332,1245.3,146.48,1242.049Z"/><path class="433e5bef-3bc7-4e49-b343-e3f5574504d2" d="M143.587,1238.412l0-.883,1.137-1.092c2.737-2.58,3.973-3.951,3.992-5.552a1.9,1.9,0,0,0-2.121-2.078,3.659,3.659,0,0,0-2.273.9l-.46-1.015a4.715,4.715,0,0,1,3.031-1.073,3,3,0,0,1,3.272,3.092c0,1.961-1.437,3.545-3.7,5.7l-.857.783v.033l4.807.006v1.194Z"/><path class="433e5bef-3bc7-4e49-b343-e3f5574504d2" d="M158.434,1229.02l-4.083-.006-.416,2.729a5.63,5.63,0,0,1,.873-.064,4.549,4.549,0,0,1,2.3.574,3.024,3.024,0,0,1,1.527,2.731,3.7,3.7,0,0,1-3.989,3.623,5.282,5.282,0,0,1-2.667-.657l.364-1.1a4.814,4.814,0,0,0,2.288.593,2.356,2.356,0,0,0,2.539-2.3c-.015-1.372-.936-2.353-3.076-2.356a11.23,11.23,0,0,0-1.482.112l.7-5.1,5.12.007Z"/></g><g id="87103be4-bd96-47b8-b759-aefeb14ac6ec" data-name="26"><path class="ab84d301-1c4e-4085-b985-a58a856eeda5" d="M188.505,1030.461a10.468,10.468,0,1,1,5.029,13.924h0c-6.89-3.234-9.757-3.3-10.1-4.251S185.282,1037.325,188.505,1030.461Z"/><path class="433e5bef-3bc7-4e49-b343-e3f5574504d2" d="M190.626,1040.376l0-.883,1.133-1.1c2.727-2.587,3.959-3.963,3.972-5.565a1.9,1.9,0,0,0-2.129-2.07,3.657,3.657,0,0,0-2.27.9l-.463-1.013a4.72,4.72,0,0,1,3.027-1.085,3,3,0,0,1,3.283,3.081c0,1.961-1.424,3.55-3.675,5.712l-.854.786v.033l4.807-.011,0,1.193Z"/><path class="433e5bef-3bc7-4e49-b343-e3f5574504d2" d="M205.157,1030.733a5.278,5.278,0,0,0-1.087.068,4.333,4.333,0,0,0-3.712,3.784h.05a3.2,3.2,0,0,1,2.582-1.232,3.164,3.164,0,0,1,3.235,3.424,3.564,3.564,0,0,1-3.548,3.751c-2.289,0-3.791-1.756-3.8-4.517a6.653,6.653,0,0,1,1.8-4.794,5.847,5.847,0,0,1,3.421-1.576,6.831,6.831,0,0,1,1.053-.084Zm-.4,6.13a2.164,2.164,0,0,0-2.211-2.43,2.387,2.387,0,0,0-2.072,1.312,1.215,1.215,0,0,0-.163.638c.037,1.748.846,3.037,2.361,3.034C203.925,1039.414,204.763,1038.383,204.759,1036.863Z"/></g><g id="f5a8cec3-3bf4-496e-8617-06d143307036" data-name="27"><path class="ab84d301-1c4e-4085-b985-a58a856eeda5" d="M136.621,979.12a10.468,10.468,0,1,1-5.028-13.924h0c6.89,3.234,9.757,3.3,10.1,4.25S139.845,972.255,136.621,979.12Z"/><path class="433e5bef-3bc7-4e49-b343-e3f5574504d2" d="M120.441,980.144l0-.883,1.134-1.1c2.727-2.588,3.959-3.964,3.972-5.565a1.9,1.9,0,0,0-2.129-2.071,3.649,3.649,0,0,0-2.27.9l-.463-1.013a4.719,4.719,0,0,1,3.026-1.085,3,3,0,0,1,3.284,3.081c0,1.961-1.424,3.55-3.675,5.712l-.854.786v.032l4.807-.01,0,1.193Z"/><path class="433e5bef-3bc7-4e49-b343-e3f5574504d2" d="M135.81,969.486l0,.948-4.637,9.685-1.5,0,4.621-9.407v-.033l-5.236.012,0-1.192Z"/></g><g id="e853bc2f-023b-4e62-b9d0-35f54745b597" data-name="28"><path class="ab84d301-1c4e-4085-b985-a58a856eeda5" d="M126.742,867.908a10.468,10.468,0,1,1-9-11.753h0c7.546,1,10.3.2,10.914,1S127.741,860.391,126.742,867.908Z"/><path class="433e5bef-3bc7-4e49-b343-e3f5574504d2" d="M109.267,871.649v-.882l1.136-1.1c2.735-2.581,3.97-3.953,3.987-5.555a1.9,1.9,0,0,0-2.123-2.076,3.646,3.646,0,0,0-2.272.9l-.461-1.013a4.712,4.712,0,0,1,3.03-1.077,3,3,0,0,1,3.275,3.088c0,1.961-1.434,3.547-3.69,5.7l-.857.783v.032l4.808,0v1.193Z"/><path class="433e5bef-3bc7-4e49-b343-e3f5574504d2" d="M117.581,868.956a3.037,3.037,0,0,1,2.125-2.843l-.016-.049A2.63,2.63,0,0,1,118,863.678c0-1.684,1.433-2.826,3.31-2.826,2.075,0,3.111,1.293,3.111,2.616a2.7,2.7,0,0,1-1.763,2.483V866a2.948,2.948,0,0,1,2.156,2.746c0,1.847-1.6,3.088-3.64,3.087C118.93,871.832,117.58,870.509,117.581,868.956Zm5.762-.063c0-1.291-.9-1.913-2.353-2.322a2.313,2.313,0,0,0-1.927,2.189,1.972,1.972,0,0,0,2.139,2.027A1.93,1.93,0,0,0,123.343,868.893Zm-3.982-5.313c0,1.063.806,1.635,2.041,1.961a2.1,2.1,0,0,0,1.631-1.927,1.658,1.658,0,0,0-1.811-1.733A1.7,1.7,0,0,0,119.361,863.58Z"/></g><g id="7f95788d-e9f7-4cae-b1c2-5a6a6a6b94c3" data-name="29"><path class="ab84d301-1c4e-4085-b985-a58a856eeda5" d="M19.856,813.681a10.468,10.468,0,1,1-2.722-14.552h0c6.28,4.3,9.1,4.826,9.286,5.822S24.142,807.425,19.856,813.681Z"/><path class="433e5bef-3bc7-4e49-b343-e3f5574504d2" d="M4.326,813.138v-.883l1.135-1.1c2.73-2.585,3.964-3.96,3.978-5.561a1.9,1.9,0,0,0-2.126-2.073,3.661,3.661,0,0,0-2.271.9l-.462-1.013a4.718,4.718,0,0,1,3.028-1.082,3,3,0,0,1,3.28,3.085c0,1.961-1.429,3.548-3.682,5.708l-.855.785v.032l4.807,0v1.194Z"/><path class="433e5bef-3bc7-4e49-b343-e3f5574504d2" d="M13.61,812.114a6.07,6.07,0,0,0,1.168-.05,4.048,4.048,0,0,0,2.239-1.032A4.655,4.655,0,0,0,18.43,808.2h-.05a3.152,3.152,0,0,1-2.518,1.146A3.086,3.086,0,0,1,12.7,806.1a3.654,3.654,0,0,1,3.651-3.779c2.189,0,3.542,1.761,3.544,4.474a6.683,6.683,0,0,1-1.838,4.986,5.368,5.368,0,0,1-3.111,1.425,6.737,6.737,0,0,1-1.333.083ZM14.13,806a2.051,2.051,0,0,0,2.061,2.253,2.4,2.4,0,0,0,2.106-1.113.947.947,0,0,0,.131-.523c0-1.814-.679-3.2-2.193-3.2C15,803.419,14.129,804.5,14.13,806Z"/></g><g id="981deb8a-b217-4d98-b701-00c3b26dd5ea" data-name="30"><path class="ab84d301-1c4e-4085-b985-a58a856eeda5" d="M327.072,612.69a10.468,10.468,0,1,1,14.786-.717h0c-5.115,5.636-6.018,8.358-7.03,8.408S332.686,617.787,327.072,612.69Z"/><path class="433e5bef-3bc7-4e49-b343-e3f5574504d2" d="M327.094,608.786a4.857,4.857,0,0,0,2.371.669c1.861,0,2.437-1.178,2.42-2.06-.017-1.487-1.368-2.124-2.767-2.123h-.807v-1.079h.807c1.053,0,2.387-.54,2.386-1.8,0-.849-.544-1.6-1.878-1.6a3.967,3.967,0,0,0-2.14.7l-.379-1.046a5.127,5.127,0,0,1,2.8-.817c2.108,0,3.063,1.24,3.064,2.531a2.643,2.643,0,0,1-1.975,2.5v.032a2.773,2.773,0,0,1,2.388,2.729c0,1.7-1.332,3.186-3.9,3.187a5.47,5.47,0,0,1-2.782-.717Z"/><path class="433e5bef-3bc7-4e49-b343-e3f5574504d2" d="M342.305,605.005c0,3.611-1.348,5.605-3.719,5.606-2.091,0-3.507-1.942-3.542-5.456,0-3.562,1.545-5.524,3.719-5.525C341.018,599.629,342.3,601.622,342.305,605.005Zm-5.812.166c0,2.762.858,4.33,2.175,4.329,1.482,0,2.189-1.717,2.188-4.43,0-2.614-.677-4.329-2.175-4.329C337.413,600.742,336.492,602.278,336.493,605.171Z"/></g><g id="cdbe2417-00ce-470b-b207-5e1a0040da54" data-name="31"><path class="ab84d301-1c4e-4085-b985-a58a856eeda5" d="M529.072,1108.861a10.468,10.468,0,1,1-4.121,14.219h0c-3.67-6.668-5.952-8.4-5.67-9.379S522.428,1112.517,529.072,1108.861Z"/><path class="433e5bef-3bc7-4e49-b343-e3f5574504d2" d="M527.623,1121.306a4.878,4.878,0,0,0,2.371.669c1.86,0,2.436-1.178,2.419-2.061-.017-1.486-1.367-2.123-2.766-2.123h-.807v-1.079h.806c1.054,0,2.388-.54,2.387-1.8,0-.85-.544-1.6-1.877-1.6a3.942,3.942,0,0,0-2.14.7l-.38-1.046a5.112,5.112,0,0,1,2.8-.818c2.107,0,3.063,1.241,3.063,2.532a2.641,2.641,0,0,1-1.975,2.5v.032a2.775,2.775,0,0,1,2.389,2.729c0,1.7-1.332,3.187-3.9,3.188a5.476,5.476,0,0,1-2.783-.718Z"/><path class="433e5bef-3bc7-4e49-b343-e3f5574504d2" d="M538.864,1113.67h-.033l-1.86,1-.28-1.1,2.337-1.242h1.235l0,10.622h-1.4Z"/></g><g id="b831abdc-cbd8-43de-b715-23bcb1353444" data-name="32"><path class="ab84d301-1c4e-4085-b985-a58a856eeda5" d="M510.237,1155.652a10.468,10.468,0,1,1-11.8,8.94h0c1.039-7.54.248-10.3,1.055-10.908S502.725,1154.615,510.237,1155.652Z"/><path class="433e5bef-3bc7-4e49-b343-e3f5574504d2" d="M501.474,1169.083a4.862,4.862,0,0,0,2.37.674c1.86,0,2.438-1.174,2.423-2.057-.015-1.486-1.364-2.126-2.763-2.128H502.7l0-1.079h.806c1.054,0,2.388-.535,2.39-1.793,0-.849-.541-1.6-1.875-1.6a3.962,3.962,0,0,0-2.141.7l-.377-1.047a5.124,5.124,0,0,1,2.8-.812c2.108,0,3.061,1.246,3.059,2.537a2.642,2.642,0,0,1-1.979,2.5V1165a2.774,2.774,0,0,1,2.383,2.732c0,1.7-1.338,3.185-3.907,3.182a5.473,5.473,0,0,1-2.781-.723Z"/><path class="433e5bef-3bc7-4e49-b343-e3f5574504d2" d="M509.571,1170.745v-.883l1.137-1.092c2.737-2.58,3.974-3.951,3.993-5.552a1.9,1.9,0,0,0-2.122-2.078,3.656,3.656,0,0,0-2.272.9l-.46-1.015a4.715,4.715,0,0,1,3.031-1.073,3,3,0,0,1,3.272,3.092c0,1.961-1.438,3.545-3.7,5.7l-.857.783v.033l4.807.007,0,1.193Z"/></g><g id="f0a1f688-7e7d-4fa3-b285-d89e8c52dcc3" data-name="33"><path class="ab84d301-1c4e-4085-b985-a58a856eeda5" d="M363.355,1144.217a10.468,10.468,0,1,1,10.847-10.075h0c-.281,7.607.782,10.27.04,10.96S370.933,1144.5,363.355,1144.217Z"/><path class="433e5bef-3bc7-4e49-b343-e3f5574504d2" d="M357.08,1137.75a4.875,4.875,0,0,0,2.371.672c1.86,0,2.438-1.175,2.422-2.058-.015-1.486-1.365-2.126-2.764-2.127H358.3v-1.079h.807c1.053,0,2.387-.537,2.388-1.795,0-.849-.542-1.6-1.876-1.6a3.95,3.95,0,0,0-2.14.7l-.378-1.046a5.115,5.115,0,0,1,2.8-.814c2.107,0,3.061,1.243,3.06,2.534a2.643,2.643,0,0,1-1.978,2.5v.032a2.774,2.774,0,0,1,2.385,2.731c0,1.7-1.336,3.186-3.9,3.184a5.471,5.471,0,0,1-2.782-.722Z"/><path class="433e5bef-3bc7-4e49-b343-e3f5574504d2" d="M365.526,1137.757a4.867,4.867,0,0,0,2.37.672c1.86,0,2.438-1.175,2.422-2.058-.015-1.486-1.365-2.126-2.764-2.127h-.807v-1.079h.807c1.053,0,2.387-.537,2.388-1.8,0-.85-.542-1.6-1.875-1.6a3.951,3.951,0,0,0-2.141.7l-.378-1.046a5.114,5.114,0,0,1,2.8-.815c2.107,0,3.061,1.244,3.06,2.535a2.643,2.643,0,0,1-1.978,2.5v.032a2.774,2.774,0,0,1,2.385,2.731c0,1.7-1.336,3.186-3.9,3.184a5.469,5.469,0,0,1-2.783-.722Z"/></g><g id="7a983414-ddce-4937-9080-20eddec687ba" data-name="34"><path class="ab84d301-1c4e-4085-b985-a58a856eeda5" d="M374.2,1202.726a10.468,10.468,0,1,1-10.075-10.847h0c7.606.281,10.269-.782,10.959-.04S374.484,1195.147,374.2,1202.726Z"/><path class="433e5bef-3bc7-4e49-b343-e3f5574504d2" d="M357.081,1205.3a4.867,4.867,0,0,0,2.37.672c1.86,0,2.438-1.175,2.422-2.058-.015-1.486-1.365-2.126-2.764-2.127H358.3V1200.7h.807c1.053,0,2.387-.537,2.388-1.8,0-.849-.542-1.6-1.875-1.6a3.951,3.951,0,0,0-2.141.7l-.378-1.046a5.123,5.123,0,0,1,2.8-.815c2.107,0,3.061,1.244,3.06,2.535a2.643,2.643,0,0,1-1.978,2.5v.032a2.774,2.774,0,0,1,2.385,2.731c0,1.7-1.336,3.186-3.9,3.184a5.472,5.472,0,0,1-2.783-.722Z"/><path class="433e5bef-3bc7-4e49-b343-e3f5574504d2" d="M369.657,1206.955l0-2.893-4.973,0v-.949l4.78-6.777h1.565l-.006,6.6h1.5v1.127h-1.5l0,2.893Zm0-4.02,0-3.546q0-.834.051-1.667h-.049c-.33.621-.594,1.079-.891,1.568l-2.62,3.609v.033Z"/></g><g id="de2d744f-bf04-4649-b538-dc9fc65edca9" data-name="35"><path class="ab84d301-1c4e-4085-b985-a58a856eeda5" d="M465.185,1187.752A10.468,10.468,0,1,1,475.26,1198.6h0c-7.606-.281-10.269.782-10.959.039S464.9,1195.33,465.185,1187.752Z"/><path class="433e5bef-3bc7-4e49-b343-e3f5574504d2" d="M468.3,1192.425a4.867,4.867,0,0,0,2.37.672c1.861,0,2.438-1.175,2.422-2.058-.015-1.486-1.365-2.126-2.764-2.127h-.807v-1.079h.807c1.054,0,2.387-.537,2.389-1.8,0-.85-.542-1.6-1.876-1.6a3.954,3.954,0,0,0-2.141.7l-.378-1.046a5.114,5.114,0,0,1,2.8-.815c2.107,0,3.061,1.244,3.06,2.535a2.643,2.643,0,0,1-1.978,2.5v.032a2.773,2.773,0,0,1,2.385,2.731c0,1.7-1.336,3.186-3.9,3.184a5.464,5.464,0,0,1-2.781-.722Z"/><path class="433e5bef-3bc7-4e49-b343-e3f5574504d2" d="M482.793,1184.674l-4.083,0-.413,2.729a5.616,5.616,0,0,1,.872-.064,4.559,4.559,0,0,1,2.305.572,3.029,3.029,0,0,1,1.529,2.732,3.7,3.7,0,0,1-3.987,3.624,5.263,5.263,0,0,1-2.667-.656l.363-1.094a4.821,4.821,0,0,0,2.288.59,2.355,2.355,0,0,0,2.538-2.3c-.016-1.372-.937-2.354-3.078-2.356a11.016,11.016,0,0,0-1.482.114l.7-5.1,5.121,0Z"/></g><g id="bd769ccc-f993-4f45-9ccf-21e10b0fb182" data-name="36"><path class="ab84d301-1c4e-4085-b985-a58a856eeda5" d="M609.165,1431.75a10.468,10.468,0,1,1,12.216,8.362h0c-7.481,1.4-9.845,3.025-10.682,2.453S610.559,1439.2,609.165,1431.75Z"/><path class="433e5bef-3bc7-4e49-b343-e3f5574504d2" d="M611.934,1434.086a4.851,4.851,0,0,0,2.37.674c1.86,0,2.438-1.172,2.423-2.055-.014-1.486-1.362-2.127-2.762-2.129l-.807,0,0-1.079.807,0c1.053,0,2.388-.535,2.39-1.793,0-.85-.54-1.6-1.874-1.6a3.951,3.951,0,0,0-2.141.7l-.377-1.047a5.118,5.118,0,0,1,2.8-.812c2.107,0,3.06,1.248,3.058,2.539a2.642,2.642,0,0,1-1.98,2.5v.032a2.774,2.774,0,0,1,2.383,2.733c0,1.7-1.339,3.185-3.908,3.18a5.48,5.48,0,0,1-2.781-.723Z"/><path class="433e5bef-3bc7-4e49-b343-e3f5574504d2" d="M626.155,1426.151a5.315,5.315,0,0,0-1.087.064,4.332,4.332,0,0,0-3.727,3.769h.05a3.2,3.2,0,0,1,2.586-1.221,3.164,3.164,0,0,1,3.221,3.437,3.564,3.564,0,0,1-3.562,3.737c-2.289,0-3.784-1.772-3.779-4.534a6.655,6.655,0,0,1,1.819-4.786,5.854,5.854,0,0,1,3.427-1.562,7.025,7.025,0,0,1,1.054-.08Zm-.422,6.128a2.164,2.164,0,0,0-2.2-2.438,2.384,2.384,0,0,0-2.077,1.3,1.221,1.221,0,0,0-.166.637c.03,1.748.835,3.04,2.35,3.043C624.889,1434.827,625.73,1433.8,625.733,1432.279Z"/></g><g id="8774dd59-a7fd-4acd-91bc-b193e1ab5e06" data-name="37"><path class="ab84d301-1c4e-4085-b985-a58a856eeda5" d="M1083.091,1466.24a10.468,10.468,0,1,1-8.362,12.216h0c-1.4-7.481-3.024-9.845-2.452-10.682S1075.637,1467.634,1083.091,1466.24Z"/><path class="433e5bef-3bc7-4e49-b343-e3f5574504d2" d="M1077.874,1480.314a4.858,4.858,0,0,0,2.37.674c1.86,0,2.439-1.172,2.424-2.054-.014-1.487-1.363-2.127-2.762-2.129l-.807,0,0-1.079.806,0c1.054,0,2.388-.536,2.391-1.793,0-.85-.541-1.6-1.875-1.605a3.954,3.954,0,0,0-2.141.7l-.377-1.047a5.121,5.121,0,0,1,2.8-.811c2.108,0,3.061,1.247,3.059,2.538a2.643,2.643,0,0,1-1.98,2.5v.032a2.775,2.775,0,0,1,2.382,2.734c0,1.7-1.339,3.184-3.908,3.179a5.484,5.484,0,0,1-2.781-.722Z"/><path class="433e5bef-3bc7-4e49-b343-e3f5574504d2" d="M1092.937,1471.369l0,.947-4.676,9.666-1.5,0,4.659-9.388v-.033l-5.236-.009,0-1.193Z"/></g></g><g id="c7059723-c8f7-4349-95fc-d5a4899dbddc" data-name="Start-Finish Line"><use width="200" height="103.617" transform="translate(1070.435 1342.952) rotate(180) scale(0.201)" xlink:href="#c432fba3-5078-4550-a9fa-b2449d5dfb19"/></g></g></g></g></svg>