<svg xmlns="http://www.w3.org/2000/svg" xmlns:xlink="http://www.w3.org/1999/xlink" width="806.621" height="1058.388" viewBox="0 0 806.621 1058.388"><defs><style>.\37 4f88beb-9b18-45f0-917f-cc25cc54e419{fill:#00ff24;}.\37 4f88beb-9b18-45f0-917f-cc25cc54e419,.c0b86ffc-847e-41ca-bd99-5ae44c9ce961{stroke:#000;stroke-width:5px;}.\31 933596a-b37e-48e2-8e68-a2a22e14fcd8,.\32 d56eaba-4e22-4bd4-b03b-12fef40de394,.\33 3f43c10-4988-4cdc-a019-00bdd8b48069,.\34 19f0c68-9819-4861-b7c7-36a27cc3cb21,.\37 4f88beb-9b18-45f0-917f-cc25cc54e419,.\37 b743bdc-23a9-4b3a-9db3-7acbcedb9fc7,.\39 73f73d8-d939-459b-a9fa-cc7029af1ec7,.c0b86ffc-847e-41ca-bd99-5ae44c9ce961,.ce1593cd-049a-4c38-85ec-637b0669554f{stroke-miterlimit:10;}.c0b86ffc-847e-41ca-bd99-5ae44c9ce961{fill:#fff;}.\31 933596a-b37e-48e2-8e68-a2a22e14fcd8,.\32 d56eaba-4e22-4bd4-b03b-12fef40de394,.\33 3f43c10-4988-4cdc-a019-00bdd8b48069,.\34 19f0c68-9819-4861-b7c7-36a27cc3cb21,.\37 b743bdc-23a9-4b3a-9db3-7acbcedb9fc7,.\39 73f73d8-d939-459b-a9fa-cc7029af1ec7,.ce1593cd-049a-4c38-85ec-637b0669554f{fill:none;}.\33 3f43c10-4988-4cdc-a019-00bdd8b48069,.\39 73f73d8-d939-459b-a9fa-cc7029af1ec7{stroke:#c91c1c;}.\34 19f0c68-9819-4861-b7c7-36a27cc3cb21,.\39 73f73d8-d939-459b-a9fa-cc7029af1ec7,.ce1593cd-049a-4c38-85ec-637b0669554f{stroke-width:20px;}.\31 933596a-b37e-48e2-8e68-a2a22e14fcd8,.\34 19f0c68-9819-4861-b7c7-36a27cc3cb21{stroke:#ffb600;}.\37 b743bdc-23a9-4b3a-9db3-7acbcedb9fc7,.ce1593cd-049a-4c38-85ec-637b0669554f{stroke:#0080ff;}.\32 d56eaba-4e22-4bd4-b03b-12fef40de394{stroke:#fff;stroke-width:12px;}.\31 933596a-b37e-48e2-8e68-a2a22e14fcd8,.\33 3f43c10-4988-4cdc-a019-00bdd8b48069,.\37 b743bdc-23a9-4b3a-9db3-7acbcedb9fc7{stroke-width:2px;}</style><symbol id="c01c7488-033a-4c18-b88c-6b09b7447d90" data-name="fd103434-89f2-4089-acf9-54fed79ed404" viewBox="0 0 200 103.617"><rect class="74f88beb-9b18-45f0-917f-cc25cc54e419" x="2.5" y="54.074" width="195" height="47.043"/><rect class="c0b86ffc-847e-41ca-bd99-5ae44c9ce961" x="2.5" y="2.5" width="48.75" height="48.75"/><rect class="c0b86ffc-847e-41ca-bd99-5ae44c9ce961" x="51.25" y="2.5" width="48.75" height="48.75"/><rect class="c0b86ffc-847e-41ca-bd99-5ae44c9ce961" x="100" y="2.5" width="48.75" height="48.75"/><rect class="c0b86ffc-847e-41ca-bd99-5ae44c9ce961" x="148.75" y="2.5" width="48.75" height="48.75"/></symbol></defs><title>2016_Frenchie_s_GP</title><g id="c3815f0d-ecdd-4667-95a1-ccf98ea2443c" data-name="Layer 2"><g id="76b797b1-f0cd-41a5-a92c-beced6e6eb92" data-name="City - Downtown"><g id="5d2f92dc-8046-4901-a451-ffb670f12e2e" data-name="2016_Frenchie_s_GP"><path id="c2b464e6-d880-4807-93bc-d41055ae9f63" data-name="Pitlane Outer" class="973f73d8-d939-459b-a9fa-cc7029af1ec7" d="M352.2,932.179c11.834,11.166,23.785,31.387,13.574,45.2-6.611,8.945-42.778,50.778-49.444,58.667s5.443,17.259,12.388,9.333c9.445-10.778,52.945-64.222,62.945-75s17.439-25.578,26.374-38.2"/><path id="24de0bbb-3630-430b-9b59-3e2e0bd04a46" data-name="Altline Outer" class="419f0c68-9819-4861-b7c7-36a27cc3cb21" d="M277.988,436.822c-5.148,14.891-19.041,21.759-25.654,40.837-8.667,25-11.334,34.667-16.5,47s-14.072,26.939-36.448,18.678"/><path id="2e4c93e1-9093-43cc-b4aa-cc3f5523e42d" data-name="Track Outer" class="ce1593cd-049a-4c38-85ec-637b0669554f" d="M410.556,438.27c6.559-17.249,44.778-117.444,50.611-132.944s11.278-30.834,18.611-47.056,12.254-27.9,18-43.333c6-16.111,12-32.223,21.222-58.334,9.017-25.53,11.474-40.515,13.889-64.666,1.667-16.667,2.511-33.349-10.333-50.111-8.834-11.528-21.418-15.8-43.639-23.417C458.75,11.492,419.6-2.485,404.834,34.659c-10.334,26-13.056,36.944-19.5,59.611S358.6,208.748,350.167,232.826c-8,22.833-44,124-50.667,142.166s-20.444,58.834-24.611,70.834-9.222,25.5-16.055,45-13.5,36.5-17,45.5c-6.979,17.944-24.5,14-54,2.833s-56.667-21.167-74.167-27.5S83.167,505.992,72,534.826,44.917,608.5,32.445,642.492c-7.278,19.834-12.611,34.334-18.778,51s-8.334,33.777,25,34c24.833.167,110.833-.5,135.5-.5s58.827-1.819,88.167-3c29-1.166,43.337,22.025,84,22.667,31.666.5,57.222-1.278,76.777-.611s44,6.889,65.556,10.666S526,765.492,558,766.159s175.007,2.022,204,2.667c45,1,47.307,28.756,0,30.333-30,1-70.222,4.667-103.333,4.667s-56.833.666-81.167.833-121.836.761-153.333.333c-36.833-.5-80.379-2.712-101.833,5.334-20,7.5-22.717,34.684-17.5,49C312,878.992,339,921.992,358.667,938.159s43.667,16.889,60.333-7.333,33.882-43.211,38.667-73.167c3.833-24,3-44.586,1.5-74.333-1-19.834-2.831-36.164-4.5-49-2.167-16.667-15.556-16.723-44.222-16.945s-45.278.278-63.945.278-44.833-8.5-31.5-38.667,24.834-51,30.834-68.666,18.166-48.167,28.5-76.334S404.556,454.048,410.556,438.27Z"/><path id="e34bea8e-9ee0-4f49-95af-8e798b3b8106" data-name="Track Middle" class="2d56eaba-4e22-4bd4-b03b-12fef40de394" d="M410.556,438.27c6.559-17.249,44.778-117.444,50.611-132.944s11.278-30.834,18.611-47.056,12.254-27.9,18-43.333c6-16.111,12-32.223,21.222-58.334,9.017-25.53,11.474-40.515,13.889-64.666,1.667-16.667,2.511-33.349-10.333-50.111-8.834-11.528-21.418-15.8-43.639-23.417C458.75,11.492,419.6-2.485,404.834,34.659c-10.334,26-13.056,36.944-19.5,59.611S358.6,208.748,350.167,232.826c-8,22.833-44,124-50.667,142.166s-20.444,58.834-24.611,70.834-9.222,25.5-16.055,45-13.5,36.5-17,45.5c-6.979,17.944-24.5,14-54,2.833s-56.667-21.167-74.167-27.5S83.167,505.992,72,534.826,44.917,608.5,32.445,642.492c-7.278,19.834-12.611,34.334-18.778,51s-8.334,33.777,25,34c24.833.167,110.833-.5,135.5-.5s58.827-1.819,88.167-3c29-1.166,43.337,22.025,84,22.667,31.666.5,57.222-1.278,76.777-.611s44,6.889,65.556,10.666S526,765.492,558,766.159s175.007,2.022,204,2.667c45,1,47.307,28.756,0,30.333-30,1-70.222,4.667-103.333,4.667s-56.833.666-81.167.833-121.836.761-153.333.333c-36.833-.5-80.379-2.712-101.833,5.334-20,7.5-22.717,34.684-17.5,49C312,878.992,339,921.992,358.667,938.159s43.667,16.889,60.333-7.333,33.882-43.211,38.667-73.167c3.833-24,3-44.586,1.5-74.333-1-19.834-2.831-36.164-4.5-49-2.167-16.667-15.556-16.723-44.222-16.945s-45.278.278-63.945.278-44.833-8.5-31.5-38.667,24.834-51,30.834-68.666,18.166-48.167,28.5-76.334S404.556,454.048,410.556,438.27Z"/><path id="3b6e88f0-838f-4820-896b-d254f8f0bce5" data-name="Pitlane Middle" class="2d56eaba-4e22-4bd4-b03b-12fef40de394" d="M352.2,932.179c11.834,11.166,23.785,31.387,13.574,45.2-6.611,8.945-42.778,50.778-49.444,58.667s5.443,17.259,12.388,9.333c9.445-10.778,52.945-64.222,62.945-75s17.439-25.578,26.374-38.2"/><path id="ff091634-d916-4f3c-9e28-0cf269f57bbe" data-name="Pitlane Inner" class="33f43c10-4988-4cdc-a019-00bdd8b48069" d="M352.2,932.179c11.834,11.166,23.785,31.387,13.574,45.2-6.611,8.945-42.778,50.778-49.444,58.667s5.443,17.259,12.388,9.333c9.445-10.778,52.945-64.222,62.945-75s17.439-25.578,26.374-38.2"/><path id="09fff91e-a615-4f9c-95d6-dd6a878a3469" data-name="Altline Middle" class="2d56eaba-4e22-4bd4-b03b-12fef40de394" d="M277.988,436.822c-5.148,14.891-19.041,21.759-25.654,40.837-8.667,25-11.334,34.667-16.5,47s-14.072,26.939-36.448,18.678"/><path id="b384ee19-d86a-47b2-8f21-4e4f6d1e53bd" data-name="Altline Inner" class="1933596a-b37e-48e2-8e68-a2a22e14fcd8" d="M277.988,436.822c-5.148,14.891-19.041,21.759-25.654,40.837-8.667,25-11.334,34.667-16.5,47s-14.072,26.939-36.448,18.678"/><path id="db502f9c-30ab-44eb-b692-1ddcc617f73e" data-name="Track Inner" class="7b743bdc-23a9-4b3a-9db3-7acbcedb9fc7" d="M410.556,438.27c6.559-17.249,44.778-117.444,50.611-132.944s11.278-30.834,18.611-47.056,12.254-27.9,18-43.333c6-16.111,12-32.223,21.222-58.334,9.017-25.53,11.474-40.515,13.889-64.666,1.667-16.667,2.511-33.349-10.333-50.111-8.834-11.528-21.418-15.8-43.639-23.417C458.75,11.492,419.6-2.485,404.834,34.659c-10.334,26-13.056,36.944-19.5,59.611S358.6,208.748,350.167,232.826c-8,22.833-44,124-50.667,142.166s-20.444,58.834-24.611,70.834-9.222,25.5-16.055,45-13.5,36.5-17,45.5c-6.979,17.944-24.5,14-54,2.833s-56.667-21.167-74.167-27.5S83.167,505.992,72,534.826,44.917,608.5,32.445,642.492c-7.278,19.834-12.611,34.334-18.778,51s-8.334,33.777,25,34c24.833.167,110.833-.5,135.5-.5s58.827-1.819,88.167-3c29-1.166,43.337,22.025,84,22.667,31.666.5,57.222-1.278,76.777-.611s44,6.889,65.556,10.666S526,765.492,558,766.159s175.007,2.022,204,2.667c45,1,47.307,28.756,0,30.333-30,1-70.222,4.667-103.333,4.667s-56.833.666-81.167.833-121.836.761-153.333.333c-36.833-.5-80.379-2.712-101.833,5.334-20,7.5-22.717,34.684-17.5,49C312,878.992,339,921.992,358.667,938.159s43.667,16.889,60.333-7.333,33.882-43.211,38.667-73.167c3.833-24,3-44.586,1.5-74.333-1-19.834-2.831-36.164-4.5-49-2.167-16.667-15.556-16.723-44.222-16.945s-45.278.278-63.945.278-44.833-8.5-31.5-38.667,24.834-51,30.834-68.666,18.166-48.167,28.5-76.334S404.556,454.048,410.556,438.27Z"/><g id="3ea0a6b6-71b0-488b-b52e-232e81c10ea9" data-name="Crossover 2"><path id="fd6a587e-c3df-4f94-aa70-818ba3fcd6d0" data-name="Crossover Outer" class="ce1593cd-049a-4c38-85ec-637b0669554f" d="M577.125,804.655c-24.333.166-120.961.764-152.458.337"/><path id="38d309b0-d867-497b-9719-75f28d1d859b" data-name="Crossover Middle" class="2d56eaba-4e22-4bd4-b03b-12fef40de394" d="M577.5,804.652c-24.333.167-121.836.761-153.333.333"/><path id="af4255f5-cf63-464e-9972-11ab339692a3" data-name="Crossover Inner" class="7b743bdc-23a9-4b3a-9db3-7acbcedb9fc7" d="M577.792,804.652c-24.333.167-122.545.762-154.042.334"/></g><g id="2f7f93ea-999d-4380-af59-964ca2f7d1f4" data-name="Crossover 1"><path id="2d0a6050-df0d-4282-8785-297409dfbb05" data-name="Crossover Outer" class="ce1593cd-049a-4c38-85ec-637b0669554f" d="M423.445,746.041c19.555.667,43.316,6.827,64.871,10.6"/><path id="1da4c941-3ce4-4866-93fd-4957474f6a8f" data-name="Crossover Middle" class="2d56eaba-4e22-4bd4-b03b-12fef40de394" d="M423.111,746.041c19.556.667,44,6.889,65.556,10.667"/><path id="14110cfc-792a-4f0c-9383-b4775253e813" data-name="Crossover Inner" class="7b743bdc-23a9-4b3a-9db3-7acbcedb9fc7" d="M422.667,746.041c19.555.667,44.658,6.933,66.214,10.711"/></g><use id="a3d0e2de-491e-487d-ba01-9dd3aaa2a249" data-name="Start-Finish-Line" width="200" height="103.617" transform="translate(425.047 455.012) rotate(-159.115) scale(0.196)" xlink:href="#c01c7488-033a-4c18-b88c-6b09b7447d90"/></g></g></g></svg>