<svg xmlns="http://www.w3.org/2000/svg" xmlns:xlink="http://www.w3.org/1999/xlink" width="1017.987" height="926.838" viewBox="0 0 1017.987 926.838"><defs><style>.\33 35730ff-eb23-4747-bdf2-95de2005fbc4{fill:#00ff24;}.\30 5b76b81-df07-4d26-821e-273551fd5d3f,.\33 35730ff-eb23-4747-bdf2-95de2005fbc4{stroke:#000;stroke-width:5px;}.\30 5b76b81-df07-4d26-821e-273551fd5d3f,.\32 a7a0a2a-1fba-4e01-ba13-a906a0f6eff1,.\33 35730ff-eb23-4747-bdf2-95de2005fbc4,.\38 426d439-696a-42c8-ab06-e5e4f3d1fc95,.\39 45e73f5-2bcb-432c-9825-f7b3323c0b48,.a9f91279-7318-4be7-b36c-76732f5add6b,.f685333d-c8c3-4eab-8c3f-d8c49d171788{stroke-miterlimit:10;}.\30 5b76b81-df07-4d26-821e-273551fd5d3f{fill:#fff;}.\32 a7a0a2a-1fba-4e01-ba13-a906a0f6eff1,.\38 426d439-696a-42c8-ab06-e5e4f3d1fc95,.\39 45e73f5-2bcb-432c-9825-f7b3323c0b48,.a9f91279-7318-4be7-b36c-76732f5add6b,.f685333d-c8c3-4eab-8c3f-d8c49d171788{fill:none;}.\38 426d439-696a-42c8-ab06-e5e4f3d1fc95,.a9f91279-7318-4be7-b36c-76732f5add6b{stroke:#c91c1c;}.\32 a7a0a2a-1fba-4e01-ba13-a906a0f6eff1,.a9f91279-7318-4be7-b36c-76732f5add6b{stroke-width:20px;}.\32 a7a0a2a-1fba-4e01-ba13-a906a0f6eff1,.f685333d-c8c3-4eab-8c3f-d8c49d171788{stroke:#0080ff;}.\39 45e73f5-2bcb-432c-9825-f7b3323c0b48{stroke:#fff;stroke-width:12px;}.\38 426d439-696a-42c8-ab06-e5e4f3d1fc95,.f685333d-c8c3-4eab-8c3f-d8c49d171788{stroke-width:2px;}</style><symbol id="b5e8cd20-fe92-4f85-9621-c5a3470bcd8f" data-name="fd103434-89f2-4089-acf9-54fed79ed404" viewBox="0 0 200 103.617"><rect class="335730ff-eb23-4747-bdf2-95de2005fbc4" x="2.5" y="54.074" width="195" height="47.043"/><rect class="05b76b81-df07-4d26-821e-273551fd5d3f" x="2.5" y="2.5" width="48.75" height="48.75"/><rect class="05b76b81-df07-4d26-821e-273551fd5d3f" x="51.25" y="2.5" width="48.75" height="48.75"/><rect class="05b76b81-df07-4d26-821e-273551fd5d3f" x="100" y="2.5" width="48.75" height="48.75"/><rect class="05b76b81-df07-4d26-821e-273551fd5d3f" x="148.75" y="2.5" width="48.75" height="48.75"/></symbol></defs><title>Airport_GP_Super_Special</title><g id="fbbd9f20-0939-4cdf-b165-f5ae3010377f" data-name="Layer 2"><g id="2b4a1b59-277a-4bfc-b06a-fd6715a178e2" data-name="City - Downtown"><g id="bf0a2f2d-5f44-4a26-b9a7-2995866273b2" data-name="Airport_GP_Super_Special"><path id="534921cd-8a32-435c-8763-5e5795f631d7" data-name="Pit Outer" class="a9f91279-7318-4be7-b36c-76732f5add6b" d="M827.07,389.618c7.9,6.864,15.363,19.364,21.24,29.44,5.939,10.18,13.1,21.875,16.334,38.278,1.3,6.611,3.8,22.361,2.722,35.778-.635,7.861,5.764,12.6,19.083,14,10.334,1.083,17.721,5.932,16.75,17.583-.666,8,1.917,16.417,7.334,28.917s9.5,26.833,11.916,33.666,7.943,21.174-7.75,26.917c-16.166,5.917-55.833,20.083-68.166,23.583s-33.5,6.5-49.667,7-28.056-1-35.444,3.611c-6.3,3.932-12.417,8.473-17.776,3.912"/><path id="eee2e818-9469-4c56-89da-a8d1b8704ed5" data-name="Track Outer" class="2a7a0a2a-1fba-4e01-ba13-a906a0f6eff1" d="M416.866,776.447c-13.236,14.793-43.333,50.167-53.5,61.5s-30.29,34.13-37.5,45.5c-8.667,13.667-13,20.833-15.833,26.167s-9.667,10.333-19.5,4.833-13.394-16.917-17.5-28.5c-6.5-18.333-3.5-40.806,11-55.5,12.166-12.333,20.919-20.13,29-13,7.555,6.667,13.882,7.46,15.722-8.611.425-3.717.951-13.851,1.111-22.667.222-12.278-1.278-12.278-10.056-21.444-15.3-15.975-11.77-13.662-31.111-13.028-26.277.861-33.346,5.292-48.389-9.694-14.944-14.889-17.194-16.639-26.027-25.556s-6.917-15.667-6.417-22.583,2.389-12.306-8.444-23.306-12.462-12.193-25.389-11.167c-11.889.945-14.457,2.123-23.778-7.166C134.088,636.114,57.866,559,43.644,545s-31.233-29.7-33.278-53.556c-2-23.333,4.279-41.261,16.833-55.5,12-13.611,47.778-45.833,60.445-57.833s54.969-52.081,66.722-63.834c10.833-10.833,22.833-21,30.333-32.833s15.339-20.291,25.945-29.278c10.555-8.944,20.038-20.126,28.111-28.389,9.444-9.666,25.457-24.434,32.111-32.777,7-8.778,10.984-25.532,25-39.389,14.667-14.5,26.684-26.994,38.667-38C348.866,100.447,355.7,89.28,361.2,64.447S374.232,22,389.533,13c15.111-8.889,24.111,3.222,21.666,19.777s-7.111,37.445-18.333,54.445-34.773,49.429-17.667,68.222c7.889,8.667,12.556,13.778,15.556,16.778,5.555,5.555,4.137,14.046-.056,27.722-4.666,15.222-2.125,34.831-1.611,45.722,1.222,25.889-2,49.431,41.334,68.111,18.944,8.167,36.444,15.167,51.444,21.167s39.909,17.369,54.889-11.056c8.667-16.444,10.667-26,38.667-28.888s37.918-11,48.222-11.334c12.055-.389,14.722,8.778,17.889,23.111s9.219,33.147,36.166,31c18.834-1.5,34.167,2.834,50.834,6s28-.333,34.666-1.333,17.667,2,25,17.833,16.249,9.709,34.834,25.834c11.333,9.833,53.055,46.111,64.055,55.444s14.878,12.235,36,19.667c18,6.333,46.667,13.111,59.556,21.666s23.666,22.334,24.444,43.334.889,28.778.889,40.889,1.111,34.555-20.444,42.666S843.366,660.947,830.7,665.947s-49.166,23.167-79.5-6.667-54-32-90.666-26.166-55.334,7.666-72.167,3.166-44.158-8.014-59.833,9.834C506.088,671.669,430.088,761.669,416.866,776.447Z"/><path id="9eb6a571-e704-4ded-b979-ca773debf4a8" data-name="Track Middle" class="945e73f5-2bcb-432c-9825-f7b3323c0b48" d="M416.866,776.447c-13.236,14.793-43.333,50.167-53.5,61.5s-30.29,34.13-37.5,45.5c-8.667,13.667-13,20.833-15.833,26.167s-9.667,10.333-19.5,4.833-13.394-16.917-17.5-28.5c-6.5-18.333-3.5-40.806,11-55.5,12.166-12.333,20.919-20.13,29-13,7.555,6.667,13.882,7.46,15.722-8.611.425-3.717.951-13.851,1.111-22.667.222-12.278-1.278-12.278-10.056-21.444-15.3-15.975-11.77-13.662-31.111-13.028-26.277.861-33.346,5.292-48.389-9.694-14.944-14.889-17.194-16.639-26.027-25.556s-6.917-15.667-6.417-22.583,2.389-12.306-8.444-23.306-12.462-12.193-25.389-11.167c-11.889.945-14.457,2.123-23.778-7.166C134.088,636.114,57.866,559,43.644,545s-31.233-29.7-33.278-53.556c-2-23.333,4.279-41.261,16.833-55.5,12-13.611,47.778-45.833,60.445-57.833s54.969-52.081,66.722-63.834c10.833-10.833,22.833-21,30.333-32.833s15.339-20.291,25.945-29.278c10.555-8.944,20.038-20.126,28.111-28.389,9.444-9.666,25.457-24.434,32.111-32.777,7-8.778,10.984-25.532,25-39.389,14.667-14.5,26.684-26.994,38.667-38C348.866,100.447,355.7,89.28,361.2,64.447S374.232,22,389.533,13c15.111-8.889,24.111,3.222,21.666,19.777s-7.111,37.445-18.333,54.445-34.773,49.429-17.667,68.222c7.889,8.667,12.556,13.778,15.556,16.778,5.555,5.555,4.137,14.046-.056,27.722-4.666,15.222-2.125,34.831-1.611,45.722,1.222,25.889-2,49.431,41.334,68.111,18.944,8.167,36.444,15.167,51.444,21.167s39.909,17.369,54.889-11.056c8.667-16.444,10.667-26,38.667-28.888s37.918-11,48.222-11.334c12.055-.389,14.722,8.778,17.889,23.111s9.219,33.147,36.166,31c18.834-1.5,34.167,2.834,50.834,6s28-.333,34.666-1.333,17.667,2,25,17.833,16.249,9.709,34.834,25.834c11.333,9.833,53.055,46.111,64.055,55.444s14.878,12.235,36,19.667c18,6.333,46.667,13.111,59.556,21.666s23.666,22.334,24.444,43.334.889,28.778.889,40.889,1.111,34.555-20.444,42.666S843.366,660.947,830.7,665.947s-49.166,23.167-79.5-6.667-54-32-90.666-26.166-55.334,7.666-72.167,3.166-44.158-8.014-59.833,9.834C506.088,671.669,430.088,761.669,416.866,776.447Z"/><path id="596d7ad9-dc7f-43d1-8913-81cb0f3029aa" data-name="Pit Middle" class="945e73f5-2bcb-432c-9825-f7b3323c0b48" d="M827.07,389.618c7.9,6.864,15.363,19.364,21.24,29.44,5.939,10.18,13.1,21.875,16.334,38.278,1.3,6.611,3.8,22.361,2.722,35.778-.635,7.861,5.764,12.6,19.083,14,10.334,1.083,17.721,5.932,16.75,17.583-.666,8,1.917,16.417,7.334,28.917s9.5,26.833,11.916,33.666,7.943,21.174-7.75,26.917c-16.166,5.917-55.833,20.083-68.166,23.583s-33.5,6.5-49.667,7-28.056-1-35.444,3.611c-6.3,3.932-12.417,8.473-17.776,3.912"/><path id="4f4336f8-a5a7-416a-b347-a513c2f0874a" data-name="Pit Inner" class="8426d439-696a-42c8-ab06-e5e4f3d1fc95" d="M827.07,389.618c7.9,6.864,15.363,19.364,21.24,29.44,5.939,10.18,13.1,21.875,16.334,38.278,1.3,6.611,3.8,22.361,2.722,35.778-.635,7.861,5.764,12.6,19.083,14,10.334,1.083,17.721,5.932,16.75,17.583-.666,8,1.917,16.417,7.334,28.917s9.5,26.833,11.916,33.666,7.943,21.174-7.75,26.917c-16.166,5.917-55.833,20.083-68.166,23.583s-33.5,6.5-49.667,7-28.056-1-35.444,3.611c-6.3,3.932-12.417,8.473-17.776,3.912"/><path id="9fb19055-b6fe-4e7d-9e02-2e8d3e235fee" data-name="Track Inner" class="f685333d-c8c3-4eab-8c3f-d8c49d171788" d="M416.866,776.447c-13.236,14.793-43.333,50.167-53.5,61.5s-30.29,34.13-37.5,45.5c-8.667,13.667-13,20.833-15.833,26.167s-9.667,10.333-19.5,4.833-13.394-16.917-17.5-28.5c-6.5-18.333-3.5-40.806,11-55.5,12.166-12.333,20.919-20.13,29-13,7.555,6.667,13.882,7.46,15.722-8.611.425-3.717.951-13.851,1.111-22.667.222-12.278-1.278-12.278-10.056-21.444-15.3-15.975-11.77-13.662-31.111-13.028-26.277.861-33.346,5.292-48.389-9.694-14.944-14.889-17.194-16.639-26.027-25.556s-6.917-15.667-6.417-22.583,2.389-12.306-8.444-23.306-12.462-12.193-25.389-11.167c-11.889.945-14.457,2.123-23.778-7.166C134.088,636.114,57.866,559,43.644,545s-31.233-29.7-33.278-53.556c-2-23.333,4.279-41.261,16.833-55.5,12-13.611,47.778-45.833,60.445-57.833s54.969-52.081,66.722-63.834c10.833-10.833,22.833-21,30.333-32.833s15.339-20.291,25.945-29.278c10.555-8.944,20.038-20.126,28.111-28.389,9.444-9.666,25.457-24.434,32.111-32.777,7-8.778,10.984-25.532,25-39.389,14.667-14.5,26.684-26.994,38.667-38C348.866,100.447,355.7,89.28,361.2,64.447S374.232,22,389.533,13c15.111-8.889,24.111,3.222,21.666,19.777s-7.111,37.445-18.333,54.445-34.773,49.429-17.667,68.222c7.889,8.667,12.556,13.778,15.556,16.778,5.555,5.555,4.137,14.046-.056,27.722-4.666,15.222-2.125,34.831-1.611,45.722,1.222,25.889-2,49.431,41.334,68.111,18.944,8.167,36.444,15.167,51.444,21.167s39.909,17.369,54.889-11.056c8.667-16.444,10.667-26,38.667-28.888s37.918-11,48.222-11.334c12.055-.389,14.722,8.778,17.889,23.111s9.219,33.147,36.166,31c18.834-1.5,34.167,2.834,50.834,6s28-.333,34.666-1.333,17.667,2,25,17.833,16.249,9.709,34.834,25.834c11.333,9.833,53.055,46.111,64.055,55.444s14.878,12.235,36,19.667c18,6.333,46.667,13.111,59.556,21.666s23.666,22.334,24.444,43.334.889,28.778.889,40.889,1.111,34.555-20.444,42.666S843.366,660.947,830.7,665.947s-49.166,23.167-79.5-6.667-54-32-90.666-26.166-55.334,7.666-72.167,3.166-44.158-8.014-59.833,9.834C506.088,671.669,430.088,761.669,416.866,776.447Z"/><use id="cb2d7d3a-d554-4ea7-9976-2021703aa0c5" data-name="Start-Finish-Line" width="200" height="103.617" transform="translate(413.915 750.154) rotate(40.904) scale(0.196)" xlink:href="#b5e8cd20-fe92-4f85-9621-c5a3470bcd8f"/></g></g></g></svg>