<svg xmlns="http://www.w3.org/2000/svg" xmlns:xlink="http://www.w3.org/1999/xlink" width="570.465" height="641.534" viewBox="0 0 570.465 641.534"><defs><style>.\30 5735aec-74dd-4aba-a797-3abf870271d0{fill:#00ff24;}.\30 5735aec-74dd-4aba-a797-3abf870271d0,.\38 2596c4d-a6aa-4c86-b518-771778d165f6{stroke:#000;stroke-width:5px;}.\30 5735aec-74dd-4aba-a797-3abf870271d0,.\34 97fa642-719a-43c3-8835-58ac1cad90f0,.\35 90a5aa7-b5c9-4026-a8fe-7947e5d7eb6d,.\38 0a1efba-b041-432d-ad9b-08dc3ead56ba,.\38 2596c4d-a6aa-4c86-b518-771778d165f6,.\38 509d7bb-ec87-47d5-b5e7-569dc2b50ae7,.\38 dbe8843-f869-4c22-8ab2-314b399b2b2a{stroke-miterlimit:10;}.\38 2596c4d-a6aa-4c86-b518-771778d165f6{fill:#fff;}.\34 97fa642-719a-43c3-8835-58ac1cad90f0,.\35 90a5aa7-b5c9-4026-a8fe-7947e5d7eb6d,.\38 0a1efba-b041-432d-ad9b-08dc3ead56ba,.\38 509d7bb-ec87-47d5-b5e7-569dc2b50ae7,.\38 dbe8843-f869-4c22-8ab2-314b399b2b2a{fill:none;}.\38 0a1efba-b041-432d-ad9b-08dc3ead56ba,.\38 509d7bb-ec87-47d5-b5e7-569dc2b50ae7{stroke:#c91c1c;}.\34 97fa642-719a-43c3-8835-58ac1cad90f0,.\38 0a1efba-b041-432d-ad9b-08dc3ead56ba{stroke-width:20px;}.\34 97fa642-719a-43c3-8835-58ac1cad90f0,.\38 dbe8843-f869-4c22-8ab2-314b399b2b2a{stroke:#0080ff;}.\35 90a5aa7-b5c9-4026-a8fe-7947e5d7eb6d{stroke:#fff;stroke-width:12px;}.\38 509d7bb-ec87-47d5-b5e7-569dc2b50ae7,.\38 dbe8843-f869-4c22-8ab2-314b399b2b2a{stroke-width:2px;}</style><symbol id="f8611067-180c-4d09-b50e-4813a94062d5" data-name="fd103434-89f2-4089-acf9-54fed79ed404" viewBox="0 0 200 103.617"><rect class="05735aec-74dd-4aba-a797-3abf870271d0" x="2.5" y="54.074" width="195" height="47.043"/><rect class="82596c4d-a6aa-4c86-b518-771778d165f6" x="2.5" y="2.5" width="48.75" height="48.75"/><rect class="82596c4d-a6aa-4c86-b518-771778d165f6" x="51.25" y="2.5" width="48.75" height="48.75"/><rect class="82596c4d-a6aa-4c86-b518-771778d165f6" x="100" y="2.5" width="48.75" height="48.75"/><rect class="82596c4d-a6aa-4c86-b518-771778d165f6" x="148.75" y="2.5" width="48.75" height="48.75"/></symbol></defs><title>Arcadius_Grand_Prix_2.3</title><g id="4b348c6c-1440-41b3-b950-5430be03bb0f" data-name="Layer 2"><g id="ddb0768b-6c14-4a39-a378-9504ae243483" data-name="City - Downtown"><g id="cc26efab-bf09-4402-83cf-83c1b36d05cd" data-name="Arcadius_Grand_Prix_2.3"><path id="d56bad39-151b-48c8-8f0f-8701d6f1153b" data-name="Pitlane Outer" class="80a1efba-b041-432d-ad9b-08dc3ead56ba" d="M428.268,625.737c-18.8-6.594-29.676,1.189-52.843-7.478s-34.611-13-56.444-21-13.5-16.81-33-24.143"/><path id="8813c19b-5be0-4da2-b75e-01bf24bd85f3" data-name="Track Outer" class="497fa642-719a-43c3-8835-58ac1cad90f0" d="M267.536,566.259c-32.416-12.023-143-51.555-158.555-57.555s-25.778-9.333-48-7.778-46-3.555-50-28.444,4.888-47.334,14.888-69.111,20.318-40.1,28.445-64.222c4.014-11.912-1.569-25.592-7.333-36-8-14.444-11.556-22.889-4.223-38.889,2.712-5.916,7.62-15.866,12.223-26.222,5.333-12-7.684-21.3-.223-33.333,6.889-11.111,12-20.222,39.778-24.889s67.556-10,90.667-12.667,34.348-1.729,55.778,5.334c29.666,9.777,108.666,35.111,131,42.777s50.666,12.667,53.666,45-7.32,57.609,16.667,68.334c23.111,10.333,40.459-4.89,48-25,9.333-24.889,20.667-52,34-85.778s30-73.111,34.222-106.667,3.486-55.319-22.889-68.444c-34.171-17-58.352-24.914-69.333-28.889-16.5-5.972-27.778-6.889-37.778,11.889s-16.66,54.346-27.555,81.222c-13.334,32.889-86.334,242-97.112,271.333-4.755,12.943-4.784,14.134,10,18.556,11.889,3.556,77.556,24.889,90.223,29.333s32.444,17,34.889,37.223-7.834,42.722-21.834,54.055-19.74,30.642-16.666,42.167c4,15,24.166,18.166,52.166,16.5,14.317-.852,25.5-5.491,26.667,13.666.919,15.1,5.117,36.125-14.445,40.945-15.333,3.778-40.722-6.111-62.555-14.222C381.267,608.663,298.092,577.593,267.536,566.259Z"/><path id="caf40693-78ba-4e7b-9b96-1ba6e604e588" data-name="Track Middle" class="590a5aa7-b5c9-4026-a8fe-7947e5d7eb6d" d="M267.536,566.259c-32.416-12.023-143-51.555-158.555-57.555s-25.778-9.333-48-7.778-46-3.555-50-28.444,4.888-47.334,14.888-69.111,20.318-40.1,28.445-64.222c4.014-11.912-1.569-25.592-7.333-36-8-14.444-11.556-22.889-4.223-38.889,2.712-5.916,7.62-15.866,12.223-26.222,5.333-12-7.684-21.3-.223-33.333,6.889-11.111,12-20.222,39.778-24.889s67.556-10,90.667-12.667,34.348-1.729,55.778,5.334c29.666,9.777,108.666,35.111,131,42.777s50.666,12.667,53.666,45-7.32,57.609,16.667,68.334c23.111,10.333,40.459-4.89,48-25,9.333-24.889,20.667-52,34-85.778s30-73.111,34.222-106.667,3.486-55.319-22.889-68.444c-34.171-17-58.352-24.914-69.333-28.889-16.5-5.972-27.778-6.889-37.778,11.889s-16.66,54.346-27.555,81.222c-13.334,32.889-86.334,242-97.112,271.333-4.755,12.943-4.784,14.134,10,18.556,11.889,3.556,77.556,24.889,90.223,29.333s32.444,17,34.889,37.223-7.834,42.722-21.834,54.055-19.74,30.642-16.666,42.167c4,15,24.166,18.166,52.166,16.5,14.317-.852,25.5-5.491,26.667,13.666.919,15.1,5.117,36.125-14.445,40.945-15.333,3.778-40.722-6.111-62.555-14.222C381.267,608.663,298.092,577.593,267.536,566.259Z"/><path id="22c65207-26d0-4585-9644-24f2ce7a928f" data-name="Pitlane Middle" class="590a5aa7-b5c9-4026-a8fe-7947e5d7eb6d" d="M428.268,625.737c-18.8-6.594-29.676,1.189-52.843-7.478s-34.611-13-56.444-21-13.5-16.81-33-24.143"/><path id="598efd49-d4da-4276-850d-5709d45b5bf3" data-name="Pitlane Inner" class="8509d7bb-ec87-47d5-b5e7-569dc2b50ae7" d="M428.268,625.737c-18.8-6.594-29.676,1.189-52.843-7.478s-34.611-13-56.444-21-13.5-16.81-33-24.143"/><path id="def36d44-adbd-49ed-b794-7e6dab65a45e" data-name="Track Inner" class="8dbe8843-f869-4c22-8ab2-314b399b2b2a" d="M267.536,566.259c-32.416-12.023-143-51.555-158.555-57.555s-25.778-9.333-48-7.778-46-3.555-50-28.444,4.888-47.334,14.888-69.111,20.318-40.1,28.445-64.222c4.014-11.912-1.569-25.592-7.333-36-8-14.444-11.556-22.889-4.223-38.889,2.712-5.916,7.62-15.866,12.223-26.222,5.333-12-7.684-21.3-.223-33.333,6.889-11.111,12-20.222,39.778-24.889s67.556-10,90.667-12.667,34.348-1.729,55.778,5.334c29.666,9.777,108.666,35.111,131,42.777s50.666,12.667,53.666,45-7.32,57.609,16.667,68.334c23.111,10.333,40.459-4.89,48-25,9.333-24.889,20.667-52,34-85.778s30-73.111,34.222-106.667,3.486-55.319-22.889-68.444c-34.171-17-58.352-24.914-69.333-28.889-16.5-5.972-27.778-6.889-37.778,11.889s-16.66,54.346-27.555,81.222c-13.334,32.889-86.334,242-97.112,271.333-4.755,12.943-4.784,14.134,10,18.556,11.889,3.556,77.556,24.889,90.223,29.333s32.444,17,34.889,37.223-7.834,42.722-21.834,54.055-19.74,30.642-16.666,42.167c4,15,24.166,18.166,52.166,16.5,14.317-.852,25.5-5.491,26.667,13.666.919,15.1,5.117,36.125-14.445,40.945-15.333,3.778-40.722-6.111-62.555-14.222C381.267,608.663,298.092,577.593,267.536,566.259Z"/><g id="ad0f1ad0-ac6d-4a81-9a38-d6673207505d" data-name="Crossover"><path id="e2fda382-d194-4a4a-beb5-4152d6528437" data-name="Crossover Outer" class="497fa642-719a-43c3-8835-58ac1cad90f0" d="M241.11,172.517c29.666,9.778,108.549,35.073,130.882,42.74s50.658,12.57,53.658,44.9"/><path id="9d1c31ae-b947-4c26-bfe9-ea0feffb74e8" data-name="Crossover Middle" class="590a5aa7-b5c9-4026-a8fe-7947e5d7eb6d" d="M240.992,172.479c29.667,9.778,108.667,35.111,131,42.778s50.667,12.666,53.667,45"/><path id="ed1e9c48-d7d8-4cdd-a9d5-00db65edd26e" data-name="Crossover Inner" class="8dbe8843-f869-4c22-8ab2-314b399b2b2a" d="M240.839,172.435c29.666,9.778,108.82,35.155,131.153,42.822s50.667,12.8,53.667,45.131"/></g><use id="ef4e47d5-b7d2-4c39-87c7-370b5a7d69be" data-name="Start-Finish-Line" width="200" height="103.617" transform="translate(284.537 551.496) rotate(110.377) scale(0.196)" xlink:href="#f8611067-180c-4d09-b50e-4813a94062d5"/></g></g></g></svg>