<svg xmlns="http://www.w3.org/2000/svg" xmlns:xlink="http://www.w3.org/1999/xlink" width="580.734" height="656.785" viewBox="0 0 580.734 656.785"><defs><style>.a9e60237-0061-457c-b594-7cf70b7cea2e{fill:#00ff24;}.\36 8c136dc-db0f-4256-8bb9-58cd46c89554,.a9e60237-0061-457c-b594-7cf70b7cea2e{stroke:#000;stroke-width:5px;}.\34 722ac32-1f35-4f39-ae31-d0827cf87818,.\35 aea9805-61db-427f-b50f-c9ffb47f573b,.\36 8c136dc-db0f-4256-8bb9-58cd46c89554,.\38 6e7b7d0-804b-4032-b46b-a61ba743eba5,.\39 ccc772d-d3e0-4628-a866-cf215c805630,.a9e60237-0061-457c-b594-7cf70b7cea2e,.bd659802-10ae-4037-93e5-3a87779519fb{stroke-miterlimit:10;}.\36 8c136dc-db0f-4256-8bb9-58cd46c89554{fill:#fff;}.\34 722ac32-1f35-4f39-ae31-d0827cf87818,.\35 aea9805-61db-427f-b50f-c9ffb47f573b,.\38 6e7b7d0-804b-4032-b46b-a61ba743eba5,.\39 ccc772d-d3e0-4628-a866-cf215c805630,.bd659802-10ae-4037-93e5-3a87779519fb{fill:none;}.\35 aea9805-61db-427f-b50f-c9ffb47f573b,.bd659802-10ae-4037-93e5-3a87779519fb{stroke:#c91c1c;}.\34 722ac32-1f35-4f39-ae31-d0827cf87818,.\35 aea9805-61db-427f-b50f-c9ffb47f573b{stroke-width:20px;}.\34 722ac32-1f35-4f39-ae31-d0827cf87818,.\38 6e7b7d0-804b-4032-b46b-a61ba743eba5{stroke:#0080ff;}.\39 ccc772d-d3e0-4628-a866-cf215c805630{stroke:#fff;stroke-width:12px;}.\38 6e7b7d0-804b-4032-b46b-a61ba743eba5,.bd659802-10ae-4037-93e5-3a87779519fb{stroke-width:2px;}</style><symbol id="1f3e0a7b-94d6-44db-ae35-57ef38a4b81d" data-name="fd103434-89f2-4089-acf9-54fed79ed404" viewBox="0 0 200 103.617"><rect class="a9e60237-0061-457c-b594-7cf70b7cea2e" x="2.5" y="54.074" width="195" height="47.043"/><rect class="68c136dc-db0f-4256-8bb9-58cd46c89554" x="2.5" y="2.5" width="48.75" height="48.75"/><rect class="68c136dc-db0f-4256-8bb9-58cd46c89554" x="51.25" y="2.5" width="48.75" height="48.75"/><rect class="68c136dc-db0f-4256-8bb9-58cd46c89554" x="100" y="2.5" width="48.75" height="48.75"/><rect class="68c136dc-db0f-4256-8bb9-58cd46c89554" x="148.75" y="2.5" width="48.75" height="48.75"/></symbol></defs><title>Arcadius_Racing_Center</title><g id="3ea5316f-40e1-4c89-bae4-42f7123dcc0f" data-name="Layer 2"><g id="68fb6232-beb1-4ca4-85e1-b75e5ba2eadd" data-name="City - Downtown"><g id="dfbe6e11-12c6-4007-8165-371c406a4f0a" data-name="Arcadius_Racing_Center"><path id="91358f23-bd93-403a-82ac-f0b65ed1b09a" data-name="Pit Outer" class="5aea9805-61db-427f-b50f-c9ffb47f573b" d="M313.125,630.825c19-1.778,23.075,16.809,55.186,15.93,16.222-.445,84.229-1.272,100.34-1.384s11.025-9.515,35.58-9.181,43.118-1.015,55.785-1.126,10.282-19.66,10.449-32.549"/><path id="424cfe62-8b31-4443-ac4d-98e5252a20e2" data-name="Track Outer" class="4722ac32-1f35-4f39-ae31-d0827cf87818" d="M189.7,439.363c-18.333-6.222-27.889-9.333-39.556-13.445S125.7,409.474,133.922,385.7,238.478,90.141,247.811,61.252s13.778-42.111-2.333-49.222-33.778,5.111-35,26.555c-.563,9.868-.89,21.2-.89,31.98,0,12.385-2.176,18.314-22.333,18.242-31.333-.111-113.944-1.166-130.611-1.5s-44.277-.722-46.277-17.5,3.777-25,27.444-26.222,47.382-1.787,62.111-.222C117.7,45.252,120.7,56.7,115.033,67.807S100.811,84.252,91.7,103.141,68.144,155.363,63.144,166.7s-12,26.334,3.889,38.778,31.111,15.333,50.556,16.778,34.111.111,58.778,8.889,89.777,32,110.444,40.166,43.222,27.723,29.444,71.056-16.111,53.111-28.111,71.778-30.333,31.666-39.333,53.666-37,102.334-43,116.334-18.057,59.238,42.444,53.111c35.112-3.556,51.778-6.445,86-7.334s107.778-3.555,137.334-3.111,39.555.889,64.666.889,33.778-2,34.223-25.778.222-25.777,0-33.555-3.111-15.778-29.334-17.333-46.666-8.445-32.889-38.223,27.556-66.222,35.556-86.666,13.111-36.223-12.222-49.334S460.7,348.141,422.478,334.363s-46.667-17.333-66.223-24.889-39.139-13.746-50.569,17.683-21.208,63.428-29.653,86.1-14.561,51.762-44.889,40.778C202.922,443.807,189.7,439.363,189.7,439.363Z"/><path id="fefaece0-55b4-4136-b25c-84c6bc2036d1" data-name="Track Middle" class="9ccc772d-d3e0-4628-a866-cf215c805630" d="M189.7,439.363c-18.333-6.222-27.889-9.333-39.556-13.445S125.7,409.474,133.922,385.7,238.478,90.141,247.811,61.252s13.778-42.111-2.333-49.222-33.778,5.111-35,26.555c-.563,9.868-.89,21.2-.89,31.98,0,12.385-2.176,18.314-22.333,18.242-31.333-.111-113.944-1.166-130.611-1.5s-44.277-.722-46.277-17.5,3.777-25,27.444-26.222,47.382-1.787,62.111-.222C117.7,45.252,120.7,56.7,115.033,67.807S100.811,84.252,91.7,103.141,68.144,155.363,63.144,166.7s-12,26.334,3.889,38.778,31.111,15.333,50.556,16.778,34.111.111,58.778,8.889,89.777,32,110.444,40.166,43.222,27.723,29.444,71.056-16.111,53.111-28.111,71.778-30.333,31.666-39.333,53.666-37,102.334-43,116.334-18.057,59.238,42.444,53.111c35.112-3.556,51.778-6.445,86-7.334s107.778-3.555,137.334-3.111,39.555.889,64.666.889,33.778-2,34.223-25.778.222-25.777,0-33.555-3.111-15.778-29.334-17.333-46.666-8.445-32.889-38.223,27.556-66.222,35.556-86.666,13.111-36.223-12.222-49.334S460.7,348.141,422.478,334.363s-46.667-17.333-66.223-24.889-39.139-13.746-50.569,17.683-21.208,63.428-29.653,86.1-14.561,51.762-44.889,40.778C202.922,443.807,189.7,439.363,189.7,439.363Z"/><path id="8e806157-cb5f-4e68-8489-125d6399cc6c" data-name="Pit Middle" class="9ccc772d-d3e0-4628-a866-cf215c805630" d="M313.125,630.825c19-1.778,23.075,16.809,55.186,15.93,16.222-.445,84.229-1.272,100.34-1.384s11.025-9.515,35.58-9.181,43.118-1.015,55.785-1.126,10.282-19.66,10.449-32.549"/><path id="3c293232-cac0-44a7-9416-f4e087838bcd" data-name="Pit Inner" class="bd659802-10ae-4037-93e5-3a87779519fb" d="M313.125,630.825c19-1.778,23.075,16.809,55.186,15.93,16.222-.445,84.229-1.272,100.34-1.384s11.025-9.515,35.58-9.181,43.118-1.015,55.785-1.126,10.282-19.66,10.449-32.549"/><path id="b1a00431-e078-4f28-8b90-8c9ccc68e243" data-name="Track Inner" class="86e7b7d0-804b-4032-b46b-a61ba743eba5" d="M189.7,439.363c-18.333-6.222-27.889-9.333-39.556-13.445S125.7,409.474,133.922,385.7,238.478,90.141,247.811,61.252s13.778-42.111-2.333-49.222-33.778,5.111-35,26.555c-.563,9.868-.89,21.2-.89,31.98,0,12.385-2.176,18.314-22.333,18.242-31.333-.111-113.944-1.166-130.611-1.5s-44.277-.722-46.277-17.5,3.777-25,27.444-26.222,47.382-1.787,62.111-.222C117.7,45.252,120.7,56.7,115.033,67.807S100.811,84.252,91.7,103.141,68.144,155.363,63.144,166.7s-12,26.334,3.889,38.778,31.111,15.333,50.556,16.778,34.111.111,58.778,8.889,89.777,32,110.444,40.166,43.222,27.723,29.444,71.056-16.111,53.111-28.111,71.778-30.333,31.666-39.333,53.666-37,102.334-43,116.334-18.057,59.238,42.444,53.111c35.112-3.556,51.778-6.445,86-7.334s107.778-3.555,137.334-3.111,39.555.889,64.666.889,33.778-2,34.223-25.778.222-25.777,0-33.555-3.111-15.778-29.334-17.333-46.666-8.445-32.889-38.223,27.556-66.222,35.556-86.666,13.111-36.223-12.222-49.334S460.7,348.141,422.478,334.363s-46.667-17.333-66.223-24.889-39.139-13.746-50.569,17.683-21.208,63.428-29.653,86.1-14.561,51.762-44.889,40.778C202.922,443.807,189.7,439.363,189.7,439.363Z"/><g id="9f6c5cd2-2f0b-4bff-bd48-dbb9ebf91be8" data-name="Crossover 2"><path id="93799886-1111-47a0-9535-480e1c61f7d5" data-name="Crossover Outer" class="4722ac32-1f35-4f39-ae31-d0827cf87818" d="M100.125,43.359c17.777,1.889,20.584,13.312,14.917,24.423s-14.158,16.312-23.269,35.2"/><path id="e1ca45f4-bbf5-4218-9348-007048b86a17" data-name="Crossover Middle" class="9ccc772d-d3e0-4628-a866-cf215c805630" d="M99.931,43.338c17.778,1.889,20.778,13.333,15.111,24.444S100.82,84.227,91.709,103.116"/><path id="36572ae5-f669-4814-b1ec-de1e4bb934f6" data-name="Crossover Inner" class="86e7b7d0-804b-4032-b46b-a61ba743eba5" d="M99.683,43.338c17.778,1.889,21.026,13.333,15.359,24.444s-14.3,16.615-23.412,35.5"/></g><g id="5d082794-6fa9-401b-9bde-4cade61ff82a" data-name="Crossover1"><path id="02c3e1d4-d2a4-42bf-a444-4c25eff2d776" data-name="Crossover Outer" class="4722ac32-1f35-4f39-ae31-d0827cf87818" d="M67.2,205.6c15.889,12.444,30.941,15.194,50.385,16.638s34.111.111,58.778,8.889,89.778,32,110.444,40.167,43.222,27.722,29.445,71.055-16.111,53.111-28.111,71.778-30.334,31.667-39.334,53.667-36.874,102.038-42.874,116.038"/><path id="8e685545-722e-4d23-8a22-69751ffdeae0" data-name="Crossover Middle" class="9ccc772d-d3e0-4628-a866-cf215c805630" d="M67.031,205.459c15.889,12.445,31.112,15.334,50.556,16.778s34.111.111,58.778,8.889,89.778,32,110.444,40.167,43.222,27.722,29.445,71.055-16.111,53.111-28.111,71.778-30.334,31.667-39.334,53.667-37,102.333-43,116.333"/><path id="682d4f29-f07e-4814-aa6c-f4ebc10017ef" data-name="Crossover Inner" class="86e7b7d0-804b-4032-b46b-a61ba743eba5" d="M66.679,205.193c15.889,12.445,31.464,15.6,50.908,17.044s34.111.111,58.778,8.889,89.778,32,110.444,40.167,43.222,27.722,29.445,71.055-16.111,53.111-28.111,71.778-30.334,31.667-39.334,53.667-37.1,102.584-43.1,116.584"/></g><use id="e03c6d98-5ffb-4500-9a76-becea1d17ea6" data-name="Start-Finish-Line" width="200" height="103.617" transform="translate(204.342 423.715) rotate(109.21) scale(0.196)" xlink:href="#1f3e0a7b-94d6-44db-ae35-57ef38a4b81d"/></g></g></g></svg>