<svg xmlns="http://www.w3.org/2000/svg" xmlns:xlink="http://www.w3.org/1999/xlink" width="793.439" height="624.409" viewBox="0 0 793.439 624.409"><defs><style>.ff1d1ab4-dafb-43a3-9ef9-6bfe9f5f2c6a{fill:#00ff24;}.\34 714e849-bfea-4c5b-b963-c983568b1f3a,.ff1d1ab4-dafb-43a3-9ef9-6bfe9f5f2c6a{stroke:#000;stroke-width:5px;}.\34 714e849-bfea-4c5b-b963-c983568b1f3a,.abb744b2-1eca-424a-9497-3b40e322d4bc,.b8e14ac2-1c59-48f6-bda2-ccd042d44a2e,.ecbec4b7-737b-4904-9d9e-dd6f3d8d7b48,.ff1d1ab4-dafb-43a3-9ef9-6bfe9f5f2c6a{stroke-miterlimit:10;}.\34 714e849-bfea-4c5b-b963-c983568b1f3a{fill:#fff;}.abb744b2-1eca-424a-9497-3b40e322d4bc,.b8e14ac2-1c59-48f6-bda2-ccd042d44a2e,.ecbec4b7-737b-4904-9d9e-dd6f3d8d7b48{fill:none;}.abb744b2-1eca-424a-9497-3b40e322d4bc,.ecbec4b7-737b-4904-9d9e-dd6f3d8d7b48{stroke:#0080ff;}.abb744b2-1eca-424a-9497-3b40e322d4bc{stroke-width:20px;}.b8e14ac2-1c59-48f6-bda2-ccd042d44a2e{stroke:#fff;stroke-width:12px;}.ecbec4b7-737b-4904-9d9e-dd6f3d8d7b48{stroke-width:2px;}</style><symbol id="ec872b91-6a17-4a4c-addb-ae1ee4d909d5" data-name="fd103434-89f2-4089-acf9-54fed79ed404" viewBox="0 0 200 103.617"><rect class="ff1d1ab4-dafb-43a3-9ef9-6bfe9f5f2c6a" x="2.5" y="54.074" width="195" height="47.043"/><rect class="4714e849-bfea-4c5b-b963-c983568b1f3a" x="2.5" y="2.5" width="48.75" height="48.75"/><rect class="4714e849-bfea-4c5b-b963-c983568b1f3a" x="51.25" y="2.5" width="48.75" height="48.75"/><rect class="4714e849-bfea-4c5b-b963-c983568b1f3a" x="100" y="2.5" width="48.75" height="48.75"/><rect class="4714e849-bfea-4c5b-b963-c983568b1f3a" x="148.75" y="2.5" width="48.75" height="48.75"/></symbol></defs><title>Astro_Racetrack_ (New)</title><g id="d20966f9-36cd-4dbc-88ae-eccad76ef9dd" data-name="Layer 2"><g id="6a04b7e3-95f8-4d0f-b3c8-b2c94aff6980" data-name="City - Downtown"><g id="92b8cfaa-119a-492a-a662-c83dcb0ad7ed" data-name="Astro_Racetrack_ (New)"><path id="5a2351be-10c3-4e1c-9bc0-eb97314f5688" data-name="Track Outer" class="abb744b2-1eca-424a-9497-3b40e322d4bc" d="M543.034,604.2c30.5.174,110.166.333,124.333.333s34.579.7,43.556,1.667c10.333,1.111,14.737-1.461,23-22.334,8.444-21.333,38.555-104.444,44.111-120.222s9.717-31.244-2.667-61.111c-11.333-27.333-14.785-21.365-36.444-48-16.445-20.222-18.188-49.068-20-68-2-20.889-4.223-58.222-4.667-71.111s-.889-44.445,1.333-70.445,5.131-42.05,8.667-55.777c3.778-14.667,17.111-38.667-26.445-52.889s-62-20.445-74-24.667-21.555-.444-22.444,13.111-2.889,22.889-11.111,32.667S562.534,86.7,551.867,92.529,525.076,109.853,510.7,117.64c-16,8.667-36.889,19.111-48.889,24s-29.555,12.444-41.333,18-26.66,15.813-17.111,31.556c8.222,13.555,22.667,39.111,30.444,52s18.667,31.111,1.112,41.777-20,11.334-28,16-27.556,17.334-41.112-5.555-29.111-51.334-34.888-61.111-11.112-24,12-36.445,27.555-14.444,36.444-18.889,9.333-13.333.444-28.444-34.888-61.556-40-70-13.848-26.952-16.888-34c-4.889-11.333-17.2-14.833-35.334-4.889C273.811,49.2,191.367,92.307,178.923,98.973s-16.889,17.334-10.667,30.223,6.444,22.888-11.556,32.222-109,56.111-128.333,66.444-23.333,19-12.333,40.667,23.333,54.333,54,39.667S117.7,284.529,131.7,277.862s31.667-13.333,46.667-2.666,25.667,13,42.333,19.666,35.667-.333,57,8.334,47.445,18.444,65.445,25.333,27.111,8,46,8.222,45.777-1.3,61.111-.889c16.667.445,26.889,1.556,26.667-9.555s-1.778-13.556-8.445-24-18.889-26.445-3.778-32.889,60.223-25.556,70.889-29.556,16.651-5.255,26.222,8.667c7.334,10.667,12,11.555,23.112,20s85.111,60.889,99.111,71.333,16.222,11.334,25.555,18.222,9.334,20.223-14.889,17.556-110.222-13.556-127.777-15.778-35.945-4.333-47.778-6-23.776-3.788-44.778-3.666c-19.222.111-41-.778-57.889-1.223s-35.111-1.555-36,17.778-2.222,62.667-2.667,82.889-1.576,107.333-1.777,126.889c-.223,21.555,9.118,35.519,38.444,34.889,20.667-.445,61.336-8.2,84.222-7.778C519.645,604.029,523.589,604.084,543.034,604.2Z"/><path id="170448a7-ab14-4384-b3e3-eb9cb055f787" data-name="Track Middle" class="b8e14ac2-1c59-48f6-bda2-ccd042d44a2e" d="M543.034,604.2c30.5.174,110.166.333,124.333.333s34.579.7,43.556,1.667c10.333,1.111,14.737-1.461,23-22.334,8.444-21.333,38.555-104.444,44.111-120.222s9.717-31.244-2.667-61.111c-11.333-27.333-14.785-21.365-36.444-48-16.445-20.222-18.188-49.068-20-68-2-20.889-4.223-58.222-4.667-71.111s-.889-44.445,1.333-70.445,5.131-42.05,8.667-55.777c3.778-14.667,17.111-38.667-26.445-52.889s-62-20.445-74-24.667-21.555-.444-22.444,13.111-2.889,22.889-11.111,32.667S562.534,86.7,551.867,92.529,525.076,109.853,510.7,117.64c-16,8.667-36.889,19.111-48.889,24s-29.555,12.444-41.333,18-26.66,15.813-17.111,31.556c8.222,13.555,22.667,39.111,30.444,52s18.667,31.111,1.112,41.777-20,11.334-28,16-27.556,17.334-41.112-5.555-29.111-51.334-34.888-61.111-11.112-24,12-36.445,27.555-14.444,36.444-18.889,9.333-13.333.444-28.444-34.888-61.556-40-70-13.848-26.952-16.888-34c-4.889-11.333-17.2-14.833-35.334-4.889C273.811,49.2,191.367,92.307,178.923,98.973s-16.889,17.334-10.667,30.223,6.444,22.888-11.556,32.222-109,56.111-128.333,66.444-23.333,19-12.333,40.667,23.333,54.333,54,39.667S117.7,284.529,131.7,277.862s31.667-13.333,46.667-2.666,25.667,13,42.333,19.666,35.667-.333,57,8.334,47.445,18.444,65.445,25.333,27.111,8,46,8.222,45.777-1.3,61.111-.889c16.667.445,26.889,1.556,26.667-9.555s-1.778-13.556-8.445-24-18.889-26.445-3.778-32.889,60.223-25.556,70.889-29.556,16.651-5.255,26.222,8.667c7.334,10.667,12,11.555,23.112,20s85.111,60.889,99.111,71.333,16.222,11.334,25.555,18.222,9.334,20.223-14.889,17.556-110.222-13.556-127.777-15.778-35.945-4.333-47.778-6-23.776-3.788-44.778-3.666c-19.222.111-41-.778-57.889-1.223s-35.111-1.555-36,17.778-2.222,62.667-2.667,82.889-1.576,107.333-1.777,126.889c-.223,21.555,9.118,35.519,38.444,34.889,20.667-.445,61.336-8.2,84.222-7.778C519.645,604.029,523.589,604.084,543.034,604.2Z"/><path id="81c06a41-1642-4aa2-a05c-20532cf48063" data-name="Track Inner" class="ecbec4b7-737b-4904-9d9e-dd6f3d8d7b48" d="M543.034,604.2c30.5.174,110.166.333,124.333.333s34.579.7,43.556,1.667c10.333,1.111,14.737-1.461,23-22.334,8.444-21.333,38.555-104.444,44.111-120.222s9.717-31.244-2.667-61.111c-11.333-27.333-14.785-21.365-36.444-48-16.445-20.222-18.188-49.068-20-68-2-20.889-4.223-58.222-4.667-71.111s-.889-44.445,1.333-70.445,5.131-42.05,8.667-55.777c3.778-14.667,17.111-38.667-26.445-52.889s-62-20.445-74-24.667-21.555-.444-22.444,13.111-2.889,22.889-11.111,32.667S562.534,86.7,551.867,92.529,525.076,109.853,510.7,117.64c-16,8.667-36.889,19.111-48.889,24s-29.555,12.444-41.333,18-26.66,15.813-17.111,31.556c8.222,13.555,22.667,39.111,30.444,52s18.667,31.111,1.112,41.777-20,11.334-28,16-27.556,17.334-41.112-5.555-29.111-51.334-34.888-61.111-11.112-24,12-36.445,27.555-14.444,36.444-18.889,9.333-13.333.444-28.444-34.888-61.556-40-70-13.848-26.952-16.888-34c-4.889-11.333-17.2-14.833-35.334-4.889C273.811,49.2,191.367,92.307,178.923,98.973s-16.889,17.334-10.667,30.223,6.444,22.888-11.556,32.222-109,56.111-128.333,66.444-23.333,19-12.333,40.667,23.333,54.333,54,39.667S117.7,284.529,131.7,277.862s31.667-13.333,46.667-2.666,25.667,13,42.333,19.666,35.667-.333,57,8.334,47.445,18.444,65.445,25.333,27.111,8,46,8.222,45.777-1.3,61.111-.889c16.667.445,26.889,1.556,26.667-9.555s-1.778-13.556-8.445-24-18.889-26.445-3.778-32.889,60.223-25.556,70.889-29.556,16.651-5.255,26.222,8.667c7.334,10.667,12,11.555,23.112,20s85.111,60.889,99.111,71.333,16.222,11.334,25.555,18.222,9.334,20.223-14.889,17.556-110.222-13.556-127.777-15.778-35.945-4.333-47.778-6-23.776-3.788-44.778-3.666c-19.222.111-41-.778-57.889-1.223s-35.111-1.555-36,17.778-2.222,62.667-2.667,82.889-1.576,107.333-1.777,126.889c-.223,21.555,9.118,35.519,38.444,34.889,20.667-.445,61.336-8.2,84.222-7.778C519.645,604.029,523.589,604.084,543.034,604.2Z"/><use id="e601f22c-2af1-4c07-8539-a58000675584" data-name="Start-Finish-Line" width="200" height="103.617" transform="translate(534.384 622.046) rotate(-89.128) scale(0.182)" xlink:href="#ec872b91-6a17-4a4c-addb-ae1ee4d909d5"/></g></g></g></svg>