<svg xmlns="http://www.w3.org/2000/svg" xmlns:xlink="http://www.w3.org/1999/xlink" width="693.086" height="983.434" viewBox="0 0 693.086 983.434"><defs><style>.\34 ad7aede-1ee4-4cfc-a9d0-ef16c579a764{fill:#00ff24;}.\33 e728c35-a12f-47c1-b257-0faec68c9c69,.\34 ad7aede-1ee4-4cfc-a9d0-ef16c579a764{stroke:#000;stroke-width:5px;}.\33 e728c35-a12f-47c1-b257-0faec68c9c69,.\34 ad7aede-1ee4-4cfc-a9d0-ef16c579a764,.\34 db59b91-a563-4409-a065-12db1ef20666,.\35 7fc8ac4-f6bb-434b-b353-ba152a314a7f,.cdcc6862-af3c-4517-acfd-20a851a8440a,.d2d45a69-3916-4005-bae7-7a6d4903ecb2,.f22e744a-f877-475f-9b50-76e3ede347fe{stroke-miterlimit:10;}.\33 e728c35-a12f-47c1-b257-0faec68c9c69{fill:#fff;}.\34 db59b91-a563-4409-a065-12db1ef20666,.\35 7fc8ac4-f6bb-434b-b353-ba152a314a7f,.cdcc6862-af3c-4517-acfd-20a851a8440a,.d2d45a69-3916-4005-bae7-7a6d4903ecb2,.f22e744a-f877-475f-9b50-76e3ede347fe{fill:none;}.cdcc6862-af3c-4517-acfd-20a851a8440a,.d2d45a69-3916-4005-bae7-7a6d4903ecb2{stroke:#c91c1c;}.cdcc6862-af3c-4517-acfd-20a851a8440a,.f22e744a-f877-475f-9b50-76e3ede347fe{stroke-width:20px;}.\35 7fc8ac4-f6bb-434b-b353-ba152a314a7f,.f22e744a-f877-475f-9b50-76e3ede347fe{stroke:#0080ff;}.\34 db59b91-a563-4409-a065-12db1ef20666{stroke:#fff;stroke-width:12px;}.\35 7fc8ac4-f6bb-434b-b353-ba152a314a7f,.d2d45a69-3916-4005-bae7-7a6d4903ecb2{stroke-width:2px;}</style><symbol id="ba463904-9b82-44b1-852f-1830c93a0c0f" data-name="fd103434-89f2-4089-acf9-54fed79ed404" viewBox="0 0 200 103.617"><rect class="4ad7aede-1ee4-4cfc-a9d0-ef16c579a764" x="2.5" y="54.074" width="195" height="47.043"/><rect class="3e728c35-a12f-47c1-b257-0faec68c9c69" x="2.5" y="2.5" width="48.75" height="48.75"/><rect class="3e728c35-a12f-47c1-b257-0faec68c9c69" x="51.25" y="2.5" width="48.75" height="48.75"/><rect class="3e728c35-a12f-47c1-b257-0faec68c9c69" x="100" y="2.5" width="48.75" height="48.75"/><rect class="3e728c35-a12f-47c1-b257-0faec68c9c69" x="148.75" y="2.5" width="48.75" height="48.75"/></symbol></defs><title>Bravado_National_Club</title><g id="9953a5d4-c656-4a7d-be47-9cb53ead743a" data-name="Layer 2"><g id="beeabe10-c339-421b-9e2d-c0f104d43bd4" data-name="City - Downtown"><g id="9e16bf7d-3c18-42f2-b40e-4d12269b22b4" data-name="Bravado_National_Club"><path id="21e753c7-b787-4824-b6bf-1b0ec7e8ec65" data-name="Pitlane Outer" class="cdcc6862-af3c-4517-acfd-20a851a8440a" d="M245.251,776.856c-22-.167-88.5,10.534-111.832,10.367s-70.166-4-86.666,7.5c-14.9,10.388-23.5,21.5-29.667,34.5-6.632,13.982-8.251,31.424-6.333,48.333,1.833,16.167,9.017,55.494,9.5,71.834,1,33.833,26.837,32.718,27.5-8.167.5-30.833-.334-85.167-.167-104.833s0-107.167,0-139.834-.667-78.333-.667-101.666-.5-27.834-.5-46.167"/><path id="81b258b5-f010-4751-9df9-8387968b5e14" data-name="Track Outer" class="f22e744a-f877-475f-9b50-76e3ede347fe" d="M45.975,511.167c0-48,17.427-183.111,17.111-218-.333-36.777,0-57.111,19-75.944,18.923-18.757,39.668-23.492,69.667-23.833,29.333-.334,55.334-1.126,71.5-1.5,31.166-.723,81.157-45.834,123.833-45.834,54.333,0,160.222.223,193.556.223,36.444,0,60-21.556,91.333-21.334s51.111-4.666,51.111-32.444-2.667-52.889-31.333-63.111-38.027-13.256-49.111-17.111c-15.334-5.334-25.556-1.556-32.223,14s-13.333,28.444-19.555,49.333-26.889,86.667-33.111,105.333-4.445,36.667,14.444,43.778,47.556,18.222,61.111,23.111,38.445,9.778,27.556,44S589.086,385.612,583.53,401.39s-9.015,26.4-2,39.555c10.667,20-11.105,37.955-24.666,14.222-8.889-15.555-15.778-24.666-36.667-32s-36.222-12-50.889-16.888-35.555-5.556-44.444,20.222-41.778,118.555-51.778,145.222-32.667,89.333-40.667,111.333-13.1,47.547,19.111,46.556c28.889-.889,61.112-2,82.889-2.889s33.811,24.436,2.445,28c-19.556,2.222-69.447,8.429-93.278,8.833-29.5.5-62.224,13.781-96,13.334-29.389-.389-52.722-2.167-66.5-3.278s-34.667-.445-50-2-44.966-7.043-61.333-39.778c-11.778-23.555-9.137-41.327-9.334-74-.444-74-13.592-79.78-14-109.111C46.2,532.723,45.975,525.167,45.975,511.167Z"/><path id="43514b01-4d4d-4f48-90a2-4a5487204a07" data-name="Track Middle" class="4db59b91-a563-4409-a065-12db1ef20666" d="M45.975,511.167c0-48,17.427-183.111,17.111-218-.333-36.777,0-57.111,19-75.944,18.923-18.757,39.668-23.492,69.667-23.833,29.333-.334,55.334-1.126,71.5-1.5,31.166-.723,81.157-45.834,123.833-45.834,54.333,0,160.222.223,193.556.223,36.444,0,60-21.556,91.333-21.334s51.111-4.666,51.111-32.444-2.667-52.889-31.333-63.111-38.027-13.256-49.111-17.111c-15.334-5.334-25.556-1.556-32.223,14s-13.333,28.444-19.555,49.333-26.889,86.667-33.111,105.333-4.445,36.667,14.444,43.778,47.556,18.222,61.111,23.111,38.445,9.778,27.556,44S589.086,385.612,583.53,401.39s-9.015,26.4-2,39.555c10.667,20-11.105,37.955-24.666,14.222-8.889-15.555-15.778-24.666-36.667-32s-36.222-12-50.889-16.888-35.555-5.556-44.444,20.222-41.778,118.555-51.778,145.222-32.667,89.333-40.667,111.333-13.1,47.547,19.111,46.556c28.889-.889,61.112-2,82.889-2.889s33.811,24.436,2.445,28c-19.556,2.222-69.447,8.429-93.278,8.833-29.5.5-62.224,13.781-96,13.334-29.389-.389-52.722-2.167-66.5-3.278s-34.667-.445-50-2-44.966-7.043-61.333-39.778c-11.778-23.555-9.137-41.327-9.334-74-.444-74-13.592-79.78-14-109.111C46.2,532.723,45.975,525.167,45.975,511.167Z"/><path id="3fcdf2bc-5036-433c-ab6d-ce60d563a809" data-name="Pitlane Middle" class="4db59b91-a563-4409-a065-12db1ef20666" d="M245.251,776.856c-22-.167-88.5,10.534-111.832,10.367s-70.166-4-86.666,7.5c-14.9,10.388-23.5,21.5-29.667,34.5-6.632,13.982-8.251,31.424-6.333,48.333,1.833,16.167,9.017,55.494,9.5,71.834,1,33.833,26.837,32.718,27.5-8.167.5-30.833-.334-85.167-.167-104.833s0-107.167,0-139.834-.667-78.333-.667-101.666-.5-27.834-.5-46.167"/><path id="b750320c-a376-4580-90df-76d38a7ddfcd" data-name="Pitlane Inner" class="d2d45a69-3916-4005-bae7-7a6d4903ecb2" d="M245.251,776.856c-22-.167-88.5,10.534-111.832,10.367s-70.166-4-86.666,7.5c-14.9,10.388-23.5,21.5-29.667,34.5-6.632,13.982-8.251,31.424-6.333,48.333,1.833,16.167,9.017,55.494,9.5,71.834,1,33.833,26.837,32.718,27.5-8.167.5-30.833-.334-85.167-.167-104.833s0-107.167,0-139.834-.667-78.333-.667-101.666-.5-27.834-.5-46.167"/><path id="1b698c38-2b1e-44a2-b99c-6f93e29e9ce2" data-name="Track Inner" class="57fc8ac4-f6bb-434b-b353-ba152a314a7f" d="M45.975,511.167c0-48,17.427-183.111,17.111-218-.333-36.777,0-57.111,19-75.944,18.923-18.757,39.668-23.492,69.667-23.833,29.333-.334,55.334-1.126,71.5-1.5,31.166-.723,81.157-45.834,123.833-45.834,54.333,0,160.222.223,193.556.223,36.444,0,60-21.556,91.333-21.334s51.111-4.666,51.111-32.444-2.667-52.889-31.333-63.111-38.027-13.256-49.111-17.111c-15.334-5.334-25.556-1.556-32.223,14s-13.333,28.444-19.555,49.333-26.889,86.667-33.111,105.333-4.445,36.667,14.444,43.778,47.556,18.222,61.111,23.111,38.445,9.778,27.556,44S589.086,385.612,583.53,401.39s-9.015,26.4-2,39.555c10.667,20-11.105,37.955-24.666,14.222-8.889-15.555-15.778-24.666-36.667-32s-36.222-12-50.889-16.888-35.555-5.556-44.444,20.222-41.778,118.555-51.778,145.222-32.667,89.333-40.667,111.333-13.1,47.547,19.111,46.556c28.889-.889,61.112-2,82.889-2.889s33.811,24.436,2.445,28c-19.556,2.222-69.447,8.429-93.278,8.833-29.5.5-62.224,13.781-96,13.334-29.389-.389-52.722-2.167-66.5-3.278s-34.667-.445-50-2-44.966-7.043-61.333-39.778c-11.778-23.555-9.137-41.327-9.334-74-.444-74-13.592-79.78-14-109.111C46.2,532.723,45.975,525.167,45.975,511.167Z"/><g id="832bed70-b09c-4f5f-9ffb-acb47ef24504" data-name="Pitlane Crossover"><path id="b8d38915-b585-42ce-938a-bb0393096d4b" data-name="Crossover Outer" class="cdcc6862-af3c-4517-acfd-20a851a8440a" d="M105.364,786.483c-4.917.014-43.861-2.01-58.635,8.253-14.92,10.365-23.41,21.348-29.577,34.348"/><path id="19dcece4-7c3b-4fca-b2b4-41c790d9ee72" data-name="Crossover Middle" class="4db59b91-a563-4409-a065-12db1ef20666" d="M133.4,787.236c-23.333-.167-70.166-4-86.666,7.5-14.9,10.388-23.5,21.5-29.667,34.5"/><path id="cdc60235-1b40-43df-80cb-b4bbf78ed04e" data-name="Crossover Inner" class="d2d45a69-3916-4005-bae7-7a6d4903ecb2" d="M133.419,787.223c-23.333-.167-70.19-3.987-86.69,7.513-14.9,10.388-23.537,21.616-29.7,34.616"/></g><g id="05004f9d-c7b2-4d75-b971-889a8f2a44f7" data-name="Crossover"><path id="0ad5845e-f277-4fdb-be37-fece3ad517da" data-name="Crossover Outer" class="f22e744a-f877-475f-9b50-76e3ede347fe" d="M551.28,74.231c-6.222,20.889-26.658,86.1-32.88,104.763"/><path id="d41abe8b-4e1b-42a3-abbd-382cf96b635e" data-name="Crossover Middle" class="4db59b91-a563-4409-a065-12db1ef20666" d="M551.328,74.072c-6.222,20.888-26.764,86.431-32.987,105.1"/><path id="8b5d26f9-9178-4eb1-899d-23cefe1a135b" data-name="Crossover Inner" class="57fc8ac4-f6bb-434b-b353-ba152a314a7f" d="M551.373,73.923C545.151,94.812,524.52,160.636,518.3,179.3"/></g><use id="145c058b-93dc-4f56-9519-e96d57daa698" data-name="Start-Finish-Line" width="200" height="103.617" transform="matrix(-0.195, -0.004, 0.004, -0.195, 65.295, 522.703)" xlink:href="#ba463904-9b82-44b1-852f-1830c93a0c0f"/></g></g></g></svg>