<svg xmlns="http://www.w3.org/2000/svg" xmlns:xlink="http://www.w3.org/1999/xlink" width="1187.969" height="1923.599" viewBox="0 0 1187.969 1923.599"><defs><style>.\37 12b36d4-3cd1-4e2b-ad6f-320f9f1b3d74{fill:#00ff24;}.\37 12b36d4-3cd1-4e2b-ad6f-320f9f1b3d74,.aac3ae12-6d22-420e-81d7-6129dd651952{stroke:#000;stroke-width:5px;}.\37 12b36d4-3cd1-4e2b-ad6f-320f9f1b3d74,.\37 d48c24e-6c71-4c00-b912-29f4f065a955,.\39 7114798-69ff-49ab-9310-76a8264f9ca9,.aac3ae12-6d22-420e-81d7-6129dd651952,.e2566c22-20a3-4799-a9d1-13f3caa58a9a,.e8846713-c6fc-4534-ba8e-4ca894aadd8e,.fa414f1b-6bf3-4bd5-93d7-56a4d2d0b448{stroke-miterlimit:10;}.aac3ae12-6d22-420e-81d7-6129dd651952{fill:#fff;}.\37 d48c24e-6c71-4c00-b912-29f4f065a955,.\39 7114798-69ff-49ab-9310-76a8264f9ca9,.e2566c22-20a3-4799-a9d1-13f3caa58a9a,.e8846713-c6fc-4534-ba8e-4ca894aadd8e,.fa414f1b-6bf3-4bd5-93d7-56a4d2d0b448{fill:none;}.\39 7114798-69ff-49ab-9310-76a8264f9ca9,.e2566c22-20a3-4799-a9d1-13f3caa58a9a{stroke:#c91c1c;}.\39 7114798-69ff-49ab-9310-76a8264f9ca9,.fa414f1b-6bf3-4bd5-93d7-56a4d2d0b448{stroke-width:20px;}.e8846713-c6fc-4534-ba8e-4ca894aadd8e,.fa414f1b-6bf3-4bd5-93d7-56a4d2d0b448{stroke:#0080ff;}.\37 d48c24e-6c71-4c00-b912-29f4f065a955{stroke:#fff;stroke-width:12px;}.e2566c22-20a3-4799-a9d1-13f3caa58a9a,.e8846713-c6fc-4534-ba8e-4ca894aadd8e{stroke-width:2px;}</style><symbol id="2bbdf129-d2ed-457e-80db-c58e9db7bac1" data-name="fd103434-89f2-4089-acf9-54fed79ed404" viewBox="0 0 200 103.617"><rect class="712b36d4-3cd1-4e2b-ad6f-320f9f1b3d74" x="2.5" y="54.074" width="195" height="47.043"/><rect class="aac3ae12-6d22-420e-81d7-6129dd651952" x="2.5" y="2.5" width="48.75" height="48.75"/><rect class="aac3ae12-6d22-420e-81d7-6129dd651952" x="51.25" y="2.5" width="48.75" height="48.75"/><rect class="aac3ae12-6d22-420e-81d7-6129dd651952" x="100" y="2.5" width="48.75" height="48.75"/><rect class="aac3ae12-6d22-420e-81d7-6129dd651952" x="148.75" y="2.5" width="48.75" height="48.75"/></symbol></defs><title>Circuit_de_Vespucci_</title><g id="962ee17e-3fb0-44b0-8a6d-eeae203fee7b" data-name="Layer 2"><g id="071eecbe-f1fe-4682-8b6c-a665bbde5685" data-name="City - Downtown"><g id="308d6554-580a-40b5-becc-d85908152ae8" data-name="Circuit_de_Vespucci_"><path id="912cf4fe-be08-4ffc-a8b9-18e3a1660fb0" data-name="Pitlane Outer" class="97114798-69ff-49ab-9310-76a8264f9ca9" d="M439.918,1702.454c.912-47.344-2.2-51.9-16.866-78.9s-26.162-49.764-18.162-89.1S435.544,1462.6,451.941,1446c17.555-17.778,52.667-54.222,64.444-67.111s47.778-57.778,60.667-72,112.153-110.069,126.778-124.555c11.778-11.667,19.483-4.9,7,7.777-7.222,7.334-19.889,19.445-25.445,31.334S668.83,1259,656.5,1269.666a72.463,72.463,0,0,1-43.444,17.555c-16.111,1-39.472-7.114-54.889-22.444-9.778-9.722-9.111-11.556-12.778-19.389s-11.5-7.167-10,3,4.334,32.167-1.166,55-10.723,33.722-26.5,51.278c-17.028,18.946-48.445,58-66.889,81.555-14.939,19.079-35.218,41.625-44.222,56.445-10.667,17.555-21.778,42.889-28,54.889S350.163,1584,330.83,1595.777,288.362,1614.9,277.274,1634c-12,20.667-16.889,57.493-27.778,76.16"/><path id="bf823198-6623-49fb-a7ad-cd093f91d28d" data-name="Track Outer" class="fa414f1b-6bf3-4bd5-93d7-56a4d2d0b448" d="M300.552,1079.055c-13.477,12.978-32.5,30.5-47.389,44.611s-28.13,26.7-38.778,36.555c-11.166,10.334-27.833,24.334-32.833,44a75.869,75.869,0,0,0,1.333,42c4,12.667,12.847,23.381,21.056,32,8.889,9.334,121.161,122.621,141.111,142,23.333,22.667,23.333,41.112,6.222,76.889-16.451,34.4-24.2,48.207-36.444,70.445-10.889,19.778-96,167.778-111.111,194.444s-28.667,50.667-21.334,77.334c7.4,26.9,23,38.555,44.667,52.555s51.778,23.445,71.778,21.445,44.892-12.221,58.666-36.445c12.889-22.667,60.889-108.444,72-129.111s12.889-46.444,7.556-65.778c-4.432-16.066-22.246-34.536-50.222-49.555-21.111-11.334-38.445-20.889-60-17.111s-28,10.444-37.778,27.333-66,112.222-78.333,134.222-18.667,39-14.334,57,15.334,30,42,45.667,40.731,23.093,62.167,20.5c20.667-2.5,42.645-6.648,58.333-12,16.611-5.667,27.564-30.945,36.834-47.167,8.889-15.555,77.2-133.409,85.111-146.889,12.778-21.778-12.449-27.214,2-49.778,8.111-12.666,10.555-16.333,16.333-25s11-14.222,20.445-24.333,58.777-68,73.444-84.833,79.667-92.5,88.167-102,37.385-44.856,66.944-32.278c10.445,4.444,20.445,4.667,36.889,4s37.111-2.444,54.222-4.444,37.556-5.112,61.111,10.888,28.031,30.194,52.889,33.334c21.111,2.666,29.325-3.331,56-12.222,19.334-6.445,98.13-34.482,119.556-42,25.333-8.889,47.555-19.334,48.666-48.223s0-37.555-.666-52-6.7-26.767-22.222-38c-16.889-12.222-32.157-14.026-58.445-21.777-17.333-5.112-28.876-11.229-51.333-30.445-21.556-18.444-36.222-32.444-49.111-42.889s-32.223-19.778-38.445-29.333-11.778-23.111-29.778-19.778-27.662,4.724-56.111-.333c-30-5.334-53.277,9.2-70,15.833-28.166,11.167-76,32.5-90.166,35.667s-48.167,6.389-70.389,5.055-56-2.222-74.889-11.111-37.608-25.963-47.778-45.778c-12.889-25.111-22.039-67.264-67.333-58.888-30.945,5.722-31.111,9.388-48.945,20.722s-32.833,19.278-42.833,35.055c-8.161,12.876-10.823,23.073-12.444,41.111-1.778,19.778-20.839,20.744-15.334-3.111,6.667-28.889,7.029-37.864,17.111-55.111,8.445-14.444,12.165-29.731-1.833-41.444-16.333-13.667-94.486-79.048-119.833-111.667-20.334-26.167-63.223-87.111-76.778-105.555s-34.86-48.908-42.889-61.112c-11.111-16.888-11.209-24.027,4-34,13.556-8.888,34.444-26,52.222-32.888s32.667-14.223,36.445-26.889,2.107-22.123-5.556-31.778c-11.111-14-39.131-4.617-60.667-10.667-19.777-5.555-33.777-16.444-39.555-30.889C89.052,562.888,81.625,545.285,78.83,526c-2.222-15.333-4.889-36.666-12.445-63.555S49.5,406.666,42.83,390.888,18.376,311.446,12.608,289.333c-6.667-25.556-.588-37.767,18.666-50.667,27.778-18.611,38.445-25.778,59.778-40.111s57.66-51.577,76-67.5c21.5-18.667,28.729-10.047,47.833,3,13.667,9.333,28.024,9.49,42.667,17.833,14.333,8.167,9.667,19.5-.833,36.5s-27,31.833-45,41.667-25.834,14.166-34.334,19.166-18.666,12.5-11.166,25.5,48.541,83.738,54.833,94.667c6.333,11,13.606,21.511,37.833,9.5,19.723-9.778,44.637-24.522,56.5-40.5,12.334-16.611,38.493-52.428,50.334-69.5,9.555-13.778,7.777-18.444.666-32.222s5.666-32.078,20.889-42.889c15.334-10.889,25.783-17.519,60.667-16.889,18.444.333,71.333.222,98,.667s48.444-1.778,49.111-32.445.667-85.222.667-104.889-6-29.579-38-30c-25.334-.333-59.667-3-59.667,24.334s-.333,90.333-.333,110.666,9.168,31.85,34.833,32.167c27,.333,112.281,1.517,140.278,1.945,29.111.444,56.053,2.384,46,36-7.111,23.777-17.334,43.333-26.445,59.333-7.694,13.512-13.116,15.42-38.889,14.889-21.555-.445-61.333-1.334-80.222-1.778s-56.889-1.333-78.666,5.778-43.556,29.333-49.056,34c-13.913,11.805-20.5,22.628-10.167,42,6.667,12.5,39.834,76.666,47.334,89.666s18.5,28.5,32.666,45,30.072,35.152,38.834,54.667c7.333,16.333,19.833,41.667,24.5,66,3.344,17.438,1.692,39.826,1.333,61-.333,19.667-.833,25-2,40s-4.667,23-20,29.833-21.5,27.667-23.833,38.5-7.334,38.834-23,54-40.666,39.5-51,49.834c-16.5,16.5-10.384,25.546-34.334,50-15.833,16.166-26.75,26.916-38.583,38.583-5.388,5.312-16.872,15.7-24.25,24.083-8.826,10.027-18.861,23.755-27.667,32.834C319.219,1060.221,314.052,1066.055,300.552,1079.055Z"/><path id="b4aca8f6-a292-4dfb-881b-dd03fa335ba9" data-name="Track Middle" class="7d48c24e-6c71-4c00-b912-29f4f065a955" d="M300.552,1079.055c-13.477,12.978-32.5,30.5-47.389,44.611s-28.13,26.7-38.778,36.555c-11.166,10.334-27.833,24.334-32.833,44a75.869,75.869,0,0,0,1.333,42c4,12.667,12.847,23.381,21.056,32,8.889,9.334,121.161,122.621,141.111,142,23.333,22.667,23.333,41.112,6.222,76.889-16.451,34.4-24.2,48.207-36.444,70.445-10.889,19.778-96,167.778-111.111,194.444s-28.667,50.667-21.334,77.334c7.4,26.9,23,38.555,44.667,52.555s51.778,23.445,71.778,21.445,44.892-12.221,58.666-36.445c12.889-22.667,60.889-108.444,72-129.111s12.889-46.444,7.556-65.778c-4.432-16.066-22.246-34.536-50.222-49.555-21.111-11.334-38.445-20.889-60-17.111s-28,10.444-37.778,27.333-66,112.222-78.333,134.222-18.667,39-14.334,57,15.334,30,42,45.667,40.731,23.093,62.167,20.5c20.667-2.5,42.645-6.648,58.333-12,16.611-5.667,27.564-30.945,36.834-47.167,8.889-15.555,77.2-133.409,85.111-146.889,12.778-21.778-12.449-27.214,2-49.778,8.111-12.666,10.555-16.333,16.333-25s11-14.222,20.445-24.333,58.777-68,73.444-84.833,79.667-92.5,88.167-102,37.385-44.856,66.944-32.278c10.445,4.444,20.445,4.667,36.889,4s37.111-2.444,54.222-4.444,37.556-5.112,61.111,10.888,28.031,30.194,52.889,33.334c21.111,2.666,29.325-3.331,56-12.222,19.334-6.445,98.13-34.482,119.556-42,25.333-8.889,47.555-19.334,48.666-48.223s0-37.555-.666-52-6.7-26.767-22.222-38c-16.889-12.222-32.157-14.026-58.445-21.777-17.333-5.112-28.876-11.229-51.333-30.445-21.556-18.444-36.222-32.444-49.111-42.889s-32.223-19.778-38.445-29.333-11.778-23.111-29.778-19.778-27.662,4.724-56.111-.333c-30-5.334-53.277,9.2-70,15.833-28.166,11.167-76,32.5-90.166,35.667s-48.167,6.389-70.389,5.055-56-2.222-74.889-11.111-37.608-25.963-47.778-45.778c-12.889-25.111-22.039-67.264-67.333-58.888-30.945,5.722-31.111,9.388-48.945,20.722s-32.833,19.278-42.833,35.055c-8.161,12.876-10.823,23.073-12.444,41.111-1.778,19.778-20.839,20.744-15.334-3.111,6.667-28.889,7.029-37.864,17.111-55.111,8.445-14.444,12.165-29.731-1.833-41.444-16.333-13.667-94.486-79.048-119.833-111.667-20.334-26.167-63.223-87.111-76.778-105.555s-34.86-48.908-42.889-61.112c-11.111-16.888-11.209-24.027,4-34,13.556-8.888,34.444-26,52.222-32.888s32.667-14.223,36.445-26.889,2.107-22.123-5.556-31.778c-11.111-14-39.131-4.617-60.667-10.667-19.777-5.555-33.777-16.444-39.555-30.889C89.052,562.888,81.625,545.285,78.83,526c-2.222-15.333-4.889-36.666-12.445-63.555S49.5,406.666,42.83,390.888,18.376,311.446,12.608,289.333c-6.667-25.556-.588-37.767,18.666-50.667,27.778-18.611,38.445-25.778,59.778-40.111s57.66-51.577,76-67.5c21.5-18.667,28.729-10.047,47.833,3,13.667,9.333,28.024,9.49,42.667,17.833,14.333,8.167,9.667,19.5-.833,36.5s-27,31.833-45,41.667-25.834,14.166-34.334,19.166-18.666,12.5-11.166,25.5,48.541,83.738,54.833,94.667c6.333,11,13.606,21.511,37.833,9.5,19.723-9.778,44.637-24.522,56.5-40.5,12.334-16.611,38.493-52.428,50.334-69.5,9.555-13.778,7.777-18.444.666-32.222s5.666-32.078,20.889-42.889c15.334-10.889,25.783-17.519,60.667-16.889,18.444.333,71.333.222,98,.667s48.444-1.778,49.111-32.445.667-85.222.667-104.889-6-29.579-38-30c-25.334-.333-59.667-3-59.667,24.334s-.333,90.333-.333,110.666,9.168,31.85,34.833,32.167c27,.333,112.281,1.517,140.278,1.945,29.111.444,56.053,2.384,46,36-7.111,23.777-17.334,43.333-26.445,59.333-7.694,13.512-13.116,15.42-38.889,14.889-21.555-.445-61.333-1.334-80.222-1.778s-56.889-1.333-78.666,5.778-43.556,29.333-49.056,34c-13.913,11.805-20.5,22.628-10.167,42,6.667,12.5,39.834,76.666,47.334,89.666s18.5,28.5,32.666,45,30.072,35.152,38.834,54.667c7.333,16.333,19.833,41.667,24.5,66,3.344,17.438,1.692,39.826,1.333,61-.333,19.667-.833,25-2,40s-4.667,23-20,29.833-21.5,27.667-23.833,38.5-7.334,38.834-23,54-40.666,39.5-51,49.834c-16.5,16.5-10.384,25.546-34.334,50-15.833,16.166-26.75,26.916-38.583,38.583-5.388,5.312-16.872,15.7-24.25,24.083-8.826,10.027-18.861,23.755-27.667,32.834C319.219,1060.221,314.052,1066.055,300.552,1079.055Z"/><path id="37400553-f5a2-4cdc-a53a-7aa3274e09b0" data-name="Pitlane Middle" class="7d48c24e-6c71-4c00-b912-29f4f065a955" d="M439.918,1702.454c.912-47.344-2.2-51.9-16.866-78.9s-26.162-49.764-18.162-89.1S435.544,1462.6,451.941,1446c17.555-17.778,52.667-54.222,64.444-67.111s47.778-57.778,60.667-72,112.153-110.069,126.778-124.555c11.778-11.667,19.483-4.9,7,7.777-7.222,7.334-19.889,19.445-25.445,31.334S668.83,1259,656.5,1269.666a72.463,72.463,0,0,1-43.444,17.555c-16.111,1-39.472-7.114-54.889-22.444-9.778-9.722-9.111-11.556-12.778-19.389s-11.5-7.167-10,3,4.334,32.167-1.166,55-10.723,33.722-26.5,51.278c-17.028,18.946-48.445,58-66.889,81.555-14.939,19.079-35.218,41.625-44.222,56.445-10.667,17.555-21.778,42.889-28,54.889S350.163,1584,330.83,1595.777,288.362,1614.9,277.274,1634c-12,20.667-16.889,57.493-27.778,76.16"/><path id="c7dad4dd-e8b0-48ea-9de0-9470d612a241" data-name="Pitlane Inner" class="e2566c22-20a3-4799-a9d1-13f3caa58a9a" d="M439.918,1702.454c.912-47.344-2.2-51.9-16.866-78.9s-26.162-49.764-18.162-89.1S435.544,1462.6,451.941,1446c17.555-17.778,52.667-54.222,64.444-67.111s47.778-57.778,60.667-72,112.153-110.069,126.778-124.555c11.778-11.667,19.483-4.9,7,7.777-7.222,7.334-19.889,19.445-25.445,31.334S668.83,1259,656.5,1269.666a72.463,72.463,0,0,1-43.444,17.555c-16.111,1-39.472-7.114-54.889-22.444-9.778-9.722-9.111-11.556-12.778-19.389s-11.5-7.167-10,3,4.334,32.167-1.166,55-10.723,33.722-26.5,51.278c-17.028,18.946-48.445,58-66.889,81.555-14.939,19.079-35.218,41.625-44.222,56.445-10.667,17.555-21.778,42.889-28,54.889S350.163,1584,330.83,1595.777,288.362,1614.9,277.274,1634c-12,20.667-16.889,57.493-27.778,76.16"/><path id="8137eaaa-8b5f-4d85-b475-3e8cb5c5b05c" data-name="Track Inner" class="e8846713-c6fc-4534-ba8e-4ca894aadd8e" d="M300.552,1079.055c-13.477,12.978-32.5,30.5-47.389,44.611s-28.13,26.7-38.778,36.555c-11.166,10.334-27.833,24.334-32.833,44a75.869,75.869,0,0,0,1.333,42c4,12.667,12.847,23.381,21.056,32,8.889,9.334,121.161,122.621,141.111,142,23.333,22.667,23.333,41.112,6.222,76.889-16.451,34.4-24.2,48.207-36.444,70.445-10.889,19.778-96,167.778-111.111,194.444s-28.667,50.667-21.334,77.334c7.4,26.9,23,38.555,44.667,52.555s51.778,23.445,71.778,21.445,44.892-12.221,58.666-36.445c12.889-22.667,60.889-108.444,72-129.111s12.889-46.444,7.556-65.778c-4.432-16.066-22.246-34.536-50.222-49.555-21.111-11.334-38.445-20.889-60-17.111s-28,10.444-37.778,27.333-66,112.222-78.333,134.222-18.667,39-14.334,57,15.334,30,42,45.667,40.731,23.093,62.167,20.5c20.667-2.5,42.645-6.648,58.333-12,16.611-5.667,27.564-30.945,36.834-47.167,8.889-15.555,77.2-133.409,85.111-146.889,12.778-21.778-12.449-27.214,2-49.778,8.111-12.666,10.555-16.333,16.333-25s11-14.222,20.445-24.333,58.777-68,73.444-84.833,79.667-92.5,88.167-102,37.385-44.856,66.944-32.278c10.445,4.444,20.445,4.667,36.889,4s37.111-2.444,54.222-4.444,37.556-5.112,61.111,10.888,28.031,30.194,52.889,33.334c21.111,2.666,29.325-3.331,56-12.222,19.334-6.445,98.13-34.482,119.556-42,25.333-8.889,47.555-19.334,48.666-48.223s0-37.555-.666-52-6.7-26.767-22.222-38c-16.889-12.222-32.157-14.026-58.445-21.777-17.333-5.112-28.876-11.229-51.333-30.445-21.556-18.444-36.222-32.444-49.111-42.889s-32.223-19.778-38.445-29.333-11.778-23.111-29.778-19.778-27.662,4.724-56.111-.333c-30-5.334-53.277,9.2-70,15.833-28.166,11.167-76,32.5-90.166,35.667s-48.167,6.389-70.389,5.055-56-2.222-74.889-11.111-37.608-25.963-47.778-45.778c-12.889-25.111-22.039-67.264-67.333-58.888-30.945,5.722-31.111,9.388-48.945,20.722s-32.833,19.278-42.833,35.055c-8.161,12.876-10.823,23.073-12.444,41.111-1.778,19.778-20.839,20.744-15.334-3.111,6.667-28.889,7.029-37.864,17.111-55.111,8.445-14.444,12.165-29.731-1.833-41.444-16.333-13.667-94.486-79.048-119.833-111.667-20.334-26.167-63.223-87.111-76.778-105.555s-34.86-48.908-42.889-61.112c-11.111-16.888-11.209-24.027,4-34,13.556-8.888,34.444-26,52.222-32.888s32.667-14.223,36.445-26.889,2.107-22.123-5.556-31.778c-11.111-14-39.131-4.617-60.667-10.667-19.777-5.555-33.777-16.444-39.555-30.889C89.052,562.888,81.625,545.285,78.83,526c-2.222-15.333-4.889-36.666-12.445-63.555S49.5,406.666,42.83,390.888,18.376,311.446,12.608,289.333c-6.667-25.556-.588-37.767,18.666-50.667,27.778-18.611,38.445-25.778,59.778-40.111s57.66-51.577,76-67.5c21.5-18.667,28.729-10.047,47.833,3,13.667,9.333,28.024,9.49,42.667,17.833,14.333,8.167,9.667,19.5-.833,36.5s-27,31.833-45,41.667-25.834,14.166-34.334,19.166-18.666,12.5-11.166,25.5,48.541,83.738,54.833,94.667c6.333,11,13.606,21.511,37.833,9.5,19.723-9.778,44.637-24.522,56.5-40.5,12.334-16.611,38.493-52.428,50.334-69.5,9.555-13.778,7.777-18.444.666-32.222s5.666-32.078,20.889-42.889c15.334-10.889,25.783-17.519,60.667-16.889,18.444.333,71.333.222,98,.667s48.444-1.778,49.111-32.445.667-85.222.667-104.889-6-29.579-38-30c-25.334-.333-59.667-3-59.667,24.334s-.333,90.333-.333,110.666,9.168,31.85,34.833,32.167c27,.333,112.281,1.517,140.278,1.945,29.111.444,56.053,2.384,46,36-7.111,23.777-17.334,43.333-26.445,59.333-7.694,13.512-13.116,15.42-38.889,14.889-21.555-.445-61.333-1.334-80.222-1.778s-56.889-1.333-78.666,5.778-43.556,29.333-49.056,34c-13.913,11.805-20.5,22.628-10.167,42,6.667,12.5,39.834,76.666,47.334,89.666s18.5,28.5,32.666,45,30.072,35.152,38.834,54.667c7.333,16.333,19.833,41.667,24.5,66,3.344,17.438,1.692,39.826,1.333,61-.333,19.667-.833,25-2,40s-4.667,23-20,29.833-21.5,27.667-23.833,38.5-7.334,38.834-23,54-40.666,39.5-51,49.834c-16.5,16.5-10.384,25.546-34.334,50-15.833,16.166-26.75,26.916-38.583,38.583-5.388,5.312-16.872,15.7-24.25,24.083-8.826,10.027-18.861,23.755-27.667,32.834C319.219,1060.221,314.052,1066.055,300.552,1079.055Z"/><g id="520ca2d8-b79d-4cb7-90a5-ef70facd0817" data-name="Pitlane Crossover"><path id="f52fca90-ae86-4dc4-b42e-63fb10e5428a" data-name="Pitlane Outer" class="97114798-69ff-49ab-9310-76a8264f9ca9" d="M684.83,1222.636c-5.556,11.889-16,36.363-28.334,47.03a72.463,72.463,0,0,1-43.444,17.555c-16.111,1-39.283-6.928-54.7-22.258"/><path id="83c3aae2-cbb8-4b51-9d49-6609fe44ae3b" data-name="Pitlane MIddle" class="7d48c24e-6c71-4c00-b912-29f4f065a955" d="M685.385,1221.444c-5.555,11.889-16.555,37.555-28.889,48.222a72.463,72.463,0,0,1-43.444,17.555c-16.111,1-39.472-7.114-54.889-22.444"/><path id="02918e67-4449-4d81-942d-c2a63c17c314" data-name="Pitlane Inner" class="e2566c22-20a3-4799-a9d1-13f3caa58a9a" d="M685.664,1220.861c-5.556,11.889-16.834,38.138-29.168,48.8a72.463,72.463,0,0,1-43.444,17.555c-16.111,1-39.659-7.3-55.077-22.631"/></g><g id="9e092416-f94d-4a0b-94a8-bf18017ee3c6" data-name="Crossover 3"><path id="14231295-d0a0-4ff4-b3e6-1bf940afe633" data-name="Crossover Outer" class="fa414f1b-6bf3-4bd5-93d7-56a4d2d0b448" d="M448.274,176.894c18.445.333,70.993.216,97.66.661s48.442-1.667,49.109-32.334"/><path id="1f38c2ca-0a98-4e8c-bf3f-a13754c229ec" data-name="Crossover Middle" class="7d48c24e-6c71-4c00-b912-29f4f065a955" d="M447.934,176.888c18.444.333,71.333.222,98,.667s48.444-1.778,49.111-32.445"/><path id="a54e9429-d19b-4313-b5f7-274c013a2adb" data-name="Crossover Inner" class="e8846713-c6fc-4534-ba8e-4ca894aadd8e" d="M447.635,176.883c18.444.333,71.632.227,98.3.672s48.455-1.945,49.122-32.612"/></g><g id="95f8c1f5-72eb-4900-9db1-0f06df7edcdf" data-name="Crossover 2"><path id="d41292b7-2f35-43fd-ab5d-dd777eaf29b0" data-name="Crossover Outer" class="fa414f1b-6bf3-4bd5-93d7-56a4d2d0b448" d="M348.489,1061.809c8.445-14.445,12.054-29.541-1.944-41.254-16.333-13.667-94.353-78.877-119.7-111.5"/><path id="34830252-3450-412e-88de-e3bfe407e9a5" data-name="Crossover Middle" class="7d48c24e-6c71-4c00-b912-29f4f065a955" d="M348.378,1062c8.445-14.444,12.165-29.731-1.833-41.444-16.333-13.667-94.486-79.048-119.833-111.667"/><path id="5a100dba-6618-482b-ad9e-71ed2f66cba2" data-name="Crossover Inner" class="e8846713-c6fc-4534-ba8e-4ca894aadd8e" d="M348.3,1062.139c8.444-14.444,12.239-29.871-1.759-41.584-16.333-13.667-94.622-79.232-119.97-111.852"/></g><g id="b40c5be3-a432-43d0-aa10-80bc85add4f7" data-name="Crossover 1"><path id="9cc55f66-9ff2-4924-a466-90d5d939f696" data-name="Crossover Outer" class="fa414f1b-6bf3-4bd5-93d7-56a4d2d0b448" d="M351.161,1497.332c-16.451,34.4-24.1,47.985-36.338,70.223-10.889,19.778-96,167.778-111.111,194.444s-28.667,50.667-21.334,77.334c7.4,26.9,23,38.555,44.667,52.555s51.778,23.445,71.778,21.445,44.892-12.221,58.667-36.445c12.888-22.667,60.74-108.168,71.851-128.835"/><path id="08d636de-8b16-457b-aacb-f839c27a9e80" data-name="Crossover Middle" class="7d48c24e-6c71-4c00-b912-29f4f065a955" d="M351.267,1497.11c-16.451,34.4-24.2,48.207-36.444,70.445-10.889,19.778-96,167.778-111.111,194.444s-28.667,50.667-21.334,77.334c7.4,26.9,23,38.555,44.667,52.555s51.778,23.445,71.778,21.445,44.892-12.221,58.667-36.445c12.888-22.667,60.888-108.444,72-129.111"/><path id="65623e22-b926-4c15-a778-95d9d0828b51" data-name="Crossover Inner" class="e8846713-c6fc-4534-ba8e-4ca894aadd8e" d="M351.414,1496.818c-16.452,34.4-24.348,48.5-36.591,70.737-10.889,19.778-96,167.778-111.111,194.444s-28.667,50.667-21.334,77.334c7.4,26.9,23,38.555,44.667,52.555s51.778,23.445,71.778,21.445,44.892-12.221,58.667-36.445c12.888-22.667,61.019-108.675,72.13-129.342"/></g><use id="0e8cd7ef-14a1-4811-9082-5df266670304" data-name="Start-Finish-Line" width="200" height="103.617" transform="translate(293.603 1058.41) rotate(46.088) scale(0.196)" xlink:href="#2bbdf129-d2ed-457e-80db-c58e9db7bac1"/></g></g></g></svg>