<svg xmlns="http://www.w3.org/2000/svg" xmlns:xlink="http://www.w3.org/1999/xlink" width="586.812" height="709.767" viewBox="0 0 586.812 709.767"><defs><style>.ac4ffd8e-6e07-44d3-b82d-be2cdbd273d3{fill:#00ff24;}.ac4ffd8e-6e07-44d3-b82d-be2cdbd273d3,.ed90c792-4148-4aa1-9543-a09626c1ce58{stroke:#000;stroke-width:5px;}.\31 4a21023-8a11-4879-9052-2dc4561dad3d,.\34 255d7b0-8541-4286-b71b-8bfb86e2096f,.\38 2151453-8cbb-4b73-9602-874aa4912672,.ac4ffd8e-6e07-44d3-b82d-be2cdbd273d3,.ed90c792-4148-4aa1-9543-a09626c1ce58{stroke-miterlimit:10;}.ed90c792-4148-4aa1-9543-a09626c1ce58{fill:#fff;}.\31 4a21023-8a11-4879-9052-2dc4561dad3d,.\34 255d7b0-8541-4286-b71b-8bfb86e2096f,.\38 2151453-8cbb-4b73-9602-874aa4912672{fill:none;}.\31 4a21023-8a11-4879-9052-2dc4561dad3d,.\38 2151453-8cbb-4b73-9602-874aa4912672{stroke:#0080ff;}.\38 2151453-8cbb-4b73-9602-874aa4912672{stroke-width:20px;}.\34 255d7b0-8541-4286-b71b-8bfb86e2096f{stroke:#fff;stroke-width:12px;}.\31 4a21023-8a11-4879-9052-2dc4561dad3d{stroke-width:2px;}</style><symbol id="0a1af7b8-ae3a-4bd8-b1d8-2909ea86c941" data-name="fd103434-89f2-4089-acf9-54fed79ed404" viewBox="0 0 200 103.617"><rect class="ac4ffd8e-6e07-44d3-b82d-be2cdbd273d3" x="2.5" y="54.074" width="195" height="47.043"/><rect class="ed90c792-4148-4aa1-9543-a09626c1ce58" x="2.5" y="2.5" width="48.75" height="48.75"/><rect class="ed90c792-4148-4aa1-9543-a09626c1ce58" x="51.25" y="2.5" width="48.75" height="48.75"/><rect class="ed90c792-4148-4aa1-9543-a09626c1ce58" x="100" y="2.5" width="48.75" height="48.75"/><rect class="ed90c792-4148-4aa1-9543-a09626c1ce58" x="148.75" y="2.5" width="48.75" height="48.75"/></symbol></defs><title>Cutting_Coroners_GP_-_Retail</title><g id="46d4c8e2-7047-4cf0-b752-0435a7dc25d9" data-name="Layer 2"><g id="501ac392-129f-4aee-93cb-680503cbbe2a" data-name="City - Downtown"><g id="ff524b23-4d26-4d2d-8a05-44ff5579ca6f" data-name="Cutting_Coroners_GP_-_Retail"><path id="31206a42-7d4a-4f70-b550-912f920e4045" data-name="Track Outer" class="82151453-8cbb-4b73-9602-874aa4912672" d="M123.734,529.032c24.206-27.065,64.666-75.167,76.666-89.5s8.4-30.289-11.166-47c-16-13.667-26.5-29.334-34.667-43.667s-10.333-17.667-15.5-26.5-5.833-16.667-3.833-35.167a442.556,442.556,0,0,0,2.5-57.833c-.5-19.167-1.834-26.5-1.834-36,0-13.167,7.161-20.106,26.334-20.167,26.583-.083,46.833-1.083,66.333-.833s43.75-2.75,44.5-24.75,6.5-47.25,15.75-72.5,10.5-28.75,15.75-44.5S321.9,9.532,348.9,10.032s54,1.5,79,2.166,47.165.843,69.5.667c21.167-.167,40-4.833,39.667,21.167s-.468,96-.667,115.5c-.166,16.333-.666,22.5.5,38.333s1,40.832.834,64.167c-.167,23.5-2.667,36.666-25,37.166s-39.834.834-54.167,1.167-20.167,3.167-28.333,13.167-15.167,18.5-23.5,28.333-11.5,21.833-.334,31.333,49.417,39.417,70.917,53.167,40,21.75,56.75,23,41.5,3.833,42.667,16.333-11.045,25.68-20.5,14.334c-10-12-14.332-14.878-32.667-14.667-14.5.167-29.167,2-48,12.5s-70.25,37-102.5,54.25-195,112.75-222.667,127.75-40.666,25.333-69,36.667S31.192,705.49,18.817,694.24s-13-28.875,6.375-51.875,46.125-53.25,64.125-74.25S113.15,540.865,123.734,529.032Z"/><path id="189a718a-d925-4e57-a157-4f78892e8506" data-name="Track Middle" class="4255d7b0-8541-4286-b71b-8bfb86e2096f" d="M123.734,529.032c24.206-27.065,64.666-75.167,76.666-89.5s8.4-30.289-11.166-47c-16-13.667-26.5-29.334-34.667-43.667s-10.333-17.667-15.5-26.5-5.833-16.667-3.833-35.167a442.556,442.556,0,0,0,2.5-57.833c-.5-19.167-1.834-26.5-1.834-36,0-13.167,7.161-20.106,26.334-20.167,26.583-.083,46.833-1.083,66.333-.833s43.75-2.75,44.5-24.75,6.5-47.25,15.75-72.5,10.5-28.75,15.75-44.5S321.9,9.532,348.9,10.032s54,1.5,79,2.166,47.165.843,69.5.667c21.167-.167,40-4.833,39.667,21.167s-.468,96-.667,115.5c-.166,16.333-.666,22.5.5,38.333s1,40.832.834,64.167c-.167,23.5-2.667,36.666-25,37.166s-39.834.834-54.167,1.167-20.167,3.167-28.333,13.167-15.167,18.5-23.5,28.333-11.5,21.833-.334,31.333,49.417,39.417,70.917,53.167,40,21.75,56.75,23,41.5,3.833,42.667,16.333-11.045,25.68-20.5,14.334c-10-12-14.332-14.878-32.667-14.667-14.5.167-29.167,2-48,12.5s-70.25,37-102.5,54.25-195,112.75-222.667,127.75-40.666,25.333-69,36.667S31.192,705.49,18.817,694.24s-13-28.875,6.375-51.875,46.125-53.25,64.125-74.25S113.15,540.865,123.734,529.032Z"/><path id="b23e2f4e-4be7-4897-a51a-1d51bb315ce0" data-name="Track Inner" class="14a21023-8a11-4879-9052-2dc4561dad3d" d="M123.734,529.032c24.206-27.065,64.666-75.167,76.666-89.5s8.4-30.289-11.166-47c-16-13.667-26.5-29.334-34.667-43.667s-10.333-17.667-15.5-26.5-5.833-16.667-3.833-35.167a442.556,442.556,0,0,0,2.5-57.833c-.5-19.167-1.834-26.5-1.834-36,0-13.167,7.161-20.106,26.334-20.167,26.583-.083,46.833-1.083,66.333-.833s43.75-2.75,44.5-24.75,6.5-47.25,15.75-72.5,10.5-28.75,15.75-44.5S321.9,9.532,348.9,10.032s54,1.5,79,2.166,47.165.843,69.5.667c21.167-.167,40-4.833,39.667,21.167s-.468,96-.667,115.5c-.166,16.333-.666,22.5.5,38.333s1,40.832.834,64.167c-.167,23.5-2.667,36.666-25,37.166s-39.834.834-54.167,1.167-20.167,3.167-28.333,13.167-15.167,18.5-23.5,28.333-11.5,21.833-.334,31.333,49.417,39.417,70.917,53.167,40,21.75,56.75,23,41.5,3.833,42.667,16.333-11.045,25.68-20.5,14.334c-10-12-14.332-14.878-32.667-14.667-14.5.167-29.167,2-48,12.5s-70.25,37-102.5,54.25-195,112.75-222.667,127.75-40.666,25.333-69,36.667S31.192,705.49,18.817,694.24s-13-28.875,6.375-51.875,46.125-53.25,64.125-74.25S113.15,540.865,123.734,529.032Z"/><use id="0f6cf4f1-c6df-474f-ae32-369a59fb70e3" data-name="Start-Finish-Line" width="200" height="103.617" transform="matrix(-0.165, -0.14, 0.14, -0.165, 137.057, 546.65)" xlink:href="#0a1af7b8-ae3a-4bd8-b1d8-2909ea86c941"/></g></g></g></svg>