<svg xmlns="http://www.w3.org/2000/svg" xmlns:xlink="http://www.w3.org/1999/xlink" width="718.522" height="709.767" viewBox="0 0 718.522 709.767"><defs><style>.\39 031e087-ad67-4226-b259-b2e350d5134f{fill:#00ff24;}.\30 d487c06-7f71-4440-b975-6ad18c4cffe4,.\39 031e087-ad67-4226-b259-b2e350d5134f{stroke:#000;stroke-width:5px;}.\30 d487c06-7f71-4440-b975-6ad18c4cffe4,.\38 81d42d8-9819-4938-86c3-a96028ccb703,.\38 9a1e1b2-f509-4177-a3c0-5e3ed69e97f7,.\39 031e087-ad67-4226-b259-b2e350d5134f,.\39 19e0eb5-6afe-4c20-bfca-f482c96249b6,.\39 1e840a3-1b4f-45b2-b683-68780e26cefb,.cdaed8a4-6791-4145-adf8-a119a2292201{stroke-miterlimit:10;}.\30 d487c06-7f71-4440-b975-6ad18c4cffe4{fill:#fff;}.\38 81d42d8-9819-4938-86c3-a96028ccb703,.\38 9a1e1b2-f509-4177-a3c0-5e3ed69e97f7,.\39 19e0eb5-6afe-4c20-bfca-f482c96249b6,.\39 1e840a3-1b4f-45b2-b683-68780e26cefb,.cdaed8a4-6791-4145-adf8-a119a2292201{fill:none;}.\39 1e840a3-1b4f-45b2-b683-68780e26cefb,.cdaed8a4-6791-4145-adf8-a119a2292201{stroke:#c91c1c;}.\38 9a1e1b2-f509-4177-a3c0-5e3ed69e97f7,.\39 1e840a3-1b4f-45b2-b683-68780e26cefb{stroke-width:20px;}.\38 81d42d8-9819-4938-86c3-a96028ccb703,.\38 9a1e1b2-f509-4177-a3c0-5e3ed69e97f7{stroke:#0080ff;}.\39 19e0eb5-6afe-4c20-bfca-f482c96249b6{stroke:#fff;stroke-width:12px;}.\38 81d42d8-9819-4938-86c3-a96028ccb703,.cdaed8a4-6791-4145-adf8-a119a2292201{stroke-width:2px;}</style><symbol id="0f830a3e-9a90-46c6-80ac-f28aaa2912af" data-name="fd103434-89f2-4089-acf9-54fed79ed404" viewBox="0 0 200 103.617"><rect class="9031e087-ad67-4226-b259-b2e350d5134f" x="2.5" y="54.074" width="195" height="47.043"/><rect class="0d487c06-7f71-4440-b975-6ad18c4cffe4" x="2.5" y="2.5" width="48.75" height="48.75"/><rect class="0d487c06-7f71-4440-b975-6ad18c4cffe4" x="51.25" y="2.5" width="48.75" height="48.75"/><rect class="0d487c06-7f71-4440-b975-6ad18c4cffe4" x="100" y="2.5" width="48.75" height="48.75"/><rect class="0d487c06-7f71-4440-b975-6ad18c4cffe4" x="148.75" y="2.5" width="48.75" height="48.75"/></symbol></defs><title>Cutting_Coroners_GP</title><g id="e28b1e29-ad8c-4548-b8e1-e4a86f7d13bc" data-name="Layer 2"><g id="92b6c220-2b3c-48cc-8da5-12d8778326bb" data-name="City - Downtown"><g id="fc8a1ea3-b69a-44f8-9e41-8d2a5e1a613f" data-name="Cutting_Coroners_GP"><path id="1c8aa024-adee-480a-92cc-d988f59c5cbd" data-name="Pitlane Outer" class="91e840a3-1b4f-45b2-b683-68780e26cefb" d="M540.124,439.863c21.02,1.846,54.61,6,81.776,6.169s62.416-.084,77.084-.084c9.416,0,15.5,10.259.333,10.334-17,.083-32.75-.417-53.417-.417s-43.583-1-53.833,1.25-14.452,3.508-16.952,8.258"/><path id="9747e93c-b1e6-4b5e-bf1a-9552cf46ee9c" data-name="Track Outer" class="89a1e1b2-f509-4177-a3c0-5e3ed69e97f7" d="M123.734,529.032c24.206-27.065,64.666-75.167,76.666-89.5s8.4-30.289-11.166-47c-16-13.667-26.5-29.334-34.667-43.667s-10.333-17.667-15.5-26.5-5.833-16.667-3.833-35.167a442.556,442.556,0,0,0,2.5-57.833c-.5-19.167-1.834-26.5-1.834-36,0-13.167,7.161-20.106,26.334-20.167,26.583-.083,46.833-1.083,66.333-.833s43.75-2.75,44.5-24.75,6.5-47.25,15.75-72.5,10.5-28.75,15.75-44.5S321.9,9.532,348.9,10.032s54,1.5,79,2.166,47.165.843,69.5.667c21.167-.167,40-4.833,39.667,21.167s-.468,96-.667,115.5c-.166,16.333-.666,22.5.5,38.333s1,40.832.834,64.167c-.167,23.5-2.667,36.666-25,37.166s-39.834.834-54.167,1.167-20.167,3.167-28.333,13.167-15.167,18.5-23.5,28.333-11.5,21.833-.334,31.333,49.417,39.417,70.917,53.167,40,21.75,56.75,23,41.5,3.833,42.667,16.333-11.045,25.68-20.5,14.334c-10-12-14.332-14.878-32.667-14.667-14.5.167-29.167,2-48,12.5s-70.25,37-102.5,54.25-195,112.75-222.667,127.75-40.666,25.333-69,36.667S31.192,705.49,18.817,694.24s-13-28.875,6.375-51.875,46.125-53.25,64.125-74.25S113.15,540.865,123.734,529.032Z"/><path id="c52248b3-7818-46df-bb8c-83072aff1510" data-name="Track Middle" class="919e0eb5-6afe-4c20-bfca-f482c96249b6" d="M123.734,529.032c24.206-27.065,64.666-75.167,76.666-89.5s8.4-30.289-11.166-47c-16-13.667-26.5-29.334-34.667-43.667s-10.333-17.667-15.5-26.5-5.833-16.667-3.833-35.167a442.556,442.556,0,0,0,2.5-57.833c-.5-19.167-1.834-26.5-1.834-36,0-13.167,7.161-20.106,26.334-20.167,26.583-.083,46.833-1.083,66.333-.833s43.75-2.75,44.5-24.75,6.5-47.25,15.75-72.5,10.5-28.75,15.75-44.5S321.9,9.532,348.9,10.032s54,1.5,79,2.166,47.165.843,69.5.667c21.167-.167,40-4.833,39.667,21.167s-.468,96-.667,115.5c-.166,16.333-.666,22.5.5,38.333s1,40.832.834,64.167c-.167,23.5-2.667,36.666-25,37.166s-39.834.834-54.167,1.167-20.167,3.167-28.333,13.167-15.167,18.5-23.5,28.333-11.5,21.833-.334,31.333,49.417,39.417,70.917,53.167,40,21.75,56.75,23,41.5,3.833,42.667,16.333-11.045,25.68-20.5,14.334c-10-12-14.332-14.878-32.667-14.667-14.5.167-29.167,2-48,12.5s-70.25,37-102.5,54.25-195,112.75-222.667,127.75-40.666,25.333-69,36.667S31.192,705.49,18.817,694.24s-13-28.875,6.375-51.875,46.125-53.25,64.125-74.25S113.15,540.865,123.734,529.032Z"/><path id="8605e532-5ad0-4a87-8f83-693e9dadebd0" data-name="Pitlane Middle" class="919e0eb5-6afe-4c20-bfca-f482c96249b6" d="M540.124,439.863c21.02,1.846,54.61,6,81.776,6.169s62.416-.084,77.084-.084c9.416,0,15.5,10.259.333,10.334-17,.083-32.75-.417-53.417-.417s-43.583-1-53.833,1.25-14.452,3.508-16.952,8.258"/><path id="a0c88b73-e634-48d5-9f5c-a0aca912706c" data-name="Pitlane Inner" class="cdaed8a4-6791-4145-adf8-a119a2292201" d="M540.124,439.863c21.02,1.846,54.61,6,81.776,6.169s62.416-.084,77.084-.084c9.416,0,15.5,10.259.333,10.334-17,.083-32.75-.417-53.417-.417s-43.583-1-53.833,1.25-14.452,3.508-16.952,8.258"/><path id="717af1f9-68ea-488a-abeb-ba72ee8f4aad" data-name="Track Inner" class="881d42d8-9819-4938-86c3-a96028ccb703" d="M123.734,529.032c24.206-27.065,64.666-75.167,76.666-89.5s8.4-30.289-11.166-47c-16-13.667-26.5-29.334-34.667-43.667s-10.333-17.667-15.5-26.5-5.833-16.667-3.833-35.167a442.556,442.556,0,0,0,2.5-57.833c-.5-19.167-1.834-26.5-1.834-36,0-13.167,7.161-20.106,26.334-20.167,26.583-.083,46.833-1.083,66.333-.833s43.75-2.75,44.5-24.75,6.5-47.25,15.75-72.5,10.5-28.75,15.75-44.5S321.9,9.532,348.9,10.032s54,1.5,79,2.166,47.165.843,69.5.667c21.167-.167,40-4.833,39.667,21.167s-.468,96-.667,115.5c-.166,16.333-.666,22.5.5,38.333s1,40.832.834,64.167c-.167,23.5-2.667,36.666-25,37.166s-39.834.834-54.167,1.167-20.167,3.167-28.333,13.167-15.167,18.5-23.5,28.333-11.5,21.833-.334,31.333,49.417,39.417,70.917,53.167,40,21.75,56.75,23,41.5,3.833,42.667,16.333-11.045,25.68-20.5,14.334c-10-12-14.332-14.878-32.667-14.667-14.5.167-29.167,2-48,12.5s-70.25,37-102.5,54.25-195,112.75-222.667,127.75-40.666,25.333-69,36.667S31.192,705.49,18.817,694.24s-13-28.875,6.375-51.875,46.125-53.25,64.125-74.25S113.15,540.865,123.734,529.032Z"/><use id="e378b663-9752-4be2-a588-649b62132755" data-name="Start-Finish-Line" width="200" height="103.617" transform="matrix(-0.165, -0.14, 0.14, -0.165, 137.057, 546.65)" xlink:href="#0f830a3e-9a90-46c6-80ac-f28aaa2912af"/></g></g></g></svg>