<svg xmlns="http://www.w3.org/2000/svg" xmlns:xlink="http://www.w3.org/1999/xlink" width="903.959" height="1195.909" viewBox="0 0 903.959 1195.909"><defs><style>.\33 ce86b4d-03a0-4771-9f04-129ad275a90e{fill:#00ff24;}.\30 0366954-22f6-44c6-bb1b-c3f59fe73f02,.\33 ce86b4d-03a0-4771-9f04-129ad275a90e{stroke:#000;stroke-width:5px;}.\30 0366954-22f6-44c6-bb1b-c3f59fe73f02,.\30 b4d1c3d-7962-448a-b70e-78843be9f6b3,.\33 15f6c46-44b4-48da-beb6-c5126295a5ad,.\33 ce86b4d-03a0-4771-9f04-129ad275a90e,.\37 61d0642-23b0-4f92-9fd7-09c0eeb22e22,.c737ee89-5924-4f04-b573-51dcb2fc3e50,.e01b7832-ea49-4058-90fc-e7cd27f5031f{stroke-miterlimit:10;}.\30 0366954-22f6-44c6-bb1b-c3f59fe73f02{fill:#fff;}.\30 b4d1c3d-7962-448a-b70e-78843be9f6b3,.\33 15f6c46-44b4-48da-beb6-c5126295a5ad,.\37 61d0642-23b0-4f92-9fd7-09c0eeb22e22,.c737ee89-5924-4f04-b573-51dcb2fc3e50,.e01b7832-ea49-4058-90fc-e7cd27f5031f{fill:none;}.c737ee89-5924-4f04-b573-51dcb2fc3e50,.e01b7832-ea49-4058-90fc-e7cd27f5031f{stroke:#c91c1c;}.\30 b4d1c3d-7962-448a-b70e-78843be9f6b3,.c737ee89-5924-4f04-b573-51dcb2fc3e50{stroke-width:20px;}.\30 b4d1c3d-7962-448a-b70e-78843be9f6b3,.\33 15f6c46-44b4-48da-beb6-c5126295a5ad{stroke:#0080ff;}.\37 61d0642-23b0-4f92-9fd7-09c0eeb22e22{stroke:#fff;stroke-width:12px;}.\33 15f6c46-44b4-48da-beb6-c5126295a5ad,.e01b7832-ea49-4058-90fc-e7cd27f5031f{stroke-width:2px;}</style><symbol id="30d99799-7569-4e7e-aa3f-d93536481d91" data-name="fd103434-89f2-4089-acf9-54fed79ed404" viewBox="0 0 200 103.617"><rect class="3ce86b4d-03a0-4771-9f04-129ad275a90e" x="2.5" y="54.074" width="195" height="47.043"/><rect class="00366954-22f6-44c6-bb1b-c3f59fe73f02" x="2.5" y="2.5" width="48.75" height="48.75"/><rect class="00366954-22f6-44c6-bb1b-c3f59fe73f02" x="51.25" y="2.5" width="48.75" height="48.75"/><rect class="00366954-22f6-44c6-bb1b-c3f59fe73f02" x="100" y="2.5" width="48.75" height="48.75"/><rect class="00366954-22f6-44c6-bb1b-c3f59fe73f02" x="148.75" y="2.5" width="48.75" height="48.75"/></symbol></defs><title>FISH_Back_in_the_Day</title><g id="117fd010-5dac-4f0e-a59b-57b7ec2dfe7a" data-name="Layer 2"><g id="a876769a-fb80-4e16-8f5c-e8bba03b1ad8" data-name="City - Downtown"><g id="35d5a137-05c1-4962-9148-0dc0d2f0f417" data-name="FISH_Back_in_the_Day"><path id="44f3e99d-574e-4703-9e0b-1d53520caf1b" data-name="Pit Outer" class="c737ee89-5924-4f04-b573-51dcb2fc3e50" d="M853.933,120.139c-5.625,10.375-9.35,30.852-4.683,41.852s27.707,27.156,37.917,32.167c11.375,5.583,7.5,16.583-4.5,10.917s-21.834-10.584-31.417-13.334-18.5-2.333-29.667,1.917a52.979,52.979,0,0,0-23.083,16.25c-5.333,6.333-9.99,5.754-17.323,13.171"/><path id="c521376d-71b8-4c96-8128-a6362b1fe8b3" data-name="Track Outer" class="0b4d1c3d-7962-448a-b70e-78843be9f6b3" d="M555.167,615.741c19.13-51.39,42.666-114.5,48-130.166s8-33-16.5-41.667-54.834-19.833-71.167-25.833-32.5-12.334-25.333-33.834S513.333,313.408,521,289.575s17.167-52.834,25-70.334,17.691-21.245,41.333-13.5c19.334,6.334,21.334,7.834,39,13.834s43,13.5,52.667-7.334,13.167-41.5,18-55,15.417-46.25,25.667-77.75,12.25-38.75,16.5-53.25,13.5-20.5,37.5-13,32.25,9,43.5,10.5,25.25,3.5,28.75,19.5,6.25,17.334,10.75,31.5,5.5,22.167-1.334,37-18.166,28.334-31,43.667S804.167,188.575,797,200.575s-18.833,29.833-34.833,38.333-36.667,14.333-48.834,23.833a134.523,134.523,0,0,0-32.666,38c-8.334,14.667-19.167,32-26.834,50.334s-17,33-44.333,33.666-51.667-.666-72.667-1.333-57.833-11.5-80.166-20.167-49.834-24.646-86.5-24.833c-32.625-.167-73.667,4.333-122.667-.667s-73-17-113-18.333-64.667-6-91.333,12c-28.957,19.546-33,55.637-33,86,0,22.167-.167,111.167-.167,132s30.766,59.172,31.333,80.5c.834,31.333.667,71,.334,94.833s-10.25,60.25-10.5,102.25-.25,100.25-.5,132,.166,81.75.666,99.084-11.5,59.166-11.666,85.166,7.833,42.834,34.166,42.667,31,0,47.5-.333,33.334.333,34-26.167-5.416-56.667-5.416-80.167-.25-66.5,0-91.25-1.084-31.75,1.416-45.25,12.167-19.833,41-19.666,73.334,1.666,112.334.416,90-3.916,113.833-5.083,44.167,3.333,44.833,27.167-1.666,69.166-2.916,88.166-2,29.25,5.75,45.25,26.666,44.917,39.5,54.417,46.916,22.49,61.25-.167c15.5-24.5,16.25-25,24.75-37.5s21.689-14.349,43.166-15.333c21.834-1,37.53-2.376,53.834,2.667,16.166,5,29,7.416,41.75-7.584s22.125-27.625,27.75-34,15-9.25,32.875-9.125,29.625-.125,44.875-.375,26.5-.75,26.75-17.5-.5-66.5,0-93-.5-78.75-.75-102-.25-107.5.25-127-2-54.583-24.5-55.083-33.167-1.333-46-1.167-20,23.741-45.334,24.167c-19.833.333-31.166.583-46.416.583s-28.75,2-38.75,27.5-30.5,82.5-39.5,106.75-14.257,35.45-49.75,25.25c-21.75-6.25-24-7.75-41.25-14s-24.25-18.25-15.75-44S542.417,649.991,555.167,615.741Z"/><path id="a0b347e4-0fc4-4e01-acbe-89bcfed5eb56" data-name="Track Middle" class="761d0642-23b0-4f92-9fd7-09c0eeb22e22" d="M555.167,615.741c19.13-51.39,42.666-114.5,48-130.166s8-33-16.5-41.667-54.834-19.833-71.167-25.833-32.5-12.334-25.333-33.834S513.333,313.408,521,289.575s17.167-52.834,25-70.334,17.691-21.245,41.333-13.5c19.334,6.334,21.334,7.834,39,13.834s43,13.5,52.667-7.334,13.167-41.5,18-55,15.417-46.25,25.667-77.75,12.25-38.75,16.5-53.25,13.5-20.5,37.5-13,32.25,9,43.5,10.5,25.25,3.5,28.75,19.5,6.25,17.334,10.75,31.5,5.5,22.167-1.334,37-18.166,28.334-31,43.667S804.167,188.575,797,200.575s-18.833,29.833-34.833,38.333-36.667,14.333-48.834,23.833a134.523,134.523,0,0,0-32.666,38c-8.334,14.667-19.167,32-26.834,50.334s-17,33-44.333,33.666-51.667-.666-72.667-1.333-57.833-11.5-80.166-20.167-49.834-24.646-86.5-24.833c-32.625-.167-73.667,4.333-122.667-.667s-73-17-113-18.333-64.667-6-91.333,12c-28.957,19.546-33,55.637-33,86,0,22.167-.167,111.167-.167,132s30.766,59.172,31.333,80.5c.834,31.333.667,71,.334,94.833s-10.25,60.25-10.5,102.25-.25,100.25-.5,132,.166,81.75.666,99.084-11.5,59.166-11.666,85.166,7.833,42.834,34.166,42.667,31,0,47.5-.333,33.334.333,34-26.167-5.416-56.667-5.416-80.167-.25-66.5,0-91.25-1.084-31.75,1.416-45.25,12.167-19.833,41-19.666,73.334,1.666,112.334.416,90-3.916,113.833-5.083,44.167,3.333,44.833,27.167-1.666,69.166-2.916,88.166-2,29.25,5.75,45.25,26.666,44.917,39.5,54.417,46.916,22.49,61.25-.167c15.5-24.5,16.25-25,24.75-37.5s21.689-14.349,43.166-15.333c21.834-1,37.53-2.376,53.834,2.667,16.166,5,29,7.416,41.75-7.584s22.125-27.625,27.75-34,15-9.25,32.875-9.125,29.625-.125,44.875-.375,26.5-.75,26.75-17.5-.5-66.5,0-93-.5-78.75-.75-102-.25-107.5.25-127-2-54.583-24.5-55.083-33.167-1.333-46-1.167-20,23.741-45.334,24.167c-19.833.333-31.166.583-46.416.583s-28.75,2-38.75,27.5-30.5,82.5-39.5,106.75-14.257,35.45-49.75,25.25c-21.75-6.25-24-7.75-41.25-14s-24.25-18.25-15.75-44S542.417,649.991,555.167,615.741Z"/><path id="4b07db53-ae95-47b9-b6b8-1dd0653d4890" data-name="Pit Middle" class="761d0642-23b0-4f92-9fd7-09c0eeb22e22" d="M853.933,120.139c-5.625,10.375-9.35,30.852-4.683,41.852s27.707,27.156,37.917,32.167c11.375,5.583,7.5,16.583-4.5,10.917s-21.834-10.584-31.417-13.334-18.5-2.333-29.667,1.917a52.979,52.979,0,0,0-23.083,16.25c-5.333,6.333-9.99,5.754-17.323,13.171"/><path id="15eafa95-72ee-43ba-aafb-f7921cbd73ae" data-name="Pit Inner" class="e01b7832-ea49-4058-90fc-e7cd27f5031f" d="M853.933,120.139c-5.625,10.375-9.35,30.852-4.683,41.852s27.707,27.156,37.917,32.167c11.375,5.583,7.5,16.583-4.5,10.917s-21.834-10.584-31.417-13.334-18.5-2.333-29.667,1.917a52.979,52.979,0,0,0-23.083,16.25c-5.333,6.333-9.99,5.754-17.323,13.171"/><path id="e654681b-48ac-4e6a-84ff-39aaf3236581" data-name="Track Inner" class="315f6c46-44b4-48da-beb6-c5126295a5ad" d="M555.167,615.741c19.13-51.39,42.666-114.5,48-130.166s8-33-16.5-41.667-54.834-19.833-71.167-25.833-32.5-12.334-25.333-33.834S513.333,313.408,521,289.575s17.167-52.834,25-70.334,17.691-21.245,41.333-13.5c19.334,6.334,21.334,7.834,39,13.834s43,13.5,52.667-7.334,13.167-41.5,18-55,15.417-46.25,25.667-77.75,12.25-38.75,16.5-53.25,13.5-20.5,37.5-13,32.25,9,43.5,10.5,25.25,3.5,28.75,19.5,6.25,17.334,10.75,31.5,5.5,22.167-1.334,37-18.166,28.334-31,43.667S804.167,188.575,797,200.575s-18.833,29.833-34.833,38.333-36.667,14.333-48.834,23.833a134.523,134.523,0,0,0-32.666,38c-8.334,14.667-19.167,32-26.834,50.334s-17,33-44.333,33.666-51.667-.666-72.667-1.333-57.833-11.5-80.166-20.167-49.834-24.646-86.5-24.833c-32.625-.167-73.667,4.333-122.667-.667s-73-17-113-18.333-64.667-6-91.333,12c-28.957,19.546-33,55.637-33,86,0,22.167-.167,111.167-.167,132s30.766,59.172,31.333,80.5c.834,31.333.667,71,.334,94.833s-10.25,60.25-10.5,102.25-.25,100.25-.5,132,.166,81.75.666,99.084-11.5,59.166-11.666,85.166,7.833,42.834,34.166,42.667,31,0,47.5-.333,33.334.333,34-26.167-5.416-56.667-5.416-80.167-.25-66.5,0-91.25-1.084-31.75,1.416-45.25,12.167-19.833,41-19.666,73.334,1.666,112.334.416,90-3.916,113.833-5.083,44.167,3.333,44.833,27.167-1.666,69.166-2.916,88.166-2,29.25,5.75,45.25,26.666,44.917,39.5,54.417,46.916,22.49,61.25-.167c15.5-24.5,16.25-25,24.75-37.5s21.689-14.349,43.166-15.333c21.834-1,37.53-2.376,53.834,2.667,16.166,5,29,7.416,41.75-7.584s22.125-27.625,27.75-34,15-9.25,32.875-9.125,29.625-.125,44.875-.375,26.5-.75,26.75-17.5-.5-66.5,0-93-.5-78.75-.75-102-.25-107.5.25-127-2-54.583-24.5-55.083-33.167-1.333-46-1.167-20,23.741-45.334,24.167c-19.833.333-31.166.583-46.416.583s-28.75,2-38.75,27.5-30.5,82.5-39.5,106.75-14.257,35.45-49.75,25.25c-21.75-6.25-24-7.75-41.25-14s-24.25-18.25-15.75-44S542.417,649.991,555.167,615.741Z"/><g id="cc5938f5-704e-4dee-805b-ef730ebfcff0" data-name="Crossover"><path id="c0e187b4-8104-4ef1-9c88-259a4c96dee7" data-name="Crossover Outer" class="0b4d1c3d-7962-448a-b70e-78843be9f6b3" d="M515.33,418C499,412,483,405.731,490.167,384.231s23.134-70.722,30.8-94.556"/><path id="702eb7f3-4b91-49e5-8e75-7fb85ebf712d" data-name="Crossover Middle" class="761d0642-23b0-4f92-9fd7-09c0eeb22e22" d="M515.5,418.064c-16.333-6-32.5-12.333-25.333-33.833S513.333,313.4,521,289.564"/><path id="5ab3a52d-46f6-45a7-b9f8-c4aa178a4788" data-name="Crossover Inner" class="315f6c46-44b4-48da-beb6-c5126295a5ad" d="M515.711,418.152c-16.334-6-32.711-12.421-25.544-33.921s23.2-70.939,30.87-94.772"/></g><use id="8978e518-bbcc-4129-926f-d2c197d2ca36" data-name="Start-Finish-Line" width="200" height="103.617" transform="translate(571.027 634.486) rotate(-159.279) scale(0.217)" xlink:href="#30d99799-7569-4e7e-aa3f-d93536481d91"/></g></g></g></svg>