<svg xmlns="http://www.w3.org/2000/svg" xmlns:xlink="http://www.w3.org/1999/xlink" width="1040.926" height="965.826" viewBox="0 0 1040.926 965.826"><defs><style>.e7efc06a-4f17-436f-8af8-6c7e49e7016b{fill:#00ff24;}.\33 f8e3bbc-9058-4577-aa44-27ac47c6b217,.e7efc06a-4f17-436f-8af8-6c7e49e7016b{stroke:#000;stroke-width:5px;}.\32 733ed95-a9bf-4551-95b7-0764c1c31b36,.\33 f8e3bbc-9058-4577-aa44-27ac47c6b217,.\34 8245a59-c962-424c-ade9-83500e640e3e,.\39 0c519ee-7626-4b46-b5ea-5ea51aa1c1ad,.b803118f-a1bb-4edb-8f4a-2f129b24252a,.e485cfa0-3af9-483a-acb0-4aaec8f886d1,.e7efc06a-4f17-436f-8af8-6c7e49e7016b{stroke-miterlimit:10;}.\33 f8e3bbc-9058-4577-aa44-27ac47c6b217{fill:#fff;}.\32 733ed95-a9bf-4551-95b7-0764c1c31b36,.\34 8245a59-c962-424c-ade9-83500e640e3e,.\39 0c519ee-7626-4b46-b5ea-5ea51aa1c1ad,.b803118f-a1bb-4edb-8f4a-2f129b24252a,.e485cfa0-3af9-483a-acb0-4aaec8f886d1{fill:none;}.b803118f-a1bb-4edb-8f4a-2f129b24252a,.e485cfa0-3af9-483a-acb0-4aaec8f886d1{stroke:#c91c1c;}.\34 8245a59-c962-424c-ade9-83500e640e3e,.e485cfa0-3af9-483a-acb0-4aaec8f886d1{stroke-width:20px;}.\32 733ed95-a9bf-4551-95b7-0764c1c31b36,.\34 8245a59-c962-424c-ade9-83500e640e3e{stroke:#0080ff;}.\39 0c519ee-7626-4b46-b5ea-5ea51aa1c1ad{stroke:#fff;stroke-width:12px;}.\32 733ed95-a9bf-4551-95b7-0764c1c31b36,.b803118f-a1bb-4edb-8f4a-2f129b24252a{stroke-width:2px;}</style><symbol id="46dcaf78-d9d3-4cc8-b047-a906013278a9" data-name="fd103434-89f2-4089-acf9-54fed79ed404" viewBox="0 0 200 103.617"><rect class="e7efc06a-4f17-436f-8af8-6c7e49e7016b" x="2.5" y="54.074" width="195" height="47.043"/><rect class="3f8e3bbc-9058-4577-aa44-27ac47c6b217" x="2.5" y="2.5" width="48.75" height="48.75"/><rect class="3f8e3bbc-9058-4577-aa44-27ac47c6b217" x="51.25" y="2.5" width="48.75" height="48.75"/><rect class="3f8e3bbc-9058-4577-aa44-27ac47c6b217" x="100" y="2.5" width="48.75" height="48.75"/><rect class="3f8e3bbc-9058-4577-aa44-27ac47c6b217" x="148.75" y="2.5" width="48.75" height="48.75"/></symbol></defs><title>GNGR_Flow_Down_Filkie</title><g id="521ebdde-b356-4125-906c-7b88dc526624" data-name="Layer 2"><g id="0981b26b-c0b1-48d1-bd9a-07a0ebad5049" data-name="City - Downtown"><g id="7807cee2-3c69-425c-bc7f-7dcf45a971d2" data-name="GNGR_Flow_Down_Filkie"><path id="be6243ac-9bfa-41e7-96ea-e68a78b1b5f5" data-name="Pitlane Outer" class="e485cfa0-3af9-483a-acb0-4aaec8f886d1" d="M754.953,935.692c-18.625,1.25-42.625-6.072-58.875-5.072s-77.375,2.4-95.625,2.654-21.874,9.1-44,9.225"/><path id="d859a7cf-49a8-4794-9630-fcb6cbc62145" data-name="Track Outer" class="48245a59-c962-424c-ade9-83500e640e3e" d="M563.7,942.4c-19.629.293-53.416.584-74.083.084s-61.5-4.167-89.5-13.334-84.278-28.849-96.667-34c-11.951-4.968-39.861-16.394-39.75-38.375.125-24.625-1-43-.875-55.75s-7-24.375-28-24.75-25.208-.125-42.041-.291-23.334,9-25,23.5-2.084,22.291-9.209,36.916-15.5,23.5-28.625,31.5S93.828,890.524,80.2,898.774s-30,14.875-39.125-2.375S20.62,859.483,14.453,847.816s-7.5-20.167,6.334-29.5,20.666-16.5,27.166-24.833,20-11.834,32-13.834,27-4.333,42-4.166,20,.166,30.5-.167,25.834,1.167,26-15-.166-34.5-.166-43,3.175-16.5,14.666-27.333c11.667-11,27.834-23.167,41.5-23.334s27.834.667,40.334.5,25-5.5,25.166-19.333-.166-27.667-7.5-42.833-20.072-26.92-27.666-41.334c-8.167-15.5-7-26.333-6.834-38.166s4-22.5,23.167-22.334,74.833,0,93.667,0,52.166-.25,79.416,0,62.75,1.667,71.084-21.166,31.666-84.209,37.666-100.459,5.41-56.378-4.75-72.375c-11.75-18.5-37.57-43.767-59.75-46.5-17.25-2.125-74-9.25-98.25-12.5s-28.25,9.75-56.5,6.25-36.25-4.75-46.75-5.75-37.416-2.416-58.166-2.166-54.574.924-55.084-17.834c-.416-15.333,5.709-24.312,27-36.875,20.125-11.875,34.786-21.644,54.25-29.375,17.834-7.083,42.75-16,61.25-24.5s40.25-22.75,63-35.5,38.257-18.55,53.75-23.25c26.375-8,38.676,18.147,75.667,17.167,25.167-.667,55.458-1.292,80.333.458s28.667,3.042,40.834,4.709,23-5.334,26.5-22.5,5.666-31.5,9.5-50.334,17.833-24,32.666-18.666S774.2,35.9,788.7,42.149s30,20.25,21,43-16.25,41.667-22.083,55.5-2.667,27.5,14.333,34,75.5,26.5,98.5,35,68.5,24.25,91,32.25,29.25,14,34.75,30,7.5,57.5-1.25,80.5-39.5,100.75-49.75,125-42.25,112.25-51,134-9.75,33.75,10,48.75,34.25,39.5,28.084,53.667-30,53.5-38,64.167-29.334,30.833-45.334,39.666-31.375,10.25-41.625,29.5-18.875,43.5-26.708,59.834-14.667,27.166-36.167,27.833-88.166,5-107.333,5.167S591.62,941.983,563.7,942.4Z"/><path id="45236e3e-ee84-46d6-acb6-1d971d72b941" data-name="Track Middle" class="90c519ee-7626-4b46-b5ea-5ea51aa1c1ad" d="M563.7,942.4c-19.629.293-53.416.584-74.083.084s-61.5-4.167-89.5-13.334-84.278-28.849-96.667-34c-11.951-4.968-39.861-16.394-39.75-38.375.125-24.625-1-43-.875-55.75s-7-24.375-28-24.75-25.208-.125-42.041-.291-23.334,9-25,23.5-2.084,22.291-9.209,36.916-15.5,23.5-28.625,31.5S93.828,890.524,80.2,898.774s-30,14.875-39.125-2.375S20.62,859.483,14.453,847.816s-7.5-20.167,6.334-29.5,20.666-16.5,27.166-24.833,20-11.834,32-13.834,27-4.333,42-4.166,20,.166,30.5-.167,25.834,1.167,26-15-.166-34.5-.166-43,3.175-16.5,14.666-27.333c11.667-11,27.834-23.167,41.5-23.334s27.834.667,40.334.5,25-5.5,25.166-19.333-.166-27.667-7.5-42.833-20.072-26.92-27.666-41.334c-8.167-15.5-7-26.333-6.834-38.166s4-22.5,23.167-22.334,74.833,0,93.667,0,52.166-.25,79.416,0,62.75,1.667,71.084-21.166,31.666-84.209,37.666-100.459,5.41-56.378-4.75-72.375c-11.75-18.5-37.57-43.767-59.75-46.5-17.25-2.125-74-9.25-98.25-12.5s-28.25,9.75-56.5,6.25-36.25-4.75-46.75-5.75-37.416-2.416-58.166-2.166-54.574.924-55.084-17.834c-.416-15.333,5.709-24.312,27-36.875,20.125-11.875,34.786-21.644,54.25-29.375,17.834-7.083,42.75-16,61.25-24.5s40.25-22.75,63-35.5,38.257-18.55,53.75-23.25c26.375-8,38.676,18.147,75.667,17.167,25.167-.667,55.458-1.292,80.333.458s28.667,3.042,40.834,4.709,23-5.334,26.5-22.5,5.666-31.5,9.5-50.334,17.833-24,32.666-18.666S774.2,35.9,788.7,42.149s30,20.25,21,43-16.25,41.667-22.083,55.5-2.667,27.5,14.333,34,75.5,26.5,98.5,35,68.5,24.25,91,32.25,29.25,14,34.75,30,7.5,57.5-1.25,80.5-39.5,100.75-49.75,125-42.25,112.25-51,134-9.75,33.75,10,48.75,34.25,39.5,28.084,53.667-30,53.5-38,64.167-29.334,30.833-45.334,39.666-31.375,10.25-41.625,29.5-18.875,43.5-26.708,59.834-14.667,27.166-36.167,27.833-88.166,5-107.333,5.167S591.62,941.983,563.7,942.4Z"/><path id="ed4f67c5-f740-4bec-bc64-ed81dc713887" data-name="Pitlane Middle" class="90c519ee-7626-4b46-b5ea-5ea51aa1c1ad" d="M754.953,935.692c-18.625,1.25-42.625-6.072-58.875-5.072s-77.375,2.4-95.625,2.654-21.874,9.1-44,9.225"/><path id="461e4faa-4a7c-492e-87c3-f31d00f99d98" data-name="Pitlane Inner" class="b803118f-a1bb-4edb-8f4a-2f129b24252a" d="M754.953,935.692c-18.625,1.25-42.625-6.072-58.875-5.072s-77.375,2.4-95.625,2.654-21.874,9.1-44,9.225"/><path id="d91aebb7-5dec-4894-b7af-ec9f6f9fbcfe" data-name="Track Inner" class="2733ed95-a9bf-4551-95b7-0764c1c31b36" d="M563.7,942.4c-19.629.293-53.416.584-74.083.084s-61.5-4.167-89.5-13.334-84.278-28.849-96.667-34c-11.951-4.968-39.861-16.394-39.75-38.375.125-24.625-1-43-.875-55.75s-7-24.375-28-24.75-25.208-.125-42.041-.291-23.334,9-25,23.5-2.084,22.291-9.209,36.916-15.5,23.5-28.625,31.5S93.828,890.524,80.2,898.774s-30,14.875-39.125-2.375S20.62,859.483,14.453,847.816s-7.5-20.167,6.334-29.5,20.666-16.5,27.166-24.833,20-11.834,32-13.834,27-4.333,42-4.166,20,.166,30.5-.167,25.834,1.167,26-15-.166-34.5-.166-43,3.175-16.5,14.666-27.333c11.667-11,27.834-23.167,41.5-23.334s27.834.667,40.334.5,25-5.5,25.166-19.333-.166-27.667-7.5-42.833-20.072-26.92-27.666-41.334c-8.167-15.5-7-26.333-6.834-38.166s4-22.5,23.167-22.334,74.833,0,93.667,0,52.166-.25,79.416,0,62.75,1.667,71.084-21.166,31.666-84.209,37.666-100.459,5.41-56.378-4.75-72.375c-11.75-18.5-37.57-43.767-59.75-46.5-17.25-2.125-74-9.25-98.25-12.5s-28.25,9.75-56.5,6.25-36.25-4.75-46.75-5.75-37.416-2.416-58.166-2.166-54.574.924-55.084-17.834c-.416-15.333,5.709-24.312,27-36.875,20.125-11.875,34.786-21.644,54.25-29.375,17.834-7.083,42.75-16,61.25-24.5s40.25-22.75,63-35.5,38.257-18.55,53.75-23.25c26.375-8,38.676,18.147,75.667,17.167,25.167-.667,55.458-1.292,80.333.458s28.667,3.042,40.834,4.709,23-5.334,26.5-22.5,5.666-31.5,9.5-50.334,17.833-24,32.666-18.666S774.2,35.9,788.7,42.149s30,20.25,21,43-16.25,41.667-22.083,55.5-2.667,27.5,14.333,34,75.5,26.5,98.5,35,68.5,24.25,91,32.25,29.25,14,34.75,30,7.5,57.5-1.25,80.5-39.5,100.75-49.75,125-42.25,112.25-51,134-9.75,33.75,10,48.75,34.25,39.5,28.084,53.667-30,53.5-38,64.167-29.334,30.833-45.334,39.666-31.375,10.25-41.625,29.5-18.875,43.5-26.708,59.834-14.667,27.166-36.167,27.833-88.166,5-107.333,5.167S591.62,941.983,563.7,942.4Z"/><use id="0eace332-bcb2-4053-a59e-16acbcacaa42" data-name="Start-Finish-Line" width="200" height="103.617" transform="translate(574.498 920.549) rotate(90.004) scale(0.217)" xlink:href="#46dcaf78-d9d3-4cc8-b047-a906013278a9"/></g></g></g></svg>