<svg xmlns="http://www.w3.org/2000/svg" xmlns:xlink="http://www.w3.org/1999/xlink" width="711.008" height="443.718" viewBox="0 0 711.008 443.718"><defs><style>.d7745ec8-485f-4574-aee3-4b6981089aed{fill:#00ff24;}.d7745ec8-485f-4574-aee3-4b6981089aed,.f73d5a90-5743-4557-8ea2-818f15a7730b{stroke:#000;stroke-width:5px;}.\30 5e748ed-2b95-4683-a898-2d0a02c80634,.\33 f05c89c-afde-41e1-a9a6-d1a145c7128c,.\37 f46dbc2-edb2-43d0-b8b7-d924f02b1f1c,.d7745ec8-485f-4574-aee3-4b6981089aed,.f73d5a90-5743-4557-8ea2-818f15a7730b{stroke-miterlimit:10;}.f73d5a90-5743-4557-8ea2-818f15a7730b{fill:#fff;}.\30 5e748ed-2b95-4683-a898-2d0a02c80634,.\33 f05c89c-afde-41e1-a9a6-d1a145c7128c,.\37 f46dbc2-edb2-43d0-b8b7-d924f02b1f1c{fill:none;}.\33 f05c89c-afde-41e1-a9a6-d1a145c7128c,.\37 f46dbc2-edb2-43d0-b8b7-d924f02b1f1c{stroke:#0080ff;}.\37 f46dbc2-edb2-43d0-b8b7-d924f02b1f1c{stroke-width:20px;}.\30 5e748ed-2b95-4683-a898-2d0a02c80634{stroke:#fff;stroke-width:12px;}.\33 f05c89c-afde-41e1-a9a6-d1a145c7128c{stroke-width:2px;}</style><symbol id="aad81138-41fd-4916-9fa3-a194e03893ff" data-name="fd103434-89f2-4089-acf9-54fed79ed404" viewBox="0 0 200 103.617"><rect class="d7745ec8-485f-4574-aee3-4b6981089aed" x="2.5" y="54.074" width="195" height="47.043"/><rect class="f73d5a90-5743-4557-8ea2-818f15a7730b" x="2.5" y="2.5" width="48.75" height="48.75"/><rect class="f73d5a90-5743-4557-8ea2-818f15a7730b" x="51.25" y="2.5" width="48.75" height="48.75"/><rect class="f73d5a90-5743-4557-8ea2-818f15a7730b" x="100" y="2.5" width="48.75" height="48.75"/><rect class="f73d5a90-5743-4557-8ea2-818f15a7730b" x="148.75" y="2.5" width="48.75" height="48.75"/></symbol></defs><title>GNGR_Ive_Got_Nothin</title><g id="5a1ac3c1-7ac2-4027-9f7d-3dbf7715b5c9" data-name="Layer 2"><g id="cb262ced-ebbf-48f9-9063-c3d9d031fd1a" data-name="City - Downtown"><g id="8cb294ec-6870-43bd-9c69-567f6398f2e5" data-name="GNGR_Ive_Got_Nothin"><path id="f84801c0-7ed6-4e1b-a351-43bc0cfcbf9d" data-name="Track Outer" class="7f46dbc2-edb2-43d0-b8b7-d924f02b1f1c" d="M392.751,270.247c8.142-21.7,19.348-53.9,27.25-75.375,6.5-17.666,20.708-20.864,40.875-21,18.625-.125,28.079-.343,44.458-.666,21.083-.417,27.336-27.353,53.167-27,30.5.416,46.5.833,61.5.833s81.812-3.171,81-70.833c-.667-55.5-40.507-66.977-88-66.167-29.334.5-63.25,1.333-85.75,1.333s-43-3.5-50.75,18-30,86.75-37.5,108.5-16.5,40-41.25,32-142.069-49.818-173.584-61.333c-17.333-6.333-33.666-7.333-43.333,21.333s-29.5,82.334-33.833,94.5-20.834,24.334-45.334,15.667-69.666-25-81.833-29.167-12.833,4-3.167,8,74,27.5,86.167,31.667,29,13.333,20.667,36S91.667,373.206,85.167,390.372s-14.5,44,14.667,43.334,55.167-2,74.5-3.334,34.333-4.666,43.667-26.166,22.833-50.5,30.166-68,16.5-26.334,36.334-19,39.833,15,54.333,20.5,28.333,5.666,35.167-12.834S385.167,290.456,392.751,270.247Z"/><path id="4daaab3d-6188-4655-8b51-ebd457ed9d52" data-name="Track Middle" class="05e748ed-2b95-4683-a898-2d0a02c80634" d="M392.751,270.247c8.142-21.7,19.348-53.9,27.25-75.375,6.5-17.666,20.708-20.864,40.875-21,18.625-.125,28.079-.343,44.458-.666,21.083-.417,27.336-27.353,53.167-27,30.5.416,46.5.833,61.5.833s81.812-3.171,81-70.833c-.667-55.5-40.507-66.977-88-66.167-29.334.5-63.25,1.333-85.75,1.333s-43-3.5-50.75,18-30,86.75-37.5,108.5-16.5,40-41.25,32-142.069-49.818-173.584-61.333c-17.333-6.333-33.666-7.333-43.333,21.333s-29.5,82.334-33.833,94.5-20.834,24.334-45.334,15.667-69.666-25-81.833-29.167-12.833,4-3.167,8,74,27.5,86.167,31.667,29,13.333,20.667,36S91.667,373.206,85.167,390.372s-14.5,44,14.667,43.334,55.167-2,74.5-3.334,34.333-4.666,43.667-26.166,22.833-50.5,30.166-68,16.5-26.334,36.334-19,39.833,15,54.333,20.5,28.333,5.666,35.167-12.834S385.167,290.456,392.751,270.247Z"/><path id="2fe8c3f4-0256-4335-a0ea-069026e1a76a" data-name="Track Inner" class="3f05c89c-afde-41e1-a9a6-d1a145c7128c" d="M392.751,270.247c8.142-21.7,19.348-53.9,27.25-75.375,6.5-17.666,20.708-20.864,40.875-21,18.625-.125,28.079-.343,44.458-.666,21.083-.417,27.336-27.353,53.167-27,30.5.416,46.5.833,61.5.833s81.812-3.171,81-70.833c-.667-55.5-40.507-66.977-88-66.167-29.334.5-63.25,1.333-85.75,1.333s-43-3.5-50.75,18-30,86.75-37.5,108.5-16.5,40-41.25,32-142.069-49.818-173.584-61.333c-17.333-6.333-33.666-7.333-43.333,21.333s-29.5,82.334-33.833,94.5-20.834,24.334-45.334,15.667-69.666-25-81.833-29.167-12.833,4-3.167,8,74,27.5,86.167,31.667,29,13.333,20.667,36S91.667,373.206,85.167,390.372s-14.5,44,14.667,43.334,55.167-2,74.5-3.334,34.333-4.666,43.667-26.166,22.833-50.5,30.166-68,16.5-26.334,36.334-19,39.833,15,54.333,20.5,28.333,5.666,35.167-12.834S385.167,290.456,392.751,270.247Z"/><use id="eb734322-f31a-4a1e-944d-095436f53ece" data-name="Start-Finish-Line" width="200" height="103.617" transform="translate(409.694 286.855) rotate(-159.807) scale(0.217)" xlink:href="#aad81138-41fd-4916-9fa3-a194e03893ff"/></g></g></g></svg>