<svg xmlns="http://www.w3.org/2000/svg" xmlns:xlink="http://www.w3.org/1999/xlink" width="431.293" height="998.045" viewBox="0 0 431.293 998.045"><defs><style>.\34 af56a1b-da65-4f53-a92f-d3b3cea5a4a9{fill:#00ff24;}.\34 af56a1b-da65-4f53-a92f-d3b3cea5a4a9,.d2b082f4-af31-422a-b23c-73c6f4ca7414{stroke:#000;stroke-width:5px;}.\31 b53ad78-7751-488b-8ddc-9dc1b3e0b11a,.\34 af56a1b-da65-4f53-a92f-d3b3cea5a4a9,.a00c4f73-c213-4008-af78-4570dced7423,.c2a48d82-3d7e-4dab-ad2e-4844bb1d714d,.d2b082f4-af31-422a-b23c-73c6f4ca7414{stroke-miterlimit:10;}.d2b082f4-af31-422a-b23c-73c6f4ca7414{fill:#fff;}.\31 b53ad78-7751-488b-8ddc-9dc1b3e0b11a,.a00c4f73-c213-4008-af78-4570dced7423,.c2a48d82-3d7e-4dab-ad2e-4844bb1d714d{fill:none;}.a00c4f73-c213-4008-af78-4570dced7423,.c2a48d82-3d7e-4dab-ad2e-4844bb1d714d{stroke:#0080ff;}.c2a48d82-3d7e-4dab-ad2e-4844bb1d714d{stroke-width:20px;}.\31 b53ad78-7751-488b-8ddc-9dc1b3e0b11a{stroke:#fff;stroke-width:12px;}.a00c4f73-c213-4008-af78-4570dced7423{stroke-width:2px;}</style><symbol id="e1ff764a-ffe6-4c05-86b3-578ea5e375c7" data-name="fd103434-89f2-4089-acf9-54fed79ed404" viewBox="0 0 200 103.617"><rect class="4af56a1b-da65-4f53-a92f-d3b3cea5a4a9" x="2.5" y="54.074" width="195" height="47.043"/><rect class="d2b082f4-af31-422a-b23c-73c6f4ca7414" x="2.5" y="2.5" width="48.75" height="48.75"/><rect class="d2b082f4-af31-422a-b23c-73c6f4ca7414" x="51.25" y="2.5" width="48.75" height="48.75"/><rect class="d2b082f4-af31-422a-b23c-73c6f4ca7414" x="100" y="2.5" width="48.75" height="48.75"/><rect class="d2b082f4-af31-422a-b23c-73c6f4ca7414" x="148.75" y="2.5" width="48.75" height="48.75"/></symbol></defs><title>La_Mesa_Locodrome</title><g id="1d740815-9907-4bdc-88a4-8a7040a6205d" data-name="Layer 2"><g id="13e8e3e6-ec8c-4bff-8d8a-ecbaf7e05569" data-name="City - Downtown"><g id="5729083f-8168-424b-9cfb-54f1bee55cb2" data-name="La_Mesa_Locodrome"><path id="a3ffdfd5-f753-45e1-8cec-45fc1e23fe7b" data-name="Track Outer" class="c2a48d82-3d7e-4dab-ad2e-4844bb1d714d" d="M255.538,158.417c.481-33.164.25-105.584.417-123.25s4.745-24.684,28.5-24.75c30-.084,37.833-.417,52.333-.417s22.873,8,22.667,27.333c-.167,15.667-5.25,19.084-15,27.334s-66.6,54.494-83.25,67.5c-16,12.5-16.75,30.5-16.75,40.25,0,24-.5,51.75-.25,71.75s-35.25,37.25-35.5,67.5-.5,69-.25,84,.25,27.5,14.5,42.5,16.25,21,17.5,37.5c1.19,15.713,3.129,53.5,3.5,67.25.5,18.5-4,27-8,36.5s-12.5,27.5,7.5,45,35.25,31,45,40.25a51.933,51.933,0,0,1,16.25,40.75c-.75,17.75-5.222,30.414-19.5,34.25-16.75,4.5-30,7.25-34.5,12s-15.75,16.5-1,27.25,28,20,46.75,24.25,68.5,9.75,89.75,11.25,38.534,5.813,34.5,25.25c-5.5,26.5-9.235,41.688-36.75,48.25-32.5,7.75-56,11-75.5,15.5s-25,6.25-32,16-15,21.75-26.5,27.75-30.084,19.183-38.75-2c-6.75-16.5-15.75-32-23-38s-14.5-5-21.75,2.75-52,52-64,63.25-27.75,20.75-41,10.5-29.5-25.25-41.25-34.25-15.25-25.25-.25-43,42-49.25,59.5-69.75,66-78.25,80.25-96,65.75-77.667,81.75-97.5,26.167-38,24.5-75-11.412-65.67,13.5-89.75c21.242-20.533,33.481-41.133,48.75-41.75,24.75-1,26.6,9.719,33.75,32.5,6.75,21.5,9.741,32.1.5,44.75-14.25,19.5-28.25,40-38.75,54s-11.572,27.521-7.25,42c10,33.5,13.75,45.75,21.5,70.5S364.788,717.833,386.788,710c21.948-7.815,20.167-34.583,14.667-53.083s-13.208-47.691-17.5-63.25c-5.333-19.334-19.667-16.917-26.333-40.334-6.941-24.379-44.646-50.047-55.167-61.833-12.125-13.583-28.667-28.833-29-45.333s12.077-23.987,22.833-28c11.167-4.167,23.212-18.332,23.667-34.5.667-23.667-.333-66.5-.333-87.667s-15.5-41.5-30-59c-14.251-17.2-34-31-34.167-49.333C255.288,169.667,255.455,164.167,255.538,158.417Z"/><path id="c5d0f446-501a-4c93-bb94-36727fafba1c" data-name="Track Middle" class="1b53ad78-7751-488b-8ddc-9dc1b3e0b11a" d="M255.538,158.417c.481-33.164.25-105.584.417-123.25s4.745-24.684,28.5-24.75c30-.084,37.833-.417,52.333-.417s22.873,8,22.667,27.333c-.167,15.667-5.25,19.084-15,27.334s-66.6,54.494-83.25,67.5c-16,12.5-16.75,30.5-16.75,40.25,0,24-.5,51.75-.25,71.75s-35.25,37.25-35.5,67.5-.5,69-.25,84,.25,27.5,14.5,42.5,16.25,21,17.5,37.5c1.19,15.713,3.129,53.5,3.5,67.25.5,18.5-4,27-8,36.5s-12.5,27.5,7.5,45,35.25,31,45,40.25a51.933,51.933,0,0,1,16.25,40.75c-.75,17.75-5.222,30.414-19.5,34.25-16.75,4.5-30,7.25-34.5,12s-15.75,16.5-1,27.25,28,20,46.75,24.25,68.5,9.75,89.75,11.25,38.534,5.813,34.5,25.25c-5.5,26.5-9.235,41.688-36.75,48.25-32.5,7.75-56,11-75.5,15.5s-25,6.25-32,16-15,21.75-26.5,27.75-30.084,19.183-38.75-2c-6.75-16.5-15.75-32-23-38s-14.5-5-21.75,2.75-52,52-64,63.25-27.75,20.75-41,10.5-29.5-25.25-41.25-34.25-15.25-25.25-.25-43,42-49.25,59.5-69.75,66-78.25,80.25-96,65.75-77.667,81.75-97.5,26.167-38,24.5-75-11.412-65.67,13.5-89.75c21.242-20.533,33.481-41.133,48.75-41.75,24.75-1,26.6,9.719,33.75,32.5,6.75,21.5,9.741,32.1.5,44.75-14.25,19.5-28.25,40-38.75,54s-11.572,27.521-7.25,42c10,33.5,13.75,45.75,21.5,70.5S364.788,717.833,386.788,710c21.948-7.815,20.167-34.583,14.667-53.083s-13.208-47.691-17.5-63.25c-5.333-19.334-19.667-16.917-26.333-40.334-6.941-24.379-44.646-50.047-55.167-61.833-12.125-13.583-28.667-28.833-29-45.333s12.077-23.987,22.833-28c11.167-4.167,23.212-18.332,23.667-34.5.667-23.667-.333-66.5-.333-87.667s-15.5-41.5-30-59c-14.251-17.2-34-31-34.167-49.333C255.288,169.667,255.455,164.167,255.538,158.417Z"/><path id="d34bc17b-9fff-4e6a-a2d1-a4f741263920" data-name="Track Inner" class="a00c4f73-c213-4008-af78-4570dced7423" d="M255.538,158.417c.481-33.164.25-105.584.417-123.25s4.745-24.684,28.5-24.75c30-.084,37.833-.417,52.333-.417s22.873,8,22.667,27.333c-.167,15.667-5.25,19.084-15,27.334s-66.6,54.494-83.25,67.5c-16,12.5-16.75,30.5-16.75,40.25,0,24-.5,51.75-.25,71.75s-35.25,37.25-35.5,67.5-.5,69-.25,84,.25,27.5,14.5,42.5,16.25,21,17.5,37.5c1.19,15.713,3.129,53.5,3.5,67.25.5,18.5-4,27-8,36.5s-12.5,27.5,7.5,45,35.25,31,45,40.25a51.933,51.933,0,0,1,16.25,40.75c-.75,17.75-5.222,30.414-19.5,34.25-16.75,4.5-30,7.25-34.5,12s-15.75,16.5-1,27.25,28,20,46.75,24.25,68.5,9.75,89.75,11.25,38.534,5.813,34.5,25.25c-5.5,26.5-9.235,41.688-36.75,48.25-32.5,7.75-56,11-75.5,15.5s-25,6.25-32,16-15,21.75-26.5,27.75-30.084,19.183-38.75-2c-6.75-16.5-15.75-32-23-38s-14.5-5-21.75,2.75-52,52-64,63.25-27.75,20.75-41,10.5-29.5-25.25-41.25-34.25-15.25-25.25-.25-43,42-49.25,59.5-69.75,66-78.25,80.25-96,65.75-77.667,81.75-97.5,26.167-38,24.5-75-11.412-65.67,13.5-89.75c21.242-20.533,33.481-41.133,48.75-41.75,24.75-1,26.6,9.719,33.75,32.5,6.75,21.5,9.741,32.1.5,44.75-14.25,19.5-28.25,40-38.75,54s-11.572,27.521-7.25,42c10,33.5,13.75,45.75,21.5,70.5S364.788,717.833,386.788,710c21.948-7.815,20.167-34.583,14.667-53.083s-13.208-47.691-17.5-63.25c-5.333-19.334-19.667-16.917-26.333-40.334-6.941-24.379-44.646-50.047-55.167-61.833-12.125-13.583-28.667-28.833-29-45.333s12.077-23.987,22.833-28c11.167-4.167,23.212-18.332,23.667-34.5.667-23.667-.333-66.5-.333-87.667s-15.5-41.5-30-59c-14.251-17.2-34-31-34.167-49.333C255.288,169.667,255.455,164.167,255.538,158.417Z"/><use id="9ec59254-8f35-407e-9f70-72d6e20b5f75" data-name="Start-Finish-Line" width="200" height="103.617" transform="translate(277.14 167.194) rotate(-179.342) scale(0.217)" xlink:href="#e1ff764a-ffe6-4c05-86b3-578ea5e375c7"/><g id="d759e9e0-16ad-4902-a685-f6bbc03b51a7" data-name="Crossover 3"><path id="739aae71-63e6-4521-a571-71b9460c1834" data-name="Crossover Outer" class="c2a48d82-3d7e-4dab-ad2e-4844bb1d714d" d="M279.466,478.417c21.241-20.533,33.48-41.133,48.75-41.75,24.75-1,26.6,9.719,33.75,32.5,6.75,21.5,9.741,32.1.5,44.75-14.25,19.5-28.25,40-38.75,54"/><path id="cb29b24f-71e1-47a8-b169-2823a5212553" data-name="Crossover Middle" class="1b53ad78-7751-488b-8ddc-9dc1b3e0b11a" d="M279.466,478.417c21.241-20.533,33.48-41.133,48.75-41.75,24.75-1,26.6,9.719,33.75,32.5,6.75,21.5,9.741,32.1.5,44.75-14.25,19.5-28.25,40-38.75,54"/><path id="c5105296-b2a4-4b2f-87bf-e633c5200a9f" data-name="Crossover Inner" class="a00c4f73-c213-4008-af78-4570dced7423" d="M279.466,478.417c21.241-20.533,33.48-41.133,48.75-41.75,24.75-1,26.6,9.719,33.75,32.5,6.75,21.5,9.741,32.1.5,44.75-14.25,19.5-28.25,40-38.75,54"/></g><g id="8ac56096-0e6f-4fe7-909a-8426b2f1281e" data-name="Crossover 2"><path id="d04c399e-c4b4-4f7e-924d-5d118585e01f" data-name="Crossover Outer" class="c2a48d82-3d7e-4dab-ad2e-4844bb1d714d" d="M235.966,579.417c-4,9.5-12.5,27.5,7.5,45s35.25,31,45,40.25"/><path id="b8f2a4e8-2711-4426-8a1d-85b3f85899da" data-name="Crossover Middle" class="1b53ad78-7751-488b-8ddc-9dc1b3e0b11a" d="M235.966,579.417c-4,9.5-12.5,27.5,7.5,45s35.25,31,45,40.25"/><path id="d5d273f8-73b9-40b1-9d3b-2479dd5aaaab" data-name="Crossover Inner" class="a00c4f73-c213-4008-af78-4570dced7423" d="M235.966,579.417c-4,9.5-12.5,27.5,7.5,45s35.25,31,45,40.25"/></g><g id="6cd24381-25d5-42b2-9777-81e91e9ef92f" data-name="Crossover 1"><path id="d923ae96-9248-40f2-b8fe-715b6bb4b7f2" data-name="Crossover Outer" class="c2a48d82-3d7e-4dab-ad2e-4844bb1d714d" d="M344.466,64.635c-9.75,8.25-66.6,54.494-83.25,67.5-16,12.5-16.75,30.5-16.75,40.25,0,24-.5,51.75-.25,71.75"/><path id="6dc7fb3d-e9b5-41c3-92e6-1e3c483f4b80" data-name="Crossover Middle" class="1b53ad78-7751-488b-8ddc-9dc1b3e0b11a" d="M344.466,64.635c-9.75,8.25-66.6,54.494-83.25,67.5-16,12.5-16.75,30.5-16.75,40.25,0,24-.5,51.75-.25,71.75"/><path id="b9180592-18fd-48a1-8b5b-a9d0a7bceaf7" data-name="Crossover Inner" class="a00c4f73-c213-4008-af78-4570dced7423" d="M344.466,64.635c-9.75,8.25-66.6,54.494-83.25,67.5-16,12.5-16.75,30.5-16.75,40.25,0,24-.5,51.75-.25,71.75"/></g></g></g></g></svg>