<svg xmlns="http://www.w3.org/2000/svg" xmlns:xlink="http://www.w3.org/1999/xlink" width="1124.698" height="1036.125" viewBox="0 0 1124.698 1036.125"><defs><style>.b31b3585-fe22-42b9-89e7-496d8f131238{fill:#00ff24;}.\33 a9007b2-b27b-4ea0-85c6-6fcf6d135429,.b31b3585-fe22-42b9-89e7-496d8f131238{stroke:#000;stroke-width:5px;}.\33 a9007b2-b27b-4ea0-85c6-6fcf6d135429,.\34 17f717f-458a-4818-b80b-9cf67a3d4d52,.\36 bd1fc93-454c-4896-9893-36abb3b3bc72,.\37 e0e6f62-8f69-44d4-b89b-34487aea5ac2,.\38 4e310a7-2748-40ef-9ff5-bf19d796e077,.b31b3585-fe22-42b9-89e7-496d8f131238,.fbd5f980-eb63-4b33-b6ac-7ec803ad0487{stroke-miterlimit:10;}.\33 a9007b2-b27b-4ea0-85c6-6fcf6d135429{fill:#fff;}.\34 17f717f-458a-4818-b80b-9cf67a3d4d52,.\36 bd1fc93-454c-4896-9893-36abb3b3bc72,.\37 e0e6f62-8f69-44d4-b89b-34487aea5ac2,.\38 4e310a7-2748-40ef-9ff5-bf19d796e077,.fbd5f980-eb63-4b33-b6ac-7ec803ad0487{fill:none;}.\37 e0e6f62-8f69-44d4-b89b-34487aea5ac2,.fbd5f980-eb63-4b33-b6ac-7ec803ad0487{stroke:#c91c1c;}.\34 17f717f-458a-4818-b80b-9cf67a3d4d52,.fbd5f980-eb63-4b33-b6ac-7ec803ad0487{stroke-width:20px;}.\34 17f717f-458a-4818-b80b-9cf67a3d4d52,.\36 bd1fc93-454c-4896-9893-36abb3b3bc72{stroke:#0080ff;}.\38 4e310a7-2748-40ef-9ff5-bf19d796e077{stroke:#fff;stroke-width:12px;}.\36 bd1fc93-454c-4896-9893-36abb3b3bc72,.\37 e0e6f62-8f69-44d4-b89b-34487aea5ac2{stroke-width:2px;}</style><symbol id="7dfa1f7e-bfa2-447d-bd2e-709f1b05e2d6" data-name="fd103434-89f2-4089-acf9-54fed79ed404" viewBox="0 0 200 103.617"><rect class="b31b3585-fe22-42b9-89e7-496d8f131238" x="2.5" y="54.074" width="195" height="47.043"/><rect class="3a9007b2-b27b-4ea0-85c6-6fcf6d135429" x="2.5" y="2.5" width="48.75" height="48.75"/><rect class="3a9007b2-b27b-4ea0-85c6-6fcf6d135429" x="51.25" y="2.5" width="48.75" height="48.75"/><rect class="3a9007b2-b27b-4ea0-85c6-6fcf6d135429" x="100" y="2.5" width="48.75" height="48.75"/><rect class="3a9007b2-b27b-4ea0-85c6-6fcf6d135429" x="148.75" y="2.5" width="48.75" height="48.75"/></symbol></defs><title>Maze_Bank_Speedway</title><g id="13e46505-f7be-442d-9779-f7805c3cfb1f" data-name="Layer 2"><g id="f47e1027-efa0-4967-8ae1-76321c6ab274" data-name="City - Downtown"><g id="a021c975-e738-42e4-ab12-f9df7d658758" data-name="Maze_Bank_Speedway"><path id="582f9ca4-40b3-4ce0-b1d8-d63b0e76b2ef" data-name="Pitlane Outer" class="fbd5f980-eb63-4b33-b6ac-7ec803ad0487" d="M405.686,723.69c-.25,13.75,5.787,30.668,9.787,44.668,4.014,14.048,10.167,21.333,19.333,25.5s.334,9.5-11.666,12.166-21.167,2.667-31.5,7.334-8.185,3.624-20.852,11.291"/><path id="91148ef4-e039-48b9-84f7-34c4a8632f38" data-name="Track Outer" class="417f717f-458a-4818-b80b-9cf67a3d4d52" d="M368.64,277.149c7.546-21.233,16-44.458,30.666-86.125S439.717,72.3,448.64,46.524c9-26,24.5-35.25,55.25-35.25s121.5.25,160.5.25,140.25-1.75,168.5-1.5,98.75-1.666,134.416,7.667,54.442,16.217,81.167,30c26.5,13.667,45.3,24.433,57.833,32.5,16.834,10.833,8.334,25.583-25.416,18.333-17.284-3.712-33.6-10.025-53.5-15.5-22.417-6.166-50.584-15.5-81.25-20.166s-37.834-5.834-71.334-7.334-57.416-.75-83.916-1-37.25,3-43.75,20-32.5,78.25-37.75,94.5-26.25,71.5-34.5,93-17,42-46.75,30.5-40.75-15.75-61.25-23-37.5-5-45.5,17.5-33,93-39.25,110-5.043,25.864,18.75,34.75c20.75,7.75,43.5,15.75,64,23s34,19.25,24.75,41.25-14.75,34.25-24,53.25-22.467,41.168-45.5,42c-20.75.75-51.5,1.75-69.834,1.917s-43.5,2.167-43.666,26.333.083,107.5-2.334,133c-2.245,23.692-7.68,56.608-31.666,71-20,12-56.625,39-69.625,42s-19,3.75-28.375,3.5-28.334-15.5-52.834-15.666c-12.016-.082-28.67.469-42.166.833-17,.458-18.25,20.292-18.334,26.833-.166,13-.5,25.334-3.333,35s-12.292,40.625-19.458,57.625-11.75,24.125-19.5,33.125c-5.874,6.821-18.027,24.314-30.25,18-11.375-5.875-4.309-29.135.875-40.5,6.5-14.25,11.833-24.416,8.166-47.416s-9.5-29.167-10-48.167-.166-35-19.5-46.167-35.347-22.022-39.666-39c-7.167-28.166,4.9-44.306,12.5-62,8.666-20.166,24.5-54,22.166-73s-8.395-27.788-16.791-35.75c-8.438-8-15.322-10.684-24.542-15.083-18.167-8.667-11.895-35.083-5.583-52,4.166-11.167,20.583-19.25,45.583-9a586.664,586.664,0,0,0,89.167,28.333c32.75,7.5,63.5,12.127,77.5,11.75,21.666-.583,28.418-17.118,39.25-47,14.5-40,42.75-116.25,52.25-143S359.473,302.941,368.64,277.149Z"/><path id="0f93147f-5e05-4d64-8f38-2a2962f2be69" data-name="Track Middle" class="84e310a7-2748-40ef-9ff5-bf19d796e077" d="M368.64,277.149c7.546-21.233,16-44.458,30.666-86.125S439.717,72.3,448.64,46.524c9-26,24.5-35.25,55.25-35.25s121.5.25,160.5.25,140.25-1.75,168.5-1.5,98.75-1.666,134.416,7.667,54.442,16.217,81.167,30c26.5,13.667,45.3,24.433,57.833,32.5,16.834,10.833,8.334,25.583-25.416,18.333-17.284-3.712-33.6-10.025-53.5-15.5-22.417-6.166-50.584-15.5-81.25-20.166s-37.834-5.834-71.334-7.334-57.416-.75-83.916-1-37.25,3-43.75,20-32.5,78.25-37.75,94.5-26.25,71.5-34.5,93-17,42-46.75,30.5-40.75-15.75-61.25-23-37.5-5-45.5,17.5-33,93-39.25,110-5.043,25.864,18.75,34.75c20.75,7.75,43.5,15.75,64,23s34,19.25,24.75,41.25-14.75,34.25-24,53.25-22.467,41.168-45.5,42c-20.75.75-51.5,1.75-69.834,1.917s-43.5,2.167-43.666,26.333.083,107.5-2.334,133c-2.245,23.692-7.68,56.608-31.666,71-20,12-56.625,39-69.625,42s-19,3.75-28.375,3.5-28.334-15.5-52.834-15.666c-12.016-.082-28.67.469-42.166.833-17,.458-18.25,20.292-18.334,26.833-.166,13-.5,25.334-3.333,35s-12.292,40.625-19.458,57.625-11.75,24.125-19.5,33.125c-5.874,6.821-18.027,24.314-30.25,18-11.375-5.875-4.309-29.135.875-40.5,6.5-14.25,11.833-24.416,8.166-47.416s-9.5-29.167-10-48.167-.166-35-19.5-46.167-35.347-22.022-39.666-39c-7.167-28.166,4.9-44.306,12.5-62,8.666-20.166,24.5-54,22.166-73s-8.395-27.788-16.791-35.75c-8.438-8-15.322-10.684-24.542-15.083-18.167-8.667-11.895-35.083-5.583-52,4.166-11.167,20.583-19.25,45.583-9a586.664,586.664,0,0,0,89.167,28.333c32.75,7.5,63.5,12.127,77.5,11.75,21.666-.583,28.418-17.118,39.25-47,14.5-40,42.75-116.25,52.25-143S359.473,302.941,368.64,277.149Z"/><path id="59aade46-4eea-4db7-9c22-7e7a2de2f5bf" data-name="Pitlane Middle" class="84e310a7-2748-40ef-9ff5-bf19d796e077" d="M405.686,723.69c-.25,13.75,5.787,30.668,9.787,44.668,4.014,14.048,10.167,21.333,19.333,25.5s.334,9.5-11.666,12.166-21.167,2.667-31.5,7.334-8.185,3.624-20.852,11.291"/><path id="03c9a886-eb37-4995-a638-4875f93c9d1a" data-name="Pitlane Inner" class="7e0e6f62-8f69-44d4-b89b-34487aea5ac2" d="M405.686,723.69c-.25,13.75,5.787,30.668,9.787,44.668,4.014,14.048,10.167,21.333,19.333,25.5s.334,9.5-11.666,12.166-21.167,2.667-31.5,7.334-8.185,3.624-20.852,11.291"/><path id="2a269612-c7ca-4472-a794-0333b3754831" data-name="Track Inner" class="6bd1fc93-454c-4896-9893-36abb3b3bc72" d="M368.64,277.149c7.546-21.233,16-44.458,30.666-86.125S439.717,72.3,448.64,46.524c9-26,24.5-35.25,55.25-35.25s121.5.25,160.5.25,140.25-1.75,168.5-1.5,98.75-1.666,134.416,7.667,54.442,16.217,81.167,30c26.5,13.667,45.3,24.433,57.833,32.5,16.834,10.833,8.334,25.583-25.416,18.333-17.284-3.712-33.6-10.025-53.5-15.5-22.417-6.166-50.584-15.5-81.25-20.166s-37.834-5.834-71.334-7.334-57.416-.75-83.916-1-37.25,3-43.75,20-32.5,78.25-37.75,94.5-26.25,71.5-34.5,93-17,42-46.75,30.5-40.75-15.75-61.25-23-37.5-5-45.5,17.5-33,93-39.25,110-5.043,25.864,18.75,34.75c20.75,7.75,43.5,15.75,64,23s34,19.25,24.75,41.25-14.75,34.25-24,53.25-22.467,41.168-45.5,42c-20.75.75-51.5,1.75-69.834,1.917s-43.5,2.167-43.666,26.333.083,107.5-2.334,133c-2.245,23.692-7.68,56.608-31.666,71-20,12-56.625,39-69.625,42s-19,3.75-28.375,3.5-28.334-15.5-52.834-15.666c-12.016-.082-28.67.469-42.166.833-17,.458-18.25,20.292-18.334,26.833-.166,13-.5,25.334-3.333,35s-12.292,40.625-19.458,57.625-11.75,24.125-19.5,33.125c-5.874,6.821-18.027,24.314-30.25,18-11.375-5.875-4.309-29.135.875-40.5,6.5-14.25,11.833-24.416,8.166-47.416s-9.5-29.167-10-48.167-.166-35-19.5-46.167-35.347-22.022-39.666-39c-7.167-28.166,4.9-44.306,12.5-62,8.666-20.166,24.5-54,22.166-73s-8.395-27.788-16.791-35.75c-8.438-8-15.322-10.684-24.542-15.083-18.167-8.667-11.895-35.083-5.583-52,4.166-11.167,20.583-19.25,45.583-9a586.664,586.664,0,0,0,89.167,28.333c32.75,7.5,63.5,12.127,77.5,11.75,21.666-.583,28.418-17.118,39.25-47,14.5-40,42.75-116.25,52.25-143S359.473,302.941,368.64,277.149Z"/><use id="87139457-d3a9-438e-9d3c-f20e087bebcc" data-name="Start-Finish-Line" width="200" height="103.617" transform="matrix(-0.204, -0.072, 0.072, -0.204, 385.249, 294.609)" xlink:href="#7dfa1f7e-bfa2-447d-bd2e-709f1b05e2d6"/></g></g></g></svg>