<svg xmlns="http://www.w3.org/2000/svg" xmlns:xlink="http://www.w3.org/1999/xlink" width="723.44" height="838.548" viewBox="0 0 723.44 838.548"><defs><style>.\30 88897e6-29bc-46bb-9c1f-d6ad5b3d5129{fill:#00ff24;}.\30 88897e6-29bc-46bb-9c1f-d6ad5b3d5129,.bfdcbb8f-4b6b-46dd-9ea9-b35e3c6516d3{stroke:#000;stroke-width:5px;}.\30 88897e6-29bc-46bb-9c1f-d6ad5b3d5129,.\34 df04157-96b7-4ee6-a95e-a718db1b9a03,.\35 9c4631e-75f5-48c7-a7e7-22815a9a7d4b,.bfdcbb8f-4b6b-46dd-9ea9-b35e3c6516d3,.e36adab2-2817-4e26-b918-7163cd354803{stroke-miterlimit:10;}.bfdcbb8f-4b6b-46dd-9ea9-b35e3c6516d3{fill:#fff;}.\34 df04157-96b7-4ee6-a95e-a718db1b9a03,.\35 9c4631e-75f5-48c7-a7e7-22815a9a7d4b,.e36adab2-2817-4e26-b918-7163cd354803{fill:none;}.\34 df04157-96b7-4ee6-a95e-a718db1b9a03,.e36adab2-2817-4e26-b918-7163cd354803{stroke:#0080ff;}.\34 df04157-96b7-4ee6-a95e-a718db1b9a03{stroke-width:20px;}.\35 9c4631e-75f5-48c7-a7e7-22815a9a7d4b{stroke:#fff;stroke-width:12px;}.e36adab2-2817-4e26-b918-7163cd354803{stroke-width:2px;}</style><symbol id="5c95dae9-9546-441d-8d68-5c69a652ed9b" data-name="fd103434-89f2-4089-acf9-54fed79ed404" viewBox="0 0 200 103.617"><rect class="088897e6-29bc-46bb-9c1f-d6ad5b3d5129" x="2.5" y="54.074" width="195" height="47.043"/><rect class="bfdcbb8f-4b6b-46dd-9ea9-b35e3c6516d3" x="2.5" y="2.5" width="48.75" height="48.75"/><rect class="bfdcbb8f-4b6b-46dd-9ea9-b35e3c6516d3" x="51.25" y="2.5" width="48.75" height="48.75"/><rect class="bfdcbb8f-4b6b-46dd-9ea9-b35e3c6516d3" x="100" y="2.5" width="48.75" height="48.75"/><rect class="bfdcbb8f-4b6b-46dd-9ea9-b35e3c6516d3" x="148.75" y="2.5" width="48.75" height="48.75"/></symbol></defs><title>MIKE_Hydra</title><g id="0f39a942-a338-463f-8295-7caf24bf35bd" data-name="Layer 2"><g id="a4fe4922-b44c-4eb7-8a9c-e651d30cd6b4" data-name="City - Downtown"><g id="aade025e-7e6c-4c7f-8136-391458692ee0" data-name="MIKE_Hydra"><path id="0bd2415d-54bd-421f-8f4e-b26f11e3f9a7" data-name="Track Outer" class="4df04157-96b7-4ee6-a95e-a718db1b9a03" d="M23.927,501.881c.087,20.125.75,70.667.75,90.167s21.915,37.551,25.667,58c3.333,18.166,2.492,39.5,2.166,60.333-.333,21.333-2.44,49.118,8.334,73.167,9.333,20.833,29,34.333,46.833,38.833s35.833,4.167,53.333,4.833,65,1.334,87.334,1.334,42.166-8.834,61.666-10.667,68.167-4.167,83.5-5.833,23.667-2.167,40.334-4.5,21.333-30,45.5-30.5,57-.667,79.666-.834,33.834-13.333,34.167-31.666,1.833-32.167,9.5-51.834,35.25-97.083,45.75-125.833,45.75-131.167,58.75-169.833,6.379-45.252-25.667-58c-30.583-12.167-40.833-17.667-57.083-25.917a527.32,527.32,0,0,0-60-25.5c-24.25-8.75-68.352-24.7-89.75-31.5-32.25-10.25-53.483-12-100.5-12-29.75,0-25.25-20.5-17-45.25s26.167-76.333,31.833-99.333,24-62.5,31-76.834,16.417-16.333,39.917-7.083,47,17.25,68.75,25.25,42,15.25,31,43S536.361,147.5,529.51,168.048c-22,66-129.666,365-139.666,391.666s-23.6,46.117-61.667,32.667c-50-17.667-96.11-30.135-74.333-92,14.666-41.667,18.333-52,24-67.333s29.666-24.334,54.666-15,94.667,27,85.334,55.333-24.667,70.25-32.667,92.25S329.51,719.048,321.51,740.714s-3.666,44,29.5,43.167,41.834-1.833,60.5-2.833,36.667-7.667,51.334-42,29-84.667,41.333-119,40.667-110.334,57.667-154,37.666-86,47-111.334,12.333-41.333-17.334-52.333-96.666-35.782-116.083-43.25c-32.5-12.5-59-61.133-105.5-60.5-30.583.417-45.75.517-60.583.417-24.667-.167-51.9,38.448-75.5,43-21.167,4.083-59,5.333-79.167,5.333s-52-1.833-72.167,15.167-25.5,31-26.666,53-1.834,40-3.334,57c-1.373,15.568-3.176,27.813-4.5,40.166-1.5,14-23.881,23.83-24.166,47.834C23.677,474.548,23.844,482.714,23.927,501.881Z"/><path id="8878fe26-70e0-423c-9bd5-09da1f4e5093" data-name="Track Middle" class="59c4631e-75f5-48c7-a7e7-22815a9a7d4b" d="M23.927,501.881c.087,20.125.75,70.667.75,90.167s21.915,37.551,25.667,58c3.333,18.166,2.492,39.5,2.166,60.333-.333,21.333-2.44,49.118,8.334,73.167,9.333,20.833,29,34.333,46.833,38.833s35.833,4.167,53.333,4.833,65,1.334,87.334,1.334,42.166-8.834,61.666-10.667,68.167-4.167,83.5-5.833,23.667-2.167,40.334-4.5,21.333-30,45.5-30.5,57-.667,79.666-.834,33.834-13.333,34.167-31.666,1.833-32.167,9.5-51.834,35.25-97.083,45.75-125.833,45.75-131.167,58.75-169.833,6.379-45.252-25.667-58c-30.583-12.167-40.833-17.667-57.083-25.917a527.32,527.32,0,0,0-60-25.5c-24.25-8.75-68.352-24.7-89.75-31.5-32.25-10.25-53.483-12-100.5-12-29.75,0-25.25-20.5-17-45.25s26.167-76.333,31.833-99.333,24-62.5,31-76.834,16.417-16.333,39.917-7.083,47,17.25,68.75,25.25,42,15.25,31,43S536.361,147.5,529.51,168.048c-22,66-129.666,365-139.666,391.666s-23.6,46.117-61.667,32.667c-50-17.667-96.11-30.135-74.333-92,14.666-41.667,18.333-52,24-67.333s29.666-24.334,54.666-15,94.667,27,85.334,55.333-24.667,70.25-32.667,92.25S329.51,719.048,321.51,740.714s-3.666,44,29.5,43.167,41.834-1.833,60.5-2.833,36.667-7.667,51.334-42,29-84.667,41.333-119,40.667-110.334,57.667-154,37.666-86,47-111.334,12.333-41.333-17.334-52.333-96.666-35.782-116.083-43.25c-32.5-12.5-59-61.133-105.5-60.5-30.583.417-45.75.517-60.583.417-24.667-.167-51.9,38.448-75.5,43-21.167,4.083-59,5.333-79.167,5.333s-52-1.833-72.167,15.167-25.5,31-26.666,53-1.834,40-3.334,57c-1.373,15.568-3.176,27.813-4.5,40.166-1.5,14-23.881,23.83-24.166,47.834C23.677,474.548,23.844,482.714,23.927,501.881Z"/><path id="f2388d14-a42f-47ca-a9d0-8fec4965790d" data-name="Track Inner" class="e36adab2-2817-4e26-b918-7163cd354803" d="M23.927,501.881c.087,20.125.75,70.667.75,90.167s21.915,37.551,25.667,58c3.333,18.166,2.492,39.5,2.166,60.333-.333,21.333-2.44,49.118,8.334,73.167,9.333,20.833,29,34.333,46.833,38.833s35.833,4.167,53.333,4.833,65,1.334,87.334,1.334,42.166-8.834,61.666-10.667,68.167-4.167,83.5-5.833,23.667-2.167,40.334-4.5,21.333-30,45.5-30.5,57-.667,79.666-.834,33.834-13.333,34.167-31.666,1.833-32.167,9.5-51.834,35.25-97.083,45.75-125.833,45.75-131.167,58.75-169.833,6.379-45.252-25.667-58c-30.583-12.167-40.833-17.667-57.083-25.917a527.32,527.32,0,0,0-60-25.5c-24.25-8.75-68.352-24.7-89.75-31.5-32.25-10.25-53.483-12-100.5-12-29.75,0-25.25-20.5-17-45.25s26.167-76.333,31.833-99.333,24-62.5,31-76.834,16.417-16.333,39.917-7.083,47,17.25,68.75,25.25,42,15.25,31,43S536.361,147.5,529.51,168.048c-22,66-129.666,365-139.666,391.666s-23.6,46.117-61.667,32.667c-50-17.667-96.11-30.135-74.333-92,14.666-41.667,18.333-52,24-67.333s29.666-24.334,54.666-15,94.667,27,85.334,55.333-24.667,70.25-32.667,92.25S329.51,719.048,321.51,740.714s-3.666,44,29.5,43.167,41.834-1.833,60.5-2.833,36.667-7.667,51.334-42,29-84.667,41.333-119,40.667-110.334,57.667-154,37.666-86,47-111.334,12.333-41.333-17.334-52.333-96.666-35.782-116.083-43.25c-32.5-12.5-59-61.133-105.5-60.5-30.583.417-45.75.517-60.583.417-24.667-.167-51.9,38.448-75.5,43-21.167,4.083-59,5.333-79.167,5.333s-52-1.833-72.167,15.167-25.5,31-26.666,53-1.834,40-3.334,57c-1.373,15.568-3.176,27.813-4.5,40.166-1.5,14-23.881,23.83-24.166,47.834C23.677,474.548,23.844,482.714,23.927,501.881Z"/><g id="1f812faf-8788-412e-9369-1eaabc919565" data-name="Crossover"><path id="0a0a4f53-09b0-4827-bf9a-1e0bf4d84875" data-name="Crossover Outer" class="4df04157-96b7-4ee6-a95e-a718db1b9a03" d="M608.885,354.735c9.334-25.333,12.334-41.333-17.333-52.333s-96.666-35.782-116.083-43.25c-21.084-8.109-39.643-31.426-62.775-46.633"/><path id="47d4ac27-0f29-42f4-97c9-e1a5aa87d3f2" data-name="Crossover Middle" class="59c4631e-75f5-48c7-a7e7-22815a9a7d4b" d="M608.885,354.735c9.334-25.333,12.334-41.333-17.333-52.333s-96.666-35.782-116.083-43.25c-21.084-8.109-39.643-31.426-62.775-46.633"/><path id="49e26c3f-0c5c-4a43-89ac-842b86845051" data-name="Crossover Inner" class="e36adab2-2817-4e26-b918-7163cd354803" d="M608.885,354.735c9.334-25.333,12.334-41.333-17.333-52.333s-96.666-35.782-116.083-43.25c-21.084-8.109-39.643-31.426-62.775-46.633"/></g><g id="d462843c-36ac-42f0-b8c0-40d15f161415" data-name="Crossover"><path id="56100544-845c-4a87-a23e-8ec47d6499f8" data-name="Crossover Outer" class="4df04157-96b7-4ee6-a95e-a718db1b9a03" d="M332.552,418.069c25,9.333,94.667,27,85.333,55.333s-24.666,70.25-32.666,92.25-55.667,153.417-63.667,175.083"/><path id="74abf011-9f73-4740-949a-9984a360aab1" data-name="Crossover Middle" class="59c4631e-75f5-48c7-a7e7-22815a9a7d4b" d="M332.552,418.069c25,9.333,94.667,27,85.333,55.333s-24.666,70.25-32.666,92.25-55.667,153.417-63.667,175.083"/><path id="c775ce3e-5e68-46cd-af49-9bbdf97e4ec4" data-name="Crossover Inner" class="e36adab2-2817-4e26-b918-7163cd354803" d="M332.552,418.069c25,9.333,94.667,27,85.333,55.333s-24.666,70.25-32.666,92.25-55.667,153.417-63.667,175.083"/></g><g id="34904191-edec-4d92-941c-8cda6be50538" data-name="Crossover"><path id="59e1ed58-9250-4586-bbff-b6742af74ba2" data-name="Crossover Outer" class="4df04157-96b7-4ee6-a95e-a718db1b9a03" d="M529.552,168.069c-10.684,32.05-41.569,119.047-71.662,203.121"/><path id="84d06e7f-517b-4d9f-a7a6-cdad50208b0f" data-name="Crossover Middle" class="59c4631e-75f5-48c7-a7e7-22815a9a7d4b" d="M529.552,168.069c-10.684,32.05-41.569,119.047-71.662,203.121"/><path id="48d03a5a-9d6d-42bc-9396-3530a3c61f8d" data-name="Crossover Inner" class="e36adab2-2817-4e26-b918-7163cd354803" d="M529.552,168.069c-10.684,32.05-41.569,119.047-71.662,203.121"/></g><g id="700f92ae-b1e0-4ea3-987d-3ff3d6933d41" data-name="Crossover"><path id="139c1b8f-11fd-45c7-9e95-297d990d2b4b" data-name="Crossover Outer" class="4df04157-96b7-4ee6-a95e-a718db1b9a03" d="M420.052,22.735c7-14.333,16.417-16.333,39.917-7.083s47,17.25,68.75,25.25,42,15.25,31,43"/><path id="15317b36-5a9a-4e26-ae50-c54d936b950c" data-name="Crossover Middle" class="59c4631e-75f5-48c7-a7e7-22815a9a7d4b" d="M420.052,22.735c7-14.333,16.417-16.333,39.917-7.083s47,17.25,68.75,25.25,42,15.25,31,43"/><path id="b4d5399a-dbb1-433c-8996-00d80569c179" data-name="Crossover Inner" class="e36adab2-2817-4e26-b918-7163cd354803" d="M420.052,22.735c7-14.333,16.417-16.333,39.917-7.083s47,17.25,68.75,25.25,42,15.25,31,43"/></g><g id="84c648be-b0c4-4d08-9b18-c514f2bfe583" data-name="Crossover"><path id="cffae3c3-853d-4a69-a2d5-47716725606b" data-name="Crossover Outer" class="4df04157-96b7-4ee6-a95e-a718db1b9a03" d="M374.219,244.152c-29.75,0-25.25-20.5-17-45.25s26.166-76.333,31.833-99.333"/><path id="180415ac-cb31-427c-a714-5469f141737b" data-name="Crossover Middle" class="59c4631e-75f5-48c7-a7e7-22815a9a7d4b" d="M374.219,244.152c-29.75,0-25.25-20.5-17-45.25s26.166-76.333,31.833-99.333"/><path id="bc42a42e-3929-4a88-b2aa-903b318c5bff" data-name="Crossover Inner" class="e36adab2-2817-4e26-b918-7163cd354803" d="M374.219,244.152c-29.75,0-25.25-20.5-17-45.25s26.166-76.333,31.833-99.333"/></g><use id="899bb2ac-1922-4532-a496-806d49075c19" data-name="Start-Finish-Line" width="200" height="103.617" transform="translate(1.968 487.919) rotate(-0.29) scale(0.217)" xlink:href="#5c95dae9-9546-441d-8d68-5c69a652ed9b"/></g></g></g></svg>