<svg xmlns="http://www.w3.org/2000/svg" xmlns:xlink="http://www.w3.org/1999/xlink" width="840.695" height="1003.848" viewBox="0 0 840.695 1003.848"><defs><style>.e6d5b9c4-d19c-4a09-bfd4-b44659ede1e7{fill:#00ff24;}.\30 3823bac-b632-4f73-824a-0a8bab92be86,.e6d5b9c4-d19c-4a09-bfd4-b44659ede1e7{stroke:#000;stroke-width:5px;}.\30 3823bac-b632-4f73-824a-0a8bab92be86,.\30 c6ecd6f-cf79-42c0-adf6-38cc22d60513,.dc7295c1-b524-4624-94a4-798e473c08e4,.e6d5b9c4-d19c-4a09-bfd4-b44659ede1e7,.e71aa514-b9ae-4f00-99c5-daa549e48da5,.f9511803-1b2b-4e18-b84d-42a4ca390ce4{stroke-miterlimit:10;}.\30 3823bac-b632-4f73-824a-0a8bab92be86,.\35 09acc8b-6efa-4cf0-9ffa-a1617ab8c3e7{fill:#fff;}.\30 c6ecd6f-cf79-42c0-adf6-38cc22d60513,.dc7295c1-b524-4624-94a4-798e473c08e4,.e71aa514-b9ae-4f00-99c5-daa549e48da5{fill:none;}.\30 c6ecd6f-cf79-42c0-adf6-38cc22d60513,.dc7295c1-b524-4624-94a4-798e473c08e4{stroke:#007fff;}.dc7295c1-b524-4624-94a4-798e473c08e4{stroke-width:20px;}.e71aa514-b9ae-4f00-99c5-daa549e48da5,.f9511803-1b2b-4e18-b84d-42a4ca390ce4{stroke:#fff;}.e71aa514-b9ae-4f00-99c5-daa549e48da5{stroke-width:10px;}.\30 c6ecd6f-cf79-42c0-adf6-38cc22d60513{stroke-width:2px;}.f9511803-1b2b-4e18-b84d-42a4ca390ce4{fill:#333;stroke-width:1.5px;}</style><symbol id="c2bc08da-6c35-4218-b6a4-9c1e84648fe5" data-name="fd103434-89f2-4089-acf9-54fed79ed404" viewBox="0 0 200 103.617"><rect class="e6d5b9c4-d19c-4a09-bfd4-b44659ede1e7" x="2.5" y="54.074" width="195" height="47.043"/><rect class="03823bac-b632-4f73-824a-0a8bab92be86" x="2.5" y="2.5" width="48.75" height="48.75"/><rect class="03823bac-b632-4f73-824a-0a8bab92be86" x="51.25" y="2.5" width="48.75" height="48.75"/><rect class="03823bac-b632-4f73-824a-0a8bab92be86" x="100" y="2.5" width="48.75" height="48.75"/><rect class="03823bac-b632-4f73-824a-0a8bab92be86" x="148.75" y="2.5" width="48.75" height="48.75"/></symbol></defs><title>MIKE_Frenchie&amp;apos;s_GP</title><g id="9d55b8b0-f5cf-4e02-bc74-9ee64c3f8099" data-name="Layer 2"><g id="355d7f93-50f4-46c2-852e-95f279268dd0" data-name="City-Downtown"><g id="ef59860b-0a18-4d66-94f0-2706903e84e1" data-name="MIKE_Frenchie&apos;s_GP"><g id="94551449-d20d-4eeb-adf0-79a360da90f5" data-name="Track-Outer"><path class="dc7295c1-b524-4624-94a4-798e473c08e4" d="M400.2,503.047c44.222-107.747,66.737-161.454,74-179.667,30.573-76.672,31.534-83.6,40.833-106.167,9.118-22.128,11.685-34.152,28.16-93.088.9-3.223,2.458-8.786,3.323-11.863a57.48,57.48,0,0,0-37.034-70.038L473.5,30.135a38.435,38.435,0,0,0-48.924,24.943c-11.282,36.067-19.837,65.836-26.045,88.3-6.791,24.574-16.616,61.548-34.333,111-5.95,16.608-10.721,28.849-12.334,33-13.176,33.93-38.171,101.362-87.355,238.8a54.617,54.617,0,0,1-70.583,32.742L121.1,531.629a24.369,24.369,0,0,0-31.4,14.352Q56.923,634.436,24.147,722.889a17.639,17.639,0,0,0,16.809,23.765l268.99-4.1a10.781,10.781,0,0,1,10.942,11.075h0a11.83,11.83,0,0,0,12.527,12.134c15.108-.907,27.5-.911,36.447-.714,19.594.43,23.586,1.841,49.334,2.333,20.3.388,22.335-.4,35,.667,9.156.774,14.008,1.686,38,5.666,22.479,3.73,33.725,5.557,36.666,6,0,0,20.435,3.081,50,5.667,29.622,2.591,107.088,4.966,211.407,3.563a15.554,15.554,0,0,1,15.758,15.039h0a15.653,15.653,0,0,1-14.92,16.142c-63.252,2.921-115.217,3.739-151.911,3.923-89.155.449-142.7-2.563-242.334,1-27.547.986-51.123,2.2-68.907,3.246A13.882,13.882,0,0,0,314.9,841.46l-.023.464a110.544,110.544,0,0,0,15.485,62.22l11.844,19.842a104.539,104.539,0,0,0,25.327,28.734L378.76,961.5a36.719,36.719,0,0,0,51.907-6.8,244.41,244.41,0,0,0,14.862-21.985c8.169-13.623,18.482-31.13,24.333-56,5.03-21.378,4.255-37.537,2.667-66a473,473,0,0,0-5.336-49.108,27.518,27.518,0,0,0-27.3-23.117l-92.824.436c-10.62.05-28.337-2.326-29.293-19.127a27.381,27.381,0,0,1,2.375-14.042c5.213-11.9,22.02-48.316,27.807-61.938,12-28.249,15.783-39.032,25.9-70.437C382.926,545.248,391.1,525.207,400.2,503.047Z"/></g><g id="a2d1bbf4-ed9f-4dd2-b465-388399ceaea1" data-name="Track-Mid"><path class="e71aa514-b9ae-4f00-99c5-daa549e48da5" d="M400.2,503.047c44.222-107.747,66.737-161.454,74-179.667,30.573-76.672,31.534-83.6,40.833-106.167,9.118-22.128,11.685-34.152,28.16-93.088.9-3.223,2.458-8.786,3.323-11.863a57.48,57.48,0,0,0-37.034-70.038L473.5,30.135a38.435,38.435,0,0,0-48.924,24.943c-11.282,36.067-19.837,65.836-26.045,88.3-6.791,24.574-16.616,61.548-34.333,111-5.95,16.608-10.721,28.849-12.334,33-13.176,33.93-38.171,101.362-87.355,238.8a54.617,54.617,0,0,1-70.583,32.742L121.1,531.629a24.369,24.369,0,0,0-31.4,14.352Q56.923,634.436,24.147,722.889a17.639,17.639,0,0,0,16.809,23.765l268.99-4.1a10.781,10.781,0,0,1,10.942,11.075h0a11.83,11.83,0,0,0,12.527,12.134c15.108-.907,27.5-.911,36.447-.714,19.594.43,23.586,1.841,49.334,2.333,20.3.388,22.335-.4,35,.667,9.156.774,14.008,1.686,38,5.666,22.479,3.73,33.725,5.557,36.666,6,0,0,20.435,3.081,50,5.667,29.622,2.591,107.088,4.966,211.407,3.563a15.554,15.554,0,0,1,15.758,15.039h0a15.653,15.653,0,0,1-14.92,16.142c-63.252,2.921-115.217,3.739-151.911,3.923-89.155.449-142.7-2.563-242.334,1-27.547.986-51.123,2.2-68.907,3.246A13.882,13.882,0,0,0,314.9,841.46l-.023.464a110.544,110.544,0,0,0,15.485,62.22l11.844,19.842a104.539,104.539,0,0,0,25.327,28.734L378.76,961.5a36.719,36.719,0,0,0,51.907-6.8,244.41,244.41,0,0,0,14.862-21.985c8.169-13.623,18.482-31.13,24.333-56,5.03-21.378,4.255-37.537,2.667-66a473,473,0,0,0-5.336-49.108,27.518,27.518,0,0,0-27.3-23.117l-92.824.436c-10.62.05-28.337-2.326-29.293-19.127a27.381,27.381,0,0,1,2.375-14.042c5.213-11.9,22.02-48.316,27.807-61.938,12-28.249,15.783-39.032,25.9-70.437C382.926,545.248,391.1,525.207,400.2,503.047Z"/></g><g id="0597238c-1fad-4661-a153-679029117293" data-name="Track-Inner"><path class="0c6ecd6f-cf79-42c0-adf6-38cc22d60513" d="M400.2,503.047c44.222-107.747,66.737-161.454,74-179.667,30.573-76.672,31.534-83.6,40.833-106.166,9.118-22.129,11.685-34.153,28.16-93.089.9-3.223,2.458-8.786,3.323-11.863a57.479,57.479,0,0,0-37.034-70.038L473.5,30.135a38.435,38.435,0,0,0-48.924,24.943c-11.282,36.067-19.837,65.836-26.045,88.3-6.791,24.574-16.616,61.548-34.333,111-5.95,16.608-10.721,28.849-12.334,33-13.176,33.931-38.171,101.361-87.355,238.8a54.616,54.616,0,0,1-70.583,32.742L121.1,531.629a24.368,24.368,0,0,0-31.4,14.353L24.147,722.889a17.64,17.64,0,0,0,16.809,23.766l268.99-4.1a10.781,10.781,0,0,1,10.942,11.075,11.83,11.83,0,0,0,12.527,12.134c15.108-.906,27.5-.91,36.447-.714,19.594.43,23.586,1.841,49.334,2.333,20.3.388,22.335-.4,35,.667,9.156.774,14.008,1.686,38,5.666,22.479,3.73,33.725,5.557,36.666,6,0,0,20.435,3.081,50,5.667,29.622,2.591,107.087,4.966,211.407,3.563a15.6,15.6,0,0,1,.838,31.18c-63.252,2.921-115.217,3.74-151.911,3.924-89.155.449-142.7-2.563-242.334,1-27.547.985-51.123,2.2-68.907,3.246A13.882,13.882,0,0,0,314.9,841.46l-.023.464a110.544,110.544,0,0,0,15.485,62.22q5.922,9.921,11.844,19.842a104.553,104.553,0,0,0,25.327,28.734L378.76,961.5a36.719,36.719,0,0,0,51.907-6.8,244.553,244.553,0,0,0,14.862-21.985c8.169-13.623,18.482-31.13,24.333-56,5.03-21.378,4.255-37.537,2.667-66a472.974,472.974,0,0,0-5.336-49.108,27.518,27.518,0,0,0-27.3-23.117l-92.824.436c-10.62.05-28.337-2.326-29.293-19.127a27.379,27.379,0,0,1,2.375-14.042c5.213-11.9,22.021-48.316,27.807-61.937,12-28.25,15.783-39.033,25.9-70.438C382.926,545.248,391.1,525.207,400.2,503.047Z"/></g><g id="0516639d-81ca-4e90-9b62-e3596df7cff9" data-name="Crossover-Outer"><path class="dc7295c1-b524-4624-94a4-798e473c08e4" d="M422.131,767.421c9.5.236,17.3-.249,26.944.275a182.921,182.921,0,0,1,20.88,2.4c8.764,1.434,15.8,2.544,21.444,3.482"/><path class="dc7295c1-b524-4624-94a4-798e473c08e4" d="M432.029,824.318l65.938-1.035"/></g><g id="d11494fc-f244-411b-bf75-ecbfaf080477" data-name="Crossover-Mid"><path class="e71aa514-b9ae-4f00-99c5-daa549e48da5" d="M422.131,767.421c9.5.236,17.3-.249,26.944.275a182.921,182.921,0,0,1,20.88,2.4c8.764,1.434,15.8,2.544,21.444,3.482"/><path class="e71aa514-b9ae-4f00-99c5-daa549e48da5" d="M432.029,824.318l65.938-1.035"/></g><g id="cd9edda3-d9cb-490c-86be-fbf6d314af2c" data-name="Crossover-Inner"><path class="0c6ecd6f-cf79-42c0-adf6-38cc22d60513" d="M422.131,767.421c9.5.236,17.669-.249,27.313.275a182.921,182.921,0,0,1,20.88,2.4c8.764,1.434,15.927,2.626,21.574,3.564"/><path class="0c6ecd6f-cf79-42c0-adf6-38cc22d60513" d="M432.029,824.318l65.938-1.035"/></g><g id="ca9be720-0fe7-449f-b6f6-0a460f0a4cd9" data-name="Start-Finish Line"><use width="200" height="103.617" transform="translate(439.6 459.571) rotate(-158.836) scale(0.2)" xlink:href="#c2bc08da-6c35-4218-b6a4-9c1e84648fe5"/></g><g id="bb9a894c-93e9-4936-b0fe-b29e8d1dbdaa" data-name="Corner Numbers"><g id="79088787-1138-453d-88c8-00e6dff65104" data-name="1"><path class="f9511803-1b2b-4e18-b84d-42a4ca390ce4" d="M552.559,58.809a10.417,10.417,0,1,1,8.6,11.964h0c-7.474-1.225-10.236-.507-10.825-1.326S551.337,66.255,552.559,58.809Z"/><path class="509acc8b-6efa-4cf0-9ffa-a1617ab8c3e7" d="M562.363,55.974h-.037l-2.091,1.112-.307-1.237,2.628-1.387,1.383.008-.068,11.991-1.569-.009Z"/></g><g id="ece122ad-41ae-47f4-bfd7-ea616e6bd10d" data-name="2"><path class="f9511803-1b2b-4e18-b84d-42a4ca390ce4" d="M429.158,21.851a10.811,10.811,0,1,1,13.614-6.96h0c-2.419,7.48-2.112,10.426-3.044,10.9S436.61,24.263,429.158,21.851Z"/><path class="509acc8b-6efa-4cf0-9ffa-a1617ab8c3e7" d="M428.977,18.1l0-1.034L430.3,15.78c3.182-3.022,4.62-4.628,4.642-6.5a2.221,2.221,0,0,0-2.468-2.435,4.235,4.235,0,0,0-2.644,1.049L429.3,6.7a5.465,5.465,0,0,1,3.526-1.259,3.5,3.5,0,0,1,3.806,3.624c0,2.3-1.671,4.154-4.3,6.678l-1,.917V16.7l5.592.007,0,1.4Z"/></g><g id="17574743-daac-425e-ae2c-585c4972f313" data-name="3"><path class="f9511803-1b2b-4e18-b84d-42a4ca390ce4" d="M252.087,567.569a10.512,10.512,0,1,1-13.175,6.888h0c2.286-7.294,1.962-10.155,2.863-10.627S244.821,565.29,252.087,567.569Z"/><path class="509acc8b-6efa-4cf0-9ffa-a1617ab8c3e7" d="M245.333,581.4a5.478,5.478,0,0,0,2.68.764c2.1,0,2.756-1.339,2.738-2.344-.019-1.694-1.544-2.421-3.126-2.421h-.913V576.17h.912c1.191,0,2.7-.613,2.7-2.047,0-.968-.613-1.824-2.121-1.825a4.444,4.444,0,0,0-2.421.8l-.428-1.193a5.764,5.764,0,0,1,3.166-.928c2.383,0,3.462,1.416,3.461,2.886a3.006,3.006,0,0,1-2.235,2.848v.037a3.152,3.152,0,0,1,2.7,3.11c0,1.936-1.51,3.629-4.414,3.629a6.155,6.155,0,0,1-3.146-.822Z"/></g><g id="5100ba72-baa6-4e8b-a3f4-486521d4c007" data-name="4"><path class="f9511803-1b2b-4e18-b84d-42a4ca390ce4" d="M88.171,521.964a10.195,10.195,0,1,1,12.672-6.876h0c-2.107,7.107-1.749,9.877-2.616,10.348S95.252,524.065,88.171,521.964Z"/><path class="509acc8b-6efa-4cf0-9ffa-a1617ab8c3e7" d="M92.086,518.1l0-3.195-5.451.007,0-1.047,5.225-7.5,1.715,0,.01,7.292h1.642l0,1.245-1.643,0,0,3.2Zm-.006-4.441,0-3.917q0-.921.052-1.841h-.054c-.36.687-.648,1.192-.973,1.735l-2.864,3.992v.036Z"/></g><g id="8e05520f-e493-4ba1-b924-a57a27292644" data-name="5"><path class="f9511803-1b2b-4e18-b84d-42a4ca390ce4" d="M21.131,757.841a10.195,10.195,0,1,1-9.768-10.6h0c7.406.3,10-.721,10.673,0S21.435,750.462,21.131,757.841Z"/><path class="509acc8b-6efa-4cf0-9ffa-a1617ab8c3e7" d="M14.727,752.619l-4.477,0L9.8,755.638a6.4,6.4,0,0,1,.956-.073,4.965,4.965,0,0,1,2.528.63,3.344,3.344,0,0,1,1.681,3.013,4.07,4.07,0,0,1-4.365,4.01,5.74,5.74,0,0,1-2.925-.719l.4-1.211a5.248,5.248,0,0,0,2.51.649,2.589,2.589,0,0,0,2.778-2.547c-.019-1.517-1.031-2.6-3.378-2.6a12.134,12.134,0,0,0-1.624.127l.753-5.632,5.614,0Z"/></g><g id="fecb4d02-184e-4659-a20d-330b019526a7" data-name="6"><path class="f9511803-1b2b-4e18-b84d-42a4ca390ce4" d="M311.754,763.106a10.521,10.521,0,1,1-10.973-10.048h0c7.642-.337,10.224-1.618,10.975-.93S311.42,755.491,311.754,763.106Z"/><path class="509acc8b-6efa-4cf0-9ffa-a1617ab8c3e7" d="M304.007,757.9a5.859,5.859,0,0,0-1.229.075,4.922,4.922,0,0,0-4.209,4.3h.056a3.691,3.691,0,0,1,6.577,2.512,4.05,4.05,0,0,1-4.022,4.269c-2.589,0-4.286-2.011-4.287-5.159a7.614,7.614,0,0,1,2.047-5.46,6.583,6.583,0,0,1,3.874-1.789,7.735,7.735,0,0,1,1.193-.1Zm-.462,6.986a2.461,2.461,0,0,0-2.5-2.774A2.7,2.7,0,0,0,298.7,763.6a1.413,1.413,0,0,0-.185.726c.038,1.994.952,3.466,2.665,3.465C302.6,767.789,303.545,766.614,303.545,764.881Z"/></g><g id="de8c5a42-810c-4406-80df-735bffcfd490" data-name="7"><path class="f9511803-1b2b-4e18-b84d-42a4ca390ce4" d="M328.205,782.008a10.468,10.468,0,1,1-13.861-5.2h0c6.929-3.149,8.836-5.291,9.786-4.935S325.069,775.1,328.205,782.008Z"/><path class="509acc8b-6efa-4cf0-9ffa-a1617ab8c3e7" d="M323.169,779.557v1.075L317.913,791.6h-1.687l5.236-10.656v-.038l-5.9,0v-1.354Z"/></g><g id="3c73cdc5-4be5-4631-a2e7-a8cfc7866723" data-name="8"><path class="f9511803-1b2b-4e18-b84d-42a4ca390ce4" d="M821.346,795.476a10.468,10.468,0,1,1,1.537,14.724h0c-5.912-4.8-8.679-5.545-8.785-6.553S816.568,801.365,821.346,795.476Z"/><path class="509acc8b-6efa-4cf0-9ffa-a1617ab8c3e7" d="M825.71,804.812a3.443,3.443,0,0,1,2.389-3.227l-.018-.055a2.987,2.987,0,0,1-1.911-2.707c0-1.909,1.611-3.208,3.724-3.21,2.336,0,3.5,1.463,3.506,2.965a3.063,3.063,0,0,1-1.981,2.82v.054a3.344,3.344,0,0,1,2.43,3.114c0,2.095-1.8,3.506-4.1,3.506C827.232,808.074,825.711,806.573,825.71,804.812Zm6.489-.078c0-1.465-1.022-2.168-2.653-2.631a2.616,2.616,0,0,0-2.167,2.485,2.227,2.227,0,0,0,2.411,2.3A2.18,2.18,0,0,0,832.2,804.734Zm-4.49-6.023c0,1.205.909,1.854,2.3,2.224a2.375,2.375,0,0,0,1.834-2.19,1.873,1.873,0,0,0-2.041-1.963A1.915,1.915,0,0,0,827.709,798.711Z"/></g><g id="f55422f5-99bd-45ca-a9cd-008658c8eaa7" data-name="9"><path class="f9511803-1b2b-4e18-b84d-42a4ca390ce4" d="M300.616,829.849a10.468,10.468,0,1,1,8.555-12.082h0c1.282,7.5,2.868,9.892,2.282,10.72S308.091,828.573,300.616,829.849Z"/><path class="509acc8b-6efa-4cf0-9ffa-a1617ab8c3e7" d="M296.257,824.151a6.75,6.75,0,0,0,1.315-.06,4.534,4.534,0,0,0,2.519-1.175,5.287,5.287,0,0,0,1.586-3.212h-.056a3.534,3.534,0,0,1-2.833,1.3,3.49,3.49,0,0,1-3.57-3.68,4.131,4.131,0,0,1,4.1-4.293c2.466-.007,3.991,1.992,4,5.069a7.617,7.617,0,0,1-2.062,5.66,6.027,6.027,0,0,1-3.5,1.623,7.65,7.65,0,0,1-1.5.1Zm.574-6.936a2.318,2.318,0,0,0,2.324,2.552,2.7,2.7,0,0,0,2.37-1.267,1.076,1.076,0,0,0,.147-.594c-.006-2.057-.77-3.631-2.476-3.626C297.805,814.283,296.826,815.509,296.831,817.215Z"/></g><g id="042de1e8-9a56-4206-8b5e-6c1d74674b11" data-name="10"><path class="f9511803-1b2b-4e18-b84d-42a4ca390ce4" d="M413.307,984.782a10.468,10.468,0,1,1-14.776.92h0c5.038-5.706,5.9-8.44,6.915-8.5S407.623,979.762,413.307,984.782Z"/><path class="509acc8b-6efa-4cf0-9ffa-a1617ab8c3e7" d="M400.93,987.98h-.037l-2.093,1.132-.317-1.242,2.632-1.411h1.391l.008,12.051h-1.576Z"/><path class="509acc8b-6efa-4cf0-9ffa-a1617ab8c3e7" d="M414.912,992.345c0,4.1-1.517,6.359-4.187,6.361-2.354,0-3.95-2.2-3.99-6.189,0-4.041,1.738-6.268,4.186-6.269C413.461,986.246,414.909,988.507,414.912,992.345Zm-6.545.189c0,3.134.967,4.913,2.45,4.912,1.669,0,2.465-1.949,2.463-5.026,0-2.967-.764-4.913-2.451-4.911C409.4,987.51,408.364,989.253,408.367,992.534Z"/></g><g id="e6282c87-cca1-4701-8dd4-5a96eab91093" data-name="11"><path class="f9511803-1b2b-4e18-b84d-42a4ca390ce4" d="M488.111,867.054a10.468,10.468,0,1,1-1.48,14.73h0c-4.817-5.893-7.375-7.189-7.274-8.2S482.239,871.852,488.111,867.054Z"/><path class="509acc8b-6efa-4cf0-9ffa-a1617ab8c3e7" d="M489.785,870.93h-.037l-2.095,1.132-.315-1.242,2.632-1.411h1.391l0,12.051h-1.576Z"/><path class="509acc8b-6efa-4cf0-9ffa-a1617ab8c3e7" d="M499.294,870.928h-.037l-2.1,1.131-.316-1.242,2.633-1.41h1.391l0,12.05H499.3Z"/></g><g id="f58c7d5e-a5bb-4d3e-976a-a00b31f320f2" data-name="12"><path class="f9511803-1b2b-4e18-b84d-42a4ca390ce4" d="M462.072,727.934a10.468,10.468,0,1,1,12.082,8.555h0c-7.5,1.282-9.892,2.868-10.719,2.283S463.348,735.41,462.072,727.934Z"/><path class="509acc8b-6efa-4cf0-9ffa-a1617ab8c3e7" d="M466.266,721.9h-.037l-2.092,1.136-.318-1.242,2.629-1.416,1.391,0,.033,12.051-1.576,0Z"/><path class="509acc8b-6efa-4cf0-9ffa-a1617ab8c3e7" d="M472.263,732.415l0-1,1.275-1.246c3.07-2.937,4.456-4.5,4.47-6.315a2.15,2.15,0,0,0-2.4-2.348,4.107,4.107,0,0,0-2.555,1.026l-.522-1.147a5.288,5.288,0,0,1,3.408-1.233,3.389,3.389,0,0,1,3.7,3.494c.006,2.224-1.6,4.027-4.134,6.481l-.962.893v.037l5.414-.015,0,1.354Z"/></g><g id="4fb04f5e-ff1a-4c66-a8af-14014dcdcc9a" data-name="13"><path class="f9511803-1b2b-4e18-b84d-42a4ca390ce4" d="M330.066,714.624a10.468,10.468,0,1,1,9.138,11.647h0c-7.557-.912-10.3-.074-10.925-.871S329.155,722.153,330.066,714.624Z"/><path class="509acc8b-6efa-4cf0-9ffa-a1617ab8c3e7" d="M334.391,711.921h-.037l-2.093,1.133-.317-1.242,2.632-1.411h1.391l.008,12.05H334.4Z"/><path class="509acc8b-6efa-4cf0-9ffa-a1617ab8c3e7" d="M340.755,720.574a5.468,5.468,0,0,0,2.671.759c2.094,0,2.742-1.337,2.722-2.338-.019-1.687-1.539-2.409-3.115-2.408h-.908v-1.223h.908c1.187,0,2.687-.614,2.687-2.041,0-.964-.614-1.816-2.115-1.815a4.415,4.415,0,0,0-2.409.8l-.428-1.187a5.717,5.717,0,0,1,3.151-.928c2.373,0,3.449,1.406,3.45,2.871a2.991,2.991,0,0,1-2.223,2.838v.037a3.138,3.138,0,0,1,2.691,3.093c0,1.929-1.5,3.617-4.391,3.619a6.125,6.125,0,0,1-3.135-.814Z"/></g></g></g></g></g></svg>