<svg xmlns="http://www.w3.org/2000/svg" xmlns:xlink="http://www.w3.org/1999/xlink" width="961.295" height="632.293" viewBox="0 0 961.295 632.293"><defs><style>.\35 8471711-b66d-46fd-ad3a-d679c748b0ae{fill:#00ff24;}.\35 8471711-b66d-46fd-ad3a-d679c748b0ae,.b2e3aed6-0231-4356-8d54-bd9bc848688b{stroke:#000;stroke-width:5px;}.\35 3c0c3e6-480c-4575-b6f2-6aa4fd383180,.\35 8471711-b66d-46fd-ad3a-d679c748b0ae,.b2e3aed6-0231-4356-8d54-bd9bc848688b,.bbdc6246-52d9-42e5-a78f-a32c66f818ee,.dc8fc531-b9d8-4878-b833-10bcaeda3035{stroke-miterlimit:10;}.b2e3aed6-0231-4356-8d54-bd9bc848688b{fill:#fff;}.\35 3c0c3e6-480c-4575-b6f2-6aa4fd383180,.bbdc6246-52d9-42e5-a78f-a32c66f818ee,.dc8fc531-b9d8-4878-b833-10bcaeda3035{fill:none;}.\35 3c0c3e6-480c-4575-b6f2-6aa4fd383180,.bbdc6246-52d9-42e5-a78f-a32c66f818ee{stroke:#0080ff;}.bbdc6246-52d9-42e5-a78f-a32c66f818ee{stroke-width:20px;}.dc8fc531-b9d8-4878-b833-10bcaeda3035{stroke:#fff;stroke-width:12px;}.\35 3c0c3e6-480c-4575-b6f2-6aa4fd383180{stroke-width:2px;}</style><symbol id="82ed74d8-4796-40b1-9a18-0b577d9b8394" data-name="fd103434-89f2-4089-acf9-54fed79ed404" viewBox="0 0 200 103.617"><rect class="58471711-b66d-46fd-ad3a-d679c748b0ae" x="2.5" y="54.074" width="195" height="47.043"/><rect class="b2e3aed6-0231-4356-8d54-bd9bc848688b" x="2.5" y="2.5" width="48.75" height="48.75"/><rect class="b2e3aed6-0231-4356-8d54-bd9bc848688b" x="51.25" y="2.5" width="48.75" height="48.75"/><rect class="b2e3aed6-0231-4356-8d54-bd9bc848688b" x="100" y="2.5" width="48.75" height="48.75"/><rect class="b2e3aed6-0231-4356-8d54-bd9bc848688b" x="148.75" y="2.5" width="48.75" height="48.75"/></symbol></defs><title>MIKE_Pick_Your_Ring</title><g id="640b5d8e-06ac-4bcc-8c6a-1e26867dbfcb" data-name="Layer 2"><g id="4a14aebd-ad53-4bba-ac70-e8db8e14869e" data-name="City - Downtown"><g id="ef844d44-f6da-4ea1-8269-27fe01f182f9" data-name="MIKE_Pick_Your_Ring"><path id="e3619663-4ef3-4666-9984-2896038c3e15" data-name="Track Outer" class="bbdc6246-52d9-42e5-a78f-a32c66f818ee" d="M194.762,89.622c-9.111,26.909-14.667,43.667-19.917,57.917s-18.25,30.25-45.25,20.25-33.25-12.25-48-18-26.25.25-32.75,19-24.5,69-32,90.5S1.1,305.539,33.1,317.039s39.5,14.416,49.5,18.083,24.667,1.667,34.667-25,24.333-67.333,34.333-96,19.34-40.672,44.667-41.333c28.326-.74,74.584-1.55,105.583-1.75,77.25-.5,276.417-.25,309.084-.25s57-1.667,74.666-4.334,42-6.166,75.5-6.166,46,.5,65.25,1,21.325-9.339,5-27.25c-18-19.75-48-52.75-61.25-66.75s-24.365-28.361-43-34c-19-5.75-32.027,13.856-24.75,25,8,12.25,21.873,22.463,34.5,37.75,19,23,41.376,60.436,50.917,84.916,23.417,60.084,49.786,4.36,67.5,62.334,7.333,24,15.333,50,19.333,66.25s14.381,55.158,26.5,76.416c10.167,17.834,23.642,33.238,37.5,40.167,15.667,7.833,17.167,16.5,2.667,21.5s-31.042,11.542-46.042,22.167-31.125,27.833-37.958,42.5-10.227,29.4-13.167,43.25c-2.583,12.166-9.25,25.5-16.75,33.25-10.092,10.429-24.547,19.641-48,21.75-22.25,2-104.506,8.37-128,9.5-26,1.25-48,2-65.5,2.25s-39-10.5-45-26.75-7.75-37,1.75-53.25,31.5-29.75,48.25-33.5,44.75-9.75,43.75-26.5-45.5-23-61-28.75-42.556-19.761-44.25-50.25c-1-18,1.468-29.115,13-43,12.25-14.75,30.5-15.75,46.75-15.75s31.75-.75,51.25-.5,37.75,10.25,45.25,28.5,3.5,36.5-5.75,48.25-19.5,18.25-43.5,19.25-100.25,3.25-117.75,3.75-48.5,1.75-75,1.75c-22,0-37.25-8.75-37.5-32.5-.289-27.509-.75-33.75-.75-48.75,0-15.75,8.436-34.106,33.75-36.5,37-3.5,109.25-12.5,134.25-16s45.534-12.295,43-39.25c-2.75-29.25-4.5-36.75-5.5-52.25s-10.25-27.5-37.75-27-43.5-14-62.75-30.25-36.416-17.084-64.083-16.917-38.417.417-54.917.417-33.25-1.75-32-21.25,1.75-64.75,2-80.75-8.75-34.5-36.5-33.75-58,.25-72-.5-30.131-1.3-36,15.5C209.6,46.539,201.929,68.455,194.762,89.622Z"/><path id="b0ed8586-15e0-40ce-9561-9b5ebd3a6e8e" data-name="Track Middle" class="dc8fc531-b9d8-4878-b833-10bcaeda3035" d="M194.762,89.622c-9.111,26.909-14.667,43.667-19.917,57.917s-18.25,30.25-45.25,20.25-33.25-12.25-48-18-26.25.25-32.75,19-24.5,69-32,90.5S1.1,305.539,33.1,317.039s39.5,14.416,49.5,18.083,24.667,1.667,34.667-25,24.333-67.333,34.333-96,19.34-40.672,44.667-41.333c28.326-.74,74.584-1.55,105.583-1.75,77.25-.5,276.417-.25,309.084-.25s57-1.667,74.666-4.334,42-6.166,75.5-6.166,46,.5,65.25,1,21.325-9.339,5-27.25c-18-19.75-48-52.75-61.25-66.75s-24.365-28.361-43-34c-19-5.75-32.027,13.856-24.75,25,8,12.25,21.873,22.463,34.5,37.75,19,23,41.376,60.436,50.917,84.916,23.417,60.084,49.786,4.36,67.5,62.334,7.333,24,15.333,50,19.333,66.25s14.381,55.158,26.5,76.416c10.167,17.834,23.642,33.238,37.5,40.167,15.667,7.833,17.167,16.5,2.667,21.5s-31.042,11.542-46.042,22.167-31.125,27.833-37.958,42.5-10.227,29.4-13.167,43.25c-2.583,12.166-9.25,25.5-16.75,33.25-10.092,10.429-24.547,19.641-48,21.75-22.25,2-104.506,8.37-128,9.5-26,1.25-48,2-65.5,2.25s-39-10.5-45-26.75-7.75-37,1.75-53.25,31.5-29.75,48.25-33.5,44.75-9.75,43.75-26.5-45.5-23-61-28.75-42.556-19.761-44.25-50.25c-1-18,1.468-29.115,13-43,12.25-14.75,30.5-15.75,46.75-15.75s31.75-.75,51.25-.5,37.75,10.25,45.25,28.5,3.5,36.5-5.75,48.25-19.5,18.25-43.5,19.25-100.25,3.25-117.75,3.75-48.5,1.75-75,1.75c-22,0-37.25-8.75-37.5-32.5-.289-27.509-.75-33.75-.75-48.75,0-15.75,8.436-34.106,33.75-36.5,37-3.5,109.25-12.5,134.25-16s45.534-12.295,43-39.25c-2.75-29.25-4.5-36.75-5.5-52.25s-10.25-27.5-37.75-27-43.5-14-62.75-30.25-36.416-17.084-64.083-16.917-38.417.417-54.917.417-33.25-1.75-32-21.25,1.75-64.75,2-80.75-8.75-34.5-36.5-33.75-58,.25-72-.5-30.131-1.3-36,15.5C209.6,46.539,201.929,68.455,194.762,89.622Z"/><path id="f6cb606b-1be2-456d-8463-d1cded35474b" data-name="Track Inner" class="53c0c3e6-480c-4575-b6f2-6aa4fd383180" d="M194.762,89.622c-9.111,26.909-14.667,43.667-19.917,57.917s-18.25,30.25-45.25,20.25-33.25-12.25-48-18-26.25.25-32.75,19-24.5,69-32,90.5S1.1,305.539,33.1,317.039s39.5,14.416,49.5,18.083,24.667,1.667,34.667-25,24.333-67.333,34.333-96,19.34-40.672,44.667-41.333c28.326-.74,74.584-1.55,105.583-1.75,77.25-.5,276.417-.25,309.084-.25s57-1.667,74.666-4.334,42-6.166,75.5-6.166,46,.5,65.25,1,21.325-9.339,5-27.25c-18-19.75-48-52.75-61.25-66.75s-24.365-28.361-43-34c-19-5.75-32.027,13.856-24.75,25,8,12.25,21.873,22.463,34.5,37.75,19,23,41.376,60.436,50.917,84.916,23.417,60.084,49.786,4.36,67.5,62.334,7.333,24,15.333,50,19.333,66.25s14.381,55.158,26.5,76.416c10.167,17.834,23.642,33.238,37.5,40.167,15.667,7.833,17.167,16.5,2.667,21.5s-31.042,11.542-46.042,22.167-31.125,27.833-37.958,42.5-10.227,29.4-13.167,43.25c-2.583,12.166-9.25,25.5-16.75,33.25-10.092,10.429-24.547,19.641-48,21.75-22.25,2-104.506,8.37-128,9.5-26,1.25-48,2-65.5,2.25s-39-10.5-45-26.75-7.75-37,1.75-53.25,31.5-29.75,48.25-33.5,44.75-9.75,43.75-26.5-45.5-23-61-28.75-42.556-19.761-44.25-50.25c-1-18,1.468-29.115,13-43,12.25-14.75,30.5-15.75,46.75-15.75s31.75-.75,51.25-.5,37.75,10.25,45.25,28.5,3.5,36.5-5.75,48.25-19.5,18.25-43.5,19.25-100.25,3.25-117.75,3.75-48.5,1.75-75,1.75c-22,0-37.25-8.75-37.5-32.5-.289-27.509-.75-33.75-.75-48.75,0-15.75,8.436-34.106,33.75-36.5,37-3.5,109.25-12.5,134.25-16s45.534-12.295,43-39.25c-2.75-29.25-4.5-36.75-5.5-52.25s-10.25-27.5-37.75-27-43.5-14-62.75-30.25-36.416-17.084-64.083-16.917-38.417.417-54.917.417-33.25-1.75-32-21.25,1.75-64.75,2-80.75-8.75-34.5-36.5-33.75-58,.25-72-.5-30.131-1.3-36,15.5C209.6,46.539,201.929,68.455,194.762,89.622Z"/><g id="86e15c20-031a-4870-b2ab-05544c2b0ede" data-name="Crossover"><path id="e9c3836e-40ec-4836-bc0b-e75ea99e3cb5" data-name="Crossover Outer" class="bbdc6246-52d9-42e5-a78f-a32c66f818ee" d="M301.845,171.039c77.25-.5,276.417-.25,309.084-.25"/><path id="12f89695-1aca-41cb-8b9f-8ec4a863caf8" data-name="Crossover Middle" class="dc8fc531-b9d8-4878-b833-10bcaeda3035" d="M301.845,171.039c77.25-.5,276.417-.25,309.084-.25"/><path id="b54d0138-441a-4fb9-b6f3-9c50822eecdc" data-name="Crossover Inner" class="53c0c3e6-480c-4575-b6f2-6aa4fd383180" d="M301.845,171.039c77.25-.5,276.417-.25,309.084-.25"/></g><g id="90013919-a054-4abc-a70b-e1bc196d23bd" data-name="Crossover"><path id="59ff6779-0d81-41c2-be11-7d4217a46304" data-name="Crossover Outer" class="bbdc6246-52d9-42e5-a78f-a32c66f818ee" d="M634.6,482.289c-1-16.75-45.5-23-61-28.75s-42.556-19.761-44.25-50.25"/><path id="bc8de84e-37b1-4f29-bb03-b024bcd3d6c9" data-name="Crossover Middle" class="dc8fc531-b9d8-4878-b833-10bcaeda3035" d="M634.6,482.289c-1-16.75-45.5-23-61-28.75s-42.556-19.761-44.25-50.25"/><path id="cb188422-7f0a-41f9-93f9-c6f512205c5c" data-name="Crossover Inner" class="53c0c3e6-480c-4575-b6f2-6aa4fd383180" d="M634.6,482.289c-1-16.75-45.5-23-61-28.75s-42.556-19.761-44.25-50.25"/></g><g id="337c169f-93b7-40cf-8105-723fbae3d5e3" data-name="Crossover"><path id="bc87137b-9f1a-4d79-9622-3d1720f423c6" data-name="Crossover Outer" class="bbdc6246-52d9-42e5-a78f-a32c66f818ee" d="M761.1,160.289c33.5,0,46,.5,65.25,1"/><path id="d46848b3-124d-4231-9456-44b7b5963103" data-name="Crossover Middle" class="dc8fc531-b9d8-4878-b833-10bcaeda3035" d="M761.1,160.289c33.5,0,46,.5,65.25,1"/><path id="aca7fa12-191b-442f-85b1-5553d078cbcd" data-name="Crossover Inner" class="53c0c3e6-480c-4575-b6f2-6aa4fd383180" d="M761.1,160.289c33.5,0,46,.5,65.25,1"/></g><use id="ce04248e-9063-44bb-8d98-933147381cb4" data-name="Start-Finish-Line" width="200" height="103.617" transform="matrix(0.205, 0.071, -0.071, 0.205, 178.553, 70.252)" xlink:href="#82ed74d8-4796-40b1-9a18-0b577d9b8394"/></g></g></g></svg>