<svg xmlns="http://www.w3.org/2000/svg" xmlns:xlink="http://www.w3.org/1999/xlink" width="748.127" height="1126.885" viewBox="0 0 748.127 1126.885"><defs><style>.\30 ac53fde-25e2-481e-8b0c-df8cc8147267{fill:#00ff24;}.\30 ac53fde-25e2-481e-8b0c-df8cc8147267,.fed45bd7-ba59-4e5b-bfeb-939950ce4d07{stroke:#000;stroke-width:5px;}.\30 ac53fde-25e2-481e-8b0c-df8cc8147267,.\32 00045d7-d5e2-47eb-91ee-15225904d0aa,.\33 5507084-3dda-436a-9a32-aec23a19c296,.\37 2213b17-6606-45a2-a813-1a9dee0e1ba6,.\37 e9abb50-0bfb-42df-bef9-546a6fded1d7,.ac87854a-6283-489c-8234-334d589ee390,.fed45bd7-ba59-4e5b-bfeb-939950ce4d07{stroke-miterlimit:10;}.fed45bd7-ba59-4e5b-bfeb-939950ce4d07{fill:#fff;}.\32 00045d7-d5e2-47eb-91ee-15225904d0aa,.\33 5507084-3dda-436a-9a32-aec23a19c296,.\37 2213b17-6606-45a2-a813-1a9dee0e1ba6,.\37 e9abb50-0bfb-42df-bef9-546a6fded1d7,.ac87854a-6283-489c-8234-334d589ee390{fill:none;}.\37 2213b17-6606-45a2-a813-1a9dee0e1ba6,.ac87854a-6283-489c-8234-334d589ee390{stroke:#c91c1c;}.\33 5507084-3dda-436a-9a32-aec23a19c296,.ac87854a-6283-489c-8234-334d589ee390{stroke-width:20px;}.\33 5507084-3dda-436a-9a32-aec23a19c296,.\37 e9abb50-0bfb-42df-bef9-546a6fded1d7{stroke:#0080ff;}.\32 00045d7-d5e2-47eb-91ee-15225904d0aa{stroke:#fff;stroke-width:12px;}.\37 2213b17-6606-45a2-a813-1a9dee0e1ba6,.\37 e9abb50-0bfb-42df-bef9-546a6fded1d7{stroke-width:2px;}</style><symbol id="ecc2a377-d719-4570-8c25-78d932e286c1" data-name="fd103434-89f2-4089-acf9-54fed79ed404" viewBox="0 0 200 103.617"><rect class="0ac53fde-25e2-481e-8b0c-df8cc8147267" x="2.5" y="54.074" width="195" height="47.043"/><rect class="fed45bd7-ba59-4e5b-bfeb-939950ce4d07" x="2.5" y="2.5" width="48.75" height="48.75"/><rect class="fed45bd7-ba59-4e5b-bfeb-939950ce4d07" x="51.25" y="2.5" width="48.75" height="48.75"/><rect class="fed45bd7-ba59-4e5b-bfeb-939950ce4d07" x="100" y="2.5" width="48.75" height="48.75"/><rect class="fed45bd7-ba59-4e5b-bfeb-939950ce4d07" x="148.75" y="2.5" width="48.75" height="48.75"/></symbol></defs><title>MIKE_Hot_Doggo_GP</title><g id="4a86321f-09bf-4e0a-a1c2-07b98677362d" data-name="Layer 2"><g id="24f6b4d9-447c-49ad-a7f9-6cf76d2dd23f" data-name="City - Downtown"><g id="3f580c7c-ee9c-434a-a72f-343bdc034f1f" data-name="MIKE_Hot_Doggo_GP"><path id="b5b4a3f5-6192-47a4-ae2e-1fc178cb5035" data-name="Pitlane Outer" class="ac87854a-6283-489c-8234-334d589ee390" d="M640.594,859.065c-.167,16.167-15.093,11.729-15.1,23.731,0,3.5.015,9.416.02,11.416.02,9.251-.083,14.417,14.25,14.584s50.167.166,63.167,0S719.769,919,721.769,926.754s13.109,13.125,12.859,27.375"/><path id="5c268dbd-9bfd-43b2-ab47-22c30c576b37" data-name="Track Outer" class="35507084-3dda-436a-9a32-aec23a19c296" d="M448.436,164.8c42.043,15.179,57,19.666,77.166,27.5s32,34.666,29.834,57.666-11.834,65.5-18.334,83.5-25,20.667-48.833,20.667-54.958-.667-80.625-1-42.288-.976-55.292-1.25c-19.75-.417-25.062,3.863-46.916,3.583-26.042-.333-41.542-.708-58.917-.833s-27.5,3.875-34.125,23.5S182.519,463.629,176.769,480s-2.49,27.486,21,35.875c19.833,7.083,56.1,20.435,76.333,27.25,19.667,6.625,37.5,4.667,45.5-17.167s33.667-93.833,41.917-115.833,25.083-27.5,49.25-18.333,163,62,186,70.666,34.833,10.667,54.5,10.5,37.333-.5,56.333-.833,31.15,8.5,30.5,30.167c-.5,16.666-2.5,51.5-3.333,72s-1.5,33.333-27.167,32.833-33.25-.454-45.5-.333c-17,.166-14.085,24.51-40.958,24.833-20.792.25-40.125,0-58.625.5s-23,8.5-29,25.375S496.269,760.629,490.1,778.629s.834,32.667,35,32.333,64.334-.166,86.834-.5,29.849,6.673,29.333,27.334c-.333,13.333-.833,21.833-.833,31s3,18.166,21.333,18.166c19.833,0,32.667.334,50.167.167s22.833,5,23,20-.556,65.5-.667,78.333c-.167,19.334-6.669,17.843-25.5,17.5-18.333-.333-31.167.167-50.333.667s-22.334,3.833-30,13.333-21,25-29.667,34.834-25.5,5.666-38.5,1.833-49.125-3.125-60.125-2.875-24.875.208-37.708,18.042-22.834,31.166-30.334,39.666-22.833,14.667-41-2.5-38.166-38.833-48.166-57.833-13.417-28-10.667-50.75,3.75-55.5,2.5-80,3-33,28.75-32.5,45.5.509,71.25.75c26.75.25,36.25-16.5,37.75-38,1.451-20.8,9.993-39.982-17.75-50-27-9.75-45.5-16.25-69.75-25.5s-67.5-27.25-95-37.25-42-27.25-28-67.5,23.75-65.75,32.25-89.75-14-34.25-35.25-42.25S103.769,479.8,75.769,469.462s-31-23.547-19.333-56.666C66.769,383.462,81.1,344.462,88.1,322.462s6.667-35-3-57.333-27.712-26.893-38.333-39.75c-14.25-17.25-20.75-29.75-23.75-48.25s-6.5-42.582-10-79c-3-31.25-3.615-47.256-2.5-69,1-19.5,11.448-19.5,30.75-19,19.25.5,25.5,2.25,42.25,8.75s84.25,36,112.25,47,105.75,43.25,126.75,51S416.352,153.212,448.436,164.8Z"/><path id="6fe8b177-e07b-45ab-bc3b-e7ea591f1df4" data-name="Track Middle" class="200045d7-d5e2-47eb-91ee-15225904d0aa" d="M448.436,164.8c42.043,15.179,57,19.666,77.166,27.5s32,34.666,29.834,57.666-11.834,65.5-18.334,83.5-25,20.667-48.833,20.667-54.958-.667-80.625-1-42.288-.976-55.292-1.25c-19.75-.417-25.062,3.863-46.916,3.583-26.042-.333-41.542-.708-58.917-.833s-27.5,3.875-34.125,23.5S182.519,463.629,176.769,480s-2.49,27.486,21,35.875c19.833,7.083,56.1,20.435,76.333,27.25,19.667,6.625,37.5,4.667,45.5-17.167s33.667-93.833,41.917-115.833,25.083-27.5,49.25-18.333,163,62,186,70.666,34.833,10.667,54.5,10.5,37.333-.5,56.333-.833,31.15,8.5,30.5,30.167c-.5,16.666-2.5,51.5-3.333,72s-1.5,33.333-27.167,32.833-33.25-.454-45.5-.333c-17,.166-14.085,24.51-40.958,24.833-20.792.25-40.125,0-58.625.5s-23,8.5-29,25.375S496.269,760.629,490.1,778.629s.834,32.667,35,32.333,64.334-.166,86.834-.5,29.849,6.673,29.333,27.334c-.333,13.333-.833,21.833-.833,31s3,18.166,21.333,18.166c19.833,0,32.667.334,50.167.167s22.833,5,23,20-.556,65.5-.667,78.333c-.167,19.334-6.669,17.843-25.5,17.5-18.333-.333-31.167.167-50.333.667s-22.334,3.833-30,13.333-21,25-29.667,34.834-25.5,5.666-38.5,1.833-49.125-3.125-60.125-2.875-24.875.208-37.708,18.042-22.834,31.166-30.334,39.666-22.833,14.667-41-2.5-38.166-38.833-48.166-57.833-13.417-28-10.667-50.75,3.75-55.5,2.5-80,3-33,28.75-32.5,45.5.509,71.25.75c26.75.25,36.25-16.5,37.75-38,1.451-20.8,9.993-39.982-17.75-50-27-9.75-45.5-16.25-69.75-25.5s-67.5-27.25-95-37.25-42-27.25-28-67.5,23.75-65.75,32.25-89.75-14-34.25-35.25-42.25S103.769,479.8,75.769,469.462s-31-23.547-19.333-56.666C66.769,383.462,81.1,344.462,88.1,322.462s6.667-35-3-57.333-27.712-26.893-38.333-39.75c-14.25-17.25-20.75-29.75-23.75-48.25s-6.5-42.582-10-79c-3-31.25-3.615-47.256-2.5-69,1-19.5,11.448-19.5,30.75-19,19.25.5,25.5,2.25,42.25,8.75s84.25,36,112.25,47,105.75,43.25,126.75,51S416.352,153.212,448.436,164.8Z"/><path id="cc0f4d2d-a8e6-4bdd-9fe1-bdffc4df21bb" data-name="Pitlane Middle" class="200045d7-d5e2-47eb-91ee-15225904d0aa" d="M640.594,859.065c-.167,16.167-15.093,11.729-15.1,23.731,0,3.5.015,9.416.02,11.416.02,9.251-.083,14.417,14.25,14.584s50.167.166,63.167,0S719.769,919,721.769,926.754s13.109,13.125,12.859,27.375"/><path id="5dc180ba-fc1c-43ad-9ab2-3aedc9b18256" data-name="Pitlane Inner" class="72213b17-6606-45a2-a813-1a9dee0e1ba6" d="M640.594,859.065c-.167,16.167-15.093,11.729-15.1,23.731,0,3.5.015,9.416.02,11.416.02,9.251-.083,14.417,14.25,14.584s50.167.166,63.167,0S719.769,919,721.769,926.754s13.109,13.125,12.859,27.375"/><path id="83c45896-05ee-41f9-a0e4-383c139d2262" data-name="Track Inner" class="7e9abb50-0bfb-42df-bef9-546a6fded1d7" d="M448.436,164.8c42.043,15.179,57,19.666,77.166,27.5s32,34.666,29.834,57.666-11.834,65.5-18.334,83.5-25,20.667-48.833,20.667-54.958-.667-80.625-1-42.288-.976-55.292-1.25c-19.75-.417-25.062,3.863-46.916,3.583-26.042-.333-41.542-.708-58.917-.833s-27.5,3.875-34.125,23.5S182.519,463.629,176.769,480s-2.49,27.486,21,35.875c19.833,7.083,56.1,20.435,76.333,27.25,19.667,6.625,37.5,4.667,45.5-17.167s33.667-93.833,41.917-115.833,25.083-27.5,49.25-18.333,163,62,186,70.666,34.833,10.667,54.5,10.5,37.333-.5,56.333-.833,31.15,8.5,30.5,30.167c-.5,16.666-2.5,51.5-3.333,72s-1.5,33.333-27.167,32.833-33.25-.454-45.5-.333c-17,.166-14.085,24.51-40.958,24.833-20.792.25-40.125,0-58.625.5s-23,8.5-29,25.375S496.269,760.629,490.1,778.629s.834,32.667,35,32.333,64.334-.166,86.834-.5,29.849,6.673,29.333,27.334c-.333,13.333-.833,21.833-.833,31s3,18.166,21.333,18.166c19.833,0,32.667.334,50.167.167s22.833,5,23,20-.556,65.5-.667,78.333c-.167,19.334-6.669,17.843-25.5,17.5-18.333-.333-31.167.167-50.333.667s-22.334,3.833-30,13.333-21,25-29.667,34.834-25.5,5.666-38.5,1.833-49.125-3.125-60.125-2.875-24.875.208-37.708,18.042-22.834,31.166-30.334,39.666-22.833,14.667-41-2.5-38.166-38.833-48.166-57.833-13.417-28-10.667-50.75,3.75-55.5,2.5-80,3-33,28.75-32.5,45.5.509,71.25.75c26.75.25,36.25-16.5,37.75-38,1.451-20.8,9.993-39.982-17.75-50-27-9.75-45.5-16.25-69.75-25.5s-67.5-27.25-95-37.25-42-27.25-28-67.5,23.75-65.75,32.25-89.75-14-34.25-35.25-42.25S103.769,479.8,75.769,469.462s-31-23.547-19.333-56.666C66.769,383.462,81.1,344.462,88.1,322.462s6.667-35-3-57.333-27.712-26.893-38.333-39.75c-14.25-17.25-20.75-29.75-23.75-48.25s-6.5-42.582-10-79c-3-31.25-3.615-47.256-2.5-69,1-19.5,11.448-19.5,30.75-19,19.25.5,25.5,2.25,42.25,8.75s84.25,36,112.25,47,105.75,43.25,126.75,51S416.352,153.212,448.436,164.8Z"/><g id="57e9b638-1589-4e48-8731-32f4aba26f0c" data-name="Crossover"><path id="681b8a2d-0628-4f2f-b3da-ba3273c67de6" data-name="Crossover Outer" class="35507084-3dda-436a-9a32-aec23a19c296" d="M294.3,577.642c8.5-24-14-34.25-35.25-42.25S103.8,479.808,75.8,469.475"/><path id="d9a07f78-7816-4c78-96b1-de45722ecab9" data-name="Crossover Middle" class="200045d7-d5e2-47eb-91ee-15225904d0aa" d="M294.3,577.642c8.5-24-14-34.25-35.25-42.25S103.8,479.808,75.8,469.475"/><path id="2d6d7704-0b13-4e37-8bd5-ad4e817a00b1" data-name="Crossover Inner" class="7e9abb50-0bfb-42df-bef9-546a6fded1d7" d="M294.3,577.642c8.5-24-14-34.25-35.25-42.25S103.8,479.808,75.8,469.475"/></g><use id="a1111aee-a983-4980-8353-1875d44a919e" data-name="Start-Finish-Line" width="200" height="103.617" transform="translate(428.28 180.58) rotate(-69.848) scale(0.217)" xlink:href="#ecc2a377-d719-4570-8c25-78d932e286c1"/></g></g></g></svg>