<svg xmlns="http://www.w3.org/2000/svg" xmlns:xlink="http://www.w3.org/1999/xlink" width="1043.75" height="1300.495" viewBox="0 0 1043.75 1300.495"><defs><style>.\33 f63275a-2bb4-48ad-97f5-aa430f5a4052{fill:#00ff24;}.\33 f63275a-2bb4-48ad-97f5-aa430f5a4052,.cd010844-3e6c-42fa-a605-06ba20cae143{stroke:#000;stroke-width:5px;}.\30 9f49a23-d6ea-48c3-b38b-b501ed27d5a3,.\33 f63275a-2bb4-48ad-97f5-aa430f5a4052,.\39 75ceb49-794e-4440-abca-50261aa059c6,.bfc7830c-4617-4390-84ed-24f42e4d98b6,.c210b44c-e015-4d99-b981-471563e41e7a,.cd010844-3e6c-42fa-a605-06ba20cae143,.d50c3ac4-4e49-4c39-bc63-bdf7771c349e{stroke-miterlimit:10;}.cd010844-3e6c-42fa-a605-06ba20cae143{fill:#fff;}.\30 9f49a23-d6ea-48c3-b38b-b501ed27d5a3,.\39 75ceb49-794e-4440-abca-50261aa059c6,.bfc7830c-4617-4390-84ed-24f42e4d98b6,.c210b44c-e015-4d99-b981-471563e41e7a,.d50c3ac4-4e49-4c39-bc63-bdf7771c349e{fill:none;}.bfc7830c-4617-4390-84ed-24f42e4d98b6,.d50c3ac4-4e49-4c39-bc63-bdf7771c349e{stroke:#c91c1c;}.bfc7830c-4617-4390-84ed-24f42e4d98b6,.c210b44c-e015-4d99-b981-471563e41e7a{stroke-width:20px;}.\39 75ceb49-794e-4440-abca-50261aa059c6,.c210b44c-e015-4d99-b981-471563e41e7a{stroke:#0080ff;}.\30 9f49a23-d6ea-48c3-b38b-b501ed27d5a3{stroke:#fff;stroke-width:12px;}.\39 75ceb49-794e-4440-abca-50261aa059c6,.d50c3ac4-4e49-4c39-bc63-bdf7771c349e{stroke-width:2px;}</style><symbol id="1fa3c97b-cf8d-4c10-ba86-37a8c9e0588d" data-name="fd103434-89f2-4089-acf9-54fed79ed404" viewBox="0 0 200 103.617"><rect class="3f63275a-2bb4-48ad-97f5-aa430f5a4052" x="2.5" y="54.074" width="195" height="47.043"/><rect class="cd010844-3e6c-42fa-a605-06ba20cae143" x="2.5" y="2.5" width="48.75" height="48.75"/><rect class="cd010844-3e6c-42fa-a605-06ba20cae143" x="51.25" y="2.5" width="48.75" height="48.75"/><rect class="cd010844-3e6c-42fa-a605-06ba20cae143" x="100" y="2.5" width="48.75" height="48.75"/><rect class="cd010844-3e6c-42fa-a605-06ba20cae143" x="148.75" y="2.5" width="48.75" height="48.75"/></symbol></defs><title>Mirrors_Reflection</title><g id="de3293d3-44b6-43dd-ad93-544282d432ba" data-name="Layer 2"><g id="7ceeba87-7b0f-4c10-a394-83d4a0ea5a46" data-name="City - Downtown"><g id="f58dc197-a9af-4cf3-9f03-2a5fd28b985e" data-name="Mirrors_Reflection"><path id="b25612cd-9eae-419e-8c51-e50ae36e5240" data-name="Pitlane Outer" class="bfc7830c-4617-4390-84ed-24f42e4d98b6" d="M216.984,437.729c-16.75-6.25-24.473,1.094-26.959,7.724-4.125,11-15.5,41.625-19.125,51.875s-13.125,13.625-23.125,9.875-40.875-15.25-47.625-17.875S86.9,487.078,84.4,493.7s-11.445,22.461.375,26.5C94.65,523.578,118.566,531.5,131.733,536s23.333,8.5,34.333,12.667,10.4,14.827,23.569,20.327"/><path id="b74a6680-d631-4130-b769-e25ec81ac442" data-name="Track Outer" class="c210b44c-e015-4d99-b981-471563e41e7a" d="M500.233,588.828c-23.15,36.5-47.333,80-62.333,104s-64,89-86,116.667-51.434,65.789-65.334,92c-11.666,22-14,26-18.333,39.667s2.667,24.333,21.667,25,56.333.666,79.333.333,27.933,6.678,27,25.333c-1,20-4,77.667-5,98.334s9.333,33,8.667,65-.5,40.166-.5,71.166c0,27,.25,20.5.25,40s11.5,26.5,40.5,23.5,149.72-18.223,186.5-23c19.25-2.5,21.937-5.463,21.5-24.25-.5-21.5-6-47-6.25-72s-.412-130.5,0-166.75c.25-22,11.382-29.686,34.25-13.25,16,11.5,23,19.25,30.25,30.25a462.966,462.966,0,0,0,30,39.75c10.75,13,18.554,23.314,30,36.75,11.5,13.5,26.5,19.557,50,20,26.5.5,114.333-.166,135.5-.333s52.872-.743,62.5-30.292c3.625-11.125,5.375-16.5,7.75-26.625s-1-17.75-20.25-17.75c-16,0-62,.167-78.167,0s-34.108,1.183-54.667-22c-7.833-8.833-20-23.333-27-32.5s-10.731-16.244-11-23.5c-.333-9,7.5-16.666,14.667-19.5s15.12-8.752,16.833-20c2.667-17.5,9.667-58.666,11.167-72S867.066,832,853.066,841.162s-52.046,34.731-65,41.333c-12.916,6.583-24.041,6.958-36.166-.917s-24.5-15.625-25.125-30.125,6-23.75,15.375-28.875,24.5-8.625,36.875-15.25,30.375-15.666,44.375-25.5,64.5-48.833,74-57.5,29.053-8.732,24.833,12.834c-3,15.333-10.5,54.166-12.333,64.5s-2.834,21.333,13.833,20,41.667-3.167,56-4.834,29.667-9.5,33.333-23.5S1029.9,723,1032.9,710s-1.7-21.348-17.834-25.333c-14.166-3.5-21.942-5.655-32.333-7.667-11.833-2.292-24.667-.208-33.833,5.958s-18.187,11.976-30.5-1.75c-7.625-8.5-10.5-11.625-20.5-17.875s-54.5-32.25-67-39.875-25.834-16.291-37.5-24.625-31.667-23.166-40.834-29.333-50.421-31.358-61.5-38.333c-9-5.667-10.833-9.167-5.166-17.834s52-84.5,62.5-100.666,18.84-30.059,23.333-37.5c5.333-8.834,8.5-15-2.5-22.167s-21.5-13.333-30-18.667-14.5-10.5-7.167-18.5,56.834-67,65.834-77.75,61.666-75.25,69.833-86.083,9.945-21.482,28.167-36.5c15.166-12.5,34.833-19,46.5-23s33.49-9.785,43.833-22.833c10.833-13.667,10.5-28.334,7-40s-20-28.167-32.167-14.5-23,26-35,36.833C910.474,66.071,885.733,81,872.4,89.5c-13.5,8.6-24.042,6.716-38.667,9.333-15.833,2.834-27.014,12.2-34.167,20.667-11.833,14-23.5,39.833-31.5,53.667s-21.155,28.809-36.333,35.333c-19,8.167-62,7.833-77.333,16.5s-18.781,17.037-28.167,30.333c-14,19.834-46.917,67.75-58.083,84.25s-23.5,40.451-45.25,54.5c-24,15.5-38.25,20.5-55,27.75s-29.5,7-43.5,20.25-21.25,25.5-24.5,35.5-14.5,15.75-35.75,11-61.75-19-84.5-27.5-70.25-26-91.25-34.25-98.5-37.5-115.5-43.5-24.713-3.516-31.667,16c-5.167,14.5-21.333,57.334-26.333,70S3.733,499.162,24.566,507s89.4,32.558,109.834,40.333c23,8.75,77.284,30.414,105,41.5,25,10,102.25,38.25,127.75,48.75s85,36.75,101.25,44.5,28-8.75,34.25-21.25,14.5-35.75,21.75-51.75,44-97.75,49.666-110.916-7.5-20-14.666-8S514.4,566.5,500.233,588.828Z"/><path id="f7a941d7-9dff-4fe7-8328-1e96196de90f" data-name="Track Middle" class="09f49a23-d6ea-48c3-b38b-b501ed27d5a3" d="M500.233,588.828c-23.15,36.5-47.333,80-62.333,104s-64,89-86,116.667-51.434,65.789-65.334,92c-11.666,22-14,26-18.333,39.667s2.667,24.333,21.667,25,56.333.666,79.333.333,27.933,6.678,27,25.333c-1,20-4,77.667-5,98.334s9.333,33,8.667,65-.5,40.166-.5,71.166c0,27,.25,20.5.25,40s11.5,26.5,40.5,23.5,149.72-18.223,186.5-23c19.25-2.5,21.937-5.463,21.5-24.25-.5-21.5-6-47-6.25-72s-.412-130.5,0-166.75c.25-22,11.382-29.686,34.25-13.25,16,11.5,23,19.25,30.25,30.25a462.966,462.966,0,0,0,30,39.75c10.75,13,18.554,23.314,30,36.75,11.5,13.5,26.5,19.557,50,20,26.5.5,114.333-.166,135.5-.333s52.872-.743,62.5-30.292c3.625-11.125,5.375-16.5,7.75-26.625s-1-17.75-20.25-17.75c-16,0-62,.167-78.167,0s-34.108,1.183-54.667-22c-7.833-8.833-20-23.333-27-32.5s-10.731-16.244-11-23.5c-.333-9,7.5-16.666,14.667-19.5s15.12-8.752,16.833-20c2.667-17.5,9.667-58.666,11.167-72S867.066,832,853.066,841.162s-52.046,34.731-65,41.333c-12.916,6.583-24.041,6.958-36.166-.917s-24.5-15.625-25.125-30.125,6-23.75,15.375-28.875,24.5-8.625,36.875-15.25,30.375-15.666,44.375-25.5,64.5-48.833,74-57.5,29.053-8.732,24.833,12.834c-3,15.333-10.5,54.166-12.333,64.5s-2.834,21.333,13.833,20,41.667-3.167,56-4.834,29.667-9.5,33.333-23.5S1029.9,723,1032.9,710s-1.7-21.348-17.834-25.333c-14.166-3.5-21.942-5.655-32.333-7.667-11.833-2.292-24.667-.208-33.833,5.958s-18.187,11.976-30.5-1.75c-7.625-8.5-10.5-11.625-20.5-17.875s-54.5-32.25-67-39.875-25.834-16.291-37.5-24.625-31.667-23.166-40.834-29.333-50.421-31.358-61.5-38.333c-9-5.667-10.833-9.167-5.166-17.834s52-84.5,62.5-100.666,18.84-30.059,23.333-37.5c5.333-8.834,8.5-15-2.5-22.167s-21.5-13.333-30-18.667-14.5-10.5-7.167-18.5,56.834-67,65.834-77.75,61.666-75.25,69.833-86.083,9.945-21.482,28.167-36.5c15.166-12.5,34.833-19,46.5-23s33.49-9.785,43.833-22.833c10.833-13.667,10.5-28.334,7-40s-20-28.167-32.167-14.5-23,26-35,36.833C910.474,66.071,885.733,81,872.4,89.5c-13.5,8.6-24.042,6.716-38.667,9.333-15.833,2.834-27.014,12.2-34.167,20.667-11.833,14-23.5,39.833-31.5,53.667s-21.155,28.809-36.333,35.333c-19,8.167-62,7.833-77.333,16.5s-18.781,17.037-28.167,30.333c-14,19.834-46.917,67.75-58.083,84.25s-23.5,40.451-45.25,54.5c-24,15.5-38.25,20.5-55,27.75s-29.5,7-43.5,20.25-21.25,25.5-24.5,35.5-14.5,15.75-35.75,11-61.75-19-84.5-27.5-70.25-26-91.25-34.25-98.5-37.5-115.5-43.5-24.713-3.516-31.667,16c-5.167,14.5-21.333,57.334-26.333,70S3.733,499.162,24.566,507s89.4,32.558,109.834,40.333c23,8.75,77.284,30.414,105,41.5,25,10,102.25,38.25,127.75,48.75s85,36.75,101.25,44.5,28-8.75,34.25-21.25,14.5-35.75,21.75-51.75,44-97.75,49.666-110.916-7.5-20-14.666-8S514.4,566.5,500.233,588.828Z"/><path id="adebaba7-de24-40f1-8b0e-9ed40266aed0" data-name="Pitlane Middle" class="09f49a23-d6ea-48c3-b38b-b501ed27d5a3" d="M216.984,437.729c-16.75-6.25-24.473,1.094-26.959,7.724-4.125,11-15.5,41.625-19.125,51.875s-13.125,13.625-23.125,9.875-40.875-15.25-47.625-17.875S86.9,487.078,84.4,493.7s-11.445,22.461.375,26.5C94.65,523.578,118.566,531.5,131.733,536s23.333,8.5,34.333,12.667,10.4,14.827,23.569,20.327"/><path id="e7e8140f-2339-459f-af64-4fe0037be6a4" data-name="Pitlane Inner" class="d50c3ac4-4e49-4c39-bc63-bdf7771c349e" d="M216.984,437.729c-16.75-6.25-24.473,1.094-26.959,7.724-4.125,11-15.5,41.625-19.125,51.875s-13.125,13.625-23.125,9.875-40.875-15.25-47.625-17.875S86.9,487.078,84.4,493.7s-11.445,22.461.375,26.5C94.65,523.578,118.566,531.5,131.733,536s23.333,8.5,34.333,12.667,10.4,14.827,23.569,20.327"/><path id="4de42fa6-5f3e-4dae-8e14-479cbd59f3a9" data-name="Track Inner" class="975ceb49-794e-4440-abca-50261aa059c6" d="M500.233,588.828c-23.15,36.5-47.333,80-62.333,104s-64,89-86,116.667-51.434,65.789-65.334,92c-11.666,22-14,26-18.333,39.667s2.667,24.333,21.667,25,56.333.666,79.333.333,27.933,6.678,27,25.333c-1,20-4,77.667-5,98.334s9.333,33,8.667,65-.5,40.166-.5,71.166c0,27,.25,20.5.25,40s11.5,26.5,40.5,23.5,149.72-18.223,186.5-23c19.25-2.5,21.937-5.463,21.5-24.25-.5-21.5-6-47-6.25-72s-.412-130.5,0-166.75c.25-22,11.382-29.686,34.25-13.25,16,11.5,23,19.25,30.25,30.25a462.966,462.966,0,0,0,30,39.75c10.75,13,18.554,23.314,30,36.75,11.5,13.5,26.5,19.557,50,20,26.5.5,114.333-.166,135.5-.333s52.872-.743,62.5-30.292c3.625-11.125,5.375-16.5,7.75-26.625s-1-17.75-20.25-17.75c-16,0-62,.167-78.167,0s-34.108,1.183-54.667-22c-7.833-8.833-20-23.333-27-32.5s-10.731-16.244-11-23.5c-.333-9,7.5-16.666,14.667-19.5s15.12-8.752,16.833-20c2.667-17.5,9.667-58.666,11.167-72S867.066,832,853.066,841.162s-52.046,34.731-65,41.333c-12.916,6.583-24.041,6.958-36.166-.917s-24.5-15.625-25.125-30.125,6-23.75,15.375-28.875,24.5-8.625,36.875-15.25,30.375-15.666,44.375-25.5,64.5-48.833,74-57.5,29.053-8.732,24.833,12.834c-3,15.333-10.5,54.166-12.333,64.5s-2.834,21.333,13.833,20,41.667-3.167,56-4.834,29.667-9.5,33.333-23.5S1029.9,723,1032.9,710s-1.7-21.348-17.834-25.333c-14.166-3.5-21.942-5.655-32.333-7.667-11.833-2.292-24.667-.208-33.833,5.958s-18.187,11.976-30.5-1.75c-7.625-8.5-10.5-11.625-20.5-17.875s-54.5-32.25-67-39.875-25.834-16.291-37.5-24.625-31.667-23.166-40.834-29.333-50.421-31.358-61.5-38.333c-9-5.667-10.833-9.167-5.166-17.834s52-84.5,62.5-100.666,18.84-30.059,23.333-37.5c5.333-8.834,8.5-15-2.5-22.167s-21.5-13.333-30-18.667-14.5-10.5-7.167-18.5,56.834-67,65.834-77.75,61.666-75.25,69.833-86.083,9.945-21.482,28.167-36.5c15.166-12.5,34.833-19,46.5-23s33.49-9.785,43.833-22.833c10.833-13.667,10.5-28.334,7-40s-20-28.167-32.167-14.5-23,26-35,36.833C910.474,66.071,885.733,81,872.4,89.5c-13.5,8.6-24.042,6.716-38.667,9.333-15.833,2.834-27.014,12.2-34.167,20.667-11.833,14-23.5,39.833-31.5,53.667s-21.155,28.809-36.333,35.333c-19,8.167-62,7.833-77.333,16.5s-18.781,17.037-28.167,30.333c-14,19.834-46.917,67.75-58.083,84.25s-23.5,40.451-45.25,54.5c-24,15.5-38.25,20.5-55,27.75s-29.5,7-43.5,20.25-21.25,25.5-24.5,35.5-14.5,15.75-35.75,11-61.75-19-84.5-27.5-70.25-26-91.25-34.25-98.5-37.5-115.5-43.5-24.713-3.516-31.667,16c-5.167,14.5-21.333,57.334-26.333,70S3.733,499.162,24.566,507s89.4,32.558,109.834,40.333c23,8.75,77.284,30.414,105,41.5,25,10,102.25,38.25,127.75,48.75s85,36.75,101.25,44.5,28-8.75,34.25-21.25,14.5-35.75,21.75-51.75,44-97.75,49.666-110.916-7.5-20-14.666-8S514.4,566.5,500.233,588.828Z"/><g id="b61812fa-bf45-4e8f-86eb-4d598236b829" data-name="Crossover"><path id="084dec06-c384-456e-a1d4-5abd36057e5a" data-name="Crossover Outer" class="c210b44c-e015-4d99-b981-471563e41e7a" d="M367.15,637.573c25.5,10.5,85,36.75,101.25,44.5s28-8.75,34.25-21.25"/><path id="5302c648-a1f1-4e0e-b4eb-23c8c3c6199d" data-name="Crossover Middle" class="09f49a23-d6ea-48c3-b38b-b501ed27d5a3" d="M367.15,637.573c25.5,10.5,85,36.75,101.25,44.5s28-8.75,34.25-21.25"/><path id="d3b83f38-12bb-4afe-9e04-65fafbaa6009" data-name="Crossover Inner" class="975ceb49-794e-4440-abca-50261aa059c6" d="M367.15,637.573c25.5,10.5,85,36.75,101.25,44.5s28-8.75,34.25-21.25"/></g><use id="e1fcb66c-cc2e-49c2-bf8c-6738146b2725" data-name="Start-Finish-Line" width="200" height="103.617" transform="matrix(0.078, -0.202, 0.202, 0.078, 221.949, 605.243)" xlink:href="#1fa3c97b-cf8d-4c10-ba86-37a8c9e0588d"/></g></g></g></svg>