<svg xmlns="http://www.w3.org/2000/svg" xmlns:xlink="http://www.w3.org/1999/xlink" width="441.993" height="591.267" viewBox="0 0 441.993 591.267"><defs><style>.\30 1cd940a-97a3-4205-8ac6-fc043360ce45{fill:#00ff24;}.\30 1cd940a-97a3-4205-8ac6-fc043360ce45,.\36 68b96a7-2a12-45f5-b68f-87c978f5741f{stroke:#000;stroke-width:5px;}.\30 1cd940a-97a3-4205-8ac6-fc043360ce45,.\36 68b96a7-2a12-45f5-b68f-87c978f5741f,.\37 e5b4f41-e93d-47a8-93b6-5e9856af6d6c,.b9450a6c-3c71-4dc4-b5d7-00f2add30439,.d1d851b9-0dda-4a2b-b045-9431d2d7e216,.e1bc49d0-8eaf-4f92-b075-01bd85a2c598,.f93dbb1b-fb7e-4987-8787-f621a92b49ba{stroke-miterlimit:10;}.\36 68b96a7-2a12-45f5-b68f-87c978f5741f{fill:#fff;}.\37 e5b4f41-e93d-47a8-93b6-5e9856af6d6c,.b9450a6c-3c71-4dc4-b5d7-00f2add30439,.d1d851b9-0dda-4a2b-b045-9431d2d7e216,.e1bc49d0-8eaf-4f92-b075-01bd85a2c598,.f93dbb1b-fb7e-4987-8787-f621a92b49ba{fill:none;}.\37 e5b4f41-e93d-47a8-93b6-5e9856af6d6c,.e1bc49d0-8eaf-4f92-b075-01bd85a2c598{stroke:#c91c1c;}.d1d851b9-0dda-4a2b-b045-9431d2d7e216,.e1bc49d0-8eaf-4f92-b075-01bd85a2c598{stroke-width:20px;}.d1d851b9-0dda-4a2b-b045-9431d2d7e216,.f93dbb1b-fb7e-4987-8787-f621a92b49ba{stroke:#0080ff;}.b9450a6c-3c71-4dc4-b5d7-00f2add30439{stroke:#fff;stroke-width:12px;}.\37 e5b4f41-e93d-47a8-93b6-5e9856af6d6c,.f93dbb1b-fb7e-4987-8787-f621a92b49ba{stroke-width:2px;}</style><symbol id="688fe77b-1b77-4fc1-bf08-acf44f7cb9cf" data-name="fd103434-89f2-4089-acf9-54fed79ed404" viewBox="0 0 200 103.617"><rect class="01cd940a-97a3-4205-8ac6-fc043360ce45" x="2.5" y="54.074" width="195" height="47.043"/><rect class="668b96a7-2a12-45f5-b68f-87c978f5741f" x="2.5" y="2.5" width="48.75" height="48.75"/><rect class="668b96a7-2a12-45f5-b68f-87c978f5741f" x="51.25" y="2.5" width="48.75" height="48.75"/><rect class="668b96a7-2a12-45f5-b68f-87c978f5741f" x="100" y="2.5" width="48.75" height="48.75"/><rect class="668b96a7-2a12-45f5-b68f-87c978f5741f" x="148.75" y="2.5" width="48.75" height="48.75"/></symbol></defs><title>Mona_LSIA_-_Update</title><g id="199ec635-12b2-48fc-b0f0-db1c6a7da505" data-name="Layer 2"><g id="08d5be6c-b5e5-4d9e-a120-281cc315133d" data-name="City - Downtown"><g id="918f5343-3ac7-4cde-81b4-42d9beab5faa" data-name="Mona_LSIA_-_Update"><path id="b2147f0e-91d3-4438-8442-a98f7981a194" data-name="Pitlane Outer" class="e1bc49d0-8eaf-4f92-b075-01bd85a2c598" d="M75.409,463.208c5.426-9.524-.26-12.27,3.74-19.52s30.968-53.967,35.343-61.717,9.023-4.881,12.885-11.584"/><path id="ae2e979d-89cc-4636-843c-2bf20329abe7" data-name="Track Outer" class="d1d851b9-0dda-4a2b-b045-9431d2d7e216" d="M134.507,358.372C143.753,343.4,155.536,327,163.215,318.83c7.79-8.288,32.994-31.208,42.792-38.958,3.34-2.643,27.637-21.568,43.125-34.125,23.337-18.921,40.287-33.447,43.75-36.125,9.375-7.25,22.125,3.875,13.375,12.875-3.948,4.06-13.25,12.75-27.25,25.625-11.653,10.716-26.5,24.125-33.375,32.375-18.247,21.9-26.1,38.815-29.625,47.125-6.25,14.75-10.542,34.666-11.292,49.041-.756,14.483.317,32.017,7.167,47.584,6.875,15.625,26.209,53.219,31,67.25,4.666,13.666,19.12,21.247,28.833,2.833,8-15.167,16.023-30.586,25-43.667,5.833-8.5,11.833-16.166,15.5-20.5s9-12.833-3.167-24-65-64.166-76-76S168.382,266,141.882,239.5,36.354,135.031,20.132,118.5c-13-13.25-15.25-30.75,3.75-49.25s28.5-22.5,48.75-32,76-20,97.5-23.5c11.053-1.8,30.809,2.131,40.25,13.75,8.922,10.98,7.838,28.97-2.75,40-18,18.75-30.667,31.166-49.417,50.166s-29.667,30.167-38,39.334c-9.276,10.2-1.612,29.66,15.167,12.666,13-13.166,39.75-39.666,67.5-67.416s56.75-56.5,67.75-67,22.75-23.875,47.75-25.125S357.507,17.5,367.257,24.5s18.458,17.333,28.291,28.166S417.632,77.372,425.257,86.5s10,14.125.625,24-19.667,34.5-31,47.5-31.7,30.319-41.5,41.5c-15.334,17.5-12.5,45.166,3.583,57.083,11.3,8.375,17.124,8.511,26.917,16.25,11.125,8.792,15.75,12.917,23.75,20.042s10.875,16,2,26-67.25,78.125-78.75,90.791A493.291,493.291,0,0,0,299.715,448c-8.833,12-17.5,29-25.5,43.666s-28.5,53.917-38,71.667S209.382,588.663,181.632,572c-21.245-12.76-20.917-22-22.084-33.834s-8.838-21.151-26.166-16c-12.334,3.667-22.838,8.489-39.334,15-9.5,3.75-15.75,6.5-23.75,9.334-10.8,3.825-36.569-9.266-18.791-41C64.882,481.622,85.548,445.33,98.382,423S122.132,378.413,134.507,358.372Z"/><path id="3e7ebe23-3402-442a-8bf1-d7a492dc9bd5" data-name="Pitlane Middle" class="b9450a6c-3c71-4dc4-b5d7-00f2add30439" d="M75.409,463.208c5.426-9.524-.26-12.27,3.74-19.52s30.968-53.967,35.343-61.717,9.023-4.881,12.885-11.584"/><path id="e8ff2c5f-60b4-4a94-a149-79d9dcab05ec" data-name="Track Middle" class="b9450a6c-3c71-4dc4-b5d7-00f2add30439" d="M134.507,358.372C143.753,343.4,155.536,327,163.215,318.83c7.79-8.288,32.994-31.208,42.792-38.958,3.34-2.643,27.637-21.568,43.125-34.125,23.337-18.921,40.287-33.447,43.75-36.125,9.375-7.25,22.125,3.875,13.375,12.875-3.948,4.06-13.25,12.75-27.25,25.625-11.653,10.716-26.5,24.125-33.375,32.375-18.247,21.9-26.1,38.815-29.625,47.125-6.25,14.75-10.542,34.666-11.292,49.041-.756,14.483.317,32.017,7.167,47.584,6.875,15.625,26.209,53.219,31,67.25,4.666,13.666,19.12,21.247,28.833,2.833,8-15.167,16.023-30.586,25-43.667,5.833-8.5,11.833-16.166,15.5-20.5s9-12.833-3.167-24-65-64.166-76-76S168.382,266,141.882,239.5,36.354,135.031,20.132,118.5c-13-13.25-15.25-30.75,3.75-49.25s28.5-22.5,48.75-32,76-20,97.5-23.5c11.053-1.8,30.809,2.131,40.25,13.75,8.922,10.98,7.838,28.97-2.75,40-18,18.75-30.667,31.166-49.417,50.166s-29.667,30.167-38,39.334c-9.276,10.2-1.612,29.66,15.167,12.666,13-13.166,39.75-39.666,67.5-67.416s56.75-56.5,67.75-67,22.75-23.875,47.75-25.125S357.507,17.5,367.257,24.5s18.458,17.333,28.291,28.166S417.632,77.372,425.257,86.5s10,14.125.625,24-19.667,34.5-31,47.5-31.7,30.319-41.5,41.5c-15.334,17.5-12.5,45.166,3.583,57.083,11.3,8.375,17.124,8.511,26.917,16.25,11.125,8.792,15.75,12.917,23.75,20.042s10.875,16,2,26-67.25,78.125-78.75,90.791A493.291,493.291,0,0,0,299.715,448c-8.833,12-17.5,29-25.5,43.666s-28.5,53.917-38,71.667S209.382,588.663,181.632,572c-21.245-12.76-20.917-22-22.084-33.834s-8.838-21.151-26.166-16c-12.334,3.667-22.838,8.489-39.334,15-9.5,3.75-15.75,6.5-23.75,9.334-10.8,3.825-36.569-9.266-18.791-41C64.882,481.622,85.548,445.33,98.382,423S122.132,378.413,134.507,358.372Z"/><path id="ac5307d4-74b0-4cdf-b67c-65512407ddec" data-name="Pitlane Inner" class="7e5b4f41-e93d-47a8-93b6-5e9856af6d6c" d="M75.409,463.208c5.426-9.524-.26-12.27,3.74-19.52s30.968-53.967,35.343-61.717,9.023-4.881,12.885-11.584"/><path id="8ae7e1ab-4390-46e6-9f77-5ed6f2a739c8" data-name="Track Inner" class="f93dbb1b-fb7e-4987-8787-f621a92b49ba" d="M134.507,358.372C143.753,343.4,155.536,327,163.215,318.83c7.79-8.288,32.994-31.208,42.792-38.958,3.34-2.643,27.637-21.568,43.125-34.125,23.337-18.921,40.287-33.447,43.75-36.125,9.375-7.25,22.125,3.875,13.375,12.875-3.948,4.06-13.25,12.75-27.25,25.625-11.653,10.716-26.5,24.125-33.375,32.375-18.247,21.9-26.1,38.815-29.625,47.125-6.25,14.75-10.542,34.666-11.292,49.041-.756,14.483.317,32.017,7.167,47.584,6.875,15.625,26.209,53.219,31,67.25,4.666,13.666,19.12,21.247,28.833,2.833,8-15.167,16.023-30.586,25-43.667,5.833-8.5,11.833-16.166,15.5-20.5s9-12.833-3.167-24-65-64.166-76-76S168.382,266,141.882,239.5,36.354,135.031,20.132,118.5c-13-13.25-15.25-30.75,3.75-49.25s28.5-22.5,48.75-32,76-20,97.5-23.5c11.053-1.8,30.809,2.131,40.25,13.75,8.922,10.98,7.838,28.97-2.75,40-18,18.75-30.667,31.166-49.417,50.166s-29.667,30.167-38,39.334c-9.276,10.2-1.612,29.66,15.167,12.666,13-13.166,39.75-39.666,67.5-67.416s56.75-56.5,67.75-67,22.75-23.875,47.75-25.125S357.507,17.5,367.257,24.5s18.458,17.333,28.291,28.166S417.632,77.372,425.257,86.5s10,14.125.625,24-19.667,34.5-31,47.5-31.7,30.319-41.5,41.5c-15.334,17.5-12.5,45.166,3.583,57.083,11.3,8.375,17.124,8.511,26.917,16.25,11.125,8.792,15.75,12.917,23.75,20.042s10.875,16,2,26-67.25,78.125-78.75,90.791A493.291,493.291,0,0,0,299.715,448c-8.833,12-17.5,29-25.5,43.666s-28.5,53.917-38,71.667S209.382,588.663,181.632,572c-21.245-12.76-20.917-22-22.084-33.834s-8.838-21.151-26.166-16c-12.334,3.667-22.838,8.489-39.334,15-9.5,3.75-15.75,6.5-23.75,9.334-10.8,3.825-36.569-9.266-18.791-41C64.882,481.622,85.548,445.33,98.382,423S122.132,378.413,134.507,358.372Z"/><g id="9b40c949-3d6a-4eb9-a228-1a0440a339df" data-name="Crossover"><path id="43edb86b-28f0-430f-afe2-167eb7d034b4" data-name="Track Inner" class="d1d851b9-0dda-4a2b-b045-9431d2d7e216" d="M163.236,318.83c7.79-8.288,32.994-31.208,42.791-38.958,3.341-2.643,27.637-21.568,43.125-34.125,23.338-18.921,40.288-33.447,43.75-36.125,9.375-7.25,22.125,3.875,13.375,12.875-3.947,4.06-13.25,12.75-27.25,25.625-11.652,10.716-26.5,24.125-33.375,32.375-18.246,21.9-26.1,38.815-29.625,47.125-6.25,14.75-10.541,34.666-11.291,49.041"/><path id="7623321b-420b-45e3-a998-c5ccf82e450e" data-name="Track Inner" class="b9450a6c-3c71-4dc4-b5d7-00f2add30439" d="M163.236,318.83c7.79-8.288,32.994-31.208,42.791-38.958,3.341-2.643,27.637-21.568,43.125-34.125,23.338-18.921,40.288-33.447,43.75-36.125,9.375-7.25,22.125,3.875,13.375,12.875-3.947,4.06-13.25,12.75-27.25,25.625-11.652,10.716-26.5,24.125-33.375,32.375-18.246,21.9-26.1,38.815-29.625,47.125-6.25,14.75-10.541,34.666-11.291,49.041"/><path id="42392ebc-4301-4840-9761-2fe8328533f8" data-name="Track Inner" class="f93dbb1b-fb7e-4987-8787-f621a92b49ba" d="M163.236,318.83c7.79-8.288,32.994-31.208,42.791-38.958,3.341-2.643,27.637-21.568,43.125-34.125,23.338-18.921,40.288-33.447,43.75-36.125,9.375-7.25,22.125,3.875,13.375,12.875-3.947,4.06-13.25,12.75-27.25,25.625-11.652,10.716-26.5,24.125-33.375,32.375-18.246,21.9-26.1,38.815-29.625,47.125-6.25,14.75-10.541,34.666-11.291,49.041"/></g><g id="dc6f4fa7-f205-4098-851b-5e866e5fdd54" data-name="Crossover"><path id="7630c9f6-6130-4e03-a54e-a7bb432f04f3" data-name="Crossover Outer" class="d1d851b9-0dda-4a2b-b045-9431d2d7e216" d="M409.632,318.872c-8.875,10-67.25,78.125-78.75,90.791A493.291,493.291,0,0,0,299.715,448c-8.833,12-17.5,29-25.5,43.666s-23.583,45.084-33.083,62.834"/><path id="4f8cd5d0-5ed9-4c1e-a9de-07860d874cf6" data-name="Crossover Middle" class="b9450a6c-3c71-4dc4-b5d7-00f2add30439" d="M409.632,318.872c-8.875,10-67.25,78.125-78.75,90.791A493.291,493.291,0,0,0,299.715,448c-8.833,12-17.5,29-25.5,43.666s-23.583,45.084-33.083,62.834"/><path id="93afa488-4c32-4560-9541-e2ece835344b" data-name="Crossover Inner" class="f93dbb1b-fb7e-4987-8787-f621a92b49ba" d="M409.632,318.872c-8.875,10-67.25,78.125-78.75,90.791A493.291,493.291,0,0,0,299.715,448c-8.833,12-17.5,29-25.5,43.666s-23.583,45.084-33.083,62.834"/></g><use id="0b7f5c92-c613-41cc-a162-8062de8b8093" data-name="Start-Finish-Line" width="200" height="103.617" transform="translate(147.339 378.945) rotate(-149.229) scale(0.217)" xlink:href="#688fe77b-1b77-4fc1-bf08-acf44f7cb9cf"/></g></g></g></svg>