<svg xmlns="http://www.w3.org/2000/svg" xmlns:xlink="http://www.w3.org/1999/xlink" width="441.993" height="587.208" viewBox="0 0 441.993 587.208"><defs><style>.f391084e-0e27-4e66-96e7-c6b6254ecf51{fill:#00ff24;}.d1471f30-58f1-449d-b21e-f5743896bba7,.f391084e-0e27-4e66-96e7-c6b6254ecf51{stroke:#000;stroke-width:5px;}.\31 7aa3b79-7823-44ed-a465-1d3cd1ad1859,.\32 25fc10b-5d6c-46af-a97b-200be2753897,.\33 808f327-ba25-4936-ad5a-12d31343f178,.\35 432c10e-486e-4368-b6a1-a7c1819cc44c,.ab050be3-3362-4df8-b22f-9bc95801fbbe,.d1471f30-58f1-449d-b21e-f5743896bba7,.f391084e-0e27-4e66-96e7-c6b6254ecf51{stroke-miterlimit:10;}.d1471f30-58f1-449d-b21e-f5743896bba7{fill:#fff;}.\31 7aa3b79-7823-44ed-a465-1d3cd1ad1859,.\32 25fc10b-5d6c-46af-a97b-200be2753897,.\33 808f327-ba25-4936-ad5a-12d31343f178,.\35 432c10e-486e-4368-b6a1-a7c1819cc44c,.ab050be3-3362-4df8-b22f-9bc95801fbbe{fill:none;}.\31 7aa3b79-7823-44ed-a465-1d3cd1ad1859,.\32 25fc10b-5d6c-46af-a97b-200be2753897{stroke:#c91c1c;}.\32 25fc10b-5d6c-46af-a97b-200be2753897,.\35 432c10e-486e-4368-b6a1-a7c1819cc44c{stroke-width:20px;}.\35 432c10e-486e-4368-b6a1-a7c1819cc44c,.ab050be3-3362-4df8-b22f-9bc95801fbbe{stroke:#0080ff;}.\33 808f327-ba25-4936-ad5a-12d31343f178{stroke:#fff;stroke-width:12px;}.\31 7aa3b79-7823-44ed-a465-1d3cd1ad1859,.ab050be3-3362-4df8-b22f-9bc95801fbbe{stroke-width:2px;}</style><symbol id="d8dd17a9-75bf-43be-ad70-5b5d9459cea0" data-name="fd103434-89f2-4089-acf9-54fed79ed404" viewBox="0 0 200 103.617"><rect class="f391084e-0e27-4e66-96e7-c6b6254ecf51" x="2.5" y="54.074" width="195" height="47.043"/><rect class="d1471f30-58f1-449d-b21e-f5743896bba7" x="2.5" y="2.5" width="48.75" height="48.75"/><rect class="d1471f30-58f1-449d-b21e-f5743896bba7" x="51.25" y="2.5" width="48.75" height="48.75"/><rect class="d1471f30-58f1-449d-b21e-f5743896bba7" x="100" y="2.5" width="48.75" height="48.75"/><rect class="d1471f30-58f1-449d-b21e-f5743896bba7" x="148.75" y="2.5" width="48.75" height="48.75"/></symbol></defs><title>Mona_LSIA</title><g id="c6fc8f1e-5370-48aa-94d7-1bf3af98c158" data-name="Layer 2"><g id="9b61f572-d308-4188-b1c8-1787b3f2b814" data-name="City - Downtown"><g id="a57fb9f6-a1f0-4415-850b-5fef6389b185" data-name="Mona_LSIA"><path id="bed0613c-a3ab-480b-8641-aca5cd5073f2" data-name="Pitlane Outer" class="225fc10b-5d6c-46af-a97b-200be2753897" d="M75.409,463.208c5.426-9.524-.26-12.27,3.74-19.52s30.968-53.967,35.343-61.717,9.023-4.881,12.885-11.584"/><path id="76234910-8136-42a8-92ff-639f49991cc9" data-name="Track Outer" class="5432c10e-486e-4368-b6a1-a7c1819cc44c" d="M134.507,358.372C143.753,343.4,155.536,327,163.215,318.83c7.79-8.288,32.994-31.208,42.792-38.958,8.375-6.625,13.736-11.017,19.375-15.625,13-10.625,31.535,3.408,19.5,18.625-10.875,13.75-21.431,27.181-28.875,44.75-6.25,14.75-10.542,34.666-11.292,49.041-.756,14.483.317,32.017,7.167,47.584,6.875,15.625,26.209,53.219,31,67.25,4.666,13.666,19.12,21.247,28.833,2.833,8-15.167,16.023-30.586,25-43.667,5.833-8.5,11.833-16.166,15.5-20.5s9-12.833-3.167-24-65-64.166-76-76S168.382,266,141.882,239.5,36.354,135.031,20.132,118.5c-13-13.25-15.25-30.75,3.75-49.25s28.5-22.5,48.75-32,76-20,97.5-23.5c11.053-1.8,30.809,2.131,40.25,13.75,8.922,10.98,7.838,28.97-2.75,40-18,18.75-30.667,31.166-49.417,50.166s-29.667,30.167-38,39.334c-9.276,10.2-1.612,29.66,15.167,12.666,13-13.166,39.75-39.666,67.5-67.416s56.75-56.5,67.75-67,22.75-23.875,47.75-25.125S357.507,17.5,367.257,24.5s18.458,17.333,28.291,28.166S417.632,77.372,425.257,86.5s10,14.125.625,24-17.167,33-28.5,46-32.037,35.319-41.834,46.5c-15.333,17.5-10.075,45.133,1.417,53.583,11.333,8.333,17.124,8.511,26.917,16.25,11.125,8.792,15.75,12.917,23.75,20.042s10.875,16,2,26-67.25,78.125-78.75,90.791A493.291,493.291,0,0,0,299.715,448c-8.833,12-17.5,29-25.5,43.666s-23.583,45.084-33.083,62.834-38.25,30.25-59.5,17.5-20.917-22-22.084-33.834-8.838-21.151-26.166-16c-12.334,3.667-22.838,8.489-39.334,15-9.5,3.75-15.75,6.5-23.75,9.334-10.8,3.825-36.569-9.266-18.791-41C64.882,481.622,85.548,445.33,98.382,423S122.132,378.413,134.507,358.372Z"/><path id="42d967e3-7b55-4873-927f-44900a7212e7" data-name="Pitlane Middle" class="3808f327-ba25-4936-ad5a-12d31343f178" d="M75.409,463.208c5.426-9.524-.26-12.27,3.74-19.52s30.968-53.967,35.343-61.717,9.023-4.881,12.885-11.584"/><path id="7211a376-ef6d-4e9d-bdf1-8f73bc427968" data-name="Track Middle" class="3808f327-ba25-4936-ad5a-12d31343f178" d="M134.507,358.372C143.753,343.4,155.536,327,163.215,318.83c7.79-8.288,32.994-31.208,42.792-38.958,8.375-6.625,13.736-11.017,19.375-15.625,13-10.625,31.535,3.408,19.5,18.625-10.875,13.75-21.431,27.181-28.875,44.75-6.25,14.75-10.542,34.666-11.292,49.041-.756,14.483.317,32.017,7.167,47.584,6.875,15.625,26.209,53.219,31,67.25,4.666,13.666,19.12,21.247,28.833,2.833,8-15.167,16.023-30.586,25-43.667,5.833-8.5,11.833-16.166,15.5-20.5s9-12.833-3.167-24-65-64.166-76-76S168.382,266,141.882,239.5,36.354,135.031,20.132,118.5c-13-13.25-15.25-30.75,3.75-49.25s28.5-22.5,48.75-32,76-20,97.5-23.5c11.053-1.8,30.809,2.131,40.25,13.75,8.922,10.98,7.838,28.97-2.75,40-18,18.75-30.667,31.166-49.417,50.166s-29.667,30.167-38,39.334c-9.276,10.2-1.612,29.66,15.167,12.666,13-13.166,39.75-39.666,67.5-67.416s56.75-56.5,67.75-67,22.75-23.875,47.75-25.125S357.507,17.5,367.257,24.5s18.458,17.333,28.291,28.166S417.632,77.372,425.257,86.5s10,14.125.625,24-17.167,33-28.5,46-32.037,35.319-41.834,46.5c-15.333,17.5-10.075,45.133,1.417,53.583,11.333,8.333,17.124,8.511,26.917,16.25,11.125,8.792,15.75,12.917,23.75,20.042s10.875,16,2,26-67.25,78.125-78.75,90.791A493.291,493.291,0,0,0,299.715,448c-8.833,12-17.5,29-25.5,43.666s-23.583,45.084-33.083,62.834-38.25,30.25-59.5,17.5-20.917-22-22.084-33.834-8.838-21.151-26.166-16c-12.334,3.667-22.838,8.489-39.334,15-9.5,3.75-15.75,6.5-23.75,9.334-10.8,3.825-36.569-9.266-18.791-41C64.882,481.622,85.548,445.33,98.382,423S122.132,378.413,134.507,358.372Z"/><path id="ccd6f9c5-e7af-4c13-bcf0-65e1f560efdf" data-name="Pitlane Inner" class="17aa3b79-7823-44ed-a465-1d3cd1ad1859" d="M75.409,463.208c5.426-9.524-.26-12.27,3.74-19.52s30.968-53.967,35.343-61.717,9.023-4.881,12.885-11.584"/><path id="63b2071c-4c3b-4dba-88c0-40468d6f4250" data-name="Track Inner" class="ab050be3-3362-4df8-b22f-9bc95801fbbe" d="M134.507,358.372C143.753,343.4,155.536,327,163.215,318.83c7.79-8.288,32.994-31.208,42.792-38.958,8.375-6.625,13.736-11.017,19.375-15.625,13-10.625,31.535,3.408,19.5,18.625-10.875,13.75-21.431,27.181-28.875,44.75-6.25,14.75-10.542,34.666-11.292,49.041-.756,14.483.317,32.017,7.167,47.584,6.875,15.625,26.209,53.219,31,67.25,4.666,13.666,19.12,21.247,28.833,2.833,8-15.167,16.023-30.586,25-43.667,5.833-8.5,11.833-16.166,15.5-20.5s9-12.833-3.167-24-65-64.166-76-76S168.382,266,141.882,239.5,36.354,135.031,20.132,118.5c-13-13.25-15.25-30.75,3.75-49.25s28.5-22.5,48.75-32,76-20,97.5-23.5c11.053-1.8,30.809,2.131,40.25,13.75,8.922,10.98,7.838,28.97-2.75,40-18,18.75-30.667,31.166-49.417,50.166s-29.667,30.167-38,39.334c-9.276,10.2-1.612,29.66,15.167,12.666,13-13.166,39.75-39.666,67.5-67.416s56.75-56.5,67.75-67,22.75-23.875,47.75-25.125S357.507,17.5,367.257,24.5s18.458,17.333,28.291,28.166S417.632,77.372,425.257,86.5s10,14.125.625,24-17.167,33-28.5,46-32.037,35.319-41.834,46.5c-15.333,17.5-10.075,45.133,1.417,53.583,11.333,8.333,17.124,8.511,26.917,16.25,11.125,8.792,15.75,12.917,23.75,20.042s10.875,16,2,26-67.25,78.125-78.75,90.791A493.291,493.291,0,0,0,299.715,448c-8.833,12-17.5,29-25.5,43.666s-23.583,45.084-33.083,62.834-38.25,30.25-59.5,17.5-20.917-22-22.084-33.834-8.838-21.151-26.166-16c-12.334,3.667-22.838,8.489-39.334,15-9.5,3.75-15.75,6.5-23.75,9.334-10.8,3.825-36.569-9.266-18.791-41C64.882,481.622,85.548,445.33,98.382,423S122.132,378.413,134.507,358.372Z"/><g id="1dbb75bc-adf2-42f5-8d16-511ab7946c63" data-name="Crossover"><path id="11ba1d78-9fdd-467a-a667-2a798b0a02d2" data-name="Crossover Outer" class="5432c10e-486e-4368-b6a1-a7c1819cc44c" d="M163.215,318.83c7.79-8.288,32.994-31.208,42.792-38.958,8.375-6.625,13.736-11.017,19.375-15.625,13-10.625,31.535,3.408,19.5,18.625-10.875,13.75-21.431,27.181-28.875,44.75-6.25,14.75-10.542,34.666-11.292,49.041"/><path id="b440569d-7946-4b2c-baa5-fd63f5e86b32" data-name="Crossover Middle" class="3808f327-ba25-4936-ad5a-12d31343f178" d="M163.215,318.83c7.79-8.288,32.994-31.208,42.792-38.958,8.375-6.625,13.736-11.017,19.375-15.625,13-10.625,31.535,3.408,19.5,18.625-10.875,13.75-21.431,27.181-28.875,44.75-6.25,14.75-10.542,34.666-11.292,49.041"/><path id="3f355e84-8af1-43e3-9b30-5b1b69ebff1b" data-name="Crossover Inner" class="ab050be3-3362-4df8-b22f-9bc95801fbbe" d="M163.215,318.83c7.79-8.288,32.994-31.208,42.792-38.958,8.375-6.625,13.736-11.017,19.375-15.625,13-10.625,31.535,3.408,19.5,18.625-10.875,13.75-21.431,27.181-28.875,44.75-6.25,14.75-10.542,34.666-11.292,49.041"/></g><g id="008642cb-8ddd-47f6-978e-3a9816aaf4f6" data-name="Crossover"><path id="5481fdfc-c767-4bf0-b411-65a812422601" data-name="Crossover Outer" class="5432c10e-486e-4368-b6a1-a7c1819cc44c" d="M409.632,318.872c-8.875,10-67.25,78.125-78.75,90.791A493.291,493.291,0,0,0,299.715,448c-8.833,12-17.5,29-25.5,43.666s-23.583,45.084-33.083,62.834"/><path id="b15537fd-9023-4dd0-81f2-c6c2b3066d30" data-name="Crossover Middle" class="3808f327-ba25-4936-ad5a-12d31343f178" d="M409.632,318.872c-8.875,10-67.25,78.125-78.75,90.791A493.291,493.291,0,0,0,299.715,448c-8.833,12-17.5,29-25.5,43.666s-23.583,45.084-33.083,62.834"/><path id="118e1c42-a89d-4773-a6bc-57831a73eaf1" data-name="Crossover Inner" class="ab050be3-3362-4df8-b22f-9bc95801fbbe" d="M409.632,318.872c-8.875,10-67.25,78.125-78.75,90.791A493.291,493.291,0,0,0,299.715,448c-8.833,12-17.5,29-25.5,43.666s-23.583,45.084-33.083,62.834"/></g><use id="b3dafa6a-9a4d-4cff-91df-8c766ed71043" data-name="Start-Finish-Line" width="200" height="103.617" transform="translate(147.339 378.945) rotate(-149.229) scale(0.217)" xlink:href="#d8dd17a9-75bf-43be-ad70-5b5d9459cea0"/></g></g></g></svg>