<svg xmlns="http://www.w3.org/2000/svg" xmlns:xlink="http://www.w3.org/1999/xlink" width="453.808" height="673.879" viewBox="0 0 453.808 673.879"><defs><style>.ae5dc010-0314-4532-8a73-0984e7b6cbce{fill:#00ff24;}.\39 117bbf2-9ccc-4c5d-af57-171f7908a595,.ae5dc010-0314-4532-8a73-0984e7b6cbce{stroke:#000;stroke-width:5px;}.\33 42af5c8-55d5-40f2-8304-bac9149fdff0,.\36 c4ca445-6e25-43d7-b6f9-7b98ab9dfdd9,.\37 17cf0fd-c47c-441d-8846-d3ab757236bc,.\39 117bbf2-9ccc-4c5d-af57-171f7908a595,.aa8d4bbc-85a4-4634-b5d9-e49e92333afd,.ae5dc010-0314-4532-8a73-0984e7b6cbce,.d4def294-4172-468b-96c2-ccc3025737ac{stroke-miterlimit:10;}.\39 117bbf2-9ccc-4c5d-af57-171f7908a595{fill:#fff;}.\33 42af5c8-55d5-40f2-8304-bac9149fdff0,.\36 c4ca445-6e25-43d7-b6f9-7b98ab9dfdd9,.\37 17cf0fd-c47c-441d-8846-d3ab757236bc,.aa8d4bbc-85a4-4634-b5d9-e49e92333afd,.d4def294-4172-468b-96c2-ccc3025737ac{fill:none;}.\36 c4ca445-6e25-43d7-b6f9-7b98ab9dfdd9,.d4def294-4172-468b-96c2-ccc3025737ac{stroke:#c91c1c;}.\37 17cf0fd-c47c-441d-8846-d3ab757236bc,.d4def294-4172-468b-96c2-ccc3025737ac{stroke-width:20px;}.\33 42af5c8-55d5-40f2-8304-bac9149fdff0,.\37 17cf0fd-c47c-441d-8846-d3ab757236bc{stroke:#0080ff;}.aa8d4bbc-85a4-4634-b5d9-e49e92333afd{stroke:#fff;stroke-width:12px;}.\33 42af5c8-55d5-40f2-8304-bac9149fdff0,.\36 c4ca445-6e25-43d7-b6f9-7b98ab9dfdd9{stroke-width:2px;}</style><symbol id="72d57f9f-c3d4-46b3-8f0c-77c04f08f0d6" data-name="fd103434-89f2-4089-acf9-54fed79ed404" viewBox="0 0 200 103.617"><rect class="ae5dc010-0314-4532-8a73-0984e7b6cbce" x="2.5" y="54.074" width="195" height="47.043"/><rect class="9117bbf2-9ccc-4c5d-af57-171f7908a595" x="2.5" y="2.5" width="48.75" height="48.75"/><rect class="9117bbf2-9ccc-4c5d-af57-171f7908a595" x="51.25" y="2.5" width="48.75" height="48.75"/><rect class="9117bbf2-9ccc-4c5d-af57-171f7908a595" x="100" y="2.5" width="48.75" height="48.75"/><rect class="9117bbf2-9ccc-4c5d-af57-171f7908a595" x="148.75" y="2.5" width="48.75" height="48.75"/></symbol></defs><title>New_Empire_Raceway</title><g id="df9bc3dc-96ff-4ae6-8cbc-cf635d257113" data-name="Layer 2"><g id="31ae1b57-9961-46f6-b5fe-97a3bb479144" data-name="City - Downtown"><g id="0fd5a628-046e-4915-a84a-c3ebc0bd5a7c" data-name="New_Empire_Raceway"><path id="61fb7d62-4892-4ff2-b10b-ab3b392c612b" data-name="Pitlane Outer" class="d4def294-4172-468b-96c2-ccc3025737ac" d="M363.065,188.035c-16.125-.375-43.294,6.381-58.666,6.042-28.375-.625-36.56-21.946-24.375-33.25,10.375-9.625,29.4-23.148,39.771-27.773"/><path id="4640eb4c-3029-4946-b0a4-6c7b215e53a4" data-name="Track Outer" class="717cf0fd-c47c-441d-8846-d3ab757236bc" d="M216.566,587.911c-10.551,19.985-13,31.333-22.5,48.333S156.9,666.577,128.4,663.411c-27.241-3.027-46.387-13.11-65.5-24.167-20.167-11.667-42.167-24.667-48.5-41.833s-6.333-33.5,3.333-51.5S95.9,411.244,103.9,398.244s15-22.167,30.333-26.833,28.834-3.5,38.167.666,17.333,13.167,7.333,22.5-15.666,14.167-29.666,17a52.834,52.834,0,0,0-35,24.667c-8.167,13.5-10,32.333-4.667,45.5s14.333,23,21.667,27.333,24.666,10.167,38.666,5.834,24.667-10.5,30.834-18.167c6.888-8.564,11.5-20.667,11.333-32.167s-3.5-18.833-5.333-28.5-.4-17.754,3.333-27.333c3.833-9.833,10-13.667,18.5-7.667a69.725,69.725,0,0,1,20.417,22.584c5.583,9.75,16.4,9.75,22.75,9.75,6.833,0,10.744-3.19,19.166-19.334a416.909,416.909,0,0,1,23.167-39c6.833-10.166,19.333-23.833,27.333-32.666s62-71.667,76.334-88.334,9.833-27.5-1.334-37.833-16.666-15-22.166-19.667-10.5-8.333-29-8.5-40.883-2-50.334-15.5c-9.333-13.333-7.333-29,.334-36.833s22.413-4.249,32.666,6.167c10.5,10.666,26.131,17.774,39.167,3.333,17-18.833,40.5-44.167,50.5-55.333s5.347-17.649-7.5-28.834c-14.167-12.333-22.833-11-39-10.833s-38.667,1-58.333,1.333-25.334-5.333-42.334-15.833S268.9,20.411,259.566,14.577s-17.343-8.342-32,6.5c-13.167,13.334-81.5,81.334-92,92.167s-13.168,19.166-.334,32c10.834,10.833,81.417,81.833,107.417,107.583s66.75,66.084,77.25,76.417,31.5,26.833,12.333,60.333-55.583,95.5-63.583,109S225.232,571.494,216.566,587.911Z"/><path id="e23f1ad0-0c5f-401b-8cab-afd73cc922e8" data-name="Pitlane Middle" class="aa8d4bbc-85a4-4634-b5d9-e49e92333afd" d="M363.065,188.035c-16.125-.375-43.294,6.381-58.666,6.042-28.375-.625-36.56-21.946-24.375-33.25,10.375-9.625,29.4-23.148,39.771-27.773"/><path id="c15c6b8d-b411-4e94-9f80-6aec122f771e" data-name="Track Middle" class="aa8d4bbc-85a4-4634-b5d9-e49e92333afd" d="M216.566,587.911c-10.551,19.985-13,31.333-22.5,48.333S156.9,666.577,128.4,663.411c-27.241-3.027-46.387-13.11-65.5-24.167-20.167-11.667-42.167-24.667-48.5-41.833s-6.333-33.5,3.333-51.5S95.9,411.244,103.9,398.244s15-22.167,30.333-26.833,28.834-3.5,38.167.666,17.333,13.167,7.333,22.5-15.666,14.167-29.666,17a52.834,52.834,0,0,0-35,24.667c-8.167,13.5-10,32.333-4.667,45.5s14.333,23,21.667,27.333,24.666,10.167,38.666,5.834,24.667-10.5,30.834-18.167c6.888-8.564,11.5-20.667,11.333-32.167s-3.5-18.833-5.333-28.5-.4-17.754,3.333-27.333c3.833-9.833,10-13.667,18.5-7.667a69.725,69.725,0,0,1,20.417,22.584c5.583,9.75,16.4,9.75,22.75,9.75,6.833,0,10.744-3.19,19.166-19.334a416.909,416.909,0,0,1,23.167-39c6.833-10.166,19.333-23.833,27.333-32.666s62-71.667,76.334-88.334,9.833-27.5-1.334-37.833-16.666-15-22.166-19.667-10.5-8.333-29-8.5-40.883-2-50.334-15.5c-9.333-13.333-7.333-29,.334-36.833s22.413-4.249,32.666,6.167c10.5,10.666,26.131,17.774,39.167,3.333,17-18.833,40.5-44.167,50.5-55.333s5.347-17.649-7.5-28.834c-14.167-12.333-22.833-11-39-10.833s-38.667,1-58.333,1.333-25.334-5.333-42.334-15.833S268.9,20.411,259.566,14.577s-17.343-8.342-32,6.5c-13.167,13.334-81.5,81.334-92,92.167s-13.168,19.166-.334,32c10.834,10.833,81.417,81.833,107.417,107.583s66.75,66.084,77.25,76.417,31.5,26.833,12.333,60.333-55.583,95.5-63.583,109S225.232,571.494,216.566,587.911Z"/><path id="28a15b0f-e609-4a9f-ac6b-e65c892221f0" data-name="Pitlane Inner" class="6c4ca445-6e25-43d7-b6f9-7b98ab9dfdd9" d="M363.065,188.035c-16.125-.375-43.294,6.381-58.666,6.042-28.375-.625-36.56-21.946-24.375-33.25,10.375-9.625,29.4-23.148,39.771-27.773"/><path id="33f80ffa-cd33-40a5-9694-f45c5e89841b" data-name="Track Inner" class="342af5c8-55d5-40f2-8304-bac9149fdff0" d="M216.566,587.911c-10.551,19.985-13,31.333-22.5,48.333S156.9,666.577,128.4,663.411c-27.241-3.027-46.387-13.11-65.5-24.167-20.167-11.667-42.167-24.667-48.5-41.833s-6.333-33.5,3.333-51.5S95.9,411.244,103.9,398.244s15-22.167,30.333-26.833,28.834-3.5,38.167.666,17.333,13.167,7.333,22.5-15.666,14.167-29.666,17a52.834,52.834,0,0,0-35,24.667c-8.167,13.5-10,32.333-4.667,45.5s14.333,23,21.667,27.333,24.666,10.167,38.666,5.834,24.667-10.5,30.834-18.167c6.888-8.564,11.5-20.667,11.333-32.167s-3.5-18.833-5.333-28.5-.4-17.754,3.333-27.333c3.833-9.833,10-13.667,18.5-7.667a69.725,69.725,0,0,1,20.417,22.584c5.583,9.75,16.4,9.75,22.75,9.75,6.833,0,10.744-3.19,19.166-19.334a416.909,416.909,0,0,1,23.167-39c6.833-10.166,19.333-23.833,27.333-32.666s62-71.667,76.334-88.334,9.833-27.5-1.334-37.833-16.666-15-22.166-19.667-10.5-8.333-29-8.5-40.883-2-50.334-15.5c-9.333-13.333-7.333-29,.334-36.833s22.413-4.249,32.666,6.167c10.5,10.666,26.131,17.774,39.167,3.333,17-18.833,40.5-44.167,50.5-55.333s5.347-17.649-7.5-28.834c-14.167-12.333-22.833-11-39-10.833s-38.667,1-58.333,1.333-25.334-5.333-42.334-15.833S268.9,20.411,259.566,14.577s-17.343-8.342-32,6.5c-13.167,13.334-81.5,81.334-92,92.167s-13.168,19.166-.334,32c10.834,10.833,81.417,81.833,107.417,107.583s66.75,66.084,77.25,76.417,31.5,26.833,12.333,60.333-55.583,95.5-63.583,109S225.232,571.494,216.566,587.911Z"/><g id="51cba02c-a47c-44a1-b324-5f024c004e30" data-name="Crossover"><path id="7612a9bc-0503-4592-bc54-a577fac929a6" data-name="Track Outer" class="717cf0fd-c47c-441d-8846-d3ab757236bc" d="M319.9,329.2c10.5,10.334,31.5,26.834,12.333,60.334"/><path id="1603fc7e-a244-4796-95c8-4c4df4bbdc51" data-name="Track Middle" class="aa8d4bbc-85a4-4634-b5d9-e49e92333afd" d="M319.9,329.2c10.5,10.334,31.5,26.834,12.333,60.334"/><path id="679eeca6-69be-421f-b789-5ce7a722aadd" data-name="Track Inner" class="342af5c8-55d5-40f2-8304-bac9149fdff0" d="M319.9,329.2c10.5,10.334,31.5,26.834,12.333,60.334"/></g><use id="39a62354-c6c5-486b-bc8a-bb85b5d793c2" data-name="Start-Finish-Line" width="200" height="103.617" transform="matrix(-0.19, -0.104, 0.104, -0.19, 232.015, 604.962)" xlink:href="#72d57f9f-c3d4-46b3-8f0c-77c04f08f0d6"/></g></g></g></svg>