<svg xmlns="http://www.w3.org/2000/svg" xmlns:xlink="http://www.w3.org/1999/xlink" width="679.594" height="829.554" viewBox="0 0 679.594 829.554"><defs><style>.\35 596fdd5-949e-4ddf-b155-69b002b985f2{fill:#00ff24;}.\35 596fdd5-949e-4ddf-b155-69b002b985f2,.abfbb083-ccb4-41d9-891a-a5f2fa8712a6{stroke:#000;stroke-width:5px;}.\33 6d08640-99f0-44f2-9ffc-70db8e52a31b,.\35 395430f-9af1-40b5-9747-738c8e08f951,.\35 596fdd5-949e-4ddf-b155-69b002b985f2,.abfbb083-ccb4-41d9-891a-a5f2fa8712a6,.ad826341-32d2-4914-ba21-bd22d8adfbcc,.c5abd1e5-f909-4fdb-8014-bb9120bc92b3,.d9794176-6d57-4971-995e-b331c31847fd,.e04bcf32-3559-420b-828b-cfb4480faf69{stroke-miterlimit:10;}.abfbb083-ccb4-41d9-891a-a5f2fa8712a6{fill:#fff;}.\33 6d08640-99f0-44f2-9ffc-70db8e52a31b,.\35 395430f-9af1-40b5-9747-738c8e08f951,.ad826341-32d2-4914-ba21-bd22d8adfbcc,.c5abd1e5-f909-4fdb-8014-bb9120bc92b3,.d9794176-6d57-4971-995e-b331c31847fd,.e04bcf32-3559-420b-828b-cfb4480faf69{fill:none;}.c5abd1e5-f909-4fdb-8014-bb9120bc92b3,.d9794176-6d57-4971-995e-b331c31847fd{stroke:#c91c1c;}.\35 395430f-9af1-40b5-9747-738c8e08f951,.c5abd1e5-f909-4fdb-8014-bb9120bc92b3{stroke-width:20px;}.\33 6d08640-99f0-44f2-9ffc-70db8e52a31b,.\35 395430f-9af1-40b5-9747-738c8e08f951{stroke:#0080ff;}.ad826341-32d2-4914-ba21-bd22d8adfbcc,.e04bcf32-3559-420b-828b-cfb4480faf69{stroke:#fff;}.ad826341-32d2-4914-ba21-bd22d8adfbcc{stroke-width:12px;}.\33 6d08640-99f0-44f2-9ffc-70db8e52a31b,.d9794176-6d57-4971-995e-b331c31847fd,.e04bcf32-3559-420b-828b-cfb4480faf69{stroke-width:2px;}</style><symbol id="83b4d167-cc58-4f0c-b19d-20f87a38bf77" data-name="fd103434-89f2-4089-acf9-54fed79ed404" viewBox="0 0 200 103.617"><rect class="5596fdd5-949e-4ddf-b155-69b002b985f2" x="2.5" y="54.074" width="195" height="47.043"/><rect class="abfbb083-ccb4-41d9-891a-a5f2fa8712a6" x="2.5" y="2.5" width="48.75" height="48.75"/><rect class="abfbb083-ccb4-41d9-891a-a5f2fa8712a6" x="51.25" y="2.5" width="48.75" height="48.75"/><rect class="abfbb083-ccb4-41d9-891a-a5f2fa8712a6" x="100" y="2.5" width="48.75" height="48.75"/><rect class="abfbb083-ccb4-41d9-891a-a5f2fa8712a6" x="148.75" y="2.5" width="48.75" height="48.75"/></symbol></defs><title>PRS_Flow_water</title><g id="973925f7-1967-4190-b18a-4db03d2633fa" data-name="Layer 2"><g id="f6225936-8b61-4b1f-974f-653cc11a1131" data-name="City - Downtown"><g id="80e1a951-b4f6-4da3-b77f-7b39aa08df81" data-name="PRS_Flow_water"><path id="50ef6191-e881-4e0b-8ecb-bd7e0c46d4ef" data-name="Pitlane Outer" class="c5abd1e5-f909-4fdb-8014-bb9120bc92b3" d="M391.815,396.04c4.982,5.616,4.853,8.9.853,22.235-5.251,17.5-2.16,41.825-1.167,64.667,1,23-1.447,34.306,32.042,49.333,19.5,8.75,40.633,17.793,58.5,24.875,13.875,5.5,36.664,15.034,51.375-5.625a147.4,147.4,0,0,0,12.375-20.25c3.625-7.125,8.156-14.47,19.852-13.186"/><path id="0ea6122d-7076-4cfc-9831-5e9b03adc685" data-name="Track Outer" class="5395430f-9af1-40b5-9747-738c8e08f951" d="M127.491,563.011c-18.165,17.422-86.156,81.264-95.656,90.264s-18.667,24-20.667,36.167c-2.088,12.7-1.76,28.09,4.167,42.666,6.166,15.167,14.908,22.593,22.5,30.334,8.5,8.666,33.333,32.666,44.166,44s20.842,11.392,35.667,12c20.333.833,41.167,1.352,60,1,17.833-.334,21.275-3.2,33.667-16,10.166-10.5,14.666-14.667,25.333-26.167s15.021-35.605-3.833-50.5c-16.667-13.167-29.5-26.333-40.167-45.667s-16.5-45.333-15.833-64.5,4.166-37.5,12.833-55.666,20.5-32.167,28.667-39.5,29.717-21.779,39.666-26c11-4.667,34.515-10.132,47.834-11.167,17.166-1.333,60.5-4.5,89.666-7.333s41.5-4.5,50.667-5.834c9.446-1.374,17.833,8.334,2.667,12.334A281.43,281.43,0,0,1,397,492.275c-16.472,1.383-40,3.019-54.833,4.333-13.167,1.167-25.821.736-27.333-22.333-1.334-20.333-2.667-42.667,1-61.333s10.5-34.667,21.333-44.167,22.749-6.769,31.667,2.667c14.333,15.166,38.166,41.166,52.333,55.666s49.833,40,70,54.334,34.5,24.833,48.333,30.166,31.334,8.334,43.667,6.667,23.308-5.752,32.167-9c10-3.667,20.6-6.435,27.833-22.5,4.5-10,15.167-35.167,22.667-47.333s3.238-31.229-8-47.667c-11.167-16.333-24.2-27.976-39.417-39.75-6.015-4.654-37.484-27.312-78.008-56.355-36.221-25.958-79.676-57.018-118.657-84.881-50.927-36.4-94.177-67.408-103.752-74.347-18.166-13.167-44.833-33.834-42.333-52S287.5,38.775,299.5,26.108s33.334-26,48.334-5.5S373.251,56,376.668,70.108c5.167,21.334-1.846,38.646-13.833,54.334-13.5,17.666-44.334,52.333-55.334,65.333s-4.9,20.72,8.667,34.5c10.833,11,20.824,19.9,26.167,32.167,7.333,16.833-.512,33.762,17.5,46.666,11.166,8,48.666,7.5,50.166-23.5s2.5-58.666-17-45.5-24.833,27.334-30.166,48.834-8,35.166-26,52-30.334,29.333-42.667,42-12.187,26.792-31.333,46.333c-16.167,16.5-47.167,47.167-59.5,59.333s-24.335,30.5-39,45C149.5,542.275,141.148,549.914,127.491,563.011Z"/><path id="df01396c-a5ba-4168-a915-1f51af429b49" data-name="Pitlane Middle" class="ad826341-32d2-4914-ba21-bd22d8adfbcc" d="M391.815,396.04c4.982,5.616,4.853,8.9.853,22.235-5.251,17.5-2.16,41.825-1.167,64.667,1,23-1.447,34.306,32.042,49.333,19.5,8.75,40.633,17.793,58.5,24.875,13.875,5.5,36.664,15.034,51.375-5.625a147.4,147.4,0,0,0,12.375-20.25c3.625-7.125,8.156-14.47,19.852-13.186"/><path id="79fd001c-f80c-48b3-b9cd-df5cb19496ae" data-name="Track Middle" class="ad826341-32d2-4914-ba21-bd22d8adfbcc" d="M127.491,563.011c-18.165,17.422-86.156,81.264-95.656,90.264s-18.667,24-20.667,36.167c-2.088,12.7-1.76,28.09,4.167,42.666,6.166,15.167,14.908,22.593,22.5,30.334,8.5,8.666,33.333,32.666,44.166,44s20.842,11.392,35.667,12c20.333.833,41.167,1.352,60,1,17.833-.334,21.275-3.2,33.667-16,10.166-10.5,14.666-14.667,25.333-26.167s15.021-35.605-3.833-50.5c-16.667-13.167-29.5-26.333-40.167-45.667s-16.5-45.333-15.833-64.5,4.166-37.5,12.833-55.666,20.5-32.167,28.667-39.5,29.717-21.779,39.666-26c11-4.667,34.515-10.132,47.834-11.167,17.166-1.333,60.5-4.5,89.666-7.333s41.5-4.5,50.667-5.834c9.446-1.374,17.833,8.334,2.667,12.334A281.43,281.43,0,0,1,397,492.275c-16.472,1.383-40,3.019-54.833,4.333-13.167,1.167-25.821.736-27.333-22.333-1.334-20.333-2.667-42.667,1-61.333s10.5-34.667,21.333-44.167,22.749-6.769,31.667,2.667c14.333,15.166,38.166,41.166,52.333,55.666s49.833,40,70,54.334,34.5,24.833,48.333,30.166,31.334,8.334,43.667,6.667,23.308-5.752,32.167-9c10-3.667,20.6-6.435,27.833-22.5,4.5-10,15.167-35.167,22.667-47.333s3.238-31.229-8-47.667c-11.167-16.333-24.2-27.976-39.417-39.75-6.015-4.654-37.484-27.312-78.008-56.355-36.221-25.958-79.676-57.018-118.657-84.881-50.927-36.4-94.177-67.408-103.752-74.347-18.166-13.167-44.833-33.834-42.333-52S287.5,38.775,299.5,26.108s33.334-26,48.334-5.5S373.251,56,376.668,70.108c5.167,21.334-1.846,38.646-13.833,54.334-13.5,17.666-44.334,52.333-55.334,65.333s-4.9,20.72,8.667,34.5c10.833,11,20.824,19.9,26.167,32.167,7.333,16.833-.512,33.762,17.5,46.666,11.166,8,48.666,7.5,50.166-23.5s2.5-58.666-17-45.5-24.833,27.334-30.166,48.834-8,35.166-26,52-30.334,29.333-42.667,42-12.187,26.792-31.333,46.333c-16.167,16.5-47.167,47.167-59.5,59.333s-24.335,30.5-39,45C149.5,542.275,141.148,549.914,127.491,563.011Z"/><path id="76a39b60-7779-4089-8694-b4097dee6e13" data-name="Pitlane Inner" class="d9794176-6d57-4971-995e-b331c31847fd" d="M391.815,396.04c4.982,5.616,4.853,8.9.853,22.235-5.251,17.5-2.16,41.825-1.167,64.667,1,23-1.447,34.306,32.042,49.333,19.5,8.75,40.633,17.793,58.5,24.875,13.875,5.5,36.664,15.034,51.375-5.625a147.4,147.4,0,0,0,12.375-20.25c3.625-7.125,8.156-14.47,19.852-13.186"/><path id="255e16bf-97c0-4a9a-a2a1-cf71a6b02177" data-name="Track Inner" class="36d08640-99f0-44f2-9ffc-70db8e52a31b" d="M127.491,563.011c-18.165,17.422-86.156,81.264-95.656,90.264s-18.667,24-20.667,36.167c-2.088,12.7-1.76,28.09,4.167,42.666,6.166,15.167,14.908,22.593,22.5,30.334,8.5,8.666,33.333,32.666,44.166,44s20.842,11.392,35.667,12c20.333.833,41.167,1.352,60,1,17.833-.334,21.275-3.2,33.667-16,10.166-10.5,14.666-14.667,25.333-26.167s15.021-35.605-3.833-50.5c-16.667-13.167-29.5-26.333-40.167-45.667s-16.5-45.333-15.833-64.5,4.166-37.5,12.833-55.666,20.5-32.167,28.667-39.5,29.717-21.779,39.666-26c11-4.667,34.515-10.132,47.834-11.167,17.166-1.333,60.5-4.5,89.666-7.333s41.5-4.5,50.667-5.834c9.446-1.374,17.833,8.334,2.667,12.334A281.43,281.43,0,0,1,397,492.275c-16.472,1.383-40,3.019-54.833,4.333-13.167,1.167-25.821.736-27.333-22.333-1.334-20.333-2.667-42.667,1-61.333s10.5-34.667,21.333-44.167,22.749-6.769,31.667,2.667c14.333,15.166,38.166,41.166,52.333,55.666s49.833,40,70,54.334,34.5,24.833,48.333,30.166,31.334,8.334,43.667,6.667,23.308-5.752,32.167-9c10-3.667,20.6-6.435,27.833-22.5,4.5-10,15.167-35.167,22.667-47.333s3.238-31.229-8-47.667c-11.167-16.333-24.2-27.976-39.417-39.75-6.015-4.654-37.484-27.312-78.008-56.355-36.221-25.958-79.676-57.018-118.657-84.881-50.927-36.4-94.177-67.408-103.752-74.347-18.166-13.167-44.833-33.834-42.333-52S287.5,38.775,299.5,26.108s33.334-26,48.334-5.5S373.251,56,376.668,70.108c5.167,21.334-1.846,38.646-13.833,54.334-13.5,17.666-44.334,52.333-55.334,65.333s-4.9,20.72,8.667,34.5c10.833,11,20.824,19.9,26.167,32.167,7.333,16.833-.512,33.762,17.5,46.666,11.166,8,48.666,7.5,50.166-23.5s2.5-58.666-17-45.5-24.833,27.334-30.166,48.834-8,35.166-26,52-30.334,29.333-42.667,42-12.187,26.792-31.333,46.333c-16.167,16.5-47.167,47.167-59.5,59.333s-24.335,30.5-39,45C149.5,542.275,141.148,549.914,127.491,563.011Z"/><g id="e89ebc7a-0824-48d0-a6bb-30d35ee10a24" data-name="Crossover"><path id="564b6776-8faa-4bc1-aef0-9e65519e44ad" data-name="Pitlane Outer" class="5395430f-9af1-40b5-9747-738c8e08f951" d="M448.835,483.442A281.43,281.43,0,0,1,397,492.275c-16.472,1.383-40,3.019-54.833,4.333-13.167,1.167-25.821.736-27.333-22.333"/><path id="902cca7e-ce24-40e7-8b51-89fc26ee9111" data-name="Pitlane Middle" class="ad826341-32d2-4914-ba21-bd22d8adfbcc" d="M448.835,483.442A281.43,281.43,0,0,1,397,492.275c-16.472,1.383-40,3.019-54.833,4.333-13.167,1.167-25.821.736-27.333-22.333"/><path id="b433141d-a1e6-411c-91f4-5cc76b76751a" data-name="Pitlane Inner" class="36d08640-99f0-44f2-9ffc-70db8e52a31b" d="M448.835,483.442A281.43,281.43,0,0,1,397,492.275c-16.472,1.383-40,3.019-54.833,4.333-13.167,1.167-25.821.736-27.333-22.333"/></g><g id="a1b847bd-2071-4bff-afdb-fc33bf92639d" data-name="Crossover"><path id="d4a46975-c38e-4572-a45a-da6041cf11ba" data-name="Crossover Inner" class="5395430f-9af1-40b5-9747-738c8e08f951" d="M421.753,210.768c-50.927-36.4-94.177-67.408-103.752-74.347-18.166-13.167-44.833-33.833-42.333-52S287.5,38.754,299.5,26.088"/><path id="bd7e63d1-c131-4b6d-ac88-eb337458c6ed" data-name="Crossover Middle" class="ad826341-32d2-4914-ba21-bd22d8adfbcc" d="M421.753,210.768c-50.927-36.4-94.177-67.408-103.752-74.347-18.166-13.167-44.833-33.833-42.333-52S287.5,38.754,299.5,26.088"/><path id="1a2dbb53-81be-4526-a9b5-573c02b8aa1b" data-name="Crossover Outer" class="36d08640-99f0-44f2-9ffc-70db8e52a31b" d="M421.753,210.768c-50.927-36.4-94.177-67.408-103.752-74.347-18.166-13.167-44.833-33.833-42.333-52S287.5,38.754,299.5,26.088"/></g><g id="25e1ca3c-16a1-4193-99ab-2bebd90b2046" data-name="Crossover"><path id="40b265b2-029e-448e-b16e-4e0c7f25e616" data-name="Crossover Inner" class="5395430f-9af1-40b5-9747-738c8e08f951" d="M342.335,256.421c7.333,16.833-.512,33.763,17.5,46.667,11.166,8,48.666,7.5,50.166-23.5s2.5-58.667-17-45.5"/><path id="dcdb8c6a-5cd8-4ffd-994a-702bd8a9e8b8" data-name="Crossover Middle" class="ad826341-32d2-4914-ba21-bd22d8adfbcc" d="M342.335,256.421c7.333,16.833-.512,33.763,17.5,46.667,11.166,8,48.666,7.5,50.166-23.5s2.5-58.667-17-45.5"/><path id="2b59eac0-5358-4ec0-88f9-40f2e6ea2f88" data-name="Crossover Outer" class="36d08640-99f0-44f2-9ffc-70db8e52a31b" d="M342.335,256.421c7.333,16.833-.512,33.763,17.5,46.667,11.166,8,48.666,7.5,50.166-23.5s2.5-58.667-17-45.5"/></g><g id="ac9c104b-1a80-423d-b51a-03a2da73acb7" data-name="Crossover"><path id="5e33dbb6-a984-4e38-88f3-50ca186cc09c" data-name="Crossover Inner" class="5395430f-9af1-40b5-9747-738c8e08f951" d="M258,495.421c11-4.667,34.515-10.132,47.834-11.167,17.166-1.333,60.5-4.5,89.666-7.333s41.5-4.5,50.667-5.833c9.446-1.374,17.833,8.333,2.667,12.333A281.43,281.43,0,0,1,397,492.254"/><path id="5d8bf5c2-2dbf-4608-bf60-4ac2769ba4bf" data-name="Crossover Middle" class="ad826341-32d2-4914-ba21-bd22d8adfbcc" d="M258,495.421c11-4.667,34.515-10.132,47.834-11.167,17.166-1.333,60.5-4.5,89.666-7.333s41.5-4.5,50.667-5.833c9.446-1.374,17.833,8.333,2.667,12.333A281.43,281.43,0,0,1,397,492.254"/><path id="bd53f062-6513-427d-8770-47633d64af1e" data-name="Crossover Outer" class="36d08640-99f0-44f2-9ffc-70db8e52a31b" d="M258,495.421c11-4.667,34.515-10.132,47.834-11.167,17.166-1.333,60.5-4.5,89.666-7.333s41.5-4.5,50.667-5.833c9.446-1.374,17.833,8.333,2.667,12.333A281.43,281.43,0,0,1,397,492.254"/></g><line id="a651d0a0-7fd1-43d4-aa36-6ac8fff9602d" data-name="Fix" class="e04bcf32-3559-420b-828b-cfb4480faf69" x1="396.665" y1="487.269" x2="373.817" y2="489.741"/><use id="aad8a462-5e14-4106-90b4-6a25deffe5d4" data-name="Start-Finish-Line" width="200" height="103.617" transform="translate(120.153 539.637) rotate(45.734) scale(0.217)" xlink:href="#83b4d167-cc58-4f0c-b19d-20f87a38bf77"/></g></g></g></svg>