<svg xmlns="http://www.w3.org/2000/svg" xmlns:xlink="http://www.w3.org/1999/xlink" width="890.569" height="1287.061" viewBox="0 0 890.569 1287.061"><defs><style>.\35 81fa739-4fba-4492-aaec-d8c506467c43{fill:#00ff24;}.\35 81fa739-4fba-4492-aaec-d8c506467c43,.c22bba11-cfeb-4957-a961-7e6c44a7dc78{stroke:#000;stroke-width:5px;}.\33 6bf1a17-97a7-4383-87e8-a5dcb7d4bcc6,.\33 a8a7f4d-2514-4b05-962c-3e3b32fd4f60,.\34 b36bf9f-9df4-4242-9b67-af1aef132802,.\35 81fa739-4fba-4492-aaec-d8c506467c43,.c22bba11-cfeb-4957-a961-7e6c44a7dc78,.e25413bb-83f6-4a00-b4ea-42655d5bbae3,.f004735d-613b-4cd3-a39b-bfd555aa3143{stroke-miterlimit:10;}.c22bba11-cfeb-4957-a961-7e6c44a7dc78{fill:#fff;}.\33 6bf1a17-97a7-4383-87e8-a5dcb7d4bcc6,.\33 a8a7f4d-2514-4b05-962c-3e3b32fd4f60,.\34 b36bf9f-9df4-4242-9b67-af1aef132802,.e25413bb-83f6-4a00-b4ea-42655d5bbae3,.f004735d-613b-4cd3-a39b-bfd555aa3143{fill:none;}.\33 6bf1a17-97a7-4383-87e8-a5dcb7d4bcc6,.\34 b36bf9f-9df4-4242-9b67-af1aef132802{stroke:#c91c1c;}.\33 6bf1a17-97a7-4383-87e8-a5dcb7d4bcc6,.f004735d-613b-4cd3-a39b-bfd555aa3143{stroke-width:20px;}.e25413bb-83f6-4a00-b4ea-42655d5bbae3,.f004735d-613b-4cd3-a39b-bfd555aa3143{stroke:#0080ff;}.\33 a8a7f4d-2514-4b05-962c-3e3b32fd4f60{stroke:#fff;stroke-width:12px;}.\34 b36bf9f-9df4-4242-9b67-af1aef132802,.e25413bb-83f6-4a00-b4ea-42655d5bbae3{stroke-width:2px;}</style><symbol id="23996d5d-e925-4583-9826-a413d8ea1acd" data-name="fd103434-89f2-4089-acf9-54fed79ed404" viewBox="0 0 200 103.617"><rect class="581fa739-4fba-4492-aaec-d8c506467c43" x="2.5" y="54.074" width="195" height="47.043"/><rect class="c22bba11-cfeb-4957-a961-7e6c44a7dc78" x="2.5" y="2.5" width="48.75" height="48.75"/><rect class="c22bba11-cfeb-4957-a961-7e6c44a7dc78" x="51.25" y="2.5" width="48.75" height="48.75"/><rect class="c22bba11-cfeb-4957-a961-7e6c44a7dc78" x="100" y="2.5" width="48.75" height="48.75"/><rect class="c22bba11-cfeb-4957-a961-7e6c44a7dc78" x="148.75" y="2.5" width="48.75" height="48.75"/></symbol></defs><title>PRS_Old_School_Remix</title><g id="8544fc5f-0532-40e1-817b-037e41bfb112" data-name="Layer 2"><g id="7cdd6f42-75c3-4e3c-9f91-cdd592c20c97" data-name="City - Downtown"><g id="ea7dd084-ff60-4e4a-93b8-d3d58c68d4d9" data-name="PRS_Old_School_Remix"><path id="3ce7d217-dded-495e-b839-5c02b1dea1fd" data-name="Pitlane Outer" class="36bf1a17-97a7-4383-87e8-a5dcb7d4bcc6" d="M708.818,135.041c-3,16.334-16.513,29.461-19.846,38.794s-13.94,16.638-30,10.834c-13.833-5-20.917-7.667-32.417-12.084s-19.833,12.917-7.083,17.75,23.083,8.459,33.458,12.584,21.75,9.875,17.25,23.75.485,27.355-6.015,45.48"/><path id="1b73afa9-7ab0-41bf-a5fd-16b45c6b6a7c" data-name="Track Outer" class="f004735d-613b-4cd3-a39b-bfd555aa3143" d="M601.472,444.5c-8.485,23.939-18.43,51.369-25.917,71.667-11.25,30.5-11.916,34-17.916,50.166s-16,27.334-44.667,25.5a370.806,370.806,0,0,1-69.167-10.916c-12.625-3.375-27.25-17.25-26.25-42.5.971-24.5,19.073-60.124,24.75-89.25,5.75-29.5,6.25-63.75,6-88s-2-55-4.75-84.5-12.5-91.75-12.5-124.25,1.25-48.5,1-73,.75-44.5-12.25-58.75-18.957-14.529-30,1c-8,11.25-11,16-18.25,26.75S365.3,65.9,378.305,76.5c10.834,8.833,17.334,19,20,30.5s2.75,32.167,2.75,53.667,4.009,39.165,3.917,53.166c-.167,25.5,27,32.165,27,65.834,0,21,.167,38.833,0,60.333s.472,42.832,0,60.167c-.667,24.5-21.211,39.692-25.333,59-3.167,14.833-2,27.166-2.834,43.666s-8.25,64.834-12,95.334-9.457,133.049-9.5,156.333c-.062,34.354-18.152,31.988-18.666,76.667-.292,25.333-.334,30.375.166,49.666.642,24.757,33.1,50.506,24.125,78.084-7.291,22.416-14.958,42.25-21.125,61.916s-17.375,42.834-31.375,55.709c-11.782,10.835-42.939,27.671-67.625,37.625a234.353,234.353,0,0,1-62.5,15.5c-20.75,2.25-81.75,7.75-102.25,9.5s-45.25,5.666-61.25,13.166-20.75,10-28.416,17-1.489,16.029,10.166,8.417c8.167-5.333,18.85-11.845,34.75-15.333,16.334-3.584,23.667-4.514,35.417-4.417,10.083.083,19.794,4.463,22.917,23.083,2.166,12.917,18.166,42.917,29,55.917s30.166,29.167,57.833,34.5,49.333,5.333,65,5.5,35,.333,53.167-4.833,47.833-17.167,73-28,46.333-23.334,70.833-25.334,53.649,12.167,81.667,3.834c29.416-8.75,56.88-26.719,79-47.834,18.333-17.5,38.666-35.166,56.5-37.166s46.666-13.25,62.416-19.5,58-23.25,72.5-29.75,25.25-18.584,7.417-34.084S679.305,930.169,659.805,914.669s-49.625-23.375-66-33.75c-17.837-11.3-51.806-27.417-51.5-46.75.5-31.5-1.5-68.75-1.5-103s.242-80.991,1-103.75c.75-22.5,6.75-34,35.75-34.25s113,.25,149.75-.75,57.75-2.5,81.75-3.75,36.25-22,45.75-43.5,13.5-28,20.25-44.75,11.25-39-14-48-48-15.5-70-25-25.163-18.148-13.25-51c8.25-22.75,41.5-112.584,56.5-153.917s31.667-85.667,40.667-111,11.583-40.583-27.167-50.833-56-11-84.25-8.5-35.5,13.25-43.5,37S704.972,162.835,691.972,197.5s-35.417,95.167-48.417,130.167S613.139,411.585,601.472,444.5Z"/><path id="df37fbb2-9499-4ba6-99e8-ede61119d955" data-name="Pitlane Middle" class="3a8a7f4d-2514-4b05-962c-3e3b32fd4f60" d="M708.818,135.041c-3,16.334-16.513,29.461-19.846,38.794s-13.94,16.638-30,10.834c-13.833-5-20.917-7.667-32.417-12.084s-19.833,12.917-7.083,17.75,23.083,8.459,33.458,12.584,21.75,9.875,17.25,23.75.485,27.355-6.015,45.48"/><path id="4a648d81-1e94-48ed-bc32-c54627b6ae85" data-name="Track Middle" class="3a8a7f4d-2514-4b05-962c-3e3b32fd4f60" d="M601.472,444.5c-8.485,23.939-18.43,51.369-25.917,71.667-11.25,30.5-11.916,34-17.916,50.166s-16,27.334-44.667,25.5a370.806,370.806,0,0,1-69.167-10.916c-12.625-3.375-27.25-17.25-26.25-42.5.971-24.5,19.073-60.124,24.75-89.25,5.75-29.5,6.25-63.75,6-88s-2-55-4.75-84.5-12.5-91.75-12.5-124.25,1.25-48.5,1-73,.75-44.5-12.25-58.75-18.957-14.529-30,1c-8,11.25-11,16-18.25,26.75S365.3,65.9,378.305,76.5c10.834,8.833,17.334,19,20,30.5s2.75,32.167,2.75,53.667,4.009,39.165,3.917,53.166c-.167,25.5,27,32.165,27,65.834,0,21,.167,38.833,0,60.333s.472,42.832,0,60.167c-.667,24.5-21.211,39.692-25.333,59-3.167,14.833-2,27.166-2.834,43.666s-8.25,64.834-12,95.334-9.457,133.049-9.5,156.333c-.062,34.354-18.152,31.988-18.666,76.667-.292,25.333-.334,30.375.166,49.666.642,24.757,33.1,50.506,24.125,78.084-7.291,22.416-14.958,42.25-21.125,61.916s-17.375,42.834-31.375,55.709c-11.782,10.835-42.939,27.671-67.625,37.625a234.353,234.353,0,0,1-62.5,15.5c-20.75,2.25-81.75,7.75-102.25,9.5s-45.25,5.666-61.25,13.166-20.75,10-28.416,17-1.489,16.029,10.166,8.417c8.167-5.333,18.85-11.845,34.75-15.333,16.334-3.584,23.667-4.514,35.417-4.417,10.083.083,19.794,4.463,22.917,23.083,2.166,12.917,18.166,42.917,29,55.917s30.166,29.167,57.833,34.5,49.333,5.333,65,5.5,35,.333,53.167-4.833,47.833-17.167,73-28,46.333-23.334,70.833-25.334,53.649,12.167,81.667,3.834c29.416-8.75,56.88-26.719,79-47.834,18.333-17.5,38.666-35.166,56.5-37.166s46.666-13.25,62.416-19.5,58-23.25,72.5-29.75,25.25-18.584,7.417-34.084S679.305,930.169,659.805,914.669s-49.625-23.375-66-33.75c-17.837-11.3-51.806-27.417-51.5-46.75.5-31.5-1.5-68.75-1.5-103s.242-80.991,1-103.75c.75-22.5,6.75-34,35.75-34.25s113,.25,149.75-.75,57.75-2.5,81.75-3.75,36.25-22,45.75-43.5,13.5-28,20.25-44.75,11.25-39-14-48-48-15.5-70-25-25.163-18.148-13.25-51c8.25-22.75,41.5-112.584,56.5-153.917s31.667-85.667,40.667-111,11.583-40.583-27.167-50.833-56-11-84.25-8.5-35.5,13.25-43.5,37S704.972,162.835,691.972,197.5s-35.417,95.167-48.417,130.167S613.139,411.585,601.472,444.5Z"/><path id="27e64266-38cd-4707-9fec-7a8bd32a3daa" data-name="Pitlane Inner" class="4b36bf9f-9df4-4242-9b67-af1aef132802" d="M708.818,135.041c-3,16.334-16.513,29.461-19.846,38.794s-13.94,16.638-30,10.834c-13.833-5-20.917-7.667-32.417-12.084s-19.833,12.917-7.083,17.75,23.083,8.459,33.458,12.584,21.75,9.875,17.25,23.75.485,27.355-6.015,45.48"/><path id="780e150a-0c6e-4931-bb72-baea99809207" data-name="Track Inner" class="e25413bb-83f6-4a00-b4ea-42655d5bbae3" d="M601.472,444.5c-8.485,23.939-18.43,51.369-25.917,71.667-11.25,30.5-11.916,34-17.916,50.166s-16,27.334-44.667,25.5a370.806,370.806,0,0,1-69.167-10.916c-12.625-3.375-27.25-17.25-26.25-42.5.971-24.5,19.073-60.124,24.75-89.25,5.75-29.5,6.25-63.75,6-88s-2-55-4.75-84.5-12.5-91.75-12.5-124.25,1.25-48.5,1-73,.75-44.5-12.25-58.75-18.957-14.529-30,1c-8,11.25-11,16-18.25,26.75S365.3,65.9,378.305,76.5c10.834,8.833,17.334,19,20,30.5s2.75,32.167,2.75,53.667,4.009,39.165,3.917,53.166c-.167,25.5,27,32.165,27,65.834,0,21,.167,38.833,0,60.333s.472,42.832,0,60.167c-.667,24.5-21.211,39.692-25.333,59-3.167,14.833-2,27.166-2.834,43.666s-8.25,64.834-12,95.334-9.457,133.049-9.5,156.333c-.062,34.354-18.152,31.988-18.666,76.667-.292,25.333-.334,30.375.166,49.666.642,24.757,33.1,50.506,24.125,78.084-7.291,22.416-14.958,42.25-21.125,61.916s-17.375,42.834-31.375,55.709c-11.782,10.835-42.939,27.671-67.625,37.625a234.353,234.353,0,0,1-62.5,15.5c-20.75,2.25-81.75,7.75-102.25,9.5s-45.25,5.666-61.25,13.166-20.75,10-28.416,17-1.489,16.029,10.166,8.417c8.167-5.333,18.85-11.845,34.75-15.333,16.334-3.584,23.667-4.514,35.417-4.417,10.083.083,19.794,4.463,22.917,23.083,2.166,12.917,18.166,42.917,29,55.917s30.166,29.167,57.833,34.5,49.333,5.333,65,5.5,35,.333,53.167-4.833,47.833-17.167,73-28,46.333-23.334,70.833-25.334,53.649,12.167,81.667,3.834c29.416-8.75,56.88-26.719,79-47.834,18.333-17.5,38.666-35.166,56.5-37.166s46.666-13.25,62.416-19.5,58-23.25,72.5-29.75,25.25-18.584,7.417-34.084S679.305,930.169,659.805,914.669s-49.625-23.375-66-33.75c-17.837-11.3-51.806-27.417-51.5-46.75.5-31.5-1.5-68.75-1.5-103s.242-80.991,1-103.75c.75-22.5,6.75-34,35.75-34.25s113,.25,149.75-.75,57.75-2.5,81.75-3.75,36.25-22,45.75-43.5,13.5-28,20.25-44.75,11.25-39-14-48-48-15.5-70-25-25.163-18.148-13.25-51c8.25-22.75,41.5-112.584,56.5-153.917s31.667-85.667,40.667-111,11.583-40.583-27.167-50.833-56-11-84.25-8.5-35.5,13.25-43.5,37S704.972,162.835,691.972,197.5s-35.417,95.167-48.417,130.167S613.139,411.585,601.472,444.5Z"/><use id="016ae71c-51b1-4a91-9ebe-91e07f4e319b" data-name="Start-Finish-Line" width="200" height="103.617" transform="translate(585.028 425.917) rotate(20.013) scale(0.217)" xlink:href="#23996d5d-e925-4583-9826-a413d8ea1acd"/></g></g></g></svg>