<svg xmlns="http://www.w3.org/2000/svg" xmlns:xlink="http://www.w3.org/1999/xlink" width="826.289" height="850.398" viewBox="0 0 826.289 850.398"><defs><style>.\39 8bb1552-fdc9-4b2f-be18-27f36e93c159{fill:#00ff24;}.\39 8bb1552-fdc9-4b2f-be18-27f36e93c159,.f9dc431b-ef2b-4486-8754-718740a27b30{stroke:#000;stroke-width:5px;}.\30 8af0039-fb72-4d35-b034-ae35d3ed906f,.\39 8bb1552-fdc9-4b2f-be18-27f36e93c159,.c6704cde-153a-4166-9682-ae6214b2407e,.f6d337d0-feeb-4951-a960-93f275aceb21,.f9dc431b-ef2b-4486-8754-718740a27b30{stroke-miterlimit:10;}.f9dc431b-ef2b-4486-8754-718740a27b30{fill:#fff;}.\30 8af0039-fb72-4d35-b034-ae35d3ed906f,.c6704cde-153a-4166-9682-ae6214b2407e,.f6d337d0-feeb-4951-a960-93f275aceb21{fill:none;}.c6704cde-153a-4166-9682-ae6214b2407e,.f6d337d0-feeb-4951-a960-93f275aceb21{stroke:#0080ff;}.c6704cde-153a-4166-9682-ae6214b2407e{stroke-width:20px;}.\30 8af0039-fb72-4d35-b034-ae35d3ed906f{stroke:#fff;stroke-width:12px;}.f6d337d0-feeb-4951-a960-93f275aceb21{stroke-width:2px;}</style><symbol id="b1e483f9-4013-4d6e-b25f-14e856adb24e" data-name="fd103434-89f2-4089-acf9-54fed79ed404" viewBox="0 0 200 103.617"><rect class="98bb1552-fdc9-4b2f-be18-27f36e93c159" x="2.5" y="54.074" width="195" height="47.043"/><rect class="f9dc431b-ef2b-4486-8754-718740a27b30" x="2.5" y="2.5" width="48.75" height="48.75"/><rect class="f9dc431b-ef2b-4486-8754-718740a27b30" x="51.25" y="2.5" width="48.75" height="48.75"/><rect class="f9dc431b-ef2b-4486-8754-718740a27b30" x="100" y="2.5" width="48.75" height="48.75"/><rect class="f9dc431b-ef2b-4486-8754-718740a27b30" x="148.75" y="2.5" width="48.75" height="48.75"/></symbol></defs><title>SALM_-_Woosh_YHSP</title><g id="9afb8fa4-aafe-4443-a731-4cbe0fcec1c5" data-name="Layer 2"><g id="2277e3f4-1b16-4edb-b3c8-fe26f6fa0299" data-name="City - Downtown"><g id="2938d5ec-508b-4165-8c1d-7edd2112b3f6" data-name="SALM_-_Woosh_YHSP"><path id="f90fc1e1-b4dd-4bb7-aa75-e520cb0b4d62" data-name="Track Outer" class="c6704cde-153a-4166-9682-ae6214b2407e" d="M750.009,396.1c-7.42,21.616-15.75,44.917-22.667,64.167-6.472,18.013-9.75,26-17.916,49.833-7.589,22.145-14.917,38.833-14.917,61.833s-.25,40.584.5,57.084,13.84,62.685,8.5,96.25c-7,44-27.3,83.1-44.875,105.5-10.458,13.333-29.625,13.166-47.792-2.667s-36.166-41.333-46-61.5-11.333-18.833-9-49,2-65,1.167-86.167-1.333-44.5,8.833-68.5,20.167-43,23.667-54.166,3.667-24.667-18.333-32.5-54.167-19.5-72.417-25.75-27.5-6.25-35,11-39.5,107.25-46.25,125-25.25,29.75-56.75,29.75-92.25,1.75-119,.75-70-4.25-105.75-15.75-79-26.167-98.167-33.667S9.676,540.268,10.009,515.1s0-35.083.5-52.333,4.227-26.291,10.833-41c8.834-19.667,17.206-43.317,24.167-59.834,8.5-20.166,18.5-20.166,44-19.333s61.167,2.167,82.333,4.167,57,8.166,76.667,14.5,32.5,11.25,47.5,16.5,35.75,12.25,41.75-4.75,38.75-105.75,49.5-134.75,40-114,46.75-134.5,14.254-25.326,37.75-25.75c41.5-.75,77.617,1.947,119.75,18.5,35,13.75,74.52,28.1,98,36.75,19,7,36.5,6.25,45-14.5s27.25-68.75,33-84.5-3.25-24-28.5-24.25-128.75,2.25-147.75,2.5-27.25,2.75-40.5,7-50.5,37.75-90.25,37.75c-3.693,0-31.875-.125-40.125-.375-16.557-.5-16.375-22.386-.125-22.625,22.583-.334,91.585.934,120.917,23.833,19,14.833,17.35,24.454,46.5,35.333,23.666,8.834,76.5,28.167,95.166,35.167s68.757,28.026,98.5,40.333c29,12,42.5,19.167,30.667,51.5s-31.316,87.23-38.167,106.834C763.009,358.268,757.676,373.768,750.009,396.1Z"/><path id="7b607089-5ddc-4b03-96f9-c79290dc2ae8" data-name="Track Middle" class="08af0039-fb72-4d35-b034-ae35d3ed906f" d="M750.009,396.1c-7.42,21.616-15.75,44.917-22.667,64.167-6.472,18.013-9.75,26-17.916,49.833-7.589,22.145-14.917,38.833-14.917,61.833s-.25,40.584.5,57.084,13.84,62.685,8.5,96.25c-7,44-27.3,83.1-44.875,105.5-10.458,13.333-29.625,13.166-47.792-2.667s-36.166-41.333-46-61.5-11.333-18.833-9-49,2-65,1.167-86.167-1.333-44.5,8.833-68.5,20.167-43,23.667-54.166,3.667-24.667-18.333-32.5-54.167-19.5-72.417-25.75-27.5-6.25-35,11-39.5,107.25-46.25,125-25.25,29.75-56.75,29.75-92.25,1.75-119,.75-70-4.25-105.75-15.75-79-26.167-98.167-33.667S9.676,540.268,10.009,515.1s0-35.083.5-52.333,4.227-26.291,10.833-41c8.834-19.667,17.206-43.317,24.167-59.834,8.5-20.166,18.5-20.166,44-19.333s61.167,2.167,82.333,4.167,57,8.166,76.667,14.5,32.5,11.25,47.5,16.5,35.75,12.25,41.75-4.75,38.75-105.75,49.5-134.75,40-114,46.75-134.5,14.254-25.326,37.75-25.75c41.5-.75,77.617,1.947,119.75,18.5,35,13.75,74.52,28.1,98,36.75,19,7,36.5,6.25,45-14.5s27.25-68.75,33-84.5-3.25-24-28.5-24.25-128.75,2.25-147.75,2.5-27.25,2.75-40.5,7-50.5,37.75-90.25,37.75c-3.693,0-31.875-.125-40.125-.375-16.557-.5-16.375-22.386-.125-22.625,22.583-.334,91.585.934,120.917,23.833,19,14.833,17.35,24.454,46.5,35.333,23.666,8.834,76.5,28.167,95.166,35.167s68.757,28.026,98.5,40.333c29,12,42.5,19.167,30.667,51.5s-31.316,87.23-38.167,106.834C763.009,358.268,757.676,373.768,750.009,396.1Z"/><path id="b8a6ea8e-c43b-433d-8b39-d29dd0240ea1" data-name="Track Inner" class="f6d337d0-feeb-4951-a960-93f275aceb21" d="M750.134,396.226c-7.42,21.616-15.75,44.917-22.667,64.167-6.472,18.013-9.75,26-17.916,49.833-7.589,22.145-14.917,38.833-14.917,61.833s-.25,40.584.5,57.084,13.84,62.685,8.5,96.25c-7,44-27.3,83.1-44.875,105.5-10.458,13.333-29.625,13.166-47.792-2.667s-36.166-41.333-46-61.5-11.333-18.833-9-49,2-65,1.167-86.167-1.333-44.5,8.833-68.5,20.167-43,23.667-54.166,3.667-24.667-18.333-32.5-54.167-19.5-72.417-25.75-27.5-6.25-35,11-39.5,107.25-46.25,125-25.25,29.75-56.75,29.75-92.25,1.75-119,.75-70-4.25-105.75-15.75-79-26.167-98.167-33.667S9.8,540.393,10.134,515.226s0-35.083.5-52.333,4.227-26.291,10.833-41c8.834-19.667,17.206-43.317,24.167-59.834,8.5-20.166,18.5-20.166,44-19.333s61.167,2.167,82.333,4.167,57,8.166,76.667,14.5,32.5,11.25,47.5,16.5,35.75,12.25,41.75-4.75,38.75-105.75,49.5-134.75,40-114,46.75-134.5,14.254-25.326,37.75-25.75c41.5-.75,77.617,1.947,119.75,18.5,35,13.75,74.52,28.1,98,36.75,19,7,36.5,6.25,45-14.5s27.25-68.75,33-84.5-3.25-24-28.5-24.25-128.75,2.25-147.75,2.5-27.25,2.75-40.5,7-50.5,37.75-90.25,37.75c-3.693,0-31.875-.125-40.125-.375-16.557-.5-16.375-22.386-.125-22.625,22.583-.334,91.585.934,120.917,23.833,19,14.833,17.35,24.454,46.5,35.333,23.666,8.834,76.5,28.167,95.166,35.167s68.757,28.026,98.5,40.333c29,12,42.5,19.167,30.667,51.5s-31.316,87.23-38.167,106.834C763.134,358.393,757.8,373.893,750.134,396.226Z"/><g id="0bb4bffa-043b-4bf8-802f-abcb4dd7ffd1" data-name="Crossover"><path id="a18181b4-d30a-441e-bd1f-646eeeb8790b" data-name="Crossover Outer" class="c6704cde-153a-4166-9682-ae6214b2407e" d="M471.885,78.148c41.5-.75,77.618,1.947,119.75,18.5,35,13.75,74.521,28.1,98,36.75,19,7,36.5,6.25,45-14.5"/><path id="94707c5f-2604-4514-b8c3-d080a771bcf8" data-name="Crossover Middle" class="08af0039-fb72-4d35-b034-ae35d3ed906f" d="M471.885,78.148c41.5-.75,77.618,1.947,119.75,18.5,35,13.75,74.521,28.1,98,36.75,19,7,36.5,6.25,45-14.5"/><path id="f79b64d9-ac11-441e-bfe0-fe269c00e493" data-name="Crossover Inner" class="f6d337d0-feeb-4951-a960-93f275aceb21" d="M471.885,78.148c41.5-.75,77.618,1.947,119.75,18.5,35,13.75,74.521,28.1,98,36.75,19,7,36.5,6.25,45-14.5"/></g><g id="b23798b8-c42b-4679-8c3a-ae3963e19486" data-name="Crossover"><path id="b4d30a7b-760e-4216-9232-99b7ed0ef2e4" data-name="Crossover Outer" class="c6704cde-153a-4166-9682-ae6214b2407e" d="M420.378,34.369c22.583-.333,91.585.934,120.916,23.833"/><path id="9906eca8-1dfc-4d47-b656-78ab20c6b1b5" data-name="Crossover Middle" class="08af0039-fb72-4d35-b034-ae35d3ed906f" d="M420.378,34.369c22.583-.333,91.585.934,120.916,23.833"/><path id="3f49e452-bcca-4b74-9c73-d2f8d9a4c87c" data-name="Crossover Inner" class="f6d337d0-feeb-4951-a960-93f275aceb21" d="M420.378,34.369c22.583-.333,91.585.934,120.916,23.833"/></g><use id="668b5e1f-3942-4abc-8090-5493140d0c49" data-name="Start-Finish-Line" width="200" height="103.617" transform="translate(692.985 491.631) rotate(19.759) scale(0.217)" xlink:href="#b1e483f9-4013-4d6e-b25f-14e856adb24e"/></g></g></g></svg>