<svg xmlns="http://www.w3.org/2000/svg" xmlns:xlink="http://www.w3.org/1999/xlink" width="1146.103" height="1043.531" viewBox="0 0 1146.103 1043.531"><defs><style>.aa5c9a56-944c-47b1-9bc1-d8428d8d7e29{fill:#00ff24;}.\33 0e1e16b-f7cd-457c-bf75-a2ee7a146c73,.aa5c9a56-944c-47b1-9bc1-d8428d8d7e29{stroke:#000;stroke-width:5px;}.\33 0e1e16b-f7cd-457c-bf75-a2ee7a146c73,.\37 ec68116-9854-4038-ab2f-a7009ce76013,.aa5c9a56-944c-47b1-9bc1-d8428d8d7e29,.b86ba6ff-e72d-4713-8028-ff90e2da9a92,.f03750d8-ec2a-4b74-b9da-21b2bc846c2e{stroke-miterlimit:10;}.\33 0e1e16b-f7cd-457c-bf75-a2ee7a146c73{fill:#fff;}.\37 ec68116-9854-4038-ab2f-a7009ce76013,.b86ba6ff-e72d-4713-8028-ff90e2da9a92,.f03750d8-ec2a-4b74-b9da-21b2bc846c2e{fill:none;}.\37 ec68116-9854-4038-ab2f-a7009ce76013,.b86ba6ff-e72d-4713-8028-ff90e2da9a92{stroke:#0080ff;}.\37 ec68116-9854-4038-ab2f-a7009ce76013{stroke-width:20px;}.f03750d8-ec2a-4b74-b9da-21b2bc846c2e{stroke:#fff;stroke-width:12px;}.b86ba6ff-e72d-4713-8028-ff90e2da9a92{stroke-width:2px;}</style><symbol id="74242c0d-74e3-434e-b56e-cc7025fee308" data-name="fd103434-89f2-4089-acf9-54fed79ed404" viewBox="0 0 200 103.617"><rect class="aa5c9a56-944c-47b1-9bc1-d8428d8d7e29" x="2.5" y="54.074" width="195" height="47.043"/><rect class="30e1e16b-f7cd-457c-bf75-a2ee7a146c73" x="2.5" y="2.5" width="48.75" height="48.75"/><rect class="30e1e16b-f7cd-457c-bf75-a2ee7a146c73" x="51.25" y="2.5" width="48.75" height="48.75"/><rect class="30e1e16b-f7cd-457c-bf75-a2ee7a146c73" x="100" y="2.5" width="48.75" height="48.75"/><rect class="30e1e16b-f7cd-457c-bf75-a2ee7a146c73" x="148.75" y="2.5" width="48.75" height="48.75"/></symbol></defs><title>SALM_CS_-_Kitten_s_Catnap</title><g id="b1ca61d9-6dae-487e-9c32-5072ac6f99a2" data-name="Layer 2"><g id="17445f0b-390a-4d3a-9a46-af3ee27cb809" data-name="City - Downtown"><g id="b468d3f6-af59-4811-8fc0-d11aef605114" data-name="SALM_CS_-_Kitten_s_Catnap"><path id="e54fa680-8d75-455a-9397-ef2f4c790f7d" data-name="Track Outer" class="7ec68116-9854-4038-ab2f-a7009ce76013" d="M836.685,271.61c-31.451-12.88-112.5-47.125-134.083-56.291-20.627-8.761-70.729-28.671-87.833-35.334-15.084-5.875-25.75-10.954-56.334-4.5-24.875,5.25-66.125,19-83,26.875s-16.625,24.375-16.375,32.625,5.375,21.5,18.25,30.875,29.421,23.074,41.75,30.25c12.563,7.313,30.375,14.375,33.25,27.375s-2.5,21.5-10.375,24.125-18.572-2.167-31-10.875c-13.083-9.166-74.416-53.083-85.416-61.25s-18.79-20.548-30.75-41.666c-9.959-17.584-33.167-56.834-41-71.667s-8.744-23.84,5.333-31.833c19.667-11.167,38.833-21.334,52.667-32.834s28.666-25.333,34.666-40,4.667-24.666,4-33.166-8.666-13.667-29.166-14.167-53.167.167-67.5,3-33.334,12.833-44.334,26-18,34.167-44,31.5-44.333-4.333-60.333,0-26.667-2-32.833-8.667-19.667-15.333-34-8.166c-19.084,9.541-94.582,48.33-116.334,59.5-12.333,6.333-14.576,9.788-9.166,20.833,4,8.167,5.1,10.371,7.666,14.833,3.834,6.667,11.667,9.5,25.334,2.167s94.713-49.251,114.166-59.5c15.5-8.167,22.167-9,30.5,4.833s38.834,68.167,46.167,80.5,45.858,79.252,52.833,90.834c8.834,14.666,10.083,21.078-4.166,29.833-13.834,8.5-25.334,15-37.167,22.833s-12.5,35.3,11.333,35.5c19.5.167,55.334,0,71.5.334s21.834.833,50,4.833,131.334,16,151,18.833,54.566,10.263,70.5,26.5c17.5,17.834,25.334,41.334,21.334,65s-10.946,39.521-18.334,59.334c-7.333,19.666-17.166,46-21.833,58.333s-9.481,29.084,5,37c12.5,6.833,19.87,11.847,12.167,32.5-7.834,21-33.834,92.167-40.667,108.833s-14.167,29-38.333,24.334-44.217-6.682-70.5-8.5c-26.5-1.834-50.17-3.188-72.334-2.834-20.833.334-21.833,7.834-24,25.5s-3.166,24.167-9.166,36-21.167,35.5-23.667,46.167-2.333,31.833-2.167,52.833,2.667,36.5,12.167,47.167,33.833,23.5,51,29.833,29.667,10.667,43.333,14.5,23.413-3.04,24.5-17.833c1.667-22.667,8-79,11-98.667s3.167-47.833,3.334-68.5-2.105-77.959-2.834-93.333c-1.5-31.667-29.439-47.841-28.666-84.167.5-23.5.666-96.5.833-114s-1.333-48.166,6.667-63.333,20.666-27.833,37-34.333,38-6.334,55.833-6.167,46.167.667,67.167,3.333,74.166,20.167,96.333,29.667,44.833,11.5,73,11.833,49.833-7.666,69-16,42.833-27.166,75.333-29,94-2.666,118.667-2.666,47.451.248,71.333-20c15.334-13,31-28,31.167-38,.164-9.832-14.528-16.909-40-24.834-22.5-7-78.333-24.833-110.667-37.166S870.769,285.569,836.685,271.61Z"/><path id="a51bc76c-7604-4086-b61c-b8b73b957ef1" data-name="Track Middle" class="f03750d8-ec2a-4b74-b9da-21b2bc846c2e" d="M836.685,271.61c-31.451-12.88-112.5-47.125-134.083-56.291-20.627-8.761-70.729-28.671-87.833-35.334-15.084-5.875-25.75-10.954-56.334-4.5-24.875,5.25-66.125,19-83,26.875s-16.625,24.375-16.375,32.625,5.375,21.5,18.25,30.875,29.421,23.074,41.75,30.25c12.563,7.313,30.375,14.375,33.25,27.375s-2.5,21.5-10.375,24.125-18.572-2.167-31-10.875c-13.083-9.166-74.416-53.083-85.416-61.25s-18.79-20.548-30.75-41.666c-9.959-17.584-33.167-56.834-41-71.667s-8.744-23.84,5.333-31.833c19.667-11.167,38.833-21.334,52.667-32.834s28.666-25.333,34.666-40,4.667-24.666,4-33.166-8.666-13.667-29.166-14.167-53.167.167-67.5,3-33.334,12.833-44.334,26-18,34.167-44,31.5-44.333-4.333-60.333,0-26.667-2-32.833-8.667-19.667-15.333-34-8.166c-19.084,9.541-94.582,48.33-116.334,59.5-12.333,6.333-14.576,9.788-9.166,20.833,4,8.167,5.1,10.371,7.666,14.833,3.834,6.667,11.667,9.5,25.334,2.167s94.713-49.251,114.166-59.5c15.5-8.167,22.167-9,30.5,4.833s38.834,68.167,46.167,80.5,45.858,79.252,52.833,90.834c8.834,14.666,10.083,21.078-4.166,29.833-13.834,8.5-25.334,15-37.167,22.833s-12.5,35.3,11.333,35.5c19.5.167,55.334,0,71.5.334s21.834.833,50,4.833,131.334,16,151,18.833,54.566,10.263,70.5,26.5c17.5,17.834,25.334,41.334,21.334,65s-10.946,39.521-18.334,59.334c-7.333,19.666-17.166,46-21.833,58.333s-9.481,29.084,5,37c12.5,6.833,19.87,11.847,12.167,32.5-7.834,21-33.834,92.167-40.667,108.833s-14.167,29-38.333,24.334-44.217-6.682-70.5-8.5c-26.5-1.834-50.17-3.188-72.334-2.834-20.833.334-21.833,7.834-24,25.5s-3.166,24.167-9.166,36-21.167,35.5-23.667,46.167-2.333,31.833-2.167,52.833,2.667,36.5,12.167,47.167,33.833,23.5,51,29.833,29.667,10.667,43.333,14.5,23.413-3.04,24.5-17.833c1.667-22.667,8-79,11-98.667s3.167-47.833,3.334-68.5-2.105-77.959-2.834-93.333c-1.5-31.667-29.439-47.841-28.666-84.167.5-23.5.666-96.5.833-114s-1.333-48.166,6.667-63.333,20.666-27.833,37-34.333,38-6.334,55.833-6.167,46.167.667,67.167,3.333,74.166,20.167,96.333,29.667,44.833,11.5,73,11.833,49.833-7.666,69-16,42.833-27.166,75.333-29,94-2.666,118.667-2.666,47.451.248,71.333-20c15.334-13,31-28,31.167-38,.164-9.832-14.528-16.909-40-24.834-22.5-7-78.333-24.833-110.667-37.166S870.769,285.569,836.685,271.61Z"/><path id="ce391665-3941-4e47-82b6-7f1689eab4aa" data-name="Track Inner" class="b86ba6ff-e72d-4713-8028-ff90e2da9a92" d="M836.685,271.61c-31.451-12.88-112.5-47.125-134.083-56.291-20.627-8.761-70.729-28.671-87.833-35.334-15.084-5.875-25.75-10.954-56.334-4.5-24.875,5.25-66.125,19-83,26.875s-16.625,24.375-16.375,32.625,5.375,21.5,18.25,30.875,29.421,23.074,41.75,30.25c12.563,7.313,30.375,14.375,33.25,27.375s-2.5,21.5-10.375,24.125-18.572-2.167-31-10.875c-13.083-9.166-74.416-53.083-85.416-61.25s-18.79-20.548-30.75-41.666c-9.959-17.584-33.167-56.834-41-71.667s-8.744-23.84,5.333-31.833c19.667-11.167,38.833-21.334,52.667-32.834s28.666-25.333,34.666-40,4.667-24.666,4-33.166-8.666-13.667-29.166-14.167-53.167.167-67.5,3-33.334,12.833-44.334,26-18,34.167-44,31.5-44.333-4.333-60.333,0-26.667-2-32.833-8.667-19.667-15.333-34-8.166c-19.084,9.541-94.582,48.33-116.334,59.5-12.333,6.333-14.576,9.788-9.166,20.833,4,8.167,5.1,10.371,7.666,14.833,3.834,6.667,11.667,9.5,25.334,2.167s94.713-49.251,114.166-59.5c15.5-8.167,22.167-9,30.5,4.833s38.834,68.167,46.167,80.5,45.858,79.252,52.833,90.834c8.834,14.666,10.083,21.078-4.166,29.833-13.834,8.5-25.334,15-37.167,22.833s-12.5,35.3,11.333,35.5c19.5.167,55.334,0,71.5.334s21.834.833,50,4.833,131.334,16,151,18.833,54.566,10.263,70.5,26.5c17.5,17.834,25.334,41.334,21.334,65s-10.946,39.521-18.334,59.334c-7.333,19.666-17.166,46-21.833,58.333s-9.481,29.084,5,37c12.5,6.833,19.87,11.847,12.167,32.5-7.834,21-33.834,92.167-40.667,108.833s-14.167,29-38.333,24.334-44.217-6.682-70.5-8.5c-26.5-1.834-50.17-3.188-72.334-2.834-20.833.334-21.833,7.834-24,25.5s-3.166,24.167-9.166,36-21.167,35.5-23.667,46.167-2.333,31.833-2.167,52.833,2.667,36.5,12.167,47.167,33.833,23.5,51,29.833,29.667,10.667,43.333,14.5,23.413-3.04,24.5-17.833c1.667-22.667,8-79,11-98.667s3.167-47.833,3.334-68.5-2.105-77.959-2.834-93.333c-1.5-31.667-29.439-47.841-28.666-84.167.5-23.5.666-96.5.833-114s-1.333-48.166,6.667-63.333,20.666-27.833,37-34.333,38-6.334,55.833-6.167,46.167.667,67.167,3.333,74.166,20.167,96.333,29.667,44.833,11.5,73,11.833,49.833-7.666,69-16,42.833-27.166,75.333-29,94-2.666,118.667-2.666,47.451.248,71.333-20c15.334-13,31-28,31.167-38,.164-9.832-14.528-16.909-40-24.834-22.5-7-78.333-24.833-110.667-37.166S870.769,285.569,836.685,271.61Z"/><g id="f6f15a9f-8d70-4087-9031-b2534525bc21" data-name="Crossover"><path id="74a0d9c8-69e2-4021-bb65-62098f4b9e6e" data-name="Crossover Outer" class="7ec68116-9854-4038-ab2f-a7009ce76013" d="M465.289,847.485c.167-20.666-2.1-77.959-2.833-93.333-1.5-31.667-29.439-47.841-28.667-84.167"/><path id="6c52be71-9121-494f-8995-ba7b2a26f94a" data-name="Crossover Middle" class="f03750d8-ec2a-4b74-b9da-21b2bc846c2e" d="M465.289,847.485c.167-20.666-2.1-77.959-2.833-93.333-1.5-31.667-29.439-47.841-28.667-84.167"/><path id="ff5694e2-2a0a-4d91-ba43-0b95c3f7d562" data-name="Crossover Inner" class="b86ba6ff-e72d-4713-8028-ff90e2da9a92" d="M465.289,847.485c.167-20.666-2.1-77.959-2.833-93.333-1.5-31.667-29.439-47.841-28.667-84.167"/></g><g id="eca57616-0b9e-44fa-a717-250efc8f2717" data-name="Crossover"><path id="43221884-cd67-4369-9a3a-73da5f0feed8" data-name="Crossover Outer" class="7ec68116-9854-4038-ab2f-a7009ce76013" d="M602.456,406.485c17.5,17.834,25.333,41.334,21.333,65s-10.945,39.521-18.333,59.334"/><path id="2a1364bc-7f68-426b-89f5-ecde0c17fc71" data-name="Crossover Middle" class="f03750d8-ec2a-4b74-b9da-21b2bc846c2e" d="M602.456,406.485c17.5,17.834,25.333,41.334,21.333,65s-10.945,39.521-18.333,59.334"/><path id="d6cc890d-9595-4a94-869f-41f098550cf8" data-name="Crossover Inner" class="b86ba6ff-e72d-4713-8028-ff90e2da9a92" d="M602.456,406.485c17.5,17.834,25.333,41.334,21.333,65s-10.945,39.521-18.333,59.334"/></g><use id="8f2c17b6-0e48-4f91-bea7-adc51af44877" data-name="Start-Finish-Line" width="200" height="103.617" transform="translate(855.63 255.671) rotate(112.365) scale(0.217)" xlink:href="#74242c0d-74e3-434e-b56e-cc7025fee308"/></g></g></g></svg>