<svg xmlns="http://www.w3.org/2000/svg" xmlns:xlink="http://www.w3.org/1999/xlink" width="804.059" height="1132.446" viewBox="0 0 804.059 1132.446"><defs><style>.\30 785a193-045f-457e-b044-dd7552069b01{fill:#00ff24;}.\30 785a193-045f-457e-b044-dd7552069b01,.\36 3602eaf-bb49-44f1-9f53-2792c3855fa4{stroke:#000;stroke-width:5px;}.\30 785a193-045f-457e-b044-dd7552069b01,.\30 886740f-6361-4109-85c1-bd0339a6955e,.\31 5a23eb1-c653-4441-b427-5fabb85362a4,.\36 291db80-1e4d-46e3-8df1-4a6a93be8956,.\36 3602eaf-bb49-44f1-9f53-2792c3855fa4,.\36 c27bf9c-e2f4-4a86-8289-efce2a81f193,.\37 87c3dc9-591e-4679-b27b-d8d5328a02a6,.\39 2ebc14b-efa1-4dba-b4f7-678af3ec6648{stroke-miterlimit:10;}.\36 3602eaf-bb49-44f1-9f53-2792c3855fa4{fill:#fff;}.\30 886740f-6361-4109-85c1-bd0339a6955e,.\31 5a23eb1-c653-4441-b427-5fabb85362a4,.\36 291db80-1e4d-46e3-8df1-4a6a93be8956,.\36 c27bf9c-e2f4-4a86-8289-efce2a81f193,.\37 87c3dc9-591e-4679-b27b-d8d5328a02a6,.\39 2ebc14b-efa1-4dba-b4f7-678af3ec6648{fill:none;}.\30 886740f-6361-4109-85c1-bd0339a6955e,.\31 5a23eb1-c653-4441-b427-5fabb85362a4,.\36 291db80-1e4d-46e3-8df1-4a6a93be8956,.\39 2ebc14b-efa1-4dba-b4f7-678af3ec6648{stroke:#0080ff;}.\39 2ebc14b-efa1-4dba-b4f7-678af3ec6648{stroke-width:20px;}.\36 c27bf9c-e2f4-4a86-8289-efce2a81f193,.\37 87c3dc9-591e-4679-b27b-d8d5328a02a6{stroke:#fff;}.\37 87c3dc9-591e-4679-b27b-d8d5328a02a6{stroke-width:12px;}.\36 291db80-1e4d-46e3-8df1-4a6a93be8956{stroke-width:2px;}.\30 886740f-6361-4109-85c1-bd0339a6955e,.\36 c27bf9c-e2f4-4a86-8289-efce2a81f193{stroke-width:1.5px;}</style><symbol id="2cd1c1ee-e7cb-452e-a2cf-7e12a8898d7e" data-name="fd103434-89f2-4089-acf9-54fed79ed404" viewBox="0 0 200 103.617"><rect class="0785a193-045f-457e-b044-dd7552069b01" x="2.5" y="54.074" width="195" height="47.043"/><rect class="63602eaf-bb49-44f1-9f53-2792c3855fa4" x="2.5" y="2.5" width="48.75" height="48.75"/><rect class="63602eaf-bb49-44f1-9f53-2792c3855fa4" x="51.25" y="2.5" width="48.75" height="48.75"/><rect class="63602eaf-bb49-44f1-9f53-2792c3855fa4" x="100" y="2.5" width="48.75" height="48.75"/><rect class="63602eaf-bb49-44f1-9f53-2792c3855fa4" x="148.75" y="2.5" width="48.75" height="48.75"/></symbol></defs><title>Skyline_Raceway</title><g id="626d60e2-a2c6-4575-8d35-f1cdc77d8bbf" data-name="Layer 2"><g id="57caa694-d834-4a0b-a184-094a20228b06" data-name="City - Downtown"><g id="d2c27314-533d-45ca-846b-b6b85e9d876c" data-name="Skyline_Raceway"><path id="f83557c9-26cd-4cfc-bd45-cdc5e46408c8" data-name="Track Outer" class="92ebc14b-efa1-4dba-b4f7-678af3ec6648" d="M156.721,342.893c.187-31.339,2.5-67.833,4.833-87.333s10.052-55.16,10.667-80.167c.5-20.333-.667-33,3.333-48.333s16.334-28.5,23-33.667,20.667-13.166,34.167-15,36-1,52-1.666,61.333.166,76.333-7.5,15-19.5,14.667-29-6-26.135-27.667-27.167c-21-1-74.666-2-102.333-2.667s-45-1.666-65,8.167-28.5,26.667-31.333,32.833-7,20.5-7.167,51,.667,42.75.667,68.5-11.75,30-12,54.25,11.266,26.5,11,50.75c-.25,22.75-.25,62.75,0,86.5s0,51.5-.25,71.5-10.75,42.25-12,56.25-2,51.5-6,72.5-11.755,66.031-5.75,85.5c8.25,26.75,27.214,39.67,54,45.25,24,5,94.737,3.5,133.5,3.5,18.5,0,19.166,12.975,0,13.167-16.667.167-46.667-.333-63-.167s-37.167,11.5-48.834,30.167-13,32.333-13.5,54.5-.666,44-.5,58.167,3.337,23.693,21.5,24.166c19.167.5,58.659,1.322,80.5,1,22.667-.333,36.834-3,56.334-13.166s53.936-28.689,63.666-40.334c10.167-12.166,16.834-26.166,17.5-51.166s5.032-110,5.167-130c.167-24.667,7.479-30.841,28.5-31.167,21.5-.333,61.18-1.318,83-2.333,21.5-1,27.333-10.334,36-30.167s26.167-53.333,31.5-68.167,15.5-22.333,35.667-14.666,32.5,12.333,48.5,18.166,41.833,16,57.166,16.5,22.5.167,33.834.667,15.833,5.833,15.666,21,0,21.167,0,34-2.166,20.167-18.5,20.333-93.166-1.166-121.666-1.5-45.834,0-63.834.667-14.54,28.094-41.666,31c-18.667,2-52.667,6.333-75.334,7.5s-48.333,2.5-69.5,8.167-105.666,4.5-130.666,3.166-67.211,1.732-91.5-37c-12.334-19.666-9.834-45.166-9.667-61.333s-1.667-57.5-5.667-81.167-9.658-43.5-9.5-65.166C156.721,388.893,156.554,370.893,156.721,342.893Z"/><path id="8df6bf98-8ced-4ad0-b28c-40b4b9e7b5d9" data-name="Track Middle" class="787c3dc9-591e-4679-b27b-d8d5328a02a6" d="M156.721,342.893c.187-31.339,2.5-67.833,4.833-87.333s10.052-55.16,10.667-80.167c.5-20.333-.667-33,3.333-48.333s16.334-28.5,23-33.667,20.667-13.166,34.167-15,36-1,52-1.666,61.333.166,76.333-7.5,15-19.5,14.667-29-6-26.135-27.667-27.167c-21-1-74.666-2-102.333-2.667s-45-1.666-65,8.167-28.5,26.667-31.333,32.833-7,20.5-7.167,51,.667,42.75.667,68.5-11.75,30-12,54.25,11.266,26.5,11,50.75c-.25,22.75-.25,62.75,0,86.5s0,51.5-.25,71.5-10.75,42.25-12,56.25-2,51.5-6,72.5-11.755,66.031-5.75,85.5c8.25,26.75,27.214,39.67,54,45.25,24,5,94.737,3.5,133.5,3.5,18.5,0,19.166,12.975,0,13.167-16.667.167-46.667-.333-63-.167s-37.167,11.5-48.834,30.167-13,32.333-13.5,54.5-.666,44-.5,58.167,3.337,23.693,21.5,24.166c19.167.5,58.659,1.322,80.5,1,22.667-.333,36.834-3,56.334-13.166s53.936-28.689,63.666-40.334c10.167-12.166,16.834-26.166,17.5-51.166s5.032-110,5.167-130c.167-24.667,7.479-30.841,28.5-31.167,21.5-.333,61.18-1.318,83-2.333,21.5-1,27.333-10.334,36-30.167s26.167-53.333,31.5-68.167,15.5-22.333,35.667-14.666,32.5,12.333,48.5,18.166,41.833,16,57.166,16.5,22.5.167,33.834.667,15.833,5.833,15.666,21,0,21.167,0,34-2.166,20.167-18.5,20.333-93.166-1.166-121.666-1.5-45.834,0-63.834.667-14.54,28.094-41.666,31c-18.667,2-52.667,6.333-75.334,7.5s-48.333,2.5-69.5,8.167-105.666,4.5-130.666,3.166-67.211,1.732-91.5-37c-12.334-19.666-9.834-45.166-9.667-61.333s-1.667-57.5-5.667-81.167-9.658-43.5-9.5-65.166C156.721,388.893,156.554,370.893,156.721,342.893Z"/><path id="309ebdf2-c282-4c36-bf5a-01704308da0c" data-name="Track Inner" class="6291db80-1e4d-46e3-8df1-4a6a93be8956" d="M156.721,342.893c.187-31.339,2.5-67.833,4.833-87.333s10.052-55.16,10.667-80.167c.5-20.333-.667-33,3.333-48.333s16.334-28.5,23-33.667,20.667-13.166,34.167-15,36-1,52-1.666,61.333.166,76.333-7.5,15-19.5,14.667-29-6-26.135-27.667-27.167c-21-1-74.666-2-102.333-2.667s-45-1.666-65,8.167-28.5,26.667-31.333,32.833-7,20.5-7.167,51,.667,42.75.667,68.5-11.75,30-12,54.25,11.266,26.5,11,50.75c-.25,22.75-.25,62.75,0,86.5s0,51.5-.25,71.5-10.75,42.25-12,56.25-2,51.5-6,72.5-11.755,66.031-5.75,85.5c8.25,26.75,27.214,39.67,54,45.25,24,5,94.737,3.5,133.5,3.5,18.5,0,19.166,12.975,0,13.167-16.667.167-46.667-.333-63-.167s-37.167,11.5-48.834,30.167-13,32.333-13.5,54.5-.666,44-.5,58.167,3.337,23.693,21.5,24.166c19.167.5,58.659,1.322,80.5,1,22.667-.333,36.834-3,56.334-13.166s53.936-28.689,63.666-40.334c10.167-12.166,16.834-26.166,17.5-51.166s5.032-110,5.167-130c.167-24.667,7.479-30.841,28.5-31.167,21.5-.333,61.18-1.318,83-2.333,21.5-1,27.333-10.334,36-30.167s26.167-53.333,31.5-68.167,15.5-22.333,35.667-14.666,32.5,12.333,48.5,18.166,41.833,16,57.166,16.5,22.5.167,33.834.667,15.833,5.833,15.666,21,0,21.167,0,34-2.166,20.167-18.5,20.333-93.166-1.166-121.666-1.5-45.834,0-63.834.667-14.54,28.094-41.666,31c-18.667,2-52.667,6.333-75.334,7.5s-48.333,2.5-69.5,8.167-105.666,4.5-130.666,3.166-67.211,1.732-91.5-37c-12.334-19.666-9.834-45.166-9.667-61.333s-1.667-57.5-5.667-81.167-9.658-43.5-9.5-65.166C156.721,388.893,156.554,370.893,156.721,342.893Z"/><path id="c0a655ca-5cd8-4233-97f9-583686e3595f" data-name="Track Outer" class="92ebc14b-efa1-4dba-b4f7-678af3ec6648" d="M141.878,281.1c0,23.667-14.528,38.17-14.949,66.167-.333,22.167-1.166,68.834-.5,89.5s14.75,74.75,15,100,.5,55,.5,77.25,1,65.763.25,88.25c-1.25,37.5,16.061,13.5,15.25,63.75-.5,31,0,129.584-2.666,161.25s-27.734,19.948-34.834,40.5c-9.5,27.5-17.25,44-37.25,65.75s-30.916,33.25-45.416,44.917-32.167,28.667-26,40.5,37.166-9.333,47.5-18,39.666-35.167,53.916-58.667,29.75-55.833,33.75-73,8.483-24.631,9.875-45c1-14.625,1.5-30.25,1.75-40.375.321-13-16.708-34.119-16.125-53.375.5-16.5.667-71.583.667-93.583s-.042-38.792.083-54.792,14.266-31.5,14.375-54.5c.125-26.375-.625-85.625-.375-118.875s.167-69.916-.083-97.166"/><path id="5a84e083-641e-484f-9ad5-43cb1881af77" data-name="Track Middle" class="787c3dc9-591e-4679-b27b-d8d5328a02a6" d="M141.878,281.1c0,23.667-14.528,38.17-14.949,66.167-.333,22.167-1.166,68.834-.5,89.5s14.75,74.75,15,100,.5,55,.5,77.25,1,65.763.25,88.25c-1.25,37.5,16.061,13.5,15.25,63.75-.5,31,0,129.584-2.666,161.25s-27.734,19.948-34.834,40.5c-9.5,27.5-17.25,44-37.25,65.75s-30.916,33.25-45.416,44.917-32.167,28.667-26,40.5,37.166-9.333,47.5-18,39.666-35.167,53.916-58.667,29.75-55.833,33.75-73,8.483-24.631,9.875-45c1-14.625,1.5-30.25,1.75-40.375.321-13-16.708-34.119-16.125-53.375.5-16.5.667-71.583.667-93.583s-.042-38.792.083-54.792,14.266-31.5,14.375-54.5c.125-26.375-.625-85.625-.375-118.875s.167-69.916-.083-97.166"/><g id="e57a34bf-e2b4-49cd-ad75-607e8057d48e" data-name="Shared"><path id="e3bd6e6e-1bad-4315-9282-42294f0e6a0d" data-name="Track Middle" class="787c3dc9-591e-4679-b27b-d8d5328a02a6" d="M181.367,619.326c-12.333-19.667-9.833-45.167-9.667-61.334s-1.666-57.5-5.666-81.166-9.659-43.5-9.5-65.167c.166-22.833,0-40.833.166-68.833"/><path id="e4e96fd8-d8ea-4cd1-81ef-18eab866e03f" data-name="Track Inner" class="6291db80-1e4d-46e3-8df1-4a6a93be8956" d="M181.367,619.326c-12.333-19.667-9.833-45.167-9.667-61.334s-1.666-57.5-5.666-81.166-9.659-43.5-9.5-65.167c.166-22.833,0-40.833.166-68.833"/></g><path id="21e203a1-18d1-45e3-b9bf-a4f0b50519cf" data-name="Track Inner" class="6291db80-1e4d-46e3-8df1-4a6a93be8956" d="M141.878,281.1c0,23.667-14.528,38.17-14.949,66.167-.333,22.167-1.166,68.834-.5,89.5s14.75,74.75,15,100,.5,55,.5,77.25,1,65.763.25,88.25c-1.25,37.5,16.061,13.5,15.25,63.75-.5,31,0,129.584-2.666,161.25s-27.734,19.948-34.834,40.5c-9.5,27.5-17.25,44-37.25,65.75s-30.916,33.25-45.416,44.917-32.167,28.667-26,40.5,37.166-9.333,47.5-18,39.666-35.167,53.916-58.667,29.75-55.833,33.75-73,8.483-24.631,9.875-45c1-14.625,1.5-30.25,1.75-40.375.321-13-16.708-34.119-16.125-53.375.5-16.5.667-71.583.667-93.583s-.042-38.792.083-54.792,14.266-31.5,14.375-54.5c.125-26.375-.625-85.625-.375-118.875s.167-69.916-.083-97.166"/><g id="1b54238e-44e3-44cd-a254-d36101b43a52" data-name="Crossover"><path id="73ae56e3-fdf5-477e-964b-67a866ecc447" data-name="Crossover Outer" class="92ebc14b-efa1-4dba-b4f7-678af3ec6648" d="M473.093,645.06c-22.667,1.167-48.333,2.5-69.5,8.167s-105.667,4.5-130.667,3.167"/><path id="afa8c7df-a10c-4a14-9c8c-f47e700dcfbd" data-name="Crossover Middle" class="787c3dc9-591e-4679-b27b-d8d5328a02a6" d="M473.093,645.06c-22.667,1.167-48.333,2.5-69.5,8.167s-105.667,4.5-130.667,3.167"/><path id="54d927f9-deea-4464-b18b-60c2911ea3ea" data-name="Crossover Inner" class="6291db80-1e4d-46e3-8df1-4a6a93be8956" d="M473.093,645.06c-22.667,1.167-48.333,2.5-69.5,8.167s-105.667,4.5-130.667,3.167"/></g><g id="374e5cc9-9baf-408f-bcbc-c3c402e279ea" data-name="Crossover"><path id="50d1cc3a-94ac-42da-bb88-e88fd17adb02" data-name="Crossover Outer" class="92ebc14b-efa1-4dba-b4f7-678af3ec6648" d="M112.685,1042.253c14.25-23.5,29.75-55.834,33.75-73s8.482-24.632,9.875-45c1-14.625,1.5-30.25,1.75-40.375.321-13-16.709-34.119-16.125-53.375.5-16.5.666-71.584.666-93.584s-.041-38.791.084-54.791,14.266-31.5,14.375-54.5c.125-26.375-.625-85.625-.375-118.875"/><path id="7516ddc1-fc35-41ba-9114-3515919a7bca" data-name="Crossover Middle" class="787c3dc9-591e-4679-b27b-d8d5328a02a6" d="M112.685,1042.253c14.25-23.5,29.75-55.834,33.75-73s8.482-24.632,9.875-45c1-14.625,1.5-30.25,1.75-40.375.321-13-16.709-34.119-16.125-53.375.5-16.5.666-71.584.666-93.584s-.041-38.791.084-54.791,14.266-31.5,14.375-54.5c.125-26.375-.625-85.625-.375-118.875"/><path id="4eb120cd-f6fc-46cb-ba4e-1af7f6413007" data-name="Crossover Inner" class="6291db80-1e4d-46e3-8df1-4a6a93be8956" d="M112.685,1042.253c14.25-23.5,29.75-55.834,33.75-73s8.482-24.632,9.875-45c1-14.625,1.5-30.25,1.75-40.375.321-13-16.709-34.119-16.125-53.375.5-16.5.666-71.584.666-93.584s-.041-38.791.084-54.791,14.266-31.5,14.375-54.5c.125-26.375-.625-85.625-.375-118.875"/></g><g id="424d596e-2891-474f-b102-d45e352fb0f8" data-name="Crossover"><path id="288179e6-009a-48e0-a483-1952755fcb9e" data-name="Crossover Outer" class="92ebc14b-efa1-4dba-b4f7-678af3ec6648" d="M117.877,648.154c8.25,26.75,27.214,39.669,54,45.25,24,5,94.737,3.5,133.5,3.5"/><path id="5fc5846c-48fa-4cc5-b427-16d63df84eb8" data-name="Crossover Middle" class="787c3dc9-591e-4679-b27b-d8d5328a02a6" d="M117.877,648.154c8.25,26.75,27.214,39.669,54,45.25,24,5,94.737,3.5,133.5,3.5"/><path id="8307b901-95d1-4316-b214-051bca8e3921" data-name="Crossover Inner" class="6291db80-1e4d-46e3-8df1-4a6a93be8956" d="M117.877,648.154c8.25,26.75,27.214,39.669,54,45.25,24,5,94.737,3.5,133.5,3.5"/></g><g id="3e43f723-18ae-4416-a828-e167af3e81ce" data-name="Crossover"><path id="0d26ae61-adec-4c51-bf48-0bf710ef9e4c" data-name="Crossover Outer" class="92ebc14b-efa1-4dba-b4f7-678af3ec6648" d="M141.763,336.643c.25,23.75.146,77.188-.1,97.188s-10.75,42.25-12,56.25-2,51.5-6,72.5"/><path id="ec460f9e-0088-49ad-8b3e-a694fd4fc762" data-name="Crossover Middle" class="787c3dc9-591e-4679-b27b-d8d5328a02a6" d="M123.659,562.581c4-21,4.75-58.5,6-72.5s11.75-36.25,12-56.25.641-73.442.1-97.188c-.5-22.083.115-41.625.115-55.542"/><path id="385e4b97-4076-4ba7-b928-75266bd04996" data-name="Crossover Inner" class="6291db80-1e4d-46e3-8df1-4a6a93be8956" d="M141.878,279.768c.213,10.219-.177,41.125-.115,56.875.093,23.752.146,77.188-.1,97.188s-10.75,42.25-12,56.25-2,51.5-6,72.5"/></g><g id="84118d51-b5e8-4cc1-89bf-c20621eb86b9" data-name="Mess"><path id="b27b04f4-ed2a-4348-9e44-d48bfc4386b9" data-name="&lt;Pfad&gt;" class="6291db80-1e4d-46e3-8df1-4a6a93be8956" d="M141.869,281.034c0,23.666-14.527,38.169-14.948,66.167-.334,22.166-1.167,68.833-.5,89.5"/><path id="a924e5b0-3793-4b69-9b72-92301969c693" data-name="&lt;Pfad&gt;" class="15a23eb1-c653-4441-b427-5fabb85362a4" d="M303.325,706.409a29.419,29.419,0,0,0,5.641-.375c3.411-.4,4.413-2.039,1.469-2.375a21.666,21.666,0,0,0-4.016-.234"/><path id="a2af1b35-6275-4374-a78d-f1b9e3c7e00c" data-name="&lt;Pfad&gt;" class="0886740f-6361-4109-85c1-bd0339a6955e" d="M298.689,704.4c8.594-.235,9.147-.46,10.86-.275,4.9.53-.439,1.081-7.443,1.054"/><path class="6c27bf9c-e2f4-4a86-8289-efce2a81f193" d="M130.981,349.362c.39-13.078,1.618-20.945,6.221-30.618"/><path class="15a23eb1-c653-4441-b427-5fabb85362a4" d="M148.263,298.154c-.282,7-.125,11.437-.063,15.469"/><path id="f0d416b6-8ba7-4cad-b74a-19409b81bdd6" data-name="Track Middle" class="787c3dc9-591e-4679-b27b-d8d5328a02a6" d="M181.367,619.326c-12.333-19.667-9.833-45.167-9.667-61.334s-1.666-57.5-5.666-81.166-9.659-43.5-9.5-65.167c.166-22.833,0-40.833.166-68.833"/><path id="71aa38bb-835a-425a-a79e-761b1bee3472" data-name="Track Inner" class="787c3dc9-591e-4679-b27b-d8d5328a02a6" d="M156.659,491.456c.25-33.25.166-69.917-.084-97.167"/><path id="c64d4655-4731-4322-aa4b-c11aac6bd407" data-name="Track Inner" class="6291db80-1e4d-46e3-8df1-4a6a93be8956" d="M156.659,491.456c.25-33.25.166-69.917-.084-97.167"/><path id="4108394f-012b-4f89-a074-75fb1de4ce0a" data-name="Track Inner" class="6291db80-1e4d-46e3-8df1-4a6a93be8956" d="M181.367,619.326c-12.333-19.667-9.833-45.167-9.667-61.334s-1.666-57.5-5.666-81.166-9.659-43.5-9.5-65.167c.166-22.833,0-40.833.166-68.833"/></g><use id="69f20e61-dcbd-49dc-9b3c-48cd718801eb" data-name="Start-Finish-Line" width="200" height="103.617" transform="matrix(-0.243, -0.002, 0.002, -0.243, 181.056, 353.093)" xlink:href="#2cd1c1ee-e7cb-452e-a2cf-7e12a8898d7e"/></g></g></g></svg>