<svg xmlns="http://www.w3.org/2000/svg" xmlns:xlink="http://www.w3.org/1999/xlink" width="827.114" height="780.953" viewBox="0 0 827.114 780.953"><defs><style>.\36 1e65fe7-e23a-492e-bf19-16678eed9146{fill:#00ff24;}.\36 1e65fe7-e23a-492e-bf19-16678eed9146,.b8c5ebea-174a-47c2-96bc-452c26ffbb8d{stroke:#000;stroke-width:5px;}.\31 97160a6-1f44-4a97-ba43-9e6916f2c6a0,.\33 11dcf4c-157c-46c8-961f-0866dea074c9,.\34 cc89093-1378-4296-8011-73cd5fce8210,.\36 1e65fe7-e23a-492e-bf19-16678eed9146,.\39 a3fa576-c024-4e01-9101-316bee89cdb2,.b8c5ebea-174a-47c2-96bc-452c26ffbb8d,.f1c80bb9-aba0-4ab7-8934-32a717f6b39c{stroke-miterlimit:10;}.b8c5ebea-174a-47c2-96bc-452c26ffbb8d{fill:#fff;}.\31 97160a6-1f44-4a97-ba43-9e6916f2c6a0,.\33 11dcf4c-157c-46c8-961f-0866dea074c9,.\34 cc89093-1378-4296-8011-73cd5fce8210,.\39 a3fa576-c024-4e01-9101-316bee89cdb2,.f1c80bb9-aba0-4ab7-8934-32a717f6b39c{fill:none;}.\39 a3fa576-c024-4e01-9101-316bee89cdb2,.f1c80bb9-aba0-4ab7-8934-32a717f6b39c{stroke:#c91c1c;}.\34 cc89093-1378-4296-8011-73cd5fce8210,.\39 a3fa576-c024-4e01-9101-316bee89cdb2{stroke-width:20px;}.\33 11dcf4c-157c-46c8-961f-0866dea074c9,.\34 cc89093-1378-4296-8011-73cd5fce8210{stroke:#0080ff;}.\31 97160a6-1f44-4a97-ba43-9e6916f2c6a0{stroke:#fff;stroke-width:12px;}.\33 11dcf4c-157c-46c8-961f-0866dea074c9,.f1c80bb9-aba0-4ab7-8934-32a717f6b39c{stroke-width:2px;}</style><symbol id="81fef09f-9148-4d9a-b53d-6d100fb3e0fe" data-name="fd103434-89f2-4089-acf9-54fed79ed404" viewBox="0 0 200 103.617"><rect class="61e65fe7-e23a-492e-bf19-16678eed9146" x="2.5" y="54.074" width="195" height="47.043"/><rect class="b8c5ebea-174a-47c2-96bc-452c26ffbb8d" x="2.5" y="2.5" width="48.75" height="48.75"/><rect class="b8c5ebea-174a-47c2-96bc-452c26ffbb8d" x="51.25" y="2.5" width="48.75" height="48.75"/><rect class="b8c5ebea-174a-47c2-96bc-452c26ffbb8d" x="100" y="2.5" width="48.75" height="48.75"/><rect class="b8c5ebea-174a-47c2-96bc-452c26ffbb8d" x="148.75" y="2.5" width="48.75" height="48.75"/></symbol></defs><title>SpeedRunner.v2.03</title><g id="4568a39f-d177-4de9-b4c1-e48f927349c9" data-name="Layer 2"><g id="0ca62df1-f2c5-4458-93f9-008bf26de3f1" data-name="City - Downtown"><g id="0536fdd6-23cb-4849-b94e-74a5a53d336b" data-name="SpeedRunner.v2.03"><path id="a84e055a-2f54-4a99-92fe-2a02c8a4335b" data-name="Pitlane Outer" class="9a3fa576-c024-4e01-9101-316bee89cdb2" d="M796.375,196.8c-5.5,17.167-17.663,12.3-23.33,27.966s-15.166,43.084-21.333,59.584,4.154,28.108-2.846,48.775"/><path id="40afe389-9d2c-40e9-9095-9d0ebc757b93" data-name="Track Outer" class="4cc89093-1378-4296-8011-73cd5fce8210" d="M711.587,437.6c-4.859,13.551-6.883,18.575-9.5,25.75a125.715,125.715,0,0,0-7.5,39.5c-.5,15.5-1.516,41.543,1.25,57.5,3.25,18.75,8.375,51.748,8.375,75.625,0,18.5-2.88,44.642-8,61.708-6,20-25.17,47.96-35.333,60.833-10,12.667-26.5,18-43,4.667s-34-31.833-41.5-44-12.834-21-16.334-27.5-7-13.333-4.833-31.5,3.167-29.5,3.167-47.5-.5-37.833-1.167-51.667-6.185-16.58-28.333-15.666c-16.167.666-60.334,2.5-79.834,2.666s-35.166-7.666-26.833-31,33.333-93.666,39.667-111,5.666-33-23.334-43.833-57.333-21-74-27.167-35-4.5-41.5,13.5S280.712,463.6,273.712,482.6s-12.333,33.916-16.5,45.583-8.833,22.667-34,21.333-55.833-6.5-73.333-11.5-77.348-23.961-107.5-35.166c-24.667-9.167-31.824-16.168-32-37.5-.167-20.167-.5-30.5-.334-49.334s2.5-37.333,14.334-58,21.735-46.116,23-63.666c1.333-18.5,4.333-20,24.5-20.334s75.833,1.084,116.333,6.584c39.485,5.362,74.924,19.027,102,29.25,24.5,9.25,42,13.5,51.25-11s39.75-108.667,52.417-144.334,37.166-105.5,42.833-122.5,18-22,43.833-22,65.667-1,98.5,11.834,80.5,30.666,127.167,48.666,66.667,28.667,85.333,36.334,32,13.333,22.334,40-50.773,146.628-63,180.666C738.545,361.852,723.629,404.018,711.587,437.6Z"/><path id="8564c195-755c-4c40-97bc-8cb2456cc37c" data-name="Pitlane Middle" class="197160a6-1f44-4a97-ba43-9e6916f2c6a0" d="M796.375,196.8c-5.5,17.167-17.663,12.3-23.33,27.966s-15.166,43.084-21.333,59.584,4.154,28.108-2.846,48.775"/><path id="c6d41a85-2231-42f3-8cb2-f825ac8a83d3" data-name="Track Middle" class="197160a6-1f44-4a97-ba43-9e6916f2c6a0" d="M711.587,437.6c-4.859,13.551-6.883,18.575-9.5,25.75a125.715,125.715,0,0,0-7.5,39.5c-.5,15.5-1.516,41.543,1.25,57.5,3.25,18.75,8.375,51.748,8.375,75.625,0,18.5-2.88,44.642-8,61.708-6,20-25.17,47.96-35.333,60.833-10,12.667-26.5,18-43,4.667s-34-31.833-41.5-44-12.834-21-16.334-27.5-7-13.333-4.833-31.5,3.167-29.5,3.167-47.5-.5-37.833-1.167-51.667-6.185-16.58-28.333-15.666c-16.167.666-60.334,2.5-79.834,2.666s-35.166-7.666-26.833-31,33.333-93.666,39.667-111,5.666-33-23.334-43.833-57.333-21-74-27.167-35-4.5-41.5,13.5S280.712,463.6,273.712,482.6s-12.333,33.916-16.5,45.583-8.833,22.667-34,21.333-55.833-6.5-73.333-11.5-77.348-23.961-107.5-35.166c-24.667-9.167-31.824-16.168-32-37.5-.167-20.167-.5-30.5-.334-49.334s2.5-37.333,14.334-58,21.735-46.116,23-63.666c1.333-18.5,4.333-20,24.5-20.334s75.833,1.084,116.333,6.584c39.485,5.362,74.924,19.027,102,29.25,24.5,9.25,42,13.5,51.25-11s39.75-108.667,52.417-144.334,37.166-105.5,42.833-122.5,18-22,43.833-22,65.667-1,98.5,11.834,80.5,30.666,127.167,48.666,66.667,28.667,85.333,36.334,32,13.333,22.334,40-50.773,146.628-63,180.666C738.545,361.852,723.629,404.018,711.587,437.6Z"/><path id="8c3f11e1-560f-494b-8f67-7751bcd8968a" data-name="Pitlane Inner" class="f1c80bb9-aba0-4ab7-8934-32a717f6b39c" d="M796.375,196.8c-5.5,17.167-17.663,12.3-23.33,27.966s-15.166,43.084-21.333,59.584,4.154,28.108-2.846,48.775"/><path id="81b81a93-4d6d-43db-b0a3-bd43a59303f2" data-name="Track Inner" class="311dcf4c-157c-46c8-961f-0866dea074c9" d="M711.587,437.6c-4.859,13.551-6.883,18.575-9.5,25.75a125.715,125.715,0,0,0-7.5,39.5c-.5,15.5-1.516,41.543,1.25,57.5,3.25,18.75,8.375,51.748,8.375,75.625,0,18.5-2.88,44.642-8,61.708-6,20-25.17,47.96-35.333,60.833-10,12.667-26.5,18-43,4.667s-34-31.833-41.5-44-12.834-21-16.334-27.5-7-13.333-4.833-31.5,3.167-29.5,3.167-47.5-.5-37.833-1.167-51.667-6.185-16.58-28.333-15.666c-16.167.666-60.334,2.5-79.834,2.666s-35.166-7.666-26.833-31,33.333-93.666,39.667-111,5.666-33-23.334-43.833-57.333-21-74-27.167-35-4.5-41.5,13.5S280.712,463.6,273.712,482.6s-12.333,33.916-16.5,45.583-8.833,22.667-34,21.333-55.833-6.5-73.333-11.5-77.348-23.961-107.5-35.166c-24.667-9.167-31.824-16.168-32-37.5-.167-20.167-.5-30.5-.334-49.334s2.5-37.333,14.334-58,21.735-46.116,23-63.666c1.333-18.5,4.333-20,24.5-20.334s75.833,1.084,116.333,6.584c39.485,5.362,74.924,19.027,102,29.25,24.5,9.25,42,13.5,51.25-11s39.75-108.667,52.417-144.334,37.166-105.5,42.833-122.5,18-22,43.833-22,65.667-1,98.5,11.834,80.5,30.666,127.167,48.666,66.667,28.667,85.333,36.334,32,13.333,22.334,40-50.773,146.628-63,180.666C738.545,361.852,723.629,404.018,711.587,437.6Z"/><use id="6822cd63-c4c1-499e-a62a-acaf8fe55e01" data-name="Start-Finish-Line" width="200" height="103.617" transform="translate(693.23 416.667) rotate(19.804) scale(0.243)" xlink:href="#81fef09f-9148-4d9a-b53d-6d100fb3e0fe"/></g></g></g></svg>