<svg xmlns="http://www.w3.org/2000/svg" xmlns:xlink="http://www.w3.org/1999/xlink" width="1188.03" height="874.582" viewBox="0 0 1188.03 874.582"><defs><style>.\30 5554d81-55e2-45a2-9f71-857ee1807a70{fill:#00ff24;}.\30 5554d81-55e2-45a2-9f71-857ee1807a70,.\36 2e7df15-cb98-4e2b-90c5-fbd6f14e00d8{stroke:#000;stroke-width:5px;}.\30 5554d81-55e2-45a2-9f71-857ee1807a70,.\31 2a295ed-c7dd-47ca-8634-8c1497fc82b1,.\36 2e7df15-cb98-4e2b-90c5-fbd6f14e00d8,.\38 1fcccf6-8d8a-4f49-a71c-6e52238157f3,.af13e103-d738-4b53-b991-4ec5e76c4056{stroke-miterlimit:10;}.\36 2e7df15-cb98-4e2b-90c5-fbd6f14e00d8{fill:#fff;}.\31 2a295ed-c7dd-47ca-8634-8c1497fc82b1,.\38 1fcccf6-8d8a-4f49-a71c-6e52238157f3,.af13e103-d738-4b53-b991-4ec5e76c4056{fill:none;}.\31 2a295ed-c7dd-47ca-8634-8c1497fc82b1,.\38 1fcccf6-8d8a-4f49-a71c-6e52238157f3{stroke:#0080ff;}.\38 1fcccf6-8d8a-4f49-a71c-6e52238157f3{stroke-width:20px;}.af13e103-d738-4b53-b991-4ec5e76c4056{stroke:#fff;stroke-width:12px;}.\31 2a295ed-c7dd-47ca-8634-8c1497fc82b1{stroke-width:2px;}</style><symbol id="ed4abc36-d78d-4321-9038-52d2e8499498" data-name="fd103434-89f2-4089-acf9-54fed79ed404" viewBox="0 0 200 103.617"><rect class="05554d81-55e2-45a2-9f71-857ee1807a70" x="2.5" y="54.074" width="195" height="47.043"/><rect class="62e7df15-cb98-4e2b-90c5-fbd6f14e00d8" x="2.5" y="2.5" width="48.75" height="48.75"/><rect class="62e7df15-cb98-4e2b-90c5-fbd6f14e00d8" x="51.25" y="2.5" width="48.75" height="48.75"/><rect class="62e7df15-cb98-4e2b-90c5-fbd6f14e00d8" x="100" y="2.5" width="48.75" height="48.75"/><rect class="62e7df15-cb98-4e2b-90c5-fbd6f14e00d8" x="148.75" y="2.5" width="48.75" height="48.75"/></symbol></defs><title>_WWReconstructedSkyline17</title><g id="68bd9e35-efbd-4494-ae42-cdc2c8be4b5e" data-name="Layer 2"><g id="496e6055-3627-4c06-92ef-b32890aa8c71" data-name="City - Downtown"><g id="7bb3ad8b-b5af-4ac1-b249-65d7293dc35b" data-name="_WWReconstructedSkyline17"><path id="7e189808-04a9-4630-b2eb-1270e51cb625" data-name="Track Outer" class="81fcccf6-8d8a-4f49-a71c-6e52238157f3" d="M571.552,472.089c-30.713,11.129-47.111,13-63.555,3.556-17.817-10.233-30.445-26.223-44.334-32.778-12.235-5.775-21.15-7.976-51-5.222-30.111,2.777-65.222,4.555-80.666,3.666-21.417-1.232-67.136,17.679-84.667,38.445-15.056,17.833-115.65,133.23-127.889,147-12,13.5-24.833,33.333-39.5,17.666s-29.364-32.846-47.833-15.5c-24.667,23.167-24.5,43.667-19.334,62.834,4.033,14.961,16.24,26.566,27.334,33.5,10.666,6.666,22.42,13.589,33.5-5.667C84,701.533,88.885,694.645,95.33,683.978s9.778-16.667,23.333-31.333,47.445-53.778,53.445-60.556,13.58-14.424,25.111-4.667c8.666,7.334,262.111,218.334,271,225.667s21.055,19.167,31.055,3.833,20.5-24.666,38.334-24.5,34.967-2.507,34.666,20.334c-.166,12.666-.626,23-.833,31.166-.333,13.167-.105,19.73,19.667,20.389,16.666.556,82.333.111,107-.055s31.508.062,69.222-3.389c34-3.111,49.111-4.667,63.111-6s38.077-3.387,54.667-18.889c13.555-12.667,23.5-17.222,15.833-32.222s-5.667-28.5-5.667-47,.5-34,.5-47.5,1.5-28,13.334-37.5,24.833-17.834,38.333-14.834,20.5,7.834,20.333,28.667.167,40,1.334,52.333,2.166,17.834,5.166,24.667,10.771,25.347,32.056,15.056c10.111-4.889,15.222-7.223,23.222-10.112s20.111-5.444,19.778-25.333.111-25.944,7.611-42.944,12.833-34.167,13.167-52.334,0-100.833,0-116.833.333-33.167,16.5-54,70.666-87.5,81.666-99.167,15-24.166-.333-39.666-45.722-51.5-54.389-62.611-43.333-43.556-59.778-57.556-89-74.667-121-102S842.441,38.756,829.441,28.422s-26.556-26-54.333-14.222S676.774,53.422,655.774,61.422s-35.555,11.667-54.666,26.556a633.4,633.4,0,0,1-58.667,40.444c-17.2,10.47-23.308,16.987-14.667,33.167,7.834,14.667,27.512,21.714,39,31.167,13.167,10.833,20.9,18.7,36.667,32.5,13.333,11.666,17.167,15.166,23.667,20.833s14.666,12.778,32.222,18.111,35.111,10.389,47.111,14.556,35.167,16.166,40.333,36.5,2.334,63.166,2.167,72.333-6.1,21.574-23.833,28.667c-14.167,5.666-28.834,11-47.667,17.5S591.33,464.922,571.552,472.089Z"/><path id="60d6a9bf-d3f2-4d41-81b4-8eeb47638852" data-name="Track Middle" class="af13e103-d738-4b53-b991-4ec5e76c4056" d="M571.552,472.089c-30.713,11.129-47.111,13-63.555,3.556-17.817-10.233-30.445-26.223-44.334-32.778-12.235-5.775-21.15-7.976-51-5.222-30.111,2.777-65.222,4.555-80.666,3.666-21.417-1.232-67.136,17.679-84.667,38.445-15.056,17.833-115.65,133.23-127.889,147-12,13.5-24.833,33.333-39.5,17.666s-29.364-32.846-47.833-15.5c-24.667,23.167-24.5,43.667-19.334,62.834,4.033,14.961,16.24,26.566,27.334,33.5,10.666,6.666,22.42,13.589,33.5-5.667C84,701.533,88.885,694.645,95.33,683.978s9.778-16.667,23.333-31.333,47.445-53.778,53.445-60.556,13.58-14.424,25.111-4.667c8.666,7.334,262.111,218.334,271,225.667s21.055,19.167,31.055,3.833,20.5-24.666,38.334-24.5,34.967-2.507,34.666,20.334c-.166,12.666-.626,23-.833,31.166-.333,13.167-.105,19.73,19.667,20.389,16.666.556,82.333.111,107-.055s31.508.062,69.222-3.389c34-3.111,49.111-4.667,63.111-6s38.077-3.387,54.667-18.889c13.555-12.667,23.5-17.222,15.833-32.222s-5.667-28.5-5.667-47,.5-34,.5-47.5,1.5-28,13.334-37.5,24.833-17.834,38.333-14.834,20.5,7.834,20.333,28.667.167,40,1.334,52.333,2.166,17.834,5.166,24.667,10.771,25.347,32.056,15.056c10.111-4.889,15.222-7.223,23.222-10.112s20.111-5.444,19.778-25.333.111-25.944,7.611-42.944,12.833-34.167,13.167-52.334,0-100.833,0-116.833.333-33.167,16.5-54,70.666-87.5,81.666-99.167,15-24.166-.333-39.666-45.722-51.5-54.389-62.611-43.333-43.556-59.778-57.556-89-74.667-121-102S842.441,38.756,829.441,28.422s-26.556-26-54.333-14.222S676.774,53.422,655.774,61.422s-35.555,11.667-54.666,26.556a633.4,633.4,0,0,1-58.667,40.444c-17.2,10.47-23.308,16.987-14.667,33.167,7.834,14.667,27.512,21.714,39,31.167,13.167,10.833,20.9,18.7,36.667,32.5,13.333,11.666,17.167,15.166,23.667,20.833s14.666,12.778,32.222,18.111,35.111,10.389,47.111,14.556,35.167,16.166,40.333,36.5,2.334,63.166,2.167,72.333-6.1,21.574-23.833,28.667c-14.167,5.666-28.834,11-47.667,17.5S591.33,464.922,571.552,472.089Z"/><path id="2c4d751e-a711-445c-ad83-2db8566b0668" data-name="Track Inner" class="12a295ed-c7dd-47ca-8634-8c1497fc82b1" d="M571.552,472.089c-30.713,11.129-47.111,13-63.555,3.556-17.817-10.233-30.445-26.223-44.334-32.778-12.235-5.775-21.15-7.976-51-5.222-30.111,2.777-65.222,4.555-80.666,3.666-21.417-1.232-67.136,17.679-84.667,38.445-15.056,17.833-115.65,133.23-127.889,147-12,13.5-24.833,33.333-39.5,17.666s-29.364-32.846-47.833-15.5c-24.667,23.167-24.5,43.667-19.334,62.834,4.033,14.961,16.24,26.566,27.334,33.5,10.666,6.666,22.42,13.589,33.5-5.667C84,701.533,88.885,694.645,95.33,683.978s9.778-16.667,23.333-31.333,47.445-53.778,53.445-60.556,13.58-14.424,25.111-4.667c8.666,7.334,262.111,218.334,271,225.667s21.055,19.167,31.055,3.833,20.5-24.666,38.334-24.5,34.967-2.507,34.666,20.334c-.166,12.666-.626,23-.833,31.166-.333,13.167-.105,19.73,19.667,20.389,16.666.556,82.333.111,107-.055s31.508.062,69.222-3.389c34-3.111,49.111-4.667,63.111-6s38.077-3.387,54.667-18.889c13.555-12.667,23.5-17.222,15.833-32.222s-5.667-28.5-5.667-47,.5-34,.5-47.5,1.5-28,13.334-37.5,24.833-17.834,38.333-14.834,20.5,7.834,20.333,28.667.167,40,1.334,52.333,2.166,17.834,5.166,24.667,10.771,25.347,32.056,15.056c10.111-4.889,15.222-7.223,23.222-10.112s20.111-5.444,19.778-25.333.111-25.944,7.611-42.944,12.833-34.167,13.167-52.334,0-100.833,0-116.833.333-33.167,16.5-54,70.666-87.5,81.666-99.167,15-24.166-.333-39.666-45.722-51.5-54.389-62.611-43.333-43.556-59.778-57.556-89-74.667-121-102S842.441,38.756,829.441,28.422s-26.556-26-54.333-14.222S676.774,53.422,655.774,61.422s-35.555,11.667-54.666,26.556a633.4,633.4,0,0,1-58.667,40.444c-17.2,10.47-23.308,16.987-14.667,33.167,7.834,14.667,27.512,21.714,39,31.167,13.167,10.833,20.9,18.7,36.667,32.5,13.333,11.666,17.167,15.166,23.667,20.833s14.666,12.778,32.222,18.111,35.111,10.389,47.111,14.556,35.167,16.166,40.333,36.5,2.334,63.166,2.167,72.333-6.1,21.574-23.833,28.667c-14.167,5.666-28.834,11-47.667,17.5S591.33,464.922,571.552,472.089Z"/><use id="b07fa2dd-9c92-4ce1-ad8d-015cc158e867" data-name="Start-Finish-Line" width="200" height="103.617" transform="matrix(0.065, 0.184, -0.184, 0.065, 575.425, 449.774)" xlink:href="#ed4abc36-d78d-4321-9038-52d2e8499498"/></g></g></g></svg>