<svg xmlns="http://www.w3.org/2000/svg" xmlns:xlink="http://www.w3.org/1999/xlink" width="743.704" height="1007.367" viewBox="0 0 743.704 1007.367"><defs><style>.\30 e163136-5100-49e3-bb73-a345c74023a1{fill:#00ff24;}.\30 e163136-5100-49e3-bb73-a345c74023a1,.ac5ef3f1-3181-4cef-bb19-e784b5975765{stroke:#000;stroke-width:5px;}.\30 e163136-5100-49e3-bb73-a345c74023a1,.\37 3e5e97c-2426-452a-a87c-10f3b88ee8ed,.\39 135c54b-af97-43f1-8007-148767457942,.\39 58981d7-a258-4ba1-9e5c-3ee85375e4b3,.a9a0d35a-5b2a-406f-9c3b-e1418b847c59,.ac5ef3f1-3181-4cef-bb19-e784b5975765,.baedbc8a-06dc-4718-b0b5-84bd71b947b6{stroke-miterlimit:10;}.ac5ef3f1-3181-4cef-bb19-e784b5975765{fill:#fff;}.\37 3e5e97c-2426-452a-a87c-10f3b88ee8ed,.\39 135c54b-af97-43f1-8007-148767457942,.\39 58981d7-a258-4ba1-9e5c-3ee85375e4b3,.a9a0d35a-5b2a-406f-9c3b-e1418b847c59,.baedbc8a-06dc-4718-b0b5-84bd71b947b6{fill:none;}.\39 135c54b-af97-43f1-8007-148767457942,.\39 58981d7-a258-4ba1-9e5c-3ee85375e4b3{stroke:#c91c1c;}.\39 58981d7-a258-4ba1-9e5c-3ee85375e4b3,.a9a0d35a-5b2a-406f-9c3b-e1418b847c59{stroke-width:8px;}.a9a0d35a-5b2a-406f-9c3b-e1418b847c59,.baedbc8a-06dc-4718-b0b5-84bd71b947b6{stroke:#0080ff;}.\37 3e5e97c-2426-452a-a87c-10f3b88ee8ed{stroke:#fff;stroke-width:4px;}</style><symbol id="dc21ec08-20c0-4b1a-82e0-bf8f020f057a" data-name="start finish line" viewBox="0 0 200 103.617"><rect class="0e163136-5100-49e3-bb73-a345c74023a1" x="2.5" y="2.5" width="195" height="47.043"/><rect class="ac5ef3f1-3181-4cef-bb19-e784b5975765" x="2.5" y="52.367" width="48.75" height="48.75"/><rect class="ac5ef3f1-3181-4cef-bb19-e784b5975765" x="51.25" y="52.367" width="48.75" height="48.75"/><rect class="ac5ef3f1-3181-4cef-bb19-e784b5975765" x="100" y="52.367" width="48.75" height="48.75"/><rect class="ac5ef3f1-3181-4cef-bb19-e784b5975765" x="148.75" y="52.367" width="48.75" height="48.75"/></symbol></defs><title>Chaps_Racetrack</title><g id="6e1dad83-596e-425b-9c01-06aafd4f82a8" data-name="Layer 2"><g id="346245ca-e3ef-4231-9145-f1ad33e6309b" data-name="Grapeseed"><g id="88a83ef7-8d21-48ca-863c-98e092721630" data-name="Chaps_Racetrack"><path id="40284d6b-1797-458d-becc-a913db088510" data-name="pit outer" class="958981d7-a258-4ba1-9e5c-3ee85375e4b3" d="M512.666,402.942c-3.4-12.284-15.874-19.417-15.874-19.417-16.063-9.638-20.41-27.355-20.41-27.355l-21.826-98.079L443.5,209.619l-2.267-11.9c-2.079-8.788,5.291-13.985,5.291-13.985,13.159-8.487,12.225-21.572,11.469-24.974"/><path id="928a1436-7c19-4410-8758-6c21814703c9" data-name="outer" class="a9a0d35a-5b2a-406f-9c3b-e1418b847c59" d="M352.975,400.5C365.447,388.408,472.03,282.015,472.03,282.015l67.843-68.41,8.5-8.5h0c11.339-10.582,19.843,6.048,19.843,6.048,17.764,25.322,32.693,71.055,32.693,71.055,11.338,29.291,23.244,55.748,23.244,55.748,6.047,13.228,6.425,15.685,6.425,15.685,5.481,14.551,17.008,17.953,17.008,17.953,10.583,3.968,26.268,9.448,26.268,9.448,31.181,8.882,36.094,20.977,36.094,20.977,11.717,15.5,18.9,41.386,18.9,41.386a282.4,282.4,0,0,1,6.614,50.267c3.591,41.2,4.158,68.788,4.158,68.788,1.322,30.425-13.607,47.244-13.607,47.244-16.63,19.842-38.74,27.59-38.74,27.59L602.8,667.715c-25.134,7.371-15.118,33.827-15.118,33.827C601.1,746.519,622.361,808.03,622.361,808.03c26.645,77.67,44.787,133.8,44.787,133.8,5.575,14.645,13.323,47.716,13.323,47.716,2.835,13.418-8.882,13.607-8.882,13.607-10.583,2.078-14.362-11.339-14.362-11.339-13.606-53.48-24.378-79.937-24.378-79.937-16.63-49.134-31.37-85.984-31.37-85.984-17.008-39.118-41.008-110.174-41.008-110.174-4.913-14.362-5.669-20.6-5.669-20.6-2.268-13.606,6.8-15.118,6.8-15.118,17.2-3.591,13.417-23.244,13.417-23.244-1.89-18.9-15.307-59.906-15.307-59.906-18.142-69.543-38.173-154.582-38.173-154.582-53.292-236.221-56.693-250.961-56.693-250.961C443.306,87.747,441.794,87.369,434.991,56.755s-24-19.514-37.607-14.74c-7.695,2.7-42.9,12.283-42.9,12.283-25.134,4.914-30.992,3.591-30.992,3.591a87.658,87.658,0,0,1-36.473-11.528C249.794,25.007,232.975,14.8,232.975,14.8c-6.992-4.346-13.984-8.882-13.984-8.882-7.559-4.724-11.906.756-11.906.756-31.181,40.252-44.409,53.1-44.409,53.1l-79.559,78.8C16.03,203.59,12.628,207.747,12.628,207.747-.789,220.6,5.447,226.834,5.447,226.834l14.174,16.252h0c10.96,12.094,7.748,25.322,7.748,25.322-.945,8.126-12.851,75.969-12.851,75.969l-3.779,16.63h0c-2.079,8.882,6.8,9.638,6.8,9.638,64.819,14.929,98.079,22.488,98.079,22.488a134.684,134.684,0,0,1,41.763,18.708c11.15,7.749,24.189,22.489,24.189,22.489,34.961,35.716,40.063,40.63,40.063,40.63,12.662,14.173,20.788,21.921,20.788,21.921,6.992,8.126,15.307-.945,15.307-.945L352.975,400.5"/><path id="2d923489-7fbc-4065-8e65-4c861ff5df63" data-name="pit white" class="73e5e97c-2426-452a-a87c-10f3b88ee8ed" d="M512.619,402.777c-3.4-12.284-15.874-19.418-15.874-19.418-16.063-9.638-20.41-27.354-20.41-27.354l-21.827-98.079-11.055-48.472-2.267-11.906c-2.079-8.787,5.291-13.984,5.291-13.984,13.159-8.487,12.224-21.573,11.468-24.974"/><path id="565426f7-31d0-4c9c-8861-bc62f47a814a" data-name="white" class="73e5e97c-2426-452a-a87c-10f3b88ee8ed" d="M352.975,400.5C365.447,388.408,472.03,282.015,472.03,282.015l67.843-68.41,8.5-8.5h0c11.339-10.582,19.843,6.048,19.843,6.048,17.764,25.322,32.693,71.055,32.693,71.055,11.338,29.291,23.244,55.748,23.244,55.748,6.047,13.228,6.425,15.685,6.425,15.685,5.481,14.551,17.008,17.953,17.008,17.953,10.583,3.968,26.268,9.448,26.268,9.448,31.181,8.882,36.094,20.977,36.094,20.977,11.717,15.5,18.9,41.386,18.9,41.386a282.4,282.4,0,0,1,6.614,50.267c3.591,41.2,4.158,68.788,4.158,68.788,1.322,30.425-13.607,47.244-13.607,47.244-16.63,19.842-38.74,27.59-38.74,27.59L602.8,667.715c-25.134,7.371-15.118,33.827-15.118,33.827C601.1,746.519,622.361,808.03,622.361,808.03c26.645,77.67,44.787,133.8,44.787,133.8,5.575,14.645,13.323,47.716,13.323,47.716,2.835,13.418-8.882,13.607-8.882,13.607-10.583,2.078-14.362-11.339-14.362-11.339-13.606-53.48-24.378-79.937-24.378-79.937-16.63-49.134-31.37-85.984-31.37-85.984-17.008-39.118-41.008-110.174-41.008-110.174-4.913-14.362-5.669-20.6-5.669-20.6-2.268-13.606,6.8-15.118,6.8-15.118,17.2-3.591,13.417-23.244,13.417-23.244-1.89-18.9-15.307-59.906-15.307-59.906-18.142-69.543-38.173-154.582-38.173-154.582-53.292-236.221-56.693-250.961-56.693-250.961C443.306,87.747,441.794,87.369,434.991,56.755s-24-19.514-37.607-14.74c-7.695,2.7-42.9,12.283-42.9,12.283-25.134,4.914-30.992,3.591-30.992,3.591a87.658,87.658,0,0,1-36.473-11.528C249.794,25.007,232.975,14.8,232.975,14.8c-6.992-4.346-13.984-8.882-13.984-8.882-7.559-4.724-11.906.756-11.906.756-31.181,40.252-44.409,53.1-44.409,53.1l-79.559,78.8C16.03,203.59,12.628,207.747,12.628,207.747-.789,220.6,5.447,226.834,5.447,226.834l14.174,16.252h0c10.96,12.094,7.748,25.322,7.748,25.322-.945,8.126-12.851,75.969-12.851,75.969l-3.779,16.63h0c-2.079,8.882,6.8,9.638,6.8,9.638,64.819,14.929,98.079,22.488,98.079,22.488a134.684,134.684,0,0,1,41.763,18.708c11.15,7.749,24.189,22.489,24.189,22.489,34.961,35.716,40.063,40.63,40.063,40.63,12.662,14.173,20.788,21.921,20.788,21.921,6.992,8.126,15.307-.945,15.307-.945L352.975,400.5"/><path id="cef67bdf-67b2-41e8-8759-17766b7e2bc1" data-name="pit inner" class="9135c54b-af97-43f1-8007-148767457942" d="M512.642,402.777c-3.4-12.284-15.874-19.418-15.874-19.418-16.063-9.638-20.409-27.354-20.409-27.354l-21.827-98.079-11.055-48.472-2.268-11.906c-2.079-8.787,5.292-13.984,5.292-13.984,13.159-8.487,12.224-21.573,11.468-24.974"/><path id="6bb6d6b1-75be-4a67-9249-59704f2d91d5" data-name="inner" class="baedbc8a-06dc-4718-b0b5-84bd71b947b6" d="M352.975,400.5C365.447,388.408,472.03,282.015,472.03,282.015l67.843-68.41,8.5-8.5h0c11.339-10.582,19.843,6.048,19.843,6.048,17.764,25.322,32.693,71.055,32.693,71.055,11.338,29.291,23.244,55.748,23.244,55.748,6.047,13.228,6.425,15.685,6.425,15.685,5.481,14.551,17.008,17.953,17.008,17.953,10.583,3.968,26.268,9.448,26.268,9.448,31.181,8.882,36.094,20.977,36.094,20.977,11.717,15.5,18.9,41.386,18.9,41.386a282.4,282.4,0,0,1,6.614,50.267c3.591,41.2,4.158,68.788,4.158,68.788,1.322,30.425-13.607,47.244-13.607,47.244-16.63,19.842-38.74,27.59-38.74,27.59L602.8,667.715c-25.134,7.371-15.118,33.827-15.118,33.827C601.1,746.519,622.361,808.03,622.361,808.03c26.645,77.67,44.787,133.8,44.787,133.8,5.575,14.645,13.323,47.716,13.323,47.716,2.835,13.418-8.882,13.607-8.882,13.607-10.583,2.078-14.362-11.339-14.362-11.339-13.606-53.48-24.378-79.937-24.378-79.937-16.63-49.134-31.37-85.984-31.37-85.984-17.008-39.118-41.008-110.174-41.008-110.174-4.913-14.362-5.669-20.6-5.669-20.6-2.268-13.606,6.8-15.118,6.8-15.118,17.2-3.591,13.417-23.244,13.417-23.244-1.89-18.9-15.307-59.906-15.307-59.906-18.142-69.543-38.173-154.582-38.173-154.582-53.292-236.221-56.693-250.961-56.693-250.961C443.306,87.747,441.794,87.369,434.991,56.755s-24-19.514-37.607-14.74c-7.695,2.7-42.9,12.283-42.9,12.283-25.134,4.914-30.992,3.591-30.992,3.591a87.658,87.658,0,0,1-36.473-11.528C249.794,25.007,232.975,14.8,232.975,14.8c-6.992-4.346-13.984-8.882-13.984-8.882-7.559-4.724-11.906.756-11.906.756-31.181,40.252-44.409,53.1-44.409,53.1l-79.559,78.8C16.03,203.59,12.628,207.747,12.628,207.747-.789,220.6,5.447,226.834,5.447,226.834l14.174,16.252h0c10.96,12.094,7.748,25.322,7.748,25.322-.945,8.126-12.851,75.969-12.851,75.969l-3.779,16.63h0c-2.079,8.882,6.8,9.638,6.8,9.638,64.819,14.929,98.079,22.488,98.079,22.488a134.684,134.684,0,0,1,41.763,18.708c11.15,7.749,24.189,22.489,24.189,22.489,34.961,35.716,40.063,40.63,40.063,40.63,12.662,14.173,20.788,21.921,20.788,21.921,6.992,8.126,15.307-.945,15.307-.945L352.975,400.5"/><path id="9a07b9f1-eb86-4290-84bb-169661202e1d" data-name="crossover pit outer" class="958981d7-a258-4ba1-9e5c-3ee85375e4b3" d="M463.863,299.6c-1.772-8.291-3.544-15.874-3.544-15.874"/><path id="b5c7e5f9-8db3-4f78-b6f1-7f49618cf617" data-name="crossover pit outer" class="73e5e97c-2426-452a-a87c-10f3b88ee8ed" d="M463.934,300c-1.772-8.291-3.674-16.512-3.674-16.512"/><path id="58701f9a-a49d-4df4-806b-8f9ce961f082" data-name="crossover pit inner" class="9135c54b-af97-43f1-8007-148767457942" d="M460.16,283.117c-.02-.007,3.413,15.167,3.413,15.167.287,1.554.408,2.02.408,2.02"/><use width="200" height="103.617" transform="translate(498.249 415.46) rotate(-12.401) scale(0.17)" xlink:href="#dc21ec08-20c0-4b1a-82e0-bf8f020f057a"/><path id="f45f5915-774e-4c4c-9645-0e9f691441a9" data-name="crossover outer" class="a9a0d35a-5b2a-406f-9c3b-e1418b847c59" d="M481.733,265.19c2.834,12.472,3.189,14.882,3.189,14.882"/><path id="4707be67-ca6c-4ff4-ba00-7eafe5c678fa" data-name="crossover white" class="73e5e97c-2426-452a-a87c-10f3b88ee8ed" d="M485.075,280.7c-2.409-10.725-3.85-17.032-3.85-17.032"/><path id="40b5f9dd-f0b0-434e-a0b2-4dcf0e33f59f" data-name="crossover inner" class="baedbc8a-06dc-4718-b0b5-84bd71b947b6" d="M481.2,263.56s1.213,5.612,3.682,16.348l.207.867"/></g></g></g></svg>