<svg xmlns="http://www.w3.org/2000/svg" xmlns:xlink="http://www.w3.org/1999/xlink" width="1031.99" height="846.634" viewBox="0 0 1031.99 846.634"><defs><style>.ee923093-469c-4b7b-8992-a9e381bc2c80{fill:#00ff24;}.a2234e8a-5de6-45af-8195-794d6a1a34f2,.ee923093-469c-4b7b-8992-a9e381bc2c80{stroke:#000;stroke-width:5px;}.\33 b30976b-fda2-4057-8eec-997e62f6f577,.\34 b4cfe4e-45ce-4520-83d9-ebba6b713b6f,.\37 1fa876c-6fc3-45c7-8aa7-f856554d527d,.a2234e8a-5de6-45af-8195-794d6a1a34f2,.c14edb83-613e-4c91-be92-a31dc44c8eef,.cbbaa159-6e07-4101-b72c-064b93e50039,.ee923093-469c-4b7b-8992-a9e381bc2c80{stroke-miterlimit:10;}.a2234e8a-5de6-45af-8195-794d6a1a34f2{fill:#fff;}.\33 b30976b-fda2-4057-8eec-997e62f6f577,.\34 b4cfe4e-45ce-4520-83d9-ebba6b713b6f,.\37 1fa876c-6fc3-45c7-8aa7-f856554d527d,.c14edb83-613e-4c91-be92-a31dc44c8eef,.cbbaa159-6e07-4101-b72c-064b93e50039{fill:none;}.\34 b4cfe4e-45ce-4520-83d9-ebba6b713b6f,.c14edb83-613e-4c91-be92-a31dc44c8eef{stroke:#c91c1c;}.\37 1fa876c-6fc3-45c7-8aa7-f856554d527d,.c14edb83-613e-4c91-be92-a31dc44c8eef{stroke-width:8px;}.\33 b30976b-fda2-4057-8eec-997e62f6f577,.\37 1fa876c-6fc3-45c7-8aa7-f856554d527d{stroke:#0080ff;}.cbbaa159-6e07-4101-b72c-064b93e50039{stroke:#fff;stroke-width:4px;}</style><symbol id="80d8b8ad-8021-4603-ac8a-f23b1de1017c" data-name="start finish line" viewBox="0 0 200 103.617"><rect class="ee923093-469c-4b7b-8992-a9e381bc2c80" x="2.5" y="2.5" width="195" height="47.043"/><rect class="a2234e8a-5de6-45af-8195-794d6a1a34f2" x="2.5" y="52.367" width="48.75" height="48.75"/><rect class="a2234e8a-5de6-45af-8195-794d6a1a34f2" x="51.25" y="52.367" width="48.75" height="48.75"/><rect class="a2234e8a-5de6-45af-8195-794d6a1a34f2" x="100" y="52.367" width="48.75" height="48.75"/><rect class="a2234e8a-5de6-45af-8195-794d6a1a34f2" x="148.75" y="52.367" width="48.75" height="48.75"/></symbol></defs><title>Grotti_F1_Exit_4-A_(2017)</title><g id="688ce3b0-596e-4ad6-ad73-376a0f97550d" data-name="Layer 2"><g id="4544f797-1238-4acd-858b-c1c7e18fdef6" data-name="Grapeseed"><g id="208588b2-6c67-4d44-9d33-fa3436d7a1a2" data-name="Grotti_F1_Exit_4-A_(2017)"><path id="7a0170e5-92ce-4206-b273-d31eebda7ce5" data-name="pit outer" class="c14edb83-613e-4c91-be92-a31dc44c8eef" d="M881.416,649.472c4.373-4.508,4.968-13.914,10.9-23.326s23.812-25.882,23.812-25.882c9.883-9.036,35.012-35.577,35.012-35.577,26.541-27.671,13.553-76.8,13.553-76.8-5.365-24.565-28.8-137.223-28.8-137.223-8.188-43.483-23.647-52.071-36.471-69.13s-45.464-82.323-45.464-82.323a49.45,49.45,0,0,1-2.942-7.93"/><path id="8b4b3101-69ab-4bba-8a9c-1ae02b7c2cbe" data-name="outer" class="71fa876c-6fc3-45c7-8aa7-f856554d527d" d="M794.919,93.705c12.283,39.388,23.294,85.976,23.294,85.976C829.649,220.34,836,249.564,836,249.564c13.553,49.129,21.6,80.517,21.6,80.517,6.211,20.612,22.306,21.177,22.306,21.177,16.752,1.6,18.3,12.47,18.3,12.47,9.036,44.988,14.5,68.236,14.5,68.236l8.47,34.447c3.765,19.388-6.965,19.953-6.965,19.953-14.494,3.764-16.376-6.777-16.376-6.777-5.459-19.765-24.282-90.729-24.282-90.729-7.718-31.059-23.342-30.118-23.342-30.118a23.717,23.717,0,0,0-7.717.941c-27.483,8.094-29.553,8.847-29.553,8.847-24.659,5.459-41.6-.753-41.6-.753-13.365-4.141-80.565-44.8-80.565-44.8-18.07-10.917-23.906,2.071-23.906,2.071-10.541,15.812-38.776,45.929-38.776,45.929-32,33.13-79.812,79.247-79.812,79.247l-66.259,66.447-8.094,8.1c-9.788,9.223-18.259-.753-18.259-.753-50.635-49.695-81.882-80.942-81.882-80.942-14.306-14.117-52.706-61.741-52.706-61.741L288.9,342.552c-10.541-12.236-11.859-13.741-11.859-13.741-20.894-24.659-58.729,6.023-58.729,6.023-23.342,17.13-81.506,65.318-81.506,65.318C99.343,433.093,80.708,453.8,80.708,453.8,58.119,478.646,44.19,481.658,44.19,481.658c-35.765,13.553-38.4,36.894-38.4,36.894-4.518,26.729.941,51.388.941,51.388,6.024,38.024,8.094,70.024,8.094,70.024-.941,34.258,12.047,52.141,12.047,52.141,7.53,13.741,7.906,29.176,7.906,29.176,1.13,9.412-.941,28.424-.941,28.424C29.884,782.646,48.9,798.646,48.9,798.646c22.212,22.212,25.412,26.165,25.412,26.165,21.082,21.647,40.47,17.5,40.47,17.5,39.718-4.141,102.4-13.552,102.4-13.552,60.8-8.471,90.353-30.683,90.353-30.683,9.412-5.459,18.824-16.188,18.824-16.188,46.305-50.259,65.694-65.694,65.694-65.694,8.659-8.659,27.859-28.235,27.859-28.235a42.534,42.534,0,0,1,34.823-12.048c46.871,9.789,76.8,17.883,76.8,17.883,34.635,8.094,46.118,11.106,46.118,11.106,40.094,10.541,57.223,27.859,57.223,27.859,7.341,6.588,49.13,51.011,49.13,51.011,17.694,18.824,23.341,25.036,23.341,25.036,8.847,9.223,16-.942,16-.942,44.8-46.117,63.059-63.058,63.059-63.058l111.623-112,120.847-120.283c16.941-16.376,5.083-25.788,5.083-25.788-13.365-13.176-18.636-18.635-18.636-18.635-20.517-22.024-21.835-40.847-21.835-40.847-2.824-31.436-10.729-70.777-10.729-70.777-8.1-27.859-38.589-19.576-38.589-19.576-13.364,3.2-21.082,5.27-21.082,5.27-18.071,4.894-25.6-20.706-25.6-20.706-12.235-48-24.471-90.164-24.471-90.164C827.06,111.211,819.155,84.669,819.155,84.669c-9.977-34.823-25.506-76.235-25.506-76.235C790.26.387,779.39,5.752,779.39,5.752,767.813,9.564,771.06,16.2,771.06,16.2,775.437,28.2,794.919,93.705,794.919,93.705Z"/><path id="15ed4878-8be1-4f4b-9970-2dd55d21b7e7" data-name="pit white" class="cbbaa159-6e07-4101-b72c-064b93e50039" d="M881.416,649.472c4.373-4.508,4.968-13.914,10.9-23.326s23.812-25.882,23.812-25.882c9.883-9.036,35.012-35.577,35.012-35.577,26.541-27.671,13.553-76.8,13.553-76.8-5.365-24.565-28.8-137.223-28.8-137.223-8.188-43.483-23.647-52.071-36.471-69.13s-45.464-82.323-45.464-82.323a49.45,49.45,0,0,1-2.942-7.93"/><path id="b6729674-f7c9-45bb-a7dc-24fd898e448b" data-name="white" class="cbbaa159-6e07-4101-b72c-064b93e50039" d="M794.919,93.705c12.283,39.388,23.294,85.976,23.294,85.976C829.649,220.34,836,249.564,836,249.564c13.553,49.129,21.6,80.517,21.6,80.517,6.211,20.612,22.306,21.177,22.306,21.177,16.752,1.6,18.3,12.47,18.3,12.47,9.036,44.988,14.5,68.236,14.5,68.236l8.47,34.447c3.765,19.388-6.965,19.953-6.965,19.953-14.494,3.764-16.376-6.777-16.376-6.777-5.459-19.765-24.282-90.729-24.282-90.729-7.718-31.059-23.342-30.118-23.342-30.118a23.717,23.717,0,0,0-7.717.941c-27.483,8.094-29.553,8.847-29.553,8.847-24.659,5.459-41.6-.753-41.6-.753-13.365-4.141-80.565-44.8-80.565-44.8-18.07-10.917-23.906,2.071-23.906,2.071-10.541,15.812-38.776,45.929-38.776,45.929-32,33.13-79.812,79.247-79.812,79.247l-66.259,66.447-8.094,8.1c-9.788,9.223-18.259-.753-18.259-.753-50.635-49.695-81.882-80.942-81.882-80.942-14.306-14.117-52.706-61.741-52.706-61.741L288.9,342.552c-10.541-12.236-11.859-13.741-11.859-13.741-20.894-24.659-58.729,6.023-58.729,6.023-23.342,17.13-81.506,65.318-81.506,65.318C99.343,433.093,80.708,453.8,80.708,453.8,58.119,478.646,44.19,481.658,44.19,481.658c-35.765,13.553-38.4,36.894-38.4,36.894-4.518,26.729.941,51.388.941,51.388,6.024,38.024,8.094,70.024,8.094,70.024-.941,34.258,12.047,52.141,12.047,52.141,7.53,13.741,7.906,29.176,7.906,29.176,1.13,9.412-.941,28.424-.941,28.424C29.884,782.646,48.9,798.646,48.9,798.646c22.212,22.212,25.412,26.165,25.412,26.165,21.082,21.647,40.47,17.5,40.47,17.5,39.718-4.141,102.4-13.552,102.4-13.552,60.8-8.471,90.353-30.683,90.353-30.683,9.412-5.459,18.824-16.188,18.824-16.188,46.305-50.259,65.694-65.694,65.694-65.694,8.659-8.659,27.859-28.235,27.859-28.235a42.534,42.534,0,0,1,34.823-12.048c46.871,9.789,76.8,17.883,76.8,17.883,34.635,8.094,46.118,11.106,46.118,11.106,40.094,10.541,57.223,27.859,57.223,27.859,7.341,6.588,49.13,51.011,49.13,51.011,17.694,18.824,23.341,25.036,23.341,25.036,8.847,9.223,16-.942,16-.942,44.8-46.117,63.059-63.058,63.059-63.058l111.623-112,120.847-120.283c16.941-16.376,5.083-25.788,5.083-25.788-13.365-13.176-18.636-18.635-18.636-18.635-20.517-22.024-21.835-40.847-21.835-40.847-2.824-31.436-10.729-70.777-10.729-70.777-8.1-27.859-38.589-19.576-38.589-19.576-13.364,3.2-21.082,5.27-21.082,5.27-18.071,4.894-25.6-20.706-25.6-20.706-12.235-48-24.471-90.164-24.471-90.164C827.06,111.211,819.155,84.669,819.155,84.669c-9.977-34.823-25.506-76.235-25.506-76.235C790.26.387,779.39,5.752,779.39,5.752,767.813,9.564,771.06,16.2,771.06,16.2,775.437,28.2,794.919,93.705,794.919,93.705Z"/><path id="8b9ec46a-f5f4-49c6-8fbf-c47b4113c959" data-name="pit inner" class="4b4cfe4e-45ce-4520-83d9-ebba6b713b6f" d="M881.416,649.472c4.373-4.508,4.968-13.914,10.9-23.326s23.812-25.882,23.812-25.882c9.883-9.036,35.012-35.577,35.012-35.577,26.541-27.671,13.553-76.8,13.553-76.8-5.365-24.565-28.8-137.223-28.8-137.223-8.188-43.483-23.647-52.071-36.471-69.13s-45.464-82.323-45.464-82.323a49.45,49.45,0,0,1-2.942-7.93"/><path id="6a095ab4-9c4f-48f8-a23f-6b07eddb7076" data-name="inner" class="3b30976b-fda2-4057-8eec-997e62f6f577" d="M794.919,93.705c12.283,39.388,23.294,85.976,23.294,85.976C829.649,220.34,836,249.564,836,249.564c13.553,49.129,21.6,80.517,21.6,80.517,6.211,20.612,22.306,21.177,22.306,21.177,16.752,1.6,18.3,12.47,18.3,12.47,9.036,44.988,14.5,68.236,14.5,68.236l8.47,34.447c3.765,19.388-6.965,19.953-6.965,19.953-14.494,3.764-16.376-6.777-16.376-6.777-5.459-19.765-24.282-90.729-24.282-90.729-7.718-31.059-23.342-30.118-23.342-30.118a23.717,23.717,0,0,0-7.717.941c-27.483,8.094-29.553,8.847-29.553,8.847-24.659,5.459-41.6-.753-41.6-.753-13.365-4.141-80.565-44.8-80.565-44.8-18.07-10.917-23.906,2.071-23.906,2.071-10.541,15.812-38.776,45.929-38.776,45.929-32,33.13-79.812,79.247-79.812,79.247l-66.259,66.447-8.094,8.1c-9.788,9.223-18.259-.753-18.259-.753-50.635-49.695-81.882-80.942-81.882-80.942-14.306-14.117-52.706-61.741-52.706-61.741L288.9,342.552c-10.541-12.236-11.859-13.741-11.859-13.741-20.894-24.659-58.729,6.023-58.729,6.023-23.342,17.13-81.506,65.318-81.506,65.318C99.343,433.093,80.708,453.8,80.708,453.8,58.119,478.646,44.19,481.658,44.19,481.658c-35.765,13.553-38.4,36.894-38.4,36.894-4.518,26.729.941,51.388.941,51.388,6.024,38.024,8.094,70.024,8.094,70.024-.941,34.258,12.047,52.141,12.047,52.141,7.53,13.741,7.906,29.176,7.906,29.176,1.13,9.412-.941,28.424-.941,28.424C29.884,782.646,48.9,798.646,48.9,798.646c22.212,22.212,25.412,26.165,25.412,26.165,21.082,21.647,40.47,17.5,40.47,17.5,39.718-4.141,102.4-13.552,102.4-13.552,60.8-8.471,90.353-30.683,90.353-30.683,9.412-5.459,18.824-16.188,18.824-16.188,46.305-50.259,65.694-65.694,65.694-65.694,8.659-8.659,27.859-28.235,27.859-28.235a42.534,42.534,0,0,1,34.823-12.048c46.871,9.789,76.8,17.883,76.8,17.883,34.635,8.094,46.118,11.106,46.118,11.106,40.094,10.541,57.223,27.859,57.223,27.859,7.341,6.588,49.13,51.011,49.13,51.011,17.694,18.824,23.341,25.036,23.341,25.036,8.847,9.223,16-.942,16-.942,44.8-46.117,63.059-63.058,63.059-63.058l111.623-112,120.847-120.283c16.941-16.376,5.083-25.788,5.083-25.788-13.365-13.176-18.636-18.635-18.636-18.635-20.517-22.024-21.835-40.847-21.835-40.847-2.824-31.436-10.729-70.777-10.729-70.777-8.1-27.859-38.589-19.576-38.589-19.576-13.364,3.2-21.082,5.27-21.082,5.27-18.071,4.894-25.6-20.706-25.6-20.706-12.235-48-24.471-90.164-24.471-90.164C827.06,111.211,819.155,84.669,819.155,84.669c-9.977-34.823-25.506-76.235-25.506-76.235C790.26.387,779.39,5.752,779.39,5.752,767.813,9.564,771.06,16.2,771.06,16.2,775.437,28.2,794.919,93.705,794.919,93.705Z"/><path id="62623684-4c78-45be-bdba-b97e5bb2478b" data-name="crossover outer" class="71fa876c-6fc3-45c7-8aa7-f856554d527d" d="M929.284,338.1s4.994-1.341,8.294-1.871"/><path id="58ba0d12-b279-4f83-9f73-992a526cf983" data-name="crossover white" class="cbbaa159-6e07-4101-b72c-064b93e50039" d="M929.255,338.093s5.111-1.335,8.411-1.865"/><path id="d16cd8f6-a149-4011-a2ef-fbe6f5d24428" data-name="crossover inner" class="3b30976b-fda2-4057-8eec-997e62f6f577" d="M929.2,338.105s5.182-1.352,8.482-1.881"/><use width="200" height="103.617" transform="translate(840.372 236.891) rotate(167.109) scale(0.072)" xlink:href="#80d8b8ad-8021-4603-ac8a-f23b1de1017c"/></g></g></g></svg>