<svg xmlns="http://www.w3.org/2000/svg" xmlns:xlink="http://www.w3.org/1999/xlink" width="1208.725" height="681.927" viewBox="0 0 1208.725 681.927"><defs><style>.\30 74d379e-2d56-4d80-bfa2-99564a203334{fill:#00ff24;}.\30 74d379e-2d56-4d80-bfa2-99564a203334,.b5fb5fa4-0793-4b52-bea5-194c505c3a84{stroke:#000;stroke-width:5px;}.\30 108378a-2bd7-4634-9627-0ad59f599dd1,.\30 74d379e-2d56-4d80-bfa2-99564a203334,.\30 94935eb-f57f-43c1-9714-aae3ac9dce45,.\35 47a50ea-5597-48a9-ab37-4c7567960590,.\38 6694179-0f6e-4b29-bb7d-bed3dc84163f,.\39 cea2030-3943-4107-8c75-ce705053bf99,.b5fb5fa4-0793-4b52-bea5-194c505c3a84{stroke-miterlimit:10;}.b5fb5fa4-0793-4b52-bea5-194c505c3a84{fill:#fff;}.\30 108378a-2bd7-4634-9627-0ad59f599dd1,.\30 94935eb-f57f-43c1-9714-aae3ac9dce45,.\35 47a50ea-5597-48a9-ab37-4c7567960590,.\38 6694179-0f6e-4b29-bb7d-bed3dc84163f,.\39 cea2030-3943-4107-8c75-ce705053bf99{fill:none;}.\30 108378a-2bd7-4634-9627-0ad59f599dd1,.\35 47a50ea-5597-48a9-ab37-4c7567960590{stroke:#c91c1c;}.\30 94935eb-f57f-43c1-9714-aae3ac9dce45,.\35 47a50ea-5597-48a9-ab37-4c7567960590{stroke-width:8px;}.\30 94935eb-f57f-43c1-9714-aae3ac9dce45,.\39 cea2030-3943-4107-8c75-ce705053bf99{stroke:#0080ff;}.\38 6694179-0f6e-4b29-bb7d-bed3dc84163f{stroke:#fff;stroke-width:4px;}</style><symbol id="6e67cfd2-321f-4d04-9e16-8b2f08ffbf62" data-name="start finish line" viewBox="0 0 200 103.617"><rect class="074d379e-2d56-4d80-bfa2-99564a203334" x="2.5" y="2.5" width="195" height="47.043"/><rect class="b5fb5fa4-0793-4b52-bea5-194c505c3a84" x="2.5" y="52.367" width="48.75" height="48.75"/><rect class="b5fb5fa4-0793-4b52-bea5-194c505c3a84" x="51.25" y="52.367" width="48.75" height="48.75"/><rect class="b5fb5fa4-0793-4b52-bea5-194c505c3a84" x="100" y="52.367" width="48.75" height="48.75"/><rect class="b5fb5fa4-0793-4b52-bea5-194c505c3a84" x="148.75" y="52.367" width="48.75" height="48.75"/></symbol></defs><title>McKenzie_Deluxe</title><g id="5dbe5ec4-fe28-4939-9f33-75527dc0e847" data-name="Layer 2"><g id="f1644fd9-58de-4149-97da-af31218d91bf" data-name="Grapeseed"><g id="3ae68819-0e9b-4dab-a28c-0724786bb13c" data-name="McKenzie_Deluxe"><path id="2a341c28-b157-4937-beaa-84537d84404f" data-name="pit outer" class="547a50ea-5597-48a9-ab37-4c7567960590" d="M948.069,392.507a13.653,13.653,0,0,1,1.629-10.153,12.91,12.91,0,0,0,1.883-10.823s-4.612-21.365-7.812-36.518a17.222,17.222,0,0,0-6.871-10.447s-4.029-3.172-4.817-6.194c-.212-.812-1.13-5.082-1.13-5.082"/><path id="f4135323-5549-4c90-841a-28cd1da76b65" data-name="outer" class="094935eb-f57f-43c1-9714-aae3ac9dce45" d="M899.081,168.69C903.6,185.066,975.6,520.219,975.6,520.219a1396.518,1396.518,0,0,0,33.883,137.506c8.941,29.176,34.259,18.165,34.259,18.165,11.011-3.671,26.729-8.659,26.729-8.659,60.612-21.93,94.682-35.671,94.682-35.671,35.765-15.623,38.589-53.835,38.589-53.835,2.823-33.882-1.318-76.424-1.318-76.424-4.33-55.529-14.871-80.564-14.871-80.564-14.87-34.447-39.529-38.212-39.529-38.212-28.424-7.153-38.777-14.306-38.777-14.306-8.47-4.141-15.058-22.4-15.058-22.4C1077.81,306.666,1060.116,263,1060.116,263c-14.118-35.765-26.353-54.4-26.353-54.4-11.671-16.377-25.412,1.882-25.412,1.882C968.634,250.2,950.563,269.4,950.563,269.4,848.351,370.478,832.728,386.1,832.728,386.1,756.3,462.149,723.551,495.466,723.551,495.466c-7.341,7.718-14.682.188-14.682.188-10.541-8.282-25.412-25.976-25.412-25.976-20.706-21.835-47.435-48.377-47.435-48.377a111.893,111.893,0,0,0-39.153-23.529c-21.835-6.776-52.706-14.494-52.706-14.494-31.247-6.965-66.823-15.059-66.823-15.059-11.295-2.823-17.13-4.329-17.13-4.329-22.4-5.271-42.541,12.988-42.541,12.988-32.753,32.753-79.059,78.494-79.059,78.494-11.106,11.294-26.729,25.977-26.729,25.977C292.492,500.36,265.2,504.878,265.2,504.878,247.5,508.831,202.892,517.3,202.892,517.3c-38.211,6.777-76.047,11.295-76.047,11.295-36.517,5.647-49.129-13.553-49.129-13.553-6.4-8.471-20.141-19.953-20.141-19.953C40.257,479.466,34.61,462.149,34.61,462.149c-2.447-7.906.188-43.106.188-43.106,1.318-18.071-7.906-40.283-7.906-40.283a156.764,156.764,0,0,1-7.811-18.541c-4.894-11.576-3.671-31.906-3.671-31.906.377-3.953-2.447-33.788-2.447-33.788-5.082-39.341-6.682-49.976-6.682-49.976-3.812-21.789-1.694-31.812-1.694-31.812C11.222,184.078,25.057,179,25.057,179a294.539,294.539,0,0,0,35.012-19.059c8.753-4.377,31.2-29.224,31.2-29.224,16.188-16.235,65.694-59.906,65.694-59.906,18.635-18.258,62.118-48.941,62.118-48.941,5.647-3.953,13.176-9.412,13.176-9.412,29.553-15.623,43.671,0,43.671,0,4.517,4.33,11.67,13.365,11.67,13.365,27.294,33.882,49.883,60.612,49.883,60.612,22.588,27.294,51.388,57.788,51.388,57.788,29.082,29.13,65.788,65.553,65.788,65.553,13.13,13.694,28.518-6.635,28.518-6.635,22.87-23.718,39.953-40.377,39.953-40.377C590.469,95.843,644.681,41.631,644.681,41.631c17.647-17.93,24.564-31.624,24.564-31.624,5.789-10.447,15.671-4.094,15.671-4.094,2.824,1.694,7.765,4.8,7.765,4.8C726.7,30.337,746.045,42.2,746.045,42.2c31.765,17.364,47.436,16.658,47.436,16.658,8.894-.141,35.153-7.341,35.153-7.341,14.682-3.247,16.235-3.67,16.235-3.67,18.494-4.236,21.741,7.623,21.741,7.623,6.777,23.577,19.059,69.459,19.059,69.459C891.881,144.125,899.081,168.69,899.081,168.69Z"/><path id="bb104ddd-d3cb-4309-8160-98e825e153e2" data-name="pit white" class="86694179-0f6e-4b29-bb7d-bed3dc84163f" d="M948.081,392.578a13.653,13.653,0,0,1,1.629-10.153,12.913,12.913,0,0,0,1.882-10.824s-4.611-21.364-7.811-36.517a17.222,17.222,0,0,0-6.871-10.447s-4.029-3.172-4.818-6.194c-.211-.812-1.129-5.083-1.129-5.083"/><path id="48c937b1-56b7-41a8-8b08-4437c96b8cdb" data-name="white" class="86694179-0f6e-4b29-bb7d-bed3dc84163f" d="M899.081,168.69C903.6,185.066,975.6,520.219,975.6,520.219a1396.518,1396.518,0,0,0,33.883,137.506c8.941,29.176,34.259,18.165,34.259,18.165,11.011-3.671,26.729-8.659,26.729-8.659,60.612-21.93,94.682-35.671,94.682-35.671,35.765-15.623,38.589-53.835,38.589-53.835,2.823-33.882-1.318-76.424-1.318-76.424-4.33-55.529-14.871-80.564-14.871-80.564-14.87-34.447-39.529-38.212-39.529-38.212-28.424-7.153-38.777-14.306-38.777-14.306-8.47-4.141-15.058-22.4-15.058-22.4C1077.81,306.666,1060.116,263,1060.116,263c-14.118-35.765-26.353-54.4-26.353-54.4-11.671-16.377-25.412,1.882-25.412,1.882C968.634,250.2,950.563,269.4,950.563,269.4,848.351,370.478,832.728,386.1,832.728,386.1,756.3,462.149,723.551,495.466,723.551,495.466c-7.341,7.718-14.682.188-14.682.188-10.541-8.282-25.412-25.976-25.412-25.976-20.706-21.835-47.435-48.377-47.435-48.377a111.893,111.893,0,0,0-39.153-23.529c-21.835-6.776-52.706-14.494-52.706-14.494-31.247-6.965-66.823-15.059-66.823-15.059-11.295-2.823-17.13-4.329-17.13-4.329-22.4-5.271-42.541,12.988-42.541,12.988-32.753,32.753-79.059,78.494-79.059,78.494-11.106,11.294-26.729,25.977-26.729,25.977C292.492,500.36,265.2,504.878,265.2,504.878,247.5,508.831,202.892,517.3,202.892,517.3c-38.211,6.777-76.047,11.295-76.047,11.295-36.517,5.647-49.129-13.553-49.129-13.553-6.4-8.471-20.141-19.953-20.141-19.953C40.257,479.466,34.61,462.149,34.61,462.149c-2.447-7.906.188-43.106.188-43.106,1.318-18.071-7.906-40.283-7.906-40.283a156.764,156.764,0,0,1-7.811-18.541c-4.894-11.576-3.671-31.906-3.671-31.906.377-3.953-2.447-33.788-2.447-33.788-5.082-39.341-6.682-49.976-6.682-49.976-3.812-21.789-1.694-31.812-1.694-31.812C11.222,184.078,25.057,179,25.057,179a294.539,294.539,0,0,0,35.012-19.059c8.753-4.377,31.2-29.224,31.2-29.224,16.188-16.235,65.694-59.906,65.694-59.906,18.635-18.258,62.118-48.941,62.118-48.941,5.647-3.953,13.176-9.412,13.176-9.412,29.553-15.623,43.671,0,43.671,0,4.517,4.33,11.67,13.365,11.67,13.365,27.294,33.882,49.883,60.612,49.883,60.612,22.588,27.294,51.388,57.788,51.388,57.788,29.082,29.13,65.788,65.553,65.788,65.553,13.13,13.694,28.518-6.635,28.518-6.635,22.87-23.718,39.953-40.377,39.953-40.377C590.469,95.843,644.681,41.631,644.681,41.631c17.647-17.93,24.564-31.624,24.564-31.624,5.789-10.447,15.671-4.094,15.671-4.094,2.824,1.694,7.765,4.8,7.765,4.8C726.7,30.337,746.045,42.2,746.045,42.2c31.765,17.364,47.436,16.658,47.436,16.658,8.894-.141,35.153-7.341,35.153-7.341,14.682-3.247,16.235-3.67,16.235-3.67,18.494-4.236,21.741,7.623,21.741,7.623,6.777,23.577,19.059,69.459,19.059,69.459C891.881,144.125,899.081,168.69,899.081,168.69Z"/><path id="48a1c7b6-fed6-4720-a417-4abb91f74e92" data-name="pit inner" class="0108378a-2bd7-4634-9627-0ad59f599dd1" d="M948.081,392.543a13.653,13.653,0,0,1,1.629-10.153,12.915,12.915,0,0,0,1.882-10.824s-4.611-21.365-7.811-36.517A17.225,17.225,0,0,0,936.91,324.6s-4.029-3.171-4.818-6.194c-.211-.811-1.129-5.082-1.129-5.082"/><path id="ae624036-2199-4004-8172-4ac9b840b63d" data-name="inner" class="9cea2030-3943-4107-8c75-ce705053bf99" d="M899.081,168.69C903.6,185.066,975.6,520.219,975.6,520.219a1396.518,1396.518,0,0,0,33.883,137.506c8.941,29.176,34.259,18.165,34.259,18.165,11.011-3.671,26.729-8.659,26.729-8.659,60.612-21.93,94.682-35.671,94.682-35.671,35.765-15.623,38.589-53.835,38.589-53.835,2.823-33.882-1.318-76.424-1.318-76.424-4.33-55.529-14.871-80.564-14.871-80.564-14.87-34.447-39.529-38.212-39.529-38.212-28.424-7.153-38.777-14.306-38.777-14.306-8.47-4.141-15.058-22.4-15.058-22.4C1077.81,306.666,1060.116,263,1060.116,263c-14.118-35.765-26.353-54.4-26.353-54.4-11.671-16.377-25.412,1.882-25.412,1.882C968.634,250.2,950.563,269.4,950.563,269.4,848.351,370.478,832.728,386.1,832.728,386.1,756.3,462.149,723.551,495.466,723.551,495.466c-7.341,7.718-14.682.188-14.682.188-10.541-8.282-25.412-25.976-25.412-25.976-20.706-21.835-47.435-48.377-47.435-48.377a111.893,111.893,0,0,0-39.153-23.529c-21.835-6.776-52.706-14.494-52.706-14.494-31.247-6.965-66.823-15.059-66.823-15.059-11.295-2.823-17.13-4.329-17.13-4.329-22.4-5.271-42.541,12.988-42.541,12.988-32.753,32.753-79.059,78.494-79.059,78.494-11.106,11.294-26.729,25.977-26.729,25.977C292.492,500.36,265.2,504.878,265.2,504.878,247.5,508.831,202.892,517.3,202.892,517.3c-38.211,6.777-76.047,11.295-76.047,11.295-36.517,5.647-49.129-13.553-49.129-13.553-6.4-8.471-20.141-19.953-20.141-19.953C40.257,479.466,34.61,462.149,34.61,462.149c-2.447-7.906.188-43.106.188-43.106,1.318-18.071-7.906-40.283-7.906-40.283a156.764,156.764,0,0,1-7.811-18.541c-4.894-11.576-3.671-31.906-3.671-31.906.377-3.953-2.447-33.788-2.447-33.788-5.082-39.341-6.682-49.976-6.682-49.976-3.812-21.789-1.694-31.812-1.694-31.812C11.222,184.078,25.057,179,25.057,179a294.539,294.539,0,0,0,35.012-19.059c8.753-4.377,31.2-29.224,31.2-29.224,16.188-16.235,65.694-59.906,65.694-59.906,18.635-18.258,62.118-48.941,62.118-48.941,5.647-3.953,13.176-9.412,13.176-9.412,29.553-15.623,43.671,0,43.671,0,4.517,4.33,11.67,13.365,11.67,13.365,27.294,33.882,49.883,60.612,49.883,60.612,22.588,27.294,51.388,57.788,51.388,57.788,29.082,29.13,65.788,65.553,65.788,65.553,13.13,13.694,28.518-6.635,28.518-6.635,22.87-23.718,39.953-40.377,39.953-40.377C590.469,95.843,644.681,41.631,644.681,41.631c17.647-17.93,24.564-31.624,24.564-31.624,5.789-10.447,15.671-4.094,15.671-4.094,2.824,1.694,7.765,4.8,7.765,4.8C726.7,30.337,746.045,42.2,746.045,42.2c31.765,17.364,47.436,16.658,47.436,16.658,8.894-.141,35.153-7.341,35.153-7.341,14.682-3.247,16.235-3.67,16.235-3.67,18.494-4.236,21.741,7.623,21.741,7.623,6.777,23.577,19.059,69.459,19.059,69.459C891.881,144.125,899.081,168.69,899.081,168.69Z"/><line id="3693d6a5-b93d-4b5a-94c1-0a827660fcb2" data-name="crossover outer" class="094935eb-f57f-43c1-9714-aae3ac9dce45" x1="924.116" y1="281.772" x2="928.528" y2="302.078"/><line id="56a46dbe-f11b-4e31-9574-8b811792046d" data-name="crossover white" class="86694179-0f6e-4b29-bb7d-bed3dc84163f" x1="924.104" y1="281.725" x2="928.528" y2="302.09"/><line id="45a9b84f-7f8d-4a9a-84e4-793111381510" data-name="crossover inner" class="9cea2030-3943-4107-8c75-ce705053bf99" x1="924.098" y1="281.701" x2="928.528" y2="302.096"/><use width="200" height="103.617" transform="translate(944.541 336.784) rotate(169.212) scale(0.085)" xlink:href="#6e67cfd2-321f-4d04-9e16-8b2f08ffbf62"/></g></g></g></svg>