<svg xmlns="http://www.w3.org/2000/svg" xmlns:xlink="http://www.w3.org/1999/xlink" width="1127.972" height="592.127" viewBox="0 0 1127.972 592.127"><defs><style>.\39 74359df-6433-43c4-909b-1d64088d89cf{fill:#00ff24;}.\39 74359df-6433-43c4-909b-1d64088d89cf,.\39 ded56c3-a41d-4e35-bcbb-0cceea0f091e{stroke:#000;stroke-width:5px;}.\30 cb338bd-7158-46e2-9ddc-efa28a07e224,.\35 1a0f79c-b8f6-4f85-ba94-fc2ce2dceece,.\37 17d2f1b-3b4d-41a7-a3c7-646e0c261abb,.\38 83143a7-2d27-41e0-849e-fd15f991a275,.\39 74359df-6433-43c4-909b-1d64088d89cf,.\39 ded56c3-a41d-4e35-bcbb-0cceea0f091e,.c3e2dfd7-47e7-4ecc-89f7-7b3fdb708ac6{stroke-miterlimit:10;}.\39 ded56c3-a41d-4e35-bcbb-0cceea0f091e{fill:#fff;}.\30 cb338bd-7158-46e2-9ddc-efa28a07e224,.\35 1a0f79c-b8f6-4f85-ba94-fc2ce2dceece,.\37 17d2f1b-3b4d-41a7-a3c7-646e0c261abb,.\38 83143a7-2d27-41e0-849e-fd15f991a275,.c3e2dfd7-47e7-4ecc-89f7-7b3fdb708ac6{fill:none;}.\38 83143a7-2d27-41e0-849e-fd15f991a275,.c3e2dfd7-47e7-4ecc-89f7-7b3fdb708ac6{stroke:#0080ff;}.\35 1a0f79c-b8f6-4f85-ba94-fc2ce2dceece,.c3e2dfd7-47e7-4ecc-89f7-7b3fdb708ac6{stroke-width:8px;}.\30 cb338bd-7158-46e2-9ddc-efa28a07e224{stroke:#fff;stroke-width:4px;}.\35 1a0f79c-b8f6-4f85-ba94-fc2ce2dceece,.\37 17d2f1b-3b4d-41a7-a3c7-646e0c261abb{stroke:#c91c1c;}</style><symbol id="9a5a31f9-0aa3-47b7-a04e-e633bb81760d" data-name="start finish line" viewBox="0 0 200 103.617"><rect class="974359df-6433-43c4-909b-1d64088d89cf" x="2.5" y="2.5" width="195" height="47.043"/><rect class="9ded56c3-a41d-4e35-bcbb-0cceea0f091e" x="2.5" y="52.367" width="48.75" height="48.75"/><rect class="9ded56c3-a41d-4e35-bcbb-0cceea0f091e" x="51.25" y="52.367" width="48.75" height="48.75"/><rect class="9ded56c3-a41d-4e35-bcbb-0cceea0f091e" x="100" y="52.367" width="48.75" height="48.75"/><rect class="9ded56c3-a41d-4e35-bcbb-0cceea0f091e" x="148.75" y="52.367" width="48.75" height="48.75"/></symbol></defs><title>Q_-_Silmaril</title><g id="b44caded-d45c-4b74-a4fd-2e17026eccfa" data-name="Layer 2"><g id="845fb9d4-7771-4cb5-b2a7-9cc9ff993c4a" data-name="Grapeseed"><g id="ac020497-30c8-4b0c-90f0-70a5dcf3eb03" data-name="Q_-_Silmaril"><path id="aa8fc23a-9c60-43e5-bec9-308549765782" data-name="outer 2" class="c3e2dfd7-47e7-4ecc-89f7-7b3fdb708ac6" d="M867.9,132.457l-1.527-4.712c-2.594-9.485-20.453-8.85-20.453-8.85-9.317.5-28.941,7.059-28.941,7.059-4.259.777-16.965,3.6-16.965,3.6-18.635,2.165-38.494-7.529-38.494-7.529-7.529-3.671-24.659-13.553-24.659-13.553C725.1,102.354,681.52,75.813,681.52,75.813c-7.529-4.235-11.859,4.329-11.859,4.329-7.623,10.824-22.164,29.93-22.164,29.93-4.8,6.776-64.236,63.529-64.236,63.529-13.647,13.365-107.388,107.671-107.388,107.671C446.461,309.7,357.52,401.178,357.52,401.178c-5.506,5.835-10.211,0-10.211,0-11.671-10.353-19.389-18.259-19.389-18.259-7.717-6.965-13.741,1.506-13.741,1.506C301.473,396.66,204.344,494.072,204.344,494.072c-5.647,6.212-14.683,15.812-14.683,15.812C120.391,589.413,214.32,588.1,214.32,588.1c14.777.895,67.53-17.364,67.53-17.364,24.564-8.189,54.211-42.071,54.211-42.071,13.977-15.529,68.471-67.059,68.471-67.059,11.106-11.67,19.953-19.2,19.953-19.2,6.965-7.153,21.459-7.811,21.459-7.811,9.6-.659,19.576,2.258,19.576,2.258,9.13,2.636,10.824-6.682,10.824-6.682,4.988-20.8,9.365-42.824,9.365-42.824"/><path id="e38e402a-605b-4ee7-bd55-41014ffd5364" data-name="white 2" class="0cb338bd-7158-46e2-9ddc-efa28a07e224" d="M867.9,132.457l-1.527-4.712c-2.594-9.485-20.453-8.85-20.453-8.85-9.317.5-28.941,7.059-28.941,7.059-4.259.777-16.965,3.6-16.965,3.6-18.635,2.165-38.494-7.529-38.494-7.529-7.529-3.671-24.659-13.553-24.659-13.553C725.1,102.354,681.52,75.813,681.52,75.813c-7.529-4.235-11.859,4.329-11.859,4.329-7.623,10.824-22.164,29.93-22.164,29.93-4.8,6.776-64.236,63.529-64.236,63.529-13.647,13.365-107.388,107.671-107.388,107.671C446.461,309.7,357.52,401.178,357.52,401.178c-5.506,5.835-10.211,0-10.211,0-11.671-10.353-19.389-18.259-19.389-18.259-7.717-6.965-13.741,1.506-13.741,1.506C301.473,396.66,204.344,494.072,204.344,494.072c-5.647,6.212-14.683,15.812-14.683,15.812C120.391,589.413,214.32,588.1,214.32,588.1c14.777.895,67.53-17.364,67.53-17.364,24.564-8.189,54.211-42.071,54.211-42.071,13.977-15.529,68.471-67.059,68.471-67.059,11.106-11.67,19.953-19.2,19.953-19.2,6.965-7.153,21.459-7.811,21.459-7.811,9.6-.659,19.576,2.258,19.576,2.258,9.13,2.636,10.824-6.682,10.824-6.682,4.988-20.8,9.365-42.824,9.365-42.824"/><path id="4343c0aa-8cbb-44a5-8e31-f4e4139667c5" data-name="inner 2" class="883143a7-2d27-41e0-849e-fd15f991a275" d="M867.9,132.457l-1.527-4.712c-2.594-9.485-20.453-8.85-20.453-8.85-9.317.5-28.941,7.059-28.941,7.059-4.259.777-16.965,3.6-16.965,3.6-18.635,2.165-38.494-7.529-38.494-7.529-7.529-3.671-24.659-13.553-24.659-13.553C725.1,102.354,681.52,75.813,681.52,75.813c-7.529-4.235-11.859,4.329-11.859,4.329-7.623,10.824-22.164,29.93-22.164,29.93-4.8,6.776-64.236,63.529-64.236,63.529-13.647,13.365-107.388,107.671-107.388,107.671C446.461,309.7,357.52,401.178,357.52,401.178c-5.506,5.835-10.211,0-10.211,0-11.671-10.353-19.389-18.259-19.389-18.259-7.717-6.965-13.741,1.506-13.741,1.506C301.473,396.66,204.344,494.072,204.344,494.072c-5.647,6.212-14.683,15.812-14.683,15.812C120.391,589.413,214.32,588.1,214.32,588.1c14.777.895,67.53-17.364,67.53-17.364,24.564-8.189,54.211-42.071,54.211-42.071,13.977-15.529,68.471-67.059,68.471-67.059,11.106-11.67,19.953-19.2,19.953-19.2,6.965-7.153,21.459-7.811,21.459-7.811,9.6-.659,19.576,2.258,19.576,2.258,9.13,2.636,10.824-6.682,10.824-6.682,4.988-20.8,9.365-42.824,9.365-42.824"/><path id="96d2aaad-0b69-4874-afe9-61a258f73869" data-name="pit outer" class="51a0f79c-b8f6-4f85-ba94-fc2ce2dceece" d="M904.65,266.425a12.929,12.929,0,0,0,4.729,7.412s6.671,6,7.941,11.647c0,0,2.259,10.517,6.177,27.176,0,0,13.341,57.953,16.023,70.73a21.286,21.286,0,0,1-1.2,12.494s-3.082,6.588-1.811,11.458"/><path id="01aad4f8-c1ae-432c-97c1-df68e769ce14" data-name="outer 1" class="c3e2dfd7-47e7-4ecc-89f7-7b3fdb708ac6" d="M485.591,387.978s1.459-7.341,1.67-8.471c0,0,5.506-29.259,5.718-30.635,0,0,3.412-19.788-4.965-30.8,0,0-6.023-9.035-10.776-13.318,0,0-37.129-36.564-41.271-40.8-13.865-14.18-87.529-91.106-87.529-91.106-15.624-18.258-63.812-77.176-63.812-77.176C256.956,62.542,229.1,84.378,229.1,84.378c-11.765,8.612-62.447,49.694-62.447,49.694-27.106,20.188-72.283,64.8-72.283,64.8a389.4,389.4,0,0,1-32.611,30.353c-11.012,8.329-31.2,17.788-31.2,17.788-22.589,9.6-26.118,33.318-26.118,33.318-1.129,8.47.282,34.588.282,34.588.283,3.529,4.518,35.859,4.518,35.859,1.553,10.729,3.529,24.988,3.529,24.988,1.553,11.576,1.553,33.6,1.553,33.6-.423,15.388,7.624,32.612,7.624,32.612A203.054,203.054,0,0,1,33.1,471.484c2.447,8.517,16.8,9.364,16.8,9.364,6.729,1.13,20.612,1.694,20.612,1.694,4.517.236,23.435.518,23.435.518,7.341,0,9.6-11.012,9.6-11.012,5.76-24.688,54.924-133.759,83.294-187.482,10.565-20.007,21.223-27.576,21.223-27.576,7.671-7.765-1.882-14.777-1.882-14.777-9.176-9.035-32.188-31.341-32.188-31.341-20.188-18.824,6.165-37.459,6.165-37.459C201.426,156.1,295.92,76.1,295.92,76.1c17.977-15.717,54.4-44.8,54.4-44.8,22.871-19.482,74.824-24.564,74.824-24.564C446.6,4.613,461.991,7.86,461.991,7.86,481.9,12.1,511.073,24.613,511.073,24.613c9.6,4.329,31.341,14.4,31.341,14.4,4.236,2.071,12.142,5.365,12.142,5.365C571.779,51.531,587.12,37.6,587.12,37.6,602.179,24.9,617.8,11.531,617.8,11.531c20.894-16.377,37.458-.941,37.458-.941a22.2,22.2,0,0,1,7.906,12.329,63.656,63.656,0,0,0,2.542,14.494C668.156,49.084,688.2,61.6,688.2,61.6c26.353,16.189,65.506,39.906,65.506,39.906,13.552,7.906,25.411,13.553,25.411,13.553,21.13,9.977,60.8,4.33,60.8,4.33,12.565-2.118,71.153-17.93,71.153-17.93,8.377-2.212,22.777-5.694,22.777-5.694C961.9,89.46,970.461,111.3,970.461,111.3c3.577,7.718,6.871,32.471,6.871,32.471,1.694,16.753,4.518,38.024,4.518,38.024,2.07,27.576,22.588,44.329,22.588,44.329,14.118,12.423,19.012,19.576,19.012,19.576,6,8.659,4.235,19.106,4.235,19.106-1.765,9.036,5.788,18.212,5.788,18.212a136.056,136.056,0,0,1,14.541,24.518c5.365,11.482,36.142,88.564,36.142,88.564l11.388,27.295c3.576,8.094,10.729,14.87,10.729,14.87,39.294,35.341.894,47.2.894,47.2-16,4.941-35.858-3.247-35.858-3.247-21.459-9.176-103.624-45.741-103.624-45.741-6.353-2.4-17.082-7.482-17.082-7.482-11.012-4.942-13.977-21.036-13.977-21.036-8.188-41.929-43.765-191.435-43.765-191.435C878.885,166.26,867.9,132.437,867.9,132.437"/><path id="b9b79dbc-ab7d-4e0f-993d-83bb57f588e0" data-name="pit white" class="0cb338bd-7158-46e2-9ddc-efa28a07e224" d="M904.65,266.425a12.929,12.929,0,0,0,4.729,7.412s6.671,6,7.941,11.647c0,0,2.259,10.517,6.177,27.176,0,0,13.341,57.953,16.023,70.73a21.286,21.286,0,0,1-1.2,12.494s-3.082,6.588-1.811,11.458"/><path id="65dd4f60-3f8e-4f92-b85f-6bfb14457e57" data-name="white 1" class="0cb338bd-7158-46e2-9ddc-efa28a07e224" d="M485.567,388.048s1.483-7.411,1.694-8.541c0,0,5.506-29.259,5.718-30.635,0,0,3.412-19.788-4.965-30.8,0,0-6.023-9.035-10.776-13.318,0,0-37.129-36.564-41.271-40.8-13.865-14.18-87.529-91.106-87.529-91.106-15.624-18.258-63.812-77.176-63.812-77.176C256.956,62.542,229.1,84.378,229.1,84.378c-11.765,8.612-62.447,49.694-62.447,49.694-27.106,20.188-72.283,64.8-72.283,64.8a389.4,389.4,0,0,1-32.611,30.353c-11.012,8.329-31.2,17.788-31.2,17.788-22.589,9.6-26.118,33.318-26.118,33.318-1.129,8.47.282,34.588.282,34.588.283,3.529,4.518,35.859,4.518,35.859,1.553,10.729,3.529,24.988,3.529,24.988,1.553,11.576,1.553,33.6,1.553,33.6-.423,15.388,7.624,32.612,7.624,32.612A203.054,203.054,0,0,1,33.1,471.484c2.447,8.517,16.8,9.364,16.8,9.364,6.729,1.13,20.612,1.694,20.612,1.694,4.517.236,23.435.518,23.435.518,7.341,0,9.6-11.012,9.6-11.012,5.76-24.688,54.924-133.759,83.294-187.482,10.565-20.007,21.223-27.576,21.223-27.576,7.671-7.765-1.882-14.777-1.882-14.777-9.176-9.035-32.188-31.341-32.188-31.341-20.188-18.824,6.165-37.459,6.165-37.459C201.426,156.1,295.92,76.1,295.92,76.1c17.977-15.717,54.4-44.8,54.4-44.8,22.871-19.482,74.824-24.564,74.824-24.564C446.6,4.613,461.991,7.86,461.991,7.86,481.9,12.1,511.073,24.613,511.073,24.613c9.6,4.329,31.341,14.4,31.341,14.4,4.236,2.071,12.142,5.365,12.142,5.365C571.779,51.531,587.12,37.6,587.12,37.6,602.179,24.9,617.8,11.531,617.8,11.531c20.894-16.377,37.458-.941,37.458-.941a22.2,22.2,0,0,1,7.906,12.329,63.656,63.656,0,0,0,2.542,14.494C668.156,49.084,688.2,61.6,688.2,61.6c26.353,16.189,65.506,39.906,65.506,39.906,13.552,7.906,25.411,13.553,25.411,13.553,21.13,9.977,60.8,4.33,60.8,4.33,12.565-2.118,71.153-17.93,71.153-17.93,8.377-2.212,22.777-5.694,22.777-5.694C961.9,89.46,970.461,111.3,970.461,111.3c3.577,7.718,6.871,32.471,6.871,32.471,1.694,16.753,4.518,38.024,4.518,38.024,2.07,27.576,22.588,44.329,22.588,44.329,14.118,12.423,19.012,19.576,19.012,19.576,6,8.659,4.235,19.106,4.235,19.106-1.765,9.036,5.788,18.212,5.788,18.212a136.056,136.056,0,0,1,14.541,24.518c5.365,11.482,36.142,88.564,36.142,88.564l11.388,27.295c3.576,8.094,10.729,14.87,10.729,14.87,39.294,35.341.894,47.2.894,47.2-16,4.941-35.858-3.247-35.858-3.247-21.459-9.176-103.624-45.741-103.624-45.741-6.353-2.4-17.082-7.482-17.082-7.482-11.012-4.942-13.977-21.036-13.977-21.036-8.188-41.929-43.765-191.435-43.765-191.435C878.885,166.26,867.9,132.413,867.9,132.413"/><path id="9205b841-2bef-4857-b8a6-bfe955c0b8da" data-name="pit inner" class="717d2f1b-3b4d-41a7-a3c7-646e0c261abb" d="M904.65,266.425a12.929,12.929,0,0,0,4.729,7.412s6.671,6,7.941,11.647c0,0,2.259,10.517,6.177,27.176,0,0,13.341,57.953,16.023,70.73a21.286,21.286,0,0,1-1.2,12.494s-3.082,6.588-1.811,11.458"/><path id="66ab40b8-4de2-479e-a64c-7493c7c87169" data-name="inner 1" class="883143a7-2d27-41e0-849e-fd15f991a275" d="M485.559,388.084s1.491-7.447,1.7-8.577c0,0,5.506-29.259,5.718-30.635,0,0,3.412-19.788-4.965-30.8,0,0-6.023-9.035-10.776-13.318,0,0-37.129-36.564-41.271-40.8-13.865-14.18-87.529-91.106-87.529-91.106-15.624-18.258-63.812-77.176-63.812-77.176C256.956,62.542,229.1,84.378,229.1,84.378c-11.765,8.612-62.447,49.694-62.447,49.694-27.106,20.188-72.283,64.8-72.283,64.8a389.4,389.4,0,0,1-32.611,30.353c-11.012,8.329-31.2,17.788-31.2,17.788-22.589,9.6-26.118,33.318-26.118,33.318-1.129,8.47.282,34.588.282,34.588.283,3.529,4.518,35.859,4.518,35.859,1.553,10.729,3.529,24.988,3.529,24.988,1.553,11.576,1.553,33.6,1.553,33.6-.423,15.388,7.624,32.612,7.624,32.612A203.054,203.054,0,0,1,33.1,471.484c2.447,8.517,16.8,9.364,16.8,9.364,6.729,1.13,20.612,1.694,20.612,1.694,4.517.236,23.435.518,23.435.518,7.341,0,9.6-11.012,9.6-11.012,5.76-24.688,54.924-133.759,83.294-187.482,10.565-20.007,21.223-27.576,21.223-27.576,7.671-7.765-1.882-14.777-1.882-14.777-9.176-9.035-32.188-31.341-32.188-31.341-20.188-18.824,6.165-37.459,6.165-37.459C201.426,156.1,295.92,76.1,295.92,76.1c17.977-15.717,54.4-44.8,54.4-44.8,22.871-19.482,74.824-24.564,74.824-24.564C446.6,4.613,461.991,7.86,461.991,7.86,481.9,12.1,511.073,24.613,511.073,24.613c9.6,4.329,31.341,14.4,31.341,14.4,4.236,2.071,12.142,5.365,12.142,5.365C571.779,51.531,587.12,37.6,587.12,37.6,602.179,24.9,617.8,11.531,617.8,11.531c20.894-16.377,37.458-.941,37.458-.941a22.2,22.2,0,0,1,7.906,12.329,63.656,63.656,0,0,0,2.542,14.494C668.156,49.084,688.2,61.6,688.2,61.6c26.353,16.189,65.506,39.906,65.506,39.906,13.552,7.906,25.411,13.553,25.411,13.553,21.13,9.977,60.8,4.33,60.8,4.33,12.565-2.118,71.153-17.93,71.153-17.93,8.377-2.212,22.777-5.694,22.777-5.694C961.9,89.46,970.461,111.3,970.461,111.3c3.577,7.718,6.871,32.471,6.871,32.471,1.694,16.753,4.518,38.024,4.518,38.024,2.07,27.576,22.588,44.329,22.588,44.329,14.118,12.423,19.012,19.576,19.012,19.576,6,8.659,4.235,19.106,4.235,19.106-1.765,9.036,5.788,18.212,5.788,18.212a136.056,136.056,0,0,1,14.541,24.518c5.365,11.482,36.142,88.564,36.142,88.564l11.388,27.295c3.576,8.094,10.729,14.87,10.729,14.87,39.294,35.341.894,47.2.894,47.2-16,4.941-35.858-3.247-35.858-3.247-21.459-9.176-103.624-45.741-103.624-45.741-6.353-2.4-17.082-7.482-17.082-7.482-11.012-4.942-13.977-21.036-13.977-21.036-8.188-41.929-43.765-191.435-43.765-191.435-13.976-50.259-24.988-84.129-24.988-84.129"/><path id="ccd29cf7-fb0b-48db-9c18-50004b81921b" data-name="co1 outer" class="c3e2dfd7-47e7-4ecc-89f7-7b3fdb708ac6" d="M285.638,84.8c-8.941,7.483-11.729,9.918-11.729,9.918"/><path id="7b00d02d-2123-4662-aa5d-649cac7837d2" data-name="co1 white" class="0cb338bd-7158-46e2-9ddc-efa28a07e224" d="M285.732,84.707c-8.941,7.483-11.859,10.035-11.859,10.035"/><path id="a50cc8ef-4e3a-431d-a86e-92db582930df" data-name="co1 inner" class="883143a7-2d27-41e0-849e-fd15f991a275" d="M285.759,84.7c-8.942,7.483-11.9,10.05-11.9,10.05"/><line id="171854ac-5b70-455e-be63-48feb9f7a99e" data-name="co2 outer" class="c3e2dfd7-47e7-4ecc-89f7-7b3fdb708ac6" x1="470.438" y1="286.59" x2="459.097" y2="297.837"/><line id="ccc8badc-9663-40ca-b4ff-7d70f425783a" data-name="co2 white" class="0cb338bd-7158-46e2-9ddc-efa28a07e224" x1="470.461" y1="286.554" x2="459.07" y2="297.845"/><line id="1e1d650b-f876-440f-9cd3-1f32c3042521" data-name="co2 inner" class="883143a7-2d27-41e0-849e-fd15f991a275" x1="459.061" y1="297.854" x2="470.47" y2="286.542"/><use width="200" height="103.617" transform="translate(322.462 156.063) rotate(-39.681) scale(0.089)" xlink:href="#9a5a31f9-0aa3-47b7-a04e-e633bb81760d"/></g></g></g></svg>