<svg xmlns="http://www.w3.org/2000/svg" xmlns:xlink="http://www.w3.org/1999/xlink" width="1209.759" height="681.951" viewBox="0 0 1209.759 681.951"><defs><style>.\32 f797413-eba4-4994-b69e-126d7483b537{fill:#00ff24;}.\32 f797413-eba4-4994-b69e-126d7483b537,.\37 9dd0689-36c3-4932-86b8-c4a3f90002ec{stroke:#000;stroke-width:5px;}.\30 5e45d55-4579-4378-b3da-3c1159366535,.\30 c0a76ab-9506-49a3-a22d-8303505b1260,.\32 28d0dc8-a160-4fd6-bcc6-e140682b91ee,.\32 f797413-eba4-4994-b69e-126d7483b537,.\37 9dd0689-36c3-4932-86b8-c4a3f90002ec,.bfde2740-f8da-43fb-930a-815b34eeaf5b,.ea66fb62-8432-4049-b844-a4d9159b99b1{stroke-miterlimit:10;}.\37 9dd0689-36c3-4932-86b8-c4a3f90002ec{fill:#fff;}.\30 5e45d55-4579-4378-b3da-3c1159366535,.\30 c0a76ab-9506-49a3-a22d-8303505b1260,.\32 28d0dc8-a160-4fd6-bcc6-e140682b91ee,.bfde2740-f8da-43fb-930a-815b34eeaf5b,.ea66fb62-8432-4049-b844-a4d9159b99b1{fill:none;}.\32 28d0dc8-a160-4fd6-bcc6-e140682b91ee,.ea66fb62-8432-4049-b844-a4d9159b99b1{stroke:#c91c1c;}.\32 28d0dc8-a160-4fd6-bcc6-e140682b91ee,.bfde2740-f8da-43fb-930a-815b34eeaf5b{stroke-width:8px;}.\30 5e45d55-4579-4378-b3da-3c1159366535,.bfde2740-f8da-43fb-930a-815b34eeaf5b{stroke:#0080ff;}.\30 c0a76ab-9506-49a3-a22d-8303505b1260{stroke:#fff;stroke-width:4px;}</style><symbol id="871d68b7-8ca0-4304-9165-ad2354bf4c84" data-name="start finish line" viewBox="0 0 200 103.617"><rect class="2f797413-eba4-4994-b69e-126d7483b537" x="2.5" y="2.5" width="195" height="47.043"/><rect class="79dd0689-36c3-4932-86b8-c4a3f90002ec" x="2.5" y="52.367" width="48.75" height="48.75"/><rect class="79dd0689-36c3-4932-86b8-c4a3f90002ec" x="51.25" y="52.367" width="48.75" height="48.75"/><rect class="79dd0689-36c3-4932-86b8-c4a3f90002ec" x="100" y="52.367" width="48.75" height="48.75"/><rect class="79dd0689-36c3-4932-86b8-c4a3f90002ec" x="148.75" y="52.367" width="48.75" height="48.75"/></symbol></defs><title>SCRZ_Django_Festival_of_Seed</title><g id="b3a01e92-ae5f-4286-b264-25ed9350b4f4" data-name="Layer 2"><g id="5f29ab04-44ba-4b53-afde-c1e2a5746d52" data-name="Grapeseed"><g id="0f85f762-3b89-4618-b0cf-998dfb46ff22" data-name="SCRZ_Django_Festival_of_Seed"><path id="dedb1f4f-3be7-48c2-82c7-23e017ce2eb2" data-name="pit outer" class="228d0dc8-a160-4fd6-bcc6-e140682b91ee" d="M925.5,164.916s.423,1.976.847,3.741a7.487,7.487,0,0,0,4.729,5.106s4.988,1.929,6.541,8.753c0,0,4.988,22.541,7.247,32.988,0,0,2.118,9.035.141,14.588,0,0-3.356,8.413-2.741,11.077.659,2.853,1.077,4.847,1.1,4.953" transform="translate(0 0)"/><path id="41507058-c281-4d20-a472-87098e2c12df" data-name="outer" class="bfde2740-f8da-43fb-930a-815b34eeaf5b" d="M894.39,154.275c10.729,36.706,23.153,93.741,23.153,93.741C939.19,344.957,970.484,484.2,970.484,484.2c5.506,26.259,10.165,58.447,10.165,58.447,3.811,28.094,22.447,85.977,22.447,85.977,7.623,27.67,9.882,35.576,9.882,35.576,5.365,18.071,19.906,13.13,19.906,13.13,11.576-1.695,44.753-11.859,44.753-11.859,25.835-8.33,82.87-30.636,82.87-30.636,31.906-12.847,38.965-36,38.965-36a121.979,121.979,0,0,0,6.212-33.176c.565-24.282-2.259-59.294-2.259-59.294-2.259-41.365-9.318-66.353-9.318-66.353A195.723,195.723,0,0,0,1183.1,411.5c-10.589-17.929-21.883-23.012-21.883-23.012a114.536,114.536,0,0,0-16.8-6.352c-12.47-3.483-16.988-4.989-16.988-4.989-11.859-4.141-39.153-5.647-39.153-5.647a262.047,262.047,0,0,0-45.929,3.388c-52.33,9.977-73.036-22.588-73.036-22.588-4.047-5.459-8.847-26.541-8.847-26.541-9.317-44.706-31.623-146.071-31.623-146.071-19.2-84.141-27.953-125.929-27.953-125.929-3.577-19.482,13.647-24,13.647-24a186.4,186.4,0,0,1,23.529-5.365c13.271-.564,19.483,1.694,19.483,1.694,7.717,2.73,13.741,12.989,13.741,12.989,1.976,3.2,3.67,11.482,3.67,11.482,1.7,8.282,3.012,17.6,3.012,17.6a99.412,99.412,0,0,1,1.6,12.706c1.506,14.776,3.388,31.247,3.388,31.247,2.636,20.235,12.424,32.188,12.424,32.188,7.718,9.036,18.541,19.2,18.541,19.2,10.353,10.636,12.235,12.33,12.235,12.33,9.506,10.07-.564,19.294-.564,19.294-8.659,8.282-50.541,50.447-50.541,50.447C960.46,259.592,728.931,491.686,728.931,491.686c-2.894,2.753-5.506,5.224-5.506,5.224-8.047,7.835-14.329-.071-14.329-.071-18.424-19.835-60.071-62.47-60.071-62.47-15.812-17.365-28.376-25.553-28.376-25.553-13.7-7.906-23.718-10.306-23.718-10.306-22.871-6.918-56.753-15.247-56.753-15.247-31.482-7.2-64.094-14.824-64.094-14.824-7.765-1.553-13.271-2.964-13.271-2.964a45.708,45.708,0,0,0-45.176,13.27c-26.965,27.106-51.671,51.53-51.671,51.53-29.929,28.8-44.188,43.482-44.188,43.482C293.966,501,257.119,508.2,257.119,508.2c-21.317,4.235-64.517,12-64.517,12-21.318,3.953-67.2,9.318-67.2,9.318-31.906,3.812-40.659-8.33-40.659-8.33-14.4-14.823-26.965-26.258-26.965-26.258C36.6,476.581,34.766,459.216,34.766,459.216c-.847-7.765.847-33.318.847-33.318,1.271-24.423-3.529-36.282-3.529-36.282C27,375.216,19.8,359.4,19.8,359.4c-2.683-5.647-4.095-27.529-4.095-27.529C15,308.863,11.472,281.9,11.472,281.9c-3.388-26.682-7.059-50.541-7.059-50.541C.319,193.522,27.99,179.4,27.99,179.4c13.694-5.506,33.882-19.765,33.882-19.765,18.918-14.541,40.941-38.823,40.941-38.823C120.319,102.6,149.966,77.9,149.966,77.9,181.59,52.769,214.343,26.51,214.343,26.51c11.435-9.176,15.67-11.718,15.67-11.718,27.389-16.8,42.777-3.247,42.777-3.247,9.317,7.624,17.647,19.906,17.647,19.906C313.307,59.4,357.5,110.792,357.5,110.792c40.658,44.189,75.811,77.647,75.811,77.647,18.212,18.777,25.553,25.836,25.553,25.836,8.189,8.706,15.294-.33,15.294-.33,7.153-7.059,45.553-45.741,45.553-45.741,52.8-53.176,102.5-103.153,102.5-103.153C659.284,28.534,671.519,8.2,671.519,8.2c4.33-7.153,9.6-3.012,9.6-3.012,5.694,3.389,22.588,12.894,22.588,12.894,30.5,16.659,44.612,25.7,44.612,25.7,37.153,19.788,64.894,12.235,64.894,12.235,16.8-3.388,38.636-8.659,38.636-8.659C865.4,44.063,868.6,55.922,868.6,55.922,871.99,68.345,894.39,154.275,894.39,154.275Z" transform="translate(0 0)"/><path id="a9c1df19-dbf8-41e6-990c-268c5fdec254" data-name="pit white" class="0c0a76ab-9506-49a3-a22d-8303505b1260" d="M943.36,246.092s-.417-2.123-1.076-4.976c-.615-2.664,2.741-11.077,2.741-11.077,1.977-5.553-.141-14.588-.141-14.588-2.259-10.447-7.247-32.988-7.247-32.988-1.553-6.824-6.541-8.753-6.541-8.753a7.489,7.489,0,0,1-4.73-5.106c-.423-1.765-.864-3.7-.864-3.7" transform="translate(0 0)"/><path id="33301a0d-0d50-4c92-8588-cb3fd741f3bd" data-name="white" class="0c0a76ab-9506-49a3-a22d-8303505b1260" d="M894.39,154.275c10.729,36.706,23.153,93.741,23.153,93.741C939.19,344.957,970.484,484.2,970.484,484.2c5.506,26.259,10.165,58.447,10.165,58.447,3.811,28.094,22.447,85.977,22.447,85.977,7.623,27.67,9.882,35.576,9.882,35.576,5.365,18.071,19.906,13.13,19.906,13.13,11.576-1.695,44.753-11.859,44.753-11.859,25.835-8.33,82.87-30.636,82.87-30.636,31.906-12.847,38.965-36,38.965-36a121.979,121.979,0,0,0,6.212-33.176c.565-24.282-2.259-59.294-2.259-59.294-2.259-41.365-9.318-66.353-9.318-66.353A195.723,195.723,0,0,0,1183.1,411.5c-10.589-17.929-21.883-23.012-21.883-23.012a114.536,114.536,0,0,0-16.8-6.352c-12.47-3.483-16.988-4.989-16.988-4.989-11.859-4.141-39.153-5.647-39.153-5.647a262.047,262.047,0,0,0-45.929,3.388c-52.33,9.977-73.036-22.588-73.036-22.588-4.047-5.459-8.847-26.541-8.847-26.541-9.317-44.706-31.623-146.071-31.623-146.071-19.2-84.141-27.953-125.929-27.953-125.929-3.577-19.482,13.647-24,13.647-24a186.4,186.4,0,0,1,23.529-5.365c13.271-.564,19.483,1.694,19.483,1.694,7.717,2.73,13.741,12.989,13.741,12.989,1.976,3.2,3.67,11.482,3.67,11.482,1.7,8.282,3.012,17.6,3.012,17.6a99.412,99.412,0,0,1,1.6,12.706c1.506,14.776,3.388,31.247,3.388,31.247,2.636,20.235,12.424,32.188,12.424,32.188,7.718,9.036,18.541,19.2,18.541,19.2,10.353,10.636,12.235,12.33,12.235,12.33,9.506,10.07-.564,19.294-.564,19.294-8.659,8.282-50.541,50.447-50.541,50.447C960.46,259.592,728.931,491.686,728.931,491.686c-2.894,2.753-5.506,5.224-5.506,5.224-8.047,7.835-14.329-.071-14.329-.071-18.424-19.835-60.071-62.47-60.071-62.47-15.812-17.365-28.376-25.553-28.376-25.553-13.7-7.906-23.718-10.306-23.718-10.306-22.871-6.918-56.753-15.247-56.753-15.247-31.482-7.2-64.094-14.824-64.094-14.824-7.765-1.553-13.271-2.964-13.271-2.964a45.708,45.708,0,0,0-45.176,13.27c-26.965,27.106-51.671,51.53-51.671,51.53-29.929,28.8-44.188,43.482-44.188,43.482C293.966,501,257.119,508.2,257.119,508.2c-21.317,4.235-64.517,12-64.517,12-21.318,3.953-67.2,9.318-67.2,9.318-31.906,3.812-40.659-8.33-40.659-8.33-14.4-14.823-26.965-26.258-26.965-26.258C36.6,476.581,34.766,459.216,34.766,459.216c-.847-7.765.847-33.318.847-33.318,1.271-24.423-3.529-36.282-3.529-36.282C27,375.216,19.8,359.4,19.8,359.4c-2.683-5.647-4.095-27.529-4.095-27.529C15,308.863,11.472,281.9,11.472,281.9c-3.388-26.682-7.059-50.541-7.059-50.541C.319,193.522,27.99,179.4,27.99,179.4c13.694-5.506,33.882-19.765,33.882-19.765,18.918-14.541,40.941-38.823,40.941-38.823C120.319,102.6,149.966,77.9,149.966,77.9,181.59,52.769,214.343,26.51,214.343,26.51c11.435-9.176,15.67-11.718,15.67-11.718,27.389-16.8,42.777-3.247,42.777-3.247,9.317,7.624,17.647,19.906,17.647,19.906C313.307,59.4,357.5,110.792,357.5,110.792c40.658,44.189,75.811,77.647,75.811,77.647,18.212,18.777,25.553,25.836,25.553,25.836,8.189,8.706,15.294-.33,15.294-.33,7.153-7.059,45.553-45.741,45.553-45.741,52.8-53.176,102.5-103.153,102.5-103.153C659.284,28.534,671.519,8.2,671.519,8.2c4.33-7.153,9.6-3.012,9.6-3.012,5.694,3.389,22.588,12.894,22.588,12.894,30.5,16.659,44.612,25.7,44.612,25.7,37.153,19.788,64.894,12.235,64.894,12.235,16.8-3.388,38.636-8.659,38.636-8.659C865.4,44.063,868.6,55.922,868.6,55.922,871.99,68.345,894.39,154.275,894.39,154.275Z" transform="translate(0 0)"/><path id="12f6aa7f-5d81-486a-8141-1c58a741fc2f" data-name="pit inner" class="ea66fb62-8432-4049-b844-a4d9159b99b1" d="M942.625,242.639c.012.095-.153-.553-.371-1.67-.522-2.683,2.742-11.077,2.742-11.077,1.976-5.553-.142-14.588-.142-14.588-2.258-10.447-7.247-32.988-7.247-32.988-1.553-6.824-6.541-8.753-6.541-8.753a7.487,7.487,0,0,1-4.729-5.106c-.424-1.765-.88-3.647-.88-3.647" transform="translate(0 0)"/><path id="d45ead5f-5f77-4352-a9e3-d77508b49ed6" data-name="inner" class="05e45d55-4579-4378-b3da-3c1159366535" d="M894.39,154.275c10.729,36.706,23.153,93.741,23.153,93.741C939.19,344.957,970.484,484.2,970.484,484.2c5.506,26.259,10.165,58.447,10.165,58.447,3.811,28.094,22.447,85.977,22.447,85.977,7.623,27.67,9.882,35.576,9.882,35.576,5.365,18.071,19.906,13.13,19.906,13.13,11.576-1.695,44.753-11.859,44.753-11.859,25.835-8.33,82.87-30.636,82.87-30.636,31.906-12.847,38.965-36,38.965-36a121.979,121.979,0,0,0,6.212-33.176c.565-24.282-2.259-59.294-2.259-59.294-2.259-41.365-9.318-66.353-9.318-66.353A195.723,195.723,0,0,0,1183.1,411.5c-10.589-17.929-21.883-23.012-21.883-23.012a114.536,114.536,0,0,0-16.8-6.352c-12.47-3.483-16.988-4.989-16.988-4.989-11.859-4.141-39.153-5.647-39.153-5.647a262.047,262.047,0,0,0-45.929,3.388c-52.33,9.977-73.036-22.588-73.036-22.588-4.047-5.459-8.847-26.541-8.847-26.541-9.317-44.706-31.623-146.071-31.623-146.071-19.2-84.141-27.953-125.929-27.953-125.929-3.577-19.482,13.647-24,13.647-24a186.4,186.4,0,0,1,23.529-5.365c13.271-.564,19.483,1.694,19.483,1.694,7.717,2.73,13.741,12.989,13.741,12.989,1.976,3.2,3.67,11.482,3.67,11.482,1.7,8.282,3.012,17.6,3.012,17.6a99.412,99.412,0,0,1,1.6,12.706c1.506,14.776,3.388,31.247,3.388,31.247,2.636,20.235,12.424,32.188,12.424,32.188,7.718,9.036,18.541,19.2,18.541,19.2,10.353,10.636,12.235,12.33,12.235,12.33,9.506,10.07-.564,19.294-.564,19.294-8.659,8.282-50.541,50.447-50.541,50.447C960.46,259.592,728.931,491.686,728.931,491.686c-2.894,2.753-5.506,5.224-5.506,5.224-8.047,7.835-14.329-.071-14.329-.071-18.424-19.835-60.071-62.47-60.071-62.47-15.812-17.365-28.376-25.553-28.376-25.553-13.7-7.906-23.718-10.306-23.718-10.306-22.871-6.918-56.753-15.247-56.753-15.247-31.482-7.2-64.094-14.824-64.094-14.824-7.765-1.553-13.271-2.964-13.271-2.964a45.708,45.708,0,0,0-45.176,13.27c-26.965,27.106-51.671,51.53-51.671,51.53-29.929,28.8-44.188,43.482-44.188,43.482C293.966,501,257.119,508.2,257.119,508.2c-21.317,4.235-64.517,12-64.517,12-21.318,3.953-67.2,9.318-67.2,9.318-31.906,3.812-40.659-8.33-40.659-8.33-14.4-14.823-26.965-26.258-26.965-26.258C36.6,476.581,34.766,459.216,34.766,459.216c-.847-7.765.847-33.318.847-33.318,1.271-24.423-3.529-36.282-3.529-36.282C27,375.216,19.8,359.4,19.8,359.4c-2.683-5.647-4.095-27.529-4.095-27.529C15,308.863,11.472,281.9,11.472,281.9c-3.388-26.682-7.059-50.541-7.059-50.541C.319,193.522,27.99,179.4,27.99,179.4c13.694-5.506,33.882-19.765,33.882-19.765,18.918-14.541,40.941-38.823,40.941-38.823C120.319,102.6,149.966,77.9,149.966,77.9,181.59,52.769,214.343,26.51,214.343,26.51c11.435-9.176,15.67-11.718,15.67-11.718,27.389-16.8,42.777-3.247,42.777-3.247,9.317,7.624,17.647,19.906,17.647,19.906C313.307,59.4,357.5,110.792,357.5,110.792c40.658,44.189,75.811,77.647,75.811,77.647,18.212,18.777,25.553,25.836,25.553,25.836,8.189,8.706,15.294-.33,15.294-.33,7.153-7.059,45.553-45.741,45.553-45.741,52.8-53.176,102.5-103.153,102.5-103.153C659.284,28.534,671.519,8.2,671.519,8.2c4.33-7.153,9.6-3.012,9.6-3.012,5.694,3.389,22.588,12.894,22.588,12.894,30.5,16.659,44.612,25.7,44.612,25.7,37.153,19.788,64.894,12.235,64.894,12.235,16.8-3.388,38.636-8.659,38.636-8.659C865.4,44.063,868.6,55.922,868.6,55.922,871.99,68.345,894.39,154.275,894.39,154.275Z" transform="translate(0 0)"/><use width="200" height="103.617" transform="translate(930.129 269.841) rotate(168.024) scale(0.075)" xlink:href="#871d68b7-8ca0-4304-9165-ad2354bf4c84"/><line id="d600c965-fe44-417f-9b1b-050f406d1d4d" data-name="c1 outer" class="bfde2740-f8da-43fb-930a-815b34eeaf5b" x1="924.637" y1="279.734" x2="929.896" y2="303.239"/><line id="87935cd0-e287-489c-b893-f55d243eaed3" data-name="c1 white" class="0c0a76ab-9506-49a3-a22d-8303505b1260" x1="924.625" y1="279.698" x2="929.918" y2="303.353"/><line id="ca9e292c-f18a-42c3-9c88-3380ad471806" data-name="c1 inner" class="05e45d55-4579-4378-b3da-3c1159366535" x1="929.922" y1="303.37" x2="924.619" y2="279.663"/><line id="36a03d5c-0ecf-4c39-83f9-29432778c76c" data-name="c2 outer" class="bfde2740-f8da-43fb-930a-815b34eeaf5b" x1="946.154" y1="258.957" x2="951.378" y2="282.934"/><line id="48dd748d-9844-4b9a-a54e-947620523b37" data-name="c2 white" class="0c0a76ab-9506-49a3-a22d-8303505b1260" x1="946.14" y1="258.886" x2="951.36" y2="283.022"/><line id="a7808c77-c3de-4ffd-9017-66df80c9e804" data-name="c2 inner" class="05e45d55-4579-4378-b3da-3c1159366535" x1="946.118" y1="258.864" x2="951.368" y2="283.054"/></g></g></g></svg>