<svg xmlns="http://www.w3.org/2000/svg" xmlns:xlink="http://www.w3.org/1999/xlink" width="1032.808" height="761.251" viewBox="0 0 1032.808 761.251"><defs><style>.bb27dea6-68d9-483b-abf6-b10d3f7d49b0{fill:#00ff24;}.\31 05e22c9-4203-487c-8fae-1f05b6aac3b4,.bb27dea6-68d9-483b-abf6-b10d3f7d49b0{stroke:#000;stroke-width:5px;}.\31 05e22c9-4203-487c-8fae-1f05b6aac3b4,.\32 fde333b-2b29-4531-958f-cf2daee957d1,.\37 af39c2f-e97d-4e45-828c-1e3087819d77,.\39 44558ac-3174-4773-9a8f-b74acee96f5a,.bb27dea6-68d9-483b-abf6-b10d3f7d49b0,.c675cd55-45d4-4d87-8bbf-b4ba2c6ce5c4,.ca182148-3c39-471c-8964-771f35a3dc22{stroke-miterlimit:10;}.\31 05e22c9-4203-487c-8fae-1f05b6aac3b4{fill:#fff;}.\32 fde333b-2b29-4531-958f-cf2daee957d1,.\37 af39c2f-e97d-4e45-828c-1e3087819d77,.\39 44558ac-3174-4773-9a8f-b74acee96f5a,.c675cd55-45d4-4d87-8bbf-b4ba2c6ce5c4,.ca182148-3c39-471c-8964-771f35a3dc22{fill:none;}.\39 44558ac-3174-4773-9a8f-b74acee96f5a,.c675cd55-45d4-4d87-8bbf-b4ba2c6ce5c4{stroke:#c91c1c;}.\32 fde333b-2b29-4531-958f-cf2daee957d1,.\39 44558ac-3174-4773-9a8f-b74acee96f5a{stroke-width:8px;}.\32 fde333b-2b29-4531-958f-cf2daee957d1,.ca182148-3c39-471c-8964-771f35a3dc22{stroke:#0080ff;}.\37 af39c2f-e97d-4e45-828c-1e3087819d77{stroke:#fff;stroke-width:4px;}</style><symbol id="d0b0d046-71b1-48b7-8c10-5bfe079f7b67" data-name="start finish line" viewBox="0 0 200 103.617"><rect class="bb27dea6-68d9-483b-abf6-b10d3f7d49b0" x="2.5" y="2.5" width="195" height="47.043"/><rect class="105e22c9-4203-487c-8fae-1f05b6aac3b4" x="2.5" y="52.367" width="48.75" height="48.75"/><rect class="105e22c9-4203-487c-8fae-1f05b6aac3b4" x="51.25" y="52.367" width="48.75" height="48.75"/><rect class="105e22c9-4203-487c-8fae-1f05b6aac3b4" x="100" y="52.367" width="48.75" height="48.75"/><rect class="105e22c9-4203-487c-8fae-1f05b6aac3b4" x="148.75" y="52.367" width="48.75" height="48.75"/></symbol></defs><title>Seedwick</title><g id="0d307bcb-c73a-4458-9e07-c087fdfe1d0e" data-name="Layer 2"><g id="24778103-d6cd-48c1-8dca-979d8ab89d76" data-name="Grapeseed"><g id="e9ae4083-eac6-4d92-b15f-b1ceca68f6b9" data-name="Seedwick"><path id="41fd5cc8-4f71-4eb1-be2b-4ec363ee9ea4" data-name="pit outer" class="944558ac-3174-4773-9a8f-b74acee96f5a" d="M225.494,584.468c-7.624,1.27-10.235,1.906-10.235,1.906-4.73,1.058-12.494,7.411-12.494,7.411-4.306,3.459-18.142,5.647-18.142,5.647l-17.294,2.753c-16.376,2.471-21.811,3.389-21.811,3.389-9.459,1.482-23.083-3.6-23.083-3.6-5.365-1.624-17.365-1.765-17.365-1.765"/><path id="a30a1fb3-7ca6-49ac-8fa3-9a779b3086f5" data-name="outer" class="2fde333b-2b29-4531-958f-cf2daee957d1" d="M356.859,508.326c-16.847,16.189-43.2,42.212-43.2,42.212-21.318,20.471-64.8,29.788-64.8,29.788-31.483,5.93-107.436,18.071-107.436,18.071-35.858,3.671-45.458.847-45.458.847-11.153-2.329-26.047-20.259-26.047-20.259-6.5-7.2-23.365-22.659-23.365-22.659-14.541-13.2-14.118-34.658-14.118-34.658,1.059-20.047,1.624-40.871,1.624-40.871.353-5.788-6.283-27.176-6.283-27.176-.917-3.742-6-15.953-6-15.953-8.258-19.553-7.129-30.918-7.129-30.918a396.557,396.557,0,0,0-2.353-39.694c-2.588-24.612-6.682-47.482-6.682-47.482-1.036-5.977-1.506-11.106-1.506-11.106-1.6-16.471,15.482-8.094,15.482-8.094a155.929,155.929,0,0,0,19.388,8.376c9.883,2.965,16.659-14.635,16.659-14.635,6.824-16.941,10.4-38.871,10.4-38.871C68.388,242.068,70.27,233.5,70.27,233.5c3.577-14.494,16.1-27.2,16.1-27.2,30.494-33.977,80.376-72.941,80.376-72.941,28.8-22.965,57.6-44.8,57.6-44.8,23.906-18.447,41.412-9.224,41.412-9.224a31.557,31.557,0,0,1,6.823,3.836c6.636,5.082,15.812-1.271,15.812-1.271,5.082-3.035,31.341-25.624,31.341-25.624a278.035,278.035,0,0,1,34.024-27.247c32.188-24.141,55.623,4.377,55.623,4.377,18.918,19.765,35.718,36.141,35.718,36.141,15.671,16.659,19.2,20.188,19.2,20.188,11.576,12.283.424,22.024.424,22.024-24.848,23.859-60.142,56.047-60.142,56.047-14.964,14.682-20.894,21.176-20.894,21.176-12.635,13.2,0,22.871,0,22.871,8.706,8.259,18.447,17.223,18.447,17.223,31.718,30.777,52.047,52.236,52.047,52.236l4.989,4.988c5.741,5.741,12.988-1.6,12.988-1.6,8.659-9.035,18.917-19.482,18.917-19.482,42.259-42.636,106.071-107.3,106.071-107.3,24-22.494,4.612-55.623,4.612-55.623-10.73-19.388-20.518-35.953-20.518-35.953-10.165-18.447,5.459-28.8,5.459-28.8,12.988-10.353,26.353-22.588,26.353-22.588,19.859-16.753,34.635-9.318,34.635-9.318a30.952,30.952,0,0,1,14.4,14.871c2.447,6.588,1.788,18.729,1.788,18.729-.376,16,4.142,24.659,4.142,24.659,6.4,12.988-1.883,21.929-1.883,21.929-8.564,11.577-10.635,14.306-10.635,14.306-6.494,8.753,2.541,16.283,2.541,16.283,19.294,16.376,83.388,65.788,83.388,65.788,46.306,32.282,69.083-2.165,69.083-2.165,7.341-11.482,6.023-30.118,6.023-30.118-.564-25.788,17.883-29.364,17.883-29.364,16.376-3.577,79.058-20.141,79.058-20.141,6.589-1.7,21.271-5.836,21.271-5.836,27.294-6.588,34.635,15.059,34.635,15.059,4.894,14.118,6.965,30.494,6.965,30.494,2.259,21.459,4.518,40.094,4.518,40.094,3.011,26.73,22.588,44.989,22.588,44.989,12.235,12.235,19.576,19.764,19.576,19.764,11.671,10.73,2.071,19.577,2.071,19.577-13.929,14.306-65.318,65.506-65.318,65.506L730.129,559.15c-16.376,15.435-10.729,26.165-10.729,26.165,5.082,11.67,11.482,23.529,11.482,23.529,3.483,6.024,9.6,20.518,9.6,20.518a109.078,109.078,0,0,1,9.13,30.306c3.106,28.517,3.388,59.011,3.388,59.011-.282,16.659-24,34.447-24,34.447-15.53,13.553-27.671-10.635-27.671-10.635-28.517-51.765-91.623-174.165-91.623-174.165a64.95,64.95,0,0,1-6.071-47.388c5.647-15.059,18.259-17.129,18.259-17.129,16-1.318,12.424-10.918,12.424-10.918-3.389-7.717-19.2-15.812-19.2-15.812a280.47,280.47,0,0,0-55.718-19.2c-30.588-7.717-94.118-21.27-94.118-21.27-34.729-6.777-53.082,14.965-53.082,14.965C400.906,463.715,356.859,508.326,356.859,508.326Z"/><path id="9b61a11c-84e0-4b02-8538-0a28cc07049b" data-name="pit white" class="7af39c2f-e97d-4e45-828c-1e3087819d77" d="M225.494,584.468c-7.624,1.27-10.235,1.906-10.235,1.906-4.73,1.058-12.494,7.411-12.494,7.411-4.306,3.459-18.142,5.647-18.142,5.647l-17.294,2.753c-16.376,2.471-21.811,3.389-21.811,3.389-9.459,1.482-23.083-3.6-23.083-3.6-5.365-1.624-17.365-1.765-17.365-1.765"/><path id="ab0ac55a-2fe8-4265-b574-eb6b18574d6c" data-name="white" class="7af39c2f-e97d-4e45-828c-1e3087819d77" d="M356.859,508.326c-16.847,16.189-43.2,42.212-43.2,42.212-21.318,20.471-64.8,29.788-64.8,29.788-31.483,5.93-107.436,18.071-107.436,18.071-35.858,3.671-45.458.847-45.458.847-11.153-2.329-26.047-20.259-26.047-20.259-6.5-7.2-23.365-22.659-23.365-22.659-14.541-13.2-14.118-34.658-14.118-34.658,1.059-20.047,1.624-40.871,1.624-40.871.353-5.788-6.283-27.176-6.283-27.176-.917-3.742-6-15.953-6-15.953-8.258-19.553-7.129-30.918-7.129-30.918a396.557,396.557,0,0,0-2.353-39.694c-2.588-24.612-6.682-47.482-6.682-47.482-1.036-5.977-1.506-11.106-1.506-11.106-1.6-16.471,15.482-8.094,15.482-8.094a155.929,155.929,0,0,0,19.388,8.376c9.883,2.965,16.659-14.635,16.659-14.635,6.824-16.941,10.4-38.871,10.4-38.871C68.388,242.068,70.27,233.5,70.27,233.5c3.577-14.494,16.1-27.2,16.1-27.2,30.494-33.977,80.376-72.941,80.376-72.941,28.8-22.965,57.6-44.8,57.6-44.8,23.906-18.447,41.412-9.224,41.412-9.224a31.557,31.557,0,0,1,6.823,3.836c6.636,5.082,15.812-1.271,15.812-1.271,5.082-3.035,31.341-25.624,31.341-25.624a278.035,278.035,0,0,1,34.024-27.247c32.188-24.141,55.623,4.377,55.623,4.377,18.918,19.765,35.718,36.141,35.718,36.141,15.671,16.659,19.2,20.188,19.2,20.188,11.576,12.283.424,22.024.424,22.024-24.848,23.859-60.142,56.047-60.142,56.047-14.964,14.682-20.894,21.176-20.894,21.176-12.635,13.2,0,22.871,0,22.871,8.706,8.259,18.447,17.223,18.447,17.223,31.718,30.777,52.047,52.236,52.047,52.236l4.989,4.988c5.741,5.741,12.988-1.6,12.988-1.6,8.659-9.035,18.917-19.482,18.917-19.482,42.259-42.636,106.071-107.3,106.071-107.3,24-22.494,4.612-55.623,4.612-55.623-10.73-19.388-20.518-35.953-20.518-35.953-10.165-18.447,5.459-28.8,5.459-28.8,12.988-10.353,26.353-22.588,26.353-22.588,19.859-16.753,34.635-9.318,34.635-9.318a30.952,30.952,0,0,1,14.4,14.871c2.447,6.588,1.788,18.729,1.788,18.729-.376,16,4.142,24.659,4.142,24.659,6.4,12.988-1.883,21.929-1.883,21.929-8.564,11.577-10.635,14.306-10.635,14.306-6.494,8.753,2.541,16.283,2.541,16.283,19.294,16.376,83.388,65.788,83.388,65.788,46.306,32.282,69.083-2.165,69.083-2.165,7.341-11.482,6.023-30.118,6.023-30.118-.564-25.788,17.883-29.364,17.883-29.364,16.376-3.577,79.058-20.141,79.058-20.141,6.589-1.7,21.271-5.836,21.271-5.836,27.294-6.588,34.635,15.059,34.635,15.059,4.894,14.118,6.965,30.494,6.965,30.494,2.259,21.459,4.518,40.094,4.518,40.094,3.011,26.73,22.588,44.989,22.588,44.989,12.235,12.235,19.576,19.764,19.576,19.764,11.671,10.73,2.071,19.577,2.071,19.577-13.929,14.306-65.318,65.506-65.318,65.506L730.129,559.15c-16.376,15.435-10.729,26.165-10.729,26.165,5.082,11.67,11.482,23.529,11.482,23.529,3.483,6.024,9.6,20.518,9.6,20.518a109.078,109.078,0,0,1,9.13,30.306c3.106,28.517,3.388,59.011,3.388,59.011-.282,16.659-24,34.447-24,34.447-15.53,13.553-27.671-10.635-27.671-10.635-28.517-51.765-91.623-174.165-91.623-174.165a64.95,64.95,0,0,1-6.071-47.388c5.647-15.059,18.259-17.129,18.259-17.129,16-1.318,12.424-10.918,12.424-10.918-3.389-7.717-19.2-15.812-19.2-15.812a280.47,280.47,0,0,0-55.718-19.2c-30.588-7.717-94.118-21.27-94.118-21.27-34.729-6.777-53.082,14.965-53.082,14.965C400.906,463.715,356.859,508.326,356.859,508.326Z"/><path id="afb528b6-2a6d-455d-ba44-2538f9db783e" data-name="pit inner" class="c675cd55-45d4-4d87-8bbf-b4ba2c6ce5c4" d="M225.494,584.468c-7.624,1.27-10.235,1.906-10.235,1.906-4.73,1.058-12.494,7.411-12.494,7.411-4.306,3.459-18.142,5.647-18.142,5.647l-17.294,2.753c-16.376,2.471-21.811,3.389-21.811,3.389-9.459,1.482-23.083-3.6-23.083-3.6-5.365-1.624-17.365-1.765-17.365-1.765"/><path id="1eabaa1a-c738-402d-97a6-38219a770af6" data-name="inner" class="ca182148-3c39-471c-8964-771f35a3dc22" d="M356.859,508.326c-16.847,16.189-43.2,42.212-43.2,42.212-21.318,20.471-64.8,29.788-64.8,29.788-31.483,5.93-107.436,18.071-107.436,18.071-35.858,3.671-45.458.847-45.458.847-11.153-2.329-26.047-20.259-26.047-20.259-6.5-7.2-23.365-22.659-23.365-22.659-14.541-13.2-14.118-34.658-14.118-34.658,1.059-20.047,1.624-40.871,1.624-40.871.353-5.788-6.283-27.176-6.283-27.176-.917-3.742-6-15.953-6-15.953-8.258-19.553-7.129-30.918-7.129-30.918a396.557,396.557,0,0,0-2.353-39.694c-2.588-24.612-6.682-47.482-6.682-47.482-1.036-5.977-1.506-11.106-1.506-11.106-1.6-16.471,15.482-8.094,15.482-8.094a155.929,155.929,0,0,0,19.388,8.376c9.883,2.965,16.659-14.635,16.659-14.635,6.824-16.941,10.4-38.871,10.4-38.871C68.388,242.068,70.27,233.5,70.27,233.5c3.577-14.494,16.1-27.2,16.1-27.2,30.494-33.977,80.376-72.941,80.376-72.941,28.8-22.965,57.6-44.8,57.6-44.8,23.906-18.447,41.412-9.224,41.412-9.224a31.557,31.557,0,0,1,6.823,3.836c6.636,5.082,15.812-1.271,15.812-1.271,5.082-3.035,31.341-25.624,31.341-25.624a278.035,278.035,0,0,1,34.024-27.247c32.188-24.141,55.623,4.377,55.623,4.377,18.918,19.765,35.718,36.141,35.718,36.141,15.671,16.659,19.2,20.188,19.2,20.188,11.576,12.283.424,22.024.424,22.024-24.848,23.859-60.142,56.047-60.142,56.047-14.964,14.682-20.894,21.176-20.894,21.176-12.635,13.2,0,22.871,0,22.871,8.706,8.259,18.447,17.223,18.447,17.223,31.718,30.777,52.047,52.236,52.047,52.236l4.989,4.988c5.741,5.741,12.988-1.6,12.988-1.6,8.659-9.035,18.917-19.482,18.917-19.482,42.259-42.636,106.071-107.3,106.071-107.3,24-22.494,4.612-55.623,4.612-55.623-10.73-19.388-20.518-35.953-20.518-35.953-10.165-18.447,5.459-28.8,5.459-28.8,12.988-10.353,26.353-22.588,26.353-22.588,19.859-16.753,34.635-9.318,34.635-9.318a30.952,30.952,0,0,1,14.4,14.871c2.447,6.588,1.788,18.729,1.788,18.729-.376,16,4.142,24.659,4.142,24.659,6.4,12.988-1.883,21.929-1.883,21.929-8.564,11.577-10.635,14.306-10.635,14.306-6.494,8.753,2.541,16.283,2.541,16.283,19.294,16.376,83.388,65.788,83.388,65.788,46.306,32.282,69.083-2.165,69.083-2.165,7.341-11.482,6.023-30.118,6.023-30.118-.564-25.788,17.883-29.364,17.883-29.364,16.376-3.577,79.058-20.141,79.058-20.141,6.589-1.7,21.271-5.836,21.271-5.836,27.294-6.588,34.635,15.059,34.635,15.059,4.894,14.118,6.965,30.494,6.965,30.494,2.259,21.459,4.518,40.094,4.518,40.094,3.011,26.73,22.588,44.989,22.588,44.989,12.235,12.235,19.576,19.764,19.576,19.764,11.671,10.73,2.071,19.577,2.071,19.577-13.929,14.306-65.318,65.506-65.318,65.506L730.129,559.15c-16.376,15.435-10.729,26.165-10.729,26.165,5.082,11.67,11.482,23.529,11.482,23.529,3.483,6.024,9.6,20.518,9.6,20.518a109.078,109.078,0,0,1,9.13,30.306c3.106,28.517,3.388,59.011,3.388,59.011-.282,16.659-24,34.447-24,34.447-15.53,13.553-27.671-10.635-27.671-10.635-28.517-51.765-91.623-174.165-91.623-174.165a64.95,64.95,0,0,1-6.071-47.388c5.647-15.059,18.259-17.129,18.259-17.129,16-1.318,12.424-10.918,12.424-10.918-3.389-7.717-19.2-15.812-19.2-15.812a280.47,280.47,0,0,0-55.718-19.2c-30.588-7.717-94.118-21.27-94.118-21.27-34.729-6.777-53.082,14.965-53.082,14.965C400.906,463.715,356.859,508.326,356.859,508.326Z"/><use width="200" height="103.617" transform="translate(318.121 554.903) rotate(-135.01) scale(0.065)" xlink:href="#d0b0d046-71b1-48b7-8c10-5bfe079f7b67"/></g></g></g></svg>