<svg xmlns="http://www.w3.org/2000/svg" xmlns:xlink="http://www.w3.org/1999/xlink" width="1092.634" height="1120.947" viewBox="0 0 1092.634 1120.947"><defs><style>.c7ed661a-379b-4762-aecb-dbb317a2f710{fill:#00ff24;}.\36 4e2f12d-f7d0-4457-b019-868a676d355e,.c7ed661a-379b-4762-aecb-dbb317a2f710{stroke:#000;stroke-width:5px;}.\32 591e877-b07f-49d6-8d89-67bc300a42c9,.\36 4e2f12d-f7d0-4457-b019-868a676d355e,.\37 dd9ba2e-f170-40cf-87ee-e34c9c19f1b1,.\38 413844a-5f4a-40e4-b359-4c8b40fd674a,.c7ed661a-379b-4762-aecb-dbb317a2f710{stroke-miterlimit:10;}.\36 4e2f12d-f7d0-4457-b019-868a676d355e{fill:#fff;}.\32 591e877-b07f-49d6-8d89-67bc300a42c9,.\37 dd9ba2e-f170-40cf-87ee-e34c9c19f1b1,.\38 413844a-5f4a-40e4-b359-4c8b40fd674a{fill:none;}.\37 dd9ba2e-f170-40cf-87ee-e34c9c19f1b1,.\38 413844a-5f4a-40e4-b359-4c8b40fd674a{stroke:#0080ff;}.\37 dd9ba2e-f170-40cf-87ee-e34c9c19f1b1{stroke-width:8px;}.\32 591e877-b07f-49d6-8d89-67bc300a42c9{stroke:#fff;stroke-width:4px;}</style><symbol id="03874aed-3826-4f77-a963-8847dfdea9a8" data-name="start finish line" viewBox="0 0 200 103.617"><rect class="c7ed661a-379b-4762-aecb-dbb317a2f710" x="2.5" y="2.5" width="195" height="47.043"/><rect class="64e2f12d-f7d0-4457-b019-868a676d355e" x="2.5" y="52.367" width="48.75" height="48.75"/><rect class="64e2f12d-f7d0-4457-b019-868a676d355e" x="51.25" y="52.367" width="48.75" height="48.75"/><rect class="64e2f12d-f7d0-4457-b019-868a676d355e" x="100" y="52.367" width="48.75" height="48.75"/><rect class="64e2f12d-f7d0-4457-b019-868a676d355e" x="148.75" y="52.367" width="48.75" height="48.75"/></symbol></defs><title>Sprunkseed_Raceway</title><g id="a6241ed6-c23c-4f05-a44e-3eb504ebf511" data-name="Layer 2"><g id="a9ef7434-cfae-401c-be5e-e8010627aa1f" data-name="Grapeseed"><g id="02616856-8a2c-4319-a02d-8c6778a72f2f" data-name="Sprunkseed_Raceway"><path id="21f428a1-0cce-4e3c-a451-124ecf1fd14c" data-name="outer" class="7dd9ba2e-f170-40cf-87ee-e34c9c19f1b1" d="M296.189,439.378s14.494-71.341,17.883-91.294c0,0,5.082-17.882-16-42.918,0,0-13.365-14.494-16.377-17.035,0,0-46.306-45.741-51.388-50.823-12-12-58.447-61.271-58.447-61.271-25.13-28.518-63.247-76.518-63.247-76.518-7.577-9.6,1.976-17.647,1.976-17.647,11.671-11.811,54.024-44,54.024-44C191.342,18.3,209.036,15.1,209.036,15.1c19.389-4.518,34.824-6.965,34.824-6.965,18.729-2.918,37.741-.376,37.741-.376,12.988,1.694,28.424,8.282,28.424,8.282,20.705,8.565,48.564,21.271,48.564,21.271,5.177,2.353,16.188,7.247,16.188,7.247,16.377,6.588,30.871-4.236,30.871-4.236,10.071-7.717,19.765-16.847,19.765-16.847A115.629,115.629,0,0,1,447.154,7.19c22.306-11.106,34.165,10.353,34.165,10.353C486.5,26.672,485.46,40.6,485.46,40.6,484.989,65.919,496.283,72.7,496.283,72.7c7.906,5.647,22.589,13.741,22.589,13.741,11.482,6.776,19.764,11.671,19.764,11.671,15.53,8.753,31.341,35.858,31.341,35.858,10.165,16.377,46.306,76.8,46.306,76.8,6.494,10.165,7.765,12.706,7.765,12.706,17.224,27.106,64.518,33.036,64.518,33.036,9.459,1.553,50.4-4.236,50.4-4.236,8.894-.988,7.482-11.011,7.482-11.011-2.259-17.789-13.553-59.012-13.553-59.012-7.341-22.588-14.306-64-14.306-64-2.07-14.306,27.294-19.953,27.294-19.953a110.369,110.369,0,0,1,20.894-3.2c21.083-.565,26.73,22.212,26.73,22.212a223.527,223.527,0,0,1,6.212,38.211c2.635,17.13,4.329,34.636,4.329,34.636,2.635,18.07,50.071,92.047,50.071,92.047,8.941,15.811,24.47,47.435,24.47,47.435,8.471,18.071,25.13,63.812,25.13,63.812,6.07,13.835,12.423,28.376,12.423,28.376,7.341,16.941,23.012,23.647,23.012,23.647,9.529,4.236,24.918,8.4,24.918,8.4,48.353,13.836,52.447,66.918,52.447,66.918,2.541,18.918,6.211,56.471,6.211,56.471,2.589,19.294,3.342,51.388,3.342,51.388.564,30.212-8.659,46.117-8.659,46.117-9.788,17.883-28.236,27.012-28.236,27.012a160.212,160.212,0,0,1-18.729,8.753c-14.871,5.365-10.071,17.035-10.071,17.035,5.459,11.765,74.353,189.93,74.353,189.93,8.471,19.765,28.8,73.976,28.8,73.976,7.059,17.224,17.789,47.436,17.789,47.436,2.447,6.4,5.835,15.435,5.835,15.435,8.847,25.035-24.847,45.741-24.847,45.741-70.024,42.729-89.224-9.223-89.224-9.223-2.258-4.9-10.729-42.353-10.729-42.353a433.722,433.722,0,0,0-22.024-74.165c-22.917-66.306-80.517-252.659-80.517-252.659-20.753-79.2-46.165-171.529-46.165-171.529-7.623-34.306-16.235-72.424-16.235-72.424C794.307,463.9,760,451.331,760,451.331c-25.412-10.07-96.376-39.247-96.376-39.247-16.848-6.776-47.436-18.447-47.436-18.447-24.659-9.224-50.823,12.988-50.823,12.988-16.189,13.741-24.847,21.836-24.847,21.836-34.259,33.882-3.953,123.294-3.953,123.294,1.788,5.835,4.141,11.67,4.141,11.67,2.729,7.436-1.882,9.506-1.882,9.506-4.989,1.977-10.353-4.894-10.353-4.894-5.93-6.494-38.212-39.812-38.212-39.812-16.283-17.035-34.494-35.67-34.494-35.67-27.906-27.294-98.024-37.93-98.024-37.93C337.6,450.108,308.989,443.9,308.989,443.9c-17.317-4.33-26.541-7.53-26.541-7.53-19.012-6.023-38.212,7.342-38.212,7.342-5.741,4.517-68,66.776-68,66.776-13.694,13.694-38.541,38.824-38.541,38.824-22.306,22.87-62.118,30.776-62.118,30.776-13.364,2.353-36.7,6.682-36.7,6.682C1.225,592.037,4.048,630.437,4.048,630.437c.188,32.941,55.906,23.153,55.906,23.153,31.718-3.765,104.471-22.777,104.471-22.777,20.329-3.811,28.329-6.4,28.329-6.4,14.494-5.835,16.094-39.058,16.094-39.058,3.765-30.683,12.706-51.012,12.706-51.012,4.988-19.671,47.059-26.918,47.059-26.918,17.506-2.447,20.8-37.459,22.87-48S296.189,439.378,296.189,439.378Z"/><path id="f6a78337-b7dc-4cc7-adf4-6369c5ee2b40" data-name="white" class="2591e877-b07f-49d6-8d89-67bc300a42c9" d="M296.189,439.378s14.494-71.341,17.883-91.294c0,0,5.082-17.882-16-42.918,0,0-13.365-14.494-16.377-17.035,0,0-46.306-45.741-51.388-50.823-12-12-58.447-61.271-58.447-61.271-25.13-28.518-63.247-76.518-63.247-76.518-7.577-9.6,1.976-17.647,1.976-17.647,11.671-11.811,54.024-44,54.024-44C191.342,18.3,209.036,15.1,209.036,15.1c19.389-4.518,34.824-6.965,34.824-6.965,18.729-2.918,37.741-.376,37.741-.376,12.988,1.694,28.424,8.282,28.424,8.282,20.705,8.565,48.564,21.271,48.564,21.271,5.177,2.353,16.188,7.247,16.188,7.247,16.377,6.588,30.871-4.236,30.871-4.236,10.071-7.717,19.765-16.847,19.765-16.847A115.629,115.629,0,0,1,447.154,7.19c22.306-11.106,34.165,10.353,34.165,10.353C486.5,26.672,485.46,40.6,485.46,40.6,484.989,65.919,496.283,72.7,496.283,72.7c7.906,5.647,22.589,13.741,22.589,13.741,11.482,6.776,19.764,11.671,19.764,11.671,15.53,8.753,31.341,35.858,31.341,35.858,10.165,16.377,46.306,76.8,46.306,76.8,6.494,10.165,7.765,12.706,7.765,12.706,17.224,27.106,64.518,33.036,64.518,33.036,9.459,1.553,50.4-4.236,50.4-4.236,8.894-.988,7.482-11.011,7.482-11.011-2.259-17.789-13.553-59.012-13.553-59.012-7.341-22.588-14.306-64-14.306-64-2.07-14.306,27.294-19.953,27.294-19.953a110.369,110.369,0,0,1,20.894-3.2c21.083-.565,26.73,22.212,26.73,22.212a223.527,223.527,0,0,1,6.212,38.211c2.635,17.13,4.329,34.636,4.329,34.636,2.635,18.07,50.071,92.047,50.071,92.047,8.941,15.811,24.47,47.435,24.47,47.435,8.471,18.071,25.13,63.812,25.13,63.812,6.07,13.835,12.423,28.376,12.423,28.376,7.341,16.941,23.012,23.647,23.012,23.647,9.529,4.236,24.918,8.4,24.918,8.4,48.353,13.836,52.447,66.918,52.447,66.918,2.541,18.918,6.211,56.471,6.211,56.471,2.589,19.294,3.342,51.388,3.342,51.388.564,30.212-8.659,46.117-8.659,46.117-9.788,17.883-28.236,27.012-28.236,27.012a160.212,160.212,0,0,1-18.729,8.753c-14.871,5.365-10.071,17.035-10.071,17.035,5.459,11.765,74.353,189.93,74.353,189.93,8.471,19.765,28.8,73.976,28.8,73.976,7.059,17.224,17.789,47.436,17.789,47.436,2.447,6.4,5.835,15.435,5.835,15.435,8.847,25.035-24.847,45.741-24.847,45.741-70.024,42.729-89.224-9.223-89.224-9.223-2.258-4.9-10.729-42.353-10.729-42.353a433.722,433.722,0,0,0-22.024-74.165c-22.917-66.306-80.517-252.659-80.517-252.659-20.753-79.2-46.165-171.529-46.165-171.529-7.623-34.306-16.235-72.424-16.235-72.424C794.307,463.9,760,451.331,760,451.331c-25.412-10.07-96.376-39.247-96.376-39.247-16.848-6.776-47.436-18.447-47.436-18.447-24.659-9.224-50.823,12.988-50.823,12.988-16.189,13.741-24.847,21.836-24.847,21.836-34.259,33.882-3.953,123.294-3.953,123.294,1.788,5.835,4.141,11.67,4.141,11.67,2.729,7.436-1.882,9.506-1.882,9.506-4.989,1.977-10.353-4.894-10.353-4.894-5.93-6.494-38.212-39.812-38.212-39.812-16.283-17.035-34.494-35.67-34.494-35.67-27.906-27.294-98.024-37.93-98.024-37.93C337.6,450.108,308.989,443.9,308.989,443.9c-17.317-4.33-26.541-7.53-26.541-7.53-19.012-6.023-38.212,7.342-38.212,7.342-5.741,4.517-68,66.776-68,66.776-13.694,13.694-38.541,38.824-38.541,38.824-22.306,22.87-62.118,30.776-62.118,30.776-13.364,2.353-36.7,6.682-36.7,6.682C1.225,592.037,4.048,630.437,4.048,630.437c.188,32.941,55.906,23.153,55.906,23.153,31.718-3.765,104.471-22.777,104.471-22.777,20.329-3.811,28.329-6.4,28.329-6.4,14.494-5.835,16.094-39.058,16.094-39.058,3.765-30.683,12.706-51.012,12.706-51.012,4.988-19.671,47.059-26.918,47.059-26.918,17.506-2.447,20.8-37.459,22.87-48S296.189,439.378,296.189,439.378Z"/><path id="474e7b13-b6c6-4499-96b5-06005588d1db" data-name="inner" class="8413844a-5f4a-40e4-b359-4c8b40fd674a" d="M296.189,439.378s14.494-71.341,17.883-91.294c0,0,5.082-17.882-16-42.918,0,0-13.365-14.494-16.377-17.035,0,0-46.306-45.741-51.388-50.823-12-12-58.447-61.271-58.447-61.271-25.13-28.518-63.247-76.518-63.247-76.518-7.577-9.6,1.976-17.647,1.976-17.647,11.671-11.811,54.024-44,54.024-44C191.342,18.3,209.036,15.1,209.036,15.1c19.389-4.518,34.824-6.965,34.824-6.965,18.729-2.918,37.741-.376,37.741-.376,12.988,1.694,28.424,8.282,28.424,8.282,20.705,8.565,48.564,21.271,48.564,21.271,5.177,2.353,16.188,7.247,16.188,7.247,16.377,6.588,30.871-4.236,30.871-4.236,10.071-7.717,19.765-16.847,19.765-16.847A115.629,115.629,0,0,1,447.154,7.19c22.306-11.106,34.165,10.353,34.165,10.353C486.5,26.672,485.46,40.6,485.46,40.6,484.989,65.919,496.283,72.7,496.283,72.7c7.906,5.647,22.589,13.741,22.589,13.741,11.482,6.776,19.764,11.671,19.764,11.671,15.53,8.753,31.341,35.858,31.341,35.858,10.165,16.377,46.306,76.8,46.306,76.8,6.494,10.165,7.765,12.706,7.765,12.706,17.224,27.106,64.518,33.036,64.518,33.036,9.459,1.553,50.4-4.236,50.4-4.236,8.894-.988,7.482-11.011,7.482-11.011-2.259-17.789-13.553-59.012-13.553-59.012-7.341-22.588-14.306-64-14.306-64-2.07-14.306,27.294-19.953,27.294-19.953a110.369,110.369,0,0,1,20.894-3.2c21.083-.565,26.73,22.212,26.73,22.212a223.527,223.527,0,0,1,6.212,38.211c2.635,17.13,4.329,34.636,4.329,34.636,2.635,18.07,50.071,92.047,50.071,92.047,8.941,15.811,24.47,47.435,24.47,47.435,8.471,18.071,25.13,63.812,25.13,63.812,6.07,13.835,12.423,28.376,12.423,28.376,7.341,16.941,23.012,23.647,23.012,23.647,9.529,4.236,24.918,8.4,24.918,8.4,48.353,13.836,52.447,66.918,52.447,66.918,2.541,18.918,6.211,56.471,6.211,56.471,2.589,19.294,3.342,51.388,3.342,51.388.564,30.212-8.659,46.117-8.659,46.117-9.788,17.883-28.236,27.012-28.236,27.012a160.212,160.212,0,0,1-18.729,8.753c-14.871,5.365-10.071,17.035-10.071,17.035,5.459,11.765,74.353,189.93,74.353,189.93,8.471,19.765,28.8,73.976,28.8,73.976,7.059,17.224,17.789,47.436,17.789,47.436,2.447,6.4,5.835,15.435,5.835,15.435,8.847,25.035-24.847,45.741-24.847,45.741-70.024,42.729-89.224-9.223-89.224-9.223-2.258-4.9-10.729-42.353-10.729-42.353a433.722,433.722,0,0,0-22.024-74.165c-22.917-66.306-80.517-252.659-80.517-252.659-20.753-79.2-46.165-171.529-46.165-171.529-7.623-34.306-16.235-72.424-16.235-72.424C794.307,463.9,760,451.331,760,451.331c-25.412-10.07-96.376-39.247-96.376-39.247-16.848-6.776-47.436-18.447-47.436-18.447-24.659-9.224-50.823,12.988-50.823,12.988-16.189,13.741-24.847,21.836-24.847,21.836-34.259,33.882-3.953,123.294-3.953,123.294,1.788,5.835,4.141,11.67,4.141,11.67,2.729,7.436-1.882,9.506-1.882,9.506-4.989,1.977-10.353-4.894-10.353-4.894-5.93-6.494-38.212-39.812-38.212-39.812-16.283-17.035-34.494-35.67-34.494-35.67-27.906-27.294-98.024-37.93-98.024-37.93C337.6,450.108,308.989,443.9,308.989,443.9c-17.317-4.33-26.541-7.53-26.541-7.53-19.012-6.023-38.212,7.342-38.212,7.342-5.741,4.517-68,66.776-68,66.776-13.694,13.694-38.541,38.824-38.541,38.824-22.306,22.87-62.118,30.776-62.118,30.776-13.364,2.353-36.7,6.682-36.7,6.682C1.225,592.037,4.048,630.437,4.048,630.437c.188,32.941,55.906,23.153,55.906,23.153,31.718-3.765,104.471-22.777,104.471-22.777,20.329-3.811,28.329-6.4,28.329-6.4,14.494-5.835,16.094-39.058,16.094-39.058,3.765-30.683,12.706-51.012,12.706-51.012,4.988-19.671,47.059-26.918,47.059-26.918,17.506-2.447,20.8-37.459,22.87-48S296.189,439.378,296.189,439.378Z"/><path id="e0eaa1ac-d9a7-4cdc-a4b1-8f27051a2e46" data-name="crossover outer" class="7dd9ba2e-f170-40cf-87ee-e34c9c19f1b1" d="M297.613,432.343c-1.341,6.247-3.53,15.318-3.53,15.318"/><path id="398f2b3a-3967-4ece-8f85-a8566c97d820" data-name="crossover white" class="2591e877-b07f-49d6-8d89-67bc300a42c9" d="M297.636,432.249c-1.341,6.247-3.576,15.435-3.576,15.435"/><path id="9daa1a22-f9e8-4ef5-8ad4-759135acb608" data-name="crossover inner" class="8413844a-5f4a-40e4-b359-4c8b40fd674a" d="M297.63,432.237c-1.341,6.247-3.564,15.468-3.564,15.468"/><use width="200" height="103.617" transform="matrix(0.055, -0.048, 0.048, 0.055, 182.21, 197.115)" xlink:href="#03874aed-3826-4f77-a963-8847dfdea9a8"/></g></g></g></svg>