<svg xmlns="http://www.w3.org/2000/svg" xmlns:xlink="http://www.w3.org/1999/xlink" width="929.565" height="1171.565" viewBox="0 0 929.565 1171.565"><defs><style>.\34 a836474-1d1e-4a5b-bc43-9cb515fc1b60{fill:#00ff24;}.\34 a836474-1d1e-4a5b-bc43-9cb515fc1b60,.be0c7379-7e37-4821-9d8e-c925cfbe5cf3{stroke:#000;stroke-width:5px;}.\32 bb03a94-c97d-4fe9-bc51-6595d6d1c925,.\34 7e0d4b5-f642-4d95-be04-ad471232eb5e,.\34 a836474-1d1e-4a5b-bc43-9cb515fc1b60,.\39 467e4f2-43a4-4db1-9138-ee8abffc4c5c,.a0f9bf2f-7269-4bbd-9c72-8bc3edac59ae,.be0c7379-7e37-4821-9d8e-c925cfbe5cf3,.d9f0c402-67bf-4307-91db-978c12a49623{stroke-miterlimit:10;}.be0c7379-7e37-4821-9d8e-c925cfbe5cf3{fill:#fff;}.\32 bb03a94-c97d-4fe9-bc51-6595d6d1c925,.\34 7e0d4b5-f642-4d95-be04-ad471232eb5e,.\39 467e4f2-43a4-4db1-9138-ee8abffc4c5c,.a0f9bf2f-7269-4bbd-9c72-8bc3edac59ae,.d9f0c402-67bf-4307-91db-978c12a49623{fill:none;}.\39 467e4f2-43a4-4db1-9138-ee8abffc4c5c,.d9f0c402-67bf-4307-91db-978c12a49623{stroke:#c91c1c;}.\34 7e0d4b5-f642-4d95-be04-ad471232eb5e,.d9f0c402-67bf-4307-91db-978c12a49623{stroke-width:8px;}.\32 bb03a94-c97d-4fe9-bc51-6595d6d1c925,.\34 7e0d4b5-f642-4d95-be04-ad471232eb5e{stroke:#0080ff;}.a0f9bf2f-7269-4bbd-9c72-8bc3edac59ae{stroke:#fff;stroke-width:4px;}</style><symbol id="56c664c6-2861-4b74-bd10-b88024b4f42d" data-name="start finish line" viewBox="0 0 200 103.617"><rect class="4a836474-1d1e-4a5b-bc43-9cb515fc1b60" x="2.5" y="2.5" width="195" height="47.043"/><rect class="be0c7379-7e37-4821-9d8e-c925cfbe5cf3" x="2.5" y="52.367" width="48.75" height="48.75"/><rect class="be0c7379-7e37-4821-9d8e-c925cfbe5cf3" x="51.25" y="52.367" width="48.75" height="48.75"/><rect class="be0c7379-7e37-4821-9d8e-c925cfbe5cf3" x="100" y="52.367" width="48.75" height="48.75"/><rect class="be0c7379-7e37-4821-9d8e-c925cfbe5cf3" x="148.75" y="52.367" width="48.75" height="48.75"/></symbol></defs><title>Union_Grain_3_Way_Redux</title><g id="8175b446-93f4-4452-b1b0-203f0a0c89df" data-name="Layer 2"><g id="9c2b5ee6-ee39-409b-8c6b-31543fd74be5" data-name="Grapeseed"><g id="1cc9d34f-1407-4646-a2d2-6b76c240b945" data-name="Union_Grain_3_Way_Redux"><path id="6ded762e-d8cd-4090-9684-3c0a89317bf3" data-name="pit outer" class="d9f0c402-67bf-4307-91db-978c12a49623" d="M815.943,898.867a26.078,26.078,0,0,0,13.129,15.105s5.647,1.836,8.33,9.742c0,0,3.812,11.506,8.259,25.2,0,0,9.247,27.529,14.611,43.623,0,0,3.745,10.447,3.153,17.718-.863,10.611-6.033,19.819-4.776,24.259l2,7.153"/><path id="8bae7b29-391e-4f24-94c7-7221033dc055" data-name="outer" class="47e0d4b5-f642-4d95-be04-ad471232eb5e" d="M841.046,977.4c-.03-.092-.055-.179-.079-.273-6.28-24.723-33.848-104.239-33.848-104.239-15.811-49.412-26.258-79.341-26.258-79.341-3.812-11.577-10.447-33.035-10.447-33.035C767.449,751.2,753.19,749.5,753.19,749.5c-18.071-2.682-21.882-16.659-21.882-16.659-3.624-12.894-16.989-63.906-16.989-63.906C706.037,636.843,684.3,522.208,684.3,522.208c-5.929-31.53-11.577-53.741-11.577-53.741-3.011-10.165,6.965-12.612,6.965-12.612,11.483-2.259,12.8,6.023,12.8,6.023,4.33,19.765,13.365,55.342,13.365,55.342,8.847,40.47,18.447,74.917,18.447,74.917,15.247,59.483,31.812,116.141,31.812,116.141a206.15,206.15,0,0,0,6.964,20.706c6.024,17.13,21.083,10.73,21.083,10.73,23.717-8.094,57.035-18.447,57.035-18.447,11.294-3.389,43.294-18.071,43.294-18.071,28.424-13.741,35.012-34.447,35.012-34.447,6.023-21.082,6.023-48.753,6.023-48.753.565-16-4.329-66.635-4.329-66.635-2.823-34.824-13.176-59.859-13.176-59.859-8.1-17.882-16-25.977-16-25.977-7.53-7.717-19.2-12.047-19.2-12.047-12.989-3.953-24.659-7.529-24.659-7.529-25.6-8.282-28.612-18.824-28.612-18.824-12.988-28.047-35.012-82.823-35.012-82.823-8.47-24.471-22.588-52.894-22.588-52.894a102.079,102.079,0,0,0-11.859-16.941c-7.153-7.718-2.447-14.118-2.447-14.118,6.4-7.529-2.07-16.565-2.07-16.565-15.059-15.059-23.53-23.153-23.53-23.153-21.082-20.706-20.894-53.082-20.894-53.082a306.067,306.067,0,0,0-6.965-50.071c-5.647-29.176-33.129-24.847-33.129-24.847-22.4,3.389-31.812,7.341-31.812,7.341-12.8,4.142-9.223,25.977-9.223,25.977,3.764,18.447,18.07,80.941,18.07,80.941,5.835,29.365,45.93,202.541,45.93,202.541,6.494,28.33-10.071,29.459-10.071,29.459-14.118.659-13.647-8.4-13.647-8.4a36.1,36.1,0,0,1,1.882-14.282c3.2-7.153-.188-14.941-.188-14.941a95.157,95.157,0,0,0-4.329-9.342c-12.518-21.553-20.047-78.023-20.047-78.023-8.1-46.4-30.4-118.118-30.4-118.118-13.271-41.223-19.2-68.047-19.2-68.047-3.859-18.07-20.706-12.235-20.706-12.235-11.671,3.388-29.365,7.812-29.365,7.812-34.635,7.153-48.941.564-48.941.564-17.883-7.717-82.824-47.67-82.824-47.67-22.447-14.541-20.611-28.659-20.611-28.659.423-20.471-.283-23.435-.283-23.435C383.308,7.2,364.814,4.372,364.814,4.372,347.025,1.831,337,13.125,337,13.125c-10.871,9.177-26.824,22.447-26.824,22.447-20.894,15.389-30.635,10.165-30.635,10.165-14.259-5.647-49.129-21.459-49.129-21.459C182.555,2.961,155.308,5.361,155.308,5.361,136.39,6.067,96.3,17.5,96.3,17.5c-9.365,2.4-24.8,13.882-24.8,13.882C51.919,46.255,10.884,80.89,10.884,80.89-.316,90.3,5.519,96.655,5.519,96.655,19.355,113.831,92.39,199.29,92.39,199.29c49.318,49.13,92.8,92.612,92.8,92.612,6.4,6.118,14.212,14.023,14.212,14.023,17.882,18.824,15.153,33.224,15.153,33.224-5.459,30.776-16.094,85.741-16.094,85.741-3.765,15.624,8.188,17.506,8.188,17.506,15.718,3.576,75.294,16,75.294,16,21.741,5.082,47.435,14.965,47.435,14.965,11.012,4.517,23.577,16.094,23.577,16.094,17.647,18.212,67.482,69.035,67.482,69.035,19.906,21.318,24.847,34.73,24.847,34.73,12.565,28.517,18.212,40.658,18.212,40.658,9.6,22.024,8.188,38.824,8.188,38.824.565,38.541,1.271,49.412,1.271,49.412.847,20.047-11.294,54.211-11.294,54.211a528.59,528.59,0,0,0-18.636,61.412c-12.988,52.941,2.259,97.13,2.259,97.13,14.541,48.705,39.812,60.282,39.812,60.282,12.941,6.965,17.647-7.247,17.647-7.247,11.106-24,53.459-88.565,53.459-88.565,37.741-57.223,69.082-87.435,69.082-87.435,25.271-25.13,56.612-40.659,56.612-40.659,14.541-7.906,33.882-11.718,33.882-11.718,19.059-4.658,25.13,13.553,25.13,13.553,8.47,23.577,29.506,81.036,29.506,81.036C799.778,930.067,816.3,976.231,816.3,976.231c11.859,32.189,30.071,99.953,30.071,99.953,6.211,26.541,13.835,69.741,13.835,69.741.706,4.1,1.976,12.989,1.976,12.989,1.553,9.741,9.036,8.611,9.036,8.611,7.482-.282,8.329-.282,8.329-.282,7.059-.565,5.506-6.918,5.506-6.918-1.412-14.258-9.177-56.47-9.177-56.47C867.33,1057.421,842.247,981.045,841.046,977.4Z"/><path id="aa9f7fce-1960-4b48-97e9-e16cdf817247" data-name="pit white" class="a0f9bf2f-7269-4bbd-9c72-8bc3edac59ae" d="M815.943,898.82a26.078,26.078,0,0,0,13.129,15.1s5.647,1.836,8.33,9.742c0,0,3.812,11.5,8.259,25.2,0,0,9.247,27.529,14.611,43.623,0,0,3.745,10.447,3.153,17.718-.863,10.611-6.033,19.819-4.776,24.259l1.976,7.141"/><path id="87077e3d-4910-4b19-b623-fcc4991d15a1" data-name="white" class="a0f9bf2f-7269-4bbd-9c72-8bc3edac59ae" d="M841.046,977.4c-.03-.092-.055-.179-.079-.273-6.28-24.723-33.848-104.239-33.848-104.239-15.811-49.412-26.258-79.341-26.258-79.341-3.812-11.577-10.447-33.035-10.447-33.035C767.449,751.2,753.19,749.5,753.19,749.5c-18.071-2.682-21.882-16.659-21.882-16.659-3.624-12.894-16.989-63.906-16.989-63.906C706.037,636.843,684.3,522.208,684.3,522.208c-5.929-31.53-11.577-53.741-11.577-53.741-3.011-10.165,6.965-12.612,6.965-12.612,11.483-2.259,12.8,6.023,12.8,6.023,4.33,19.765,13.365,55.342,13.365,55.342,8.847,40.47,18.447,74.917,18.447,74.917,15.247,59.483,31.812,116.141,31.812,116.141a206.15,206.15,0,0,0,6.964,20.706c6.024,17.13,21.083,10.73,21.083,10.73,23.717-8.094,57.035-18.447,57.035-18.447,11.294-3.389,43.294-18.071,43.294-18.071,28.424-13.741,35.012-34.447,35.012-34.447,6.023-21.082,6.023-48.753,6.023-48.753.565-16-4.329-66.635-4.329-66.635-2.823-34.824-13.176-59.859-13.176-59.859-8.1-17.882-16-25.977-16-25.977-7.53-7.717-19.2-12.047-19.2-12.047-12.989-3.953-24.659-7.529-24.659-7.529-25.6-8.282-28.612-18.824-28.612-18.824-12.988-28.047-35.012-82.823-35.012-82.823-8.47-24.471-22.588-52.894-22.588-52.894a102.079,102.079,0,0,0-11.859-16.941c-7.153-7.718-2.447-14.118-2.447-14.118,6.4-7.529-2.07-16.565-2.07-16.565-15.059-15.059-23.53-23.153-23.53-23.153-21.082-20.706-20.894-53.082-20.894-53.082a306.067,306.067,0,0,0-6.965-50.071c-5.647-29.176-33.129-24.847-33.129-24.847-22.4,3.389-31.812,7.341-31.812,7.341-12.8,4.142-9.223,25.977-9.223,25.977,3.764,18.447,18.07,80.941,18.07,80.941,5.835,29.365,45.93,202.541,45.93,202.541,6.494,28.33-10.071,29.459-10.071,29.459-14.118.659-13.647-8.4-13.647-8.4a36.1,36.1,0,0,1,1.882-14.282c3.2-7.153-.188-14.941-.188-14.941a95.157,95.157,0,0,0-4.329-9.342c-12.518-21.553-20.047-78.023-20.047-78.023-8.1-46.4-30.4-118.118-30.4-118.118-13.271-41.223-19.2-68.047-19.2-68.047-3.859-18.07-20.706-12.235-20.706-12.235-11.671,3.388-29.365,7.812-29.365,7.812-34.635,7.153-48.941.564-48.941.564-17.883-7.717-82.824-47.67-82.824-47.67-22.447-14.541-20.611-28.659-20.611-28.659.423-20.471-.283-23.435-.283-23.435C383.308,7.2,364.814,4.372,364.814,4.372,347.025,1.831,337,13.125,337,13.125c-10.871,9.177-26.824,22.447-26.824,22.447-20.894,15.389-30.635,10.165-30.635,10.165-14.259-5.647-49.129-21.459-49.129-21.459C182.555,2.961,155.308,5.361,155.308,5.361,136.39,6.067,96.3,17.5,96.3,17.5c-9.365,2.4-24.8,13.882-24.8,13.882C51.919,46.255,10.884,80.89,10.884,80.89-.316,90.3,5.519,96.655,5.519,96.655,19.355,113.831,92.39,199.29,92.39,199.29c49.318,49.13,92.8,92.612,92.8,92.612,6.4,6.118,14.212,14.023,14.212,14.023,17.882,18.824,15.153,33.224,15.153,33.224-5.459,30.776-16.094,85.741-16.094,85.741-3.765,15.624,8.188,17.506,8.188,17.506,15.718,3.576,75.294,16,75.294,16,21.741,5.082,47.435,14.965,47.435,14.965,11.012,4.517,23.577,16.094,23.577,16.094,17.647,18.212,67.482,69.035,67.482,69.035,19.906,21.318,24.847,34.73,24.847,34.73,12.565,28.517,18.212,40.658,18.212,40.658,9.6,22.024,8.188,38.824,8.188,38.824.565,38.541,1.271,49.412,1.271,49.412.847,20.047-11.294,54.211-11.294,54.211a528.59,528.59,0,0,0-18.636,61.412c-12.988,52.941,2.259,97.13,2.259,97.13,14.541,48.705,39.812,60.282,39.812,60.282,12.941,6.965,17.647-7.247,17.647-7.247,11.106-24,53.459-88.565,53.459-88.565,37.741-57.223,69.082-87.435,69.082-87.435,25.271-25.13,56.612-40.659,56.612-40.659,14.541-7.906,33.882-11.718,33.882-11.718,19.059-4.658,25.13,13.553,25.13,13.553,8.47,23.577,29.506,81.036,29.506,81.036C799.778,930.067,816.3,976.231,816.3,976.231c11.859,32.189,30.071,99.953,30.071,99.953,6.211,26.541,13.835,69.741,13.835,69.741.706,4.1,1.976,12.989,1.976,12.989,1.553,9.741,9.036,8.611,9.036,8.611,7.482-.282,8.329-.282,8.329-.282,7.059-.565,5.506-6.918,5.506-6.918-1.412-14.258-9.177-56.47-9.177-56.47C867.33,1057.421,842.247,981.045,841.046,977.4Z"/><path id="a2c1e681-8ce2-410a-937a-3601839114bb" data-name="pit inner" class="9467e4f2-43a4-4db1-9138-ee8abffc4c5c" d="M815.9,898.69A26.078,26.078,0,0,0,829.025,913.8s5.647,1.835,8.33,9.741c0,0,3.812,11.506,8.259,25.2,0,0,9.247,27.53,14.611,43.624,0,0,3.745,10.447,3.153,17.717-.863,10.612-6.033,19.819-4.776,24.259l1.994,7.135"/><path id="84c1022e-8ec2-4ac0-9a36-739f6ede3d86" data-name="inner" class="2bb03a94-c97d-4fe9-bc51-6595d6d1c925" d="M841.046,977.4c-.03-.092-.055-.179-.079-.273-6.28-24.723-33.848-104.239-33.848-104.239-15.811-49.412-26.258-79.341-26.258-79.341-3.812-11.577-10.447-33.035-10.447-33.035C767.449,751.2,753.19,749.5,753.19,749.5c-18.071-2.682-21.882-16.659-21.882-16.659-3.624-12.894-16.989-63.906-16.989-63.906C706.037,636.843,684.3,522.208,684.3,522.208c-5.929-31.53-11.577-53.741-11.577-53.741-3.011-10.165,6.965-12.612,6.965-12.612,11.483-2.259,12.8,6.023,12.8,6.023,4.33,19.765,13.365,55.342,13.365,55.342,8.847,40.47,18.447,74.917,18.447,74.917,15.247,59.483,31.812,116.141,31.812,116.141a206.15,206.15,0,0,0,6.964,20.706c6.024,17.13,21.083,10.73,21.083,10.73,23.717-8.094,57.035-18.447,57.035-18.447,11.294-3.389,43.294-18.071,43.294-18.071,28.424-13.741,35.012-34.447,35.012-34.447,6.023-21.082,6.023-48.753,6.023-48.753.565-16-4.329-66.635-4.329-66.635-2.823-34.824-13.176-59.859-13.176-59.859-8.1-17.882-16-25.977-16-25.977-7.53-7.717-19.2-12.047-19.2-12.047-12.989-3.953-24.659-7.529-24.659-7.529-25.6-8.282-28.612-18.824-28.612-18.824-12.988-28.047-35.012-82.823-35.012-82.823-8.47-24.471-22.588-52.894-22.588-52.894a102.079,102.079,0,0,0-11.859-16.941c-7.153-7.718-2.447-14.118-2.447-14.118,6.4-7.529-2.07-16.565-2.07-16.565-15.059-15.059-23.53-23.153-23.53-23.153-21.082-20.706-20.894-53.082-20.894-53.082a306.067,306.067,0,0,0-6.965-50.071c-5.647-29.176-33.129-24.847-33.129-24.847-22.4,3.389-31.812,7.341-31.812,7.341-12.8,4.142-9.223,25.977-9.223,25.977,3.764,18.447,18.07,80.941,18.07,80.941,5.835,29.365,45.93,202.541,45.93,202.541,6.494,28.33-10.071,29.459-10.071,29.459-14.118.659-13.647-8.4-13.647-8.4a36.1,36.1,0,0,1,1.882-14.282c3.2-7.153-.188-14.941-.188-14.941a95.157,95.157,0,0,0-4.329-9.342c-12.518-21.553-20.047-78.023-20.047-78.023-8.1-46.4-30.4-118.118-30.4-118.118-13.271-41.223-19.2-68.047-19.2-68.047-3.859-18.07-20.706-12.235-20.706-12.235-11.671,3.388-29.365,7.812-29.365,7.812-34.635,7.153-48.941.564-48.941.564-17.883-7.717-82.824-47.67-82.824-47.67-22.447-14.541-20.611-28.659-20.611-28.659.423-20.471-.283-23.435-.283-23.435C383.308,7.2,364.814,4.372,364.814,4.372,347.025,1.831,337,13.125,337,13.125c-10.871,9.177-26.824,22.447-26.824,22.447-20.894,15.389-30.635,10.165-30.635,10.165-14.259-5.647-49.129-21.459-49.129-21.459C182.555,2.961,155.308,5.361,155.308,5.361,136.39,6.067,96.3,17.5,96.3,17.5c-9.365,2.4-24.8,13.882-24.8,13.882C51.919,46.255,10.884,80.89,10.884,80.89-.316,90.3,5.519,96.655,5.519,96.655,19.355,113.831,92.39,199.29,92.39,199.29c49.318,49.13,92.8,92.612,92.8,92.612,6.4,6.118,14.212,14.023,14.212,14.023,17.882,18.824,15.153,33.224,15.153,33.224-5.459,30.776-16.094,85.741-16.094,85.741-3.765,15.624,8.188,17.506,8.188,17.506,15.718,3.576,75.294,16,75.294,16,21.741,5.082,47.435,14.965,47.435,14.965,11.012,4.517,23.577,16.094,23.577,16.094,17.647,18.212,67.482,69.035,67.482,69.035,19.906,21.318,24.847,34.73,24.847,34.73,12.565,28.517,18.212,40.658,18.212,40.658,9.6,22.024,8.188,38.824,8.188,38.824.565,38.541,1.271,49.412,1.271,49.412.847,20.047-11.294,54.211-11.294,54.211a528.59,528.59,0,0,0-18.636,61.412c-12.988,52.941,2.259,97.13,2.259,97.13,14.541,48.705,39.812,60.282,39.812,60.282,12.941,6.965,17.647-7.247,17.647-7.247,11.106-24,53.459-88.565,53.459-88.565,37.741-57.223,69.082-87.435,69.082-87.435,25.271-25.13,56.612-40.659,56.612-40.659,14.541-7.906,33.882-11.718,33.882-11.718,19.059-4.658,25.13,13.553,25.13,13.553,8.47,23.577,29.506,81.036,29.506,81.036C799.778,930.067,816.3,976.231,816.3,976.231c11.859,32.189,30.071,99.953,30.071,99.953,6.211,26.541,13.835,69.741,13.835,69.741.706,4.1,1.976,12.989,1.976,12.989,1.553,9.741,9.036,8.611,9.036,8.611,7.482-.282,8.329-.282,8.329-.282,7.059-.565,5.506-6.918,5.506-6.918-1.412-14.258-9.177-56.47-9.177-56.47C867.33,1057.421,842.247,981.045,841.046,977.4Z"/><use width="200" height="103.617" transform="translate(806.962 901.871) rotate(-18.783) scale(0.097)" xlink:href="#56c664c6-2861-4b74-bd10-b88024b4f42d"/></g></g></g></svg>