<svg xmlns="http://www.w3.org/2000/svg" xmlns:xlink="http://www.w3.org/1999/xlink" width="1422.194" height="681.7" viewBox="0 0 1422.194 681.7"><defs><style>.\32 78ed745-0623-48a2-850c-7c8eb4eb30de{fill:#00ff24;}.\32 78ed745-0623-48a2-850c-7c8eb4eb30de,.e84caec3-cb50-47b1-bedd-ab55ea8869dd{stroke:#000;stroke-width:5px;}.\30 677d164-31e3-4166-b23a-6ff61d20e4c7,.\31 3858778-82de-4dfb-a74c-d1f92159aac3,.\32 78ed745-0623-48a2-850c-7c8eb4eb30de,.\35 8687418-fb73-41d7-844a-c649b812c419,.\36 c6ddc66-befd-45f9-9a39-5afa37e5d4df,.c750962d-2f7e-46be-9a6e-c1d27d963cc3,.e84caec3-cb50-47b1-bedd-ab55ea8869dd{stroke-miterlimit:10;}.e84caec3-cb50-47b1-bedd-ab55ea8869dd{fill:#fff;}.\30 677d164-31e3-4166-b23a-6ff61d20e4c7,.\31 3858778-82de-4dfb-a74c-d1f92159aac3,.\35 8687418-fb73-41d7-844a-c649b812c419,.\36 c6ddc66-befd-45f9-9a39-5afa37e5d4df,.c750962d-2f7e-46be-9a6e-c1d27d963cc3{fill:none;}.\35 8687418-fb73-41d7-844a-c649b812c419,.\36 c6ddc66-befd-45f9-9a39-5afa37e5d4df{stroke:#c91c1c;}.\30 677d164-31e3-4166-b23a-6ff61d20e4c7,.\35 8687418-fb73-41d7-844a-c649b812c419{stroke-width:8px;}.\30 677d164-31e3-4166-b23a-6ff61d20e4c7,.\31 3858778-82de-4dfb-a74c-d1f92159aac3{stroke:#0080ff;}.c750962d-2f7e-46be-9a6e-c1d27d963cc3{stroke:#fff;stroke-width:4px;}</style><symbol id="517bb263-6a03-4f00-8d4b-1382839030d3" data-name="start finish line" viewBox="0 0 200 103.617"><rect class="278ed745-0623-48a2-850c-7c8eb4eb30de" x="2.5" y="2.5" width="195" height="47.043"/><rect class="e84caec3-cb50-47b1-bedd-ab55ea8869dd" x="2.5" y="52.367" width="48.75" height="48.75"/><rect class="e84caec3-cb50-47b1-bedd-ab55ea8869dd" x="51.25" y="52.367" width="48.75" height="48.75"/><rect class="e84caec3-cb50-47b1-bedd-ab55ea8869dd" x="100" y="52.367" width="48.75" height="48.75"/><rect class="e84caec3-cb50-47b1-bedd-ab55ea8869dd" x="148.75" y="52.367" width="48.75" height="48.75"/></symbol></defs><title>WW_El_Gordo</title><g id="e3ee37f0-4497-4c73-930c-df2b2da62889" data-name="Layer 2"><g id="68d85388-f7f8-48fe-a919-3dd39a16d0cb" data-name="Grapeseed"><g id="27dfc8e1-a464-4705-8ed0-7b9010b8e244" data-name="WW_El_Gordo"><path id="5c47eecb-b6d4-4faf-90c1-e7220bcc65ea" data-name="pit outer" class="58687418-fb73-41d7-844a-c649b812c419" d="M914.837,29.069s-.218-.135-1.106.788c0,0-3.665,3.547-5.5,5.5,0,0-4.565,4.73-8.518,6.141,0,0-7.953,2.777-5.411,11.3A113.131,113.131,0,0,0,898.96,65.5s11.859,32.377,14.5,43.389c0,0,5.176,21.082,8.658,42.823,0,0,2.918,15.718-9.223,18.918,0,0-12.235,3.67-16.565-12.33,0,0-7.717-27.011-15.812-54.87,0,0-7.905-31.53-12.282-44.33,0,0-4.518-17.011-17.6-13.529,0,0-8.376,2.165-14.588,3.718"/><path id="20f4aff8-7913-4122-96d2-9e0f9c1b19cf" data-name="outer" class="0677d164-31e3-4166-b23a-6ff61d20e4c7" d="M988.3,579.357c4.941,24.283,22.447,85.271,22.447,85.271,5.082,18.07,22.306,12.141,22.306,12.141,21.741-4.8,78.776-23.435,78.776-23.435,25.977-9.6,56.471-23.436,56.471-23.436,37.553-22.588,36.706-65.788,36.706-65.788.847-40.094-7.059-102.212-7.059-102.212-5.93-54.211-31.906-70.87-31.906-70.87C1151.36,381.146,1134.7,378.6,1134.7,378.6c-6.345-1.086-24.331-6.073-31.342-16.235-15.388-22.306-25.835-56.047-25.835-56.047-9.176-24.988-26.259-63.529-26.259-63.529-8.047-22.447-19.764-36.283-19.764-36.283-9.459-11.859-20.33.424-20.33.424-13.553,13.694-54.776,55.341-54.776,55.341-23.577,24-230.683,230.682-230.683,230.682-9.882,10.73-18.07,2.189-18.07,2.189-12.141-12.353-30.353-30.989-30.353-30.989-15.812-15.811-30.777-50.259-30.777-50.259-7.341-15.811-15.247-40.376-15.247-40.376-7.058-28.8-44.611-39.529-44.611-39.529-33.318-9.318-45.742-12.706-45.742-12.706-10.447-2.683-16.8-4.518-16.8-4.518-13.27-3.953-40.941-32.753-40.941-32.753C448.725,249.428,369.1,169.381,369.1,169.381,352.3,153,335.643,133.24,335.643,133.24a37.944,37.944,0,0,0-16.8-11.436c-10.306-2.964-11.012-23.858-11.012-23.858-.141-5.93-.141-20.471-.141-20.471,1.553-25.553-14.4-44.612-14.4-44.612A123.038,123.038,0,0,0,268.819,8.157C254.7.063,227.784,14.746,227.784,14.746,214.419,23.216,177.9,54.275,177.9,54.275c-48,37.835-65.318,55.153-65.318,55.153-22.588,22.776-38.4,38.4-38.4,38.4a113.672,113.672,0,0,1-31.247,21.647c-24.094,12.047-28.8,18.823-28.8,18.823-12.988,16.753-9.788,43.483-9.788,43.483,3.388,26.541,6.4,50.447,6.4,50.447,2.259,19.2,4.141,43.106,4.141,43.106,1.318,28.612,6.212,41.035,6.212,41.035C29.76,389.146,30.89,391.4,30.89,391.4a65.931,65.931,0,0,1,3.765,28.989c-2.636,36.894.941,46.305.941,46.305.753,3.953,12.047,17.506,12.047,17.506,18.259,18.259,32,32.753,32,32.753A44.9,44.9,0,0,0,113.9,529.193c24.8-1.93,87.058-11.247,87.058-11.247,17.083-2.259,54.212-10.165,54.212-10.165a168.252,168.252,0,0,0,46.306-18.494c17.224-11.294,53.93-49.977,53.93-49.977l63.811-63.953c17.789-17.788,38.683-12.141,38.683-12.141,1.835.565,5.929,1.553,5.929,1.553,12.847,3.388,14.118-10.871,14.118-10.871,3.67-17.929,9.459-45.6,9.459-45.6,6.352-34.164,6.211-43.341,6.211-43.341.283-18.776-17.082-33.6-17.082-33.6-12.141-10.306,0-22.588,0-22.588C496.3,188.3,549.1,136.91,549.1,136.91l94.447-94.164c8.894-8.753,22.87-28.8,22.87-28.8,1.271-1.7,3.389-4.8,3.389-4.8,6.776-9.6,15.529-2.824,15.529-2.824C693.384,11.4,736.3,36.11,736.3,36.11c9.458,5.365,20.753,11.718,20.753,11.718,28.517,15.106,54.917,7.623,54.917,7.623,18.918-4.8,92.894-23.858,92.894-23.858,1.836-.283,26.683-7.059,26.683-7.059,35.294-7.483,40.094,17.506,40.094,17.506,3.812,15.953,5.929,33.458,5.929,33.458,2.259,21.742,4.8,35.436,4.8,35.436,5.083,28.517,22.165,43.059,22.165,43.059,10.447,10.87,21.035,20.894,21.035,20.894,9.459,10.306,20.471-1.977,20.471-1.977,9.882-10.306,32.329-32.47,32.329-32.47,4.283-4.377,16.988-17.365,16.988-17.365,18.918-18.635,52.989-18.729,52.989-18.729,17.788-1.318,50.447-4.706,50.447-4.706,19.764-1.412,48.564.141,48.564.141,28.236,2.4,65.506,3.67,65.506,3.67,8.824.212,31.694.283,31.694.283,16.1-.141,33.906,3.812,33.906,3.812,10.071,2.117,27.012,5.364,27.012,5.364,13.553,2.824,12.706-11.294,12.706-11.294.565-19.482-29.929-21.459-29.929-21.459-19.2-1.976-88.283-.659-88.283-.659-17.506.377-53.082-3.011-53.082-3.011"/><path id="bdaf31ff-78f9-40b2-beae-1f813ce539b7" data-name="pit white" class="c750962d-2f7e-46be-9a6e-c1d27d963cc3" d="M914.837,29.069s-.218-.135-1.106.788c0,0-3.665,3.547-5.5,5.5,0,0-4.565,4.73-8.518,6.141,0,0-7.953,2.777-5.411,11.3A113.131,113.131,0,0,0,898.96,65.5s11.859,32.377,14.5,43.389c0,0,5.176,21.082,8.658,42.823,0,0,2.918,15.718-9.223,18.918,0,0-12.235,3.67-16.565-12.33,0,0-7.717-27.011-15.812-54.87,0,0-7.905-31.53-12.282-44.33,0,0-4.518-17.011-17.6-13.529,0,0-8.376,2.165-14.588,3.718"/><path id="107d7a0c-ef94-4fe3-a78d-5f4d453c03bd" data-name="white" class="c750962d-2f7e-46be-9a6e-c1d27d963cc3" d="M988.3,579.357c4.941,24.283,22.447,85.271,22.447,85.271,5.082,18.07,22.306,12.141,22.306,12.141,21.741-4.8,78.776-23.435,78.776-23.435,25.977-9.6,56.471-23.436,56.471-23.436,37.553-22.588,36.706-65.788,36.706-65.788.847-40.094-7.059-102.212-7.059-102.212-5.93-54.211-31.906-70.87-31.906-70.87C1151.36,381.146,1134.7,378.6,1134.7,378.6c-6.345-1.086-24.331-6.073-31.342-16.235-15.388-22.306-25.835-56.047-25.835-56.047-9.176-24.988-26.259-63.529-26.259-63.529-8.047-22.447-19.764-36.283-19.764-36.283-9.459-11.859-20.33.424-20.33.424-13.553,13.694-54.776,55.341-54.776,55.341-23.577,24-230.683,230.682-230.683,230.682-9.882,10.73-18.07,2.189-18.07,2.189-12.141-12.353-30.353-30.989-30.353-30.989-15.812-15.811-30.777-50.259-30.777-50.259-7.341-15.811-15.247-40.376-15.247-40.376-7.058-28.8-44.611-39.529-44.611-39.529-33.318-9.318-45.742-12.706-45.742-12.706-10.447-2.683-16.8-4.518-16.8-4.518-13.27-3.953-40.941-32.753-40.941-32.753C448.725,249.428,369.1,169.381,369.1,169.381,352.3,153,335.643,133.24,335.643,133.24a37.944,37.944,0,0,0-16.8-11.436c-10.306-2.964-11.012-23.858-11.012-23.858-.141-5.93-.141-20.471-.141-20.471,1.553-25.553-14.4-44.612-14.4-44.612A123.038,123.038,0,0,0,268.819,8.157C254.7.063,227.784,14.746,227.784,14.746,214.419,23.216,177.9,54.275,177.9,54.275c-48,37.835-65.318,55.153-65.318,55.153-22.588,22.776-38.4,38.4-38.4,38.4a113.672,113.672,0,0,1-31.247,21.647c-24.094,12.047-28.8,18.823-28.8,18.823-12.988,16.753-9.788,43.483-9.788,43.483,3.388,26.541,6.4,50.447,6.4,50.447,2.259,19.2,4.141,43.106,4.141,43.106,1.318,28.612,6.212,41.035,6.212,41.035C29.76,389.146,30.89,391.4,30.89,391.4a65.931,65.931,0,0,1,3.765,28.989c-2.636,36.894.941,46.305.941,46.305.753,3.953,12.047,17.506,12.047,17.506,18.259,18.259,32,32.753,32,32.753A44.9,44.9,0,0,0,113.9,529.193c24.8-1.93,87.058-11.247,87.058-11.247,17.083-2.259,54.212-10.165,54.212-10.165a168.252,168.252,0,0,0,46.306-18.494c17.224-11.294,53.93-49.977,53.93-49.977l63.811-63.953c17.789-17.788,38.683-12.141,38.683-12.141,1.835.565,5.929,1.553,5.929,1.553,12.847,3.388,14.118-10.871,14.118-10.871,3.67-17.929,9.459-45.6,9.459-45.6,6.352-34.164,6.211-43.341,6.211-43.341.283-18.776-17.082-33.6-17.082-33.6-12.141-10.306,0-22.588,0-22.588C496.3,188.3,549.1,136.91,549.1,136.91l94.447-94.164c8.894-8.753,22.87-28.8,22.87-28.8,1.271-1.7,3.389-4.8,3.389-4.8,6.776-9.6,15.529-2.824,15.529-2.824C693.384,11.4,736.3,36.11,736.3,36.11c9.458,5.365,20.753,11.718,20.753,11.718,28.517,15.106,54.917,7.623,54.917,7.623,18.918-4.8,92.894-23.858,92.894-23.858,1.836-.283,26.683-7.059,26.683-7.059,35.294-7.483,40.094,17.506,40.094,17.506,3.812,15.953,5.929,33.458,5.929,33.458,2.259,21.742,4.8,35.436,4.8,35.436,5.083,28.517,22.165,43.059,22.165,43.059,10.447,10.87,21.035,20.894,21.035,20.894,9.459,10.306,20.471-1.977,20.471-1.977,9.882-10.306,32.329-32.47,32.329-32.47,4.283-4.377,16.988-17.365,16.988-17.365,18.918-18.635,52.989-18.729,52.989-18.729,17.788-1.318,50.447-4.706,50.447-4.706,19.764-1.412,48.564.141,48.564.141,28.236,2.4,65.506,3.67,65.506,3.67,8.824.212,31.694.283,31.694.283,16.1-.141,33.906,3.812,33.906,3.812,10.071,2.117,27.012,5.364,27.012,5.364,13.553,2.824,12.706-11.294,12.706-11.294.565-19.482-29.929-21.459-29.929-21.459-19.2-1.976-88.283-.659-88.283-.659-17.506.377-53.082-3.011-53.082-3.011"/><path id="228c0429-b6af-4c4d-bdaf-fdb16b1d97dd" data-name="pit inner" class="6c6ddc66-befd-45f9-9a39-5afa37e5d4df" d="M914.837,29.069s-.218-.135-1.106.788c0,0-3.665,3.547-5.5,5.5,0,0-4.565,4.73-8.518,6.141,0,0-7.953,2.777-5.411,11.3A113.131,113.131,0,0,0,898.96,65.5s11.859,32.377,14.5,43.389c0,0,5.176,21.082,8.658,42.823,0,0,2.918,15.718-9.223,18.918,0,0-12.235,3.67-16.565-12.33,0,0-7.717-27.011-15.812-54.87,0,0-7.905-31.53-12.282-44.33,0,0-4.518-17.011-17.6-13.529,0,0-8.376,2.165-14.588,3.718"/><path id="351bd54b-05fe-4c26-b8d6-8ace85e3320b" data-name="inner" class="13858778-82de-4dfb-a74c-d1f92159aac3" d="M988.3,579.357c4.941,24.283,22.447,85.271,22.447,85.271,5.082,18.07,22.306,12.141,22.306,12.141,21.741-4.8,78.776-23.435,78.776-23.435,25.977-9.6,56.471-23.436,56.471-23.436,37.553-22.588,36.706-65.788,36.706-65.788.847-40.094-7.059-102.212-7.059-102.212-5.93-54.211-31.906-70.87-31.906-70.87C1151.36,381.146,1134.7,378.6,1134.7,378.6c-6.345-1.086-24.331-6.073-31.342-16.235-15.388-22.306-25.835-56.047-25.835-56.047-9.176-24.988-26.259-63.529-26.259-63.529-8.047-22.447-19.764-36.283-19.764-36.283-9.459-11.859-20.33.424-20.33.424-13.553,13.694-54.776,55.341-54.776,55.341-23.577,24-230.683,230.682-230.683,230.682-9.882,10.73-18.07,2.189-18.07,2.189-12.141-12.353-30.353-30.989-30.353-30.989-15.812-15.811-30.777-50.259-30.777-50.259-7.341-15.811-15.247-40.376-15.247-40.376-7.058-28.8-44.611-39.529-44.611-39.529-33.318-9.318-45.742-12.706-45.742-12.706-10.447-2.683-16.8-4.518-16.8-4.518-13.27-3.953-40.941-32.753-40.941-32.753C448.725,249.428,369.1,169.381,369.1,169.381,352.3,153,335.643,133.24,335.643,133.24a37.944,37.944,0,0,0-16.8-11.436c-10.306-2.964-11.012-23.858-11.012-23.858-.141-5.93-.141-20.471-.141-20.471,1.553-25.553-14.4-44.612-14.4-44.612A123.038,123.038,0,0,0,268.819,8.157C254.7.063,227.784,14.746,227.784,14.746,214.419,23.216,177.9,54.275,177.9,54.275c-48,37.835-65.318,55.153-65.318,55.153-22.588,22.776-38.4,38.4-38.4,38.4a113.672,113.672,0,0,1-31.247,21.647c-24.094,12.047-28.8,18.823-28.8,18.823-12.988,16.753-9.788,43.483-9.788,43.483,3.388,26.541,6.4,50.447,6.4,50.447,2.259,19.2,4.141,43.106,4.141,43.106,1.318,28.612,6.212,41.035,6.212,41.035C29.76,389.146,30.89,391.4,30.89,391.4a65.931,65.931,0,0,1,3.765,28.989c-2.636,36.894.941,46.305.941,46.305.753,3.953,12.047,17.506,12.047,17.506,18.259,18.259,32,32.753,32,32.753A44.9,44.9,0,0,0,113.9,529.193c24.8-1.93,87.058-11.247,87.058-11.247,17.083-2.259,54.212-10.165,54.212-10.165a168.252,168.252,0,0,0,46.306-18.494c17.224-11.294,53.93-49.977,53.93-49.977l63.811-63.953c17.789-17.788,38.683-12.141,38.683-12.141,1.835.565,5.929,1.553,5.929,1.553,12.847,3.388,14.118-10.871,14.118-10.871,3.67-17.929,9.459-45.6,9.459-45.6,6.352-34.164,6.211-43.341,6.211-43.341.283-18.776-17.082-33.6-17.082-33.6-12.141-10.306,0-22.588,0-22.588C496.3,188.3,549.1,136.91,549.1,136.91l94.447-94.164c8.894-8.753,22.87-28.8,22.87-28.8,1.271-1.7,3.389-4.8,3.389-4.8,6.776-9.6,15.529-2.824,15.529-2.824C693.384,11.4,736.3,36.11,736.3,36.11c9.458,5.365,20.753,11.718,20.753,11.718,28.517,15.106,54.917,7.623,54.917,7.623,18.918-4.8,92.894-23.858,92.894-23.858,1.836-.283,26.683-7.059,26.683-7.059,35.294-7.483,40.094,17.506,40.094,17.506,3.812,15.953,5.929,33.458,5.929,33.458,2.259,21.742,4.8,35.436,4.8,35.436,5.083,28.517,22.165,43.059,22.165,43.059,10.447,10.87,21.035,20.894,21.035,20.894,9.459,10.306,20.471-1.977,20.471-1.977,9.882-10.306,32.329-32.47,32.329-32.47,4.283-4.377,16.988-17.365,16.988-17.365,18.918-18.635,52.989-18.729,52.989-18.729,17.788-1.318,50.447-4.706,50.447-4.706,19.764-1.412,48.564.141,48.564.141,28.236,2.4,65.506,3.67,65.506,3.67,8.824.212,31.694.283,31.694.283,16.1-.141,33.906,3.812,33.906,3.812,10.071,2.117,27.012,5.364,27.012,5.364,13.553,2.824,12.706-11.294,12.706-11.294.565-19.482-29.929-21.459-29.929-21.459-19.2-1.976-88.283-.659-88.283-.659-17.506.377-53.082-3.011-53.082-3.011"/><path id="9ac95eb8-b7cb-42eb-8b32-5e8dc5b65051" data-name="overpass outer" class="0677d164-31e3-4166-b23a-6ff61d20e4c7" d="M988.513,580.487s-3.2-18.706-4.894-27.365c0,0-24.659-118.212-30.87-145.129,0,0-31.153-110.589,18.823-161.271,0,0,8.33-8.471,12.706-12.988,0,0,15.953-16.8,36.8-37.13,0,0,67.882-69.576,74.73-75.294s68.635-49.2,119.647-46.941c0,0,20.358,1.093,24.682,1.529,2.8.283,12.706,1.083,12.706,1.083"/><path id="731ec34b-4eee-4266-8bb6-df16c467cab0" data-name="overpass white" class="c750962d-2f7e-46be-9a6e-c1d27d963cc3" d="M1252.9,77.034s-9.965-.853-12.765-1.136c-4.324-.436-24.682-1.529-24.682-1.529-51.012-2.259-112.8,41.224-119.647,46.941s-74.73,75.294-74.73,75.294c-20.847,20.33-36.8,37.13-36.8,37.13-4.376,4.517-12.706,12.988-12.706,12.988C921.6,297.4,952.749,407.993,952.749,407.993c6.211,26.917,30.87,145.129,30.87,145.129,1.694,8.659,4.921,27.382,4.921,27.382"/><path id="5d23988f-5531-4ebd-8a7d-f57237ba9127" data-name="overpass inner" class="13858778-82de-4dfb-a74c-d1f92159aac3" d="M1252.99,77.034s-10-.847-12.8-1.13c-4.324-.436-24.682-1.529-24.682-1.529-51.012-2.259-112.8,41.223-119.648,46.941s-74.729,75.294-74.729,75.294c-20.847,20.33-36.8,37.13-36.8,37.13-4.376,4.517-12.706,12.988-12.706,12.988C921.649,297.41,952.8,408,952.8,408c6.211,26.918,30.87,145.13,30.87,145.13,1.694,8.659,4.868,27.394,4.868,27.394"/><line id="efecbf20-44d6-4cfa-aa3c-3f9fbef36e80" data-name="crossover outer" class="0677d164-31e3-4166-b23a-6ff61d20e4c7" x1="488.749" y1="300.922" x2="492.031" y2="280.522"/><line id="222574e1-f534-4451-beb2-5fa011f1770b" data-name="crossover whit" class="c750962d-2f7e-46be-9a6e-c1d27d963cc3" x1="488.749" y1="300.94" x2="492.04" y2="280.496"/><line id="3c696b69-134f-4b35-aa57-b5421cc9fc13" data-name="crossover inner" class="13858778-82de-4dfb-a74c-d1f92159aac3" x1="492.04" y1="280.478" x2="488.74" y2="300.984"/><use width="200" height="103.617" transform="matrix(-0.08, 0.015, -0.015, -0.08, 992.736, 558.445)" xlink:href="#517bb263-6a03-4f00-8d4b-1382839030d3"/></g></g></g></svg>