<?xml version="1.0" encoding="UTF-8" standalone="no"?>
<svg
   xmlns:dc="http://purl.org/dc/elements/1.1/"
   xmlns:cc="http://creativecommons.org/ns#"
   xmlns:rdf="http://www.w3.org/1999/02/22-rdf-syntax-ns#"
   xmlns:svg="http://www.w3.org/2000/svg"
   xmlns="http://www.w3.org/2000/svg"
   id="svg8"
   version="1.1"
   viewBox="0 0 76.894531 23.554117"
   height="23.554117mm"
   width="76.894531mm">
  <defs
     id="defs2" />
  <metadata
     id="metadata5">
    <rdf:RDF>
      <cc:Work
         rdf:about="">
        <dc:format>image/svg+xml</dc:format>
        <dc:type
           rdf:resource="http://purl.org/dc/dcmitype/StillImage" />
        <dc:title></dc:title>
      </cc:Work>
    </rdf:RDF>
  </metadata>
  <g
     transform="translate(-74.768502,-98.3072)"
     id="layer1">
    <g
       id="text12"
       style="font-style:normal;font-variant:normal;font-weight:bold;font-stretch:normal;font-size:10.58333302px;line-height:1.25;font-family:sans-serif;-inkscape-font-specification:'sans-serif Bold';text-align:center;letter-spacing:0px;word-spacing:0px;text-anchor:middle;fill:#7f2aff;fill-opacity:1;stroke:none;stroke-width:0.26458332"
       aria-label="Track Map
Coming Soon">
      <path
         id="path14"
         style="font-style:normal;font-variant:normal;font-weight:bold;font-stretch:normal;font-family:sans-serif;-inkscape-font-specification:'sans-serif Bold';text-align:center;text-anchor:middle;fill:#7f2aff;stroke-width:0.26458332"
         d="m 83.057402,98.632762 h 7.110677 v 1.503788 h -2.557984 v 6.2115 h -1.989542 v -6.2115 h -2.563151 z" />
      <path
         id="path16"
         style="font-style:normal;font-variant:normal;font-weight:bold;font-stretch:normal;font-family:sans-serif;-inkscape-font-specification:'sans-serif Bold';text-align:center;text-anchor:middle;fill:#7f2aff;stroke-width:0.26458332"
         d="m 94.250517,102.13642 q -0.24288,-0.11368 -0.485759,-0.16536 -0.237711,-0.0568 -0.480591,-0.0568 -0.713134,0 -1.100708,0.45992 -0.382405,0.45475 -0.382405,1.30741 v 2.6665 h -1.850016 v -5.78776 h 1.850016 v 0.95085 q 0.356567,-0.56844 0.816487,-0.82682 0.465088,-0.26355 1.111044,-0.26355 0.09302,0 0.201538,0.0103 0.10852,0.005 0.315226,0.031 z" />
      <path
         id="path18"
         style="font-style:normal;font-variant:normal;font-weight:bold;font-stretch:normal;font-family:sans-serif;-inkscape-font-specification:'sans-serif Bold';text-align:center;text-anchor:middle;fill:#7f2aff;stroke-width:0.26458332"
         d="m 97.77485,103.74356 q -0.578776,0 -0.873332,0.19637 -0.289388,0.19637 -0.289388,0.57878 0,0.3514 0.232544,0.55294 0.237712,0.19637 0.656291,0.19637 0.521932,0 0.878499,-0.37207 0.356567,-0.37724 0.356567,-0.94052 v -0.21187 z m 2.8267,-0.69763 v 3.30212 h -1.865519 v -0.85783 q -0.37207,0.5271 -0.837158,0.76998 -0.465088,0.23771 -1.131714,0.23771 -0.89917,0 -1.462443,-0.52193 -0.558105,-0.5271 -0.558105,-1.36426 0,-1.01802 0.697632,-1.49344 0.702799,-0.47543 2.201416,-0.47543 h 1.090372 v -0.14469 q 0,-0.43925 -0.346232,-0.64079 -0.346232,-0.2067 -1.080037,-0.2067 -0.594279,0 -1.105876,0.11885 -0.511596,0.11886 -0.950846,0.35657 v -1.41077 q 0.594279,-0.14469 1.193725,-0.21704 0.599447,-0.0775 1.198894,-0.0775 1.565796,0 2.25826,0.62011 0.697631,0.61495 0.697631,2.00505 z" />
      <path
         id="path20"
         style="font-style:normal;font-variant:normal;font-weight:bold;font-stretch:normal;font-family:sans-serif;-inkscape-font-specification:'sans-serif Bold';text-align:center;text-anchor:middle;fill:#7f2aff;stroke-width:0.26458332"
         d="m 107.00943,100.74116 v 1.50895 q -0.37724,-0.25838 -0.75965,-0.3824 -0.37723,-0.12403 -0.78548,-0.12403 -0.77514,0 -1.20923,0.45476 -0.42891,0.44958 -0.42891,1.2609 0,0.81132 0.42891,1.26607 0.43409,0.44959 1.20923,0.44959 0.43408,0 0.82166,-0.12919 0.39274,-0.12919 0.72347,-0.38241 v 1.51412 q -0.43408,0.1602 -0.88367,0.23771 -0.44442,0.0827 -0.894,0.0827 -1.5658,0 -2.44946,-0.80098 -0.88367,-0.80615 -0.88367,-2.23759 0,-1.43144 0.88367,-2.23242 0.88366,-0.80615 2.44946,-0.80615 0.45475,0 0.894,0.0827 0.44442,0.0775 0.88367,0.23771 z" />
      <path
         id="path22"
         style="font-style:normal;font-variant:normal;font-weight:bold;font-stretch:normal;font-family:sans-serif;-inkscape-font-specification:'sans-serif Bold';text-align:center;text-anchor:middle;fill:#7f2aff;stroke-width:0.26458332"
         d="m 108.61656,98.3072 h 1.85002 v 4.37699 l 2.12907,-2.1239 h 2.14974 l -2.8267,2.65617 3.04891,3.13159 h -2.24276 l -2.25826,-2.41329 v 2.41329 h -1.85002 z" />
      <path
         id="path24"
         style="font-style:normal;font-variant:normal;font-weight:bold;font-stretch:normal;font-family:sans-serif;-inkscape-font-specification:'sans-serif Bold';text-align:center;text-anchor:middle;fill:#7f2aff;stroke-width:0.26458332"
         d="m 119.42727,98.632762 h 2.53215 l 1.757,4.128948 1.76733,-4.128948 h 2.52698 v 7.715288 h -1.88102 v -5.64306 l -1.77767,4.15995 h -1.26091 l -1.77767,-4.15995 v 5.64306 h -1.88619 z" />
      <path
         id="path26"
         style="font-style:normal;font-variant:normal;font-weight:bold;font-stretch:normal;font-family:sans-serif;-inkscape-font-specification:'sans-serif Bold';text-align:center;text-anchor:middle;fill:#7f2aff;stroke-width:0.26458332"
         d="m 132.48074,103.74356 q -0.57878,0 -0.87333,0.19637 -0.28939,0.19637 -0.28939,0.57878 0,0.3514 0.23254,0.55294 0.23772,0.19637 0.6563,0.19637 0.52193,0 0.87849,-0.37207 0.35657,-0.37724 0.35657,-0.94052 v -0.21187 z m 2.8267,-0.69763 v 3.30212 h -1.86552 v -0.85783 q -0.37207,0.5271 -0.83716,0.76998 -0.46508,0.23771 -1.13171,0.23771 -0.89917,0 -1.46244,-0.52193 -0.55811,-0.5271 -0.55811,-1.36426 0,-1.01802 0.69763,-1.49344 0.7028,-0.47543 2.20142,-0.47543 h 1.09037 v -0.14469 q 0,-0.43925 -0.34623,-0.64079 -0.34623,-0.2067 -1.08004,-0.2067 -0.59428,0 -1.10587,0.11885 -0.5116,0.11886 -0.95085,0.35657 v -1.41077 q 0.59428,-0.14469 1.19373,-0.21704 0.59944,-0.0775 1.19889,-0.0775 1.5658,0 2.25826,0.62011 0.69763,0.61495 0.69763,2.00505 z" />
      <path
         id="path28"
         style="font-style:normal;font-variant:normal;font-weight:bold;font-stretch:normal;font-family:sans-serif;-inkscape-font-specification:'sans-serif Bold';text-align:center;text-anchor:middle;fill:#7f2aff;stroke-width:0.26458332"
         d="m 138.88862,105.51089 v 3.03858 h -1.85002 v -7.98918 h 1.85002 v 0.8475 q 0.3824,-0.50643 0.84749,-0.74414 0.46509,-0.24288 1.0697,-0.24288 1.06971,0 1.757,0.85266 0.6873,0.84749 0.6873,2.18591 0,1.33842 -0.6873,2.19108 -0.68729,0.84749 -1.757,0.84749 -0.60461,0 -1.0697,-0.23771 -0.46509,-0.24288 -0.84749,-0.74931 z m 1.2299,-3.74654 q -0.59428,0 -0.91467,0.43925 -0.31523,0.43409 -0.31523,1.25574 0,0.82166 0.31523,1.26091 0.32039,0.43408 0.91467,0.43408 0.59428,0 0.90434,-0.43408 0.31522,-0.43409 0.31522,-1.26091 0,-0.82682 -0.31522,-1.2609 -0.31006,-0.43409 -0.90434,-0.43409 z" />
      <path
         id="path30"
         style="font-style:normal;font-variant:normal;font-weight:bold;font-stretch:normal;font-family:sans-serif;-inkscape-font-specification:'sans-serif Bold';text-align:center;text-anchor:middle;fill:#7f2aff;stroke-width:0.26458332"
         d="m 81.331409,119.15347 q -0.54777,0.28422 -1.142049,0.42892 -0.594279,0.14469 -1.240234,0.14469 -1.927531,0 -3.054077,-1.07487 -1.126547,-1.08004 -1.126547,-2.92488 0,-1.85002 1.126547,-2.92489 1.126546,-1.08004 3.054077,-1.08004 0.645955,0 1.240234,0.1447 0.594279,0.14469 1.142049,0.42891 v 1.5968 q -0.552938,-0.37724 -1.090373,-0.55294 -0.537434,-0.1757 -1.131713,-0.1757 -1.064535,0 -1.674317,0.68213 -0.609782,0.68213 -0.609782,1.88103 0,1.19372 0.609782,1.87585 0.609782,0.68213 1.674317,0.68213 0.594279,0 1.131713,-0.1757 0.537435,-0.1757 1.090373,-0.55294 z" />
      <path
         id="path32"
         style="font-style:normal;font-variant:normal;font-weight:bold;font-stretch:normal;font-family:sans-serif;-inkscape-font-specification:'sans-serif Bold';text-align:center;text-anchor:middle;fill:#7f2aff;stroke-width:0.26458332"
         d="m 85.656726,114.97285 q -0.614949,0 -0.940511,0.44442 -0.320393,0.43925 -0.320393,1.27124 0,0.83199 0.320393,1.2764 0.325562,0.43925 0.940511,0.43925 0.604615,0 0.925009,-0.43925 0.320393,-0.44441 0.320393,-1.2764 0,-0.83199 -0.320393,-1.27124 -0.320394,-0.44442 -0.925009,-0.44442 z m 0,-1.32292 q 1.493449,0 2.330607,0.80615 0.842326,0.80616 0.842326,2.23243 0,1.42627 -0.842326,2.23242 -0.837158,0.80615 -2.330607,0.80615 -1.498616,0 -2.346109,-0.80615 -0.842326,-0.80615 -0.842326,-2.23242 0,-1.42627 0.842326,-2.23243 0.847493,-0.80615 2.346109,-0.80615 z" />
      <path
         id="path34"
         style="font-style:normal;font-variant:normal;font-weight:bold;font-stretch:normal;font-family:sans-serif;-inkscape-font-specification:'sans-serif Bold';text-align:center;text-anchor:middle;fill:#7f2aff;stroke-width:0.26458332"
         d="m 95.542428,114.75064 q 0.351399,-0.53743 0.83199,-0.81649 0.485759,-0.28422 1.064535,-0.28422 0.997355,0 1.519287,0.61495 0.521932,0.61495 0.521932,1.78801 v 3.52433 H 97.61982 v -3.0179 q 0.0052,-0.0672 0.0052,-0.13953 0.0052,-0.0724 0.0052,-0.20671 0,-0.61495 -0.180868,-0.88883 -0.180867,-0.27905 -0.583944,-0.27905 -0.527099,0 -0.816487,0.43408 -0.284221,0.43408 -0.294556,1.25574 v 2.8422 H 93.89395 v -3.0179 q 0,-0.96119 -0.165365,-1.23507 -0.165365,-0.27905 -0.589111,-0.27905 -0.532268,0 -0.821656,0.43925 -0.289388,0.43408 -0.289388,1.2454 v 2.84737 h -1.860351 v -5.78776 h 1.860351 v 0.84749 q 0.341065,-0.49092 0.780315,-0.73897 0.444417,-0.24805 0.976684,-0.24805 0.599447,0 1.059367,0.28939 0.45992,0.28939 0.697632,0.81132 z" />
      <path
         id="path36"
         style="font-style:normal;font-variant:normal;font-weight:bold;font-stretch:normal;font-family:sans-serif;-inkscape-font-specification:'sans-serif Bold';text-align:center;text-anchor:middle;fill:#7f2aff;stroke-width:0.26458332"
         d="m 101.2165,113.78946 h 1.85002 v 5.78776 h -1.85002 z m 0,-2.25309 h 1.85002 v 1.50895 h -1.85002 z" />
      <path
         id="path38"
         style="font-style:normal;font-variant:normal;font-weight:bold;font-stretch:normal;font-family:sans-serif;-inkscape-font-specification:'sans-serif Bold';text-align:center;text-anchor:middle;fill:#7f2aff;stroke-width:0.26458332"
         d="m 110.67329,116.05289 v 3.52433 h -1.86035 v -0.57361 -2.1239 q 0,-0.74931 -0.0362,-1.03353 -0.031,-0.28422 -0.11369,-0.41858 -0.10852,-0.18087 -0.29455,-0.27905 -0.18604,-0.10335 -0.42375,-0.10335 -0.57877,0 -0.9095,0.44958 -0.33073,0.44442 -0.33073,1.23507 v 2.84737 h -1.85002 v -5.78776 h 1.85002 v 0.84749 q 0.41858,-0.50643 0.88883,-0.74414 0.47026,-0.24288 1.0387,-0.24288 1.00252,0 1.51928,0.61495 0.52194,0.61495 0.52194,1.78801 z" />
      <path
         id="path40"
         style="font-style:normal;font-variant:normal;font-weight:bold;font-stretch:normal;font-family:sans-serif;-inkscape-font-specification:'sans-serif Bold';text-align:center;text-anchor:middle;fill:#7f2aff;stroke-width:0.26458332"
         d="m 116.33702,118.59537 q -0.3824,0.50643 -0.84232,0.74414 -0.45992,0.23771 -1.06454,0.23771 -1.05936,0 -1.75183,-0.83199 -0.69246,-0.83716 -0.69246,-2.12907 0,-1.29708 0.69246,-2.1239 0.69247,-0.83199 1.75183,-0.83199 0.60462,0 1.06454,0.23771 0.45992,0.23771 0.84232,0.74931 v -0.85783 h 1.86036 v 5.20382 q 0,1.39526 -0.88367,2.12906 -0.8785,0.73898 -2.55282,0.73898 -0.5426,0 -1.04903,-0.0827 -0.50643,-0.0827 -1.01802,-0.25322 v -1.44177 q 0.48575,0.27905 0.95084,0.41341 0.46509,0.13953 0.93535,0.13953 0.9095,0 1.33325,-0.39791 0.42374,-0.39791 0.42374,-1.2454 z m -1.21956,-3.60185 q -0.57361,0 -0.894,0.42375 -0.3204,0.42374 -0.3204,1.19889 0,0.79582 0.31006,1.20923 0.31006,0.40824 0.90434,0.40824 0.57878,0 0.89917,-0.42374 0.32039,-0.42375 0.32039,-1.19373 0,-0.77515 -0.32039,-1.19889 -0.32039,-0.42375 -0.89917,-0.42375 z" />
      <path
         id="path42"
         style="font-style:normal;font-variant:normal;font-weight:bold;font-stretch:normal;font-family:sans-serif;-inkscape-font-specification:'sans-serif Bold';text-align:center;text-anchor:middle;fill:#7f2aff;stroke-width:0.26458332"
         d="m 129.1166,112.10481 v 1.63297 q -0.63562,-0.28422 -1.24023,-0.42891 -0.60461,-0.1447 -1.14205,-0.1447 -0.71313,0 -1.0542,0.19637 -0.34106,0.19638 -0.34106,0.60979 0,0.31006 0.22737,0.48575 0.23255,0.17054 0.83716,0.29456 l 0.8475,0.17053 q 1.28674,0.25838 1.82934,0.78548 0.5426,0.5271 0.5426,1.49862 0,1.27641 -0.75964,1.90169 -0.75448,0.62012 -2.30994,0.62012 -0.7338,0 -1.47277,-0.13953 -0.73898,-0.13952 -1.47795,-0.41341 v -1.67948 q 0.73897,0.39274 1.42627,0.59428 0.69246,0.19637 1.33325,0.19637 0.65112,0 0.99736,-0.21704 0.34623,-0.21704 0.34623,-0.62012 0,-0.36173 -0.23771,-0.55811 -0.23255,-0.19637 -0.93535,-0.35139 l -0.76998,-0.17054 q -1.15755,-0.24804 -1.69498,-0.79065 -0.53227,-0.5426 -0.53227,-1.46244 0,-1.15238 0.74414,-1.7725 0.74414,-0.62012 2.13941,-0.62012 0.63562,0 1.30741,0.0982 0.67179,0.093 1.39009,0.28422 z" />
      <path
         id="path44"
         style="font-style:normal;font-variant:normal;font-weight:bold;font-stretch:normal;font-family:sans-serif;-inkscape-font-specification:'sans-serif Bold';text-align:center;text-anchor:middle;fill:#7f2aff;stroke-width:0.26458332"
         d="m 134.04654,114.97285 q -0.61495,0 -0.94051,0.44442 -0.3204,0.43925 -0.3204,1.27124 0,0.83199 0.3204,1.2764 0.32556,0.43925 0.94051,0.43925 0.60461,0 0.925,-0.43925 0.3204,-0.44441 0.3204,-1.2764 0,-0.83199 -0.3204,-1.27124 -0.32039,-0.44442 -0.925,-0.44442 z m 0,-1.32292 q 1.49345,0 2.3306,0.80615 0.84233,0.80616 0.84233,2.23243 0,1.42627 -0.84233,2.23242 -0.83715,0.80615 -2.3306,0.80615 -1.49862,0 -2.34611,-0.80615 -0.84233,-0.80615 -0.84233,-2.23242 0,-1.42627 0.84233,-2.23243 0.84749,-0.80615 2.34611,-0.80615 z" />
      <path
         id="path46"
         style="font-style:normal;font-variant:normal;font-weight:bold;font-stretch:normal;font-family:sans-serif;-inkscape-font-specification:'sans-serif Bold';text-align:center;text-anchor:middle;fill:#7f2aff;stroke-width:0.26458332"
         d="m 141.32258,114.97285 q -0.61495,0 -0.94051,0.44442 -0.3204,0.43925 -0.3204,1.27124 0,0.83199 0.3204,1.2764 0.32556,0.43925 0.94051,0.43925 0.60461,0 0.92501,-0.43925 0.32039,-0.44441 0.32039,-1.2764 0,-0.83199 -0.32039,-1.27124 -0.3204,-0.44442 -0.92501,-0.44442 z m 0,-1.32292 q 1.49345,0 2.33061,0.80615 0.84232,0.80616 0.84232,2.23243 0,1.42627 -0.84232,2.23242 -0.83716,0.80615 -2.33061,0.80615 -1.49862,0 -2.34611,-0.80615 -0.84233,-0.80615 -0.84233,-2.23242 0,-1.42627 0.84233,-2.23243 0.84749,-0.80615 2.34611,-0.80615 z" />
      <path
         id="path48"
         style="font-style:normal;font-variant:normal;font-weight:bold;font-stretch:normal;font-family:sans-serif;-inkscape-font-specification:'sans-serif Bold';text-align:center;text-anchor:middle;fill:#7f2aff;stroke-width:0.26458332"
         d="m 151.66303,116.05289 v 3.52433 h -1.86035 v -0.57361 -2.1239 q 0,-0.74931 -0.0362,-1.03353 -0.031,-0.28422 -0.11369,-0.41858 -0.10852,-0.18087 -0.29456,-0.27905 -0.18603,-0.10335 -0.42374,-0.10335 -0.57878,0 -0.90951,0.44958 -0.33073,0.44442 -0.33073,1.23507 v 2.84737 h -1.85002 v -5.78776 h 1.85002 v 0.84749 q 0.41858,-0.50643 0.88884,-0.74414 0.47025,-0.24288 1.03869,-0.24288 1.00252,0 1.51929,0.61495 0.52193,0.61495 0.52193,1.78801 z" />
    </g>
    <flowRoot
       transform="scale(0.26458333)"
       style="font-style:normal;font-weight:normal;font-size:40px;line-height:1.25;font-family:sans-serif;letter-spacing:0px;word-spacing:0px;fill:#000000;fill-opacity:1;stroke:none"
       id="flowRoot14"
       xml:space="preserve"><flowRegion
         id="flowRegion16"><rect
           y="345.37683"
           x="105.71429"
           height="77.14286"
           width="20"
           id="rect18" /></flowRegion><flowPara
         id="flowPara20" /></flowRoot>  </g>
</svg>
