<svg xmlns="http://www.w3.org/2000/svg" xmlns:xlink="http://www.w3.org/1999/xlink" width="2209.216" height="1895.198" viewBox="0 0 2209.216 1895.198"><defs><style>.\33 fd6a3fe-a0ff-4fab-9ecc-ebd8bd2fa2fd,.\35 5cbae0a-cf33-4ea6-b9c1-5b8175af00d2,.f2c44137-17c6-4c12-bcb1-4d62559ef8dc{fill:#fff;}.\38 3842ead-3992-49cd-ad72-0bedc7c4bf51{fill:#00ff24;}.\33 dc69841-a6cb-47b2-bdc3-cbb746949364,.\35 e1f503e-66d8-40d4-860d-d535d92a2de2,.track-inner,.track-mid,.track-outer{fill:none;}.\33 dc69841-a6cb-47b2-bdc3-cbb746949364{stroke:#ff4141;stroke-linecap:round;stroke-width:4px;}.track-inner,.track-outer{stroke:#0080ff;}.track-inner,.track-mid,.track-outer{stroke-linejoin:round;}.track-outer{stroke-width:20px;}.e3a4efac-f669-438d-a36f-de8c4e9f95f4,.track-mid{stroke:#fff;}.track-mid{stroke-width:11px;}.track-inner{stroke-width:2px;}.\33 fd6a3fe-a0ff-4fab-9ecc-ebd8bd2fa2fd{stroke:#000;}.\33 fd6a3fe-a0ff-4fab-9ecc-ebd8bd2fa2fd,.e3a4efac-f669-438d-a36f-de8c4e9f95f4{stroke-miterlimit:10;stroke-width:3px;}.\35 5cbae0a-cf33-4ea6-b9c1-5b8175af00d2,.\35 653ab88-ed5d-48ed-8e99-9cc9cd7af5c5{font-size:79.369px;font-family:MyriadPro-Regular, Myriad Pro;}</style><symbol id="93eed32b-7a56-43ec-9520-54dd817d6466" data-name="start line" viewBox="0 0 131.5 34"><rect class="83842ead-3992-49cd-ad72-0bedc7c4bf51" x="1.5" y="1.5" width="128.5" height="31"/><path d="M131.5,34H0V0H131.5ZM3,31H128.5V3H3Z"/></symbol><symbol id="ca6eb241-7e88-409a-87da-9d70ef395191" data-name="finish line" viewBox="0 0 131.5 35.125"><rect class="f2c44137-17c6-4c12-bcb1-4d62559ef8dc" x="1.5" y="1.5" width="32.125" height="32.125"/><path d="M35.125,35.125H0V0H35.125ZM3,32.125H32.125V3H3Z"/><rect class="f2c44137-17c6-4c12-bcb1-4d62559ef8dc" x="33.625" y="1.5" width="32.125" height="32.125"/><path d="M67.25,35.125H32.125V0H67.25Zm-32.125-3H64.25V3H35.125Z"/><rect class="f2c44137-17c6-4c12-bcb1-4d62559ef8dc" x="65.75" y="1.5" width="32.125" height="32.125"/><path d="M99.375,35.125H64.25V0H99.375Zm-32.125-3H96.375V3H67.25Z"/><rect class="f2c44137-17c6-4c12-bcb1-4d62559ef8dc" x="97.875" y="1.5" width="32.125" height="32.125"/><path d="M131.5,35.125H96.375V0H131.5Zm-32.125-3H128.5V3H99.375Z"/></symbol></defs><title>Grand_Off-road_Rally_Championship</title><g id="12d1cbe2-9e97-4e1a-ab77-885384e7e14a" data-name="Layer 2"><g id="ad3efee7-859a-41bc-9df5-a3b43eb40538" data-name="Rally"><g id="931dd022-7ce8-40f1-b237-9b9b04817e8b" data-name="Grand_Off-road_Rally_Championship"><g id="0577b8ed-a444-408e-9d07-dca6be996689" data-name="teleline"><rect class="5e1f503e-66d8-40d4-860d-d535d92a2de2" x="1513.635" y="1012.845" width="156.54" height="153.613" transform="translate(-224.415 439.663) rotate(-14.701)"/><line class="3dc69841-a6cb-47b2-bdc3-cbb746949364" x1="1591.907" y1="1089.655" x2="1516.198" y2="1109.518"/><polyline class="3dc69841-a6cb-47b2-bdc3-cbb746949364" points="1533.231 1086.097 1516.116 1109.54 1542.441 1120.919"/><rect class="5e1f503e-66d8-40d4-860d-d535d92a2de2" x="1362.137" y="1052.593" width="156.54" height="153.613" transform="translate(-239.461 402.517) rotate(-14.701)"/><line class="3dc69841-a6cb-47b2-bdc3-cbb746949364" x1="1440.409" y1="1129.403" x2="1364.7" y2="1149.266"/><polyline class="3dc69841-a6cb-47b2-bdc3-cbb746949364" points="1381.733 1125.845 1364.618 1149.288 1390.943 1160.667"/><rect class="5e1f503e-66d8-40d4-860d-d535d92a2de2" x="1210.639" y="1092.341" width="156.54" height="153.613" transform="translate(-254.509 365.372) rotate(-14.701)"/><line class="3dc69841-a6cb-47b2-bdc3-cbb746949364" x1="1288.911" y1="1169.151" x2="1213.202" y2="1189.014"/><polyline class="3dc69841-a6cb-47b2-bdc3-cbb746949364" points="1230.235 1165.593 1213.119 1189.036 1239.445 1200.415"/><rect class="5e1f503e-66d8-40d4-860d-d535d92a2de2" x="1059.141" y="1132.089" width="156.54" height="153.613" transform="translate(-269.555 328.226) rotate(-14.701)"/><line class="3dc69841-a6cb-47b2-bdc3-cbb746949364" x1="1137.413" y1="1208.899" x2="1061.704" y2="1228.763"/><polyline class="3dc69841-a6cb-47b2-bdc3-cbb746949364" points="1078.737 1205.341 1061.621 1228.784 1087.947 1240.163"/><rect class="5e1f503e-66d8-40d4-860d-d535d92a2de2" x="907.643" y="1171.837" width="156.54" height="153.613" transform="matrix(0.967, -0.254, 0.254, 0.967, -284.602, 291.081)"/><line class="3dc69841-a6cb-47b2-bdc3-cbb746949364" x1="985.915" y1="1248.647" x2="910.206" y2="1268.511"/><polyline class="3dc69841-a6cb-47b2-bdc3-cbb746949364" points="927.239 1245.089 910.123 1268.532 936.449 1279.912"/><rect class="5e1f503e-66d8-40d4-860d-d535d92a2de2" x="756.145" y="1211.585" width="156.54" height="153.613" transform="matrix(0.967, -0.254, 0.254, 0.967, -299.65, 253.936)"/><line class="3dc69841-a6cb-47b2-bdc3-cbb746949364" x1="834.416" y1="1288.395" x2="758.708" y2="1308.259"/><polyline class="3dc69841-a6cb-47b2-bdc3-cbb746949364" points="775.741 1284.838 758.625 1308.281 784.951 1319.66"/></g><g id="001b5675-a51c-4750-9906-1b43d28a8625" data-name="teleline"><rect class="5e1f503e-66d8-40d4-860d-d535d92a2de2" x="545.012" y="1108.127" width="153.613" height="149.751" transform="translate(-476.197 421.088) rotate(-27.516)"/><line class="3dc69841-a6cb-47b2-bdc3-cbb746949364" x1="621.816" y1="1183.005" x2="587.224" y2="1116.598"/><polyline class="3dc69841-a6cb-47b2-bdc3-cbb746949364" points="613.39 1127.15 587.186 1116.526 581.477 1143.851"/><rect class="5e1f503e-66d8-40d4-860d-d535d92a2de2" x="475.791" y="975.243" width="153.613" height="149.751" transform="translate(-422.635 374.077) rotate(-27.515)"/><line class="3dc69841-a6cb-47b2-bdc3-cbb746949364" x1="552.595" y1="1050.12" x2="518.003" y2="983.714"/><polyline class="3dc69841-a6cb-47b2-bdc3-cbb746949364" points="544.17 994.265 517.965 983.641 512.256 1010.967"/><rect class="5e1f503e-66d8-40d4-860d-d535d92a2de2" x="406.571" y="842.358" width="153.613" height="149.751" transform="translate(-369.074 327.067) rotate(-27.515)"/><line class="3dc69841-a6cb-47b2-bdc3-cbb746949364" x1="483.374" y1="917.236" x2="448.782" y2="850.829"/><polyline class="3dc69841-a6cb-47b2-bdc3-cbb746949364" points="474.949 861.381 448.744 850.757 443.035 878.082"/><rect class="5e1f503e-66d8-40d4-860d-d535d92a2de2" x="337.35" y="709.474" width="153.613" height="149.751" transform="translate(-315.513 280.056) rotate(-27.515)"/><line class="3dc69841-a6cb-47b2-bdc3-cbb746949364" x1="414.153" y1="784.352" x2="379.561" y2="717.945"/><polyline class="3dc69841-a6cb-47b2-bdc3-cbb746949364" points="405.728 728.497 379.524 717.872 373.814 745.198"/><rect class="5e1f503e-66d8-40d4-860d-d535d92a2de2" x="268.129" y="576.589" width="153.613" height="149.751" transform="translate(-261.952 233.046) rotate(-27.515)"/><line class="3dc69841-a6cb-47b2-bdc3-cbb746949364" x1="344.932" y1="651.467" x2="310.341" y2="585.061"/><polyline class="3dc69841-a6cb-47b2-bdc3-cbb746949364" points="336.507 595.612 310.303 584.988 304.593 612.314"/><rect class="5e1f503e-66d8-40d4-860d-d535d92a2de2" x="198.908" y="443.705" width="153.613" height="149.751" transform="translate(-208.391 186.036) rotate(-27.516)"/><line class="3dc69841-a6cb-47b2-bdc3-cbb746949364" x1="275.712" y1="518.583" x2="241.12" y2="452.176"/><polyline class="3dc69841-a6cb-47b2-bdc3-cbb746949364" points="267.286 462.728 241.082 452.104 235.373 479.429"/><rect class="5e1f503e-66d8-40d4-860d-d535d92a2de2" x="129.687" y="310.821" width="153.613" height="149.751" transform="translate(-154.83 139.025) rotate(-27.515)"/><line class="3dc69841-a6cb-47b2-bdc3-cbb746949364" x1="206.491" y1="385.698" x2="171.899" y2="319.292"/><polyline class="3dc69841-a6cb-47b2-bdc3-cbb746949364" points="198.065 329.843 171.861 319.219 166.152 346.545"/><rect class="5e1f503e-66d8-40d4-860d-d535d92a2de2" x="60.466" y="177.936" width="153.613" height="149.751" transform="translate(-101.269 92.015) rotate(-27.516)"/><line class="3dc69841-a6cb-47b2-bdc3-cbb746949364" x1="137.27" y1="252.814" x2="102.678" y2="186.408"/><polyline class="3dc69841-a6cb-47b2-bdc3-cbb746949364" points="128.844 196.959 102.64 186.335 96.931 213.661"/></g><path id="d42a2f87-fb51-47c8-88ab-5f864b185fc2" data-name="Track-outer" class="track-outer" d="M1654.79,874.1s1.666-50.334,9.666-69-20-48-43-57.334-29.2-12.621-29.2-12.621-15.466-11.379-10.466,5.288-9,46-17.334,52-15,12.667-8,13.667,35,8,34,14-9,28.666-6.333,34.666,16,16.334,21,19.334,15.667,6,12.333,12.666-48,74.334-89.333,100.334-88.667,42.333-92.333,41.666-22.334-23-25-24.666-12.667-16.334-18.334-15.667-21,12.333-23.666,17-12,22.667-13,25.333-7.334,18,3,15.667,36.333-10,39-5-6.334,29.333-6.334,33.667,4.334,41.666,4,45.666-3.666,53.667-2.333,58.667,4.667,10,4,13.667-7,15.333-6.667,18.333-6.333,30.667-1,31.333,14-5.666,16.334-10-2.667-16.666,1-21.333,6-8.333,6.666-11.667-4.333-12,0-17.333,9.334-7.667,14-8,16.667-11.333,20.334-11.667,33.333-5.333,44.333-5.333,15,1.333,21,3.333,40,25.667,57.667,45.334,36.333,34,45.666,39,21.667,16.666,18,29-1.333,20.333.667,22.666,16,18.667,17.333,25.334,8,28,4,56.666-7,50-10.333,54a108.574,108.574,0,0,1-15.333,15.667c-7,5.667-31.667,23.667-38,25s-19.667,5.333-26.334,6-35.333,6-45.333,11.333-30.333,12.667-32.667,19-6.666,5-6.666,9,1,15.334-1,18.667-12.667,16-13.334,20.667-4,18.333-4,23.666-1,14.667,3,19,9.667,5.667,16.334,6.667,15.666,4,17,7,7.333,9.667,14.333,10.333,15.333-.666,19,0,21-3.666,28.667-8.666,17-11.667,28-11.667,38.6-.232,45.333,0c4.833.167,16.083,3.167,17.333,13.417s-.75,15.5,5.25,17.5,22.5,5.25,25.25,7.5,4.25,11.75,1.5,15.5-17.5,11-19.75,13.25-5.75,6.75-9.75,8.5-21.5,9.75-26.5,14.75-15,25-17,28-8.5,12.5-7.5,16.25,3.25,17.25,16.75,12.75,23.25-12.5,24.25-15.25,3.5-9.25,8.25-8.5,8.5,9.565,11.25,24.658,3.5,22.092,2,28.842-5.75,15.25-5.5,20.5-1.75,18.25,8,19.25,17.75-3.25,22.25-10,8-15.75,14-16,21.75,2.75,16.25,18-25,29-26.5,32.25-5.75,17-5.25,22.5-2.75,15.25,5,16.75,29.75-2,37-8,62.75-55.75,66-58.25c14.75-11.75,46-17.25,58.25-17s42.25,1.25,48.25,4.5,40,26.75,46,33,21.5,26.25,65.75,27.25,64.5-3.5,74.5-5,29-5.75,30.25-7.75-4.75-28-9.75-30-13-3.25-15-1.5-15,6.5-20.25,5.25-16-1-15.75-7-1.25-12.5,4.75-14.75,23.5-2.75,27.75-6.25,11-12.25,6.5-19-9.25-12-17.5-9.5-30.247,17.259-35.25,20-10.5,7.25-26.25,3.75-6.25-36.75-6.25-36.75,1.25-13,.75-14.75,3.25-11.25,5.25-14.25,3.5-12.5,4-17.25.25-15.5,3.25-19,9.25-7.75,12.75-7.5,9.25,6,12,12,8.5,20,12,20.75,14.75,3.75,18.25-4,2.25-19.5-.5-23.75-8-14-8.75-19.5-8.5-22-8.75-24-2-16.25,4-19.5,12,3.75,15.5,5.25,24,16,26.75,16.25,15.5,8,21,8,15.25-3.5,20-4.75,13.25-4.75,17-4.5,21.5-1.5,24-2.5,10.25-12,5.5-20.5-34.5-47.5-38-50-17,12.5-17,12.5-12.5,13.25-16.5,14.75-12.75,3.75-16-2.5-5.5-16.25-3-23.5-1.5-21.75-2.5-27-5-16.5-9-20.75-20.25-6.25-25.5-6.5-46.25,8.5-51,10.75-11.75,8-20.5,7.25-15.25-9.75-14.75-15,2-19-1.5-25.5-11.5-12.25-15-16.5-8.75-26.75-7.25-37.5,2-19-1.5-26-21.5-20.25-26-23.25-14-7.25-24-10.5-31.25-11.75-34.75-12.5-29.75-3-36-3.75-29.5.25-35.75-.75-21-3.5-27.5-6.5-48.25-54.25-49.25-55-11.5-15.25,2.25-22.25,59-18.25,62-17.75,51-7.25,55.75-8,28.5-7.5,31-7.25,20.75-1,24.5-3.75,4.25-21.75,3.75-26.5-11-6-15.5-5.25-137.25,15-175.75,32.75c-17.5,8.25-19.25-9.75-19.25-9.75l-11-57.25-9.75-55.25-5.75-49.25"/><path id="2f26f90e-68cc-485d-bfc1-185e121c1dc1" data-name="Track-outer" class="track-outer" d="M687.79,1303.1s35.717-20.667,42.191-26.667,24.475-12,31.142-12,17.333-6.667,28-6,26.583,1.667,30.583-5.083,16.75-20.75,21.25-24.25,15.5-16.25,23.25-19,31.75,1,35.25,7.25,2.5,24.5,3.5,28.25-4.25,40.25,10.5,43,17.5-16.25,20.5-19,13-15.5,19.5-17.75,22-13.5,25.5-16,10.5-1.25,17.75-2.75,16.5-11.75,28.25-2.75-1.75,38.25-3.25,40.5-8.25,19.75-3.5,25.25,8.381,14.612,14.691,16.056,18.809,5.444,22.309,11.194,4.75,17.75-5,31.75-8.5,27.75-8.5,31.5-.75,37.25-1,39-5,15.25-8.75,19.25-14,6-12.5,18.5,16.25,26.75,18.25,29.75,9.5,19.25,11.75,22,6,10.25,7,13.5.143,17.25,1.322,19.25,9.428,15,11.678,21,7.25,10.5,9.5,11a17.946,17.946,0,0,1,7.5,3.5c3,2.25,4.174,4.914,6.462,7.707s7.538,7.793,12.538,7.293,12-3.75,12-8-.25-9.5-2-13.5-.75-13.25,2-15.25,7.25-3.75,11.75-.5,7.25,11,7.75,13.5.75,10,2.5,11.75,6.75,17,5.25,22-7.25,11.75-13.25,12.75-9.5.5-11.25,2.75-9.75,8.5-13,9.5-12.25,2.75-13.5,6.5-.25,20.25,2.75,23,5,9,6,14.75-1.75,12-.25,14.5,6.75,10,10.75,8.5,8.5-3,9.5-7.5a33.192,33.192,0,0,0-.25-13.25c-.75-3.25-1-11-.75-15.25s2.5-11.25,5.25-13.5,13.25-8,16.5-8.25,6.25-1.5,10.75,0,8.042,6.6,10.4,10.674,7.316,16.083,10.71,17.079,18.894,7,22.644,7.247,17.75,5.25,23.75,12.5,13.75,15.25,14,19,7,19.75,9.5,25.75,16.5,34.75,24.5,40.25,25.25,16.75,41.5,15.5,28.75-4.75,33.25-8.25,26.5-15,32.75-18.75,18.5-11.75,20.25-14,2-13-9.5-15.5a211.078,211.078,0,0,0-23.5-4c-3.25-.25-16.75-10.5-17.5-18.25a112.789,112.789,0,0,1-.75-16.75c.25-3.25-3.5-14-6.25-15s-10.25-3.25-13-1.25-3.5,11.75-2.75,16,4.25,16.25,3.75,21-7,32.75-19.75,3.75c-3.25-10-3-23-3.25-28.25s-6-24.25-5.5-29.75,2-18.75,7-22.25,9-7.25,18-7,23.75-.75,25.75-1.5,8.25-4.5,8.5-8.75-2.752-10.941-5.5-12.471-6.249-5.779-8-7.279-.75-14.5-.25-18.25-2.75-14.75-2.5-18.5,4.5-18.5,10.749-20.5,15-4,18.751-4,9.5,2.5,13.5-.75,5.5-9.75,6.5-13.5.25-15.75-.75-19.75-4-11.75-3-20.5,3.25-13.25,6.5-18,5.289-5.5,3.644-9-7.04-8.892-7.717-11.7-1.427-22.554.573-27.8,4.25-23.25,3.75-27.75-5.25-66.5-5.75-70.75-11.5-24.25-14.25-27.25-17.5-15.75-21.751-17.75-12.5-11.5-16.749-18.5-8-12-11.25-17.75-8.75-15.5-11.75-21.75-5.2-9.307-12.223-15.028-11.527-9.222-16.277-10.972-24.5-3.5-39.75,5.75-27.75,12.75-30.5,12.5-14.25-.25-6-10.75,22-30.5,23.5-39-.25-10,4.75-17.75-5-26.75-6.75-29.25-5.5-11.75-1.25-17,19-13.5,27.75-20.25,22.75-10.25,25.5-11.5,13.5-4,17.5-7.25,15.575-19.688-4.5-16.75c-18.421,2.695-28.25,12-32.5,12s-13.25-1.75-24.5-2-14,.25-23-3.25-14.5-2-17.75-8.75,3.5-11.25,7.5-10.25,22.5,8.25,29,8.25,23,4,27.5,4,9.75-2.25,12.25-6,6-8.75,6.25-13-1.75-25.5.75-34,6.5-16,13.5-22,20.5-6.5,26-11,10-14,9-22-10-34.5-10-44-2.166-25.834-2.166-31.167-2.334-18.667-.667-29,6-10.667,2.333-19.667-6.333-26.666-10-31.333-1.666-6.667-7.666-8.333-11.416-8.919-21.334-6c-3.729,1.1-21.5,7.333-21.5,14s-1.666,21.667-2.333,27a172.755,172.755,0,0,0-1.667,20.333c0,7-2,25.334-1,37.667s1,20.333,0,30-8,39-10,44.667-1.666,8.666-6.666,17-17.834,33-21.5,35.666-10.334,7-13,12-8.334,11-13.667,11-24.333-1.667-29-2.333-25.333-10-32.667-10.334c-3.626-.164-48.645,12.056-69.25,20.084-9.973,3.886,48.249,47.7,41.75,52-4.474,2.958-25.135,8.892-43.5-1.75-11.283-6.539-24.007-31.52-24.75-31.25-7.333,2.667-13.583,17.25-21.583,21.916s-11.547,13.383-15.167,15.584c-4.592,2.792-27.25,22.25-31,23.25s-23,5.75-26.5,5.75-20.25-2-23-3.5-6-4-11-4.25-8.25-3.5-16.75-6-18-8.25-27.25-9.5-20.491-6.6-19.991-2.6c5,19.551,8.82,28.107-5.726,32.731s-16.408-4.06-22.783-18.991c-4.012-9.4-23.794,3.722-26.5,5.362-8.25,5-30.25,19.75-34.75,21.5s-18,8.75-20,11.75-29,33-34.25,35.75-18.5,12-20.25,16-1.75,12-1.75,16,1.75,34,2.5,37.75,1,17.75,1,17.75"/><path id="1281cddf-d0c9-4390-94d0-0749877d5f0d" data-name="Track-outer" class="track-outer" d="M58.741,122.768s13.857-23.59,16.715-30,7-19,16.667-24.666,23.667-7.334,29.667-6.667,19.333,0,26-4,22.666-3.667,34.333-3,37.667,7,44.667,9.667,24.333,3.333,27.666,4,21.667,6.351,25.334,10.842,29.333,15.491,32,17.491,15.333,9.333,24.333,13,23.333,15.667,29.333,20.333,20.334,18,22,22,12.334,29.334,13,32,7,17.334,11.667,23,19,13,28.667,14.334,28.666,2.666,34,1.666,11.666-5,18.666-5.333,14-2.667,16.334-4.333,4-5,11.333-6.334,22-.333,27,.334,17.333,7,22.667,11.333,14.049,9.312,15.525,12.99,6.386,13.673,9.93,14.508,9.6,4.678,9.738,8.757-.86,13.745,5.807,15.078,15.666,3,18.666-4.333A174.566,174.566,0,0,0,637.79,240.1c.666-4-1.334-4,3.666-10s4.334-3.667,8.334-9.334-.667-6.487,0-10.577,4.666-17.756,7.333-23.423,8.667-14,13.333-15.333,8.334-1,13.334-3.667,10-5.172,16-5.086,4,2.844,10-.2,8.666-3.046,15.333-1.379,8.667,3.333,12.667,3.333,5,1.333,11,1.333,11.666-.333,18.333-.666,10.333-.667,14,2,5,4,11.667,5.333,11,4,15.333,5.333,7.964,3.779,11.982,7.223,9.018,15.777,8.351,23.444-2.546,20.667.061,25.333,3.606,21,10.273,24,14.666,6.334,21.333,4.334,14.667-4.667,20.667-5.334,7-2.666,10.666-.333,11.667,16.667,15.334,20,6.666,11.333,10.333,12.667,8.333,3.666,15.667,6.333,10.333,3.333,14,7,14.333,16.667,19,18.333,26.666.334,31,0,4.666-2.025,9.333.821,3.99,4.188,8.662,7.184,7.671,3.662,10.671,4.995,5,6.334,11.334,8.334,13,5.333,24,5,21-2.62,25.666.023,9.667,14.31,15,18.31a38.946,38.946,0,0,0,21.334,8.333c9.333.667,10-2.333,14.333,0s2.333,5.334,7,8,3.667,4.334,13.333,3,18.334-5,25.334-7.666,14.333-8,18.666-4.334,13.667,10.939,16.667,12.47,9,6.53,13,6.2,9.667-.667,15.333-6,10-6,11-11.333,1.667-6.667,4-9.334,15.334-18.333,23.667-18,12.181,1.015,16.757,6.341,12.576,17.659,17.91,23.326,27,39.333,35,35,6.333-6,8-12.333,3.666-23,4-27-1.334-15.334-2.667-20.334a123.412,123.412,0,0,0-7.667-20c-3.666-7.666-9.333-12-7-20s.334-13.333,4.667-25.333,16.333-51.333,17.667-55,13.333-24.667-15.334-27.333-30.333,2.333-32.666,2.333-17.667,2-21.334-.667-9-9.666-12.333-14.333-5.333-9-10.667-9.667-8.333,2-13.333-1-14-15-18-15-7.333,1.828-14-3.086a204.3,204.3,0,0,1-16-13.247c-5.667-5-9.667-12.333-16.333-15s-11-4-14.667-8-1-8-11.667-8.333-19.666,2.666-29,1.666-10.333-.666-17-3-13.333-3.333-22-5-8.666-1.666-19.333-4-13.333-1.333-17-2.666-29.333-14-32.333-16.334-10-7-24.667-4.333c-8.2,2.87-11,10.333-16,9.667s-13.667-8.667-20.333-9.667-33.334,2-54,18.667-30.334,16.333-33.334,16.666-11.325.908-10.162-7.213,2.5-10.787.829-17.453-6.436-16.285-14.051-15.643-21.949-1.024-26.616-1.357-5.333-3.334-11.333-3.667-21.333,1.333-22.667,1.333-19,6-26,7-17.666,6.334-23,9.667S746.79,117.1,734.79,117.1s-27.334-4.667-42.667.333-29.333,5-34.667,9.333-22.333,13.334-25.666,15-9,7.667-11.667,9-1.333,9.334-22,8S587.882,154.9,575.5,155s-36.712.1-42.712.1-30.334-6.334-42.334-14-20.333-8.334-23.333-9.667-16.667-18-18.333-22.667-14-31-18.667-34.666-10.333-16.667-24-17-34.333,1.666-38.333.666S348.123,46.1,345.123,45.435s-12.667-3.333-20-4.667-14.667-1.333-18.667-6-8-8.666-13-8.666-14.333,4.333-17,8.333S255.79,38.768,252.79,38.1s-8.334,4.333-11.334,6.666-8.666,10.334-18,3-15.1-16.792-17.552-19.4-19.114-11.6-30.781-14.937S165.79,9.768,160.79,10.1s-10,5-13.334,6.333-15.333,2.667-22,1.667-16.666,2.333-19,2-16.666-8.667-21-7.667-17,6-24.333,22.333S51.456,58.435,47.456,60.435s-17,12-18.333,14.333S22.79,80.435,22.456,84.1s3,14.666,0,16.666-3.091,2.667-3.379,7.667,4.046,18.333,3.713,22"/><path id="5a70a3b2-407d-4640-8c5d-0fca9a8bf353" data-name="Track-mid" class="track-mid" d="M1654.79,874.1s1.666-50.334,9.666-69-20-48-43-57.334-29.2-12.621-29.2-12.621-15.466-11.379-10.466,5.288-9,46-17.334,52-15,12.667-8,13.667,35,8,34,14-9,28.666-6.333,34.666,16,16.334,21,19.334,15.667,6,12.333,12.666-48,74.334-89.333,100.334-88.667,42.333-92.333,41.666-22.334-23-25-24.666-12.667-16.334-18.334-15.667-21,12.333-23.666,17-12,22.667-13,25.333-7.334,18,3,15.667,36.333-10,39-5-6.334,29.333-6.334,33.667,4.334,41.666,4,45.666-3.666,53.667-2.333,58.667,4.667,10,4,13.667-7,15.333-6.667,18.333-6.333,30.667-1,31.333,14-5.666,16.334-10-2.667-16.666,1-21.333,6-8.333,6.666-11.667-4.333-12,0-17.333,9.334-7.667,14-8,16.667-11.333,20.334-11.667,33.333-5.333,44.333-5.333,15,1.333,21,3.333,40,25.667,57.667,45.334,36.333,34,45.666,39,21.667,16.666,18,29-1.333,20.333.667,22.666,16,18.667,17.333,25.334,8,28,4,56.666-7,50-10.333,54a108.574,108.574,0,0,1-15.333,15.667c-7,5.667-31.667,23.667-38,25s-19.667,5.333-26.334,6-35.333,6-45.333,11.333-30.333,12.667-32.667,19-6.666,5-6.666,9,1,15.334-1,18.667-12.667,16-13.334,20.667-4,18.333-4,23.666-1,14.667,3,19,9.667,5.667,16.334,6.667,15.666,4,17,7,7.333,9.667,14.333,10.333,15.333-.666,19,0,21-3.666,28.667-8.666,17-11.667,28-11.667,38.6-.232,45.333,0c4.833.167,16.083,3.167,17.333,13.417s-.75,15.5,5.25,17.5,22.5,5.25,25.25,7.5,4.25,11.75,1.5,15.5-17.5,11-19.75,13.25-5.75,6.75-9.75,8.5-21.5,9.75-26.5,14.75-15,25-17,28-8.5,12.5-7.5,16.25,3.25,17.25,16.75,12.75,23.25-12.5,24.25-15.25,3.5-9.25,8.25-8.5,8.5,9.565,11.25,24.658,3.5,22.092,2,28.842-5.75,15.25-5.5,20.5-1.75,18.25,8,19.25,17.75-3.25,22.25-10,8-15.75,14-16,21.75,2.75,16.25,18-25,29-26.5,32.25-5.75,17-5.25,22.5-2.75,15.25,5,16.75,29.75-2,37-8,62.75-55.75,66-58.25c14.75-11.75,46-17.25,58.25-17s42.25,1.25,48.25,4.5,40,26.75,46,33,21.5,26.25,65.75,27.25,64.5-3.5,74.5-5,29-5.75,30.25-7.75-4.75-28-9.75-30-13-3.25-15-1.5-15,6.5-20.25,5.25-16-1-15.75-7-1.25-12.5,4.75-14.75,23.5-2.75,27.75-6.25,11-12.25,6.5-19-9.25-12-17.5-9.5-30.247,17.259-35.25,20-10.5,7.25-26.25,3.75-6.25-36.75-6.25-36.75,1.25-13,.75-14.75,3.25-11.25,5.25-14.25,3.5-12.5,4-17.25.25-15.5,3.25-19,9.25-7.75,12.75-7.5,9.25,6,12,12,8.5,20,12,20.75,14.75,3.75,18.25-4,2.25-19.5-.5-23.75-8-14-8.75-19.5-8.5-22-8.75-24-2-16.25,4-19.5,12,3.75,15.5,5.25,24,16,26.75,16.25,15.5,8,21,8,15.25-3.5,20-4.75,13.25-4.75,17-4.5,21.5-1.5,24-2.5,10.25-12,5.5-20.5-34.5-47.5-38-50-17,12.5-17,12.5-12.5,13.25-16.5,14.75-12.75,3.75-16-2.5-5.5-16.25-3-23.5-1.5-21.75-2.5-27-5-16.5-9-20.75-20.25-6.25-25.5-6.5-46.25,8.5-51,10.75-11.75,8-20.5,7.25-15.25-9.75-14.75-15,2-19-1.5-25.5-11.5-12.25-15-16.5-8.75-26.75-7.25-37.5,2-19-1.5-26-21.5-20.25-26-23.25-14-7.25-24-10.5-31.25-11.75-34.75-12.5-29.75-3-36-3.75-29.5.25-35.75-.75-21-3.5-27.5-6.5-48.25-54.25-49.25-55-11.5-15.25,2.25-22.25,59-18.25,62-17.75,51-7.25,55.75-8,28.5-7.5,31-7.25,20.75-1,24.5-3.75,4.25-21.75,3.75-26.5-11-6-15.5-5.25-137.25,15-175.75,32.75c-17.5,8.25-19.25-9.75-19.25-9.75l-11-57.25-9.75-55.25-5.75-49.25"/><path id="6e2dcc61-a841-4957-890a-7a725b86a545" data-name="Track-mid" class="track-mid" d="M687.79,1303.1s35.717-20.667,42.191-26.667,24.475-12,31.142-12,17.333-6.667,28-6,26.583,1.667,30.583-5.083,16.75-20.75,21.25-24.25,15.5-16.25,23.25-19,31.75,1,35.25,7.25,2.5,24.5,3.5,28.25-4.25,40.25,10.5,43,17.5-16.25,20.5-19,13-15.5,19.5-17.75,22-13.5,25.5-16,10.5-1.25,17.75-2.75,16.5-11.75,28.25-2.75-1.75,38.25-3.25,40.5-8.25,19.75-3.5,25.25,8.381,14.612,14.691,16.056,18.809,5.444,22.309,11.194,4.75,17.75-5,31.75-8.5,27.75-8.5,31.5-.75,37.25-1,39-5,15.25-8.75,19.25-14,6-12.5,18.5,16.25,26.75,18.25,29.75,9.5,19.25,11.75,22,6,10.25,7,13.5.143,17.25,1.322,19.25,9.428,15,11.678,21,7.25,10.5,9.5,11a17.946,17.946,0,0,1,7.5,3.5c3,2.25,4.174,4.914,6.462,7.707s7.538,7.793,12.538,7.293,12-3.75,12-8-.25-9.5-2-13.5-.75-13.25,2-15.25,7.25-3.75,11.75-.5,7.25,11,7.75,13.5.75,10,2.5,11.75,6.75,17,5.25,22-7.25,11.75-13.25,12.75-9.5.5-11.25,2.75-9.75,8.5-13,9.5-12.25,2.75-13.5,6.5-.25,20.25,2.75,23,5,9,6,14.75-1.75,12-.25,14.5,6.75,10,10.75,8.5,8.5-3,9.5-7.5a33.192,33.192,0,0,0-.25-13.25c-.75-3.25-1-11-.75-15.25s2.5-11.25,5.25-13.5,13.25-8,16.5-8.25,6.25-1.5,10.75,0,8.042,6.6,10.4,10.674,7.316,16.083,10.71,17.079,18.894,7,22.644,7.247,17.75,5.25,23.75,12.5,13.75,15.25,14,19,7,19.75,9.5,25.75,16.5,34.75,24.5,40.25,25.25,16.75,41.5,15.5,28.75-4.75,33.25-8.25,26.5-15,32.75-18.75,18.5-11.75,20.25-14,2-13-9.5-15.5a211.078,211.078,0,0,0-23.5-4c-3.25-.25-16.75-10.5-17.5-18.25a112.789,112.789,0,0,1-.75-16.75c.25-3.25-3.5-14-6.25-15s-10.25-3.25-13-1.25-3.5,11.75-2.75,16,4.25,16.25,3.75,21-7,32.75-19.75,3.75c-3.25-10-3-23-3.25-28.25s-6-24.25-5.5-29.75,2-18.75,7-22.25,9-7.25,18-7,23.75-.75,25.75-1.5,8.25-4.5,8.5-8.75-2.752-10.941-5.5-12.471-6.249-5.779-8-7.279-.75-14.5-.25-18.25-2.75-14.75-2.5-18.5,4.5-18.5,10.749-20.5,15-4,18.751-4,9.5,2.5,13.5-.75,5.5-9.75,6.5-13.5.25-15.75-.75-19.75-4-11.75-3-20.5,3.25-13.25,6.5-18,5.289-5.5,3.644-9-7.04-8.892-7.717-11.7-1.427-22.554.573-27.8,4.25-23.25,3.75-27.75-5.25-66.5-5.75-70.75-11.5-24.25-14.25-27.25-17.5-15.75-21.751-17.75-12.5-11.5-16.749-18.5-8-12-11.25-17.75-8.75-15.5-11.75-21.75-5.2-9.307-12.223-15.028-11.527-9.222-16.277-10.972-24.5-3.5-39.75,5.75-27.75,12.75-30.5,12.5-14.25-.25-6-10.75,22-30.5,23.5-39-.25-10,4.75-17.75-5-26.75-6.75-29.25-5.5-11.75-1.25-17,19-13.5,27.75-20.25,22.75-10.25,25.5-11.5,13.5-4,17.5-7.25,15.575-19.688-4.5-16.75c-18.421,2.695-28.25,12-32.5,12s-13.25-1.75-24.5-2-14,.25-23-3.25-14.5-2-17.75-8.75,3.5-11.25,7.5-10.25,22.5,8.25,29,8.25,23,4,27.5,4,9.75-2.25,12.25-6,6-8.75,6.25-13-1.75-25.5.75-34,6.5-16,13.5-22,20.5-6.5,26-11,10-14,9-22-10-34.5-10-44-2.166-25.834-2.166-31.167-2.334-18.667-.667-29,6-10.667,2.333-19.667-6.333-26.666-10-31.333-1.666-6.667-7.666-8.333-11.416-8.919-21.334-6c-3.729,1.1-21.5,7.333-21.5,14s-1.666,21.667-2.333,27a172.755,172.755,0,0,0-1.667,20.333c0,7-2,25.334-1,37.667s1,20.333,0,30-8,39-10,44.667-1.666,8.666-6.666,17-17.834,33-21.5,35.666-10.334,7-13,12-8.334,11-13.667,11-24.333-1.667-29-2.333-25.333-10-32.667-10.334c-3.626-.164-48.645,12.056-69.25,20.084-9.973,3.886,48.249,47.7,41.75,52-4.474,2.958-25.135,8.892-43.5-1.75-11.283-6.539-24.007-31.52-24.75-31.25-7.333,2.667-13.583,17.25-21.583,21.916s-11.547,13.383-15.167,15.584c-4.592,2.792-27.25,22.25-31,23.25s-23,5.75-26.5,5.75-20.25-2-23-3.5-6-4-11-4.25-8.25-3.5-16.75-6-18-8.25-27.25-9.5-20.491-6.6-19.991-2.6c5,19.551,8.82,28.107-5.726,32.731s-16.408-4.06-22.783-18.991c-4.012-9.4-23.794,3.722-26.5,5.362-8.25,5-30.25,19.75-34.75,21.5s-18,8.75-20,11.75-29,33-34.25,35.75-18.5,12-20.25,16-1.75,12-1.75,16,1.75,34,2.5,37.75,1,17.75,1,17.75"/><path id="4d860d4c-22d7-45e5-a001-79132f87579a" data-name="Track-mid" class="track-mid" d="M58.741,122.768s13.857-23.59,16.715-30,7-19,16.667-24.666,23.667-7.334,29.667-6.667,19.333,0,26-4,22.666-3.667,34.333-3,37.667,7,44.667,9.667,24.333,3.333,27.666,4,21.667,6.351,25.334,10.842,29.333,15.491,32,17.491,15.333,9.333,24.333,13,23.333,15.667,29.333,20.333,20.334,18,22,22,12.334,29.334,13,32,7,17.334,11.667,23,19,13,28.667,14.334,28.666,2.666,34,1.666,11.666-5,18.666-5.333,14-2.667,16.334-4.333,4-5,11.333-6.334,22-.333,27,.334,17.333,7,22.667,11.333,14.049,9.312,15.525,12.99,6.386,13.673,9.93,14.508,9.6,4.678,9.738,8.757-.86,13.745,5.807,15.078,15.666,3,18.666-4.333A174.566,174.566,0,0,0,637.79,240.1c.666-4-1.334-4,3.666-10s4.334-3.667,8.334-9.334-.667-6.487,0-10.577,4.666-17.756,7.333-23.423,8.667-14,13.333-15.333,8.334-1,13.334-3.667,10-5.172,16-5.086,4,2.844,10-.2,8.666-3.046,15.333-1.379,8.667,3.333,12.667,3.333,5,1.333,11,1.333,11.666-.333,18.333-.666,10.333-.667,14,2,5,4,11.667,5.333,11,4,15.333,5.333,7.964,3.779,11.982,7.223,9.018,15.777,8.351,23.444-2.546,20.667.061,25.333,3.606,21,10.273,24,14.666,6.334,21.333,4.334,14.667-4.667,20.667-5.334,7-2.666,10.666-.333,11.667,16.667,15.334,20,6.666,11.333,10.333,12.667,8.333,3.666,15.667,6.333,10.333,3.333,14,7,14.333,16.667,19,18.333,26.666.334,31,0,4.666-2.025,9.333.821,3.99,4.188,8.662,7.184,7.671,3.662,10.671,4.995,5,6.334,11.334,8.334,13,5.333,24,5,21-2.62,25.666.023,9.667,14.31,15,18.31a38.946,38.946,0,0,0,21.334,8.333c9.333.667,10-2.333,14.333,0s2.333,5.334,7,8,3.667,4.334,13.333,3,18.334-5,25.334-7.666,14.333-8,18.666-4.334,13.667,10.939,16.667,12.47,9,6.53,13,6.2,9.667-.667,15.333-6,10-6,11-11.333,1.667-6.667,4-9.334,15.334-18.333,23.667-18,12.181,1.015,16.757,6.341,12.576,17.659,17.91,23.326,27,39.333,35,35,6.333-6,8-12.333,3.666-23,4-27-1.334-15.334-2.667-20.334a123.412,123.412,0,0,0-7.667-20c-3.666-7.666-9.333-12-7-20s.334-13.333,4.667-25.333,16.333-51.333,17.667-55,13.333-24.667-15.334-27.333-30.333,2.333-32.666,2.333-17.667,2-21.334-.667-9-9.666-12.333-14.333-5.333-9-10.667-9.667-8.333,2-13.333-1-14-15-18-15-7.333,1.828-14-3.086a204.3,204.3,0,0,1-16-13.247c-5.667-5-9.667-12.333-16.333-15s-11-4-14.667-8-1-8-11.667-8.333-19.666,2.666-29,1.666-10.333-.666-17-3-13.333-3.333-22-5-8.666-1.666-19.333-4-13.333-1.333-17-2.666-29.333-14-32.333-16.334-10-7-24.667-4.333c-8.2,2.87-11,10.333-16,9.667s-13.667-8.667-20.333-9.667-33.334,2-54,18.667-30.334,16.333-33.334,16.666-11.325.908-10.162-7.213,2.5-10.787.829-17.453-6.436-16.285-14.051-15.643-21.949-1.024-26.616-1.357-5.333-3.334-11.333-3.667-21.333,1.333-22.667,1.333-19,6-26,7-17.666,6.334-23,9.667S746.79,117.1,734.79,117.1s-27.334-4.667-42.667.333-29.333,5-34.667,9.333-22.333,13.334-25.666,15-9,7.667-11.667,9-1.333,9.334-22,8S587.882,154.9,575.5,155s-36.712.1-42.712.1-30.334-6.334-42.334-14-20.333-8.334-23.333-9.667-16.667-18-18.333-22.667-14-31-18.667-34.666-10.333-16.667-24-17-34.333,1.666-38.333.666S348.123,46.1,345.123,45.435s-12.667-3.333-20-4.667-14.667-1.333-18.667-6-8-8.666-13-8.666-14.333,4.333-17,8.333S255.79,38.768,252.79,38.1s-8.334,4.333-11.334,6.666-8.666,10.334-18,3-15.1-16.792-17.552-19.4-19.114-11.6-30.781-14.937S165.79,9.768,160.79,10.1s-10,5-13.334,6.333-15.333,2.667-22,1.667-16.666,2.333-19,2-16.666-8.667-21-7.667-17,6-24.333,22.333S51.456,58.435,47.456,60.435s-17,12-18.333,14.333S22.79,80.435,22.456,84.1s3,14.666,0,16.666-3.091,2.667-3.379,7.667,4.046,18.333,3.713,22"/><path id="f6e782c6-6790-49c6-8c8c-20b2d416d724" data-name="Track-inner" class="track-inner" d="M1654.79,874.1s1.666-50.334,9.666-69-20-48-43-57.334-29.2-12.621-29.2-12.621-15.466-11.379-10.466,5.288-9,46-17.334,52-15,12.667-8,13.667,35,8,34,14-9,28.666-6.333,34.666,16,16.334,21,19.334,15.667,6,12.333,12.666-48,74.334-89.333,100.334-88.667,42.333-92.333,41.666-22.334-23-25-24.666-12.667-16.334-18.334-15.667-21,12.333-23.666,17-12,22.667-13,25.333-7.334,18,3,15.667,36.333-10,39-5-6.334,29.333-6.334,33.667,4.334,41.666,4,45.666-3.666,53.667-2.333,58.667,4.667,10,4,13.667-7,15.333-6.667,18.333-6.333,30.667-1,31.333,14-5.666,16.334-10-2.667-16.666,1-21.333,6-8.333,6.666-11.667-4.333-12,0-17.333,9.334-7.667,14-8,16.667-11.333,20.334-11.667,33.333-5.333,44.333-5.333,15,1.333,21,3.333,40,25.667,57.667,45.334,36.333,34,45.666,39,21.667,16.666,18,29-1.333,20.333.667,22.666,16,18.667,17.333,25.334,8,28,4,56.666-7,50-10.333,54a108.574,108.574,0,0,1-15.333,15.667c-7,5.667-31.667,23.667-38,25s-19.667,5.333-26.334,6-35.333,6-45.333,11.333-30.333,12.667-32.667,19-6.666,5-6.666,9,1,15.334-1,18.667-12.667,16-13.334,20.667-4,18.333-4,23.666-1,14.667,3,19,9.667,5.667,16.334,6.667,15.666,4,17,7,7.333,9.667,14.333,10.333,15.333-.666,19,0,21-3.666,28.667-8.666,17-11.667,28-11.667,38.6-.232,45.333,0c4.833.167,16.083,3.167,17.333,13.417s-.75,15.5,5.25,17.5,22.5,5.25,25.25,7.5,4.25,11.75,1.5,15.5-17.5,11-19.75,13.25-5.75,6.75-9.75,8.5-21.5,9.75-26.5,14.75-15,25-17,28-8.5,12.5-7.5,16.25,3.25,17.25,16.75,12.75,23.25-12.5,24.25-15.25,3.5-9.25,8.25-8.5,8.5,9.565,11.25,24.658,3.5,22.092,2,28.842-5.75,15.25-5.5,20.5-1.75,18.25,8,19.25,17.75-3.25,22.25-10,8-15.75,14-16,21.75,2.75,16.25,18-25,29-26.5,32.25-5.75,17-5.25,22.5-2.75,15.25,5,16.75,29.75-2,37-8,62.75-55.75,66-58.25c14.75-11.75,46-17.25,58.25-17s42.25,1.25,48.25,4.5,40,26.75,46,33,21.5,26.25,65.75,27.25,64.5-3.5,74.5-5,29-5.75,30.25-7.75-4.75-28-9.75-30-13-3.25-15-1.5-15,6.5-20.25,5.25-16-1-15.75-7-1.25-12.5,4.75-14.75,23.5-2.75,27.75-6.25,11-12.25,6.5-19-9.25-12-17.5-9.5-30.247,17.259-35.25,20-10.5,7.25-26.25,3.75-6.25-36.75-6.25-36.75,1.25-13,.75-14.75,3.25-11.25,5.25-14.25,3.5-12.5,4-17.25.25-15.5,3.25-19,9.25-7.75,12.75-7.5,9.25,6,12,12,8.5,20,12,20.75,14.75,3.75,18.25-4,2.25-19.5-.5-23.75-8-14-8.75-19.5-8.5-22-8.75-24-2-16.25,4-19.5,12,3.75,15.5,5.25,24,16,26.75,16.25,15.5,8,21,8,15.25-3.5,20-4.75,13.25-4.75,17-4.5,21.5-1.5,24-2.5,10.25-12,5.5-20.5-34.5-47.5-38-50-17,12.5-17,12.5-12.5,13.25-16.5,14.75-12.75,3.75-16-2.5-5.5-16.25-3-23.5-1.5-21.75-2.5-27-5-16.5-9-20.75-20.25-6.25-25.5-6.5-46.25,8.5-51,10.75-11.75,8-20.5,7.25-15.25-9.75-14.75-15,2-19-1.5-25.5-11.5-12.25-15-16.5-8.75-26.75-7.25-37.5,2-19-1.5-26-21.5-20.25-26-23.25-14-7.25-24-10.5-31.25-11.75-34.75-12.5-29.75-3-36-3.75-29.5.25-35.75-.75-21-3.5-27.5-6.5-48.25-54.25-49.25-55-11.5-15.25,2.25-22.25,59-18.25,62-17.75,51-7.25,55.75-8,28.5-7.5,31-7.25,20.75-1,24.5-3.75,4.25-21.75,3.75-26.5-11-6-15.5-5.25-137.25,15-175.75,32.75c-17.5,8.25-19.25-9.75-19.25-9.75l-11-57.25-9.75-55.25-5.75-49.25"/><path id="78bff24d-60dd-43e5-827a-6632be54de35" data-name="Track-inner" class="track-inner" d="M687.79,1303.1s35.717-20.667,42.191-26.667,24.475-12,31.142-12,17.333-6.667,28-6,26.583,1.667,30.583-5.083,16.75-20.75,21.25-24.25,15.5-16.25,23.25-19,31.75,1,35.25,7.25,2.5,24.5,3.5,28.25-4.25,40.25,10.5,43,17.5-16.25,20.5-19,13-15.5,19.5-17.75,22-13.5,25.5-16,10.5-1.25,17.75-2.75,16.5-11.75,28.25-2.75-1.75,38.25-3.25,40.5-8.25,19.75-3.5,25.25,8.381,14.612,14.691,16.056,18.809,5.444,22.309,11.194,4.75,17.75-5,31.75-8.5,27.75-8.5,31.5-.75,37.25-1,39-5,15.25-8.75,19.25-14,6-12.5,18.5,16.25,26.75,18.25,29.75,9.5,19.25,11.75,22,6,10.25,7,13.5.143,17.25,1.322,19.25,9.428,15,11.678,21,7.25,10.5,9.5,11a17.946,17.946,0,0,1,7.5,3.5c3,2.25,4.174,4.914,6.462,7.707s7.538,7.793,12.538,7.293,12-3.75,12-8-.25-9.5-2-13.5-.75-13.25,2-15.25,7.25-3.75,11.75-.5,7.25,11,7.75,13.5.75,10,2.5,11.75,6.75,17,5.25,22-7.25,11.75-13.25,12.75-9.5.5-11.25,2.75-9.75,8.5-13,9.5-12.25,2.75-13.5,6.5-.25,20.25,2.75,23,5,9,6,14.75-1.75,12-.25,14.5,6.75,10,10.75,8.5,8.5-3,9.5-7.5a33.192,33.192,0,0,0-.25-13.25c-.75-3.25-1-11-.75-15.25s2.5-11.25,5.25-13.5,13.25-8,16.5-8.25,6.25-1.5,10.75,0,8.042,6.6,10.4,10.674,7.316,16.083,10.71,17.079,18.894,7,22.644,7.247,17.75,5.25,23.75,12.5,13.75,15.25,14,19,7,19.75,9.5,25.75,16.5,34.75,24.5,40.25,25.25,16.75,41.5,15.5,28.75-4.75,33.25-8.25,26.5-15,32.75-18.75,18.5-11.75,20.25-14,2-13-9.5-15.5a211.078,211.078,0,0,0-23.5-4c-3.25-.25-16.75-10.5-17.5-18.25a112.789,112.789,0,0,1-.75-16.75c.25-3.25-3.5-14-6.25-15s-10.25-3.25-13-1.25-3.5,11.75-2.75,16,4.25,16.25,3.75,21-7,32.75-19.75,3.75c-3.25-10-3-23-3.25-28.25s-6-24.25-5.5-29.75,2-18.75,7-22.25,9-7.25,18-7,23.75-.75,25.75-1.5,8.25-4.5,8.5-8.75-2.752-10.941-5.5-12.471-6.249-5.779-8-7.279-.75-14.5-.25-18.25-2.75-14.75-2.5-18.5,4.5-18.5,10.749-20.5,15-4,18.751-4,9.5,2.5,13.5-.75,5.5-9.75,6.5-13.5.25-15.75-.75-19.75-4-11.75-3-20.5,3.25-13.25,6.5-18,5.289-5.5,3.644-9-7.04-8.892-7.717-11.7-1.427-22.554.573-27.8,4.25-23.25,3.75-27.75-5.25-66.5-5.75-70.75-11.5-24.25-14.25-27.25-17.5-15.75-21.751-17.75-12.5-11.5-16.749-18.5-8-12-11.25-17.75-8.75-15.5-11.75-21.75-5.2-9.307-12.223-15.028-11.527-9.222-16.277-10.972-24.5-3.5-39.75,5.75-27.75,12.75-30.5,12.5-14.25-.25-6-10.75,22-30.5,23.5-39-.25-10,4.75-17.75-5-26.75-6.75-29.25-5.5-11.75-1.25-17,19-13.5,27.75-20.25,22.75-10.25,25.5-11.5,13.5-4,17.5-7.25,15.575-19.688-4.5-16.75c-18.421,2.695-28.25,12-32.5,12s-13.25-1.75-24.5-2-14,.25-23-3.25-14.5-2-17.75-8.75,3.5-11.25,7.5-10.25,22.5,8.25,29,8.25,23,4,27.5,4,9.75-2.25,12.25-6,6-8.75,6.25-13-1.75-25.5.75-34,6.5-16,13.5-22,20.5-6.5,26-11,10-14,9-22-10-34.5-10-44-2.166-25.834-2.166-31.167-2.334-18.667-.667-29,6-10.667,2.333-19.667-6.333-26.666-10-31.333-1.666-6.667-7.666-8.333-11.416-8.919-21.334-6c-3.729,1.1-21.5,7.333-21.5,14s-1.666,21.667-2.333,27a172.755,172.755,0,0,0-1.667,20.333c0,7-2,25.334-1,37.667s1,20.333,0,30-8,39-10,44.667-1.666,8.666-6.666,17-17.834,33-21.5,35.666-10.334,7-13,12-8.334,11-13.667,11-24.333-1.667-29-2.333-25.333-10-32.667-10.334c-3.626-.164-48.645,12.056-69.25,20.084-9.973,3.886,48.249,47.7,41.75,52-4.474,2.958-25.135,8.892-43.5-1.75-11.283-6.539-24.007-31.52-24.75-31.25-7.333,2.667-13.583,17.25-21.583,21.916s-11.547,13.383-15.167,15.584c-4.592,2.792-27.25,22.25-31,23.25s-23,5.75-26.5,5.75-20.25-2-23-3.5-6-4-11-4.25-8.25-3.5-16.75-6-18-8.25-27.25-9.5-20.491-6.6-19.991-2.6c5,19.551,8.82,28.107-5.726,32.731s-16.408-4.06-22.783-18.991c-4.012-9.4-23.794,3.722-26.5,5.362-8.25,5-30.25,19.75-34.75,21.5s-18,8.75-20,11.75-29,33-34.25,35.75-18.5,12-20.25,16-1.75,12-1.75,16,1.75,34,2.5,37.75,1,17.75,1,17.75"/><path id="7a5d503b-a877-4ca5-a174-d3e0ae3b7399" data-name="Track-inner" class="track-inner" d="M58.741,122.768s13.857-23.59,16.715-30,7-19,16.667-24.666,23.667-7.334,29.667-6.667,19.333,0,26-4,22.666-3.667,34.333-3,37.667,7,44.667,9.667,24.333,3.333,27.666,4,21.667,6.351,25.334,10.842,29.333,15.491,32,17.491,15.333,9.333,24.333,13,23.333,15.667,29.333,20.333,20.334,18,22,22,12.334,29.334,13,32,7,17.334,11.667,23,19,13,28.667,14.334,28.666,2.666,34,1.666,11.666-5,18.666-5.333,14-2.667,16.334-4.333,4-5,11.333-6.334,22-.333,27,.334,17.333,7,22.667,11.333,14.049,9.312,15.525,12.99,6.386,13.673,9.93,14.508,9.6,4.678,9.738,8.757-.86,13.745,5.807,15.078,15.666,3,18.666-4.333A174.566,174.566,0,0,0,637.79,240.1c.666-4-1.334-4,3.666-10s4.334-3.667,8.334-9.334-.667-6.487,0-10.577,4.666-17.756,7.333-23.423,8.667-14,13.333-15.333,8.334-1,13.334-3.667,10-5.172,16-5.086,4,2.844,10-.2,8.666-3.046,15.333-1.379,8.667,3.333,12.667,3.333,5,1.333,11,1.333,11.666-.333,18.333-.666,10.333-.667,14,2,5,4,11.667,5.333,11,4,15.333,5.333,7.964,3.779,11.982,7.223,9.018,15.777,8.351,23.444-2.546,20.667.061,25.333,3.606,21,10.273,24,14.666,6.334,21.333,4.334,14.667-4.667,20.667-5.334,7-2.666,10.666-.333,11.667,16.667,15.334,20,6.666,11.333,10.333,12.667,8.333,3.666,15.667,6.333,10.333,3.333,14,7,14.333,16.667,19,18.333,26.666.334,31,0,4.666-2.025,9.333.821,3.99,4.188,8.662,7.184,7.671,3.662,10.671,4.995,5,6.334,11.334,8.334,13,5.333,24,5,21-2.62,25.666.023,9.667,14.31,15,18.31a38.946,38.946,0,0,0,21.334,8.333c9.333.667,10-2.333,14.333,0s2.333,5.334,7,8,3.667,4.334,13.333,3,18.334-5,25.334-7.666,14.333-8,18.666-4.334,13.667,10.939,16.667,12.47,9,6.53,13,6.2,9.667-.667,15.333-6,10-6,11-11.333,1.667-6.667,4-9.334,15.334-18.333,23.667-18,12.181,1.015,16.757,6.341,12.576,17.659,17.91,23.326,27,39.333,35,35,6.333-6,8-12.333,3.666-23,4-27-1.334-15.334-2.667-20.334a123.412,123.412,0,0,0-7.667-20c-3.666-7.666-9.333-12-7-20s.334-13.333,4.667-25.333,16.333-51.333,17.667-55,13.333-24.667-15.334-27.333-30.333,2.333-32.666,2.333-17.667,2-21.334-.667-9-9.666-12.333-14.333-5.333-9-10.667-9.667-8.333,2-13.333-1-14-15-18-15-7.333,1.828-14-3.086a204.3,204.3,0,0,1-16-13.247c-5.667-5-9.667-12.333-16.333-15s-11-4-14.667-8-1-8-11.667-8.333-19.666,2.666-29,1.666-10.333-.666-17-3-13.333-3.333-22-5-8.666-1.666-19.333-4-13.333-1.333-17-2.666-29.333-14-32.333-16.334-10-7-24.667-4.333c-8.2,2.87-11,10.333-16,9.667s-13.667-8.667-20.333-9.667-33.334,2-54,18.667-30.334,16.333-33.334,16.666-11.325.908-10.162-7.213,2.5-10.787.829-17.453-6.436-16.285-14.051-15.643-21.949-1.024-26.616-1.357-5.333-3.334-11.333-3.667-21.333,1.333-22.667,1.333-19,6-26,7-17.666,6.334-23,9.667S746.79,117.1,734.79,117.1s-27.334-4.667-42.667.333-29.333,5-34.667,9.333-22.333,13.334-25.666,15-9,7.667-11.667,9-1.333,9.334-22,8S587.882,154.9,575.5,155s-36.712.1-42.712.1-30.334-6.334-42.334-14-20.333-8.334-23.333-9.667-16.667-18-18.333-22.667-14-31-18.667-34.666-10.333-16.667-24-17-34.333,1.666-38.333.666S348.123,46.1,345.123,45.435s-12.667-3.333-20-4.667-14.667-1.333-18.667-6-8-8.666-13-8.666-14.333,4.333-17,8.333S255.79,38.768,252.79,38.1s-8.334,4.333-11.334,6.666-8.666,10.334-18,3-15.1-16.792-17.552-19.4-19.114-11.6-30.781-14.937S165.79,9.768,160.79,10.1s-10,5-13.334,6.333-15.333,2.667-22,1.667-16.666,2.333-19,2-16.666-8.667-21-7.667-17,6-24.333,22.333S51.456,58.435,47.456,60.435s-17,12-18.333,14.333S22.79,80.435,22.456,84.1s3,14.666,0,16.666-3.091,2.667-3.379,7.667,4.046,18.333,3.713,22"/><g id="5304d499-c6c2-42c9-967a-41d85c4c6008" data-name="teleportEnter"><path class="3fd6a3fe-a0ff-4fab-9ecc-ebd8bd2fa2fd" d="M1692.784,1013.6s2.748,31.1,6.533,39.3,16.816-19.551,16.816-19.551-13.014,27.844-13.836,36.838,24.184-8.063,24.184-8.063-25.038,17.146-30.247,24.523,24.821,5.571,24.821,5.571-30.1,1.868-38.3,5.653,18.557,17.7,18.557,17.7-26.85-13.895-35.844-14.716,7.069,25.065,7.069,25.065-16.151-25.92-23.529-31.128-6.565,25.7-6.565,25.7-.873-30.983-4.658-39.183-18.691,19.437-18.691,19.437,14.889-27.73,15.711-36.724-26.059,7.949-26.059,7.949,26.914-17.032,32.122-24.409-26.7-5.685-26.7-5.685,31.978-1.754,40.178-5.539-20.432-17.81-20.432-17.81,28.725,14.009,37.718,14.83-8.943-25.178-8.943-25.178,18.026,26.033,25.4,31.241S1692.784,1013.6,1692.784,1013.6Z"/><text class="5653ab88-ed5d-48ed-8e99-9cc9cd7af5c5" transform="translate(1647.741 1094.24)">1</text></g><g id="6f3a3484-ba82-4cf6-b7e5-966e4f96a3ce" data-name="teleportExit"><path class="e3a4efac-f669-438d-a36f-de8c4e9f95f4" d="M711.284,1270.834s2.748,31.1,6.533,39.3,16.816-19.551,16.816-19.551-13.014,27.844-13.836,36.838,24.184-8.063,24.184-8.063-25.038,17.146-30.247,24.523,24.821,5.571,24.821,5.571-30.1,1.868-38.3,5.653,18.557,17.7,18.557,17.7-26.85-13.895-35.844-14.716,7.069,25.065,7.069,25.065-16.151-25.92-23.529-31.128-6.565,25.7-6.565,25.7-.873-30.983-4.658-39.183-18.691,19.437-18.691,19.437,14.889-27.73,15.711-36.724-26.059,7.949-26.059,7.949,26.914-17.031,32.122-24.409-26.7-5.685-26.7-5.685,31.978-1.754,40.178-5.539-20.432-17.81-20.432-17.81,28.725,14.009,37.718,14.83-8.943-25.178-8.943-25.178,18.026,26.033,25.4,31.241S711.284,1270.834,711.284,1270.834Z"/><text class="55cbae0a-cf33-4ea6-b9c1-5b8175af00d2" transform="translate(667.241 1351.479)">1</text></g><g id="7341fd62-7a3c-4f51-a6a5-459e36074f75" data-name="teleportexit2"><path class="e3a4efac-f669-438d-a36f-de8c4e9f95f4" d="M111.315,88.87s2.748,31.1,6.533,39.3,16.816-19.551,16.816-19.551-13.015,27.844-13.836,36.838,24.184-8.063,24.184-8.063-25.039,17.145-30.247,24.523,24.821,5.571,24.821,5.571-30.1,1.868-38.3,5.653,18.557,17.7,18.557,17.7S92.99,176.938,84,176.117s7.068,25.065,7.068,25.065-16.151-25.92-23.528-31.128-6.565,25.7-6.565,25.7-.874-30.983-4.659-39.183S37.622,176.01,37.622,176.01s14.89-27.73,15.711-36.724-26.059,7.949-26.059,7.949S54.188,130.2,59.4,122.826s-26.7-5.685-26.7-5.685,31.978-1.754,40.177-5.539-20.431-17.81-20.431-17.81S81.17,107.8,90.163,108.622s-8.942-25.178-8.942-25.178,18.025,26.033,25.4,31.241S111.315,88.87,111.315,88.87Z"/><text class="55cbae0a-cf33-4ea6-b9c1-5b8175af00d2" transform="translate(66.939 167.182)">2</text></g><g id="8d3184b1-39cc-4ea2-815a-aab69295b698" data-name="teleportEnter2"><path class="3fd6a3fe-a0ff-4fab-9ecc-ebd8bd2fa2fd" d="M697.628,1195.965s2.748,31.1,6.533,39.3,16.816-19.551,16.816-19.551-13.015,27.844-13.836,36.837,24.184-8.063,24.184-8.063-25.039,17.146-30.247,24.523,24.821,5.571,24.821,5.571-30.1,1.868-38.3,5.654,18.557,17.7,18.557,17.7-26.851-13.894-35.844-14.716,7.068,25.065,7.068,25.065-16.151-25.92-23.528-31.128-6.565,25.7-6.565,25.7-.874-30.983-4.659-39.182-18.691,19.437-18.691,19.437,14.89-27.731,15.712-36.724-26.059,7.948-26.059,7.948,26.913-17.031,32.121-24.409-26.7-5.684-26.7-5.684,31.978-1.754,40.177-5.539-20.431-17.811-20.431-17.811,28.724,14.009,37.718,14.831-8.943-25.179-8.943-25.179,18.025,26.033,25.4,31.242S697.628,1195.965,697.628,1195.965Z"/><text class="5653ab88-ed5d-48ed-8e99-9cc9cd7af5c5" transform="translate(652.585 1276.611)">2</text></g><use width="131.5" height="34" transform="translate(1632.206 870.534) scale(0.342)" xlink:href="#93eed32b-7a56-43ec-9520-54dd817d6466"/><use width="131.5" height="35.125" transform="translate(0 127.798) scale(0.342)" xlink:href="#ca6eb241-7e88-409a-87da-9d70ef395191"/></g></g></g></svg>