<svg xmlns="http://www.w3.org/2000/svg" xmlns:xlink="http://www.w3.org/1999/xlink" width="2124.836" height="2974.171" viewBox="0 0 2124.836 2974.171"><defs><style>.\30 fe2d3ef-d829-4bdb-b34b-6da25281e32d{fill:#fff;}.\31 d386dd8-88d3-46cb-981f-19f1ac6e2b2a{fill:#00ff24;}.\31 9969f78-e515-44a0-bfcd-32364cd60f0a,.\36 d3d4ac7-dce7-41fa-a6da-af68090c475f,.c1a5b8b0-b2e2-49d1-b607-c86d8a2850fa{fill:none;stroke-linejoin:round;}.\31 9969f78-e515-44a0-bfcd-32364cd60f0a,.\36 d3d4ac7-dce7-41fa-a6da-af68090c475f{stroke:#0080ff;}.\36 d3d4ac7-dce7-41fa-a6da-af68090c475f{stroke-width:19.352px;}.c1a5b8b0-b2e2-49d1-b607-c86d8a2850fa{stroke:#fff;stroke-width:9.676px;}.\31 9969f78-e515-44a0-bfcd-32364cd60f0a{stroke-width:2.765px;}</style><symbol id="a1b20237-4e92-4e11-81c3-3c6f36576348" data-name="finish line" viewBox="0 0 131.5 35.125"><rect class="0fe2d3ef-d829-4bdb-b34b-6da25281e32d" x="1.5" y="1.5" width="32.125" height="32.125"/><path d="M35.125,35.125H0V0H35.125ZM3,32.125H32.125V3H3Z"/><rect class="0fe2d3ef-d829-4bdb-b34b-6da25281e32d" x="33.625" y="1.5" width="32.125" height="32.125"/><path d="M67.25,35.125H32.125V0H67.25Zm-32.125-3H64.25V3H35.125Z"/><rect class="0fe2d3ef-d829-4bdb-b34b-6da25281e32d" x="65.75" y="1.5" width="32.125" height="32.125"/><path d="M99.375,35.125H64.25V0H99.375Zm-32.125-3H96.375V3H67.25Z"/><rect class="0fe2d3ef-d829-4bdb-b34b-6da25281e32d" x="97.875" y="1.5" width="32.125" height="32.125"/><path d="M131.5,35.125H96.375V0H131.5Zm-32.125-3H128.5V3H99.375Z"/></symbol><symbol id="2b4cd101-89e1-4291-a92d-cdf2cb50c911" data-name="start line" viewBox="0 0 131.5 34"><rect class="1d386dd8-88d3-46cb-981f-19f1ac6e2b2a" x="1.5" y="1.5" width="128.5" height="31"/><path d="M131.5,34H0V0H131.5ZM3,31H128.5V3H3Z"/></symbol></defs><title>Mr_Salmon&amp;apos;s_Wild_Ride</title><g id="b37c7d35-a87d-4f1d-b0c8-8f530b3c4500" data-name="Layer 2"><g id="ff512926-26dd-4317-b2ad-95436d7f3f35" data-name="Rally"><g id="b90c3edd-c1ce-4d0e-bc19-bfc9eadd4b25" data-name="Mr_Salmon&apos;s_Wild_Ride"><path id="542bd365-5f97-49a6-8973-8440f839b632" data-name="Track" class="6d3d4ac7-dce7-41fa-a6da-af68090c475f" d="M1074.119,2955.38l42.829-77.715,34.886-68.389,46.4-79.327,4.069-6.355a43,43,0,0,1,22.067-17.42h0a20.459,20.459,0,0,0,12.128-20.361l-2.8-34.73-3.281-22.624h0a36.106,36.106,0,0,0-14.836-22.381l-4.852-3.351-23.832-11.4-12.607-7.081h0a9.141,9.141,0,0,0-12.348,3.579l-.6,1.084h0a41.537,41.537,0,0,1-20.389,19.279l-7.243,3.172-16.579,4.836h0a33.425,33.425,0,0,0-14.43,9.368l-6.985,7.729-5.7,7.426h0a19.881,19.881,0,0,0-4.742,13.585l.425,12.32.345,8.808h0a30.494,30.494,0,0,0,7.388,19.427l2.456,2.851h0a9.531,9.531,0,0,1,.868,10.976l-.868,1.458-60.963,107.765h0a12.519,12.519,0,0,1-17.667,3.393l-2.539-1.781h0a61.021,61.021,0,0,1-11.034-81.432l6.659-10.675,44.672-74.836,44.441-81.975h0a19.611,19.611,0,0,1,10.188-8.917l3.168-1.215h0a88.737,88.737,0,0,0,43.559-39.755l7.329-13.667,13.126-26.25,11.743-23.948,13.586-24.638,8.005-12.27a276.617,276.617,0,0,1,47.519-55.265l11.023-9.834,17.961-19.8,5.68-5.376a10.379,10.379,0,0,1,14.353.08h0a8.806,8.806,0,0,1,.356,12.323l-2.659,2.874-31.316,31.086-20.033,20.321h0a211.084,211.084,0,0,0-34.7,44.764l-.879,1.52-8.866,15.6h0c-4.235,7.714-7.664,16.3-7.829,25.1l.231,10.823-.231,32.7h0a47.873,47.873,0,0,0,4.8,21.872l2.8,5.76,13.586,27.172,11.513,26.25,7.369,23.027h0a11.989,11.989,0,0,0,22.16,1.154l4.781-10.135,17.5-32.007h0a165.25,165.25,0,0,1,21.853-30.215l8.772-9.621,24.178-27.862h0a19.62,19.62,0,0,0,4.753-16.607l-2.22-12.407-2.3-18.421-.876-6.237a12.449,12.449,0,0,1,4.392-11.322l1.319-1.092,6.678-5.93h0a16.952,16.952,0,0,1,10.361-3.078l3.973.142,21.587,2.073,8.121.792a11.811,11.811,0,0,0,10.037-3.978l4.466-5.1,58.891-67.18h0a106.529,106.529,0,0,1,74.362-37.4l43.764-2.835,37.994-4.145,26.481-2.3,2.463-.3a64.891,64.891,0,0,1,38.754,7.434h0a78.846,78.846,0,0,0,36.09,8.319l24.7-.26,14.967-.23,1.322-.09a117.762,117.762,0,0,0,24.091-4.178l12.581-3.561L1852.188,2318l27.4-9.441.572-.2a12.378,12.378,0,0,0,7.257-16.608h0l-18.191-50.2h0a54.207,54.207,0,0,1-2.152-18.921l.252-3.991v-8.462h0a5.7,5.7,0,0,0-5.7-5.7H1858l-18.651-.518-.689-.039a8.689,8.689,0,0,0-9.155,8.156h0a48.737,48.737,0,0,1-6.594,23.83l-1.005,1.729h0a32.247,32.247,0,0,0-.229,22.536l1.093,3.024,2.162,5.029a15.968,15.968,0,0,0,19.682,8.854l7.515-2.485,30.049-11.4,44.384-16.407,23.142-9.671h0a97.8,97.8,0,0,1,37.063-7.547l8.357-.052,43.52-.172,1.205.017a10.224,10.224,0,0,0,10.366-10.552h0l-.518-12.262h0a29.3,29.3,0,0,0-7.566-17.741l-3.66-4.019-13.29-14.436a133.14,133.14,0,0,0-14.5-13.564l-16.075-12.93-14.68-12.78-2.463-1.951a109.2,109.2,0,0,0-14.122-9.5l-11.219-6.337-74.088-43.175-15.949-8.927a124.26,124.26,0,0,1-21.412-15.159l-14.622-12.871-29.877-25.387h0a68.129,68.129,0,0,0-25.98-15.5l-18.749-6.089-10.764-3.767a135.246,135.246,0,0,1-31.624-15.987h0a46.554,46.554,0,0,1-10.42-9.774l-19.035-24.354-24.178-36.267-32.813-46.859-15.889-23.487h0a52.647,52.647,0,0,0-16.013-17.485l-8.395-5.772-56.185-30.856-57.106-32.007-13.6-7.191a63.276,63.276,0,0,0-30.4-7.337l-19.554.252-17.27,1.382h0A17.7,17.7,0,0,0,1372.338,1741l-.255,1.339h0a87.218,87.218,0,0,1-17.038,47.365l-9.442,12.734h0a40.082,40.082,0,0,0-1.53,53.408l7.977,9.455,29.244,31.086,13.752,14.286a173.52,173.52,0,0,0,21.5,18.924l30.605,22.744,25.56,17.27,20.263,13.586h0a99.169,99.169,0,0,0,80.13,4.158l1.845-.7,13.585-4.375h0a11.7,11.7,0,0,1,14.854,10.408l.114,1.566.034.509a102.646,102.646,0,0,0,5.032,25.511h0a26.066,26.066,0,0,0,28.572,15.16l4.816-.884h0a36.329,36.329,0,0,1,15.465-1.224l20.687,2.836,15.358,1.676a120.841,120.841,0,0,0,19.985.517l15.525-.884a54.508,54.508,0,0,0,20.622-5.345l29.763-14.388a162.412,162.412,0,0,0,17.481-9.825l25.413-16.422,21.414-14.737.733-.578a38.68,38.68,0,0,0,14-22.91h0a59.912,59.912,0,0,1,14.169-31.639l4.713-5.433,55.955-63.554,1.68-1.978a19.672,19.672,0,0,1,27.564-2.4h0l39.836,34.079h0a26.564,26.564,0,0,0,30.91,2.637l17.906-10.7,56.185-34.54h0a17.986,17.986,0,0,0,2.365-27.766l-6.28-6.083-92.336-75.067-22.106-19.572h0a37.932,37.932,0,0,0-22.936-6.669l-18.281.682-26.942,1.381h0a36.636,36.636,0,0,0-22.744,12.818l-4.657,5.6-22.336,25.789h0a16.1,16.1,0,0,1-23.4,2.92l-2.386-2-63.093-53.192-41.217-34.77h0a50.685,50.685,0,0,1-20.494-40.712v-23.763l.691-172.7.007-.233a14.653,14.653,0,0,0-14.975-15.08h0l-13.059.394a140.147,140.147,0,0,1-27.125-1.82l-15.687-2.6a157.486,157.486,0,0,1-19.23-4.44l-105.657-31.486-26.021-7.829-.427-.1a13.794,13.794,0,0,0-16.843,13.452h0l-.134,4.3a190.425,190.425,0,0,1-4.407,35.2l-2.827,12.77-6.447,25.559h0a65.284,65.284,0,0,1-15.958,26.09l-13.286,13.286-26.481,27.4h0a28.45,28.45,0,0,1-41.857-3.415l-4.406-5.687q-3.474-4.482-7.223-8.74l-40.462-45.941-11.524-13.259a163.151,163.151,0,0,1-17.53-24.38l-16.309-27.757-36.152-64.474-42.829-78.751-13.194-24.076a158.7,158.7,0,0,0-21.968-30.73l-16.188-17.728-3.84-4.552a188.1,188.1,0,0,0-49.218-41.312l-11.416-6.637-28.323-14.852-32.467-13.7h0a58.56,58.56,0,0,1-20.053-15.5l-2.053-2.464h0a11.159,11.159,0,0,0-16.693-1.317l-5.873,5.692-33.158,29.7-24.408,21.645-11.553,10.41a170.492,170.492,0,0,1-19.951,15.462l-27.675,18.339-39.836,26.711h0a26.533,26.533,0,0,0-10.875,27.593l1.434,6.486,22.015,78.832a302.764,302.764,0,0,0,10.337,30.6l6.148,15.43q5.478,13.748,9.583,27.985l6.951,24.111h0a17.124,17.124,0,0,1-10.026,20.011l-3.79,1.576-45.593,19.285h0a7.828,7.828,0,0,1-10.848-7.634l.256-4.8-2.3-46.053h0a90.394,90.394,0,0,0-12.754-42.8l-5.667-9.469L745.7,1303.9a139.676,139.676,0,0,1-8.146-15.213l-9.063-19.774L727.464,1267a212.907,212.907,0,0,0-29.18-41.5l-3.413-3.8-14.737-18.191h0a32.331,32.331,0,0,0-15.551-12.462l-18.759-7.111-54.113-22.336-4.181-1.639a141.7,141.7,0,0,1-44.074-27.507l-5.627-5.163L478.42,1077.79l-65.856-61.021-52.04-50.2-50.889-49.277-3.34-3.8a44.967,44.967,0,0,1-9.555-17.619h0a39.643,39.643,0,0,0-14.02-21.852l-14.072-11.076L195.884,804,139.7,759.792,85.356,719.5l-2.83-2.281A88.352,88.352,0,0,0,54.55,702.031L45.29,699l-6.476-1.915A40.662,40.662,0,0,1,10.641,649.32l1.03-4.661h0A105.126,105.126,0,0,1,33.086,598.01l13.585-16.9,1.916-1.955a164.808,164.808,0,0,1,46.754-33.406l8.9-4.245,6.543-2.042a111.734,111.734,0,0,1,52.67-3.378l21.61,3.808,21.645,7.829h0c23.16,11.127,30.418,48.969,20.724,72.764L220.983,634.3h0a62.18,62.18,0,0,0,12.479,70.046l9.857,9.856,39.6,31.317L314.7,768.542,329.9,778.9h0A57.173,57.173,0,0,0,395,763.789l8.124-9.293,32.007-39.721,2.479-2.993a181.466,181.466,0,0,1,36.206-33.274h0l3.344-2.958a84.1,84.1,0,0,0,22.047-30.976l2.241-5.441h0a94.18,94.18,0,0,0,5-26.988l.177-4.789h0A63.694,63.694,0,0,1,520.985,571.2l4.64-5.64L539.1,551.056h0a19.623,19.623,0,0,0-.714-25.634l-3.086-3.38-.491-.553a239.662,239.662,0,0,1-31.727-45.415l-3.7-6.878L482.45,437.074h0a111.714,111.714,0,0,0-26.278-34.834L441,388.718l-48.01-45.938-16.925-15.543h0a13.732,13.732,0,0,1,4.419-22.033l16.65-7.326,9.723-3.991a105.084,105.084,0,0,0,12.93-6.377l10.679-6.211h0a15.733,15.733,0,0,1,17.122.758l6.192,4.423,33.676,21.76,12.648,7.87a87,87,0,0,0,22.776,9.985l17.25,4.769,9.727,1.88a69.009,69.009,0,0,0,21.761.708l16.35-2.07,29.1-3.775q2.853-.369,5.723-.567l25.568-1.76.286-.029A21.215,21.215,0,0,0,667.7,302.714h0L666.318,279h0a79.246,79.246,0,0,1,13.407-49.735l7.317-10.825h0a29.888,29.888,0,0,0,2.553-39.054l-.942-1.242-23.717-31.316-1.209-1.689a28.2,28.2,0,0,1,.518-33.542h0a91.814,91.814,0,0,0,10.091-17.222l5.8-12.943.447-.856A117.137,117.137,0,0,1,715.364,40.21h0l5.25-3.34a126.844,126.844,0,0,1,37.74-16.144l12.5-3.082,6.233-1.476a112.662,112.662,0,0,1,22.843-2.988l21.813-.6L882.422,11.2l35.4-1.394a164.274,164.274,0,0,1,16.915.206l40.249,2.569,6.7.905a200.545,200.545,0,0,0,37.87,1.5l12.425-.683h0a13.61,13.61,0,0,1,14.444,10.44l.063.268h0A22.2,22.2,0,0,0,1059.9,37.388l8.466,2.822,3.164.912a116.867,116.867,0,0,0,21.218,4.038l6.013.577h0a31.2,31.2,0,0,1,27.895,31.244l-.032,4.677V94.093h0a83.835,83.835,0,0,0,3.74,24.764l4.089,13.23h0a13.66,13.66,0,0,1-17.729,16l-3.686-1.26-4.3-1.452a95.3,95.3,0,0,0-26.179-4.916l-1.761-.08h0a8.771,8.771,0,0,0-7.77,9.028l.171,4.788h0a35.437,35.437,0,0,1-3.91,21.744l-2.307,4.276h0a32.6,32.6,0,0,0-4.748,19.5l.142,1.919h0a55.583,55.583,0,0,0,6.75,17.714l3.152,5.313h0a101.473,101.473,0,0,0,19.04,20.814l4.907,4.054h0a34.917,34.917,0,0,0,15.377,4.655l17.782,1.1,69.31-.23,38.685.23,11.794.109a114.661,114.661,0,0,1,25.786,3.184l6.4,1.543h0a15.277,15.277,0,0,1,8.8,6.043l4.326,6.161,1.235,1.463a18.256,18.256,0,0,0,18.751,5.834l1.392-.379a69.488,69.488,0,0,0,14.606-5.828l8.457-4.544,15.658-7.829h0a61.18,61.18,0,0,1,20.913-3.685h16.39l209.542,3.685h0a14.291,14.291,0,0,1,13.816,14.284v9.663l.921,60.791h0a37.262,37.262,0,0,1-39.1,37.217l-26.3-1.3-37.3-1.842h0a69.294,69.294,0,0,0-64.8,43.005l-1.061,2.588-19.8,47.895L1403.4,531.368h0a63.559,63.559,0,0,1-26.723,26.687l-10.58,5.55-90.264,46.514-14.094,7.708a40.192,40.192,0,0,0-19.68,25.4l-5.371,21.23h0a115.92,115.92,0,0,1-10.89,34.214l-.163.326h0a37.617,37.617,0,0,1-15.784,15.421l-19.216,9.908L1066.75,785.582,982.934,827.49l-28.083,14.041a210.018,210.018,0,0,0-30.646,18.762l-29.233,21.54L824.51,939.86l-102.7,74.146-21.661,16.512a354.676,354.676,0,0,0-61.682,60.184l-11.987,14.95-37.442,45-14.535,17.471-135,162.266L311.477,1481.907"/><path id="a98d50e5-45cb-4931-9270-9686e633a51d" data-name="Track" class="c1a5b8b0-b2e2-49d1-b607-c86d8a2850fa" d="M1074.119,2955.38l42.829-77.715,34.886-68.389,46.4-79.327,4.069-6.355a43,43,0,0,1,22.067-17.42h0a20.459,20.459,0,0,0,12.128-20.361l-2.8-34.73-3.281-22.624h0a36.106,36.106,0,0,0-14.836-22.381l-4.852-3.351-23.832-11.4-12.607-7.081h0a9.141,9.141,0,0,0-12.348,3.579l-.6,1.084h0a41.537,41.537,0,0,1-20.389,19.279l-7.243,3.172-16.579,4.836h0a33.425,33.425,0,0,0-14.43,9.368l-6.985,7.729-5.7,7.426h0a19.881,19.881,0,0,0-4.742,13.585l.425,12.32.345,8.808h0a30.494,30.494,0,0,0,7.388,19.427l2.456,2.851h0a9.531,9.531,0,0,1,.868,10.976l-.868,1.458-60.963,107.765h0a12.519,12.519,0,0,1-17.667,3.393l-2.539-1.781h0a61.021,61.021,0,0,1-11.034-81.432l6.659-10.675,44.672-74.836,44.441-81.975h0a19.611,19.611,0,0,1,10.188-8.917l3.168-1.215h0a88.737,88.737,0,0,0,43.559-39.755l7.329-13.667,13.126-26.25,11.743-23.948,13.586-24.638,8.005-12.27a276.617,276.617,0,0,1,47.519-55.265l11.023-9.834,17.961-19.8,5.68-5.376a10.379,10.379,0,0,1,14.353.08h0a8.806,8.806,0,0,1,.356,12.323l-2.659,2.874-31.316,31.086-20.033,20.321h0a211.084,211.084,0,0,0-34.7,44.764l-.879,1.52-8.866,15.6h0c-4.235,7.714-7.664,16.3-7.829,25.1l.231,10.823-.231,32.7h0a47.873,47.873,0,0,0,4.8,21.872l2.8,5.76,13.586,27.172,11.513,26.25,7.369,23.027h0a11.989,11.989,0,0,0,22.16,1.154l4.781-10.135,17.5-32.007h0a165.25,165.25,0,0,1,21.853-30.215l8.772-9.621,24.178-27.862h0a19.62,19.62,0,0,0,4.753-16.607l-2.22-12.407-2.3-18.421-.876-6.237a12.449,12.449,0,0,1,4.392-11.322l1.319-1.092,6.678-5.93h0a16.952,16.952,0,0,1,10.361-3.078l3.973.142,21.587,2.073,8.121.792a11.811,11.811,0,0,0,10.037-3.978l4.466-5.1,58.891-67.18h0a106.529,106.529,0,0,1,74.362-37.4l43.764-2.835,37.994-4.145,26.481-2.3,2.463-.3a64.891,64.891,0,0,1,38.754,7.434h0a78.846,78.846,0,0,0,36.09,8.319l24.7-.26,14.967-.23,1.322-.09a117.762,117.762,0,0,0,24.091-4.178l12.581-3.561L1852.188,2318l27.4-9.441.572-.2a12.378,12.378,0,0,0,7.257-16.608h0l-18.191-50.2h0a54.207,54.207,0,0,1-2.152-18.921l.252-3.991v-8.462h0a5.7,5.7,0,0,0-5.7-5.7H1858l-18.651-.518-.689-.039a8.689,8.689,0,0,0-9.155,8.156h0a48.737,48.737,0,0,1-6.594,23.83l-1.005,1.729h0a32.247,32.247,0,0,0-.229,22.536l1.093,3.024,2.162,5.029a15.968,15.968,0,0,0,19.682,8.854l7.515-2.485,30.049-11.4,44.384-16.407,23.142-9.671h0a97.8,97.8,0,0,1,37.063-7.547l8.357-.052,43.52-.172,1.205.017a10.224,10.224,0,0,0,10.366-10.552h0l-.518-12.262h0a29.3,29.3,0,0,0-7.566-17.741l-3.66-4.019-13.29-14.436a133.14,133.14,0,0,0-14.5-13.564l-16.075-12.93-14.68-12.78-2.463-1.951a109.2,109.2,0,0,0-14.122-9.5l-11.219-6.337-74.088-43.175-15.949-8.927a124.26,124.26,0,0,1-21.412-15.159l-14.622-12.871-29.877-25.387h0a68.129,68.129,0,0,0-25.98-15.5l-18.749-6.089-10.764-3.767a135.246,135.246,0,0,1-31.624-15.987h0a46.554,46.554,0,0,1-10.42-9.774l-19.035-24.354-24.178-36.267-32.813-46.859-15.889-23.487h0a52.647,52.647,0,0,0-16.013-17.485l-8.395-5.772-56.185-30.856-57.106-32.007-13.6-7.191a63.276,63.276,0,0,0-30.4-7.337l-19.554.252-17.27,1.382h0A17.7,17.7,0,0,0,1372.338,1741l-.255,1.339h0a87.218,87.218,0,0,1-17.038,47.365l-9.442,12.734h0a40.082,40.082,0,0,0-1.53,53.408l7.977,9.455,29.244,31.086,13.752,14.286a173.52,173.52,0,0,0,21.5,18.924l30.605,22.744,25.56,17.27,20.263,13.586h0a99.169,99.169,0,0,0,80.13,4.158l1.845-.7,13.585-4.375h0a11.7,11.7,0,0,1,14.854,10.408l.114,1.566.034.509a102.646,102.646,0,0,0,5.032,25.511h0a26.066,26.066,0,0,0,28.572,15.16l4.816-.884h0a36.329,36.329,0,0,1,15.465-1.224l20.687,2.836,15.358,1.676a120.841,120.841,0,0,0,19.985.517l15.525-.884a54.508,54.508,0,0,0,20.622-5.345l29.763-14.388a162.412,162.412,0,0,0,17.481-9.825l25.413-16.422,21.414-14.737.733-.578a38.68,38.68,0,0,0,14-22.91h0a59.912,59.912,0,0,1,14.169-31.639l4.713-5.433,55.955-63.554,1.68-1.978a19.672,19.672,0,0,1,27.564-2.4h0l39.836,34.079h0a26.564,26.564,0,0,0,30.91,2.637l17.906-10.7,56.185-34.54h0a17.986,17.986,0,0,0,2.365-27.766l-6.28-6.083-92.336-75.067-22.106-19.572h0a37.932,37.932,0,0,0-22.936-6.669l-18.281.682-26.942,1.381h0a36.636,36.636,0,0,0-22.744,12.818l-4.657,5.6-22.336,25.789h0a16.1,16.1,0,0,1-23.4,2.92l-2.386-2-63.093-53.192-41.217-34.77h0a50.685,50.685,0,0,1-20.494-40.712v-23.763l.691-172.7.007-.233a14.653,14.653,0,0,0-14.975-15.08h0l-13.059.394a140.147,140.147,0,0,1-27.125-1.82l-15.687-2.6a157.486,157.486,0,0,1-19.23-4.44l-105.657-31.486-26.021-7.829-.427-.1a13.794,13.794,0,0,0-16.843,13.452h0l-.134,4.3a190.425,190.425,0,0,1-4.407,35.2l-2.827,12.77-6.447,25.559h0a65.284,65.284,0,0,1-15.958,26.09l-13.286,13.286-26.481,27.4h0a28.45,28.45,0,0,1-41.857-3.415l-4.406-5.687q-3.474-4.482-7.223-8.74l-40.462-45.941-11.524-13.259a163.151,163.151,0,0,1-17.53-24.38l-16.309-27.757-36.152-64.474-42.829-78.751-13.194-24.076a158.7,158.7,0,0,0-21.968-30.73l-16.188-17.728-3.84-4.552a188.1,188.1,0,0,0-49.218-41.312l-11.416-6.637-28.323-14.852-32.467-13.7h0a58.56,58.56,0,0,1-20.053-15.5l-2.053-2.464h0a11.159,11.159,0,0,0-16.693-1.317l-5.873,5.692-33.158,29.7-24.408,21.645-11.553,10.41a170.492,170.492,0,0,1-19.951,15.462l-27.675,18.339-39.836,26.711h0a26.533,26.533,0,0,0-10.875,27.593l1.434,6.486,22.015,78.832a302.764,302.764,0,0,0,10.337,30.6l6.148,15.43q5.478,13.748,9.583,27.985l6.951,24.111h0a17.124,17.124,0,0,1-10.026,20.011l-3.79,1.576-45.593,19.285h0a7.828,7.828,0,0,1-10.848-7.634l.256-4.8-2.3-46.053h0a90.394,90.394,0,0,0-12.754-42.8l-5.667-9.469L745.7,1303.9a139.676,139.676,0,0,1-8.146-15.213l-9.063-19.774L727.464,1267a212.907,212.907,0,0,0-29.18-41.5l-3.413-3.8-14.737-18.191h0a32.331,32.331,0,0,0-15.551-12.462l-18.759-7.111-54.113-22.336-4.181-1.639a141.7,141.7,0,0,1-44.074-27.507l-5.627-5.163L478.42,1077.79l-65.856-61.021-52.04-50.2-50.889-49.277-3.34-3.8a44.967,44.967,0,0,1-9.555-17.619h0a39.643,39.643,0,0,0-14.02-21.852l-14.072-11.076L195.884,804,139.7,759.792,85.356,719.5l-2.83-2.281A88.352,88.352,0,0,0,54.55,702.031L45.29,699l-6.476-1.915A40.662,40.662,0,0,1,10.641,649.32l1.03-4.661h0A105.126,105.126,0,0,1,33.086,598.01l13.585-16.9,1.916-1.955a164.808,164.808,0,0,1,46.754-33.406l8.9-4.245,6.543-2.042a111.734,111.734,0,0,1,52.67-3.378l21.61,3.808,21.645,7.829h0c23.16,11.127,30.418,48.969,20.724,72.764L220.983,634.3h0a62.18,62.18,0,0,0,12.479,70.046l9.857,9.856,39.6,31.317L314.7,768.542,329.9,778.9h0A57.173,57.173,0,0,0,395,763.789l8.124-9.293,32.007-39.721,2.479-2.993a181.466,181.466,0,0,1,36.206-33.274h0l3.344-2.958a84.1,84.1,0,0,0,22.047-30.976l2.241-5.441h0a94.18,94.18,0,0,0,5-26.988l.177-4.789h0A63.694,63.694,0,0,1,520.985,571.2l4.64-5.64L539.1,551.056h0a19.623,19.623,0,0,0-.714-25.634l-3.086-3.38-.491-.553a239.662,239.662,0,0,1-31.727-45.415l-3.7-6.878L482.45,437.074h0a111.714,111.714,0,0,0-26.278-34.834L441,388.718l-48.01-45.938-16.925-15.543h0a13.732,13.732,0,0,1,4.419-22.033l16.65-7.326,9.723-3.991a105.084,105.084,0,0,0,12.93-6.377l10.679-6.211h0a15.733,15.733,0,0,1,17.122.758l6.192,4.423,33.676,21.76,12.648,7.87a87,87,0,0,0,22.776,9.985l17.25,4.769,9.727,1.88a69.009,69.009,0,0,0,21.761.708l16.35-2.07,29.1-3.775q2.853-.369,5.723-.567l25.568-1.76.286-.029A21.215,21.215,0,0,0,667.7,302.714h0L666.318,279h0a79.246,79.246,0,0,1,13.407-49.735l7.317-10.825h0a29.888,29.888,0,0,0,2.553-39.054l-.942-1.242-23.717-31.316-1.209-1.689a28.2,28.2,0,0,1,.518-33.542h0a91.814,91.814,0,0,0,10.091-17.222l5.8-12.943.447-.856A117.137,117.137,0,0,1,715.364,40.21h0l5.25-3.34a126.844,126.844,0,0,1,37.74-16.144l12.5-3.082,6.233-1.476a112.662,112.662,0,0,1,22.843-2.988l21.813-.6L882.422,11.2l35.4-1.394a164.274,164.274,0,0,1,16.915.206l40.249,2.569,6.7.905a200.545,200.545,0,0,0,37.87,1.5l12.425-.683h0a13.61,13.61,0,0,1,14.444,10.44l.063.268h0A22.2,22.2,0,0,0,1059.9,37.388l8.466,2.822,3.164.912a116.867,116.867,0,0,0,21.218,4.038l6.013.577h0a31.2,31.2,0,0,1,27.895,31.244l-.032,4.677V94.093h0a83.835,83.835,0,0,0,3.74,24.764l4.089,13.23h0a13.66,13.66,0,0,1-17.729,16l-3.686-1.26-4.3-1.452a95.3,95.3,0,0,0-26.179-4.916l-1.761-.08h0a8.771,8.771,0,0,0-7.77,9.028l.171,4.788h0a35.437,35.437,0,0,1-3.91,21.744l-2.307,4.276h0a32.6,32.6,0,0,0-4.748,19.5l.142,1.919h0a55.583,55.583,0,0,0,6.75,17.714l3.152,5.313h0a101.473,101.473,0,0,0,19.04,20.814l4.907,4.054h0a34.917,34.917,0,0,0,15.377,4.655l17.782,1.1,69.31-.23,38.685.23,11.794.109a114.661,114.661,0,0,1,25.786,3.184l6.4,1.543h0a15.277,15.277,0,0,1,8.8,6.043l4.326,6.161,1.235,1.463a18.256,18.256,0,0,0,18.751,5.834l1.392-.379a69.488,69.488,0,0,0,14.606-5.828l8.457-4.544,15.658-7.829h0a61.18,61.18,0,0,1,20.913-3.685h16.39l209.542,3.685h0a14.291,14.291,0,0,1,13.816,14.284v9.663l.921,60.791h0a37.262,37.262,0,0,1-39.1,37.217l-26.3-1.3-37.3-1.842h0a69.294,69.294,0,0,0-64.8,43.005l-1.061,2.588-19.8,47.895L1403.4,531.368h0a63.559,63.559,0,0,1-26.723,26.687l-10.58,5.55-90.264,46.514-14.094,7.708a40.192,40.192,0,0,0-19.68,25.4l-5.371,21.23h0a115.92,115.92,0,0,1-10.89,34.214l-.163.326h0a37.617,37.617,0,0,1-15.784,15.421l-19.216,9.908L1066.75,785.582,982.934,827.49l-28.083,14.041a210.018,210.018,0,0,0-30.646,18.762l-29.233,21.54L824.51,939.86l-102.7,74.146-21.661,16.512a354.676,354.676,0,0,0-61.682,60.184l-11.987,14.95-186.977,224.74L311.477,1481.907"/><path id="5fea6b22-d514-4be9-b0cf-fef3cc16eae8" data-name="Track" class="19969f78-e515-44a0-bfcd-32364cd60f0a" d="M1074.119,2955.38l42.829-77.715,34.886-68.389,46.4-79.327,4.069-6.355a43,43,0,0,1,22.067-17.42h0a20.459,20.459,0,0,0,12.128-20.361l-2.8-34.73-3.281-22.624h0a36.106,36.106,0,0,0-14.836-22.381l-4.852-3.351-23.832-11.4-12.607-7.081h0a9.141,9.141,0,0,0-12.348,3.579l-.6,1.084h0a41.537,41.537,0,0,1-20.389,19.279l-7.243,3.172-16.579,4.836h0a33.425,33.425,0,0,0-14.43,9.368l-6.985,7.729-5.7,7.426h0a19.881,19.881,0,0,0-4.742,13.585l.425,12.32.345,8.808h0a30.494,30.494,0,0,0,7.388,19.427l2.456,2.851h0a9.531,9.531,0,0,1,.868,10.976l-.868,1.458-60.963,107.765h0a12.519,12.519,0,0,1-17.667,3.393l-2.539-1.781h0a61.021,61.021,0,0,1-11.034-81.432l6.659-10.675,44.672-74.836,44.441-81.975h0a19.611,19.611,0,0,1,10.188-8.917l3.168-1.215h0a88.737,88.737,0,0,0,43.559-39.755l7.329-13.667,13.126-26.25,11.743-23.948,13.586-24.638,8.005-12.27a276.617,276.617,0,0,1,47.519-55.265l11.023-9.834,17.961-19.8,5.68-5.376a10.379,10.379,0,0,1,14.353.08h0a8.806,8.806,0,0,1,.356,12.323l-2.659,2.874-31.316,31.086-20.033,20.321h0a211.084,211.084,0,0,0-34.7,44.764l-.879,1.52-8.866,15.6h0c-4.235,7.714-7.664,16.3-7.829,25.1l.231,10.823-.231,32.7h0a47.873,47.873,0,0,0,4.8,21.872l2.8,5.76,13.586,27.172,11.513,26.25,7.369,23.027h0a11.989,11.989,0,0,0,22.16,1.154l4.781-10.135,17.5-32.007h0a165.25,165.25,0,0,1,21.853-30.215l8.772-9.621,24.178-27.862h0a19.62,19.62,0,0,0,4.753-16.607l-2.22-12.407-2.3-18.421-.876-6.237a12.449,12.449,0,0,1,4.392-11.322l1.319-1.092,6.678-5.93h0a16.952,16.952,0,0,1,10.361-3.078l3.973.142,21.587,2.073,8.121.792a11.811,11.811,0,0,0,10.037-3.978l4.466-5.1,58.891-67.18h0a106.529,106.529,0,0,1,74.362-37.4l43.764-2.835,37.994-4.145,26.481-2.3,2.463-.3a64.891,64.891,0,0,1,38.754,7.434h0a78.846,78.846,0,0,0,36.09,8.319l24.7-.26,14.967-.23,1.322-.09a117.762,117.762,0,0,0,24.091-4.178l12.581-3.561L1852.188,2318l27.4-9.441.572-.2a12.378,12.378,0,0,0,7.257-16.608h0l-18.191-50.2h0a54.207,54.207,0,0,1-2.152-18.921l.252-3.991v-8.462h0a5.7,5.7,0,0,0-5.7-5.7H1858l-18.651-.518-.689-.039a8.689,8.689,0,0,0-9.155,8.156h0a48.737,48.737,0,0,1-6.594,23.83l-1.005,1.729h0a32.247,32.247,0,0,0-.229,22.536l1.093,3.024,2.162,5.029a15.968,15.968,0,0,0,19.682,8.854l7.515-2.485,30.049-11.4,44.384-16.407,23.142-9.671h0a97.8,97.8,0,0,1,37.063-7.547l8.357-.052,43.52-.172,1.205.017a10.224,10.224,0,0,0,10.366-10.552h0l-.518-12.262h0a29.3,29.3,0,0,0-7.566-17.741l-3.66-4.019-13.29-14.436a133.14,133.14,0,0,0-14.5-13.564l-16.075-12.93-14.68-12.78-2.463-1.951a109.2,109.2,0,0,0-14.122-9.5l-11.219-6.337-74.088-43.175-15.949-8.927a124.26,124.26,0,0,1-21.412-15.159l-14.622-12.871-29.877-25.387h0a68.129,68.129,0,0,0-25.98-15.5l-18.749-6.089-10.764-3.767a135.246,135.246,0,0,1-31.624-15.987h0a46.554,46.554,0,0,1-10.42-9.774l-19.035-24.354-24.178-36.267-32.813-46.859-15.889-23.487h0a52.647,52.647,0,0,0-16.013-17.485l-8.395-5.772-56.185-30.856-57.106-32.007-13.6-7.191a63.276,63.276,0,0,0-30.4-7.337l-19.554.252-17.27,1.382h0A17.7,17.7,0,0,0,1372.338,1741l-.255,1.339h0a87.218,87.218,0,0,1-17.038,47.365l-9.442,12.734h0a40.082,40.082,0,0,0-1.53,53.408l7.977,9.455,29.244,31.086,13.752,14.286a173.52,173.52,0,0,0,21.5,18.924l30.605,22.744,25.56,17.27,20.263,13.586h0a99.169,99.169,0,0,0,80.13,4.158l1.845-.7,13.585-4.375h0a11.7,11.7,0,0,1,14.854,10.408l.114,1.566.034.509a102.646,102.646,0,0,0,5.032,25.511h0a26.066,26.066,0,0,0,28.572,15.16l4.816-.884h0a36.329,36.329,0,0,1,15.465-1.224l20.687,2.836,15.358,1.676a120.841,120.841,0,0,0,19.985.517l15.525-.884a54.508,54.508,0,0,0,20.622-5.345l29.763-14.388a162.412,162.412,0,0,0,17.481-9.825l25.413-16.422,21.414-14.737.733-.578a38.68,38.68,0,0,0,14-22.91h0a59.912,59.912,0,0,1,14.169-31.639l4.713-5.433,55.955-63.554,1.68-1.978a19.672,19.672,0,0,1,27.564-2.4h0l39.836,34.079h0a26.564,26.564,0,0,0,30.91,2.637l17.906-10.7,56.185-34.54h0a17.986,17.986,0,0,0,2.365-27.766l-6.28-6.083-92.336-75.067-22.106-19.572h0a37.932,37.932,0,0,0-22.936-6.669l-18.281.682-26.942,1.381h0a36.636,36.636,0,0,0-22.744,12.818l-4.657,5.6-22.336,25.789h0a16.1,16.1,0,0,1-23.4,2.92l-2.386-2-63.093-53.192-41.217-34.77h0a50.685,50.685,0,0,1-20.494-40.712v-23.763l.691-172.7.007-.233a14.653,14.653,0,0,0-14.975-15.08h0l-13.059.394a140.147,140.147,0,0,1-27.125-1.82l-15.687-2.6a157.486,157.486,0,0,1-19.23-4.44l-105.657-31.486-26.021-7.829-.427-.1a13.794,13.794,0,0,0-16.843,13.452h0l-.134,4.3a190.425,190.425,0,0,1-4.407,35.2l-2.827,12.77-6.447,25.559h0a65.284,65.284,0,0,1-15.958,26.09l-13.286,13.286-26.481,27.4h0a28.45,28.45,0,0,1-41.857-3.415l-4.406-5.687q-3.474-4.482-7.223-8.74l-40.462-45.941-11.524-13.259a163.151,163.151,0,0,1-17.53-24.38l-16.309-27.757-36.152-64.474-42.829-78.751-13.194-24.076a158.7,158.7,0,0,0-21.968-30.73l-16.188-17.728-3.84-4.552a188.1,188.1,0,0,0-49.218-41.312l-11.416-6.637-28.323-14.852-32.467-13.7h0a58.56,58.56,0,0,1-20.053-15.5l-2.053-2.464h0a11.159,11.159,0,0,0-16.693-1.317l-5.873,5.692-33.158,29.7-24.408,21.645-11.553,10.41a170.492,170.492,0,0,1-19.951,15.462l-27.675,18.339-39.836,26.711h0a26.533,26.533,0,0,0-10.875,27.593l1.434,6.486,22.015,78.832a302.764,302.764,0,0,0,10.337,30.6l6.148,15.43q5.478,13.748,9.583,27.985l6.951,24.111h0a17.124,17.124,0,0,1-10.026,20.011l-3.79,1.576-45.593,19.285h0a7.828,7.828,0,0,1-10.848-7.634l.256-4.8-2.3-46.053h0a90.394,90.394,0,0,0-12.754-42.8l-5.667-9.469L745.7,1303.9a139.676,139.676,0,0,1-8.146-15.213l-9.063-19.774L727.464,1267a212.907,212.907,0,0,0-29.18-41.5l-3.413-3.8-14.737-18.191h0a32.331,32.331,0,0,0-15.551-12.462l-18.759-7.111-54.113-22.336-4.181-1.639a141.7,141.7,0,0,1-44.074-27.507l-5.627-5.163L478.42,1077.79l-65.856-61.021-52.04-50.2-50.889-49.277-3.34-3.8a44.967,44.967,0,0,1-9.555-17.619h0a39.643,39.643,0,0,0-14.02-21.852l-14.072-11.076L195.884,804,139.7,759.792,85.356,719.5l-2.83-2.281A88.352,88.352,0,0,0,54.55,702.031L45.29,699l-6.476-1.915A40.662,40.662,0,0,1,10.641,649.32l1.03-4.661h0A105.126,105.126,0,0,1,33.086,598.01l13.585-16.9,1.916-1.955a164.808,164.808,0,0,1,46.754-33.406l8.9-4.245,6.543-2.042a111.734,111.734,0,0,1,52.67-3.378l21.61,3.808,21.645,7.829h0c23.16,11.127,30.418,48.969,20.724,72.764L220.983,634.3h0a62.18,62.18,0,0,0,12.479,70.046l9.857,9.856,39.6,31.317L314.7,768.542,329.9,778.9h0A57.173,57.173,0,0,0,395,763.789l8.124-9.293,32.007-39.721,2.479-2.993a181.466,181.466,0,0,1,36.206-33.274h0l3.344-2.958a84.1,84.1,0,0,0,22.047-30.976l2.241-5.441h0a94.18,94.18,0,0,0,5-26.988l.177-4.789h0A63.694,63.694,0,0,1,520.985,571.2l4.64-5.64L539.1,551.056h0a19.623,19.623,0,0,0-.714-25.634l-3.086-3.38-.491-.553a239.662,239.662,0,0,1-31.727-45.415l-3.7-6.878L482.45,437.074h0a111.714,111.714,0,0,0-26.278-34.834L441,388.718l-48.01-45.938-16.925-15.543h0a13.732,13.732,0,0,1,4.419-22.033l16.65-7.326,9.723-3.991a105.084,105.084,0,0,0,12.93-6.377l10.679-6.211h0a15.733,15.733,0,0,1,17.122.758l6.192,4.423,33.676,21.76,12.648,7.87a87,87,0,0,0,22.776,9.985l17.25,4.769,9.727,1.88a69.009,69.009,0,0,0,21.761.708l16.35-2.07,29.1-3.775q2.853-.369,5.723-.567l25.568-1.76.286-.029A21.215,21.215,0,0,0,667.7,302.714h0L666.318,279h0a79.246,79.246,0,0,1,13.407-49.735l7.317-10.825h0a29.888,29.888,0,0,0,2.553-39.054l-.942-1.242-23.717-31.316-1.209-1.689a28.2,28.2,0,0,1,.518-33.542h0a91.814,91.814,0,0,0,10.091-17.222l5.8-12.943.447-.856A117.137,117.137,0,0,1,715.364,40.21h0l5.25-3.34a126.844,126.844,0,0,1,37.74-16.144l12.5-3.082,6.233-1.476a112.662,112.662,0,0,1,22.843-2.988l21.813-.6L882.422,11.2l35.4-1.394a164.274,164.274,0,0,1,16.915.206l40.249,2.569,6.7.905a200.545,200.545,0,0,0,37.87,1.5l12.425-.683h0a13.61,13.61,0,0,1,14.444,10.44l.063.268h0A22.2,22.2,0,0,0,1059.9,37.388l8.466,2.822,3.164.912a116.867,116.867,0,0,0,21.218,4.038l6.013.577h0a31.2,31.2,0,0,1,27.895,31.244l-.032,4.677V94.093h0a83.835,83.835,0,0,0,3.74,24.764l4.089,13.23h0a13.66,13.66,0,0,1-17.729,16l-3.686-1.26-4.3-1.452a95.3,95.3,0,0,0-26.179-4.916l-1.761-.08h0a8.771,8.771,0,0,0-7.77,9.028l.171,4.788h0a35.437,35.437,0,0,1-3.91,21.744l-2.307,4.276h0a32.6,32.6,0,0,0-4.748,19.5l.142,1.919h0a55.583,55.583,0,0,0,6.75,17.714l3.152,5.313h0a101.473,101.473,0,0,0,19.04,20.814l4.907,4.054h0a34.917,34.917,0,0,0,15.377,4.655l17.782,1.1,69.31-.23,38.685.23,11.794.109a114.661,114.661,0,0,1,25.786,3.184l6.4,1.543h0a15.277,15.277,0,0,1,8.8,6.043l4.326,6.161,1.235,1.463a18.256,18.256,0,0,0,18.751,5.834l1.392-.379a69.488,69.488,0,0,0,14.606-5.828l8.457-4.544,15.658-7.829h0a61.18,61.18,0,0,1,20.913-3.685h16.39l209.542,3.685h0a14.291,14.291,0,0,1,13.816,14.284v9.663l.921,60.791h0a37.262,37.262,0,0,1-39.1,37.217l-26.3-1.3-37.3-1.842h0a69.294,69.294,0,0,0-64.8,43.005l-1.061,2.588-19.8,47.895L1403.4,531.368h0a63.559,63.559,0,0,1-26.723,26.687l-10.58,5.55-90.264,46.514-14.094,7.708a40.192,40.192,0,0,0-19.68,25.4l-5.371,21.23h0a115.92,115.92,0,0,1-10.89,34.214l-.163.326h0a37.617,37.617,0,0,1-15.784,15.421l-19.216,9.908L1066.75,785.582,982.934,827.49l-28.083,14.041a210.018,210.018,0,0,0-30.646,18.762l-29.233,21.54L824.51,939.86l-102.7,74.146-21.661,16.512a354.676,354.676,0,0,0-61.682,60.184l-11.987,14.95-186.977,224.74L311.477,1481.907"/><g id="6e0dd8be-55e7-489a-b2f3-c3c843fa2641" data-name="Track2"><polyline id="33e28ef0-2579-44f0-a025-211788871e4c" data-name="Track2" class="6d3d4ac7-dce7-41fa-a6da-af68090c475f" points="1844.616 2277.083 1852.131 2274.598 1882.18 2263.2 1926.564 2246.793 1949.706 2237.122"/><path id="3ad0a96b-e922-4f23-a86a-b83d8dfe28ae" data-name="Track" class="6d3d4ac7-dce7-41fa-a6da-af68090c475f" d="M1749.6,2032.121l29.763-14.388a162.412,162.412,0,0,0,17.481-9.825l25.413-16.422,21.414-14.737"/><polyline id="8ce639f2-4aa3-4886-9c5c-14201751236e" data-name="Track" class="6d3d4ac7-dce7-41fa-a6da-af68090c475f" points="626.482 1105.652 589.04 1150.655 574.505 1168.126 439.505 1330.392"/><polyline id="fef85fe3-9cb0-4504-849f-a4096b93ef00" data-name="Track2" class="c1a5b8b0-b2e2-49d1-b607-c86d8a2850fa" points="1844.616 2277.083 1852.131 2274.598 1882.18 2263.2 1926.564 2246.793 1949.706 2237.122"/><path id="418c8a35-9545-4357-9d4a-1dae372a14d4" data-name="Track" class="c1a5b8b0-b2e2-49d1-b607-c86d8a2850fa" d="M1749.6,2032.121l29.763-14.388a162.412,162.412,0,0,0,17.481-9.825l25.413-16.422,21.414-14.737"/><polyline id="da780e3d-b9a5-45a4-8cc6-a8a516b25485" data-name="Track" class="c1a5b8b0-b2e2-49d1-b607-c86d8a2850fa" points="626.482 1105.652 589.04 1150.655 574.505 1168.126 439.505 1330.392"/><polyline id="3ee8d573-3860-4b3b-911b-9bb16a412833" data-name="Track2" class="19969f78-e515-44a0-bfcd-32364cd60f0a" points="1844.616 2277.083 1852.131 2274.598 1882.18 2263.2 1926.564 2246.793 1949.706 2237.122"/><path id="a618d1fc-b121-44c3-bb7f-d9a07db627a5" data-name="Track" class="19969f78-e515-44a0-bfcd-32364cd60f0a" d="M1749.6,2032.121l29.763-14.388a162.412,162.412,0,0,0,17.481-9.825l25.413-16.422,21.414-14.737"/><polyline id="999e4e04-c54e-43ce-bcd2-27a4042a9c07" data-name="Track" class="19969f78-e515-44a0-bfcd-32364cd60f0a" points="626.482 1105.652 589.04 1150.655 574.505 1168.126 439.505 1330.392"/></g><use width="131.5" height="35.125" transform="translate(304.71 1448.168) rotate(39.05) scale(0.407)" xlink:href="#a1b20237-4e92-4e11-81c3-3c6f36576348"/><use width="131.5" height="34" transform="translate(1054.117 2935.965) rotate(29.71) scale(0.403)" xlink:href="#2b4cd101-89e1-4291-a92d-cdf2cb50c911"/></g></g></g></svg>