<svg xmlns="http://www.w3.org/2000/svg" xmlns:xlink="http://www.w3.org/1999/xlink" width="1098.602" height="520.319" viewBox="0 0 1098.602 520.319"><defs><style>.\39 a348eb1-3849-48a9-9f5b-bfdf44f5d8d2{fill:#fff;}.\37 174fc4e-8976-44ac-a5ed-30aa52979ef4{fill:#00ff24;}.\32 1e5c5e7-bdb1-4152-9ded-edbc1c3e55dc,.\37 56558fe-53c9-464a-bc30-a6ffb617096e,.b5501b0a-8bd8-4311-bbe1-a799b80c0e02{fill:none;stroke-linejoin:round;}.\37 56558fe-53c9-464a-bc30-a6ffb617096e,.b5501b0a-8bd8-4311-bbe1-a799b80c0e02{stroke:#0080ff;}.\37 56558fe-53c9-464a-bc30-a6ffb617096e{stroke-width:9.676px;}.\32 1e5c5e7-bdb1-4152-9ded-edbc1c3e55dc{stroke:#fff;stroke-width:4.838px;}.b5501b0a-8bd8-4311-bbe1-a799b80c0e02{stroke-width:1.383px;}</style><symbol id="edf3120c-f5f9-473c-b621-276daf87f417" data-name="finish line" viewBox="0 0 131.5 35.125"><rect class="9a348eb1-3849-48a9-9f5b-bfdf44f5d8d2" x="1.5" y="1.5" width="32.125" height="32.125"/><path d="M35.125,35.125H0V0H35.125ZM3,32.125H32.125V3H3Z"/><rect class="9a348eb1-3849-48a9-9f5b-bfdf44f5d8d2" x="33.625" y="1.5" width="32.125" height="32.125"/><path d="M67.25,35.125H32.125V0H67.25Zm-32.125-3H64.25V3H35.125Z"/><rect class="9a348eb1-3849-48a9-9f5b-bfdf44f5d8d2" x="65.75" y="1.5" width="32.125" height="32.125"/><path d="M99.375,35.125H64.25V0H99.375Zm-32.125-3H96.375V3H67.25Z"/><rect class="9a348eb1-3849-48a9-9f5b-bfdf44f5d8d2" x="97.875" y="1.5" width="32.125" height="32.125"/><path d="M131.5,35.125H96.375V0H131.5Zm-32.125-3H128.5V3H99.375Z"/></symbol><symbol id="e60a5c99-a2fd-4faa-a9ed-86b316d6f0bf" data-name="start line" viewBox="0 0 131.5 34"><rect class="7174fc4e-8976-44ac-a5ed-30aa52979ef4" x="1.5" y="1.5" width="128.5" height="31"/><path d="M131.5,34H0V0H131.5ZM3,31H128.5V3H3Z"/></symbol></defs><title>Vinewood_Hill_Climb</title><g id="1a3d50ea-bfb2-4edd-b6fa-d6377e96b10c" data-name="Layer 2"><g id="a4deb833-4f06-4df0-900c-274df5f10596" data-name="Rally"><g id="7af1b634-4eef-49e3-9c5c-872eacf89de6" data-name="Vinewood_Hill_Climb"><path id="d372df94-78d7-4d1f-8585-534d524891aa" data-name="Track" class="756558fe-53c9-464a-bc30-a6ffb617096e" d="M525.576,404.239c-5.125-7-8.25-26.75-8.25-26.75s-.25-1.375-3.375-26.625-28.125-33.875-28.125-33.875c-10.125-4.375-22.875-4-22.875-4l-30.25.75c-33.5-1-43.875,33.125-43.875,33.125-1.25,4.25-9.625,23-15.875,31.75s-17.75,14.625-43.875,15.625S287.409,373.2,287.409,373.2s-14-20-20.333-32.667-19.25-25.542-19.25-25.542-11.125-12.125-23.875-18.75-17.25-20-15.375-47.625-14.75-40.625-14.75-40.625l-16.25-13-26.375-19-10.112-8.173a36.159,36.159,0,0,1-11.508-16.482l-.755-2.22c-11.875-29.5-40.625-22.125-40.625-22.125l-4.7.5a67.714,67.714,0,0,1-13.859.065l-5.817-.57-18.625-3-1.243-.243a32.362,32.362,0,0,1-23.809-19.7l-.323-.806-2.5-6.25L7.2,72.614,7.19,72.6a17.349,17.349,0,0,1,5.886-23.481h0L38.2,33.614h0a29.9,29.9,0,0,1,32.531-3.491l.719.366,5.5,1.875.253.075a47.267,47.267,0,0,0,33.122-2.325h0l9.625-3.75.9-.345a37.217,37.217,0,0,1,36.976,5.97h0l9.875,8.625,9.725,7.248a22.749,22.749,0,0,0,7.775,3.752h0l10,1.5a33.721,33.721,0,0,0,10,0h0l9.75-1.25,1.973-.222A22.562,22.562,0,0,1,239.7,64.114h0l.126.241A24.751,24.751,0,0,0,251.7,75.489h0l6.75,2.75,5.746,1.977a13.588,13.588,0,0,0,11.254-1.1h0l6.875-4.25,12.25-8.375,2.358-1.693a28.712,28.712,0,0,1,14.517-5.307h0l15-.5,4.528-.159a16.163,16.163,0,0,0,13.972-9.091h0l5.625-13.875L357.2,16.489l1.595-4.9c3.27-10.043,17.935-8.484,19.021,2.022l.259,2.5,3.875,30,.407,5.253a20.724,20.724,0,0,0,8.093,14.872h0l6.344,3.473a73.877,73.877,0,0,1,10.469,6.948l7.395,5.871,4.488,4.3a55.882,55.882,0,0,1,9.406,11.849l1.69,2.85,6.916,13.667,2.191,5.022a36.045,36.045,0,0,1,2.961,12.665l.015.313.583,10.833.309,4.987a72.612,72.612,0,0,0,1.087,8.793l.771,4.137,2.083,9.916,1.023,3.352a27.659,27.659,0,0,0,6.727,11.315h0l9.5,9.333,15,14.5,7.469,6.79a34.759,34.759,0,0,1,11.365,26.627h0l.083,7.833v3.6a31.088,31.088,0,0,0,8.538,21.4l3.879,4.087,3.224,2.444a27.166,27.166,0,0,0,30.469,1.6l2.14-1.293h0a23.916,23.916,0,0,0,7.4-28.419l-.9-2.08-7.75-17.834s-3.125-5-3-21.625-5.875-32-9.125-60.125-1.75-73.937-1.75-73.937l.105-4.346a35.444,35.444,0,0,1,19.707-30.9h0l3.18-1.221a7.57,7.57,0,0,1,10.28,6.875l.04,1.6.625,21.937v5.728a8.624,8.624,0,0,0,1.063,4.147h0l3.75,5.875,7.625,9.375,2.749,3a8,8,0,0,0,6.5,2.577l3.559-.269,23-1.563,1.872-.1a17.539,17.539,0,0,1,15.228,7.327l1.088,1.525,5.812,8.688,2.033,3.1a54.677,54.677,0,0,0,9.206,10.721l1.449,1.3,3.9,3.736a21.13,21.13,0,0,0,24.013,3.66h0l27.583-13.917,22.417-10.417,1.682-.826a13.932,13.932,0,0,1,6.484-1.424h7.167l18.417-.166,5.627-.227a12.982,12.982,0,0,1,8.439,2.681l.6.462,5.6,4.25,3.271,2.116a8.054,8.054,0,0,0,4.474,1.292l2.693-.033.739-.032a9.248,9.248,0,0,1,4.1.761l3.207,1.4,2.906,1.129a21.848,21.848,0,0,0,8.654,1.469l1.381-.046a29.758,29.758,0,0,1,7.846.778l6.546,1.545,42.833,13.542c10,3.167,23.417,19.917,24.167,26.5h0s2.167,20.5,2.417,43.25,23.583,25.25,23.583,25.25l37.25-.667c20.75-.5,46.417,25.584,46.417,25.584l10.166,11.333c6,6.917,12.25,7.083,12.25,7.083l28.25.667c8.667-.333,15.167,7.583,15.167,7.583s5.333,8.167,8.667,13.917,2.583,19.75,2.583,19.75a36.415,36.415,0,0,0,4.5,17.583c5,9.417,6.812,22.313,6.812,22.313l.521,10.229.088,2.209a21.343,21.343,0,0,1-6.234,15.937h0l-9.1,8.146s-18.5,17.166-16.666-2.5-14.834-38.667-20.834-45.5-29-19-29-19-21.833-9.5-41.166-9.5-36.917,6.5-36.917,6.5c-23.333,7.166-36.417,27.666-36.417,27.666s-11.708,19.375-13.833,28.625-5.25,23-10.125,35.25c0,0-5.875,20.625-18.125,37.375s-23.75,31.75-48.5,41.5-40.75,12.5-66.5,11.75-58.5-5-76.75-25.25-38.25-41.25-38.25-41.25-7.375-6.625-13.875-8.25"/><path id="e7deba44-fcf0-4e08-b75a-2b1e4c52d722" data-name="Track" class="21e5c5e7-bdb1-4152-9ded-edbc1c3e55dc" d="M525.576,404.239c-5.125-7-8.25-26.75-8.25-26.75s-.25-1.375-3.375-26.625-28.125-33.875-28.125-33.875c-10.125-4.375-22.875-4-22.875-4l-30.25.75c-33.5-1-43.875,33.125-43.875,33.125-1.25,4.25-9.625,23-15.875,31.75s-17.75,14.625-43.875,15.625S287.409,373.2,287.409,373.2s-14-20-20.333-32.667-19.25-25.542-19.25-25.542-11.125-12.125-23.875-18.75-17.25-20-15.375-47.625-14.75-40.625-14.75-40.625l-16.25-13-26.375-19-10.112-8.173a36.159,36.159,0,0,1-11.508-16.482l-.755-2.22c-11.875-29.5-40.625-22.125-40.625-22.125l-4.7.5a67.714,67.714,0,0,1-13.859.065l-5.817-.57-18.625-3-1.243-.243a32.362,32.362,0,0,1-23.809-19.7l-.323-.806-2.5-6.25L7.2,72.614,7.19,72.6a17.349,17.349,0,0,1,5.886-23.481h0L38.2,33.614h0a29.9,29.9,0,0,1,32.531-3.491l.719.366,5.5,1.875.253.075a47.267,47.267,0,0,0,33.122-2.325h0l9.625-3.75.9-.345a37.217,37.217,0,0,1,36.976,5.97h0l9.875,8.625,9.725,7.248a22.749,22.749,0,0,0,7.775,3.752h0l10,1.5a33.721,33.721,0,0,0,10,0h0l9.75-1.25,1.973-.222A22.562,22.562,0,0,1,239.7,64.114h0l.126.241A24.751,24.751,0,0,0,251.7,75.489h0l6.75,2.75,5.746,1.977a13.588,13.588,0,0,0,11.254-1.1h0l6.875-4.25,12.25-8.375,2.358-1.693a28.712,28.712,0,0,1,14.517-5.307h0l15-.5,4.528-.159a16.163,16.163,0,0,0,13.972-9.091h0l5.625-13.875L357.2,16.489l1.595-4.9c3.27-10.043,17.935-8.484,19.021,2.022l.259,2.5,3.875,30,.407,5.253a20.724,20.724,0,0,0,8.093,14.872h0l6.344,3.473a73.877,73.877,0,0,1,10.469,6.948l7.395,5.871,4.488,4.3a55.882,55.882,0,0,1,9.406,11.849l1.69,2.85,6.916,13.667,2.191,5.022a36.045,36.045,0,0,1,2.961,12.665l.015.313.583,10.833.309,4.987a72.612,72.612,0,0,0,1.087,8.793l.771,4.137,2.083,9.916,1.023,3.352a27.659,27.659,0,0,0,6.727,11.315h0l9.5,9.333,15,14.5,7.469,6.79a34.759,34.759,0,0,1,11.365,26.627h0l.083,7.833v3.6a31.088,31.088,0,0,0,8.538,21.4l3.879,4.087,3.224,2.444a27.166,27.166,0,0,0,30.469,1.6l2.14-1.293h0a23.916,23.916,0,0,0,7.4-28.419l-.9-2.08-7.75-17.834s-3.125-5-3-21.625-5.875-32-9.125-60.125-1.75-73.937-1.75-73.937l.105-4.346a35.444,35.444,0,0,1,19.707-30.9h0l3.18-1.221a7.57,7.57,0,0,1,10.28,6.875l.04,1.6.625,21.937v5.728a8.624,8.624,0,0,0,1.063,4.147h0l3.75,5.875,7.625,9.375,2.749,3a8,8,0,0,0,6.5,2.577l3.559-.269,23-1.563,1.872-.1a17.539,17.539,0,0,1,15.228,7.327l1.088,1.525,5.812,8.688,2.033,3.1a54.677,54.677,0,0,0,9.206,10.721l1.449,1.3,3.9,3.736a21.13,21.13,0,0,0,24.013,3.66h0l27.583-13.917,22.417-10.417,1.682-.826a13.932,13.932,0,0,1,6.484-1.424h7.167l18.417-.166,5.627-.227a12.982,12.982,0,0,1,8.439,2.681l.6.462,5.6,4.25,3.271,2.116a8.054,8.054,0,0,0,4.474,1.292l2.693-.033.739-.032a9.248,9.248,0,0,1,4.1.761l3.207,1.4,2.906,1.129a21.848,21.848,0,0,0,8.654,1.469l1.381-.046a29.758,29.758,0,0,1,7.846.778l6.546,1.545,42.833,13.542c10,3.167,23.417,19.917,24.167,26.5h0s2.167,20.5,2.417,43.25,23.583,25.25,23.583,25.25l37.25-.667c20.75-.5,46.417,25.584,46.417,25.584l10.166,11.333c6,6.917,12.25,7.083,12.25,7.083l28.25.667c8.667-.333,15.167,7.583,15.167,7.583s5.333,8.167,8.667,13.917,2.583,19.75,2.583,19.75a36.415,36.415,0,0,0,4.5,17.583c5,9.417,6.812,22.313,6.812,22.313l.521,10.229.088,2.209a21.343,21.343,0,0,1-6.234,15.937h0l-9.1,8.146s-18.5,17.166-16.666-2.5-14.834-38.667-20.834-45.5-29-19-29-19-21.833-9.5-41.166-9.5-36.917,6.5-36.917,6.5c-23.333,7.166-36.417,27.666-36.417,27.666s-11.708,19.375-13.833,28.625-5.25,23-10.125,35.25c0,0-5.875,20.625-18.125,37.375s-23.75,31.75-48.5,41.5-40.75,12.5-66.5,11.75-58.5-5-76.75-25.25-38.25-41.25-38.25-41.25-7.375-6.625-13.875-8.25"/><path id="caa53a2a-68e1-4845-b14a-eb28e98fc28c" data-name="Track" class="b5501b0a-8bd8-4311-bbe1-a799b80c0e02" d="M525.576,404.239c-5.125-7-8.25-26.75-8.25-26.75s-.25-1.375-3.375-26.625-28.125-33.875-28.125-33.875c-10.125-4.375-22.875-4-22.875-4l-30.25.75c-33.5-1-43.875,33.125-43.875,33.125-1.25,4.25-9.625,23-15.875,31.75s-17.75,14.625-43.875,15.625S287.409,373.2,287.409,373.2s-14-20-20.333-32.667-19.25-25.542-19.25-25.542-11.125-12.125-23.875-18.75-17.25-20-15.375-47.625-14.75-40.625-14.75-40.625l-16.25-13-26.375-19-10.112-8.173a36.159,36.159,0,0,1-11.508-16.482l-.755-2.22c-11.875-29.5-40.625-22.125-40.625-22.125l-4.7.5a67.714,67.714,0,0,1-13.859.065l-5.817-.57-18.625-3-1.243-.243a32.362,32.362,0,0,1-23.809-19.7l-.323-.806-2.5-6.25L7.2,72.614,7.19,72.6a17.349,17.349,0,0,1,5.886-23.481h0L38.2,33.614h0a29.9,29.9,0,0,1,32.531-3.491l.719.366,5.5,1.875.253.075a47.267,47.267,0,0,0,33.122-2.325h0l9.625-3.75.9-.345a37.217,37.217,0,0,1,36.976,5.97h0l9.875,8.625,9.725,7.248a22.749,22.749,0,0,0,7.775,3.752h0l10,1.5a33.721,33.721,0,0,0,10,0h0l9.75-1.25,1.973-.222A22.562,22.562,0,0,1,239.7,64.114h0l.126.241A24.751,24.751,0,0,0,251.7,75.489h0l6.75,2.75,5.746,1.977a13.588,13.588,0,0,0,11.254-1.1h0l6.875-4.25,12.25-8.375,2.358-1.693a28.712,28.712,0,0,1,14.517-5.307h0l15-.5,4.528-.159a16.163,16.163,0,0,0,13.972-9.091h0l5.625-13.875L357.2,16.489l1.595-4.9c3.27-10.043,17.935-8.484,19.021,2.022l.259,2.5,3.875,30,.407,5.253a20.724,20.724,0,0,0,8.093,14.872h0l6.344,3.473a73.877,73.877,0,0,1,10.469,6.948l7.395,5.871,4.488,4.3a55.882,55.882,0,0,1,9.406,11.849l1.69,2.85,6.916,13.667,2.191,5.022a36.045,36.045,0,0,1,2.961,12.665l.015.313.583,10.833.309,4.987a72.612,72.612,0,0,0,1.087,8.793l.771,4.137,2.083,9.916,1.023,3.352a27.659,27.659,0,0,0,6.727,11.315h0l9.5,9.333,15,14.5,7.469,6.79a34.759,34.759,0,0,1,11.365,26.627h0l.083,7.833v3.6a31.088,31.088,0,0,0,8.538,21.4l3.879,4.087,3.224,2.444a27.166,27.166,0,0,0,30.469,1.6l2.14-1.293h0a23.916,23.916,0,0,0,7.4-28.419l-.9-2.08-7.75-17.834s-3.125-5-3-21.625-5.875-32-9.125-60.125-1.75-73.937-1.75-73.937l.105-4.346a35.444,35.444,0,0,1,19.707-30.9h0l3.18-1.221a7.57,7.57,0,0,1,10.28,6.875l.04,1.6.625,21.937v5.728a8.624,8.624,0,0,0,1.063,4.147h0l3.75,5.875,7.625,9.375,2.749,3a8,8,0,0,0,6.5,2.577l3.559-.269,23-1.563,1.872-.1a17.539,17.539,0,0,1,15.228,7.327l1.088,1.525,5.812,8.688,2.033,3.1a54.677,54.677,0,0,0,9.206,10.721l1.449,1.3,3.9,3.736a21.13,21.13,0,0,0,24.013,3.66h0l27.583-13.917,22.417-10.417,1.682-.826a13.932,13.932,0,0,1,6.484-1.424h7.167l18.417-.166,5.627-.227a12.982,12.982,0,0,1,8.439,2.681l.6.462,5.6,4.25,3.271,2.116a8.054,8.054,0,0,0,4.474,1.292l2.693-.033.739-.032a9.248,9.248,0,0,1,4.1.761l3.207,1.4,2.906,1.129a21.848,21.848,0,0,0,8.654,1.469l1.381-.046a29.758,29.758,0,0,1,7.846.778l6.546,1.545,42.833,13.542c10,3.167,23.417,19.917,24.167,26.5h0s2.167,20.5,2.417,43.25,23.583,25.25,23.583,25.25l37.25-.667c20.75-.5,46.417,25.584,46.417,25.584l10.166,11.333c6,6.917,12.25,7.083,12.25,7.083l28.25.667c8.667-.333,15.167,7.583,15.167,7.583s5.333,8.167,8.667,13.917,2.583,19.75,2.583,19.75a36.415,36.415,0,0,0,4.5,17.583c5,9.417,6.812,22.313,6.812,22.313l.521,10.229.088,2.209a21.343,21.343,0,0,1-6.234,15.937h0l-9.1,8.146s-18.5,17.166-16.666-2.5-14.834-38.667-20.834-45.5-29-19-29-19-21.833-9.5-41.166-9.5-36.917,6.5-36.917,6.5c-23.333,7.166-36.417,27.666-36.417,27.666s-11.708,19.375-13.833,28.625-5.25,23-10.125,35.25c0,0-5.875,20.625-18.125,37.375s-23.75,31.75-48.5,41.5-40.75,12.5-66.5,11.75-58.5-5-76.75-25.25-38.25-41.25-38.25-41.25-7.375-6.625-13.875-8.25"/><use width="131.5" height="35.125" transform="translate(498.594 409.515) rotate(-25.967) scale(0.403)" xlink:href="#edf3120c-f5f9-473c-b621-276daf87f417"/><use width="131.5" height="34" transform="matrix(0.205, -0.354, 0.354, 0.205, 591.885, 459.964)" xlink:href="#e60a5c99-a2fd-4faa-a9ed-86b316d6f0bf"/></g></g></g></svg>