<svg xmlns="http://www.w3.org/2000/svg" xmlns:xlink="http://www.w3.org/1999/xlink" width="724.993" height="637.069" viewBox="0 0 724.993 637.069"><defs><style>.f29a4f25-9500-4cdd-9261-20f23f01a38b{fill:#00ff24;}.\35 e990cf8-ed9d-4a6d-ac19-ef6d60db5a05,.f29a4f25-9500-4cdd-9261-20f23f01a38b{stroke:#000;stroke-width:5px;}.\32 b14f4c8-ba44-4b13-93fe-1eae4629f6b4,.\35 e990cf8-ed9d-4a6d-ac19-ef6d60db5a05,.\39 63e94f2-6e21-4b29-a83d-f9f53474c0e6,.cd955779-5221-4e5e-a956-e74466781ac3,.e3dab205-3491-49fb-aba3-842a09dcefd1,.e7222b0f-3c84-435e-a241-7275c9dc3879,.f29a4f25-9500-4cdd-9261-20f23f01a38b{stroke-miterlimit:10;}.\35 e990cf8-ed9d-4a6d-ac19-ef6d60db5a05{fill:#fff;}.\32 b14f4c8-ba44-4b13-93fe-1eae4629f6b4,.\39 63e94f2-6e21-4b29-a83d-f9f53474c0e6,.cd955779-5221-4e5e-a956-e74466781ac3,.e3dab205-3491-49fb-aba3-842a09dcefd1,.e7222b0f-3c84-435e-a241-7275c9dc3879{fill:none;}.e3dab205-3491-49fb-aba3-842a09dcefd1,.e7222b0f-3c84-435e-a241-7275c9dc3879{stroke:#c91c1c;}.\39 63e94f2-6e21-4b29-a83d-f9f53474c0e6,.e7222b0f-3c84-435e-a241-7275c9dc3879{stroke-width:20px;}.\39 63e94f2-6e21-4b29-a83d-f9f53474c0e6,.cd955779-5221-4e5e-a956-e74466781ac3{stroke:#0080ff;}.\32 b14f4c8-ba44-4b13-93fe-1eae4629f6b4{stroke:#fff;stroke-width:12px;}.cd955779-5221-4e5e-a956-e74466781ac3,.e3dab205-3491-49fb-aba3-842a09dcefd1{stroke-width:2px;}</style><symbol id="a4a2e472-543d-4133-aebd-8709cdf0ee2f" data-name="fd103434-89f2-4089-acf9-54fed79ed404" viewBox="0 0 200 103.617"><rect class="f29a4f25-9500-4cdd-9261-20f23f01a38b" x="2.5" y="54.074" width="195" height="47.043"/><rect class="5e990cf8-ed9d-4a6d-ac19-ef6d60db5a05" x="2.5" y="2.5" width="48.75" height="48.75"/><rect class="5e990cf8-ed9d-4a6d-ac19-ef6d60db5a05" x="51.25" y="2.5" width="48.75" height="48.75"/><rect class="5e990cf8-ed9d-4a6d-ac19-ef6d60db5a05" x="100" y="2.5" width="48.75" height="48.75"/><rect class="5e990cf8-ed9d-4a6d-ac19-ef6d60db5a05" x="148.75" y="2.5" width="48.75" height="48.75"/></symbol></defs><title>Hill_Ary_s_Clinton</title><g id="47463bb1-a283-4712-9f9e-11bef256c04d" data-name="Layer 2"><g id="f9434513-8ebb-4d0f-ad33-bb431111881e" data-name="City - Vinewood"><g id="021c1c35-e4ca-4ef2-8d16-d1a74ec2d6f7" data-name="Hill_Ary_s_Clinton"><path id="98a234fc-0648-4482-9a99-6c008689079c" data-name="Pitlane Outer" class="e7222b0f-3c84-435e-a241-7275c9dc3879" d="M263.248,451.824c-17.239,5.976-29.6,13.653-30.736,28.172a31.629,31.629,0,0,1-5.208,15.917c-2.25,3.917-5.171-.805-7.75,3.417-2.354,3.854-13.25,23.916-16.333,29.416s2.6,5.056-.667,10.667c-5.333,9.167-17.167,25.75-23.167,36.25s-10.833,19.5-8.5,24.333,8.25,8.417,18.417,11.584,20.417,6.833,30.75,8.583,19.333,2.667,25.5-5.417,12.729-13.856,18.41-21.585"/><path id="aa3d1599-1fcf-43a9-8bcf-ecba35264801" data-name="Track Outer" class="963e94f2-6e21-4b29-a83d-f9f53474c0e6" d="M428.637,305.5c-35.742-11.966-83.25-26-106.25-33.166s-103.333-36.167-120-42.5-38-13.5-53.333-18.334-55.833-15-72.5-18.5-30.5-6.333-41.167-10-8.666-10-5.833-19.166,5.263-23.1-3.167-36.167A185.552,185.552,0,0,1,11.054,98.5c-3.333-8.166,1.5-11.666,10.833-5.666s30.5,19.5,49.334,28.833,33.335,14.178,61,21.667c22.166,6,39.5,16.666,45,32.666s-2.834,34.834-9.667,52.167-39.5,102.333-43,112.5-2.667,23.667,10.5,29S256.887,414,296.137,426.746s89.5,32,101.25,39,29.334,4.167,38.834-9.583S485.815,387,496.554,369.5c12.167-19.833,43-66,56-84.5s43.5-57.333,62.333-73.833,49.875-50.542,56.875-60.917,15.75-19.875,16.625-41.25,8.584-39.166,18.084-48.916,13.166-18.709-.209-28.834-32-14.125-44.375-16.25-24.746-3.422-34.562-4.75c-10.625-1.437-11.92,3.406-8.563,14.875,2.25,7.688,4,27,1.375,40.75s-12.5,37.75-26.625,53.625-33.75,36.875-46.75,45.875S520.012,179,499.887,181s-38,2-56.75-1.875-36.5-4.5-48.75-.75c-11.012,3.371-18.943,8.892-28.25,14.875-12.25,7.875-30.25,18.417-38.083,28.084s-23.833,47.5-29.833,64.833S267.054,376.83,262.054,389.83s2.117,18.791,13.667,23.333c14.833,5.833,27.666,16.5,17.666,26.167s-60.166,15.333-76,41.333-37,62.167-47.5,81.167S156.3,596.5,159.554,604.413s15.833,11.083,28.417,14.667,24.666,6.916,36.291,7.666,24.625,1.125,28-10,13.75-30.125,24.75-37.875,30.75-15.625,47.75-21.875,39.125-16.5,58.125-31.75,19.75-19.25,24.5-27.75,19.25-9.75,30.5-2.5,46.5,28.5,57.5,34,19.5,5,30.5-11.75,57.5-90.75,68.25-109,3.75-25.75-12.5-35.5-36.875-20.25-61.75-31.25C497.512,331.6,447.554,311.83,428.637,305.5Z"/><path id="f254a3d3-23d4-4b42-8078-098f5f0b60c5" data-name="Pitlane Middle" class="2b14f4c8-ba44-4b13-93fe-1eae4629f6b4" d="M263.248,451.824c-17.239,5.976-29.6,13.653-30.736,28.172a31.629,31.629,0,0,1-5.208,15.917c-2.25,3.917-5.171-.805-7.75,3.417-2.354,3.854-13.25,23.916-16.333,29.416s2.6,5.056-.667,10.667c-5.333,9.167-17.167,25.75-23.167,36.25s-10.833,19.5-8.5,24.333,8.25,8.417,18.417,11.584,20.417,6.833,30.75,8.583,19.333,2.667,25.5-5.417,12.729-13.856,18.41-21.585"/><path id="690e1dd7-f3c2-4a49-9447-63b7a53d1da4" data-name="Track Middle" class="2b14f4c8-ba44-4b13-93fe-1eae4629f6b4" d="M428.637,305.5c-35.742-11.966-83.25-26-106.25-33.166s-103.333-36.167-120-42.5-38-13.5-53.333-18.334-55.833-15-72.5-18.5-30.5-6.333-41.167-10-8.666-10-5.833-19.166,5.263-23.1-3.167-36.167A185.552,185.552,0,0,1,11.054,98.5c-3.333-8.166,1.5-11.666,10.833-5.666s30.5,19.5,49.334,28.833,33.335,14.178,61,21.667c22.166,6,39.5,16.666,45,32.666s-2.834,34.834-9.667,52.167-39.5,102.333-43,112.5-2.667,23.667,10.5,29S256.887,414,296.137,426.746s89.5,32,101.25,39,29.334,4.167,38.834-9.583S485.815,387,496.554,369.5c12.167-19.833,43-66,56-84.5s43.5-57.333,62.333-73.833,49.875-50.542,56.875-60.917,15.75-19.875,16.625-41.25,8.584-39.166,18.084-48.916,13.166-18.709-.209-28.834-32-14.125-44.375-16.25-24.746-3.422-34.562-4.75c-10.625-1.437-11.92,3.406-8.563,14.875,2.25,7.688,4,27,1.375,40.75s-12.5,37.75-26.625,53.625-33.75,36.875-46.75,45.875S520.012,179,499.887,181s-38,2-56.75-1.875-36.5-4.5-48.75-.75c-11.012,3.371-18.943,8.892-28.25,14.875-12.25,7.875-30.25,18.417-38.083,28.084s-23.833,47.5-29.833,64.833S267.054,376.83,262.054,389.83s2.117,18.791,13.667,23.333c14.833,5.833,27.666,16.5,17.666,26.167s-60.166,15.333-76,41.333-37,62.167-47.5,81.167S156.3,596.5,159.554,604.413s15.833,11.083,28.417,14.667,24.666,6.916,36.291,7.666,24.625,1.125,28-10,13.75-30.125,24.75-37.875,30.75-15.625,47.75-21.875,39.125-16.5,58.125-31.75,19.75-19.25,24.5-27.75,19.25-9.75,30.5-2.5,46.5,28.5,57.5,34,19.5,5,30.5-11.75,57.5-90.75,68.25-109,3.75-25.75-12.5-35.5-36.875-20.25-61.75-31.25C497.512,331.6,447.554,311.83,428.637,305.5Z"/><path id="e7074af6-c45b-446e-998d-f7b2190ae418" data-name="Pitlane Inner" class="e3dab205-3491-49fb-aba3-842a09dcefd1" d="M263.248,451.824c-17.239,5.976-29.6,13.653-30.736,28.172a31.629,31.629,0,0,1-5.208,15.917c-2.25,3.917-5.171-.805-7.75,3.417-2.354,3.854-13.25,23.916-16.333,29.416s2.6,5.056-.667,10.667c-5.333,9.167-17.167,25.75-23.167,36.25s-10.833,19.5-8.5,24.333,8.25,8.417,18.417,11.584,20.417,6.833,30.75,8.583,19.333,2.667,25.5-5.417,12.729-13.856,18.41-21.585"/><path id="58a85b17-d95d-4ec9-b6c6-84e1d4346e5e" data-name="Track Inner" class="cd955779-5221-4e5e-a956-e74466781ac3" d="M428.637,305.5c-35.742-11.966-83.25-26-106.25-33.166s-103.333-36.167-120-42.5-38-13.5-53.333-18.334-55.833-15-72.5-18.5-30.5-6.333-41.167-10-8.666-10-5.833-19.166,5.263-23.1-3.167-36.167A185.552,185.552,0,0,1,11.054,98.5c-3.333-8.166,1.5-11.666,10.833-5.666s30.5,19.5,49.334,28.833,33.335,14.178,61,21.667c22.166,6,39.5,16.666,45,32.666s-2.834,34.834-9.667,52.167-39.5,102.333-43,112.5-2.667,23.667,10.5,29S256.887,414,296.137,426.746s89.5,32,101.25,39,29.334,4.167,38.834-9.583S485.815,387,496.554,369.5c12.167-19.833,43-66,56-84.5s43.5-57.333,62.333-73.833,49.875-50.542,56.875-60.917,15.75-19.875,16.625-41.25,8.584-39.166,18.084-48.916,13.166-18.709-.209-28.834-32-14.125-44.375-16.25-24.746-3.422-34.562-4.75c-10.625-1.437-11.92,3.406-8.563,14.875,2.25,7.688,4,27,1.375,40.75s-12.5,37.75-26.625,53.625-33.75,36.875-46.75,45.875S520.012,179,499.887,181s-38,2-56.75-1.875-36.5-4.5-48.75-.75c-11.012,3.371-18.943,8.892-28.25,14.875-12.25,7.875-30.25,18.417-38.083,28.084s-23.833,47.5-29.833,64.833S267.054,376.83,262.054,389.83s2.117,18.791,13.667,23.333c14.833,5.833,27.666,16.5,17.666,26.167s-60.166,15.333-76,41.333-37,62.167-47.5,81.167S156.3,596.5,159.554,604.413s15.833,11.083,28.417,14.667,24.666,6.916,36.291,7.666,24.625,1.125,28-10,13.75-30.125,24.75-37.875,30.75-15.625,47.75-21.875,39.125-16.5,58.125-31.75,19.75-19.25,24.5-27.75,19.25-9.75,30.5-2.5,46.5,28.5,57.5,34,19.5,5,30.5-11.75,57.5-90.75,68.25-109,3.75-25.75-12.5-35.5-36.875-20.25-61.75-31.25C497.512,331.6,447.554,311.83,428.637,305.5Z"/><g id="aa98221f-40d1-4f71-98dd-d5c21635ae78" data-name="Crossover"><path id="7a1aa515-2c04-44c5-a7bf-a630364204de" data-name="Crossover Outer" class="963e94f2-6e21-4b29-a83d-f9f53474c0e6" d="M594.144,408.248c10.75-18.25,3.75-25.75-12.5-35.5s-36.875-20.25-61.75-31.25c-22.376-9.895-72.334-29.667-91.25-36"/><path id="19b93a44-c90f-454d-82fe-799f3566df47" data-name="Crossover Middle" class="2b14f4c8-ba44-4b13-93fe-1eae4629f6b4" d="M594.144,408.248c10.75-18.25,3.75-25.75-12.5-35.5s-36.875-20.25-61.75-31.25c-22.376-9.895-72.334-29.667-91.25-36"/><path id="bfe536e5-c302-4a96-9e9a-c49e1cc0e35f" data-name="Crossover Inner" class="cd955779-5221-4e5e-a956-e74466781ac3" d="M594.144,408.248c10.75-18.25,3.75-25.75-12.5-35.5s-36.875-20.25-61.75-31.25c-22.376-9.895-72.334-29.667-91.25-36"/></g><g id="e6c0c04f-5146-409f-99dc-d7c279450ab9" data-name="Crossover"><path id="ad15d87b-27db-46b4-9550-e9a07c083b9b" data-name="Crossover Outer" class="963e94f2-6e21-4b29-a83d-f9f53474c0e6" d="M328.06,221.331c-7.833,9.667-23.833,47.5-29.833,64.834-2.777,8.022-9.659,28.039-16.748,48.518"/><path id="da43c273-371b-40f6-8d92-dc1a58a31051" data-name="Crossover Middle" class="2b14f4c8-ba44-4b13-93fe-1eae4629f6b4" d="M328.06,221.331c-7.833,9.667-23.833,47.5-29.833,64.834-2.777,8.022-9.659,28.039-16.748,48.518"/><path id="4edcbbc1-088d-4e30-8183-de94a9dac00a" data-name="Crossover Inner" class="cd955779-5221-4e5e-a956-e74466781ac3" d="M328.06,221.331c-7.833,9.667-23.833,47.5-29.833,64.834-2.777,8.022-9.659,28.039-16.748,48.518"/></g><g id="77baf1fe-6947-4f39-8c85-6a4f7d5e7e4a" data-name="Crossover"><path id="1dff1f87-c744-4c9b-bf2f-4ebf1e8b23bf" data-name="Crossover Outer" class="963e94f2-6e21-4b29-a83d-f9f53474c0e6" d="M177.227,176c5.5,16-2.833,34.833-9.667,52.167s-39.5,102.333-43,112.5-2.666,23.666,10.5,29S256.894,414,296.144,426.748s89.5,32,101.25,39"/><path id="1686aa40-7e82-497f-8834-cc9918e20c2d" data-name="Crossover Middle" class="2b14f4c8-ba44-4b13-93fe-1eae4629f6b4" d="M177.227,176c5.5,16-2.833,34.833-9.667,52.167s-39.5,102.333-43,112.5-2.666,23.666,10.5,29S256.894,414,296.144,426.748s89.5,32,101.25,39"/><path id="8d6b98e7-462e-4052-82f8-344ea8da18b3" data-name="Crossover Inner" class="cd955779-5221-4e5e-a956-e74466781ac3" d="M177.227,176c5.5,16-2.833,34.833-9.667,52.167s-39.5,102.333-43,112.5-2.666,23.666,10.5,29S256.894,414,296.144,426.748s89.5,32,101.25,39"/></g><use id="91bd7947-801d-4ef2-8650-d4ef2b09bfa0" data-name="Start-Finish-Line" width="200" height="103.617" transform="translate(448.859 286.996) rotate(109.517) scale(0.243)" xlink:href="#a4a2e472-543d-4133-aebd-8709cdf0ee2f"/></g></g></g></svg>