<svg xmlns="http://www.w3.org/2000/svg" xmlns:xlink="http://www.w3.org/1999/xlink" width="879.641" height="1301.712" viewBox="0 0 879.641 1301.712"><defs><style>.\36 3580275-5532-4f9a-a931-8c2e44e96789{fill:#00ff24;}.\36 3580275-5532-4f9a-a931-8c2e44e96789,.ac583a0f-e979-4b5b-83f4-e0fb87875100{stroke:#000;stroke-width:5px;}.\32 a1b39f6-2e45-406f-83a8-867b23990b28,.\32 d97efb3-aafa-4a74-9e77-085b33b94ef9,.\34 6c4cd31-32e3-4a30-b9a4-e379f7cd4b05,.\36 0a573c9-080c-4495-89de-fa3f4fba8b37,.\36 3580275-5532-4f9a-a931-8c2e44e96789,.ac583a0f-e979-4b5b-83f4-e0fb87875100,.e816034b-b340-462c-b203-5d29c5bbbee5{stroke-miterlimit:10;}.ac583a0f-e979-4b5b-83f4-e0fb87875100{fill:#fff;}.\32 a1b39f6-2e45-406f-83a8-867b23990b28,.\32 d97efb3-aafa-4a74-9e77-085b33b94ef9,.\34 6c4cd31-32e3-4a30-b9a4-e379f7cd4b05,.\36 0a573c9-080c-4495-89de-fa3f4fba8b37,.e816034b-b340-462c-b203-5d29c5bbbee5{fill:none;}.\32 a1b39f6-2e45-406f-83a8-867b23990b28,.\34 6c4cd31-32e3-4a30-b9a4-e379f7cd4b05{stroke:#c91c1c;}.\34 6c4cd31-32e3-4a30-b9a4-e379f7cd4b05,.\36 0a573c9-080c-4495-89de-fa3f4fba8b37{stroke-width:20px;}.\32 d97efb3-aafa-4a74-9e77-085b33b94ef9,.\36 0a573c9-080c-4495-89de-fa3f4fba8b37{stroke:#0080ff;}.e816034b-b340-462c-b203-5d29c5bbbee5{stroke:#fff;stroke-width:12px;}.\32 a1b39f6-2e45-406f-83a8-867b23990b28,.\32 d97efb3-aafa-4a74-9e77-085b33b94ef9{stroke-width:2px;}</style><symbol id="71d8c631-d871-4b35-ac84-4182a1baeb69" data-name="fd103434-89f2-4089-acf9-54fed79ed404" viewBox="0 0 200 103.617"><rect class="63580275-5532-4f9a-a931-8c2e44e96789" x="2.5" y="54.074" width="195" height="47.043"/><rect class="ac583a0f-e979-4b5b-83f4-e0fb87875100" x="2.5" y="2.5" width="48.75" height="48.75"/><rect class="ac583a0f-e979-4b5b-83f4-e0fb87875100" x="51.25" y="2.5" width="48.75" height="48.75"/><rect class="ac583a0f-e979-4b5b-83f4-e0fb87875100" x="100" y="2.5" width="48.75" height="48.75"/><rect class="ac583a0f-e979-4b5b-83f4-e0fb87875100" x="148.75" y="2.5" width="48.75" height="48.75"/></symbol></defs><title>Maze-Whiz_Street_Circuit</title><g id="344b54eb-ad2c-4d16-bc4a-d1adae10cdde" data-name="Layer 2"><g id="2e06113b-4ede-44e4-9d85-2b77728396fc" data-name="City - Vinewood"><g id="2d3cf40e-6f4f-435d-a642-cecaf1aed6c9" data-name="Maze-Whiz_Street_Circuit"><path id="91e6b80a-35a4-4642-8e05-1993e35f04ce" data-name="Pitlane Outer" class="46c4cd31-32e3-4a30-b9a4-e379f7cd4b05" d="M238.293,999.291c0,59-.25,73.25,0,117s-.5,68-4.5,96.25-11.25,55.667-17.416,68.667-17.334,11-21.667,9.166-9.667-6.666-4.167-24.5,12.667-46.5,13.5-64.666,2.5-62.167,2.667-81-2.917-102.834-2.917-120.167"/><path id="185b9fd5-3ef9-4e70-841b-ecf8f22ff0f0" data-name="Track Outer" class="60a573c9-080c-4495-89de-fa3f4fba8b37" d="M569.71,306.374c-33.167,0-49.417.667-69.667,6.167s-41.25,25.5-72.75,32.5-59,8.25-88.75,9.25-48.833,2.417-65.833,17.583-23.667,26.834-25.5,45.5.333,44.167-1.333,62.334-3.584,44.082-3.584,72.083c0,27,3.5,52.5,3.5,88s-.25,72.922-2.583,102.917-5.5,84.333-5.167,111,.25,123.333.25,145.583-34.958,28.5-34.5.75c.584-35.333,4.917-169.667,3.25-204s-6.322-91.323-6.666-134.333c-.334-41.667,2.925-61.787,3.666-80,.75-18.417,6.459-30.709,15.625-30.542s12.25,14.125,12.209,28.042c-.04,13.334-.828,95.587-1.334,131.083-.5,35.083,12.167,44.583,12.667,81.917s2.5,82.833,7.667,96,15.095,26.87,30.333,35.166c15,8.167,32.667,8.667,49.5,8.834s54.333,5.083,86.333,4.333,70-9.75,87.25-11,95.484-6.974,115.75-9.333c31.5-3.667,21.678-30.666,56.167-31.667,25.833-.75,57.583-.25,79.083-.75s32.5-8.75,33.5-26,4.25-41.5,12.75-65.75,32.75-92,39.25-110.5,8.5-45.5-18.25-54.25-89.75-29.5-109-35.75-56.25-18-93.5-31-77.5-25.833-95.666-34.167-49.834-26.333-78-36.333-77.834-31.5-110.584-35.5-154-1.5-195.25-1.75S95.377,463.708,95.21,482.708s11.667,66.166,20.833,85.833,31.154,48.719,55,49c21.25.25,85.5,2.25,122.25,8.75s82.5,23.75,106.25,32.5,17.75,20.5,11.75,37-33.75,85-39.5,103.25-18.25,48.25-24.5,68.5-16,25.5-39,24-72.25-11-89.75-16.5-70.5-23.75-89.5-31-28-15.75-28-42.75-3-61.75,6-83,26.75-46.75,27.75-65.25.251-37.551-31.5-38c-53-.75-93.023-18-92.75-70.5.167-32-.75-138.25-.5-177.75s3-126.25,4-158.25,3.25-47.25,36-68,51-28.5,81.75-41.5,42-19.25,72.75-35,96.25-47,120-50.25,41.75-8,75.5,3.5,58,23,101,42,130,50.417,173,66.083,99,36.334,135,50.334,66.084,35,59.75,82.333-15.75,70.333-26.75,99-62.538,167.18-78.333,207c-9.917,25-20.167,27-53.917,16.25-32.787-10.443-48.043-15.871-68.25-22.75-23.5-8-27.25,11-33.25,28s-32.5,92-37.75,106.5-19,18.5-42.5,10.5-63-22.75-82-29.75-18.25-17.75-11.75-36.75,35.584-96.333,40.584-110.833,18.577-15.609,33.833-9.667c15.833,6.167,63.833,25.875,83.208,32.5s36.625,11,42.875-6.375,34.25-97.875,43.25-121.625,7.084-39.583-1.5-58.875c-7.832-17.6-25.125-37.125-47.5-45.375C608.142,308.084,589.877,306.374,569.71,306.374Z"/><path id="61fe36da-c8da-48cd-9464-21ee3d661f2e" data-name="Pitlane Middle" class="e816034b-b340-462c-b203-5d29c5bbbee5" d="M238.293,999.291c0,59-.25,73.25,0,117s-.5,68-4.5,96.25-11.25,55.667-17.416,68.667-17.334,11-21.667,9.166-9.667-6.666-4.167-24.5,12.667-46.5,13.5-64.666,2.5-62.167,2.667-81-2.917-102.834-2.917-120.167"/><path id="1a862241-b4f6-4e4b-b381-d3dcc426fb00" data-name="Track Middle" class="e816034b-b340-462c-b203-5d29c5bbbee5" d="M569.71,306.374c-33.167,0-49.417.667-69.667,6.167s-41.25,25.5-72.75,32.5-59,8.25-88.75,9.25-48.833,2.417-65.833,17.583-23.667,26.834-25.5,45.5.333,44.167-1.333,62.334-3.584,44.082-3.584,72.083c0,27,3.5,52.5,3.5,88s-.25,72.922-2.583,102.917-5.5,84.333-5.167,111,.25,123.333.25,145.583-34.958,28.5-34.5.75c.584-35.333,4.917-169.667,3.25-204s-6.322-91.323-6.666-134.333c-.334-41.667,2.925-61.787,3.666-80,.75-18.417,6.459-30.709,15.625-30.542s12.25,14.125,12.209,28.042c-.04,13.334-.828,95.587-1.334,131.083-.5,35.083,12.167,44.583,12.667,81.917s2.5,82.833,7.667,96,15.095,26.87,30.333,35.166c15,8.167,32.667,8.667,49.5,8.834s54.333,5.083,86.333,4.333,70-9.75,87.25-11,95.484-6.974,115.75-9.333c31.5-3.667,21.678-30.666,56.167-31.667,25.833-.75,57.583-.25,79.083-.75s32.5-8.75,33.5-26,4.25-41.5,12.75-65.75,32.75-92,39.25-110.5,8.5-45.5-18.25-54.25-89.75-29.5-109-35.75-56.25-18-93.5-31-77.5-25.833-95.666-34.167-49.834-26.333-78-36.333-77.834-31.5-110.584-35.5-154-1.5-195.25-1.75S95.377,463.708,95.21,482.708s11.667,66.166,20.833,85.833,31.154,48.719,55,49c21.25.25,85.5,2.25,122.25,8.75s82.5,23.75,106.25,32.5,17.75,20.5,11.75,37-33.75,85-39.5,103.25-18.25,48.25-24.5,68.5-16,25.5-39,24-72.25-11-89.75-16.5-70.5-23.75-89.5-31-28-15.75-28-42.75-3-61.75,6-83,26.75-46.75,27.75-65.25.251-37.551-31.5-38c-53-.75-93.023-18-92.75-70.5.167-32-.75-138.25-.5-177.75s3-126.25,4-158.25,3.25-47.25,36-68,51-28.5,81.75-41.5,42-19.25,72.75-35,96.25-47,120-50.25,41.75-8,75.5,3.5,58,23,101,42,130,50.417,173,66.083,99,36.334,135,50.334,66.084,35,59.75,82.333-15.75,70.333-26.75,99-62.538,167.18-78.333,207c-9.917,25-20.167,27-53.917,16.25-32.787-10.443-48.043-15.871-68.25-22.75-23.5-8-27.25,11-33.25,28s-32.5,92-37.75,106.5-19,18.5-42.5,10.5-63-22.75-82-29.75-18.25-17.75-11.75-36.75,35.584-96.333,40.584-110.833,18.577-15.609,33.833-9.667c15.833,6.167,63.833,25.875,83.208,32.5s36.625,11,42.875-6.375,34.25-97.875,43.25-121.625,7.084-39.583-1.5-58.875c-7.832-17.6-25.125-37.125-47.5-45.375C608.142,308.084,589.877,306.374,569.71,306.374Z"/><path id="5ec59de5-0fce-4c22-b087-92b63bab1ee3" data-name="Pitlane Inner" class="2a1b39f6-2e45-406f-83a8-867b23990b28" d="M238.293,999.291c0,59-.25,73.25,0,117s-.5,68-4.5,96.25-11.25,55.667-17.416,68.667-17.334,11-21.667,9.166-9.667-6.666-4.167-24.5,12.667-46.5,13.5-64.666,2.5-62.167,2.667-81-2.917-102.834-2.917-120.167"/><path id="1682347d-fd88-4d9d-b757-daa01c30b782" data-name="Track Inner" class="2d97efb3-aafa-4a74-9e77-085b33b94ef9" d="M569.71,306.374c-33.167,0-49.417.667-69.667,6.167s-41.25,25.5-72.75,32.5-59,8.25-88.75,9.25-48.833,2.417-65.833,17.583-23.667,26.834-25.5,45.5.333,44.167-1.333,62.334-3.584,44.082-3.584,72.083c0,27,3.5,52.5,3.5,88s-.25,72.922-2.583,102.917-5.5,84.333-5.167,111,.25,123.333.25,145.583-34.958,28.5-34.5.75c.584-35.333,4.917-169.667,3.25-204s-6.322-91.323-6.666-134.333c-.334-41.667,2.925-61.787,3.666-80,.75-18.417,6.459-30.709,15.625-30.542s12.25,14.125,12.209,28.042c-.04,13.334-.828,95.587-1.334,131.083-.5,35.083,12.167,44.583,12.667,81.917s2.5,82.833,7.667,96,15.095,26.87,30.333,35.166c15,8.167,32.667,8.667,49.5,8.834s54.333,5.083,86.333,4.333,70-9.75,87.25-11,95.484-6.974,115.75-9.333c31.5-3.667,21.678-30.666,56.167-31.667,25.833-.75,57.583-.25,79.083-.75s32.5-8.75,33.5-26,4.25-41.5,12.75-65.75,32.75-92,39.25-110.5,8.5-45.5-18.25-54.25-89.75-29.5-109-35.75-56.25-18-93.5-31-77.5-25.833-95.666-34.167-49.834-26.333-78-36.333-77.834-31.5-110.584-35.5-154-1.5-195.25-1.75S95.377,463.708,95.21,482.708s11.667,66.166,20.833,85.833,31.154,48.719,55,49c21.25.25,85.5,2.25,122.25,8.75s82.5,23.75,106.25,32.5,17.75,20.5,11.75,37-33.75,85-39.5,103.25-18.25,48.25-24.5,68.5-16,25.5-39,24-72.25-11-89.75-16.5-70.5-23.75-89.5-31-28-15.75-28-42.75-3-61.75,6-83,26.75-46.75,27.75-65.25.251-37.551-31.5-38c-53-.75-93.023-18-92.75-70.5.167-32-.75-138.25-.5-177.75s3-126.25,4-158.25,3.25-47.25,36-68,51-28.5,81.75-41.5,42-19.25,72.75-35,96.25-47,120-50.25,41.75-8,75.5,3.5,58,23,101,42,130,50.417,173,66.083,99,36.334,135,50.334,66.084,35,59.75,82.333-15.75,70.333-26.75,99-62.538,167.18-78.333,207c-9.917,25-20.167,27-53.917,16.25-32.787-10.443-48.043-15.871-68.25-22.75-23.5-8-27.25,11-33.25,28s-32.5,92-37.75,106.5-19,18.5-42.5,10.5-63-22.75-82-29.75-18.25-17.75-11.75-36.75,35.584-96.333,40.584-110.833,18.577-15.609,33.833-9.667c15.833,6.167,63.833,25.875,83.208,32.5s36.625,11,42.875-6.375,34.25-97.875,43.25-121.625,7.084-39.583-1.5-58.875c-7.832-17.6-25.125-37.125-47.5-45.375C608.142,308.084,589.877,306.374,569.71,306.374Z"/><g id="d6d606c7-5063-4d5f-a608-f1f8add6342a" data-name="Crossover"><path id="57eef04c-f62e-4557-b106-45926fdf0220" data-name="Crossover Outer" class="60a573c9-080c-4495-89de-fa3f4fba8b37" d="M247.2,417.362c-1.834,18.666.333,44.166-1.334,62.333s-3.583,44.082-3.583,72.083c0,27,3.5,52.5,3.5,88"/><path id="b407f541-9da4-49ed-8140-e5c459cb6e17" data-name="Crossover Middle" class="e816034b-b340-462c-b203-5d29c5bbbee5" d="M247.2,417.362c-1.834,18.666.333,44.166-1.334,62.333s-3.583,44.082-3.583,72.083c0,27,3.5,52.5,3.5,88"/><path id="cbe261e0-5872-4c02-b259-01c9e3f2a5b2" data-name="Crossover Inner" class="2d97efb3-aafa-4a74-9e77-085b33b94ef9" d="M247.2,417.362c-1.834,18.666.333,44.166-1.334,62.333s-3.583,44.082-3.583,72.083c0,27,3.5,52.5,3.5,88"/></g><g id="56058f55-a8a5-4254-bcd8-42c701a05fbf" data-name="Crossover"><path id="3d7a8386-0053-4226-b6a3-6e574b17665d" data-name="Crossover Outer" class="60a573c9-080c-4495-89de-fa3f4fba8b37" d="M308.285,891.528c-19.326-1.26-57.187-8.169-79.171-13.607-4.179-1.034-7.784-2.014-10.579-2.893-17.5-5.5-70.5-23.75-89.5-31"/><path id="e2c36c07-adcf-4114-abc5-e5db4c631145" data-name="Crossover Middle" class="e816034b-b340-462c-b203-5d29c5bbbee5" d="M308.285,891.528c-19.326-1.26-57.187-8.169-79.171-13.607-4.179-1.034-7.784-2.014-10.579-2.893-17.5-5.5-70.5-23.75-89.5-31"/><path id="c302b7d6-7ee2-463c-82f5-000d01803b7d" data-name="Crossover Inner" class="2d97efb3-aafa-4a74-9e77-085b33b94ef9" d="M308.285,891.528c-19.326-1.26-57.187-8.169-79.171-13.607-4.179-1.034-7.784-2.014-10.579-2.893-17.5-5.5-70.5-23.75-89.5-31"/></g><g id="9e9aba2b-78a0-4876-a085-7f6a33b8fa3c" data-name="Crossover"><path id="a442bd44-9785-4e35-b45b-66ed2ed2d2ac" data-name="Crossover Outer" class="60a573c9-080c-4495-89de-fa3f4fba8b37" d="M822.535,627.278c-26.75-8.75-89.75-29.5-109-35.75s-56.25-18-93.5-31-77.5-25.833-95.667-34.166-49.833-26.334-78-36.334"/><path id="dfd4b90e-4fa3-46de-8050-949863ecfbe4" data-name="Crossover Middle" class="e816034b-b340-462c-b203-5d29c5bbbee5" d="M822.535,627.278c-26.75-8.75-89.75-29.5-109-35.75s-56.25-18-93.5-31-77.5-25.833-95.667-34.166-49.833-26.334-78-36.334"/><path id="0b84f76d-c354-432d-ab70-4f7d195a6927" data-name="Crossover Inner" class="2d97efb3-aafa-4a74-9e77-085b33b94ef9" d="M822.535,627.278c-26.75-8.75-89.75-29.5-109-35.75s-56.25-18-93.5-31-77.5-25.833-95.667-34.166-49.833-26.334-78-36.334"/></g><g id="e294f60d-0505-4f47-9531-1b2f8b874e6b" data-name="Crossover"><path id="ea4b3201-5da0-4389-8404-b29ca946d654" data-name="Crossover Outer" class="60a573c9-080c-4495-89de-fa3f4fba8b37" d="M200.657,635.394c.783-24.814,2.812-39.811,3.378-53.7.75-18.417,6.458-30.708,15.625-30.542s12.25,14.125,12.208,28.042c-.02,6.789-.234,31.443-.506,58.7-.263,26.274-.579,54.963-.827,72.387-.5,35.084,12.167,44.584,12.667,81.917s2.5,82.833,7.666,96,15.1,26.87,30.334,35.167"/><path id="1b81ac68-7101-40d1-a34e-045985bbbe8b" data-name="Crossover Middle" class="e816034b-b340-462c-b203-5d29c5bbbee5" d="M200.657,635.394c.783-24.814,2.812-39.811,3.378-53.7.75-18.417,6.458-30.708,15.625-30.542s12.25,14.125,12.208,28.042c-.02,6.789-.234,31.443-.506,58.7-.263,26.274-.579,54.963-.827,72.387-.5,35.084,12.167,44.584,12.667,81.917s2.5,82.833,7.666,96,15.1,26.87,30.334,35.167"/><path id="a0507da7-516f-4b8e-855d-9867631a1a91" data-name="Crossover Inner" class="2d97efb3-aafa-4a74-9e77-085b33b94ef9" d="M200.657,635.394c.783-24.814,2.812-39.811,3.378-53.7.75-18.417,6.458-30.708,15.625-30.542s12.25,14.125,12.208,28.042c-.02,6.789-.234,31.443-.506,58.7-.263,26.274-.579,54.963-.827,72.387-.5,35.084,12.167,44.584,12.667,81.917s2.5,82.833,7.666,96,15.1,26.87,30.334,35.167"/></g><use id="f3033775-85a1-4aed-beca-3276eabcd924" data-name="Start-Finish-Line" width="200" height="103.617" transform="translate(582.52 282.383) rotate(90.256) scale(0.243)" xlink:href="#71d8c631-d871-4b35-ac84-4182a1baeb69"/></g></g></g></svg>