<svg xmlns="http://www.w3.org/2000/svg" xmlns:xlink="http://www.w3.org/1999/xlink" width="994.128" height="414.392" viewBox="0 0 994.128 414.392"><defs><style>.c100fa12-b7fa-40db-98a7-b952a6952e44{fill:#00ff24;}.\30 9e5395d-0d67-4c77-b632-f0df29dc4333,.c100fa12-b7fa-40db-98a7-b952a6952e44{stroke:#000;stroke-width:5px;}.\30 9e5395d-0d67-4c77-b632-f0df29dc4333,.\39 723da00-5aa0-4728-86d5-10e27b29f4e8,.a8b4a798-ec4f-45c1-b124-9bcc0337d0a0,.ae497348-b993-411a-9520-ab9cdf275de0,.b6ac85bc-a16b-4086-8229-f297ff46a78b,.c100fa12-b7fa-40db-98a7-b952a6952e44,.dbe021d7-0b5f-4283-a521-71095597ab5b{stroke-miterlimit:10;}.\30 9e5395d-0d67-4c77-b632-f0df29dc4333{fill:#fff;}.\39 723da00-5aa0-4728-86d5-10e27b29f4e8,.a8b4a798-ec4f-45c1-b124-9bcc0337d0a0,.ae497348-b993-411a-9520-ab9cdf275de0,.b6ac85bc-a16b-4086-8229-f297ff46a78b,.dbe021d7-0b5f-4283-a521-71095597ab5b{fill:none;}.\39 723da00-5aa0-4728-86d5-10e27b29f4e8,.b6ac85bc-a16b-4086-8229-f297ff46a78b{stroke:#c91c1c;}.ae497348-b993-411a-9520-ab9cdf275de0,.b6ac85bc-a16b-4086-8229-f297ff46a78b{stroke-width:20px;}.a8b4a798-ec4f-45c1-b124-9bcc0337d0a0,.ae497348-b993-411a-9520-ab9cdf275de0{stroke:#0080ff;}.dbe021d7-0b5f-4283-a521-71095597ab5b{stroke:#fff;stroke-width:12px;}.\39 723da00-5aa0-4728-86d5-10e27b29f4e8,.a8b4a798-ec4f-45c1-b124-9bcc0337d0a0{stroke-width:2px;}</style><symbol id="277c1d70-ee7c-42ce-966b-d2722548dae6" data-name="fd103434-89f2-4089-acf9-54fed79ed404" viewBox="0 0 200 103.617"><rect class="c100fa12-b7fa-40db-98a7-b952a6952e44" x="2.5" y="54.074" width="195" height="47.043"/><rect class="09e5395d-0d67-4c77-b632-f0df29dc4333" x="2.5" y="2.5" width="48.75" height="48.75"/><rect class="09e5395d-0d67-4c77-b632-f0df29dc4333" x="51.25" y="2.5" width="48.75" height="48.75"/><rect class="09e5395d-0d67-4c77-b632-f0df29dc4333" x="100" y="2.5" width="48.75" height="48.75"/><rect class="09e5395d-0d67-4c77-b632-f0df29dc4333" x="148.75" y="2.5" width="48.75" height="48.75"/></symbol></defs><title>MIKE_RenamedforSilkie</title><g id="670f3de1-3b0f-403b-8353-ac1fd18f7d17" data-name="Layer 2"><g id="7179775f-aa05-49bd-9c4e-f18c7b90c015" data-name="City - Vinewood"><g id="1d30a0cf-7da2-4531-881a-70327f408b27" data-name="MIKE_RenamedforSilkie"><path id="d7d57ef2-cd69-49c9-976a-89d52137327b" data-name="Pitlane Outer" class="b6ac85bc-a16b-4086-8229-f297ff46a78b" d="M27,142.851c7.375-18.125,21.845-42.5,46.834-34.826,19.988,6.142,70.352,24.068,92.227,31.318s36.432,27.065,56.7,34.239"/><path id="dd26b432-5c68-43ca-8289-bcc22ffe4f1d" data-name="Track Outer" class="ae497348-b993-411a-9520-ab9cdf275de0" d="M409,359.483c-16.767-5.858-81.333-28.291-99-35.125s-93.167-36.765-115.75-45c-22.625-8.25-36-12.625-53-18.375s-30.75-8.625-52.625-8.5-76.78,1-78.458-26.458c-1.833-30,12-85.333,26.833-98.167s25.75-9.5,44.25-3.5,92,32.334,107.5,37.5,38.635,13.171,55.5,19.25c21.5,7.75,28.084-10.75,33.75-26.916s26.167-71.834,29.167-81.667,10.167-13.167,19-10,21.333,7.5,38.333,13.5,20.341,18.289,14.5,34c-4.833,13-6.333,18.667-10.833,30.333s-7,26.167,7.167,31.5,16.666,6.167,27.833,10.167,24.167,6.167,30.167-10.833,13-35.5,17-46.667S459,111.692,470.5,115.858s78.667,28.834,97.5,34.667,38.834,9.5,57.167,3.5,40.5-23.167,51.167-42.333S711.863,46.951,725,33.025c13.834-14.667,40-22.449,58.167-23,16.5-.5,44.306,6.509,69.5,17,26.417,11,49.083,21.765,67,33.167,14.667,9.333,34.167,21.5,44.167,27.833s27.833,21.5,16.833,41.667-16.333,30.333-24,44.666-17.833,15.167-28.333,8.5-50.287-31.474-58.834-36.666c-17.833-10.834-25.249-33.678-45-24.334-23.25,11-39.75,15.25-57.25,25.5s-25,26.75-27.75,42-.75,31.75,6.75,49.5,9.5,34.75,4,47.5-28.25,41.5-37.75,47.75-22.25,5.75-37.5,0-41.5-16.25-55.25-21.75-27.5-5.75-33.75,14.25-17.25,55.25-22.25,67.75-18.148,12.081-36.75,5.5C508.622,393.358,435,368.567,409,359.483Z"/><path id="c7d17a62-cc6e-43a1-b3d5-4940b6bbce77" data-name="Pitlane Middle" class="dbe021d7-0b5f-4283-a521-71095597ab5b" d="M27,142.851c7.375-18.125,21.845-42.5,46.834-34.826,19.988,6.142,70.352,24.068,92.227,31.318s36.432,27.065,56.7,34.239"/><path id="aed67e8c-9a95-474c-849e-f4b5761bbbe9" data-name="Track Middle" class="dbe021d7-0b5f-4283-a521-71095597ab5b" d="M409,359.483c-16.767-5.858-81.333-28.291-99-35.125s-93.167-36.765-115.75-45c-22.625-8.25-36-12.625-53-18.375s-30.75-8.625-52.625-8.5-76.78,1-78.458-26.458c-1.833-30,12-85.333,26.833-98.167s25.75-9.5,44.25-3.5,92,32.334,107.5,37.5,38.635,13.171,55.5,19.25c21.5,7.75,28.084-10.75,33.75-26.916s26.167-71.834,29.167-81.667,10.167-13.167,19-10,21.333,7.5,38.333,13.5,20.341,18.289,14.5,34c-4.833,13-6.333,18.667-10.833,30.333s-7,26.167,7.167,31.5,16.666,6.167,27.833,10.167,24.167,6.167,30.167-10.833,13-35.5,17-46.667S459,111.692,470.5,115.858s78.667,28.834,97.5,34.667,38.834,9.5,57.167,3.5,40.5-23.167,51.167-42.333S711.863,46.951,725,33.025c13.834-14.667,40-22.449,58.167-23,16.5-.5,44.306,6.509,69.5,17,26.417,11,49.083,21.765,67,33.167,14.667,9.333,34.167,21.5,44.167,27.833s27.833,21.5,16.833,41.667-16.333,30.333-24,44.666-17.833,15.167-28.333,8.5-50.287-31.474-58.834-36.666c-17.833-10.834-25.249-33.678-45-24.334-23.25,11-39.75,15.25-57.25,25.5s-25,26.75-27.75,42-.75,31.75,6.75,49.5,9.5,34.75,4,47.5-28.25,41.5-37.75,47.75-22.25,5.75-37.5,0-41.5-16.25-55.25-21.75-27.5-5.75-33.75,14.25-17.25,55.25-22.25,67.75-18.148,12.081-36.75,5.5C508.622,393.358,435,368.567,409,359.483Z"/><path id="ea947312-728f-427b-b388-5e5da9855cb2" data-name="Pitlane Inner" class="9723da00-5aa0-4728-86d5-10e27b29f4e8" d="M27,142.851c7.375-18.125,21.845-42.5,46.834-34.826,19.988,6.142,70.352,24.068,92.227,31.318s36.432,27.065,56.7,34.239"/><path id="a64df838-7afd-4475-ac21-af87e6eb2a5a" data-name="Track Inner" class="a8b4a798-ec4f-45c1-b124-9bcc0337d0a0" d="M409,359.483c-16.767-5.858-81.333-28.291-99-35.125s-93.167-36.765-115.75-45c-22.625-8.25-36-12.625-53-18.375s-30.75-8.625-52.625-8.5-76.78,1-78.458-26.458c-1.833-30,12-85.333,26.833-98.167s25.75-9.5,44.25-3.5,92,32.334,107.5,37.5,38.635,13.171,55.5,19.25c21.5,7.75,28.084-10.75,33.75-26.916s26.167-71.834,29.167-81.667,10.167-13.167,19-10,21.333,7.5,38.333,13.5,20.341,18.289,14.5,34c-4.833,13-6.333,18.667-10.833,30.333s-7,26.167,7.167,31.5,16.666,6.167,27.833,10.167,24.167,6.167,30.167-10.833,13-35.5,17-46.667S459,111.692,470.5,115.858s78.667,28.834,97.5,34.667,38.834,9.5,57.167,3.5,40.5-23.167,51.167-42.333S711.863,46.951,725,33.025c13.834-14.667,40-22.449,58.167-23,16.5-.5,44.306,6.509,69.5,17,26.417,11,49.083,21.765,67,33.167,14.667,9.333,34.167,21.5,44.167,27.833s27.833,21.5,16.833,41.667-16.333,30.333-24,44.666-17.833,15.167-28.333,8.5-50.287-31.474-58.834-36.666c-17.833-10.834-25.249-33.678-45-24.334-23.25,11-39.75,15.25-57.25,25.5s-25,26.75-27.75,42-.75,31.75,6.75,49.5,9.5,34.75,4,47.5-28.25,41.5-37.75,47.75-22.25,5.75-37.5,0-41.5-16.25-55.25-21.75-27.5-5.75-33.75,14.25-17.25,55.25-22.25,67.75-18.148,12.081-36.75,5.5C508.622,393.358,435,368.567,409,359.483Z"/><use id="deb8434c-c3ff-4637-a6f7-779506086a2e" data-name="Start-Finish-Line" width="200" height="103.617" transform="matrix(-0.077, 0.23, -0.23, -0.077, 430.72, 341.192)" xlink:href="#277c1d70-ee7c-42ce-966b-d2722548dae6"/></g></g></g></svg>