<svg xmlns="http://www.w3.org/2000/svg" xmlns:xlink="http://www.w3.org/1999/xlink" width="1005.881" height="860.039" viewBox="0 0 1005.881 860.039"><defs><style>.\35 2ed61b5-920b-4806-8aab-5c4a506540d2{fill:#00ff24;}.\35 2ed61b5-920b-4806-8aab-5c4a506540d2,.\38 a23370a-e025-4d49-ba27-a844d9c3dff6{stroke:#000;stroke-width:5px;}.\32 2e3a2ca-f4a3-4c16-ab99-31c874daca6e,.\34 780c755-b4f7-4b4f-98a2-7a3225ed6b15,.\35 2ed61b5-920b-4806-8aab-5c4a506540d2,.\37 28ace25-0565-4c7c-bbfd-392fd6bb51ee,.\37 6e40ae7-8fc8-4154-8f1d-d78f61cb5460,.\38 a23370a-e025-4d49-ba27-a844d9c3dff6,.be484bcb-15ef-4999-a5c0-ec17f98a02fd{stroke-miterlimit:10;}.\38 a23370a-e025-4d49-ba27-a844d9c3dff6{fill:#fff;}.\32 2e3a2ca-f4a3-4c16-ab99-31c874daca6e,.\34 780c755-b4f7-4b4f-98a2-7a3225ed6b15,.\37 28ace25-0565-4c7c-bbfd-392fd6bb51ee,.\37 6e40ae7-8fc8-4154-8f1d-d78f61cb5460,.be484bcb-15ef-4999-a5c0-ec17f98a02fd{fill:none;}.\34 780c755-b4f7-4b4f-98a2-7a3225ed6b15,.\37 6e40ae7-8fc8-4154-8f1d-d78f61cb5460{stroke:#c91c1c;}.\34 780c755-b4f7-4b4f-98a2-7a3225ed6b15,.\37 28ace25-0565-4c7c-bbfd-392fd6bb51ee{stroke-width:20px;}.\32 2e3a2ca-f4a3-4c16-ab99-31c874daca6e,.\37 28ace25-0565-4c7c-bbfd-392fd6bb51ee{stroke:#0080ff;}.be484bcb-15ef-4999-a5c0-ec17f98a02fd{stroke:#fff;stroke-width:12px;}.\32 2e3a2ca-f4a3-4c16-ab99-31c874daca6e,.\37 6e40ae7-8fc8-4154-8f1d-d78f61cb5460{stroke-width:2px;}</style><symbol id="6bb27f44-55f4-4bce-b595-6012926770b4" data-name="fd103434-89f2-4089-acf9-54fed79ed404" viewBox="0 0 200 103.617"><rect class="52ed61b5-920b-4806-8aab-5c4a506540d2" x="2.5" y="54.074" width="195" height="47.043"/><rect class="8a23370a-e025-4d49-ba27-a844d9c3dff6" x="2.5" y="2.5" width="48.75" height="48.75"/><rect class="8a23370a-e025-4d49-ba27-a844d9c3dff6" x="51.25" y="2.5" width="48.75" height="48.75"/><rect class="8a23370a-e025-4d49-ba27-a844d9c3dff6" x="100" y="2.5" width="48.75" height="48.75"/><rect class="8a23370a-e025-4d49-ba27-a844d9c3dff6" x="148.75" y="2.5" width="48.75" height="48.75"/></symbol></defs><title>SCRZ_Rismo</title><g id="1c4c3483-fb4b-4234-8143-276089a764bf" data-name="Layer 2"><g id="df23ea63-fd1c-48a3-82f1-65c9c63e9d64" data-name="City - Vinewood"><g id="da3d79a5-5696-4562-9777-679830e8750e" data-name="SCRZ_Rismo"><path id="7357d0c2-ce6f-48ff-b4aa-d496e9513285" data-name="Pitlane Outer" class="4780c755-b4f7-4b4f-98a2-7a3225ed6b15" d="M636.606,523.851c17,10.5,31.65,27.06,44.15,35.394s20.667,13.833,31.334,20.666,18.666-.166,24.333-9.166,35.333-55.667,39.167-61.5,2.492-12.567-4.5-17.167c-6.334-4.167-9.763-6.442-13.334-8.667-5.083-3.166-4.555-8.492,1.5-18.5,6-9.916,18.834-30.416,23.167-37.666s7.583-10.25,2.917-15.167.916-9.833,5.666-15.5,30.584-36.625,37.584-45.125,2.793-16.6,11.347-26.7"/><path id="967b411a-7ff9-412b-8aec-0a3cd80998c9" data-name="Track Outer" class="728ace25-0565-4c7c-bbfd-392fd6bb51ee" d="M234.256,355.411c-28.926-10.069-84.083-30.333-97.833-35.333s-12.083-17-7.083-31.75,27.583-76.75,31.75-88.25,5.666-23.167-13.834-30.5-36.833-14.167-60-12.833-35.628,6.921-48.833,16c-16,11-37.31-5.368-24.5-21,11.917-14.542,22.333-22,35.333-29.334S73.84,107.828,96.59,103.078s40.25-8.5,48.5-12.25,13.5-4.25,27,3.75,43.5,27,62.166,33.667,51.167,15.333,62.5,21.5,28.667,13.666,30,32.833-.333,20.667-2,26-1,12.5,13.167,17.5,71.167,25.667,98.333,35.167,35.667,13,67.5,20.333,72.834,24,90.667,31.833,34.833,21.834,38.833,33.667,6.167,28.167-.833,39.167-42.5,59.166-50,70.833-23.167,15.833-45,7.167-61.5-23-83-22.334-38.126,2.113-51.5,12.5c-17.167,13.334-26.333,24.667-35.333,39.167s-45.334,76.167-52.834,87.5-8.833,27.5,13.167,35.5,35,9.667,45.833,11.5,17.834,8.167,20.5,23.333S407,677.831,406.59,698.5c-.334,17-17.549,43.115-10,63.916,7.5,20.667,17.5,38.167,39.833,49s48.5,23,65.333,29.667,35.834,14.333,46.667,3.667,16.167-15,30-17.167,19.5-6,28.667-10.5,29.6-11.652,49.5-16.333c17-4,36-6.334,48.166-6.667s36.834-1.167,56.5-5,32.667-9.667,43.5-24.5-3.666-22.833-12.333-28.667-32-23.666-44.5-31.833-62.667-39.5-75-46.833-21.167-8.667-38.667-19.5-88.5-54.667-101.5-63.334-18.294-16.94-21.666-23.166c-4.334-8,5.323-11.9,17.666-22.5,11.834-10.167,23.334-23.167,27.834-31.334s13.969-14.271,29.666-4.5c16.334,10.167,42.834,26.167,52.834,32.5s26.5,9,35-4.833,28.3-37.856,40.5-49.5c14.666-14,30.666-30.5,42-44.833s72.166-88.167,85.166-103.667,30.334-34.5,39.834-50.167,17-23,36.666-31.666,44.667-15.334,57.334-23.5,23.333-27.167,19.5-43.667-10.5-21.167-21.667-31.833-42.167-40-54.667-51-44.291-42.167-56.541-52.667-21.625-16.75-43.75-20.5-32.25-4.125-44.125-7-10.375,5.375-7.375,15.875,5.625,27.75.625,46.375-23.75,48.125-36.125,61-37.25,38.625-64.625,44.875-50.25,3.875-64.25,2.625-37-9-55.75-2.75-33.25,15.25-49.75,26.25-23.75,18.25-37.25,54-39.5,108.5-47.5,130.75-22.623,20.608-38.75,14.667c-19-7-59.334-21-78.167-27.5S260.59,364.578,234.256,355.411Z"/><path id="850b9434-ba2e-4e22-8340-477cec56410e" data-name="Pitlane Middle" class="be484bcb-15ef-4999-a5c0-ec17f98a02fd" d="M636.606,523.851c17,10.5,31.65,27.06,44.15,35.394s20.667,13.833,31.334,20.666,18.666-.166,24.333-9.166,35.333-55.667,39.167-61.5,2.492-12.567-4.5-17.167c-6.334-4.167-9.763-6.442-13.334-8.667-5.083-3.166-4.555-8.492,1.5-18.5,6-9.916,18.834-30.416,23.167-37.666s7.583-10.25,2.917-15.167.916-9.833,5.666-15.5,30.584-36.625,37.584-45.125,2.793-16.6,11.347-26.7"/><path id="49258f35-8474-4d20-ba01-a04d86809140" data-name="Track Middle" class="be484bcb-15ef-4999-a5c0-ec17f98a02fd" d="M234.256,355.411c-28.926-10.069-84.083-30.333-97.833-35.333s-12.083-17-7.083-31.75,27.583-76.75,31.75-88.25,5.666-23.167-13.834-30.5-36.833-14.167-60-12.833-35.628,6.921-48.833,16c-16,11-37.31-5.368-24.5-21,11.917-14.542,22.333-22,35.333-29.334S73.84,107.828,96.59,103.078s40.25-8.5,48.5-12.25,13.5-4.25,27,3.75,43.5,27,62.166,33.667,51.167,15.333,62.5,21.5,28.667,13.666,30,32.833-.333,20.667-2,26-1,12.5,13.167,17.5,71.167,25.667,98.333,35.167,35.667,13,67.5,20.333,72.834,24,90.667,31.833,34.833,21.834,38.833,33.667,6.167,28.167-.833,39.167-42.5,59.166-50,70.833-23.167,15.833-45,7.167-61.5-23-83-22.334-38.126,2.113-51.5,12.5c-17.167,13.334-26.333,24.667-35.333,39.167s-45.334,76.167-52.834,87.5-8.833,27.5,13.167,35.5,35,9.667,45.833,11.5,17.834,8.167,20.5,23.333S407,677.831,406.59,698.5c-.334,17-17.549,43.115-10,63.916,7.5,20.667,17.5,38.167,39.833,49s48.5,23,65.333,29.667,35.834,14.333,46.667,3.667,16.167-15,30-17.167,19.5-6,28.667-10.5,29.6-11.652,49.5-16.333c17-4,36-6.334,48.166-6.667s36.834-1.167,56.5-5,32.667-9.667,43.5-24.5-3.666-22.833-12.333-28.667-32-23.666-44.5-31.833-62.667-39.5-75-46.833-21.167-8.667-38.667-19.5-88.5-54.667-101.5-63.334-18.294-16.94-21.666-23.166c-4.334-8,5.323-11.9,17.666-22.5,11.834-10.167,23.334-23.167,27.834-31.334s13.969-14.271,29.666-4.5c16.334,10.167,42.834,26.167,52.834,32.5s26.5,9,35-4.833,28.3-37.856,40.5-49.5c14.666-14,30.666-30.5,42-44.833s72.166-88.167,85.166-103.667,30.334-34.5,39.834-50.167,17-23,36.666-31.666,44.667-15.334,57.334-23.5,23.333-27.167,19.5-43.667-10.5-21.167-21.667-31.833-42.167-40-54.667-51-44.291-42.167-56.541-52.667-21.625-16.75-43.75-20.5-32.25-4.125-44.125-7-10.375,5.375-7.375,15.875,5.625,27.75.625,46.375-23.75,48.125-36.125,61-37.25,38.625-64.625,44.875-50.25,3.875-64.25,2.625-37-9-55.75-2.75-33.25,15.25-49.75,26.25-23.75,18.25-37.25,54-39.5,108.5-47.5,130.75-22.623,20.608-38.75,14.667c-19-7-59.334-21-78.167-27.5S260.59,364.578,234.256,355.411Z"/><path id="9a70843c-beb9-43b6-b00f-2daacf3b2e61" data-name="Pitlane Inner" class="76e40ae7-8fc8-4154-8f1d-d78f61cb5460" d="M636.606,523.851c17,10.5,31.65,27.06,44.15,35.394s20.667,13.833,31.334,20.666,18.666-.166,24.333-9.166,35.333-55.667,39.167-61.5,2.492-12.567-4.5-17.167c-6.334-4.167-9.763-6.442-13.334-8.667-5.083-3.166-4.555-8.492,1.5-18.5,6-9.916,18.834-30.416,23.167-37.666s7.583-10.25,2.917-15.167.916-9.833,5.666-15.5,30.584-36.625,37.584-45.125,2.793-16.6,11.347-26.7"/><path id="d8cc847d-500f-4dd2-9d16-5ea5072aedc0" data-name="Track Inner" class="22e3a2ca-f4a3-4c16-ab99-31c874daca6e" d="M234.256,355.411c-28.926-10.069-84.083-30.333-97.833-35.333s-12.083-17-7.083-31.75,27.583-76.75,31.75-88.25,5.666-23.167-13.834-30.5-36.833-14.167-60-12.833-35.628,6.921-48.833,16c-16,11-37.31-5.368-24.5-21,11.917-14.542,22.333-22,35.333-29.334S73.84,107.828,96.59,103.078s40.25-8.5,48.5-12.25,13.5-4.25,27,3.75,43.5,27,62.166,33.667,51.167,15.333,62.5,21.5,28.667,13.666,30,32.833-.333,20.667-2,26-1,12.5,13.167,17.5,71.167,25.667,98.333,35.167,35.667,13,67.5,20.333,72.834,24,90.667,31.833,34.833,21.834,38.833,33.667,6.167,28.167-.833,39.167-42.5,59.166-50,70.833-23.167,15.833-45,7.167-61.5-23-83-22.334-38.126,2.113-51.5,12.5c-17.167,13.334-26.333,24.667-35.333,39.167s-45.334,76.167-52.834,87.5-8.833,27.5,13.167,35.5,35,9.667,45.833,11.5,17.834,8.167,20.5,23.333S407,677.831,406.59,698.5c-.334,17-17.549,43.115-10,63.916,7.5,20.667,17.5,38.167,39.833,49s48.5,23,65.333,29.667,35.834,14.333,46.667,3.667,16.167-15,30-17.167,19.5-6,28.667-10.5,29.6-11.652,49.5-16.333c17-4,36-6.334,48.166-6.667s36.834-1.167,56.5-5,32.667-9.667,43.5-24.5-3.666-22.833-12.333-28.667-32-23.666-44.5-31.833-62.667-39.5-75-46.833-21.167-8.667-38.667-19.5-88.5-54.667-101.5-63.334-18.294-16.94-21.666-23.166c-4.334-8,5.323-11.9,17.666-22.5,11.834-10.167,23.334-23.167,27.834-31.334s13.969-14.271,29.666-4.5c16.334,10.167,42.834,26.167,52.834,32.5s26.5,9,35-4.833,28.3-37.856,40.5-49.5c14.666-14,30.666-30.5,42-44.833s72.166-88.167,85.166-103.667,30.334-34.5,39.834-50.167,17-23,36.666-31.666,44.667-15.334,57.334-23.5,23.333-27.167,19.5-43.667-10.5-21.167-21.667-31.833-42.167-40-54.667-51-44.291-42.167-56.541-52.667-21.625-16.75-43.75-20.5-32.25-4.125-44.125-7-10.375,5.375-7.375,15.875,5.625,27.75.625,46.375-23.75,48.125-36.125,61-37.25,38.625-64.625,44.875-50.25,3.875-64.25,2.625-37-9-55.75-2.75-33.25,15.25-49.75,26.25-23.75,18.25-37.25,54-39.5,108.5-47.5,130.75-22.623,20.608-38.75,14.667c-19-7-59.334-21-78.167-27.5S260.59,364.578,234.256,355.411Z"/><g id="b12dae05-9c41-426d-bbf9-9946f6e72577" data-name="Crossover"><path id="4b22c460-d02a-43e1-860d-97d80a43276c" data-name="Crossover Outer" class="728ace25-0565-4c7c-bbfd-392fd6bb51ee" d="M497.072,204.862c-16.5,11-23.75,18.25-37.25,54s-39.5,108.5-47.5,130.75"/><path id="6e4d1ea5-fd53-499b-b3cc-802784cec552" data-name="Crossover Middle" class="be484bcb-15ef-4999-a5c0-ec17f98a02fd" d="M497.072,204.862c-16.5,11-23.75,18.25-37.25,54s-39.5,108.5-47.5,130.75"/><path id="84f13464-c7ff-4938-96a6-82da6d982223" data-name="Crossover Inner" class="22e3a2ca-f4a3-4c16-ab99-31c874daca6e" d="M497.072,204.862c-16.5,11-23.75,18.25-37.25,54s-39.5,108.5-47.5,130.75"/></g><use id="5e53ca8e-25a8-4cca-95fb-83cdeb10d1ab" data-name="Start-Finish-Line" width="200" height="103.617" transform="translate(254.935 336.839) rotate(109.348) scale(0.243)" xlink:href="#6bb27f44-55f4-4bce-b595-6012926770b4"/></g></g></g></svg>