<svg xmlns="http://www.w3.org/2000/svg" xmlns:xlink="http://www.w3.org/1999/xlink" width="1047.643" height="1059.538" viewBox="0 0 1047.643 1059.538"><defs><style>.\30 f354d40-430f-4e4b-ab6f-0b9cdf1d905e{fill:#00ff24;}.\30 b553c57-998d-4876-83d5-9649757d3701,.\30 f354d40-430f-4e4b-ab6f-0b9cdf1d905e{stroke:#000;stroke-width:5px;}.\30 699dc77-88f1-4ea6-bbb0-f67eb3c70ebb,.\30 b553c57-998d-4876-83d5-9649757d3701,.\30 f354d40-430f-4e4b-ab6f-0b9cdf1d905e,.\38 93e3681-cc58-4dda-ad0a-9f42d2e5b958,.d918680a-17b4-43b6-aa80-0cb6d041a140{stroke-miterlimit:10;}.\30 b553c57-998d-4876-83d5-9649757d3701{fill:#fff;}.\30 699dc77-88f1-4ea6-bbb0-f67eb3c70ebb,.\38 93e3681-cc58-4dda-ad0a-9f42d2e5b958,.d918680a-17b4-43b6-aa80-0cb6d041a140{fill:none;}.\30 699dc77-88f1-4ea6-bbb0-f67eb3c70ebb,.\38 93e3681-cc58-4dda-ad0a-9f42d2e5b958{stroke:#0080ff;}.\30 699dc77-88f1-4ea6-bbb0-f67eb3c70ebb{stroke-width:20px;}.d918680a-17b4-43b6-aa80-0cb6d041a140{stroke:#fff;stroke-width:12px;}.\38 93e3681-cc58-4dda-ad0a-9f42d2e5b958{stroke-width:2px;}</style><symbol id="5b0ba554-6926-44b6-8bd1-15704711d63b" data-name="fd103434-89f2-4089-acf9-54fed79ed404" viewBox="0 0 200 103.617"><rect class="0f354d40-430f-4e4b-ab6f-0b9cdf1d905e" x="2.5" y="54.074" width="195" height="47.043"/><rect class="0b553c57-998d-4876-83d5-9649757d3701" x="2.5" y="2.5" width="48.75" height="48.75"/><rect class="0b553c57-998d-4876-83d5-9649757d3701" x="51.25" y="2.5" width="48.75" height="48.75"/><rect class="0b553c57-998d-4876-83d5-9649757d3701" x="100" y="2.5" width="48.75" height="48.75"/><rect class="0b553c57-998d-4876-83d5-9649757d3701" x="148.75" y="2.5" width="48.75" height="48.75"/></symbol></defs><title>VIG_Circuit_Alta</title><g id="9b4158d5-681a-43b0-808e-9c9d936fb0f7" data-name="Layer 2"><g id="1e32c76e-ae18-4997-8f35-7564a75a88c0" data-name="City - Vinewood"><g id="629fccf1-3804-406f-a757-22a05db9670d" data-name="VIG_Circuit_Alta"><path id="7c085e78-7196-4300-b4b8-604e31383fb8" data-name="Track Outer" class="0699dc77-88f1-4ea6-bbb0-f67eb3c70ebb" d="M233.541,518.276C207.21,508.9,99.5,470.609,82.5,464.109s-24.511,2.7-28.667,19.5c-4,16.167-20.917,88.667-25.417,109.917s-14.5,72.75-17.75,89,5.334,27.583,27,34.75,41,12.75,62.25,20.25,33.25-2.25,40.5-19.5,21.5-54.75,27-67.75,17.5-6.75,34.75,0,170.5,63.166,190.167,70.833,38.333,8.5,45.833-13.667,21.5-65.333,25.5-77.333,14.81-14.731,25.334-11.667c13.166,3.834,34.483,11.886,53.5,11.667,14.5-.167,14.653,10.186,19.166,24.667,4,12.833,9.834,20.5,11.834,31.666s1.833,23.5-6.834,36.167S532,768.276,525.333,776.776s-16.333,26-25,38.333-25.083,24.417-40.917,28.917-40.031,1.516-57.75-4.5c-22.333-7.584-81-27.417-98-33.084s-29.166-1.333-36.333,15.667-15.5,34.167-21,52-32,97.5-36.833,112.833-3.084,24.834,20.041,33.709,53.125,19.791,67.625,24.625,31,9.166,38.334-8.5,47.166-107.5,60.166-128.5,23.834-32.834,37.5-41.667,37.667-12.333,47.5-18.5,24.667-16.667,41-42.667,39.834-57.666,47-67.666,19.167-23.667,16-47.167-12.833-25.333-14.333-48.167,7.4-49.793,18.833-60.166c16.167-14.667,44.505-23.071,56.5-27.75,15.167-5.917,28.167-7.417,39.167,5.75s28,20.833,43.667,31,54.916,33.75,70.916,44,28.25,13.833,36.584,18.666,15.5,3.334,21.166-6,23.334-36,29-46,6.667-20-10.5-31-49.333-33.166-66-42.833-43-25.667-57.166-35-12.667-19.667-.834-37.833,47.75-65,55.75-80.75,48.25-68.584,57.584-82.25,18.666-28.125,30.541-42.5a567.054,567.054,0,0,1,44.792-47.334c17-16.166,50.833-53,57.667-66.333s13.833-27.5,22-43,12.5-25,16-32.5,2.166-17.167-11.5-27.667-30.834-14.333-44.334-16.833-24-3.5-36.5-5.667-12.166,3.834-9,13.5,5.5,26.167,1.834,43.834-14,36-23,47.166-29.834,36.834-43.167,46-22.333,16.5-53,20.5-53.667-1.333-64.333-3.166-26-3.167-46.334,3-39.5,23.166-52,31-20,31.166-24,40.666S615.5,264.276,600,259.109s-80.334-29.167-93.5-33.667-15.667-10.5-12.834-20.333,6-16.5-.833-32.167-26.167-22.666-36.167-26.333-46.333-13-66.666-23.667-38.334-22-52.334-30.166-20.166-4-31.666.333-39.834,8.167-52.5,12.333-43.5,19.834-52.834,27-25.166,26.667-31.666,38-22.884,49.816-27.167,62.5c-4.333,12.834-4,24,14.167,31s89.416,32.834,105.666,39.334,30,3.5,37.75-20.25,26-72.5,31.5-87.75,12.584-14.667,32.084-9.5,76.916,17,97.416,23.75,25.5,13,19.5,28.5-34,92.75-39,106-5.25,19.75,10.75,26.25,86.25,32.5,99.25,37,17.25,20.25,11.25,40.75-23.5,53.5-35,72.5-28.25,50.25-37.5,60.5-22,23-52.25,12.25-100.25-38-127-47.75S272.166,532.026,233.541,518.276Z"/><path id="6561741c-d70c-449b-93e1-b44a4f85d12b" data-name="Track Middle" class="d918680a-17b4-43b6-aa80-0cb6d041a140" d="M233.541,518.276C207.21,508.9,99.5,470.609,82.5,464.109s-24.511,2.7-28.667,19.5c-4,16.167-20.917,88.667-25.417,109.917s-14.5,72.75-17.75,89,5.334,27.583,27,34.75,41,12.75,62.25,20.25,33.25-2.25,40.5-19.5,21.5-54.75,27-67.75,17.5-6.75,34.75,0,170.5,63.166,190.167,70.833,38.333,8.5,45.833-13.667,21.5-65.333,25.5-77.333,14.81-14.731,25.334-11.667c13.166,3.834,34.483,11.886,53.5,11.667,14.5-.167,14.653,10.186,19.166,24.667,4,12.833,9.834,20.5,11.834,31.666s1.833,23.5-6.834,36.167S532,768.276,525.333,776.776s-16.333,26-25,38.333-25.083,24.417-40.917,28.917-40.031,1.516-57.75-4.5c-22.333-7.584-81-27.417-98-33.084s-29.166-1.333-36.333,15.667-15.5,34.167-21,52-32,97.5-36.833,112.833-3.084,24.834,20.041,33.709,53.125,19.791,67.625,24.625,31,9.166,38.334-8.5,47.166-107.5,60.166-128.5,23.834-32.834,37.5-41.667,37.667-12.333,47.5-18.5,24.667-16.667,41-42.667,39.834-57.666,47-67.666,19.167-23.667,16-47.167-12.833-25.333-14.333-48.167,7.4-49.793,18.833-60.166c16.167-14.667,44.505-23.071,56.5-27.75,15.167-5.917,28.167-7.417,39.167,5.75s28,20.833,43.667,31,54.916,33.75,70.916,44,28.25,13.833,36.584,18.666,15.5,3.334,21.166-6,23.334-36,29-46,6.667-20-10.5-31-49.333-33.166-66-42.833-43-25.667-57.166-35-12.667-19.667-.834-37.833,47.75-65,55.75-80.75,48.25-68.584,57.584-82.25,18.666-28.125,30.541-42.5a567.054,567.054,0,0,1,44.792-47.334c17-16.166,50.833-53,57.667-66.333s13.833-27.5,22-43,12.5-25,16-32.5,2.166-17.167-11.5-27.667-30.834-14.333-44.334-16.833-24-3.5-36.5-5.667-12.166,3.834-9,13.5,5.5,26.167,1.834,43.834-14,36-23,47.166-29.834,36.834-43.167,46-22.333,16.5-53,20.5-53.667-1.333-64.333-3.166-26-3.167-46.334,3-39.5,23.166-52,31-20,31.166-24,40.666S615.5,264.276,600,259.109s-80.334-29.167-93.5-33.667-15.667-10.5-12.834-20.333,6-16.5-.833-32.167-26.167-22.666-36.167-26.333-46.333-13-66.666-23.667-38.334-22-52.334-30.166-20.166-4-31.666.333-39.834,8.167-52.5,12.333-43.5,19.834-52.834,27-25.166,26.667-31.666,38-22.884,49.816-27.167,62.5c-4.333,12.834-4,24,14.167,31s89.416,32.834,105.666,39.334,30,3.5,37.75-20.25,26-72.5,31.5-87.75,12.584-14.667,32.084-9.5,76.916,17,97.416,23.75,25.5,13,19.5,28.5-34,92.75-39,106-5.25,19.75,10.75,26.25,86.25,32.5,99.25,37,17.25,20.25,11.25,40.75-23.5,53.5-35,72.5-28.25,50.25-37.5,60.5-22,23-52.25,12.25-100.25-38-127-47.75S272.166,532.026,233.541,518.276Z"/><path id="2dddd47d-a4c4-4859-9c56-1fe22bf8c281" data-name="Track Inner" class="893e3681-cc58-4dda-ad0a-9f42d2e5b958" d="M233.541,518.276C207.21,508.9,99.5,470.609,82.5,464.109s-24.511,2.7-28.667,19.5c-4,16.167-20.917,88.667-25.417,109.917s-14.5,72.75-17.75,89,5.334,27.583,27,34.75,41,12.75,62.25,20.25,33.25-2.25,40.5-19.5,21.5-54.75,27-67.75,17.5-6.75,34.75,0,170.5,63.166,190.167,70.833,38.333,8.5,45.833-13.667,21.5-65.333,25.5-77.333,14.81-14.731,25.334-11.667c13.166,3.834,34.483,11.886,53.5,11.667,14.5-.167,14.653,10.186,19.166,24.667,4,12.833,9.834,20.5,11.834,31.666s1.833,23.5-6.834,36.167S532,768.276,525.333,776.776s-16.333,26-25,38.333-25.083,24.417-40.917,28.917-40.031,1.516-57.75-4.5c-22.333-7.584-81-27.417-98-33.084s-29.166-1.333-36.333,15.667-15.5,34.167-21,52-32,97.5-36.833,112.833-3.084,24.834,20.041,33.709,53.125,19.791,67.625,24.625,31,9.166,38.334-8.5,47.166-107.5,60.166-128.5,23.834-32.834,37.5-41.667,37.667-12.333,47.5-18.5,24.667-16.667,41-42.667,39.834-57.666,47-67.666,19.167-23.667,16-47.167-12.833-25.333-14.333-48.167,7.4-49.793,18.833-60.166c16.167-14.667,44.505-23.071,56.5-27.75,15.167-5.917,28.167-7.417,39.167,5.75s28,20.833,43.667,31,54.916,33.75,70.916,44,28.25,13.833,36.584,18.666,15.5,3.334,21.166-6,23.334-36,29-46,6.667-20-10.5-31-49.333-33.166-66-42.833-43-25.667-57.166-35-12.667-19.667-.834-37.833,47.75-65,55.75-80.75,48.25-68.584,57.584-82.25,18.666-28.125,30.541-42.5a567.054,567.054,0,0,1,44.792-47.334c17-16.166,50.833-53,57.667-66.333s13.833-27.5,22-43,12.5-25,16-32.5,2.166-17.167-11.5-27.667-30.834-14.333-44.334-16.833-24-3.5-36.5-5.667-12.166,3.834-9,13.5,5.5,26.167,1.834,43.834-14,36-23,47.166-29.834,36.834-43.167,46-22.333,16.5-53,20.5-53.667-1.333-64.333-3.166-26-3.167-46.334,3-39.5,23.166-52,31-20,31.166-24,40.666S615.5,264.276,600,259.109s-80.334-29.167-93.5-33.667-15.667-10.5-12.834-20.333,6-16.5-.833-32.167-26.167-22.666-36.167-26.333-46.333-13-66.666-23.667-38.334-22-52.334-30.166-20.166-4-31.666.333-39.834,8.167-52.5,12.333-43.5,19.834-52.834,27-25.166,26.667-31.666,38-22.884,49.816-27.167,62.5c-4.333,12.834-4,24,14.167,31s89.416,32.834,105.666,39.334,30,3.5,37.75-20.25,26-72.5,31.5-87.75,12.584-14.667,32.084-9.5,76.916,17,97.416,23.75,25.5,13,19.5,28.5-34,92.75-39,106-5.25,19.75,10.75,26.25,86.25,32.5,99.25,37,17.25,20.25,11.25,40.75-23.5,53.5-35,72.5-28.25,50.25-37.5,60.5-22,23-52.25,12.25-100.25-38-127-47.75S272.166,532.026,233.541,518.276Z"/><use id="fa4dbcd0-b5bd-4a9c-85b2-5ce632494fd9" data-name="Start-Finish-Line" width="200" height="103.617" transform="translate(253.428 499.453) rotate(109.348) scale(0.243)" xlink:href="#5b0ba554-6926-44b6-8bd1-15704711d63b"/></g></g></g></svg>