<svg xmlns="http://www.w3.org/2000/svg" xmlns:xlink="http://www.w3.org/1999/xlink" width="651.718" height="362.335" viewBox="0 0 651.718 362.335"><defs><style>.\37 ae11196-02cd-44cb-b065-c02baa5cd8ae{fill:#00ff24;}.\35 9a2d2d6-2081-4ff6-80e2-164b376eb127,.\37 ae11196-02cd-44cb-b065-c02baa5cd8ae{stroke:#000;stroke-width:5px;}.\30 cf815dc-5bee-4202-8d38-59dfa74311d5,.\31 85e916b-8f80-483e-9b7c-acee02827946,.\35 9a2d2d6-2081-4ff6-80e2-164b376eb127,.\37 ae11196-02cd-44cb-b065-c02baa5cd8ae,.ca035244-89fd-4b74-8db9-b37c87b16445,.d5fefa0f-4961-4f9e-ba7e-dd64d49c681c,.f100d90c-df90-4ab6-8ad2-5b0fd7c10281{stroke-miterlimit:10;}.\35 9a2d2d6-2081-4ff6-80e2-164b376eb127{fill:#fff;}.\30 cf815dc-5bee-4202-8d38-59dfa74311d5,.\31 85e916b-8f80-483e-9b7c-acee02827946,.ca035244-89fd-4b74-8db9-b37c87b16445,.d5fefa0f-4961-4f9e-ba7e-dd64d49c681c,.f100d90c-df90-4ab6-8ad2-5b0fd7c10281{fill:none;}.\30 cf815dc-5bee-4202-8d38-59dfa74311d5,.f100d90c-df90-4ab6-8ad2-5b0fd7c10281{stroke:#c91c1c;}.\31 85e916b-8f80-483e-9b7c-acee02827946,.f100d90c-df90-4ab6-8ad2-5b0fd7c10281{stroke-width:20px;}.\31 85e916b-8f80-483e-9b7c-acee02827946,.d5fefa0f-4961-4f9e-ba7e-dd64d49c681c{stroke:#0080ff;}.ca035244-89fd-4b74-8db9-b37c87b16445{stroke:#fff;stroke-width:12px;}.\30 cf815dc-5bee-4202-8d38-59dfa74311d5,.d5fefa0f-4961-4f9e-ba7e-dd64d49c681c{stroke-width:2px;}</style><symbol id="8521b289-7180-4b06-951a-4b01f9fcf7ec" data-name="fd103434-89f2-4089-acf9-54fed79ed404" viewBox="0 0 200 103.617"><rect class="7ae11196-02cd-44cb-b065-c02baa5cd8ae" x="2.5" y="54.074" width="195" height="47.043"/><rect class="59a2d2d6-2081-4ff6-80e2-164b376eb127" x="2.5" y="2.5" width="48.75" height="48.75"/><rect class="59a2d2d6-2081-4ff6-80e2-164b376eb127" x="51.25" y="2.5" width="48.75" height="48.75"/><rect class="59a2d2d6-2081-4ff6-80e2-164b376eb127" x="100" y="2.5" width="48.75" height="48.75"/><rect class="59a2d2d6-2081-4ff6-80e2-164b376eb127" x="148.75" y="2.5" width="48.75" height="48.75"/></symbol></defs><title>WW_Epsilon_arena</title><g id="5b30d7c1-0a74-4750-937d-9bb870d8a639" data-name="Layer 2"><g id="12e30d38-a987-49db-9918-ea755b5319f8" data-name="City - Vinewood"><g id="7f17e66c-7b3d-4483-966c-ce0fde5f2753" data-name="WW_Epsilon_arena"><path id="411f8db2-f0df-4295-8c2e-7a35e4202390" data-name="Pitlane Outer" class="f100d90c-df90-4ab6-8ad2-5b0fd7c10281" d="M319.993,294.827c11.625-5.875,24.884-19.14,16.509-36.64s-9.125-25.75,4.5-30.875,23.625-8.875,31.875-11.875,17.906-4.471,24.5-.875c6.875,3.75,4.48,20.594,14.125,20.5,12.875-.125,53.5,0,62.25-.125s29.5,18.478,53.754,18.353"/><path id="9d444d01-549f-4eea-9713-0a2bb7da0ab9" data-name="Track Outer" class="185e916b-8f80-483e-9b7c-acee02827946" d="M310.627,299.9c23.307-12.713,37-19.5,48.666-24.833s24.5-10,44.167-10,48.333-5.667,80.667-9.5,83.748-2.046,118.75-.75c24.75.917,37.916-5.083,38.583-24.083s-.083-54.167-.833-68.167-8.236-21.725-25-22c-15.25-.25-67.5-1.75-103.75-2.25s-53-.125-78.25-.125c-18.125,0-28.834,4.542-29.334,25.042s-.229,33.6-9.5,43.333c-10,10.5-19,15-34.5,17.333s-37.634,3.207-40.833-10.833c-3-13.167.333-39.5-1-55.833s-7-67.667-8.833-79.334-1.5-20.666,9.5-26.166,49-24.167,63.5-30.334,27.166-6.5,48-4.666,39.833,3.833,50.166,6.166,19.167,12.167,22.334,22.667,1.166,31.333.666,47,.084,56.5-3.666,84.75-4.834,50.083-7.834,62.417-16.791,26.583-34.416,28.083c-17.937,1.527-35.75-19.75-55.75-19.875-22.924-.143-31,21.375-37.75,37s-21.625,29.75-37.25,34.875-50.356,3.145-61.5-6.25c-15.125-12.75-43.5-37.5-53.75-52.625s-6.417-37.375,15.916-38.875,54.667,22.333,77,22.333,32.834-15.166,31.834-31.166-21.472-32.79-42.167-34.667c-33.083-3-76.042-25.21-79.833-62.25-3.25-31.75-7.5-63.25-29-77s-54.5-24.5-75.5-27.75-62.5-.5-76,0-27.25,9.25-23.5,30,11.25,42.25,25.75,67,34,48,46,71.25,25.5,48.25,40.25,70.25,47.249,64.636,55.5,83c7.75,17.25,20.25,24.25,37.25,15.5S286.793,312.9,310.627,299.9Z"/><path id="b2660815-957b-4386-aebb-f4824b9f0843" data-name="Pitlane Middle" class="ca035244-89fd-4b74-8db9-b37c87b16445" d="M319.993,294.827c11.625-5.875,24.884-19.14,16.509-36.64s-9.125-25.75,4.5-30.875,23.625-8.875,31.875-11.875,17.906-4.471,24.5-.875c6.875,3.75,4.48,20.594,14.125,20.5,12.875-.125,53.5,0,62.25-.125s29.5,18.478,53.754,18.353"/><path id="deccc3cd-dd98-40d8-a6aa-70903bc31bf9" data-name="Track Middle" class="ca035244-89fd-4b74-8db9-b37c87b16445" d="M310.627,299.9c23.307-12.713,37-19.5,48.666-24.833s24.5-10,44.167-10,48.333-5.667,80.667-9.5,83.748-2.046,118.75-.75c24.75.917,37.916-5.083,38.583-24.083s-.083-54.167-.833-68.167-8.236-21.725-25-22c-15.25-.25-67.5-1.75-103.75-2.25s-53-.125-78.25-.125c-18.125,0-28.834,4.542-29.334,25.042s-.229,33.6-9.5,43.333c-10,10.5-19,15-34.5,17.333s-37.634,3.207-40.833-10.833c-3-13.167.333-39.5-1-55.833s-7-67.667-8.833-79.334-1.5-20.666,9.5-26.166,49-24.167,63.5-30.334,27.166-6.5,48-4.666,39.833,3.833,50.166,6.166,19.167,12.167,22.334,22.667,1.166,31.333.666,47,.084,56.5-3.666,84.75-4.834,50.083-7.834,62.417-16.791,26.583-34.416,28.083c-17.937,1.527-35.75-19.75-55.75-19.875-22.924-.143-31,21.375-37.75,37s-21.625,29.75-37.25,34.875-50.356,3.145-61.5-6.25c-15.125-12.75-43.5-37.5-53.75-52.625s-6.417-37.375,15.916-38.875,54.667,22.333,77,22.333,32.834-15.166,31.834-31.166-21.472-32.79-42.167-34.667c-33.083-3-76.042-25.21-79.833-62.25-3.25-31.75-7.5-63.25-29-77s-54.5-24.5-75.5-27.75-62.5-.5-76,0-27.25,9.25-23.5,30,11.25,42.25,25.75,67,34,48,46,71.25,25.5,48.25,40.25,70.25,47.249,64.636,55.5,83c7.75,17.25,20.25,24.25,37.25,15.5S286.793,312.9,310.627,299.9Z"/><path id="1921d73f-774b-4e11-a336-1912f664d98d" data-name="Pitlane Inner" class="0cf815dc-5bee-4202-8d38-59dfa74311d5" d="M319.993,294.827c11.625-5.875,24.884-19.14,16.509-36.64s-9.125-25.75,4.5-30.875,23.625-8.875,31.875-11.875,17.906-4.471,24.5-.875c6.875,3.75,4.48,20.594,14.125,20.5,12.875-.125,53.5,0,62.25-.125s29.5,18.478,53.754,18.353"/><path id="e9e43c44-c45e-4f6f-8bc2-f3769e48a401" data-name="Track Inner" class="d5fefa0f-4961-4f9e-ba7e-dd64d49c681c" d="M310.627,299.9c23.307-12.713,37-19.5,48.666-24.833s24.5-10,44.167-10,48.333-5.667,80.667-9.5,83.748-2.046,118.75-.75c24.75.917,37.916-5.083,38.583-24.083s-.083-54.167-.833-68.167-8.236-21.725-25-22c-15.25-.25-67.5-1.75-103.75-2.25s-53-.125-78.25-.125c-18.125,0-28.834,4.542-29.334,25.042s-.229,33.6-9.5,43.333c-10,10.5-19,15-34.5,17.333s-37.634,3.207-40.833-10.833c-3-13.167.333-39.5-1-55.833s-7-67.667-8.833-79.334-1.5-20.666,9.5-26.166,49-24.167,63.5-30.334,27.166-6.5,48-4.666,39.833,3.833,50.166,6.166,19.167,12.167,22.334,22.667,1.166,31.333.666,47,.084,56.5-3.666,84.75-4.834,50.083-7.834,62.417-16.791,26.583-34.416,28.083c-17.937,1.527-35.75-19.75-55.75-19.875-22.924-.143-31,21.375-37.75,37s-21.625,29.75-37.25,34.875-50.356,3.145-61.5-6.25c-15.125-12.75-43.5-37.5-53.75-52.625s-6.417-37.375,15.916-38.875,54.667,22.333,77,22.333,32.834-15.166,31.834-31.166-21.472-32.79-42.167-34.667c-33.083-3-76.042-25.21-79.833-62.25-3.25-31.75-7.5-63.25-29-77s-54.5-24.5-75.5-27.75-62.5-.5-76,0-27.25,9.25-23.5,30,11.25,42.25,25.75,67,34,48,46,71.25,25.5,48.25,40.25,70.25,47.249,64.636,55.5,83c7.75,17.25,20.25,24.25,37.25,15.5S286.793,312.9,310.627,299.9Z"/><use id="e267cd84-1c98-44d1-8370-2fe87b01bcf7" data-name="Start-Finish-Line" width="200" height="103.617" transform="translate(310.29 327.31) rotate(-117.556) scale(0.243)" xlink:href="#8521b289-7180-4b06-951a-4b01f9fcf7ec"/><g id="58516660-d23b-4d20-8843-b4b3730e5cef" data-name="Crossover"><path id="5c6537d3-a1f3-47d6-836a-5867fd89c002" data-name="Crossover Outer" class="185e916b-8f80-483e-9b7c-acee02827946" d="M433.655,138.19c-18.125,0-28.834,4.541-29.334,25.041s-.228,33.6-9.5,43.334c-10,10.5-19,15-34.5,17.333s-37.634,3.207-40.833-10.833"/><path id="ba974c12-1fec-4d2e-970b-75f93e583a61" data-name="Crossover Middle" class="ca035244-89fd-4b74-8db9-b37c87b16445" d="M433.655,138.19c-18.125,0-28.834,4.541-29.334,25.041s-.228,33.6-9.5,43.334c-10,10.5-19,15-34.5,17.333s-37.634,3.207-40.833-10.833"/><path id="a6f1a744-77b1-49e5-b44a-b3c3340dfc50" data-name="Crossover Inner" class="d5fefa0f-4961-4f9e-ba7e-dd64d49c681c" d="M433.655,138.19c-18.125,0-28.834,4.541-29.334,25.041s-.228,33.6-9.5,43.334c-10,10.5-19,15-34.5,17.333s-37.634,3.207-40.833-10.833"/></g><g id="84135404-b3ee-405b-aa60-1755c00baeda" data-name="Crossover"><path id="ad1770a6-1d11-431d-9904-9db5f981a35f" data-name="Crossover Outer" class="185e916b-8f80-483e-9b7c-acee02827946" d="M500.155,177.315c-3.75,28.25-4.834,50.083-7.834,62.416s-16.791,26.584-34.416,28.084c-17.936,1.526-35.75-19.75-55.75-19.875-22.924-.144-31,21.375-37.75,37s-21.625,29.75-37.25,34.875-50.356,3.144-61.5-6.25c-15.125-12.75-43.5-37.5-53.75-52.625s-6.417-37.375,15.916-38.875,54.667,22.333,77,22.333,32.834-15.167,31.834-31.167-21.472-32.79-42.167-34.666c-33.083-3-76.042-25.211-79.833-62.25"/><path id="6acbc55d-b7e1-4c9e-9fb3-a929b94a9e52" data-name="Crossover Middle" class="ca035244-89fd-4b74-8db9-b37c87b16445" d="M500.155,177.315c-3.75,28.25-4.834,50.083-7.834,62.416s-16.791,26.584-34.416,28.084c-17.936,1.526-35.75-19.75-55.75-19.875-22.924-.144-31,21.375-37.75,37s-21.625,29.75-37.25,34.875-50.356,3.144-61.5-6.25c-15.125-12.75-43.5-37.5-53.75-52.625s-6.417-37.375,15.916-38.875,54.667,22.333,77,22.333,32.834-15.167,31.834-31.167-21.472-32.79-42.167-34.666c-33.083-3-76.042-25.211-79.833-62.25"/><path id="8634fe12-3c22-40aa-8875-4ed9bdb9cdba" data-name="Crossover Inner" class="d5fefa0f-4961-4f9e-ba7e-dd64d49c681c" d="M500.155,177.315c-3.75,28.25-4.834,50.083-7.834,62.416s-16.791,26.584-34.416,28.084c-17.936,1.526-35.75-19.75-55.75-19.875-22.924-.144-31,21.375-37.75,37s-21.625,29.75-37.25,34.875-50.356,3.144-61.5-6.25c-15.125-12.75-43.5-37.5-53.75-52.625s-6.417-37.375,15.916-38.875,54.667,22.333,77,22.333,32.834-15.167,31.834-31.167-21.472-32.79-42.167-34.666c-33.083-3-76.042-25.211-79.833-62.25"/></g><g id="1be3be3b-472c-44fd-9e4e-a0a2dcbcf53e" data-name="Crossover"><path id="9e283d1a-edcf-4a7c-a1e5-1a281a4cba1e" data-name="Crossover Outer" class="185e916b-8f80-483e-9b7c-acee02827946" d="M503.771,95.2c-.541,15.667.09,56.5-3.972,84.75"/><path id="8f375fbe-b42d-412c-9220-eda22f92247f" data-name="Crossover Middle" class="ca035244-89fd-4b74-8db9-b37c87b16445" d="M503.771,95.2c-.541,15.667.09,56.5-3.972,84.75"/><path id="c9e37b94-e77f-46ec-a495-a9e28237a390" data-name="Crossover Inner" class="d5fefa0f-4961-4f9e-ba7e-dd64d49c681c" d="M503.771,95.2c-.541,15.667.09,56.5-3.972,84.75"/></g></g></g></g></svg>