<svg xmlns="http://www.w3.org/2000/svg" xmlns:xlink="http://www.w3.org/1999/xlink" width="529.229" height="526.9" viewBox="0 0 529.229 526.9"><defs><style>.dbbfb3a8-8d5b-40e8-8792-7080c00cfdf8{fill:#00ff24;}.\35 7a908b1-b2b2-4b7c-b30e-9c2c7c02c3f7,.dbbfb3a8-8d5b-40e8-8792-7080c00cfdf8{stroke:#000;stroke-width:5px;}.\32 12c9cd9-aaad-4ee1-ada2-1681af990bd6,.\33 21739bd-52f6-49e4-a87f-101ed79e4f76,.\35 04a303f-a744-4707-841f-07053baa22e4,.\35 7a908b1-b2b2-4b7c-b30e-9c2c7c02c3f7,.dbbfb3a8-8d5b-40e8-8792-7080c00cfdf8{stroke-miterlimit:10;}.\35 7a908b1-b2b2-4b7c-b30e-9c2c7c02c3f7{fill:#fff;}.\32 12c9cd9-aaad-4ee1-ada2-1681af990bd6,.\33 21739bd-52f6-49e4-a87f-101ed79e4f76,.\35 04a303f-a744-4707-841f-07053baa22e4{fill:none;}.\32 12c9cd9-aaad-4ee1-ada2-1681af990bd6,.\35 04a303f-a744-4707-841f-07053baa22e4{stroke:#0080ff;}.\32 12c9cd9-aaad-4ee1-ada2-1681af990bd6{stroke-width:20px;}.\33 21739bd-52f6-49e4-a87f-101ed79e4f76{stroke:#fff;stroke-width:12px;}.\35 04a303f-a744-4707-841f-07053baa22e4{stroke-width:2px;}</style><symbol id="755c802f-155c-49b4-9b9d-01a9c7d69613" data-name="fd103434-89f2-4089-acf9-54fed79ed404" viewBox="0 0 200 103.617"><rect class="dbbfb3a8-8d5b-40e8-8792-7080c00cfdf8" x="2.5" y="54.074" width="195" height="47.043"/><rect class="57a908b1-b2b2-4b7c-b30e-9c2c7c02c3f7" x="2.5" y="2.5" width="48.75" height="48.75"/><rect class="57a908b1-b2b2-4b7c-b30e-9c2c7c02c3f7" x="51.25" y="2.5" width="48.75" height="48.75"/><rect class="57a908b1-b2b2-4b7c-b30e-9c2c7c02c3f7" x="100" y="2.5" width="48.75" height="48.75"/><rect class="57a908b1-b2b2-4b7c-b30e-9c2c7c02c3f7" x="148.75" y="2.5" width="48.75" height="48.75"/></symbol></defs><title>Acapulco_Motor_Park</title><g id="9ace70b4-8af0-463b-bde2-ec3cd1026d3b" data-name="Layer 2"><g id="d862b78a-af17-4d9b-aff4-4e7188c5c356" data-name="City - Murietta Heights"><g id="e8b33ffc-98f3-495b-9b89-2cf746a5372d" data-name="Acapulco_Motor_Park"><path id="ada4168a-ad6c-4423-809c-6f280148f5fa" data-name="Track Outer" class="212c9cd9-aaad-4ee1-ada2-1681af990bd6" d="M297.06,500.783c23.749.292,59.625-.125,77-.375s33.86-1.881,41.375-22.375a281.866,281.866,0,0,0,11.5-38c2.875-12.75,15.625-15.5,30.5-17s26.791-11.709,36.291-21.709,17.334-29.333,23-42,.667-34.333-4.666-46.333-17.336-20.912-21.5-45.667c-3-17.833,3.5-32-16.167-39s-22.167-18.166-38.667-23.833-27,.667-27.166,21.167.166,45.833,6.166,77.333,15.334,78,16,89,4.667,32.333-35.833,32.5-47.833.167-64.833.167-36,1-52-17-21.269-23.38-19-42.5c2.333-19.667,10.793-78.34,13.833-98.5,3.167-21,4.167-30.334,5.333-41.834s4.834-13.833,17.5-15.833,14.834-8,18-25,11-51.5,13.334-71.5,3.135-36.323-8.167-51.5c-11.667-15.667-34.158-27.254-48.167-35-14.166-7.833-31-17.333-44.666-15.833s-33,16.166-50,19.833-67.636,7.084-91.667,9.833c-22.583,2.584-42.32-.05-57.827,13.642S6.56,83.908,12.56,103.908s20.245,38.476,26.247,60.613,8.753,61.387,8.753,86.137v79.75c0,21.5,14.5,32.25,35.5,46.25s28.5,30.5,42,47.75,27.25,35.25,44.75,54.25,24.75,20.5,49.75,20.75C244.81,499.658,266.56,500.408,297.06,500.783Z"/><path id="c0f43b77-a692-4147-ab5a-438a230b5244" data-name="Track Middle" class="321739bd-52f6-49e4-a87f-101ed79e4f76" d="M297.06,500.783c23.749.292,59.625-.125,77-.375s33.86-1.881,41.375-22.375a281.866,281.866,0,0,0,11.5-38c2.875-12.75,15.625-15.5,30.5-17s26.791-11.709,36.291-21.709,17.334-29.333,23-42,.667-34.333-4.666-46.333-17.336-20.912-21.5-45.667c-3-17.833,3.5-32-16.167-39s-22.167-18.166-38.667-23.833-27,.667-27.166,21.167.166,45.833,6.166,77.333,15.334,78,16,89,4.667,32.333-35.833,32.5-47.833.167-64.833.167-36,1-52-17-21.269-23.38-19-42.5c2.333-19.667,10.793-78.34,13.833-98.5,3.167-21,4.167-30.334,5.333-41.834s4.834-13.833,17.5-15.833,14.834-8,18-25,11-51.5,13.334-71.5,3.135-36.323-8.167-51.5c-11.667-15.667-34.158-27.254-48.167-35-14.166-7.833-31-17.333-44.666-15.833s-33,16.166-50,19.833-67.636,7.084-91.667,9.833c-22.583,2.584-42.32-.05-57.827,13.642S6.56,83.908,12.56,103.908s20.245,38.476,26.247,60.613,8.753,61.387,8.753,86.137v79.75c0,21.5,14.5,32.25,35.5,46.25s28.5,30.5,42,47.75,27.25,35.25,44.75,54.25,24.75,20.5,49.75,20.75C244.81,499.658,266.56,500.408,297.06,500.783Z"/><path id="a44d3ce3-8d4d-48b4-9803-077e1e54141a" data-name="Track Inner" class="504a303f-a744-4707-841f-07053baa22e4" d="M297.06,500.783c23.749.292,59.625-.125,77-.375s33.86-1.881,41.375-22.375a281.866,281.866,0,0,0,11.5-38c2.875-12.75,15.625-15.5,30.5-17s26.791-11.709,36.291-21.709,17.334-29.333,23-42,.667-34.333-4.666-46.333-17.336-20.912-21.5-45.667c-3-17.833,3.5-32-16.167-39s-22.167-18.166-38.667-23.833-27,.667-27.166,21.167.166,45.833,6.166,77.333,15.334,78,16,89,4.667,32.333-35.833,32.5-47.833.167-64.833.167-36,1-52-17-21.269-23.38-19-42.5c2.333-19.667,10.793-78.34,13.833-98.5,3.167-21,4.167-30.334,5.333-41.834s4.834-13.833,17.5-15.833,14.834-8,18-25,11-51.5,13.334-71.5,3.135-36.323-8.167-51.5c-11.667-15.667-34.158-27.254-48.167-35-14.166-7.833-31-17.333-44.666-15.833s-33,16.166-50,19.833-67.636,7.084-91.667,9.833c-22.583,2.584-42.32-.05-57.827,13.642S6.56,83.908,12.56,103.908s20.245,38.476,26.247,60.613,8.753,61.387,8.753,86.137v79.75c0,21.5,14.5,32.25,35.5,46.25s28.5,30.5,42,47.75,27.25,35.25,44.75,54.25,24.75,20.5,49.75,20.75C244.81,499.658,266.56,500.408,297.06,500.783Z"/><use id="26679512-620d-4c58-87a6-8629aabb017a" data-name="Start-Finish-Line" width="200" height="103.617" transform="translate(284.539 524.775) rotate(-89.51) scale(0.243)" xlink:href="#755c802f-155c-49b4-9b9d-01a9c7d69613"/></g></g></g></svg>