<svg xmlns="http://www.w3.org/2000/svg" xmlns:xlink="http://www.w3.org/1999/xlink" width="1205.268" height="811.596" viewBox="0 0 1205.268 811.596"><defs><style>.fd303521-b3be-4451-8e3b-c376b130f3b8{fill:#00ff24;}.fad600b8-8a93-44cb-9c39-a93f979123ca,.fd303521-b3be-4451-8e3b-c376b130f3b8{stroke:#000;stroke-width:5px;}.\38 fc05e0b-472e-4124-a60d-62c618c0cac5,.\39 35b5537-b2fc-40da-96ba-e62940ae8294,.dbd51ca7-575e-4fde-9d41-32e5442b943c,.ee9822f0-4e38-4ff6-bed2-6ad11db150e2,.fa899256-7824-4b3a-a69a-df299a1bd7dd,.fad600b8-8a93-44cb-9c39-a93f979123ca,.fd303521-b3be-4451-8e3b-c376b130f3b8{stroke-miterlimit:10;}.fad600b8-8a93-44cb-9c39-a93f979123ca{fill:#fff;}.\38 fc05e0b-472e-4124-a60d-62c618c0cac5,.\39 35b5537-b2fc-40da-96ba-e62940ae8294,.dbd51ca7-575e-4fde-9d41-32e5442b943c,.ee9822f0-4e38-4ff6-bed2-6ad11db150e2,.fa899256-7824-4b3a-a69a-df299a1bd7dd{fill:none;}.\38 fc05e0b-472e-4124-a60d-62c618c0cac5,.dbd51ca7-575e-4fde-9d41-32e5442b943c{stroke:#c91c1c;}.\38 fc05e0b-472e-4124-a60d-62c618c0cac5,.ee9822f0-4e38-4ff6-bed2-6ad11db150e2{stroke-width:20px;}.\39 35b5537-b2fc-40da-96ba-e62940ae8294,.ee9822f0-4e38-4ff6-bed2-6ad11db150e2{stroke:#0080ff;}.fa899256-7824-4b3a-a69a-df299a1bd7dd{stroke:#fff;stroke-width:12px;}.\39 35b5537-b2fc-40da-96ba-e62940ae8294,.dbd51ca7-575e-4fde-9d41-32e5442b943c{stroke-width:2px;}</style><symbol id="84aa4337-8437-42d0-871c-1f8fed263ff5" data-name="fd103434-89f2-4089-acf9-54fed79ed404" viewBox="0 0 200 103.617"><rect class="fd303521-b3be-4451-8e3b-c376b130f3b8" x="2.5" y="54.074" width="195" height="47.043"/><rect class="fad600b8-8a93-44cb-9c39-a93f979123ca" x="2.5" y="2.5" width="48.75" height="48.75"/><rect class="fad600b8-8a93-44cb-9c39-a93f979123ca" x="51.25" y="2.5" width="48.75" height="48.75"/><rect class="fad600b8-8a93-44cb-9c39-a93f979123ca" x="100" y="2.5" width="48.75" height="48.75"/><rect class="fad600b8-8a93-44cb-9c39-a93f979123ca" x="148.75" y="2.5" width="48.75" height="48.75"/></symbol></defs><title>BNBY_-_Murrieta_Heights</title><g id="2bb1878f-9211-4207-92ff-9c57434ba943" data-name="Layer 2"><g id="75b449b7-fdf8-41c8-9287-c9d541ddc029" data-name="City - Murietta Heights"><g id="df8ce71c-badf-48b2-8b6c-5c8d86f02ab6" data-name="BNBY_-_Murrieta_Heights"><path id="ab1f7a30-a8df-4489-b528-7a8a0e3895d4" data-name="Pitlane Outer" class="8fc05e0b-472e-4124-a60d-62c618c0cac5" d="M553.13,738.762c17.416,16.834,63.219,63.9,108.717,62.815,28-.666,83.25-.5,115.75-3.25s54.984-13.341,71.5-27.25a108.669,108.669,0,0,0,24.084-29.5c8.833-16,15.694-23.306,29.666-26,13.834-2.666,23.424-.369,36,8.667,11.25,8.083,20.475,14.833,40.5,14.833,24,0,52.75-10.25,70.5-17.5s42.5-17.5,70.25-30.5,34.084-17.666,45.584-20.833,21.137-.216,27.3,7.95"/><path id="efee0f31-bc56-4765-a1e9-24b9cc0d9f18" data-name="Track Outer" class="ee9822f0-4e38-4ff6-bed2-6ad11db150e2" d="M396.514,470.411c-22.875-.034-79.917.666-118.167.916s-80.25,1.25-103.75,1.75-44.02-7.174-64.375-14.125c-10.25-3.5-15.25-5.5-25.875-9.375s-19.875-9-9.875-34.875,43.664-111.429,49.875-129.375c6.75-19.5.5-26.25-21-33.75s-59.333-21.333-74.666-27-23.167-10.333-16-30.333S63.847,43.577,69.347,27.577s13.25-21.5,33.5-14.75,99.75,35,117,41.5,21.5,16.75,5.75,28.5-28.75,38-34.75,52.5-10.25,26.5-13.75,36-5.5,22,12.75,21.75,48.5-3,79.5-2,65,3.75,93.5,9.5,67.25,14.5,103.25,21,116.828,26.02,154.75,43.75c38.5,18,63.641,36.07,91.5,53.25,30,18.5,48.666,31.349,71.25,56.25,19.5,21.5,43,46,56.25,61s5.25,24.75-17.25,24.25-28.5-.25-44.5.25-16.5,11.5-8.25,26.25,24.25,51,31.25,73.5,17.25,59.25,12.25,78.75-14.75,32.75-36,41.25-46,5.038-74.5,4.75c-24.75-.25-40.25-.75-54.25-.75s-20,7.75-20,18.75,0,15,1.25,24.25,11.75,15.5,25.75,12,25.5-8.75,35.75-26.25,4.5-35.25-3-47.5-23.25-20-38.5-21-59.5-.75-72.5,1-26.5,11.5-32,19.5a52.608,52.608,0,0,0-8.75,31c.5,11.5,1.736,27.048,11,37.5,9.75,11,24.5,18.75,50.75,28.5s74.494,12.317,93,11.75c24.5-.75,106-3.75,135.25-5.25s103-4,126.25-5.25,43-3.5,75.75-16.5,75.417-34,91.084-42.333,45.378-23.548,56.666-29.833c14.667-8.167,28.016,13.269,10.834,24.666-16.584,11-40.584,27.5-55.584,35s-57.083,26.809-77.5,34.375c-21.25,7.875-46.083,18.125-60.416,21.125s-30.167,4.334-51.667.5-35.5-10.5-50-21.5-28.667-27.333-35-42.166-10-40.834-11.5-56.334c-1.511-15.616-4.344-39.883-9-54.333-4.833-15-16.833-57.667-24.167-81.833s-19.166-54.834-25.5-65.667-28.5-45.333-38.666-58.333-30-34.834-40.334-44.5-27.833,4.833-16.333,18.666,31.425,38.336,40.667,49.167c10.666,12.5,12.491,27.563-13.167,29.833-18.833,1.667-41.167,5.167-61.833,6.167s-123.709,1.458-155.917,1.417C469.6,470.62,424.722,470.452,396.514,470.411Z"/><path id="03760d7c-d47a-4f0a-9c5d-7ebc25eea34f" data-name="Pitlane Middle" class="fa899256-7824-4b3a-a69a-df299a1bd7dd" d="M553.13,738.762c17.416,16.834,63.219,63.9,108.717,62.815,28-.666,83.25-.5,115.75-3.25s54.984-13.341,71.5-27.25a108.669,108.669,0,0,0,24.084-29.5c8.833-16,15.694-23.306,29.666-26,13.834-2.666,23.424-.369,36,8.667,11.25,8.083,20.475,14.833,40.5,14.833,24,0,52.75-10.25,70.5-17.5s42.5-17.5,70.25-30.5,34.084-17.666,45.584-20.833,21.137-.216,27.3,7.95"/><path id="c5d8eb92-a18b-4936-abdc-86124f0148c8" data-name="Track Middle" class="fa899256-7824-4b3a-a69a-df299a1bd7dd" d="M396.514,470.411c-22.875-.034-79.917.666-118.167.916s-80.25,1.25-103.75,1.75-44.02-7.174-64.375-14.125c-10.25-3.5-15.25-5.5-25.875-9.375s-19.875-9-9.875-34.875,43.664-111.429,49.875-129.375c6.75-19.5.5-26.25-21-33.75s-59.333-21.333-74.666-27-23.167-10.333-16-30.333S63.847,43.577,69.347,27.577s13.25-21.5,33.5-14.75,99.75,35,117,41.5,21.5,16.75,5.75,28.5-28.75,38-34.75,52.5-10.25,26.5-13.75,36-5.5,22,12.75,21.75,48.5-3,79.5-2,65,3.75,93.5,9.5,67.25,14.5,103.25,21,116.828,26.02,154.75,43.75c38.5,18,63.641,36.07,91.5,53.25,30,18.5,48.666,31.349,71.25,56.25,19.5,21.5,43,46,56.25,61s5.25,24.75-17.25,24.25-28.5-.25-44.5.25-16.5,11.5-8.25,26.25,24.25,51,31.25,73.5,17.25,59.25,12.25,78.75-14.75,32.75-36,41.25-46,5.038-74.5,4.75c-24.75-.25-40.25-.75-54.25-.75s-20,7.75-20,18.75,0,15,1.25,24.25,11.75,15.5,25.75,12,25.5-8.75,35.75-26.25,4.5-35.25-3-47.5-23.25-20-38.5-21-59.5-.75-72.5,1-26.5,11.5-32,19.5a52.608,52.608,0,0,0-8.75,31c.5,11.5,1.736,27.048,11,37.5,9.75,11,24.5,18.75,50.75,28.5s74.494,12.317,93,11.75c24.5-.75,106-3.75,135.25-5.25s103-4,126.25-5.25,43-3.5,75.75-16.5,75.417-34,91.084-42.333,45.378-23.548,56.666-29.833c14.667-8.167,28.016,13.269,10.834,24.666-16.584,11-40.584,27.5-55.584,35s-57.083,26.809-77.5,34.375c-21.25,7.875-46.083,18.125-60.416,21.125s-30.167,4.334-51.667.5-35.5-10.5-50-21.5-28.667-27.333-35-42.166-10-40.834-11.5-56.334c-1.511-15.616-4.344-39.883-9-54.333-4.833-15-16.833-57.667-24.167-81.833s-19.166-54.834-25.5-65.667-28.5-45.333-38.666-58.333-30-34.834-40.334-44.5-27.833,4.833-16.333,18.666,31.425,38.336,40.667,49.167c10.666,12.5,12.491,27.563-13.167,29.833-18.833,1.667-41.167,5.167-61.833,6.167s-123.709,1.458-155.917,1.417C469.6,470.62,424.722,470.452,396.514,470.411Z"/><path id="a330228c-6c08-4278-b7c1-20008ee735f7" data-name="Pitlane Inner" class="dbd51ca7-575e-4fde-9d41-32e5442b943c" d="M553.13,738.762c17.416,16.834,63.219,63.9,108.717,62.815,28-.666,83.25-.5,115.75-3.25s54.984-13.341,71.5-27.25a108.669,108.669,0,0,0,24.084-29.5c8.833-16,15.694-23.306,29.666-26,13.834-2.666,23.424-.369,36,8.667,11.25,8.083,20.475,14.833,40.5,14.833,24,0,52.75-10.25,70.5-17.5s42.5-17.5,70.25-30.5,34.084-17.666,45.584-20.833,21.137-.216,27.3,7.95"/><path id="310bce6b-a05f-408e-a022-3a45295ed3ca" data-name="Track Inner" class="935b5537-b2fc-40da-96ba-e62940ae8294" d="M396.514,470.411c-22.875-.034-79.917.666-118.167.916s-80.25,1.25-103.75,1.75-44.02-7.174-64.375-14.125c-10.25-3.5-15.25-5.5-25.875-9.375s-19.875-9-9.875-34.875,43.664-111.429,49.875-129.375c6.75-19.5.5-26.25-21-33.75s-59.333-21.333-74.666-27-23.167-10.333-16-30.333S63.847,43.577,69.347,27.577s13.25-21.5,33.5-14.75,99.75,35,117,41.5,21.5,16.75,5.75,28.5-28.75,38-34.75,52.5-10.25,26.5-13.75,36-5.5,22,12.75,21.75,48.5-3,79.5-2,65,3.75,93.5,9.5,67.25,14.5,103.25,21,116.828,26.02,154.75,43.75c38.5,18,63.641,36.07,91.5,53.25,30,18.5,48.666,31.349,71.25,56.25,19.5,21.5,43,46,56.25,61s5.25,24.75-17.25,24.25-28.5-.25-44.5.25-16.5,11.5-8.25,26.25,24.25,51,31.25,73.5,17.25,59.25,12.25,78.75-14.75,32.75-36,41.25-46,5.038-74.5,4.75c-24.75-.25-40.25-.75-54.25-.75s-20,7.75-20,18.75,0,15,1.25,24.25,11.75,15.5,25.75,12,25.5-8.75,35.75-26.25,4.5-35.25-3-47.5-23.25-20-38.5-21-59.5-.75-72.5,1-26.5,11.5-32,19.5a52.608,52.608,0,0,0-8.75,31c.5,11.5,1.736,27.048,11,37.5,9.75,11,24.5,18.75,50.75,28.5s74.494,12.317,93,11.75c24.5-.75,106-3.75,135.25-5.25s103-4,126.25-5.25,43-3.5,75.75-16.5,75.417-34,91.084-42.333,45.378-23.548,56.666-29.833c14.667-8.167,28.016,13.269,10.834,24.666-16.584,11-40.584,27.5-55.584,35s-57.083,26.809-77.5,34.375c-21.25,7.875-46.083,18.125-60.416,21.125s-30.167,4.334-51.667.5-35.5-10.5-50-21.5-28.667-27.333-35-42.166-10-40.834-11.5-56.334c-1.511-15.616-4.344-39.883-9-54.333-4.833-15-16.833-57.667-24.167-81.833s-19.166-54.834-25.5-65.667-28.5-45.333-38.666-58.333-30-34.834-40.334-44.5-27.833,4.833-16.333,18.666,31.425,38.336,40.667,49.167c10.666,12.5,12.491,27.563-13.167,29.833-18.833,1.667-41.167,5.167-61.833,6.167s-123.709,1.458-155.917,1.417C469.6,470.62,424.722,470.452,396.514,470.411Z"/><g id="daf1a6dd-c989-4769-86ed-5b0ca6a566d4" data-name="Crossover"><path id="a09385b1-627c-4184-9c01-c1556d52112e" data-name="Crossover Outer" class="ee9822f0-4e38-4ff6-bed2-6ad11db150e2" d="M655.6,739.077c14-3.5,25.5-8.75,35.75-26.25s4.5-35.25-3-47.5-23.25-20-38.5-21"/><path id="2775840b-881b-42f8-a275-1e85ce4c23b4" data-name="Crossover Middle" class="fa899256-7824-4b3a-a69a-df299a1bd7dd" d="M655.6,739.077c14-3.5,25.5-8.75,35.75-26.25s4.5-35.25-3-47.5-23.25-20-38.5-21"/><path id="628d7062-45f1-40a8-a282-06ba35e52c29" data-name="Crossover Inner" class="935b5537-b2fc-40da-96ba-e62940ae8294" d="M655.6,739.077c14-3.5,25.5-8.75,35.75-26.25s4.5-35.25-3-47.5-23.25-20-38.5-21"/></g><g id="5b32d7db-a4da-4823-ae3f-83764943ced2" data-name="Crossover"><path id="182a9d95-8be9-43c8-8c26-2619703a07fb" data-name="Crossover Outer" class="ee9822f0-4e38-4ff6-bed2-6ad11db150e2" d="M822.6,460.077c-22.5-.5-28.5-.25-44.5.25s-16.5,11.5-8.25,26.25"/><path id="70fa3009-1ee3-4e4b-8a55-561136e19ef2" data-name="Crossover Middle" class="fa899256-7824-4b3a-a69a-df299a1bd7dd" d="M822.6,460.077c-22.5-.5-28.5-.25-44.5.25s-16.5,11.5-8.25,26.25"/><path id="95bc5f1d-6e37-4234-8cff-6534189a76e7" data-name="Crossover Inner" class="935b5537-b2fc-40da-96ba-e62940ae8294" d="M822.6,460.077c-22.5-.5-28.5-.25-44.5.25s-16.5,11.5-8.25,26.25"/></g><g id="15dada73-769e-4a4d-8a6d-8c5152eb5a5e" data-name="Crossover"><path id="5996c969-6110-4023-b98a-2a24e2607344" data-name="Crossover Outer" class="ee9822f0-4e38-4ff6-bed2-6ad11db150e2" d="M942.014,790.077c-21.5-3.833-35.5-10.5-50-21.5s-28.667-27.333-35-42.166-10-40.834-11.5-56.334"/><path id="c5df910e-9b04-4a38-a9af-a661d32269da" data-name="Crossover Middle" class="fa899256-7824-4b3a-a69a-df299a1bd7dd" d="M942.014,790.077c-21.5-3.833-35.5-10.5-50-21.5s-28.667-27.333-35-42.166-10-40.834-11.5-56.334"/><path id="52d71cfb-1901-465c-99c1-7fe3538c6629" data-name="Crossover Inner" class="935b5537-b2fc-40da-96ba-e62940ae8294" d="M942.014,790.077c-21.5-3.833-35.5-10.5-50-21.5s-28.667-27.333-35-42.166-10-40.834-11.5-56.334"/></g><g id="9f3270e1-d3d4-4315-bdd1-7c63f8d648c9" data-name="Crossover"><path id="1ab02f1c-669d-4aa3-955e-fefb032fa482" data-name="Crossover Outer" class="ee9822f0-4e38-4ff6-bed2-6ad11db150e2" d="M691.347,773.577c24.5-.75,106-3.75,135.25-5.25s103-4,126.25-5.25"/><path id="be3305e3-83e4-4bbf-8306-5f2fe4c31984" data-name="Crossover Middle" class="fa899256-7824-4b3a-a69a-df299a1bd7dd" d="M691.347,773.577c24.5-.75,106-3.75,135.25-5.25s103-4,126.25-5.25"/><path id="52303f8d-dc43-4753-a43c-d7e18e921bdd" data-name="Crossover Inner" class="935b5537-b2fc-40da-96ba-e62940ae8294" d="M691.347,773.577c24.5-.75,106-3.75,135.25-5.25s103-4,126.25-5.25"/></g><use id="91245a12-58cb-442d-8ee6-30e11a3a197d" data-name="Start-Finish-Line" width="200" height="103.617" transform="translate(409.074 446.174) rotate(90.12) scale(0.243)" xlink:href="#84aa4337-8437-42d0-871c-1f8fed263ff5"/></g></g></g></svg>