<svg xmlns="http://www.w3.org/2000/svg" xmlns:xlink="http://www.w3.org/1999/xlink" width="832.51" height="753.948" viewBox="0 0 832.51 753.948"><defs><style>.\36 b71d8e2-525f-4c3d-afa8-78f5b9ea0326{fill:#00ff24;}.\36 b71d8e2-525f-4c3d-afa8-78f5b9ea0326,.\37 725adc1-64bf-4df2-b28e-b52eb20d7a80{stroke:#000;stroke-width:5px;}.\31 00487f7-bb6b-4661-b8e0-fdbce835074c,.\35 1808bef-4696-485d-8f9a-19f491e9d085,.\35 4a01847-1b79-43d4-8afe-e3d7fbebacbc,.\36 b71d8e2-525f-4c3d-afa8-78f5b9ea0326,.\37 725adc1-64bf-4df2-b28e-b52eb20d7a80,.\39 7ff777c-16c3-47d7-88d2-d99167ab2608,.e3d98b2a-617e-443a-b0c6-5a72a0bec6ec{stroke-miterlimit:10;}.\37 725adc1-64bf-4df2-b28e-b52eb20d7a80{fill:#fff;}.\31 00487f7-bb6b-4661-b8e0-fdbce835074c,.\35 1808bef-4696-485d-8f9a-19f491e9d085,.\35 4a01847-1b79-43d4-8afe-e3d7fbebacbc,.\39 7ff777c-16c3-47d7-88d2-d99167ab2608,.e3d98b2a-617e-443a-b0c6-5a72a0bec6ec{fill:none;}.\31 00487f7-bb6b-4661-b8e0-fdbce835074c,.\39 7ff777c-16c3-47d7-88d2-d99167ab2608{stroke:#c91c1c;}.\39 7ff777c-16c3-47d7-88d2-d99167ab2608,.e3d98b2a-617e-443a-b0c6-5a72a0bec6ec{stroke-width:20px;}.\35 4a01847-1b79-43d4-8afe-e3d7fbebacbc,.e3d98b2a-617e-443a-b0c6-5a72a0bec6ec{stroke:#0080ff;}.\35 1808bef-4696-485d-8f9a-19f491e9d085{stroke:#fff;stroke-width:12px;}.\31 00487f7-bb6b-4661-b8e0-fdbce835074c,.\35 4a01847-1b79-43d4-8afe-e3d7fbebacbc{stroke-width:2px;}</style><symbol id="4a170785-ca22-45ba-87aa-c7614c737454" data-name="fd103434-89f2-4089-acf9-54fed79ed404" viewBox="0 0 200 103.617"><rect class="6b71d8e2-525f-4c3d-afa8-78f5b9ea0326" x="2.5" y="54.074" width="195" height="47.043"/><rect class="7725adc1-64bf-4df2-b28e-b52eb20d7a80" x="2.5" y="2.5" width="48.75" height="48.75"/><rect class="7725adc1-64bf-4df2-b28e-b52eb20d7a80" x="51.25" y="2.5" width="48.75" height="48.75"/><rect class="7725adc1-64bf-4df2-b28e-b52eb20d7a80" x="100" y="2.5" width="48.75" height="48.75"/><rect class="7725adc1-64bf-4df2-b28e-b52eb20d7a80" x="148.75" y="2.5" width="48.75" height="48.75"/></symbol></defs><title>Darude_-_Drainstorm</title><g id="4504c7fe-23b1-4f27-a70b-30be8aa43018" data-name="Layer 2"><g id="466542ce-0077-4503-b9ec-043cd58ee00c" data-name="City - Murietta Heights"><g id="42879be8-6fa1-420f-8897-00b1baae554e" data-name="Darude_-_Drainstorm"><path id="05b8ffe6-8cea-497a-b353-d058e016f46d" data-name="Pitlane Outer" class="97ff777c-16c3-47d7-88d2-d99167ab2608" d="M607.1,229.164c-8.176-24.688-12.676-46.625-23.176-71.5-10.444-24.742-17-40.75-33.5-66.5s-29.916-40.5-40.75-51.5-9.75-18.75-5.625-23.875,14.5-10,25,.125,33.125,35.75,44.125,51.25,36.5,57.166,46.334,79,25.5,57.416,30.5,73.166"/><path id="f0555253-27dd-495a-987c-27fe2ff27d30" data-name="Track Outer" class="e3d98b2a-617e-443a-b0c6-5a72a0bec6ec" d="M668.674,285.5c4.633,15.491,10.334,37,15.834,50.667s21.166,35.5,32.666,46.333,25.834,18.333,40.334,20.5,26.5,1.333,41.333-3.333,23.5-11.334,23.667-27.834-6.994-28.638-19.167-40.5c-13-12.666-34.333-32.5-45.167-42.5s-22.234-4.99-23.666,9.334c-1.5,15-4.667,47.5-8.667,75.5-3.97,27.788-5.063,27.714-.167,55.583,3.25,18.5-3.683,21.752-23.416,37.167-22.084,17.25-58.084,46.583-77.584,62.916S598.758,551,588.049,560.914c-21.8,20.188-39.708,48.916-51.041,71.25s-22.574,44.542-33.667,66.333c-4.667,9.167-24,28.5-38.167,38.667s-24.166,8.833-29.333-3.5a387.8,387.8,0,0,1-15.833-45.334c-5-17.833,8.833-22.833,20.5-23.166s68.333.666,88,0,41.012-21.5,26.5-42.834c-13.834-20.333-61.319-95.51-70.834-109.5-11.25-16.541-31.75-22.916-49.375-22.791s-14.375,13.875-14.375,28.75-.25,91.375-.5,113.125-7.25,35-36.25,35.5-157.166-1.75-179.833-2.084-57.667-2.666-75.333-7.5S89.341,637.5,77.174,628.164,30.384,590.114,16.508,578c-11.834-10.333-5.936-20.056,5-33,8.166-9.667,16-19.833,23.5-28.667S58.341,506,72.841,505.83s37.5.334,52.667,0,23.5-3.333,23.833-20.333.583-57.583.583-74.083-7-20.5-21.75-20.5-43.75.25-56.75-.25-14.5-8.25-14.5-23.75-.25-28.25,0-39.5,8-11.75,23-13.5,241.47-30.717,278.5-35.75c25.75-3.5,44.75-8.5,48.75,28.75s6.25,56.5,8.75,76.25,17.75,24.75,34,18,26.75-16.5,31-37-7.418-37.713-22.25-48c-15.5-10.75-36.752-7.383-54.75-7-23.5.5-37.75,0-48,2.25s-20.422,11.557-26.5,19.75c-5.75,7.75-9,20.25-8,35.25s7,29,21.25,40,38.766,21.19,72.75,19.75c29.5-1.25,83-3,105-5s41.25-9.75,60.5-24,46.25-43.5,47.917-67.334.522-25.187-2-34.666c-6.917-26-15.333-52.667-21-69.834s4.958-25,12.458-27.666,23.875-4.334,31.709,21.666S663.341,267.664,668.674,285.5Z"/><path id="4a5ac34e-ef93-4bd6-b37b-fa8de01e3775" data-name="Pitlane Middle" class="51808bef-4696-485d-8f9a-19f491e9d085" d="M607.1,229.164c-8.176-24.688-12.676-46.625-23.176-71.5-10.444-24.742-17-40.75-33.5-66.5s-29.916-40.5-40.75-51.5-9.75-18.75-5.625-23.875,14.5-10,25,.125,33.125,35.75,44.125,51.25,36.5,57.166,46.334,79,25.5,57.416,30.5,73.166"/><path id="81d1dbab-7d57-4b90-805c-8036efaf7da0" data-name="Track Middle" class="51808bef-4696-485d-8f9a-19f491e9d085" d="M668.674,285.5c4.633,15.491,10.334,37,15.834,50.667s21.166,35.5,32.666,46.333,25.834,18.333,40.334,20.5,26.5,1.333,41.333-3.333,23.5-11.334,23.667-27.834-6.994-28.638-19.167-40.5c-13-12.666-34.333-32.5-45.167-42.5s-22.234-4.99-23.666,9.334c-1.5,15-4.667,47.5-8.667,75.5-3.97,27.788-5.063,27.714-.167,55.583,3.25,18.5-3.683,21.752-23.416,37.167-22.084,17.25-58.084,46.583-77.584,62.916S598.758,551,588.049,560.914c-21.8,20.188-39.708,48.916-51.041,71.25s-22.574,44.542-33.667,66.333c-4.667,9.167-24,28.5-38.167,38.667s-24.166,8.833-29.333-3.5a387.8,387.8,0,0,1-15.833-45.334c-5-17.833,8.833-22.833,20.5-23.166s68.333.666,88,0,41.012-21.5,26.5-42.834c-13.834-20.333-61.319-95.51-70.834-109.5-11.25-16.541-31.75-22.916-49.375-22.791s-14.375,13.875-14.375,28.75-.25,91.375-.5,113.125-7.25,35-36.25,35.5-157.166-1.75-179.833-2.084-57.667-2.666-75.333-7.5S89.341,637.5,77.174,628.164,30.384,590.114,16.508,578c-11.834-10.333-5.936-20.056,5-33,8.166-9.667,16-19.833,23.5-28.667S58.341,506,72.841,505.83s37.5.334,52.667,0,23.5-3.333,23.833-20.333.583-57.583.583-74.083-7-20.5-21.75-20.5-43.75.25-56.75-.25-14.5-8.25-14.5-23.75-.25-28.25,0-39.5,8-11.75,23-13.5,241.47-30.717,278.5-35.75c25.75-3.5,44.75-8.5,48.75,28.75s6.25,56.5,8.75,76.25,17.75,24.75,34,18,26.75-16.5,31-37-7.418-37.713-22.25-48c-15.5-10.75-36.752-7.383-54.75-7-23.5.5-37.75,0-48,2.25s-20.422,11.557-26.5,19.75c-5.75,7.75-9,20.25-8,35.25s7,29,21.25,40,38.766,21.19,72.75,19.75c29.5-1.25,83-3,105-5s41.25-9.75,60.5-24,46.25-43.5,47.917-67.334.522-25.187-2-34.666c-6.917-26-15.333-52.667-21-69.834s4.958-25,12.458-27.666,23.875-4.334,31.709,21.666S663.341,267.664,668.674,285.5Z"/><path id="b89abf89-e5ab-4ec5-a7ee-e313fff65759" data-name="Pitlane Inner" class="100487f7-bb6b-4661-b8e0-fdbce835074c" d="M607.1,229.164c-8.176-24.688-12.676-46.625-23.176-71.5-10.444-24.742-17-40.75-33.5-66.5s-29.916-40.5-40.75-51.5-9.75-18.75-5.625-23.875,14.5-10,25,.125,33.125,35.75,44.125,51.25,36.5,57.166,46.334,79,25.5,57.416,30.5,73.166"/><path id="3ac54ed0-618b-4941-b254-3148e6e567f1" data-name="Track Inner" class="54a01847-1b79-43d4-8afe-e3d7fbebacbc" d="M668.674,285.5c4.633,15.491,10.334,37,15.834,50.667s21.166,35.5,32.666,46.333,25.834,18.333,40.334,20.5,26.5,1.333,41.333-3.333,23.5-11.334,23.667-27.834-6.994-28.638-19.167-40.5c-13-12.666-34.333-32.5-45.167-42.5s-22.234-4.99-23.666,9.334c-1.5,15-4.667,47.5-8.667,75.5-3.97,27.788-5.063,27.714-.167,55.583,3.25,18.5-3.683,21.752-23.416,37.167-22.084,17.25-58.084,46.583-77.584,62.916S598.758,551,588.049,560.914c-21.8,20.188-39.708,48.916-51.041,71.25s-22.574,44.542-33.667,66.333c-4.667,9.167-24,28.5-38.167,38.667s-24.166,8.833-29.333-3.5a387.8,387.8,0,0,1-15.833-45.334c-5-17.833,8.833-22.833,20.5-23.166s68.333.666,88,0,41.012-21.5,26.5-42.834c-13.834-20.333-61.319-95.51-70.834-109.5-11.25-16.541-31.75-22.916-49.375-22.791s-14.375,13.875-14.375,28.75-.25,91.375-.5,113.125-7.25,35-36.25,35.5-157.166-1.75-179.833-2.084-57.667-2.666-75.333-7.5S89.341,637.5,77.174,628.164,30.384,590.114,16.508,578c-11.834-10.333-5.936-20.056,5-33,8.166-9.667,16-19.833,23.5-28.667S58.341,506,72.841,505.83s37.5.334,52.667,0,23.5-3.333,23.833-20.333.583-57.583.583-74.083-7-20.5-21.75-20.5-43.75.25-56.75-.25-14.5-8.25-14.5-23.75-.25-28.25,0-39.5,8-11.75,23-13.5,241.47-30.717,278.5-35.75c25.75-3.5,44.75-8.5,48.75,28.75s6.25,56.5,8.75,76.25,17.75,24.75,34,18,26.75-16.5,31-37-7.418-37.713-22.25-48c-15.5-10.75-36.752-7.383-54.75-7-23.5.5-37.75,0-48,2.25s-20.422,11.557-26.5,19.75c-5.75,7.75-9,20.25-8,35.25s7,29,21.25,40,38.766,21.19,72.75,19.75c29.5-1.25,83-3,105-5s41.25-9.75,60.5-24,46.25-43.5,47.917-67.334.522-25.187-2-34.666c-6.917-26-15.333-52.667-21-69.834s4.958-25,12.458-27.666,23.875-4.334,31.709,21.666S663.341,267.664,668.674,285.5Z"/><g id="fbf94da9-91aa-41f7-bffb-7a6486a44c99" data-name="Ebene 171"><path id="9b08ac1e-f661-4c7d-a067-8cb07fc619b0" data-name="Crossover Outer" class="e3d98b2a-617e-443a-b0c6-5a72a0bec6ec" d="M684.487,336.143c5.5,13.667,21.166,35.5,32.666,46.333s25.834,18.334,40.334,20.5,26.5,1.334,41.333-3.333"/><path id="933584c7-b50d-485b-be74-d4387dd258a1" data-name="Crossover Middle" class="51808bef-4696-485d-8f9a-19f491e9d085" d="M684.487,336.143c5.5,13.667,21.166,35.5,32.666,46.333s25.834,18.334,40.334,20.5,26.5,1.334,41.333-3.333"/><path id="e67aee68-41d0-496e-819d-8647985238a1" data-name="Crossover Inner" class="54a01847-1b79-43d4-8afe-e3d7fbebacbc" d="M684.487,336.143c5.5,13.667,21.166,35.5,32.666,46.333s25.834,18.334,40.334,20.5,26.5,1.334,41.333-3.333"/></g><g id="9f0254b6-3778-4e11-ac74-c3a9b7f24d6e" data-name="Ebene 172"><path id="7b983ed9-983f-44e8-8ed9-e4f96e10c3b7" data-name="Crossover Outer" class="e3d98b2a-617e-443a-b0c6-5a72a0bec6ec" d="M458.653,316.143c-15.5-10.75-36.752-7.383-54.75-7-23.5.5-37.75,0-48,2.25s-20.421,11.557-26.5,19.75"/><path id="630e24a1-2224-4941-8e36-ef130d069602" data-name="Crossover Middle" class="51808bef-4696-485d-8f9a-19f491e9d085" d="M458.653,316.143c-15.5-10.75-36.752-7.383-54.75-7-23.5.5-37.75,0-48,2.25s-20.421,11.557-26.5,19.75"/><path id="cf0ba879-72d4-4a88-8fb2-5bcd276cfbb0" data-name="Crossover Inner" class="54a01847-1b79-43d4-8afe-e3d7fbebacbc" d="M458.653,316.143c-15.5-10.75-36.752-7.383-54.75-7-23.5.5-37.75,0-48,2.25s-20.421,11.557-26.5,19.75"/></g><g id="1e13aac4-c898-4fa7-8e8c-5bbd38775230" data-name="Ebene 173"><path id="56f2242e-e94b-4030-ad55-269b5fd3c329" data-name="Crossover Outer" class="e3d98b2a-617e-443a-b0c6-5a72a0bec6ec" d="M440.487,665.143c11.666-.333,68.333.667,88,0s41.013-21.5,26.5-42.833c-13.834-20.334-61.319-95.51-70.834-109.5"/><path id="68237570-7d10-406a-8836-eeab30074877" data-name="Crossover Middle" class="51808bef-4696-485d-8f9a-19f491e9d085" d="M440.487,665.143c11.666-.333,68.333.667,88,0s41.013-21.5,26.5-42.833c-13.834-20.334-61.319-95.51-70.834-109.5"/><path id="2e89c79e-cb27-4c71-ab05-582afd2264ba" data-name="Crossover Inner" class="54a01847-1b79-43d4-8afe-e3d7fbebacbc" d="M440.487,665.143c11.666-.333,68.333.667,88,0s41.013-21.5,26.5-42.833c-13.834-20.334-61.319-95.51-70.834-109.5"/></g><use id="fcced156-b23e-460c-8d95-c89aae6cd18f" data-name="Start-Finish-Line" width="200" height="103.617" transform="translate(580.767 534.965) rotate(46.715) scale(0.243)" xlink:href="#4a170785-ca22-45ba-87aa-c7614c737454"/></g></g></g></svg>