<svg xmlns="http://www.w3.org/2000/svg" xmlns:xlink="http://www.w3.org/1999/xlink" width="426.288" height="779.654" viewBox="0 0 426.288 779.654"><defs><style>.aec350b2-f3f0-44cc-96a7-f077d1395b02{fill:#00ff24;}.\37 d103f8f-58b9-42ac-b4d3-f9651797cd94,.aec350b2-f3f0-44cc-96a7-f077d1395b02{stroke:#000;stroke-width:5px;}.\33 f776100-317f-4d3c-b62f-9379b12469eb,.\37 d103f8f-58b9-42ac-b4d3-f9651797cd94,.aec350b2-f3f0-44cc-96a7-f077d1395b02,.bf18e16b-480e-4600-ae20-b4428bb2d5c2,.c6954d75-003e-44a9-93b5-d32d378b4130,.e2cd6cee-24ab-45af-a9b3-81b846ebe42e,.f1cd27c9-8aae-4c2e-bd7d-825ed145fce0{stroke-miterlimit:10;}.\37 d103f8f-58b9-42ac-b4d3-f9651797cd94{fill:#fff;}.\33 f776100-317f-4d3c-b62f-9379b12469eb,.bf18e16b-480e-4600-ae20-b4428bb2d5c2,.c6954d75-003e-44a9-93b5-d32d378b4130,.e2cd6cee-24ab-45af-a9b3-81b846ebe42e,.f1cd27c9-8aae-4c2e-bd7d-825ed145fce0{fill:none;}.\33 f776100-317f-4d3c-b62f-9379b12469eb,.bf18e16b-480e-4600-ae20-b4428bb2d5c2{stroke:#ffb600;}.bf18e16b-480e-4600-ae20-b4428bb2d5c2,.f1cd27c9-8aae-4c2e-bd7d-825ed145fce0{stroke-width:20px;}.c6954d75-003e-44a9-93b5-d32d378b4130,.f1cd27c9-8aae-4c2e-bd7d-825ed145fce0{stroke:#0080ff;}.e2cd6cee-24ab-45af-a9b3-81b846ebe42e{stroke:#fff;stroke-width:12px;}.\33 f776100-317f-4d3c-b62f-9379b12469eb,.c6954d75-003e-44a9-93b5-d32d378b4130{stroke-width:2px;}</style><symbol id="ad9253e1-1a02-430f-a0f3-0eb9f48e6e76" data-name="fd103434-89f2-4089-acf9-54fed79ed404" viewBox="0 0 200 103.617"><rect class="aec350b2-f3f0-44cc-96a7-f077d1395b02" x="2.5" y="54.074" width="195" height="47.043"/><rect class="7d103f8f-58b9-42ac-b4d3-f9651797cd94" x="2.5" y="2.5" width="48.75" height="48.75"/><rect class="7d103f8f-58b9-42ac-b4d3-f9651797cd94" x="51.25" y="2.5" width="48.75" height="48.75"/><rect class="7d103f8f-58b9-42ac-b4d3-f9651797cd94" x="100" y="2.5" width="48.75" height="48.75"/><rect class="7d103f8f-58b9-42ac-b4d3-f9651797cd94" x="148.75" y="2.5" width="48.75" height="48.75"/></symbol></defs><title>EEDO_Hole_in_One</title><g id="50307b81-1e45-434d-8d23-cfe6af265678" data-name="Layer 2"><g id="82cad94e-95d0-4c23-b52e-86515f2a04b6" data-name="City - Murietta Heights"><g id="a3ee349f-5bbb-4fb2-bddd-eaed7d856c82" data-name="EEDO_Hole_in_One"><path id="a1fa0666-5596-4f5e-a481-ce882ad4e5db" data-name="Alt Outer" class="bf18e16b-480e-4600-ae20-b4428bb2d5c2" d="M226.538,295.082c-10.833,17.666-49.25,49.583-61.083,69.416s-16.417,63.459-50.891,66.646"/><path id="9f0a700d-4115-437e-9a3b-a2b9baa3f650" data-name="Track Outer" class="f1cd27c9-8aae-4c2e-bd7d-825ed145fce0" d="M290.205,204.915c-12.64,20.6-53.5,74-63.667,90.167s-18.167,56.333-37.167,85.833-42.063,45.542-69.166,49.5a197.789,197.789,0,0,1-96.167-10.583c-27.5-10.5-9.833-36.25,12.333-37.917s44.667-4.5,56-10.833,18.5-12.5,23.334-20.667,13-7.667,23.833-.833,52.167,30.833,67.5,40.333,18.667,16.333,22.833,22.833,12.334,8,24.667,0,23.667-11,39.333-7.333,48.917,10.917,72.667,17.167,40,26.75,45.5,43.25,6,39.25-.5,54.5-10.833,26.75-12.667,39.25-10.083,16.25-20.833,13.25-20.325-18.261-39.125-24.25c-14.125-4.5-23-1.375-24.125,12.375s-.75,46.458,4.083,75.125c4.269,25.316,19.358,84.162,18.5,114.166-.5,17.5-12.37,25.327-32.666,14.334-16-8.667-28.717-24.921-40.167-44.667-11.5-19.833-11-26.667-15.667-51.333s-7.166-38.334-11.666-59.167-23.5-22.167-34.167-19.5-19.877,7.665-25.167,27.5c-3.333,12.5-5.473,23.181-6.333,33.5-.833,10-2.167,16.667-15.167,21.333s-22.666,4.167-31.166-7.5-24.834-29.166-39-39-32.667-19.5-41-28.333-10.834-17-7.834-29.333,11.667-19.167,25.5-23.667,48.834-20.5,61.667-29.5,68.5-50.833,81-61.333,28.624-6.741,26.25,10.375-8.09,40.607-11,56.125c-3,16-4.5,29.625,17.75,28s41.25-3,56.75-4.625,23.417-6.709,28.75-27.375,13.833-55.5,19.167-80.167,10.833-48.333,6.166-66-13.333-39.333-23.666-50a76.756,76.756,0,0,0-35-20.667c-18-5.166-22.9,8.714-49.167-.5-22.333-7.833-44.333-24.5-68.667-39.833S76.538,198.832,56.538,185.582s-10.167-28.667-2.5-40.834S74.779,111.5,80.705,101.582c7.166-12,16-11.667,30.666-1.667,8.365,5.7,9.142,7.819,3.834,17-6.167,10.667-9.917,19.25-.917,25.417s17.894.863,26.875-3.5c13.208-6.417,71.875-37.25,83.625-43s17-12,21-21.25,12.584-15.943,19-25.5c24-35.75,46.153-47.344,75.75-33.25,36.75,17.5,28.749,47.774,18,66.75-20.25,35.75-22.833,41.5-35.833,65.5S303.705,182.915,290.205,204.915Z"/><path id="b564338a-77c8-4c15-b2a8-a88d7e1dccf0" data-name="Alt Middle" class="e2cd6cee-24ab-45af-a9b3-81b846ebe42e" d="M226.538,295.082c-10.833,17.666-49.25,49.583-61.083,69.416s-16.417,63.459-50.891,66.646"/><path id="5fff4142-8c4a-43f9-910b-762cebce7392" data-name="Track Middle" class="e2cd6cee-24ab-45af-a9b3-81b846ebe42e" d="M290.205,204.915c-12.64,20.6-53.5,74-63.667,90.167s-18.167,56.333-37.167,85.833-42.063,45.542-69.166,49.5a197.789,197.789,0,0,1-96.167-10.583c-27.5-10.5-9.833-36.25,12.333-37.917s44.667-4.5,56-10.833,18.5-12.5,23.334-20.667,13-7.667,23.833-.833,52.167,30.833,67.5,40.333,18.667,16.333,22.833,22.833,12.334,8,24.667,0,23.667-11,39.333-7.333,48.917,10.917,72.667,17.167,40,26.75,45.5,43.25,6,39.25-.5,54.5-10.833,26.75-12.667,39.25-10.083,16.25-20.833,13.25-20.325-18.261-39.125-24.25c-14.125-4.5-23-1.375-24.125,12.375s-.75,46.458,4.083,75.125c4.269,25.316,19.358,84.162,18.5,114.166-.5,17.5-12.37,25.327-32.666,14.334-16-8.667-28.717-24.921-40.167-44.667-11.5-19.833-11-26.667-15.667-51.333s-7.166-38.334-11.666-59.167-23.5-22.167-34.167-19.5-19.877,7.665-25.167,27.5c-3.333,12.5-5.473,23.181-6.333,33.5-.833,10-2.167,16.667-15.167,21.333s-22.666,4.167-31.166-7.5-24.834-29.166-39-39-32.667-19.5-41-28.333-10.834-17-7.834-29.333,11.667-19.167,25.5-23.667,48.834-20.5,61.667-29.5,68.5-50.833,81-61.333,28.624-6.741,26.25,10.375-8.09,40.607-11,56.125c-3,16-4.5,29.625,17.75,28s41.25-3,56.75-4.625,23.417-6.709,28.75-27.375,13.833-55.5,19.167-80.167,10.833-48.333,6.166-66-13.333-39.333-23.666-50a76.756,76.756,0,0,0-35-20.667c-18-5.166-22.9,8.714-49.167-.5-22.333-7.833-44.333-24.5-68.667-39.833S76.538,198.832,56.538,185.582s-10.167-28.667-2.5-40.834S74.779,111.5,80.705,101.582c7.166-12,16-11.667,30.666-1.667,8.365,5.7,9.142,7.819,3.834,17-6.167,10.667-9.917,19.25-.917,25.417s17.894.863,26.875-3.5c13.208-6.417,71.875-37.25,83.625-43s17-12,21-21.25,12.584-15.943,19-25.5c24-35.75,46.153-47.344,75.75-33.25,36.75,17.5,28.749,47.774,18,66.75-20.25,35.75-22.833,41.5-35.833,65.5S303.705,182.915,290.205,204.915Z"/><path id="e3873be5-3225-41ed-986c-affd08df049f" data-name="Alt Inner" class="3f776100-317f-4d3c-b62f-9379b12469eb" d="M226.538,295.082c-10.833,17.666-49.25,49.583-61.083,69.416s-16.417,63.459-50.891,66.646"/><path id="ba229275-679f-4b06-a5f2-8bfa9a7b4884" data-name="Track Inner" class="c6954d75-003e-44a9-93b5-d32d378b4130" d="M290.205,204.915c-12.64,20.6-53.5,74-63.667,90.167s-18.167,56.333-37.167,85.833-42.063,45.542-69.166,49.5a197.789,197.789,0,0,1-96.167-10.583c-27.5-10.5-9.833-36.25,12.333-37.917s44.667-4.5,56-10.833,18.5-12.5,23.334-20.667,13-7.667,23.833-.833,52.167,30.833,67.5,40.333,18.667,16.333,22.833,22.833,12.334,8,24.667,0,23.667-11,39.333-7.333,48.917,10.917,72.667,17.167,40,26.75,45.5,43.25,6,39.25-.5,54.5-10.833,26.75-12.667,39.25-10.083,16.25-20.833,13.25-20.325-18.261-39.125-24.25c-14.125-4.5-23-1.375-24.125,12.375s-.75,46.458,4.083,75.125c4.269,25.316,19.358,84.162,18.5,114.166-.5,17.5-12.37,25.327-32.666,14.334-16-8.667-28.717-24.921-40.167-44.667-11.5-19.833-11-26.667-15.667-51.333s-7.166-38.334-11.666-59.167-23.5-22.167-34.167-19.5-19.877,7.665-25.167,27.5c-3.333,12.5-5.473,23.181-6.333,33.5-.833,10-2.167,16.667-15.167,21.333s-22.666,4.167-31.166-7.5-24.834-29.166-39-39-32.667-19.5-41-28.333-10.834-17-7.834-29.333,11.667-19.167,25.5-23.667,48.834-20.5,61.667-29.5,68.5-50.833,81-61.333,28.624-6.741,26.25,10.375-8.09,40.607-11,56.125c-3,16-4.5,29.625,17.75,28s41.25-3,56.75-4.625,23.417-6.709,28.75-27.375,13.833-55.5,19.167-80.167,10.833-48.333,6.166-66-13.333-39.333-23.666-50a76.756,76.756,0,0,0-35-20.667c-18-5.166-22.9,8.714-49.167-.5-22.333-7.833-44.333-24.5-68.667-39.833S76.538,198.832,56.538,185.582s-10.167-28.667-2.5-40.834S74.779,111.5,80.705,101.582c7.166-12,16-11.667,30.666-1.667,8.365,5.7,9.142,7.819,3.834,17-6.167,10.667-9.917,19.25-.917,25.417s17.894.863,26.875-3.5c13.208-6.417,71.875-37.25,83.625-43s17-12,21-21.25,12.584-15.943,19-25.5c24-35.75,46.153-47.344,75.75-33.25,36.75,17.5,28.749,47.774,18,66.75-20.25,35.75-22.833,41.5-35.833,65.5S303.705,182.915,290.205,204.915Z"/><g id="3fe8425c-4ae5-4053-b036-2ff1ce4df0d3" data-name="Crossover"><path id="f31f2500-64be-47b9-a542-506b35985af8" data-name="Crossover Outer" class="f1cd27c9-8aae-4c2e-bd7d-825ed145fce0" d="M290.714,299.257c-18-5.166-22.9,8.714-49.167-.5-22.333-7.833-44.333-24.5-68.667-39.833"/><path id="fd3fd65c-f34e-4730-9e33-f527820c921b" data-name="Crossover Middle" class="e2cd6cee-24ab-45af-a9b3-81b846ebe42e" d="M290.714,299.257c-18-5.166-22.9,8.714-49.167-.5-22.333-7.833-44.333-24.5-68.667-39.833"/><path id="883bc8f4-1fe8-469a-8f0b-1bb0b36b4fca" data-name="Crossover Inner" class="c6954d75-003e-44a9-93b5-d32d378b4130" d="M290.714,299.257c-18-5.166-22.9,8.714-49.167-.5-22.333-7.833-44.333-24.5-68.667-39.833"/></g><g id="748ca074-589e-4f61-b109-3bfc35c7ded8" data-name="Crossover"><path id="8b3cbcc9-8b3a-4a05-895a-961472f883eb" data-name="Crossover Outer" class="f1cd27c9-8aae-4c2e-bd7d-825ed145fce0" d="M139.547,349.591c10.833,6.833,52.167,30.833,67.5,40.333s18.667,16.333,22.833,22.833,12.334,8,24.667,0,23.667-11,39.333-7.333,48.917,10.917,72.667,17.167,40,26.75,45.5,43.25"/><path id="3c118c01-4d93-46a2-9974-aad78eb3f4b3" data-name="Crossover Middle" class="e2cd6cee-24ab-45af-a9b3-81b846ebe42e" d="M139.547,349.591c10.833,6.833,52.167,30.833,67.5,40.333s18.667,16.333,22.833,22.833,12.334,8,24.667,0,23.667-11,39.333-7.333,48.917,10.917,72.667,17.167,40,26.75,45.5,43.25"/><path id="e18f2cef-971e-4f7c-b59a-2f7242753a7d" data-name="Crossover Inner" class="c6954d75-003e-44a9-93b5-d32d378b4130" d="M139.547,349.591c10.833,6.833,52.167,30.833,67.5,40.333s18.667,16.333,22.833,22.833,12.334,8,24.667,0,23.667-11,39.333-7.333,48.917,10.917,72.667,17.167,40,26.75,45.5,43.25"/></g><use id="c97c4483-2088-4ce5-bc11-75f5984c589c" data-name="Start-Finish-Line" width="200" height="103.617" transform="translate(277.475 179.089) rotate(31.804) scale(0.243)" xlink:href="#ad9253e1-1a02-430f-a0f3-0eb9f48e6e76"/></g></g></g></svg>