<svg xmlns="http://www.w3.org/2000/svg" xmlns:xlink="http://www.w3.org/1999/xlink" width="596.595" height="623.285" viewBox="0 0 596.595 623.285"><defs><style>.c7246a2e-d391-4d4b-b3c1-6c77087698cb{fill:#00ff24;}.c4ff9b0f-057f-413a-9d08-1453d7b9a1f1,.c7246a2e-d391-4d4b-b3c1-6c77087698cb{stroke:#000;stroke-width:5px;}.\33 01b91b1-1222-4678-b701-4c4f18ea30cb,.\34 f907861-5833-46ff-adea-1823f6120a4f,.\36 b2b60a2-9470-4c6b-9a76-173ff9f06e7d,.\37 c9eeb27-3f96-495e-8c12-e800c3105bba,.b2b0505b-2be5-48ab-aec1-93092e02cb37,.c4ff9b0f-057f-413a-9d08-1453d7b9a1f1,.c7246a2e-d391-4d4b-b3c1-6c77087698cb{stroke-miterlimit:10;}.c4ff9b0f-057f-413a-9d08-1453d7b9a1f1{fill:#fff;}.\33 01b91b1-1222-4678-b701-4c4f18ea30cb,.\34 f907861-5833-46ff-adea-1823f6120a4f,.\36 b2b60a2-9470-4c6b-9a76-173ff9f06e7d,.\37 c9eeb27-3f96-495e-8c12-e800c3105bba,.b2b0505b-2be5-48ab-aec1-93092e02cb37{fill:none;}.\33 01b91b1-1222-4678-b701-4c4f18ea30cb,.\37 c9eeb27-3f96-495e-8c12-e800c3105bba{stroke:#c91c1c;}.\37 c9eeb27-3f96-495e-8c12-e800c3105bba,.b2b0505b-2be5-48ab-aec1-93092e02cb37{stroke-width:20px;}.\34 f907861-5833-46ff-adea-1823f6120a4f,.b2b0505b-2be5-48ab-aec1-93092e02cb37{stroke:#0080ff;}.\36 b2b60a2-9470-4c6b-9a76-173ff9f06e7d{stroke:#fff;stroke-width:12px;}.\33 01b91b1-1222-4678-b701-4c4f18ea30cb,.\34 f907861-5833-46ff-adea-1823f6120a4f{stroke-width:2px;}</style><symbol id="df3c885b-aaf2-40f4-ba6a-30191a66f8a9" data-name="fd103434-89f2-4089-acf9-54fed79ed404" viewBox="0 0 200 103.617"><rect class="c7246a2e-d391-4d4b-b3c1-6c77087698cb" x="2.5" y="54.074" width="195" height="47.043"/><rect class="c4ff9b0f-057f-413a-9d08-1453d7b9a1f1" x="2.5" y="2.5" width="48.75" height="48.75"/><rect class="c4ff9b0f-057f-413a-9d08-1453d7b9a1f1" x="51.25" y="2.5" width="48.75" height="48.75"/><rect class="c4ff9b0f-057f-413a-9d08-1453d7b9a1f1" x="100" y="2.5" width="48.75" height="48.75"/><rect class="c4ff9b0f-057f-413a-9d08-1453d7b9a1f1" x="148.75" y="2.5" width="48.75" height="48.75"/></symbol></defs><title>Fever_Pitch</title><g id="8d18fa17-c746-484d-9cf2-d2b45c9a3e07" data-name="Layer 2"><g id="3ea925b9-dc50-47a2-bc9a-d2c4d8ee35d8" data-name="City - Murietta Heights"><g id="0b866b80-f9d2-42ab-9ee8-1b258fa9807e" data-name="Fever_Pitch"><path id="60ac3300-dd69-4def-baa1-efa505e243e6" data-name="Pitlane Outer" class="7c9eeb27-3f96-495e-8c12-e800c3105bba" d="M145.219,492.719c1.25-17,13.208-26.368,13.958-41.743.579-11.867,8-15.875,17.375-15.375s11.9-2.256,12.375-9.125c.5-7.25-1-13.773,9.625-13.5,9.75.25,9.634-6.638,10.375-17.75.75-11.25,3.375-46.875,4-57.375s-7.75-11.375-17.375-11-14.25,2.875-25,3.5-13.375-2.375-16.875-7.5-5-12.593-16-13.343-14.828-.847-20.828-.347-10.33,10.6-20.7,9.724"/><path id="50a312e8-c043-4523-ad03-9b7fa596c7f0" data-name="Track Outer" class="b2b0505b-2be5-48ab-aec1-93092e02cb37" d="M282.427,26.268c29.5,0,80-.167,106,0s41,5.083,48.25,25.083,12.879,33.814,18,52.25c5.417,19.5,17.626,53.04,27.083,66,9,12.333,22.728,12.784,35.334,28.5,12.833,16,29.7,41.151,38.833,58.333,11.167,21,10.5,23,16.333,46.667s10.334,52.167,12.834,72.833,1.833,49.334-1.667,67.834-9.5,42.833-29.5,68.333-62,46.5-83.833,55.5-25,9.947-32.417,13c-10.625,4.375-16.246-1.027-21.75-17.25a581.777,581.777,0,0,0-29-68.75c-13-25.5-31.75-56.75-43-82.75s-30.618-80.726-40-106c-12.25-33-28.25-85.5-33.25-121s-7.75-87-7.25-112,0-39.122,0-48.875c0-13.625-19.9-16.1-20.75.25-.875,16.75-.917,58.708-1.917,86.042s-.333,87.666.667,115.666,7.25,61.667,16,84.417,19,51,25.75,71,16.083,43.25,25.917,58.917,29.333,38.166,41.666,52.166,36,44.167,42.834,61.5,11.75,39-8.917,46.167-59.5,5.5-87.25,5.25c-29.319-.264-54.167,3.083-75.667,5.25s-55.083,3.5-68.208,2.125-19.125-7-17.625-22.25,9.833-96.875,11.167-123.542S154.177,365.1,154.677,348.6s-7.547-25.49-26-27c-27.5-2.25-57-4.75-73.5-6.5s-25-9.5-22.75-32.5,5.75-52.5,8.25-67.75,16.725-19.454,18.25-37.5c1.5-17.75-2-20-10.75-38s-22.25-50.75-28.25-65.5-9-21.917-9.833-31.75S13.76,25.434,32.927,25.434s107-.333,137.25-.083S247.094,26.268,282.427,26.268Z"/><path id="aa6455e3-daa4-49c3-9374-2c7f76d66369" data-name="Pitlane Middle" class="6b2b60a2-9470-4c6b-9a76-173ff9f06e7d" d="M145.219,492.719c1.25-17,13.208-26.368,13.958-41.743.579-11.867,8-15.875,17.375-15.375s11.9-2.256,12.375-9.125c.5-7.25-1-13.773,9.625-13.5,9.75.25,9.634-6.638,10.375-17.75.75-11.25,3.375-46.875,4-57.375s-7.75-11.375-17.375-11-14.25,2.875-25,3.5-13.375-2.375-16.875-7.5-5-12.593-16-13.343-14.828-.847-20.828-.347-10.33,10.6-20.7,9.724"/><path id="e42e06d7-a9dd-4638-addd-317478a28f42" data-name="Track Middle" class="6b2b60a2-9470-4c6b-9a76-173ff9f06e7d" d="M282.427,26.268c29.5,0,80-.167,106,0s41,5.083,48.25,25.083,12.879,33.814,18,52.25c5.417,19.5,17.626,53.04,27.083,66,9,12.333,22.728,12.784,35.334,28.5,12.833,16,29.7,41.151,38.833,58.333,11.167,21,10.5,23,16.333,46.667s10.334,52.167,12.834,72.833,1.833,49.334-1.667,67.834-9.5,42.833-29.5,68.333-62,46.5-83.833,55.5-25,9.947-32.417,13c-10.625,4.375-16.246-1.027-21.75-17.25a581.777,581.777,0,0,0-29-68.75c-13-25.5-31.75-56.75-43-82.75s-30.618-80.726-40-106c-12.25-33-28.25-85.5-33.25-121s-7.75-87-7.25-112,0-39.122,0-48.875c0-13.625-19.9-16.1-20.75.25-.875,16.75-.917,58.708-1.917,86.042s-.333,87.666.667,115.666,7.25,61.667,16,84.417,19,51,25.75,71,16.083,43.25,25.917,58.917,29.333,38.166,41.666,52.166,36,44.167,42.834,61.5,11.75,39-8.917,46.167-59.5,5.5-87.25,5.25c-29.319-.264-54.167,3.083-75.667,5.25s-55.083,3.5-68.208,2.125-19.125-7-17.625-22.25,9.833-96.875,11.167-123.542S154.177,365.1,154.677,348.6s-7.547-25.49-26-27c-27.5-2.25-57-4.75-73.5-6.5s-25-9.5-22.75-32.5,5.75-52.5,8.25-67.75,16.725-19.454,18.25-37.5c1.5-17.75-2-20-10.75-38s-22.25-50.75-28.25-65.5-9-21.917-9.833-31.75S13.76,25.434,32.927,25.434s107-.333,137.25-.083S247.094,26.268,282.427,26.268Z"/><path id="7ac8bead-d51f-4598-a753-1d3074380c64" data-name="Pitlane Inner" class="301b91b1-1222-4678-b701-4c4f18ea30cb" d="M145.219,492.719c1.25-17,13.208-26.368,13.958-41.743.579-11.867,8-15.875,17.375-15.375s11.9-2.256,12.375-9.125c.5-7.25-1-13.773,9.625-13.5,9.75.25,9.634-6.638,10.375-17.75.75-11.25,3.375-46.875,4-57.375s-7.75-11.375-17.375-11-14.25,2.875-25,3.5-13.375-2.375-16.875-7.5-5-12.593-16-13.343-14.828-.847-20.828-.347-10.33,10.6-20.7,9.724"/><path id="478c992c-62e3-4b87-bc3e-e4bcfce7ddc7" data-name="Track Inner" class="4f907861-5833-46ff-adea-1823f6120a4f" d="M282.427,26.268c29.5,0,80-.167,106,0s41,5.083,48.25,25.083,12.879,33.814,18,52.25c5.417,19.5,17.626,53.04,27.083,66,9,12.333,22.728,12.784,35.334,28.5,12.833,16,29.7,41.151,38.833,58.333,11.167,21,10.5,23,16.333,46.667s10.334,52.167,12.834,72.833,1.833,49.334-1.667,67.834-9.5,42.833-29.5,68.333-62,46.5-83.833,55.5-25,9.947-32.417,13c-10.625,4.375-16.246-1.027-21.75-17.25a581.777,581.777,0,0,0-29-68.75c-13-25.5-31.75-56.75-43-82.75s-30.618-80.726-40-106c-12.25-33-28.25-85.5-33.25-121s-7.75-87-7.25-112,0-39.122,0-48.875c0-13.625-19.9-16.1-20.75.25-.875,16.75-.917,58.708-1.917,86.042s-.333,87.666.667,115.666,7.25,61.667,16,84.417,19,51,25.75,71,16.083,43.25,25.917,58.917,29.333,38.166,41.666,52.166,36,44.167,42.834,61.5,11.75,39-8.917,46.167-59.5,5.5-87.25,5.25c-29.319-.264-54.167,3.083-75.667,5.25s-55.083,3.5-68.208,2.125-19.125-7-17.625-22.25,9.833-96.875,11.167-123.542S154.177,365.1,154.677,348.6s-7.547-25.49-26-27c-27.5-2.25-57-4.75-73.5-6.5s-25-9.5-22.75-32.5,5.75-52.5,8.25-67.75,16.725-19.454,18.25-37.5c1.5-17.75-2-20-10.75-38s-22.25-50.75-28.25-65.5-9-21.917-9.833-31.75S13.76,25.434,32.927,25.434s107-.333,137.25-.083S247.094,26.268,282.427,26.268Z"/><g id="6729cd24-3953-45dc-8a81-cbe1417a9161" data-name="Crossover"><path id="afd3a486-2cd5-45b0-a65d-7ace83278e05" data-name="Track Inner" class="b2b0505b-2be5-48ab-aec1-93092e02cb37" d="M170.177,25.351c30.25.25,76.917.917,112.25.917,29.5,0,80-.167,106,0"/><path id="18aac950-dd81-45b4-b51c-5bae4991cb70" data-name="Track Inner" class="6b2b60a2-9470-4c6b-9a76-173ff9f06e7d" d="M170.177,25.351c30.25.25,76.917.917,112.25.917,29.5,0,80-.167,106,0"/><path id="652a8645-7543-49fa-ba98-9e7c5ad6c871" data-name="Track Inner" class="4f907861-5833-46ff-adea-1823f6120a4f" d="M170.177,25.351c30.25.25,76.917.917,112.25.917,29.5,0,80-.167,106,0"/></g><use id="80475cf1-5040-4d92-ad3f-4c1895510329" data-name="Start-Finish-Line" width="200" height="103.617" transform="translate(270.772 50.603) rotate(-90.352) scale(0.243)" xlink:href="#df3c885b-aaf2-40f4-ba6a-30191a66f8a9"/></g></g></g></svg>