<svg xmlns="http://www.w3.org/2000/svg" xmlns:xlink="http://www.w3.org/1999/xlink" width="983.051" height="1153.264" viewBox="0 0 983.051 1153.264"><defs><style>.\37 1931bf8-24da-4e7d-b6b3-4ed1dfb29c0f{fill:#00ff24;}.\37 1931bf8-24da-4e7d-b6b3-4ed1dfb29c0f,.e8e45966-9efd-4bdc-84b0-4f459c44ac26{stroke:#000;stroke-width:5px;}.\31 7cbdab2-af12-4d4b-97f4-a6cebf78d59a,.\37 091729c-c426-4725-88ff-1ce9b27394dd,.\37 1931bf8-24da-4e7d-b6b3-4ed1dfb29c0f,.cbfb0c8d-a26c-4e69-ab4f-b28848b49b0a,.ce8e37b7-470f-489b-a9f3-8fc4461edd6d,.e8e45966-9efd-4bdc-84b0-4f459c44ac26,.f6dc9436-c6e7-43a2-a4f8-a0206a656fa0{stroke-miterlimit:10;}.e8e45966-9efd-4bdc-84b0-4f459c44ac26{fill:#fff;}.\31 7cbdab2-af12-4d4b-97f4-a6cebf78d59a,.\37 091729c-c426-4725-88ff-1ce9b27394dd,.cbfb0c8d-a26c-4e69-ab4f-b28848b49b0a,.ce8e37b7-470f-489b-a9f3-8fc4461edd6d,.f6dc9436-c6e7-43a2-a4f8-a0206a656fa0{fill:none;}.\37 091729c-c426-4725-88ff-1ce9b27394dd,.ce8e37b7-470f-489b-a9f3-8fc4461edd6d{stroke:#c91c1c;}.ce8e37b7-470f-489b-a9f3-8fc4461edd6d,.f6dc9436-c6e7-43a2-a4f8-a0206a656fa0{stroke-width:20px;}.\31 7cbdab2-af12-4d4b-97f4-a6cebf78d59a,.f6dc9436-c6e7-43a2-a4f8-a0206a656fa0{stroke:#0080ff;}.cbfb0c8d-a26c-4e69-ab4f-b28848b49b0a{stroke:#fff;stroke-width:12px;}.\31 7cbdab2-af12-4d4b-97f4-a6cebf78d59a,.\37 091729c-c426-4725-88ff-1ce9b27394dd{stroke-width:2px;}</style><symbol id="7d471a30-10e5-4562-893c-e85ccba7a429" data-name="fd103434-89f2-4089-acf9-54fed79ed404" viewBox="0 0 200 103.617"><rect class="71931bf8-24da-4e7d-b6b3-4ed1dfb29c0f" x="2.5" y="54.074" width="195" height="47.043"/><rect class="e8e45966-9efd-4bdc-84b0-4f459c44ac26" x="2.5" y="2.5" width="48.75" height="48.75"/><rect class="e8e45966-9efd-4bdc-84b0-4f459c44ac26" x="51.25" y="2.5" width="48.75" height="48.75"/><rect class="e8e45966-9efd-4bdc-84b0-4f459c44ac26" x="100" y="2.5" width="48.75" height="48.75"/><rect class="e8e45966-9efd-4bdc-84b0-4f459c44ac26" x="148.75" y="2.5" width="48.75" height="48.75"/></symbol></defs><title>GNGR_Blue_Collar_GP</title><g id="cd72e807-b0c0-41f4-9095-d9e565ed695b" data-name="Layer 2"><g id="0b22e54e-81e0-44b4-8577-5be3ebd0b501" data-name="City - Murietta Heights"><g id="5d99b64c-f27e-43fb-ad9f-0fc7e11fce8d" data-name="GNGR_Blue_Collar_GP"><path id="8bf882a3-7926-462e-803d-43fe55a7a2b1" data-name="Pitlane Outer" class="ce8e37b7-470f-489b-a9f3-8fc4461edd6d" d="M630.906,136.453c.334,17.834-12.312,15.5-12.478,34.5s.666,54.664,1.166,69.664,13.192,17.057,14.4,29.422"/><path id="ebe47ed7-8fad-4f17-a71f-b34c467d559c" data-name="Track Outer" class="f6dc9436-c6e7-43a2-a4f8-a0206a656fa0" d="M635.659,285.287a694.312,694.312,0,0,0,13.667,69.333c6,23.167,21.333,64.833,29.833,88.167s21.667,61.666,31,80.166,37.334,69.667,47.5,90,26.167,55,29.667,64.834,11.5,15.166,24.333,11.833,41.917-12.583,65.167-24.083,51.833-29.25,66.667-51.75,25.333-46.75,28.833-84.5-6.5-78.5-12.25-101.5-31.75-81.25-47.25-104-45.333-50.5-56.667-76.5-26.583-69-32.583-90.5-25-24.25-48.75-24.25-203.667-1.584-236.333-1.584-90.917-3.666-112.917-3.916-38.25,12.75-30.25,33,44.5,79.916,48.167,100.916.666,37.334-.667,57-4.25,54.584-6.5,70.834-12.715,26.762-33.75,25.5c-25-1.5-119.651-7.684-146-10-22.75-2-56.141-6.556-75.25-20.5-18.5-13.5-40.369-15.452-47.625,4.875-6.708,18.791-9.9,28.732-12.708,37.958-4.167,13.667,10.768,18.743-3.167,37.167-9.833,13-25.833,30.666-39.5,44.333s-44.5,43.917-57.75,55.917-14.417,19.916-1.417,32.916,52.917,53.084,64.417,64.084,26,24.75,47.75,21.75,35.72-3.165,62-1c21.25,1.75,113.667,9.166,138,11.666s34.75,6.084,31.75,35.834-18.917,216-21.917,248.333-16,65.333-24.333,76.333-14.875,20.084-23,26.209-12.375,22.875,2.125,31.25,24.375,16.041,29.375,25.541,17.333,8.834,21.833-5.833,5.667-30.167,7.167-44.833,10.18-33.373,34.667-31.667c20.333,1.417,179.166,15.667,197.833,17.333s22-5.666,23.25-18.416,28.945-299.565,30.417-315.584c1.5-16.333-1.917-21.916-25.417-19.416s-50.75,5-72.5,3-25,6.25-27,24.75-6.25,89.5-8,106.25-11.5,20.5-32.25,18.75-57.75-5.5-75-6.75-26-5.25-24.25-25.5,8.5-93.25,10-108,7.25-23.5,22.75-21.75,72,8.25,84.5,9,25.75,2.25,27.75-16.5,12.75-123.167,13.75-139.5,12-19.351,26.667-19c31.333.75,68.7-4.882,87.333-11.25,19.75-6.75,30.75-15.5,23.5-36.25s-18.333-50.334-21-59.5-5.667-19.334,9-24.167,25.125-8.583,34.25-11.833,12.125-12.875,6-28.875-20.416-49.043-26.5-66.125c-6.5-18.25-24.924-79-25.5-107.5-.5-24.75-1.75-90.25-2.5-118s-3-46-3.25-59.75-14.25-13.25-14.25.75,1.25,61.5,1.75,85.75,1.5,78.75,1.75,102.75S632.493,263.287,635.659,285.287Z"/><path id="e3421daf-932e-4a74-b4d5-4ed0332b2980" data-name="Pitlane Middle" class="cbfb0c8d-a26c-4e69-ab4f-b28848b49b0a" d="M630.906,136.453c.334,17.834-12.312,15.5-12.478,34.5s.666,54.664,1.166,69.664,13.192,17.057,14.4,29.422"/><path id="6172bdae-670a-470d-9581-8d4f81f70001" data-name="Track Middle" class="cbfb0c8d-a26c-4e69-ab4f-b28848b49b0a" d="M635.659,285.287a694.312,694.312,0,0,0,13.667,69.333c6,23.167,21.333,64.833,29.833,88.167s21.667,61.666,31,80.166,37.334,69.667,47.5,90,26.167,55,29.667,64.834,11.5,15.166,24.333,11.833,41.917-12.583,65.167-24.083,51.833-29.25,66.667-51.75,25.333-46.75,28.833-84.5-6.5-78.5-12.25-101.5-31.75-81.25-47.25-104-45.333-50.5-56.667-76.5-26.583-69-32.583-90.5-25-24.25-48.75-24.25-203.667-1.584-236.333-1.584-90.917-3.666-112.917-3.916-38.25,12.75-30.25,33,44.5,79.916,48.167,100.916.666,37.334-.667,57-4.25,54.584-6.5,70.834-12.715,26.762-33.75,25.5c-25-1.5-119.651-7.684-146-10-22.75-2-56.141-6.556-75.25-20.5-18.5-13.5-40.369-15.452-47.625,4.875-6.708,18.791-9.9,28.732-12.708,37.958-4.167,13.667,10.768,18.743-3.167,37.167-9.833,13-25.833,30.666-39.5,44.333s-44.5,43.917-57.75,55.917-14.417,19.916-1.417,32.916,52.917,53.084,64.417,64.084,26,24.75,47.75,21.75,35.72-3.165,62-1c21.25,1.75,113.667,9.166,138,11.666s34.75,6.084,31.75,35.834-18.917,216-21.917,248.333-16,65.333-24.333,76.333-14.875,20.084-23,26.209-12.375,22.875,2.125,31.25,24.375,16.041,29.375,25.541,17.333,8.834,21.833-5.833,5.667-30.167,7.167-44.833,10.18-33.373,34.667-31.667c20.333,1.417,179.166,15.667,197.833,17.333s22-5.666,23.25-18.416,28.945-299.565,30.417-315.584c1.5-16.333-1.917-21.916-25.417-19.416s-50.75,5-72.5,3-25,6.25-27,24.75-6.25,89.5-8,106.25-11.5,20.5-32.25,18.75-57.75-5.5-75-6.75-26-5.25-24.25-25.5,8.5-93.25,10-108,7.25-23.5,22.75-21.75,72,8.25,84.5,9,25.75,2.25,27.75-16.5,12.75-123.167,13.75-139.5,12-19.351,26.667-19c31.333.75,68.7-4.882,87.333-11.25,19.75-6.75,30.75-15.5,23.5-36.25s-18.333-50.334-21-59.5-5.667-19.334,9-24.167,25.125-8.583,34.25-11.833,12.125-12.875,6-28.875-20.416-49.043-26.5-66.125c-6.5-18.25-24.924-79-25.5-107.5-.5-24.75-1.75-90.25-2.5-118s-3-46-3.25-59.75-14.25-13.25-14.25.75,1.25,61.5,1.75,85.75,1.5,78.75,1.75,102.75S632.493,263.287,635.659,285.287Z"/><path id="824090ef-ae3c-47fb-94be-a9489230c45d" data-name="Pitlane Inner" class="7091729c-c426-4725-88ff-1ce9b27394dd" d="M630.906,136.453c.334,17.834-12.312,15.5-12.478,34.5s.666,54.664,1.166,69.664,13.192,17.057,14.4,29.422"/><path id="ea39b601-8f64-4f48-a43f-f39b4d553cf7" data-name="Track Inner" class="17cbdab2-af12-4d4b-97f4-a6cebf78d59a" d="M635.659,285.287a694.312,694.312,0,0,0,13.667,69.333c6,23.167,21.333,64.833,29.833,88.167s21.667,61.666,31,80.166,37.334,69.667,47.5,90,26.167,55,29.667,64.834,11.5,15.166,24.333,11.833,41.917-12.583,65.167-24.083,51.833-29.25,66.667-51.75,25.333-46.75,28.833-84.5-6.5-78.5-12.25-101.5-31.75-81.25-47.25-104-45.333-50.5-56.667-76.5-26.583-69-32.583-90.5-25-24.25-48.75-24.25-203.667-1.584-236.333-1.584-90.917-3.666-112.917-3.916-38.25,12.75-30.25,33,44.5,79.916,48.167,100.916.666,37.334-.667,57-4.25,54.584-6.5,70.834-12.715,26.762-33.75,25.5c-25-1.5-119.651-7.684-146-10-22.75-2-56.141-6.556-75.25-20.5-18.5-13.5-40.369-15.452-47.625,4.875-6.708,18.791-9.9,28.732-12.708,37.958-4.167,13.667,10.768,18.743-3.167,37.167-9.833,13-25.833,30.666-39.5,44.333s-44.5,43.917-57.75,55.917-14.417,19.916-1.417,32.916,52.917,53.084,64.417,64.084,26,24.75,47.75,21.75,35.72-3.165,62-1c21.25,1.75,113.667,9.166,138,11.666s34.75,6.084,31.75,35.834-18.917,216-21.917,248.333-16,65.333-24.333,76.333-14.875,20.084-23,26.209-12.375,22.875,2.125,31.25,24.375,16.041,29.375,25.541,17.333,8.834,21.833-5.833,5.667-30.167,7.167-44.833,10.18-33.373,34.667-31.667c20.333,1.417,179.166,15.667,197.833,17.333s22-5.666,23.25-18.416,28.945-299.565,30.417-315.584c1.5-16.333-1.917-21.916-25.417-19.416s-50.75,5-72.5,3-25,6.25-27,24.75-6.25,89.5-8,106.25-11.5,20.5-32.25,18.75-57.75-5.5-75-6.75-26-5.25-24.25-25.5,8.5-93.25,10-108,7.25-23.5,22.75-21.75,72,8.25,84.5,9,25.75,2.25,27.75-16.5,12.75-123.167,13.75-139.5,12-19.351,26.667-19c31.333.75,68.7-4.882,87.333-11.25,19.75-6.75,30.75-15.5,23.5-36.25s-18.333-50.334-21-59.5-5.667-19.334,9-24.167,25.125-8.583,34.25-11.833,12.125-12.875,6-28.875-20.416-49.043-26.5-66.125c-6.5-18.25-24.924-79-25.5-107.5-.5-24.75-1.75-90.25-2.5-118s-3-46-3.25-59.75-14.25-13.25-14.25.75,1.25,61.5,1.75,85.75,1.5,78.75,1.75,102.75S632.493,263.287,635.659,285.287Z"/><g id="64c34665-0c05-42fa-a3a8-c3b1f6fb6f35" data-name="Crossover"><path id="c6ecf0cb-495a-43cd-bc3b-85928093197c" data-name="Crossover Outer" class="f6dc9436-c6e7-43a2-a4f8-a0206a656fa0" d="M651.329,436.307c-2.667-9.166-5.667-19.333,9-24.166s25.125-8.584,34.25-11.834,12.125-12.875,6-28.875"/><path id="7587ba4e-4e12-41ce-91ae-37145ae5416f" data-name="Crossover Middle" class="cbfb0c8d-a26c-4e69-ab4f-b28848b49b0a" d="M651.329,436.307c-2.667-9.166-5.667-19.333,9-24.166s25.125-8.584,34.25-11.834,12.125-12.875,6-28.875"/><path id="61c04128-158c-4d44-9a86-f9f73ae39e9a" data-name="Crossover Inner" class="17cbdab2-af12-4d4b-97f4-a6cebf78d59a" d="M651.329,436.307c-2.667-9.166-5.667-19.333,9-24.166s25.125-8.584,34.25-11.834,12.125-12.875,6-28.875"/></g><g id="9127cd3c-70b2-42ee-bf4c-8bd16d7aef19" data-name="Crossover"><path id="56a31be8-f0fa-4d9a-be3a-9991a157aa8e" data-name="Crossover Outer" class="f6dc9436-c6e7-43a2-a4f8-a0206a656fa0" d="M774.829,132.557c-23.75,0-203.667-1.583-236.334-1.583"/><path id="8d9c8700-871f-4c17-bbcf-0edb4cef8618" data-name="Crossover Middle" class="cbfb0c8d-a26c-4e69-ab4f-b28848b49b0a" d="M774.829,132.557c-23.75,0-203.667-1.583-236.334-1.583"/><path id="c6c10498-3e1d-4bfb-9280-671382f7efd1" data-name="Crossover Inner" class="17cbdab2-af12-4d4b-97f4-a6cebf78d59a" d="M774.829,132.557c-23.75,0-203.667-1.583-236.334-1.583"/></g><use id="3fc04c0d-629c-4eac-b73b-d22caaf685e5" data-name="Start-Finish-Line" width="200" height="103.617" transform="matrix(0.241, -0.031, 0.031, 0.241, 609.998, 275.576)" xlink:href="#7d471a30-10e5-4562-893c-e85ccba7a429"/></g></g></g></svg>