<svg xmlns="http://www.w3.org/2000/svg" xmlns:xlink="http://www.w3.org/1999/xlink" width="972.769" height="1818.433" viewBox="0 0 972.769 1818.433"><defs><style>.dd82015b-9dcb-407b-8bba-5b7a9884ba20{fill:#00ff24;}.\32 f9ff02d-bfc5-4c91-af2e-63158d91eb3a,.dd82015b-9dcb-407b-8bba-5b7a9884ba20{stroke:#000;stroke-width:5px;}.\31 5b0fdfa-8c06-40ac-b2d7-bbcd3ca74efd,.\32 f9ff02d-bfc5-4c91-af2e-63158d91eb3a,.\34 4ee01d1-a074-4112-b730-9a4449cf13b4,.\35 1f3f397-9346-44e1-918e-24b879fcf16e,.\36 b05dcb3-db7d-4af3-89a5-410520001b65,.bf990c6c-19a2-4bb0-b046-d7c60b18c30c,.dd82015b-9dcb-407b-8bba-5b7a9884ba20{stroke-miterlimit:10;}.\32 f9ff02d-bfc5-4c91-af2e-63158d91eb3a{fill:#fff;}.\31 5b0fdfa-8c06-40ac-b2d7-bbcd3ca74efd,.\34 4ee01d1-a074-4112-b730-9a4449cf13b4,.\35 1f3f397-9346-44e1-918e-24b879fcf16e,.\36 b05dcb3-db7d-4af3-89a5-410520001b65,.bf990c6c-19a2-4bb0-b046-d7c60b18c30c{fill:none;}.\31 5b0fdfa-8c06-40ac-b2d7-bbcd3ca74efd,.\36 b05dcb3-db7d-4af3-89a5-410520001b65{stroke:#c91c1c;}.\31 5b0fdfa-8c06-40ac-b2d7-bbcd3ca74efd,.bf990c6c-19a2-4bb0-b046-d7c60b18c30c{stroke-width:20px;}.\34 4ee01d1-a074-4112-b730-9a4449cf13b4,.bf990c6c-19a2-4bb0-b046-d7c60b18c30c{stroke:#0080ff;}.\35 1f3f397-9346-44e1-918e-24b879fcf16e{stroke:#fff;stroke-width:12px;}.\34 4ee01d1-a074-4112-b730-9a4449cf13b4,.\36 b05dcb3-db7d-4af3-89a5-410520001b65{stroke-width:2px;}</style><symbol id="e024afd3-d697-4ca3-8995-78c16c610dd3" data-name="fd103434-89f2-4089-acf9-54fed79ed404" viewBox="0 0 200 103.617"><rect class="dd82015b-9dcb-407b-8bba-5b7a9884ba20" x="2.5" y="54.074" width="195" height="47.043"/><rect class="2f9ff02d-bfc5-4c91-af2e-63158d91eb3a" x="2.5" y="2.5" width="48.75" height="48.75"/><rect class="2f9ff02d-bfc5-4c91-af2e-63158d91eb3a" x="51.25" y="2.5" width="48.75" height="48.75"/><rect class="2f9ff02d-bfc5-4c91-af2e-63158d91eb3a" x="100" y="2.5" width="48.75" height="48.75"/><rect class="2f9ff02d-bfc5-4c91-af2e-63158d91eb3a" x="148.75" y="2.5" width="48.75" height="48.75"/></symbol></defs><title>Grande_Premio_de_Elysian</title><g id="69123745-5db9-4747-a4da-12abc84f4bab" data-name="Layer 2"><g id="82ec1a0b-c6d8-40e3-901f-911d349d5fde" data-name="City - Murietta Heights"><g id="e7a5cec5-1b1d-4511-a66b-32686375c416" data-name="Grande_Premio_de_Elysian"><path id="ff0a22f2-2fa2-4f04-b8bf-c1e354b5d5ae" data-name="Pitlane Outer" class="15b0fdfa-8c06-40ac-b2d7-bbcd3ca74efd" d="M817.547,941.029c16.234-8.9,25.567-30.03,43.9-40.03s80.5-44.667,90-50.333,16.167,5.833,6.834,11.833-52.334,35.833-65.834,44.833-50.833,34.625-66.147,45.032"/><path id="74d82b45-c4be-4e79-ae70-2d18c357548a" data-name="Track Outer" class="bf990c6c-19a2-4bb0-b046-d7c60b18c30c" d="M541.947,1390.166c3,21.666,17.834,52.5,23.834,67.5s10.5,23.5,14.666,35.166,11.5,20,30,12.834,44.667-17.667,63.334-27.334,52-31.333,68.5-43.833,29.333-12.833,38.833-1.5,28.5,32,36.333,46.5,14.334,29.5,20.5,54,14.667,71.5,14.667,87.667-.833,43.75-8.333,70.25-27.5,54.916-44.334,67.916-58.212,34.874-88,45.334c-21.833,7.666-41.833,3.666-48.833-12.334s-28.167-49.166-44.667-68.333-46.166-56.667-54.333-77-38.333-102.833-45.333-123.583-8.75-52.75-13-83.75-5.5-86.75-5.25-116.5-3.75-55.5-4.25-94.5-1.375-66.75-4.875-87.5-26.075-50.561-41.375-63c-10.25-8.334-16.25-11.334-23.917-15.167s-11.9-11.357,3.833-14.167a136.062,136.062,0,0,0,50-20c17.334-11.5,32.834-34.5,40.167-48.166S535.781,941.5,533.447,913.5s-9.5-51.333-15.166-71.167-12.607-41.227-16.667-54c-8-25.166-47.678-5.091-56.833-31.833-6.334-18.5-11.5-28.833-19.167-43.667s-7.583-29.666-26.583-56.166-37.544-29.541-61.25-50c-18.25-15.75-17-30.5-40.5-45s-60.5-22-95-28.5-80-26-101-38.75-54.834-44.25-69-70.417-21.75-54.333-22.25-75.833,5.25-140,6.25-163.25-3.75-60-3.75-83.5,5.5-47.5,23.75-62.25,35-17.5,50.25-24,29-9,47,5.5,109.25,70.25,126.75,80.75,23.63,9.432,42.5,21.75c18,11.75,62.75,39,74.25,47.75s21.25,14.75,32,22.75,25,6.5,30.75-3,21.5-33.25,27.5-43,15.5-16.5,29.25-8.5,46,21.25,70.75,26.75,47.5,10.75,64.5,29.75,26.843,41.563,24.5,67c-1.75,19,8.25,23.25,21,29.5s32,18.25,39.75,41,5,43.5-1.5,58.25-13.25,38.25-14,56.75-2,36,8,54.5,28,43.5,16.75,70.25-16.5,33.5-28,47.5-68.5,79-81.5,86.25-48.5,5.524-85.5,5.25c-33.75-.25-75-.25-102.5-.584s-48.5-20.833-66.5-41.5S320.071,609.226,304.114,597c-12.833-9.833-25-19.667-37.833-17.333s-10.334,10-10.834,23.166-1.166,104.584-1.416,132.834,9.25,58.75,9,96.25,5.75,97.25,8,127.75,6.137,68,6.5,93.75c.25,17.75,9.5,21.5,21.75,22.5s28,4.75,38.25,23.5,8.25,34.75-.5,48.5c-10.925,17.167-29.241,22.689-43.25,23.25-12.5.5-41.75,1.75-58.75,2s-31.5-6-41.25-19.5-11.4-30.276-8.75-45.25c4.25-24,23.083-33.584,33.083-39.75s52.1-43.3,75.917-44.25c25-1,132.875-4.875,160.875-5.375s27.878,12.614,61.875,12c20.75-.375,59.75-1.875,82.5-3.125s45.5-3.75,73.5-15.5,66.166-29.084,83-38.417,46.5-24.667,63.666-34,22.5,2.5,7.167,12.167-44.715,27.668-70.833,40.166c-25.25,12.084-57.75,27.584-85.5,36.334s-59.75,21-92.5,11.25-69.75-36.5-79.25-63-8.242-27.878-10-36c-1.75-8.084-9.882-7.217-16,4-9,16.5-27.717,35.526-48.75,46.5-11.5,6-6.5,12.75,9.75,15.75s32.458,5.2,53.25,20c18.5,13.166,32,29.5,40,47.5s11.5,37.833,12.333,59.166,2.417,72.334,2.667,97.334-3.482,69.751-3.25,89.5C538.781,1342,538.933,1368.394,541.947,1390.166Z"/><path id="bab2055c-65e8-4b57-bb01-81ddf67061e8" data-name="Pitlane Middle" class="51f3f397-9346-44e1-918e-24b879fcf16e" d="M817.547,941.029c16.234-8.9,25.567-30.03,43.9-40.03s80.5-44.667,90-50.333,16.167,5.833,6.834,11.833-52.334,35.833-65.834,44.833-50.833,34.625-66.147,45.032"/><path id="4c1a0cae-d810-4d31-8b81-acc220e4b997" data-name="Track Middle" class="51f3f397-9346-44e1-918e-24b879fcf16e" d="M541.947,1390.166c3,21.666,17.834,52.5,23.834,67.5s10.5,23.5,14.666,35.166,11.5,20,30,12.834,44.667-17.667,63.334-27.334,52-31.333,68.5-43.833,29.333-12.833,38.833-1.5,28.5,32,36.333,46.5,14.334,29.5,20.5,54,14.667,71.5,14.667,87.667-.833,43.75-8.333,70.25-27.5,54.916-44.334,67.916-58.212,34.874-88,45.334c-21.833,7.666-41.833,3.666-48.833-12.334s-28.167-49.166-44.667-68.333-46.166-56.667-54.333-77-38.333-102.833-45.333-123.583-8.75-52.75-13-83.75-5.5-86.75-5.25-116.5-3.75-55.5-4.25-94.5-1.375-66.75-4.875-87.5-26.075-50.561-41.375-63c-10.25-8.334-16.25-11.334-23.917-15.167s-11.9-11.357,3.833-14.167a136.062,136.062,0,0,0,50-20c17.334-11.5,32.834-34.5,40.167-48.166S535.781,941.5,533.447,913.5s-9.5-51.333-15.166-71.167-12.607-41.227-16.667-54c-8-25.166-47.678-5.091-56.833-31.833-6.334-18.5-11.5-28.833-19.167-43.667s-7.583-29.666-26.583-56.166-37.544-29.541-61.25-50c-18.25-15.75-17-30.5-40.5-45s-60.5-22-95-28.5-80-26-101-38.75-54.834-44.25-69-70.417-21.75-54.333-22.25-75.833,5.25-140,6.25-163.25-3.75-60-3.75-83.5,5.5-47.5,23.75-62.25,35-17.5,50.25-24,29-9,47,5.5,109.25,70.25,126.75,80.75,23.63,9.432,42.5,21.75c18,11.75,62.75,39,74.25,47.75s21.25,14.75,32,22.75,25,6.5,30.75-3,21.5-33.25,27.5-43,15.5-16.5,29.25-8.5,46,21.25,70.75,26.75,47.5,10.75,64.5,29.75,26.843,41.563,24.5,67c-1.75,19,8.25,23.25,21,29.5s32,18.25,39.75,41,5,43.5-1.5,58.25-13.25,38.25-14,56.75-2,36,8,54.5,28,43.5,16.75,70.25-16.5,33.5-28,47.5-68.5,79-81.5,86.25-48.5,5.524-85.5,5.25c-33.75-.25-75-.25-102.5-.584s-48.5-20.833-66.5-41.5S320.071,609.226,304.114,597c-12.833-9.833-25-19.667-37.833-17.333s-10.334,10-10.834,23.166-1.166,104.584-1.416,132.834,9.25,58.75,9,96.25,5.75,97.25,8,127.75,6.137,68,6.5,93.75c.25,17.75,9.5,21.5,21.75,22.5s28,4.75,38.25,23.5,8.25,34.75-.5,48.5c-10.925,17.167-29.241,22.689-43.25,23.25-12.5.5-41.75,1.75-58.75,2s-31.5-6-41.25-19.5-11.4-30.276-8.75-45.25c4.25-24,23.083-33.584,33.083-39.75s52.1-43.3,75.917-44.25c25-1,132.875-4.875,160.875-5.375s27.878,12.614,61.875,12c20.75-.375,59.75-1.875,82.5-3.125s45.5-3.75,73.5-15.5,66.166-29.084,83-38.417,46.5-24.667,63.666-34,22.5,2.5,7.167,12.167-44.715,27.668-70.833,40.166c-25.25,12.084-57.75,27.584-85.5,36.334s-59.75,21-92.5,11.25-69.75-36.5-79.25-63-8.242-27.878-10-36c-1.75-8.084-9.882-7.217-16,4-9,16.5-27.717,35.526-48.75,46.5-11.5,6-6.5,12.75,9.75,15.75s32.458,5.2,53.25,20c18.5,13.166,32,29.5,40,47.5s11.5,37.833,12.333,59.166,2.417,72.334,2.667,97.334-3.482,69.751-3.25,89.5C538.781,1342,538.933,1368.394,541.947,1390.166Z"/><path id="093fa6fa-a7dc-47e4-a50c-590d38bea32c" data-name="Pitlane Inner" class="6b05dcb3-db7d-4af3-89a5-410520001b65" d="M817.547,941.029c16.234-8.9,25.567-30.03,43.9-40.03s80.5-44.667,90-50.333,16.167,5.833,6.834,11.833-52.334,35.833-65.834,44.833-50.833,34.625-66.147,45.032"/><path id="bac1f933-6c3e-4d9a-840d-7676f51f4f4c" data-name="Track Inner" class="44ee01d1-a074-4112-b730-9a4449cf13b4" d="M541.947,1390.166c3,21.666,17.834,52.5,23.834,67.5s10.5,23.5,14.666,35.166,11.5,20,30,12.834,44.667-17.667,63.334-27.334,52-31.333,68.5-43.833,29.333-12.833,38.833-1.5,28.5,32,36.333,46.5,14.334,29.5,20.5,54,14.667,71.5,14.667,87.667-.833,43.75-8.333,70.25-27.5,54.916-44.334,67.916-58.212,34.874-88,45.334c-21.833,7.666-41.833,3.666-48.833-12.334s-28.167-49.166-44.667-68.333-46.166-56.667-54.333-77-38.333-102.833-45.333-123.583-8.75-52.75-13-83.75-5.5-86.75-5.25-116.5-3.75-55.5-4.25-94.5-1.375-66.75-4.875-87.5-26.075-50.561-41.375-63c-10.25-8.334-16.25-11.334-23.917-15.167s-11.9-11.357,3.833-14.167a136.062,136.062,0,0,0,50-20c17.334-11.5,32.834-34.5,40.167-48.166S535.781,941.5,533.447,913.5s-9.5-51.333-15.166-71.167-12.607-41.227-16.667-54c-8-25.166-47.678-5.091-56.833-31.833-6.334-18.5-11.5-28.833-19.167-43.667s-7.583-29.666-26.583-56.166-37.544-29.541-61.25-50c-18.25-15.75-17-30.5-40.5-45s-60.5-22-95-28.5-80-26-101-38.75-54.834-44.25-69-70.417-21.75-54.333-22.25-75.833,5.25-140,6.25-163.25-3.75-60-3.75-83.5,5.5-47.5,23.75-62.25,35-17.5,50.25-24,29-9,47,5.5,109.25,70.25,126.75,80.75,23.63,9.432,42.5,21.75c18,11.75,62.75,39,74.25,47.75s21.25,14.75,32,22.75,25,6.5,30.75-3,21.5-33.25,27.5-43,15.5-16.5,29.25-8.5,46,21.25,70.75,26.75,47.5,10.75,64.5,29.75,26.843,41.563,24.5,67c-1.75,19,8.25,23.25,21,29.5s32,18.25,39.75,41,5,43.5-1.5,58.25-13.25,38.25-14,56.75-2,36,8,54.5,28,43.5,16.75,70.25-16.5,33.5-28,47.5-68.5,79-81.5,86.25-48.5,5.524-85.5,5.25c-33.75-.25-75-.25-102.5-.584s-48.5-20.833-66.5-41.5S320.071,609.226,304.114,597c-12.833-9.833-25-19.667-37.833-17.333s-10.334,10-10.834,23.166-1.166,104.584-1.416,132.834,9.25,58.75,9,96.25,5.75,97.25,8,127.75,6.137,68,6.5,93.75c.25,17.75,9.5,21.5,21.75,22.5s28,4.75,38.25,23.5,8.25,34.75-.5,48.5c-10.925,17.167-29.241,22.689-43.25,23.25-12.5.5-41.75,1.75-58.75,2s-31.5-6-41.25-19.5-11.4-30.276-8.75-45.25c4.25-24,23.083-33.584,33.083-39.75s52.1-43.3,75.917-44.25c25-1,132.875-4.875,160.875-5.375s27.878,12.614,61.875,12c20.75-.375,59.75-1.875,82.5-3.125s45.5-3.75,73.5-15.5,66.166-29.084,83-38.417,46.5-24.667,63.666-34,22.5,2.5,7.167,12.167-44.715,27.668-70.833,40.166c-25.25,12.084-57.75,27.584-85.5,36.334s-59.75,21-92.5,11.25-69.75-36.5-79.25-63-8.242-27.878-10-36c-1.75-8.084-9.882-7.217-16,4-9,16.5-27.717,35.526-48.75,46.5-11.5,6-6.5,12.75,9.75,15.75s32.458,5.2,53.25,20c18.5,13.166,32,29.5,40,47.5s11.5,37.833,12.333,59.166,2.417,72.334,2.667,97.334-3.482,69.751-3.25,89.5C538.781,1342,538.933,1368.394,541.947,1390.166Z"/><g id="06b6efb9-a9c3-4f40-b362-022e33f11a6d" data-name="Crossover"><path id="872932e1-b34c-4b5d-af8f-f3f4a3ee039b" data-name="Track Outer" class="bf990c6c-19a2-4bb0-b046-d7c60b18c30c" d="M531.276,711.916c-33.75-.25-75-.25-102.5-.584s-48.5-20.833-66.5-41.5"/><path id="1e225d6c-cc9f-4233-ab03-5fba5cb94d1f" data-name="Track Middle" class="51f3f397-9346-44e1-918e-24b879fcf16e" d="M531.276,711.916c-33.75-.25-75-.25-102.5-.584s-48.5-20.833-66.5-41.5"/><path id="bb9d1880-116d-4fe5-91b4-6d389390e236" data-name="Track Inner" class="44ee01d1-a074-4112-b730-9a4449cf13b4" d="M531.276,711.916c-33.75-.25-75-.25-102.5-.584s-48.5-20.833-66.5-41.5"/></g><g id="2d4afa89-6c68-47d6-9c69-727bd8a7afbb" data-name="Crossover"><path id="c4b48c55-e7e1-428e-9fb8-7d43272896ce" data-name="Track Outer" class="bf990c6c-19a2-4bb0-b046-d7c60b18c30c" d="M429.942,1048.832a136.062,136.062,0,0,0,50-20c17.334-11.5,32.834-34.5,40.167-48.166S535.776,941.5,533.442,913.5"/><path id="221b8063-0940-40e1-b8f3-ded6b3205a73" data-name="Track Middle" class="51f3f397-9346-44e1-918e-24b879fcf16e" d="M429.942,1048.832a136.062,136.062,0,0,0,50-20c17.334-11.5,32.834-34.5,40.167-48.166S535.776,941.5,533.442,913.5"/><path id="4794b09a-46f3-4c54-aaf0-c72a12fee2a0" data-name="Track Inner" class="44ee01d1-a074-4112-b730-9a4449cf13b4" d="M429.942,1048.832a136.062,136.062,0,0,0,50-20c17.334-11.5,32.834-34.5,40.167-48.166S535.776,941.5,533.442,913.5"/></g><g id="5022e3ee-a9b2-4b01-a715-7e8f63db5ef8" data-name="Crossover"><path id="07bbc445-f826-40c0-8d7a-cfed9e21ae5b" data-name="Track Outer" class="bf990c6c-19a2-4bb0-b046-d7c60b18c30c" d="M218.109,1068.666c10-6.167,52.1-43.3,75.917-44.25,25-1,132.875-4.875,160.875-5.375s27.878,12.614,61.875,12c20.75-.375,59.75-1.875,82.5-3.125s45.5-3.75,73.5-15.5"/><path id="6b926aee-bd26-4c98-a073-df41e95b162d" data-name="Track Middle" class="51f3f397-9346-44e1-918e-24b879fcf16e" d="M218.109,1068.666c10-6.167,52.1-43.3,75.917-44.25,25-1,132.875-4.875,160.875-5.375s27.878,12.614,61.875,12c20.75-.375,59.75-1.875,82.5-3.125s45.5-3.75,73.5-15.5"/><path id="08b5e83c-eae3-4fc1-b898-6f6e54dcfbda" data-name="Track Inner" class="44ee01d1-a074-4112-b730-9a4449cf13b4" d="M218.109,1068.666c10-6.167,52.1-43.3,75.917-44.25,25-1,132.875-4.875,160.875-5.375s27.878,12.614,61.875,12c20.75-.375,59.75-1.875,82.5-3.125s45.5-3.75,73.5-15.5"/></g><path id="e65b0f99-8419-446c-a657-5ba00ca93f31" data-name="Fix" class="44ee01d1-a074-4112-b730-9a4449cf13b4" d="M666.624,1024.353c11.563-4,24.793-10.2,33.886-14.5"/><use id="6736efe9-ce5d-4da4-bba7-982e59288ecb" data-name="Start-Finish-Line" width="200" height="103.617" transform="translate(516.446 1381.17) rotate(-8.445) scale(0.243)" xlink:href="#e024afd3-d697-4ca3-8995-78c16c610dd3"/></g></g></g></svg>