<svg xmlns="http://www.w3.org/2000/svg" xmlns:xlink="http://www.w3.org/1999/xlink" width="683.869" height="746.432" viewBox="0 0 683.869 746.432"><defs><style>.c33d80ee-091d-464e-9486-cd6695f8d1a8{fill:#00ff24;}.\30 55c6932-edf9-4335-9094-fe1a83beeec6,.c33d80ee-091d-464e-9486-cd6695f8d1a8{stroke:#000;stroke-width:5px;}.\30 55c6932-edf9-4335-9094-fe1a83beeec6,.\33 0066419-47b7-4bfd-affe-d8e0b667458f,.\35 dab6d7c-ea50-4fd9-a37a-22472095310a,.a912ff9f-bcb0-4640-929f-ac5113b40d96,.c33d80ee-091d-464e-9486-cd6695f8d1a8{stroke-miterlimit:10;}.\30 55c6932-edf9-4335-9094-fe1a83beeec6{fill:#fff;}.\33 0066419-47b7-4bfd-affe-d8e0b667458f,.\35 dab6d7c-ea50-4fd9-a37a-22472095310a,.a912ff9f-bcb0-4640-929f-ac5113b40d96{fill:none;}.\35 dab6d7c-ea50-4fd9-a37a-22472095310a,.a912ff9f-bcb0-4640-929f-ac5113b40d96{stroke:#0080ff;}.a912ff9f-bcb0-4640-929f-ac5113b40d96{stroke-width:20px;}.\33 0066419-47b7-4bfd-affe-d8e0b667458f{stroke:#fff;stroke-width:12px;}.\35 dab6d7c-ea50-4fd9-a37a-22472095310a{stroke-width:2px;}</style><symbol id="7cd5aacc-fe01-4036-8cee-34619edff96a" data-name="fd103434-89f2-4089-acf9-54fed79ed404" viewBox="0 0 200 103.617"><rect class="c33d80ee-091d-464e-9486-cd6695f8d1a8" x="2.5" y="54.074" width="195" height="47.043"/><rect class="055c6932-edf9-4335-9094-fe1a83beeec6" x="2.5" y="2.5" width="48.75" height="48.75"/><rect class="055c6932-edf9-4335-9094-fe1a83beeec6" x="51.25" y="2.5" width="48.75" height="48.75"/><rect class="055c6932-edf9-4335-9094-fe1a83beeec6" x="100" y="2.5" width="48.75" height="48.75"/><rect class="055c6932-edf9-4335-9094-fe1a83beeec6" x="148.75" y="2.5" width="48.75" height="48.75"/></symbol></defs><title>I_Know_Now_Why_You_Cry</title><g id="f727fac0-600b-4da8-a563-9f92741ed870" data-name="Layer 2"><g id="b0423e97-8d20-45dd-9466-70063bf5c962" data-name="City - Murietta Heights"><g id="45373a1f-55a7-45d5-b5b8-7da301f8b8c6" data-name="I_Know_Now_Why_You_Cry"><path id="ddf7bd03-4760-4a5f-8212-6fc4afb4eaf3" data-name="Track Outer" class="a912ff9f-bcb0-4640-929f-ac5113b40d96" d="M49.244,407.417C57,383.8,77.16,330.25,96.41,305.75s40.715-43.566,67.75-58c29.5-15.75,79-29.25,114-34.5s61.25-9.75,87.75-21.25,37.75-22.75,52.75-44.5S477.41,56,488.91,36.75s47.008-34.489,74.5-22.5c33.25,14.5,45,32.786,43.25,73-1.25,28.75-7.878,82.667-14.5,113.5-8,37.25-22.25,87.5-26.75,114.75s-2.25,47.25,2,73.5,17.9,85.906,19.5,112.5c1.25,20.75-1.166,27.75-29.333,28.584s-58,.666-76.833.333-33.5-1.667-47.5-17.167S412.41,489.625,402.41,476.5s-15.5-36.75-24.166-48.083-27.69-30.728-36.834-38.167c-9.833-8-6.54-14.746,3.667-20,11.333-5.833,22.333-10.833,33.167-18.333s29.148-21.872,43-27.833a149.942,149.942,0,0,1,32.166-10.167c11-2.333,13.834-10.667,16-23.833s9.167-48.5,11.834-62.5,3.166-37.5.166-49.5-7.333-15.834-18.5-23.667-58.833-34.333-71-42-16.166-15.667-7-30.167,19.667-31,26.167-41.666,13.167-18.834,31.833-9,48.834,22.333,75.834,28.166,52.333,18.167,68.333,45.834,14.333,47.333,14.167,60.333,13.833,14.833,29.166,23.667,24.334,20.166,32.167,41.166,2.167,37.5-1.833,49.834-12.167,31.333-14.167,52.5-3,39,4,55.166,19.667,30.334,22.167,48,1,28.5-6.167,42.667-21.5,35.5-35.833,43.333-20.5,5.834-31.834,8.5-15,9.167-18,20.5-9,27.667-12.833,37.167-12.167,15.667-33,15.833-145.333.167-169.667,0-38-17-49.333-30.333-41.667-51.333-56-73-38.915-32.517-51.5-30c-9.167,1.833-7.833,21.5-7.833,49.667s-2.334,83.833-1.334,117.833,3.25,48.833,4,64.208S199.785,733,177.91,735s-106.364,1.678-131.833.417c-33.667-1.667-36.667-25-36-52s4.333-91.667,9.667-129.333S38.41,440.417,49.244,407.417Z"/><path id="d59dcdbb-e6c7-4b57-a90b-e620da00628f" data-name="Track Middle" class="30066419-47b7-4bfd-affe-d8e0b667458f" d="M49.244,407.417C57,383.8,77.16,330.25,96.41,305.75s40.715-43.566,67.75-58c29.5-15.75,79-29.25,114-34.5s61.25-9.75,87.75-21.25,37.75-22.75,52.75-44.5S477.41,56,488.91,36.75s47.008-34.489,74.5-22.5c33.25,14.5,45,32.786,43.25,73-1.25,28.75-7.878,82.667-14.5,113.5-8,37.25-22.25,87.5-26.75,114.75s-2.25,47.25,2,73.5,17.9,85.906,19.5,112.5c1.25,20.75-1.166,27.75-29.333,28.584s-58,.666-76.833.333-33.5-1.667-47.5-17.167S412.41,489.625,402.41,476.5s-15.5-36.75-24.166-48.083-27.69-30.728-36.834-38.167c-9.833-8-6.54-14.746,3.667-20,11.333-5.833,22.333-10.833,33.167-18.333s29.148-21.872,43-27.833a149.942,149.942,0,0,1,32.166-10.167c11-2.333,13.834-10.667,16-23.833s9.167-48.5,11.834-62.5,3.166-37.5.166-49.5-7.333-15.834-18.5-23.667-58.833-34.333-71-42-16.166-15.667-7-30.167,19.667-31,26.167-41.666,13.167-18.834,31.833-9,48.834,22.333,75.834,28.166,52.333,18.167,68.333,45.834,14.333,47.333,14.167,60.333,13.833,14.833,29.166,23.667,24.334,20.166,32.167,41.166,2.167,37.5-1.833,49.834-12.167,31.333-14.167,52.5-3,39,4,55.166,19.667,30.334,22.167,48,1,28.5-6.167,42.667-21.5,35.5-35.833,43.333-20.5,5.834-31.834,8.5-15,9.167-18,20.5-9,27.667-12.833,37.167-12.167,15.667-33,15.833-145.333.167-169.667,0-38-17-49.333-30.333-41.667-51.333-56-73-38.915-32.517-51.5-30c-9.167,1.833-7.833,21.5-7.833,49.667s-2.334,83.833-1.334,117.833,3.25,48.833,4,64.208S199.785,733,177.91,735s-106.364,1.678-131.833.417c-33.667-1.667-36.667-25-36-52s4.333-91.667,9.667-129.333S38.41,440.417,49.244,407.417Z"/><path id="9b8976ad-20a9-4be6-9385-730dc5406e29" data-name="Track Inner" class="5dab6d7c-ea50-4fd9-a37a-22472095310a" d="M49.244,407.417C57,383.8,77.16,330.25,96.41,305.75s40.715-43.566,67.75-58c29.5-15.75,79-29.25,114-34.5s61.25-9.75,87.75-21.25,37.75-22.75,52.75-44.5S477.41,56,488.91,36.75s47.008-34.489,74.5-22.5c33.25,14.5,45,32.786,43.25,73-1.25,28.75-7.878,82.667-14.5,113.5-8,37.25-22.25,87.5-26.75,114.75s-2.25,47.25,2,73.5,17.9,85.906,19.5,112.5c1.25,20.75-1.166,27.75-29.333,28.584s-58,.666-76.833.333-33.5-1.667-47.5-17.167S412.41,489.625,402.41,476.5s-15.5-36.75-24.166-48.083-27.69-30.728-36.834-38.167c-9.833-8-6.54-14.746,3.667-20,11.333-5.833,22.333-10.833,33.167-18.333s29.148-21.872,43-27.833a149.942,149.942,0,0,1,32.166-10.167c11-2.333,13.834-10.667,16-23.833s9.167-48.5,11.834-62.5,3.166-37.5.166-49.5-7.333-15.834-18.5-23.667-58.833-34.333-71-42-16.166-15.667-7-30.167,19.667-31,26.167-41.666,13.167-18.834,31.833-9,48.834,22.333,75.834,28.166,52.333,18.167,68.333,45.834,14.333,47.333,14.167,60.333,13.833,14.833,29.166,23.667,24.334,20.166,32.167,41.166,2.167,37.5-1.833,49.834-12.167,31.333-14.167,52.5-3,39,4,55.166,19.667,30.334,22.167,48,1,28.5-6.167,42.667-21.5,35.5-35.833,43.333-20.5,5.834-31.834,8.5-15,9.167-18,20.5-9,27.667-12.833,37.167-12.167,15.667-33,15.833-145.333.167-169.667,0-38-17-49.333-30.333-41.667-51.333-56-73-38.915-32.517-51.5-30c-9.167,1.833-7.833,21.5-7.833,49.667s-2.334,83.833-1.334,117.833,3.25,48.833,4,64.208S199.785,733,177.91,735s-106.364,1.678-131.833.417c-33.667-1.667-36.667-25-36-52s4.333-91.667,9.667-129.333S38.41,440.417,49.244,407.417Z"/><g id="53300a72-fd00-4800-b594-be9fcbdab547" data-name="Crossover"><path id="245e78c7-e83a-49b0-89f1-16fc0a391642" data-name="Crossover Outer" class="a912ff9f-bcb0-4640-929f-ac5113b40d96" d="M462.908,154.413c-11.167-7.833-58.834-34.333-71-42s-16.167-15.667-7-30.167,19.666-31,26.166-41.666,13.167-18.834,31.834-9,48.833,22.333,75.833,28.166"/><path id="ed9c7e42-385f-49c6-8adf-c8185f2d94d1" data-name="Crossover Middle" class="30066419-47b7-4bfd-affe-d8e0b667458f" d="M462.908,154.413c-11.167-7.833-58.834-34.333-71-42s-16.167-15.667-7-30.167,19.666-31,26.166-41.666,13.167-18.834,31.834-9,48.833,22.333,75.833,28.166"/><path id="60b39ced-b098-4f47-86ee-62ae4a551f0c" data-name="Crossover Inner" class="5dab6d7c-ea50-4fd9-a37a-22472095310a" d="M462.908,154.413c-11.167-7.833-58.834-34.333-71-42s-16.167-15.667-7-30.167,19.666-31,26.166-41.666,13.167-18.834,31.834-9,48.833,22.333,75.833,28.166"/></g><use id="b7a26ea0-b333-4aa1-a311-f53871f424cc" data-name="Start-Finish-Line" width="200" height="103.617" transform="matrix(-0.231, -0.076, 0.076, -0.231, 68.76, 426.412)" xlink:href="#7cd5aacc-fe01-4036-8cee-34619edff96a"/></g></g></g></svg>