<svg xmlns="http://www.w3.org/2000/svg" xmlns:xlink="http://www.w3.org/1999/xlink" width="960.198" height="1160.665" viewBox="0 0 960.198 1160.665"><defs><style>.d62170f0-c156-4db8-a632-09b34288e75a{fill:#00ff24;}.\32 7291cb0-20cc-47c6-86f1-b9ac5e5de5a7,.d62170f0-c156-4db8-a632-09b34288e75a{stroke:#000;stroke-width:5px;}.\31 4f7eade-fe55-41ce-ac09-5bc2de2772d8,.\31 b767854-2948-4752-934a-ec1f936c5b50,.\32 7291cb0-20cc-47c6-86f1-b9ac5e5de5a7,.c2f6ced1-d355-484e-a82b-20b7357b4224,.d62170f0-c156-4db8-a632-09b34288e75a,.f89d75cd-a7cb-44a3-9880-48a6731f6be6,.fd03df1c-58f5-4c36-98e7-b4549dc26008{stroke-miterlimit:10;}.\32 7291cb0-20cc-47c6-86f1-b9ac5e5de5a7{fill:#fff;}.\31 4f7eade-fe55-41ce-ac09-5bc2de2772d8,.\31 b767854-2948-4752-934a-ec1f936c5b50,.c2f6ced1-d355-484e-a82b-20b7357b4224,.f89d75cd-a7cb-44a3-9880-48a6731f6be6,.fd03df1c-58f5-4c36-98e7-b4549dc26008{fill:none;}.\31 b767854-2948-4752-934a-ec1f936c5b50,.f89d75cd-a7cb-44a3-9880-48a6731f6be6{stroke:#c91c1c;}.\31 4f7eade-fe55-41ce-ac09-5bc2de2772d8,.\31 b767854-2948-4752-934a-ec1f936c5b50{stroke-width:20px;}.\31 4f7eade-fe55-41ce-ac09-5bc2de2772d8,.c2f6ced1-d355-484e-a82b-20b7357b4224{stroke:#0080ff;}.fd03df1c-58f5-4c36-98e7-b4549dc26008{stroke:#fff;stroke-width:12px;}.c2f6ced1-d355-484e-a82b-20b7357b4224,.f89d75cd-a7cb-44a3-9880-48a6731f6be6{stroke-width:2px;}</style><symbol id="75162dac-c8d4-4faf-9455-085d0b01f796" data-name="fd103434-89f2-4089-acf9-54fed79ed404" viewBox="0 0 200 103.617"><rect class="d62170f0-c156-4db8-a632-09b34288e75a" x="2.5" y="54.074" width="195" height="47.043"/><rect class="27291cb0-20cc-47c6-86f1-b9ac5e5de5a7" x="2.5" y="2.5" width="48.75" height="48.75"/><rect class="27291cb0-20cc-47c6-86f1-b9ac5e5de5a7" x="51.25" y="2.5" width="48.75" height="48.75"/><rect class="27291cb0-20cc-47c6-86f1-b9ac5e5de5a7" x="100" y="2.5" width="48.75" height="48.75"/><rect class="27291cb0-20cc-47c6-86f1-b9ac5e5de5a7" x="148.75" y="2.5" width="48.75" height="48.75"/></symbol></defs><title>MCEC_Mirrors_Edge__2017_</title><g id="9b866509-69af-4997-bab2-3980d918fb3f" data-name="Layer 2"><g id="62d30777-5235-4dbf-a289-e70f3a6aacb7" data-name="City - Murietta Heights"><g id="01ed0faf-b11a-425c-9cb3-865b36265688" data-name="MCEC_Mirrors_Edge__2017_"><path id="b28640ef-93bb-4f73-ac7e-1018d1a35575" data-name="Pitlane Outer" class="1b767854-2948-4752-934a-ec1f936c5b50" d="M910.514,948.015c-.974-14.3-15.236-20.762-18.236-37.429s-12.94-41.393-21.44-55.893-29.166-45.834-36.333-65.167-16.167-59.5-16.5-82.5-.667-56.833,1.167-71.667,16.071-22.5,21.071-38.671"/><path id="ed42c007-1bb2-4ade-bdd7-2d7d05ef53b4" data-name="Track Outer" class="14f7eade-fe55-41ce-ac09-5bc2de2772d8" d="M438.005,1134.193c23.835.16,48.5.666,62.833.666s27.644-1.851,37.667-12c13.333-13.5,14.832-16.937,40-16.5,19.167.334,31.842.121,47.667.667,22.958.792,27.5,20.625,51.666,21,18.792.292,134.417-1.083,157.667-2.583s39.75-5.25,51-21.75,13.517-32.527,15.75-51c2.75-22.75,8.25-63.5,8.75-83.5s-2.5-54-8.5-74-21.75-49-29.5-61.5-21.75-30.5-31-60.25-11.25-49.5-11.75-71.75-.29-50.477,1.75-70c1.75-16.75,9-39.5,14.75-51.5s14.583-38.667,16.917-50.5,8.333-16.667,23.5-18.834,31.333-13,39.666-24.666,18.334-29.167,22-44.5-.333-30.5-9-47.167-15.833-23-18.333-40.667,1.333-55.666,7.833-71.166,17.834-40,10.5-66.167-27-45.333-45.5-50.833-18.333-16.834-17.666-32-2.667-28.667-10.334-43.834-25.083-32.907-48.333-40.833c-29.333-10-69-19.167-93-32.333-11.965-6.565-26.99-11.626-35.167,1.5-6.333,10.166-24.166,38.5-30.5,48.666s-5.833,18.667,2.667,23.834,55.667,33.5,70.833,42.166,20.334,18,23.5,25.167-3.166,19-12.666,27.5-60.834,48.833-71.167,56.5-50.5,34.667-75.667,42.5-34.166,16.5-35,33.333,11.667,25.5,19.5,29.334,11.373,7.11,17.167,11.166c8.333,5.834,15.467-1.893,25.5-7.5,11.333-6.333,33-18.5,43.667-26.333s20.166-14.333,26.666-17,14.5-2.333,14.334,13.833-3.5,31.167-7,43.334-2.975,38.345-9.334,45c-7.166,7.5-23.666,6-26,14.166s0,15.5,7,26.667,29,37.833,36,45.333,20,16.834,40,16.5,69.167-.666,84.334-.833,24,2.167,21.5,14.333-11.667,37.834-16,45.334-15.5,15.333-37.5,15.333-147.917-1.333-176.917-1.083-56.25,3.25-84,6.5-60,4-100,3.5-240.251.475-263.25.25c-25.5-.25-96.25,1.25-119.75,1.25s-25.75,9.75-31.5,24-11.25,30.25-15,43.25-.25,23,26.5,23,68.5,2.75,91.75,3,54.5-.25,74-.25,22.25,8.25,22.25,20.5.5,109.5.5,126.25.25,105,0,117.5-5.75,13.25-22.25,13.25-43.5-.25-59,.75-19,4.75-27.75,16.25-14.75,18.25-24.75,30.5-2.5,20.25,10.75,31.25,55.917,46.5,68.25,55.666,31.5,16.834,43.5,19.5,18.333,8.667,23.833,17.167,11.723,14.322,19.5,7.167c8.334-7.667,16.834-12.917,37.167-12.75S413.172,1134.026,438.005,1134.193Z"/><path id="0c57ee17-fea9-49fd-bbab-223307e0123b" data-name="Pitlane Middle" class="fd03df1c-58f5-4c36-98e7-b4549dc26008" d="M910.514,948.015c-.974-14.3-15.236-20.762-18.236-37.429s-12.94-41.393-21.44-55.893-29.166-45.834-36.333-65.167-16.167-59.5-16.5-82.5-.667-56.833,1.167-71.667,16.071-22.5,21.071-38.671"/><path id="e3876734-3065-47af-ad8e-03949b6bb0fa" data-name="Track Middle" class="fd03df1c-58f5-4c36-98e7-b4549dc26008" d="M438.005,1134.193c23.835.16,48.5.666,62.833.666s27.644-1.851,37.667-12c13.333-13.5,14.832-16.937,40-16.5,19.167.334,31.842.121,47.667.667,22.958.792,27.5,20.625,51.666,21,18.792.292,134.417-1.083,157.667-2.583s39.75-5.25,51-21.75,13.517-32.527,15.75-51c2.75-22.75,8.25-63.5,8.75-83.5s-2.5-54-8.5-74-21.75-49-29.5-61.5-21.75-30.5-31-60.25-11.25-49.5-11.75-71.75-.29-50.477,1.75-70c1.75-16.75,9-39.5,14.75-51.5s14.583-38.667,16.917-50.5,8.333-16.667,23.5-18.834,31.333-13,39.666-24.666,18.334-29.167,22-44.5-.333-30.5-9-47.167-15.833-23-18.333-40.667,1.333-55.666,7.833-71.166,17.834-40,10.5-66.167-27-45.333-45.5-50.833-18.333-16.834-17.666-32-2.667-28.667-10.334-43.834-25.083-32.907-48.333-40.833c-29.333-10-69-19.167-93-32.333-11.965-6.565-26.99-11.626-35.167,1.5-6.333,10.166-24.166,38.5-30.5,48.666s-5.833,18.667,2.667,23.834,55.667,33.5,70.833,42.166,20.334,18,23.5,25.167-3.166,19-12.666,27.5-60.834,48.833-71.167,56.5-50.5,34.667-75.667,42.5-34.166,16.5-35,33.333,11.667,25.5,19.5,29.334,11.373,7.11,17.167,11.166c8.333,5.834,15.467-1.893,25.5-7.5,11.333-6.333,33-18.5,43.667-26.333s20.166-14.333,26.666-17,14.5-2.333,14.334,13.833-3.5,31.167-7,43.334-2.975,38.345-9.334,45c-7.166,7.5-23.666,6-26,14.166s0,15.5,7,26.667,29,37.833,36,45.333,20,16.834,40,16.5,69.167-.666,84.334-.833,24,2.167,21.5,14.333-11.667,37.834-16,45.334-15.5,15.333-37.5,15.333-147.917-1.333-176.917-1.083-56.25,3.25-84,6.5-60,4-100,3.5-240.251.475-263.25.25c-25.5-.25-96.25,1.25-119.75,1.25s-25.75,9.75-31.5,24-11.25,30.25-15,43.25-.25,23,26.5,23,68.5,2.75,91.75,3,54.5-.25,74-.25,22.25,8.25,22.25,20.5.5,109.5.5,126.25.25,105,0,117.5-5.75,13.25-22.25,13.25-43.5-.25-59,.75-19,4.75-27.75,16.25-14.75,18.25-24.75,30.5-2.5,20.25,10.75,31.25,55.917,46.5,68.25,55.666,31.5,16.834,43.5,19.5,18.333,8.667,23.833,17.167,11.723,14.322,19.5,7.167c8.334-7.667,16.834-12.917,37.167-12.75S413.172,1134.026,438.005,1134.193Z"/><path id="c5860d91-cf19-4f2f-b630-799896fecc4a" data-name="Pitlane Inner" class="f89d75cd-a7cb-44a3-9880-48a6731f6be6" d="M910.514,948.015c-.974-14.3-15.236-20.762-18.236-37.429s-12.94-41.393-21.44-55.893-29.166-45.834-36.333-65.167-16.167-59.5-16.5-82.5-.667-56.833,1.167-71.667,16.071-22.5,21.071-38.671"/><path id="420f5720-702a-49f9-8250-85c217ac0125" data-name="Track Inner" class="c2f6ced1-d355-484e-a82b-20b7357b4224" d="M438.005,1134.193c23.835.16,48.5.666,62.833.666s27.644-1.851,37.667-12c13.333-13.5,14.832-16.937,40-16.5,19.167.334,31.842.121,47.667.667,22.958.792,27.5,20.625,51.666,21,18.792.292,134.417-1.083,157.667-2.583s39.75-5.25,51-21.75,13.517-32.527,15.75-51c2.75-22.75,8.25-63.5,8.75-83.5s-2.5-54-8.5-74-21.75-49-29.5-61.5-21.75-30.5-31-60.25-11.25-49.5-11.75-71.75-.29-50.477,1.75-70c1.75-16.75,9-39.5,14.75-51.5s14.583-38.667,16.917-50.5,8.333-16.667,23.5-18.834,31.333-13,39.666-24.666,18.334-29.167,22-44.5-.333-30.5-9-47.167-15.833-23-18.333-40.667,1.333-55.666,7.833-71.166,17.834-40,10.5-66.167-27-45.333-45.5-50.833-18.333-16.834-17.666-32-2.667-28.667-10.334-43.834-25.083-32.907-48.333-40.833c-29.333-10-69-19.167-93-32.333-11.965-6.565-26.99-11.626-35.167,1.5-6.333,10.166-24.166,38.5-30.5,48.666s-5.833,18.667,2.667,23.834,55.667,33.5,70.833,42.166,20.334,18,23.5,25.167-3.166,19-12.666,27.5-60.834,48.833-71.167,56.5-50.5,34.667-75.667,42.5-34.166,16.5-35,33.333,11.667,25.5,19.5,29.334,11.373,7.11,17.167,11.166c8.333,5.834,15.467-1.893,25.5-7.5,11.333-6.333,33-18.5,43.667-26.333s20.166-14.333,26.666-17,14.5-2.333,14.334,13.833-3.5,31.167-7,43.334-2.975,38.345-9.334,45c-7.166,7.5-23.666,6-26,14.166s0,15.5,7,26.667,29,37.833,36,45.333,20,16.834,40,16.5,69.167-.666,84.334-.833,24,2.167,21.5,14.333-11.667,37.834-16,45.334-15.5,15.333-37.5,15.333-147.917-1.333-176.917-1.083-56.25,3.25-84,6.5-60,4-100,3.5-240.251.475-263.25.25c-25.5-.25-96.25,1.25-119.75,1.25s-25.75,9.75-31.5,24-11.25,30.25-15,43.25-.25,23,26.5,23,68.5,2.75,91.75,3,54.5-.25,74-.25,22.25,8.25,22.25,20.5.5,109.5.5,126.25.25,105,0,117.5-5.75,13.25-22.25,13.25-43.5-.25-59,.75-19,4.75-27.75,16.25-14.75,18.25-24.75,30.5-2.5,20.25,10.75,31.25,55.917,46.5,68.25,55.666,31.5,16.834,43.5,19.5,18.333,8.667,23.833,17.167,11.723,14.322,19.5,7.167c8.334-7.667,16.834-12.917,37.167-12.75S413.172,1134.026,438.005,1134.193Z"/><use id="c7f7b145-a1b2-4244-8e10-316c31ac6ff8" data-name="Start-Finish-Line" width="200" height="103.617" transform="translate(424.195 1158.343) rotate(-89.09) scale(0.243)" xlink:href="#75162dac-c8d4-4faf-9455-085d0b01f796"/></g></g></g></svg>