<svg xmlns="http://www.w3.org/2000/svg" xmlns:xlink="http://www.w3.org/1999/xlink" width="623.61" height="787.885" viewBox="0 0 623.61 787.885"><defs><style>.\37 4b18eeb-0da9-4832-a4be-b26494984f78{fill:#00ff24;}.\32 720a649-7e43-453c-bc0a-91cbfb6a665e,.\37 4b18eeb-0da9-4832-a4be-b26494984f78{stroke:#000;stroke-width:5px;}.\32 720a649-7e43-453c-bc0a-91cbfb6a665e,.\33 1c8ed34-d331-4580-bc01-aada1f00cf96,.\35 513ec5a-7c3d-4060-98a2-9d32a69052a2,.\37 4b18eeb-0da9-4832-a4be-b26494984f78,.\37 8b623dd-499a-4202-a10c-9bdb5f4c93d3,.\37 90dea94-c163-4547-87cf-b9696eb6f75c,.c4b34b15-2909-47e2-96f0-8ad659561de6{stroke-miterlimit:10;}.\32 720a649-7e43-453c-bc0a-91cbfb6a665e{fill:#fff;}.\33 1c8ed34-d331-4580-bc01-aada1f00cf96,.\35 513ec5a-7c3d-4060-98a2-9d32a69052a2,.\37 8b623dd-499a-4202-a10c-9bdb5f4c93d3,.\37 90dea94-c163-4547-87cf-b9696eb6f75c,.c4b34b15-2909-47e2-96f0-8ad659561de6{fill:none;}.\37 90dea94-c163-4547-87cf-b9696eb6f75c,.c4b34b15-2909-47e2-96f0-8ad659561de6{stroke:#c91c1c;}.\33 1c8ed34-d331-4580-bc01-aada1f00cf96,.c4b34b15-2909-47e2-96f0-8ad659561de6{stroke-width:20px;}.\33 1c8ed34-d331-4580-bc01-aada1f00cf96,.\35 513ec5a-7c3d-4060-98a2-9d32a69052a2{stroke:#0080ff;}.\37 8b623dd-499a-4202-a10c-9bdb5f4c93d3{stroke:#fff;stroke-width:12px;}.\35 513ec5a-7c3d-4060-98a2-9d32a69052a2,.\37 90dea94-c163-4547-87cf-b9696eb6f75c{stroke-width:2px;}</style><symbol id="78cd400d-eefd-4f28-8ad7-ca327b3218a9" data-name="fd103434-89f2-4089-acf9-54fed79ed404" viewBox="0 0 200 103.617"><rect class="74b18eeb-0da9-4832-a4be-b26494984f78" x="2.5" y="54.074" width="195" height="47.043"/><rect class="2720a649-7e43-453c-bc0a-91cbfb6a665e" x="2.5" y="2.5" width="48.75" height="48.75"/><rect class="2720a649-7e43-453c-bc0a-91cbfb6a665e" x="51.25" y="2.5" width="48.75" height="48.75"/><rect class="2720a649-7e43-453c-bc0a-91cbfb6a665e" x="100" y="2.5" width="48.75" height="48.75"/><rect class="2720a649-7e43-453c-bc0a-91cbfb6a665e" x="148.75" y="2.5" width="48.75" height="48.75"/></symbol></defs><title>Mirror_Park_Racetrack</title><g id="e473caf0-3ea1-4551-8e76-fa57d0923aef" data-name="Layer 2"><g id="04e61dcf-e177-41de-a615-c6f1942f9d16" data-name="City - Murietta Heights"><g id="96221b28-fe79-4ebe-b8e7-4c999a565c68" data-name="Mirror_Park_Racetrack"><path id="2b859875-0949-4096-aa57-906f3db0d6f6" data-name="Pitlane Outer" class="c4b34b15-2909-47e2-96f0-8ad659561de6" d="M458.982,338.839c8.834-1.833,8.8-8.706,15.917-9.094,13-.708,21.417-8.625,35.917-10.208,7.675-.838,6.583-8.334-1.334-7.584s-8.166-7.333-1.416-7.916,9.685-4.6,7.083-10.667a63.046,63.046,0,0,0-9.667-15.333c-4.833-5.834-10.3-11.4-16.1-15.125-10.437-6.688-7.91-23.893-18.624-27.019"/><path id="4fc350e7-ce43-4a93-9715-1a41228ba9c6" data-name="Track Outer" class="31c8ed34-d331-4580-bc01-aada1f00cf96" d="M203.441,90.787c-16.632-10.809-52.875-36-71.709-47s-42-25.5-52.833-31.667-20.333,2-28.5,13.167S29.9,50.12,18.232,56.62s-10,20-.833,29.167,102.659,66.177,114.833,74.166c16,10.5,25.952,11.489,43.834,23.167,16.333,10.667,53.5,33.167,64,39.917S283.4,251.953,292.4,259.453s17.833,15.667,9.833,27.5-16.333,16.667-32.5,21.5-47.166,7.584-59.666,7.834a290.576,290.576,0,0,0-46.75,4.75,272.835,272.835,0,0,0-60.75,19c-17.5,8-22.5,8.75-32.625,11.25s-15.625,6.5-19,10.5-11.875,16.5-2.375,24.75,40.166,32.75,56.333,46.083,37.5,26.167,36.667,59.167-6.5,46.833-6.5,70.166.166,31.834,0,45.334,10.5,30.833,31.166,41,34.834,27.833,45.5,45.333,35.584,42.917,47.584,57.667,30.25,25.5,58.25,26,117.25.75,139,.5,41.25,0,51-19.75,10.75-23.75,13-37,13-17.75,30.25-19.75,33-14.25,40-24.5,21.5-34.25,22.5-48.25,0-25.5-11.75-45.25-17.5-36.5-16.5-51.5-4-22.75-18-26.75-28.75-22-39.5-23.5-32-6.5-51-4.75-40,3.25-52.5,4.75-18.25-4.5-15.5-21.25,12.666-61.667,12.666-74.167,2-23.5,9.167-29.667,23.333-23.833,50.167-17.5,28.833,7,35.833,8.5,21.333,2.5,23-12,2.167-25.416-5.333-46.666-26.75-36.25-39.5-44.25-51.834-14.417-65.5-19.584-32.262-11.789-49.834-22.5c-17.5-10.666-84.666-52.833-105.833-66.333S221.649,102.62,203.441,90.787Z"/><path id="d7309230-a837-4e50-ae10-6e4ab86bfa93" data-name="Pitlane Middle" class="78b623dd-499a-4202-a10c-9bdb5f4c93d3" d="M458.982,338.839c8.834-1.833,8.8-8.706,15.917-9.094,13-.708,21.417-8.625,35.917-10.208,7.675-.838,6.583-8.334-1.334-7.584s-8.166-7.333-1.416-7.916,9.685-4.6,7.083-10.667a63.046,63.046,0,0,0-9.667-15.333c-4.833-5.834-10.3-11.4-16.1-15.125-10.437-6.688-7.91-23.893-18.624-27.019"/><path id="cd24fc43-2038-4bdd-bdea-2fa6858210a1" data-name="Track Middle" class="78b623dd-499a-4202-a10c-9bdb5f4c93d3" d="M203.441,90.787c-16.632-10.809-52.875-36-71.709-47s-42-25.5-52.833-31.667-20.333,2-28.5,13.167S29.9,50.12,18.232,56.62s-10,20-.833,29.167,102.659,66.177,114.833,74.166c16,10.5,25.952,11.489,43.834,23.167,16.333,10.667,53.5,33.167,64,39.917S283.4,251.953,292.4,259.453s17.833,15.667,9.833,27.5-16.333,16.667-32.5,21.5-47.166,7.584-59.666,7.834a290.576,290.576,0,0,0-46.75,4.75,272.835,272.835,0,0,0-60.75,19c-17.5,8-22.5,8.75-32.625,11.25s-15.625,6.5-19,10.5-11.875,16.5-2.375,24.75,40.166,32.75,56.333,46.083,37.5,26.167,36.667,59.167-6.5,46.833-6.5,70.166.166,31.834,0,45.334,10.5,30.833,31.166,41,34.834,27.833,45.5,45.333,35.584,42.917,47.584,57.667,30.25,25.5,58.25,26,117.25.75,139,.5,41.25,0,51-19.75,10.75-23.75,13-37,13-17.75,30.25-19.75,33-14.25,40-24.5,21.5-34.25,22.5-48.25,0-25.5-11.75-45.25-17.5-36.5-16.5-51.5-4-22.75-18-26.75-28.75-22-39.5-23.5-32-6.5-51-4.75-40,3.25-52.5,4.75-18.25-4.5-15.5-21.25,12.666-61.667,12.666-74.167,2-23.5,9.167-29.667,23.333-23.833,50.167-17.5,28.833,7,35.833,8.5,21.333,2.5,23-12,2.167-25.416-5.333-46.666-26.75-36.25-39.5-44.25-51.834-14.417-65.5-19.584-32.262-11.789-49.834-22.5c-17.5-10.666-84.666-52.833-105.833-66.333S221.649,102.62,203.441,90.787Z"/><path id="5b16276d-a43e-4a6a-9d11-2573eda6426d" data-name="Pitlane Inner" class="790dea94-c163-4547-87cf-b9696eb6f75c" d="M458.982,338.839c8.834-1.833,8.8-8.706,15.917-9.094,13-.708,21.417-8.625,35.917-10.208,7.675-.838,6.583-8.334-1.334-7.584s-8.166-7.333-1.416-7.916,9.685-4.6,7.083-10.667a63.046,63.046,0,0,0-9.667-15.333c-4.833-5.834-10.3-11.4-16.1-15.125-10.437-6.688-7.91-23.893-18.624-27.019"/><path id="69f2d4f4-c82b-4dc6-8c52-3b9251cfb21d" data-name="Track Inner" class="5513ec5a-7c3d-4060-98a2-9d32a69052a2" d="M203.441,90.787c-16.632-10.809-52.875-36-71.709-47s-42-25.5-52.833-31.667-20.333,2-28.5,13.167S29.9,50.12,18.232,56.62s-10,20-.833,29.167,102.659,66.177,114.833,74.166c16,10.5,25.952,11.489,43.834,23.167,16.333,10.667,53.5,33.167,64,39.917S283.4,251.953,292.4,259.453s17.833,15.667,9.833,27.5-16.333,16.667-32.5,21.5-47.166,7.584-59.666,7.834a290.576,290.576,0,0,0-46.75,4.75,272.835,272.835,0,0,0-60.75,19c-17.5,8-22.5,8.75-32.625,11.25s-15.625,6.5-19,10.5-11.875,16.5-2.375,24.75,40.166,32.75,56.333,46.083,37.5,26.167,36.667,59.167-6.5,46.833-6.5,70.166.166,31.834,0,45.334,10.5,30.833,31.166,41,34.834,27.833,45.5,45.333,35.584,42.917,47.584,57.667,30.25,25.5,58.25,26,117.25.75,139,.5,41.25,0,51-19.75,10.75-23.75,13-37,13-17.75,30.25-19.75,33-14.25,40-24.5,21.5-34.25,22.5-48.25,0-25.5-11.75-45.25-17.5-36.5-16.5-51.5-4-22.75-18-26.75-28.75-22-39.5-23.5-32-6.5-51-4.75-40,3.25-52.5,4.75-18.25-4.5-15.5-21.25,12.666-61.667,12.666-74.167,2-23.5,9.167-29.667,23.333-23.833,50.167-17.5,28.833,7,35.833,8.5,21.333,2.5,23-12,2.167-25.416-5.333-46.666-26.75-36.25-39.5-44.25-51.834-14.417-65.5-19.584-32.262-11.789-49.834-22.5c-17.5-10.666-84.666-52.833-105.833-66.333S221.649,102.62,203.441,90.787Z"/><use id="08b063de-f5d3-45c3-91ae-5deac267a6d2" data-name="Start-Finish-Line" width="200" height="103.617" transform="matrix(-0.132, 0.204, -0.204, -0.132, 237.451, 83.884)" xlink:href="#78cd400d-eefd-4f28-8ad7-ca327b3218a9"/></g></g></g></svg>