<svg xmlns="http://www.w3.org/2000/svg" xmlns:xlink="http://www.w3.org/1999/xlink" width="1056.131" height="743.723" viewBox="0 0 1056.131 743.723"><defs><style>.\37 886249a-d30b-4e3e-a352-b27a3cee27a5{fill:#00ff24;}.\37 886249a-d30b-4e3e-a352-b27a3cee27a5,.c0f755c3-2d1e-49a6-bfb9-cecc5cdc4a4b{stroke:#000;stroke-width:5px;}.\37 886249a-d30b-4e3e-a352-b27a3cee27a5,.\38 28554a9-81cd-4519-93ab-252b72767c18,.\39 13e1799-d256-4bc6-9aea-a2da0ce7f306,.a24f45b3-4258-47d0-8fe9-11e21f056a9a,.a34b8a51-d301-43b7-b4ca-2b447f809abf,.c0f755c3-2d1e-49a6-bfb9-cecc5cdc4a4b,.dd6feaf9-f767-4335-87dc-22447204d8a7{stroke-miterlimit:10;}.c0f755c3-2d1e-49a6-bfb9-cecc5cdc4a4b{fill:#fff;}.\38 28554a9-81cd-4519-93ab-252b72767c18,.\39 13e1799-d256-4bc6-9aea-a2da0ce7f306,.a24f45b3-4258-47d0-8fe9-11e21f056a9a,.a34b8a51-d301-43b7-b4ca-2b447f809abf,.dd6feaf9-f767-4335-87dc-22447204d8a7{fill:none;}.a24f45b3-4258-47d0-8fe9-11e21f056a9a,.dd6feaf9-f767-4335-87dc-22447204d8a7{stroke:#c91c1c;}.\39 13e1799-d256-4bc6-9aea-a2da0ce7f306,.a24f45b3-4258-47d0-8fe9-11e21f056a9a{stroke-width:20px;}.\38 28554a9-81cd-4519-93ab-252b72767c18,.\39 13e1799-d256-4bc6-9aea-a2da0ce7f306{stroke:#0080ff;}.a34b8a51-d301-43b7-b4ca-2b447f809abf{stroke:#fff;stroke-width:12px;}.\38 28554a9-81cd-4519-93ab-252b72767c18,.dd6feaf9-f767-4335-87dc-22447204d8a7{stroke-width:2px;}</style><symbol id="87b8a205-719e-4d5e-b05d-bbc70eaacae2" data-name="fd103434-89f2-4089-acf9-54fed79ed404" viewBox="0 0 200 103.617"><rect class="7886249a-d30b-4e3e-a352-b27a3cee27a5" x="2.5" y="54.074" width="195" height="47.043"/><rect class="c0f755c3-2d1e-49a6-bfb9-cecc5cdc4a4b" x="2.5" y="2.5" width="48.75" height="48.75"/><rect class="c0f755c3-2d1e-49a6-bfb9-cecc5cdc4a4b" x="51.25" y="2.5" width="48.75" height="48.75"/><rect class="c0f755c3-2d1e-49a6-bfb9-cecc5cdc4a4b" x="100" y="2.5" width="48.75" height="48.75"/><rect class="c0f755c3-2d1e-49a6-bfb9-cecc5cdc4a4b" x="148.75" y="2.5" width="48.75" height="48.75"/></symbol></defs><title>Murrieta_Circuit</title><g id="91eab5a9-9ed0-447f-8bfb-f7f565e92318" data-name="Layer 2"><g id="8e02bfb8-2251-4eab-9ac4-5bef98273595" data-name="City - Murietta Heights"><g id="5b5bad00-86e9-4443-b541-30ba303c256c" data-name="Murrieta_Circuit"><g id="2b69164a-cae2-4c07-9892-d7bb264f82d4" data-name="Ebene 187"><path d="M559.783,16.908q.112,9.27,1.092,18.483c.2,1.9,3.2,1.921,3,0q-.981-9.219-1.092-18.483a1.5,1.5,0,0,0-3,0Z"/><path d="M562.763,34.148a50.293,50.293,0,0,0-11.168-.484c-1.915.136-1.93,3.137,0,3a46.8,46.8,0,0,1,10.371.377c1.888.287,2.7-2.6.8-2.893Z"/><path d="M560.606,14.984l-12.255-.34c-1.931-.053-1.929,2.947,0,3l12.255.34c1.931.054,1.929-2.946,0-3Z"/></g><path id="af1961a1-0d99-4d61-83c9-f06bd3194f26" data-name="Pitlane Outer" class="a24f45b3-4258-47d0-8fe9-11e21f056a9a" d="M71.157,61.184c11.875-6.875,23.864-4.633,35.364-8.527,10.583-3.583,24.692-9.246,19.167-16.75-5.584-7.583-2.446-13.93,5-10.417,7.416,3.5,19.541,8.042,30.916,8.417s19-5.326,37.5-5.451"/><path id="be1dfdb3-eef2-4e66-b73e-730ba48b82d5" data-name="Track Outer" class="913e1799-d256-4bc6-9aea-a2da0ce7f306" d="M562.354,28.407c17.5,0,181.5-.25,215-.5s79.712-2.245,90.25,31.25c7,22.25,13.5,59.25,22.25,79.5s16.557,31.823,22,39.5c9.75,13.75,23.571,7.522,41-6,18.584-14.417,62.25-46.5,76.25-56.75s26.167,3.333,7.5,18-48,42.167-53.666,54.667-7,29.166-3.167,46.5,10,38.333,14.167,51,13.833,44.833,16.333,56.833,8.833,39,10,62.833,0,44-6.167,64.834-15.333,37.833-29.166,56-42.5,35-55.667,41.833-47.167,20.167-57.5,23.667-15,9.333-10.333,22.833,11.333,31.167,15.333,41.167S892.6,704.74,898.6,719.907s-5,19.828-12.5,3.833c-6.333-13.5-13.666-25.166-18.666-38.833s-18.667-51.5-24.334-68.5-.166-27,13.834-31.167S892.6,573.657,907.6,566.782s41.5-19.5,58.75-35.875,30.056-41.321,35.75-56.625c6-16.125,8-32.125,8.625-44.375s-.75-36-2.25-47.125-5.041-25.875-8.708-39.208-17.333-12-32.167-7.334-65.087,20.835-85.875,28.667S769.161,405.726,749.1,413.074c-16.833,6.166-26.833,3-32.333-12.167S698.1,348.74,693.938,336.074s-16.667-6.167-27.667-3.334-37.333,6-59.5,4.667-94.91-14.32-117.917-16.5c-23.75-2.25-26.687-15.29-24.5-37,3.25-32.25,5-46.5,7-65.75s16.25-10.75,17.25-34.5-5.521-33.591-14.5-55.75c-11.75-29-23-52.75-27.75-65.25s-8.25-22-29.5-22-153.75-.7-180.25-.917c-20.833-.166-27.833-.5-33.666,15S191.6,79.907,191.1,90.74s4.5,20.667,18.834,32.167,38.666,29.5,46.5,40.833,9.166,24.614,9.166,37.5c0,12.667-4.178,29.752-16.666,31.834-16,2.666-30.131,5.375-40.5,14.166-7.667,6.5-19.966,4.46-28.667-2.833-11.333-9.5-71.5-62.333-83.167-72.333s-32.166-8.167-50.666-23.334-23-19.166-31.167-27.166-6-22.834,7.667-31.5,63-37,74.166-44,14.625-15.667,13.125-23.292S114.6,6.407,122.1,11.532s28.667,16.875,47.667,16.875,89.333.25,118.833,0S536.854,28.407,562.354,28.407Z"/><path id="dcfaefbd-ce0c-461a-aa97-2e8453e69b10" data-name="Pitlane Middle" class="a34b8a51-d301-43b7-b4ca-2b447f809abf" d="M71.157,61.184c11.875-6.875,23.864-4.633,35.364-8.527,10.583-3.583,24.692-9.246,19.167-16.75-5.584-7.583-2.446-13.93,5-10.417,7.416,3.5,19.541,8.042,30.916,8.417s19-5.326,37.5-5.451"/><path id="6fb0c60d-cda8-4983-b1a0-e674fcf717ea" data-name="Track Middle" class="a34b8a51-d301-43b7-b4ca-2b447f809abf" d="M562.354,28.407c17.5,0,181.5-.25,215-.5s79.712-2.245,90.25,31.25c7,22.25,13.5,59.25,22.25,79.5s16.557,31.823,22,39.5c9.75,13.75,23.571,7.522,41-6,18.584-14.417,62.25-46.5,76.25-56.75s26.167,3.333,7.5,18-48,42.167-53.666,54.667-7,29.166-3.167,46.5,10,38.333,14.167,51,13.833,44.833,16.333,56.833,8.833,39,10,62.833,0,44-6.167,64.834-15.333,37.833-29.166,56-42.5,35-55.667,41.833-47.167,20.167-57.5,23.667-15,9.333-10.333,22.833,11.333,31.167,15.333,41.167S892.6,704.74,898.6,719.907s-5,19.828-12.5,3.833c-6.333-13.5-13.666-25.166-18.666-38.833s-18.667-51.5-24.334-68.5-.166-27,13.834-31.167S892.6,573.657,907.6,566.782s41.5-19.5,58.75-35.875,30.056-41.321,35.75-56.625c6-16.125,8-32.125,8.625-44.375s-.75-36-2.25-47.125-5.041-25.875-8.708-39.208-17.333-12-32.167-7.334-65.087,20.835-85.875,28.667S769.161,405.726,749.1,413.074c-16.833,6.166-26.833,3-32.333-12.167S698.1,348.74,693.938,336.074s-16.667-6.167-27.667-3.334-37.333,6-59.5,4.667-94.91-14.32-117.917-16.5c-23.75-2.25-26.687-15.29-24.5-37,3.25-32.25,5-46.5,7-65.75s16.25-10.75,17.25-34.5-5.521-33.591-14.5-55.75c-11.75-29-23-52.75-27.75-65.25s-8.25-22-29.5-22-153.75-.7-180.25-.917c-20.833-.166-27.833-.5-33.666,15S191.6,79.907,191.1,90.74s4.5,20.667,18.834,32.167,38.666,29.5,46.5,40.833,9.166,24.614,9.166,37.5c0,12.667-4.178,29.752-16.666,31.834-16,2.666-30.131,5.375-40.5,14.166-7.667,6.5-19.966,4.46-28.667-2.833-11.333-9.5-71.5-62.333-83.167-72.333s-32.166-8.167-50.666-23.334-23-19.166-31.167-27.166-6-22.834,7.667-31.5,63-37,74.166-44,14.625-15.667,13.125-23.292S114.6,6.407,122.1,11.532s28.667,16.875,47.667,16.875,89.333.25,118.833,0S536.854,28.407,562.354,28.407Z"/><path id="318d1aa7-ebd5-45f5-a9f6-c34c6527ded6" data-name="Pitlane Inner" class="dd6feaf9-f767-4335-87dc-22447204d8a7" d="M71.157,61.184c11.875-6.875,23.864-4.633,35.364-8.527,10.583-3.583,24.692-9.246,19.167-16.75-5.584-7.583-2.446-13.93,5-10.417,7.416,3.5,19.541,8.042,30.916,8.417s19-5.326,37.5-5.451"/><path id="dce2abc6-61a2-42ca-ad75-c184b7b0e1b8" data-name="Track Inner" class="828554a9-81cd-4519-93ab-252b72767c18" d="M562.354,28.407c17.5,0,181.5-.25,215-.5s79.712-2.245,90.25,31.25c7,22.25,13.5,59.25,22.25,79.5s16.557,31.823,22,39.5c9.75,13.75,23.571,7.522,41-6,18.584-14.417,62.25-46.5,76.25-56.75s26.167,3.333,7.5,18-48,42.167-53.666,54.667-7,29.166-3.167,46.5,10,38.333,14.167,51,13.833,44.833,16.333,56.833,8.833,39,10,62.833,0,44-6.167,64.834-15.333,37.833-29.166,56-42.5,35-55.667,41.833-47.167,20.167-57.5,23.667-15,9.333-10.333,22.833,11.333,31.167,15.333,41.167S892.6,704.74,898.6,719.907s-5,19.828-12.5,3.833c-6.333-13.5-13.666-25.166-18.666-38.833s-18.667-51.5-24.334-68.5-.166-27,13.834-31.167S892.6,573.657,907.6,566.782s41.5-19.5,58.75-35.875,30.056-41.321,35.75-56.625c6-16.125,8-32.125,8.625-44.375s-.75-36-2.25-47.125-5.041-25.875-8.708-39.208-17.333-12-32.167-7.334-65.087,20.835-85.875,28.667S769.161,405.726,749.1,413.074c-16.833,6.166-26.833,3-32.333-12.167S698.1,348.74,693.938,336.074s-16.667-6.167-27.667-3.334-37.333,6-59.5,4.667-94.91-14.32-117.917-16.5c-23.75-2.25-26.687-15.29-24.5-37,3.25-32.25,5-46.5,7-65.75s16.25-10.75,17.25-34.5-5.521-33.591-14.5-55.75c-11.75-29-23-52.75-27.75-65.25s-8.25-22-29.5-22-153.75-.7-180.25-.917c-20.833-.166-27.833-.5-33.666,15S191.6,79.907,191.1,90.74s4.5,20.667,18.834,32.167,38.666,29.5,46.5,40.833,9.166,24.614,9.166,37.5c0,12.667-4.178,29.752-16.666,31.834-16,2.666-30.131,5.375-40.5,14.166-7.667,6.5-19.966,4.46-28.667-2.833-11.333-9.5-71.5-62.333-83.167-72.333s-32.166-8.167-50.666-23.334-23-19.166-31.167-27.166-6-22.834,7.667-31.5,63-37,74.166-44,14.625-15.667,13.125-23.292S114.6,6.407,122.1,11.532s28.667,16.875,47.667,16.875,89.333.25,118.833,0S536.854,28.407,562.354,28.407Z"/><use id="fa6e4bc3-4555-45ee-8550-3ac50814beb4" data-name="Start-Finish-Line" width="200" height="103.617" transform="matrix(0.001, -0.243, 0.243, 0.001, 548.647, 52.502)" xlink:href="#87b8a205-719e-4d5e-b05d-bbc70eaacae2"/></g></g></g></svg>