<svg xmlns="http://www.w3.org/2000/svg" xmlns:xlink="http://www.w3.org/1999/xlink" width="379.978" height="640.09" viewBox="0 0 379.978 640.09"><defs><style>.\36 66fc1b6-0c47-43bb-887b-7d2e1e1bceb7{fill:#00ff24;}.\30 127f447-15df-4a0f-88b8-bbf17d5e6d11,.\36 66fc1b6-0c47-43bb-887b-7d2e1e1bceb7{stroke:#000;stroke-width:5px;}.\30 127f447-15df-4a0f-88b8-bbf17d5e6d11,.\36 66fc1b6-0c47-43bb-887b-7d2e1e1bceb7,.\37 0035fd1-77b1-4b74-bf7e-581e382f7c61,.\38 b13aa1b-3567-4f6a-8afa-e55f7776c2c2,.\39 d49dac0-1f5a-4a53-b9d1-991028daaa3a,.a31e1e25-f802-4d5e-8881-8d628d7fe253,.a741e231-f152-4835-8b17-ff80dbdc5bd3{stroke-miterlimit:10;}.\30 127f447-15df-4a0f-88b8-bbf17d5e6d11{fill:#fff;}.\37 0035fd1-77b1-4b74-bf7e-581e382f7c61,.\38 b13aa1b-3567-4f6a-8afa-e55f7776c2c2,.\39 d49dac0-1f5a-4a53-b9d1-991028daaa3a,.a31e1e25-f802-4d5e-8881-8d628d7fe253,.a741e231-f152-4835-8b17-ff80dbdc5bd3{fill:none;}.\39 d49dac0-1f5a-4a53-b9d1-991028daaa3a,.a741e231-f152-4835-8b17-ff80dbdc5bd3{stroke:#c91c1c;}.\37 0035fd1-77b1-4b74-bf7e-581e382f7c61,.a741e231-f152-4835-8b17-ff80dbdc5bd3{stroke-width:20px;}.\37 0035fd1-77b1-4b74-bf7e-581e382f7c61,.\38 b13aa1b-3567-4f6a-8afa-e55f7776c2c2{stroke:#0080ff;}.a31e1e25-f802-4d5e-8881-8d628d7fe253{stroke:#fff;stroke-width:12px;}.\38 b13aa1b-3567-4f6a-8afa-e55f7776c2c2,.\39 d49dac0-1f5a-4a53-b9d1-991028daaa3a{stroke-width:2px;}</style><symbol id="89b6245f-ce74-4caa-832a-49125889aa94" data-name="fd103434-89f2-4089-acf9-54fed79ed404" viewBox="0 0 200 103.617"><rect class="666fc1b6-0c47-43bb-887b-7d2e1e1bceb7" x="2.5" y="54.074" width="195" height="47.043"/><rect class="0127f447-15df-4a0f-88b8-bbf17d5e6d11" x="2.5" y="2.5" width="48.75" height="48.75"/><rect class="0127f447-15df-4a0f-88b8-bbf17d5e6d11" x="51.25" y="2.5" width="48.75" height="48.75"/><rect class="0127f447-15df-4a0f-88b8-bbf17d5e6d11" x="100" y="2.5" width="48.75" height="48.75"/><rect class="0127f447-15df-4a0f-88b8-bbf17d5e6d11" x="148.75" y="2.5" width="48.75" height="48.75"/></symbol></defs><title>West_Mirror_GP</title><g id="8eecf93d-5ccd-49b2-892e-530b312db161" data-name="Layer 2"><g id="95293868-c5e6-4b11-819d-1df70034fdf6" data-name="City - Murietta Heights"><g id="e0203e28-8b3e-4933-9045-1064b43ec442" data-name="West_Mirror_GP"><path id="5cc8fc1c-92ed-41db-90d6-0ba25957802c" data-name="Pitlane Outer" class="a741e231-f152-4835-8b17-ff80dbdc5bd3" d="M95.4,482.442c9.125,8.5,4.46,20.818,15.518,32.408,13,13.625,61.791,66.27,68.166,73.25s17.749,3.558,25.377,12.038"/><path id="c112c883-4dd7-4f27-a9ae-92a398eb00ad" data-name="Track Outer" class="70035fd1-77b1-4b74-bf7e-581e382f7c61" d="M210,606.35c10.851,12.034,21.833,22.333,44.5,23s49.5,1,67.833.5,28.5-6.167,33.667-17.5a202.434,202.434,0,0,0,12.667-36.667c3-12.667,2.5-20.333-19.667-20.5s-70.667.167-86.167,0-31.666-4-42.333-16.333-24.5-26.834-31-37.5c-6.057-9.94-8.667-19.334-14.667-31.667-8.222-16.9-25.166-38.667-42.333-51.667-10.19-7.717-14.742-14.656-4.333-20.166,11.333-6,32.359-17.05,44-25.167,12.666-8.833,36-25.167,51.333-29.667s28.353-4.526,31.833-23.666c2.667-14.667,12.417-59.75,13.917-76.5s0-38.75-8-52-35.75-26.75-50-35.25-27.25-15.5-40.75-23-42.25-28.75-57-39-16-16.75-8.25-29.25,22.5-35.25,28.5-45S147,5.85,163.5,16.1s44.667,26.75,58.667,36.416,16.333,18,21,28.334,7.971,18.875-1.667,35c-13,21.75-48.373,76.583-61,95.75-14,21.25-31.75,26.5-55.25,30.75S93.5,252.1,75,262.1s-39.25,22.25-49.75,28.75S10,310.323,10,329.35c0,21,.5,58.25.75,75.25s9.006,26.871,21,36.5c17.75,14.25,26.25,14.75,49,29C102.258,483.571,196.25,591.1,210,606.35Z"/><path id="29141a3e-bee4-4b3d-b0a9-f82b96982573" data-name="Pitlane Middle" class="a31e1e25-f802-4d5e-8881-8d628d7fe253" d="M95.4,482.442c9.125,8.5,4.46,20.818,15.518,32.408,13,13.625,61.791,66.27,68.166,73.25s17.749,3.558,25.377,12.038"/><path id="544ba919-6225-4180-82de-f6d6fdd3889e" data-name="Track Middle" class="a31e1e25-f802-4d5e-8881-8d628d7fe253" d="M210,606.35c10.851,12.034,21.833,22.333,44.5,23s49.5,1,67.833.5,28.5-6.167,33.667-17.5a202.434,202.434,0,0,0,12.667-36.667c3-12.667,2.5-20.333-19.667-20.5s-70.667.167-86.167,0-31.666-4-42.333-16.333-24.5-26.834-31-37.5c-6.057-9.94-8.667-19.334-14.667-31.667-8.222-16.9-25.166-38.667-42.333-51.667-10.19-7.717-14.742-14.656-4.333-20.166,11.333-6,32.359-17.05,44-25.167,12.666-8.833,36-25.167,51.333-29.667s28.353-4.526,31.833-23.666c2.667-14.667,12.417-59.75,13.917-76.5s0-38.75-8-52-35.75-26.75-50-35.25-27.25-15.5-40.75-23-42.25-28.75-57-39-16-16.75-8.25-29.25,22.5-35.25,28.5-45S147,5.85,163.5,16.1s44.667,26.75,58.667,36.416,16.333,18,21,28.334,7.971,18.875-1.667,35c-13,21.75-48.373,76.583-61,95.75-14,21.25-31.75,26.5-55.25,30.75S93.5,252.1,75,262.1s-39.25,22.25-49.75,28.75S10,310.323,10,329.35c0,21,.5,58.25.75,75.25s9.006,26.871,21,36.5c17.75,14.25,26.25,14.75,49,29C102.258,483.571,196.25,591.1,210,606.35Z"/><path id="80ec3b5c-ad3b-428c-8c44-903c58f499db" data-name="Pitlane Inner" class="9d49dac0-1f5a-4a53-b9d1-991028daaa3a" d="M95.4,482.442c9.125,8.5,4.46,20.818,15.518,32.408,13,13.625,61.791,66.27,68.166,73.25s17.749,3.558,25.377,12.038"/><path id="e5687024-6ee5-4649-8986-0e2f899d66ac" data-name="Track Inner" class="8b13aa1b-3567-4f6a-8afa-e55f7776c2c2" d="M210,606.35c10.851,12.034,21.833,22.333,44.5,23s49.5,1,67.833.5,28.5-6.167,33.667-17.5a202.434,202.434,0,0,0,12.667-36.667c3-12.667,2.5-20.333-19.667-20.5s-70.667.167-86.167,0-31.666-4-42.333-16.333-24.5-26.834-31-37.5c-6.057-9.94-8.667-19.334-14.667-31.667-8.222-16.9-25.166-38.667-42.333-51.667-10.19-7.717-14.742-14.656-4.333-20.166,11.333-6,32.359-17.05,44-25.167,12.666-8.833,36-25.167,51.333-29.667s28.353-4.526,31.833-23.666c2.667-14.667,12.417-59.75,13.917-76.5s0-38.75-8-52-35.75-26.75-50-35.25-27.25-15.5-40.75-23-42.25-28.75-57-39-16-16.75-8.25-29.25,22.5-35.25,28.5-45S147,5.85,163.5,16.1s44.667,26.75,58.667,36.416,16.333,18,21,28.334,7.971,18.875-1.667,35c-13,21.75-48.373,76.583-61,95.75-14,21.25-31.75,26.5-55.25,30.75S93.5,252.1,75,262.1s-39.25,22.25-49.75,28.75S10,310.323,10,329.35c0,21,.5,58.25.75,75.25s9.006,26.871,21,36.5c17.75,14.25,26.25,14.75,49,29C102.258,483.571,196.25,591.1,210,606.35Z"/><g id="b28938f9-3284-4c27-8f3b-b1d81a82a08b" data-name="Crossover"><path id="a34bbb40-7f9b-485f-bab6-a46fbccde05e" data-name="Crossover Outer" class="70035fd1-77b1-4b74-bf7e-581e382f7c61" d="M241.313,116.094c-13,21.75-48.373,76.584-61,95.75"/><path id="5bc711f8-8b14-48c0-bfcd-ce21f7ce490b" data-name="Crossover Middle" class="a31e1e25-f802-4d5e-8881-8d628d7fe253" d="M241.313,116.094c-13,21.75-48.373,76.584-61,95.75"/><path id="9c1d4d81-a1e3-4dc8-8b54-d9e6ac324132" data-name="Crossover Inner" class="8b13aa1b-3567-4f6a-8afa-e55f7776c2c2" d="M241.313,116.094c-13,21.75-48.373,76.584-61,95.75"/></g><use id="0672a152-1a74-45bc-835b-a39fe4bd03f1" data-name="Start-Finish-Line" width="200" height="103.617" transform="matrix(0.181, -0.162, 0.162, 0.181, 182.785, 612.119)" xlink:href="#89b6245f-ce74-4caa-832a-49125889aa94"/></g></g></g></svg>