<svg xmlns="http://www.w3.org/2000/svg" xmlns:xlink="http://www.w3.org/1999/xlink" width="459.778" height="567.059" viewBox="0 0 459.778 567.059"><defs><style>.\37 295523f-03b6-4320-a3fa-afc80734ceb2{fill:#00ff24;}.\37 295523f-03b6-4320-a3fa-afc80734ceb2,.b7143707-df8b-420b-9a7b-5de0c49b73f7{stroke:#000;stroke-width:5px;}.\31 bd43f93-4548-40ba-ae40-383fe8011bdd,.\33 e5db37f-5ae4-4557-bca9-614eb4a6395a,.\35 0ffae84-87c2-4424-b204-d7a02a3be698,.\37 295523f-03b6-4320-a3fa-afc80734ceb2,.\38 7f3266b-00da-4bb5-8894-4eecb95fdfc0,.b7143707-df8b-420b-9a7b-5de0c49b73f7,.d4193d5b-32fb-4a7b-ba8d-8e14c5cf51be,.dff622fb-3c80-4284-b176-0d890e85efb2{stroke-miterlimit:10;}.b7143707-df8b-420b-9a7b-5de0c49b73f7{fill:#fff;}.\31 bd43f93-4548-40ba-ae40-383fe8011bdd,.\33 e5db37f-5ae4-4557-bca9-614eb4a6395a,.\35 0ffae84-87c2-4424-b204-d7a02a3be698,.\38 7f3266b-00da-4bb5-8894-4eecb95fdfc0,.d4193d5b-32fb-4a7b-ba8d-8e14c5cf51be,.dff622fb-3c80-4284-b176-0d890e85efb2{fill:none;}.\33 e5db37f-5ae4-4557-bca9-614eb4a6395a,.d4193d5b-32fb-4a7b-ba8d-8e14c5cf51be{stroke:#c91c1c;}.\33 e5db37f-5ae4-4557-bca9-614eb4a6395a,.dff622fb-3c80-4284-b176-0d890e85efb2{stroke-width:20px;}.\31 bd43f93-4548-40ba-ae40-383fe8011bdd,.\35 0ffae84-87c2-4424-b204-d7a02a3be698,.dff622fb-3c80-4284-b176-0d890e85efb2{stroke:#0080ff;}.\38 7f3266b-00da-4bb5-8894-4eecb95fdfc0{stroke:#fff;stroke-width:12px;}.\35 0ffae84-87c2-4424-b204-d7a02a3be698,.d4193d5b-32fb-4a7b-ba8d-8e14c5cf51be{stroke-width:2px;}.\31 bd43f93-4548-40ba-ae40-383fe8011bdd{stroke-width:4px;}</style><symbol id="a5fdfa9d-71cd-4da0-b3ea-46e8811688f7" data-name="fd103434-89f2-4089-acf9-54fed79ed404" viewBox="0 0 200 103.617"><rect class="7295523f-03b6-4320-a3fa-afc80734ceb2" x="2.5" y="54.074" width="195" height="47.043"/><rect class="b7143707-df8b-420b-9a7b-5de0c49b73f7" x="2.5" y="2.5" width="48.75" height="48.75"/><rect class="b7143707-df8b-420b-9a7b-5de0c49b73f7" x="51.25" y="2.5" width="48.75" height="48.75"/><rect class="b7143707-df8b-420b-9a7b-5de0c49b73f7" x="100" y="2.5" width="48.75" height="48.75"/><rect class="b7143707-df8b-420b-9a7b-5de0c49b73f7" x="148.75" y="2.5" width="48.75" height="48.75"/></symbol></defs><title>WW_Seabiscuit</title><g id="0fe709ea-2290-4a49-a14f-7cf87f7cdcfd" data-name="Layer 2"><g id="ff771172-dc47-46c9-bba0-7d4d980a4f06" data-name="City - Murietta Heights"><g id="b880f56d-751c-4d52-bdc0-63a1c4877db4" data-name="WW_Seabiscuit"><path id="ee6e85a7-697c-4390-9e54-6b3a4dd798f3" data-name="Pitlane Outer" class="3e5db37f-5ae4-4557-bca9-614eb4a6395a" d="M239.825,406.309c-4.75,7.75-32.665,28.214-38.04,37.214s-12.75,19.875-18.75,29-11.721,26.873-22.346,35.248"/><path id="4dbd7809-e977-4ae2-8108-084b151715c7" data-name="Track Outer" class="dff622fb-3c80-4284-b176-0d890e85efb2" d="M194.118,498.356c8.628-12.916,43.667-69.333,51.5-81.833s37.5-63.6,48.917-83.75c12.75-22.5,8.848-50.936-36.5-52.25-17.25-.5-30.5-1.75-47.25-10s-48.5-25.75-63.25-34.25-19.75-25.75-34.75-34.75-25.25-15.25-36.5-22.5-21.5,6.75-27.5,15.5-12.334,21.148-5.25,26.75c10.75,8.5,17.25,12.25,26.75,18.5s14.25,13.25,2,31.75-31.75,49.75-38.25,60.25-10.5,18.5,3,27.25,47.5,29.25,60,38,42.25,29.75,54.75,38.25,47,29.75,70.25,42.75,27.25,17.666,34.25,26,15.271,12.958,33.5,5.666c13.333-5.333,59.667-26.666,69.5-31.833s19.167-16.167,13-29.833-24.333-30.667-40.167-39.334-38.5-11.166-55.333-16.666-44-18.334-61.833-29.167S43.285,254.773,22.535,241.523s-12-27-.5-43a319.406,319.406,0,0,1,36.25-41.5c7.125-7,13.75-3.25,24.5,3.75s55,34.25,62.25,38.625,6.375,7.5,1.125,18-5.75,19.125,1.125,23.5,11.625,4.625,22.875-1.75,76.458-38.625,90.958-46.625,12.334-11,17.667-20.834,11.167-11.333,19-24.166,31-15.5,43-34.5,41.75-69,55.25-91,26.75-10.75,15.25,9.25-12.068,63.694-9,77.5c7.5,33.75,31.361,55.823,41.75,89.25,11.5,37,8.662,66.815-36,84-39.417,15.166-122.293,44.832-138.75,74.25-17.293,30.913-39,66.5-60.75,98.25-31.435,45.888-56.875,64.25-92.625,76C80.5,542.162,88.2,561.481,118.535,556.148S165.285,541.523,194.118,498.356Z"/><path id="f80ad4b1-fb33-40f2-89c5-3a3f36562e6b" data-name="Pitlane Middle" class="87f3266b-00da-4bb5-8894-4eecb95fdfc0" d="M239.825,406.309c-4.75,7.75-32.665,28.214-38.04,37.214s-12.75,19.875-18.75,29-11.721,26.873-22.346,35.248"/><path id="4a20e160-2470-4fe9-bdf8-130bc5eb5847" data-name="Track Middle" class="87f3266b-00da-4bb5-8894-4eecb95fdfc0" d="M194.118,498.356c8.628-12.916,43.667-69.333,51.5-81.833s37.5-63.6,48.917-83.75c12.75-22.5,8.848-50.936-36.5-52.25-17.25-.5-30.5-1.75-47.25-10s-48.5-25.75-63.25-34.25-19.75-25.75-34.75-34.75-25.25-15.25-36.5-22.5-21.5,6.75-27.5,15.5-12.334,21.148-5.25,26.75c10.75,8.5,17.25,12.25,26.75,18.5s14.25,13.25,2,31.75-31.75,49.75-38.25,60.25-10.5,18.5,3,27.25,47.5,29.25,60,38,42.25,29.75,54.75,38.25,47,29.75,70.25,42.75,27.25,17.666,34.25,26,15.271,12.958,33.5,5.666c13.333-5.333,59.667-26.666,69.5-31.833s19.167-16.167,13-29.833-24.333-30.667-40.167-39.334-38.5-11.166-55.333-16.666-44-18.334-61.833-29.167S43.285,254.773,22.535,241.523s-12-27-.5-43a319.406,319.406,0,0,1,36.25-41.5c7.125-7,13.75-3.25,24.5,3.75s55,34.25,62.25,38.625,6.375,7.5,1.125,18-5.75,19.125,1.125,23.5,11.625,4.625,22.875-1.75,76.458-38.625,90.958-46.625,12.334-11,17.667-20.834,11.167-11.333,19-24.166,31-15.5,43-34.5,41.75-69,55.25-91,26.75-10.75,15.25,9.25-12.068,63.694-9,77.5c7.5,33.75,31.361,55.823,41.75,89.25,11.5,37,8.662,66.815-36,84-39.417,15.166-122.293,44.832-138.75,74.25-17.293,30.913-39,66.5-60.75,98.25-31.435,45.888-56.875,64.25-92.625,76C80.5,542.162,88.2,561.481,118.535,556.148S165.285,541.523,194.118,498.356Z"/><path id="2debafa5-b13b-40a9-8199-23a7d59b7a5e" data-name="Pitlane Inner" class="d4193d5b-32fb-4a7b-ba8d-8e14c5cf51be" d="M239.825,406.309c-4.75,7.75-32.665,28.214-38.04,37.214s-12.75,19.875-18.75,29-11.721,26.873-22.346,35.248"/><path id="760d76c7-d741-4d8a-aec1-61e5416cf9c2" data-name="Track Inner" class="50ffae84-87c2-4424-b204-d7a02a3be698" d="M194.118,498.356c8.628-12.916,43.667-69.333,51.5-81.833s37.5-63.6,48.917-83.75c12.75-22.5,8.848-50.936-36.5-52.25-17.25-.5-30.5-1.75-47.25-10s-48.5-25.75-63.25-34.25-19.75-25.75-34.75-34.75-25.25-15.25-36.5-22.5-21.5,6.75-27.5,15.5-12.334,21.148-5.25,26.75c10.75,8.5,17.25,12.25,26.75,18.5s14.25,13.25,2,31.75-31.75,49.75-38.25,60.25-10.5,18.5,3,27.25,47.5,29.25,60,38,42.25,29.75,54.75,38.25,47,29.75,70.25,42.75,27.25,17.666,34.25,26,15.271,12.958,33.5,5.666c13.333-5.333,59.667-26.666,69.5-31.833s19.167-16.167,13-29.833-24.333-30.667-40.167-39.334-38.5-11.166-55.333-16.666-44-18.334-61.833-29.167S43.285,254.773,22.535,241.523s-12-27-.5-43a319.406,319.406,0,0,1,36.25-41.5c7.125-7,13.75-3.25,24.5,3.75s55,34.25,62.25,38.625,6.375,7.5,1.125,18-5.75,19.125,1.125,23.5,11.625,4.625,22.875-1.75,76.458-38.625,90.958-46.625,12.334-11,17.667-20.834,11.167-11.333,19-24.166,31-15.5,43-34.5,41.75-69,55.25-91,26.75-10.75,15.25,9.25-12.068,63.694-9,77.5c7.5,33.75,31.361,55.823,41.75,89.25,11.5,37,8.662,66.815-36,84-39.417,15.166-122.293,44.832-138.75,74.25-17.293,30.913-39,66.5-60.75,98.25-31.435,45.888-56.875,64.25-92.625,76C80.5,542.162,88.2,561.481,118.535,556.148S165.285,541.523,194.118,498.356Z"/><path id="8123b23c-38b3-4fc2-8ef5-080a6f2e1fd8" data-name="Fix" class="1bd43f93-4548-40ba-ae40-383fe8011bdd" d="M278.485,344.77c-6.343,11.025-12.7,23.586-17.95,32.253"/><g id="408971f8-5dc4-4e42-8285-f514d7fef374" data-name="Crossover"><path id="a278c405-50e0-4b28-aaae-0d5a61783907" data-name="Crossover Outer" class="dff622fb-3c80-4284-b176-0d890e85efb2" d="M210.806,270.544c-16.75-8.25-48.5-25.75-63.25-34.25s-19.75-25.75-34.75-34.75-25.25-15.25-36.5-22.5"/><path id="bb7ff7f4-dec6-4a03-9379-3d5368711af7" data-name="Crossover Middle" class="87f3266b-00da-4bb5-8894-4eecb95fdfc0" d="M210.806,270.544c-16.75-8.25-48.5-25.75-63.25-34.25s-19.75-25.75-34.75-34.75-25.25-15.25-36.5-22.5"/><path id="37638161-a82d-4db9-9ada-053072e80af8" data-name="Crossover Inner" class="50ffae84-87c2-4424-b204-d7a02a3be698" d="M210.806,270.544c-16.75-8.25-48.5-25.75-63.25-34.25s-19.75-25.75-34.75-34.75-25.25-15.25-36.5-22.5"/></g><g id="76581a48-6fcc-4d88-b01a-e607a3947f7e" data-name="Crossover"><path id="87f2db23-cb04-4b9b-bbf6-5ef1b8551fd6" data-name="Crossover Outer" class="dff622fb-3c80-4284-b176-0d890e85efb2" d="M285.017,349.464c3.761-6.532,7.074-12.321,9.539-16.67,12.75-22.5,8.847-50.936-36.5-52.25"/><path id="dda69af1-d2a0-4301-9749-148804c31960" data-name="Crossover Middle" class="87f3266b-00da-4bb5-8894-4eecb95fdfc0" d="M284.388,350.557c4.02-6.979,7.567-13.173,10.168-17.763,12.75-22.5,8.847-50.936-36.5-52.25"/><path id="9c05e9c9-4827-4aa8-ab69-e293d2a2ef00" data-name="Crossover Inner" class="50ffae84-87c2-4424-b204-d7a02a3be698" d="M280.917,356.573c5.434-9.407,10.311-17.907,13.639-23.779,12.75-22.5,8.847-50.936-36.5-52.25"/></g><g id="864eecd6-4219-4ea5-bc56-23fdc7399efa" data-name="Crossover"><path id="117c3757-b06e-498d-9358-f9020bd236a4" data-name="Crossover Outer" class="dff622fb-3c80-4284-b176-0d890e85efb2" d="M151.806,435.294c12.5,8.5,47,29.75,70.25,42.75s27.25,17.666,34.25,26,15.271,12.958,33.5,5.666c13.333-5.333,59.667-26.666,69.5-31.833s19.167-16.167,13-29.833-24.333-30.667-40.167-39.334-38.5-11.166-55.333-16.666-44-18.334-61.833-29.167S43.306,254.794,22.556,241.544s-12-27-.5-43"/><path id="ba9f0bb6-6076-4656-9c24-f89a542a15af" data-name="Crossover Middle" class="87f3266b-00da-4bb5-8894-4eecb95fdfc0" d="M151.806,435.294c12.5,8.5,47,29.75,70.25,42.75s27.25,17.666,34.25,26,15.271,12.958,33.5,5.666c13.333-5.333,59.667-26.666,69.5-31.833s19.167-16.167,13-29.833-24.333-30.667-40.167-39.334-38.5-11.166-55.333-16.666-44-18.334-61.833-29.167S43.306,254.794,22.556,241.544s-12-27-.5-43"/><path id="865bbf6b-94d1-4ff1-b772-aff54c82c401" data-name="Crossover Inner" class="50ffae84-87c2-4424-b204-d7a02a3be698" d="M151.806,435.294c12.5,8.5,47,29.75,70.25,42.75s27.25,17.666,34.25,26,15.271,12.958,33.5,5.666c13.333-5.333,59.667-26.666,69.5-31.833s19.167-16.167,13-29.833-24.333-30.667-40.167-39.334-38.5-11.166-55.333-16.666-44-18.334-61.833-29.167S43.306,254.794,22.556,241.544s-12-27-.5-43"/></g><use id="272d6f46-1367-477d-a348-e77b89cbe322" data-name="Start-Finish-Line" width="200" height="103.617" transform="translate(207.016 521.984) rotate(-146.384) scale(0.243)" xlink:href="#a5fdfa9d-71cd-4da0-b3ea-46e8811688f7"/></g></g></g></svg>