<svg xmlns="http://www.w3.org/2000/svg" xmlns:xlink="http://www.w3.org/1999/xlink" width="1097.021" height="725.117" viewBox="0 0 1097.021 725.117"><defs><style>.\35 fce080f-b3eb-482b-85cf-656f432d79e0{fill:#00ff24;}.\35 d70c3ba-025c-43fd-96c1-32137bc75d8e,.\35 fce080f-b3eb-482b-85cf-656f432d79e0{stroke:#000;stroke-width:5px;}.\32 2b627fd-7061-44d4-8c56-dbe65a40799c,.\35 d70c3ba-025c-43fd-96c1-32137bc75d8e,.\35 fce080f-b3eb-482b-85cf-656f432d79e0,.\37 f99f13d-b064-4c8d-b2b2-637f0ec66afc,.c81396b3-4ef8-4d37-a2c7-31b7932afa7f{stroke-miterlimit:10;}.\35 d70c3ba-025c-43fd-96c1-32137bc75d8e{fill:#fff;}.\32 2b627fd-7061-44d4-8c56-dbe65a40799c,.\37 f99f13d-b064-4c8d-b2b2-637f0ec66afc,.c81396b3-4ef8-4d37-a2c7-31b7932afa7f{fill:none;}.\32 2b627fd-7061-44d4-8c56-dbe65a40799c,.\37 f99f13d-b064-4c8d-b2b2-637f0ec66afc{stroke:#0080ff;}.\32 2b627fd-7061-44d4-8c56-dbe65a40799c{stroke-width:20px;}.c81396b3-4ef8-4d37-a2c7-31b7932afa7f{stroke:#fff;stroke-width:12px;}.\37 f99f13d-b064-4c8d-b2b2-637f0ec66afc{stroke-width:2px;}</style><symbol id="dba1f4eb-0501-4d9e-89f9-68071fefa5c3" data-name="fd103434-89f2-4089-acf9-54fed79ed404" viewBox="0 0 200 103.617"><rect class="5fce080f-b3eb-482b-85cf-656f432d79e0" x="2.5" y="54.074" width="195" height="47.043"/><rect class="5d70c3ba-025c-43fd-96c1-32137bc75d8e" x="2.5" y="2.5" width="48.75" height="48.75"/><rect class="5d70c3ba-025c-43fd-96c1-32137bc75d8e" x="51.25" y="2.5" width="48.75" height="48.75"/><rect class="5d70c3ba-025c-43fd-96c1-32137bc75d8e" x="100" y="2.5" width="48.75" height="48.75"/><rect class="5d70c3ba-025c-43fd-96c1-32137bc75d8e" x="148.75" y="2.5" width="48.75" height="48.75"/></symbol></defs><title>XLS_Burger_Speedway</title><g id="29e308b6-debb-4da6-b136-0b28e6886c57" data-name="Layer 2"><g id="737a2cff-79cb-4b60-964c-5b9eea116472" data-name="City - Murietta Heights"><g id="845b8cf7-981a-4606-8314-64bef9c73e60" data-name="XLS_Burger_Speedway"><path id="febef459-1861-4c26-8a3a-013144f36b3b" data-name="Track Outer" class="22b627fd-7061-44d4-8c56-dbe65a40799c" d="M499.119,306.617c21.283,15,76,60.5,87.333,69.834s14.417,10.6,21.208,21.131c9.566,14.838,8.943,27.91,8.459,52.16-.5,25.042-2,84.042-2,103.542s13.5,25,27,31.833,34.666,26.5,41.666,39.834,20.334,28.166,32.334,41.666,20,24.167,26.166,31.667,16,15.667,42.5,15.667,147.334,1.166,161.334,1.166,29.75-6,35.25-18,12.5-29.5,15-41.5,14.75-14.5,26.5-16,29.75-8.666,42.083-25.5,19.5-35,22-44.833,1.167-31.167-10-47.333-17.167-32.834-18.5-49.834,3.5-47.666,9.333-62.666,14-34.167,11.834-55.334-12.667-36.666-26-48.166-19.5-12.334-30.334-15.167-9.5-10.333-8.666-24.833-.334-25-7.334-41.834a86.042,86.042,0,0,0-35.166-40.166c-15.334-9.167-40.334-13.5-55.5-18.667s-48.667-18.833-59-24.167-22.667-5.333-30.334,6.334-24.833,39.166-30.5,47.833-16.767,11.647-29.166,3c-12.667-8.833-24.5-18.667-45.167-33s-69.833-43.5-82.5-51.167-30.667-14.5-48-25.833-71-43.667-82.833-51.667S476.452,3.784,457.285,11.451s-48.666,18-64,34.666a68.14,68.14,0,0,0-18,49.667c.667,13.667,1,21.333,6.5,32.833s10.667,27.167,4.834,43.167-23.667,33.667-34.167,42-30,16-55.833,5.5-39.667-14.833-50.167-18.833-20.667-3.334-25.167,12.333-15.666,51.5-20,64.5-12.606,19.327-33.333,12.167c-18.333-6.334-50.5-17.667-67.667-23.334s-22.666-2-29.5,14.5-14.666,29.834-21,51.834-31.006,96.443-37.333,116c-5.5,17-2.333,23.166,15.5,29.833s46.333,17.167,65.667,24.5,36.666,12.5,43.5-3.333,13.166-29.5,18.666-43.334,20.638-12.169,42.167-11.833c21.333.333,74,0,96.5,1.5s57.167,5.5,83.833,11.167a577.691,577.691,0,0,1,72.667,20c24,8.333,53,22.333,73.667,32s26.166,11,36.166,12.666,22.5-1.166,26.667-9.333,3.167-23.833-12.833-32-57.667-27.833-74.667-37.5-34.333-18.833-48.333-43.833-14.334-44-13.667-61.834,9.667-35.666,13.667-43.5,10.271-9.1,17.333-5.333A236.313,236.313,0,0,1,499.119,306.617Z"/><path id="7f0ddb5e-44ec-42ce-857b-3e3dc33d8278" data-name="Track Middle" class="c81396b3-4ef8-4d37-a2c7-31b7932afa7f" d="M499.119,306.617c21.283,15,76,60.5,87.333,69.834s14.417,10.6,21.208,21.131c9.566,14.838,8.943,27.91,8.459,52.16-.5,25.042-2,84.042-2,103.542s13.5,25,27,31.833,34.666,26.5,41.666,39.834,20.334,28.166,32.334,41.666,20,24.167,26.166,31.667,16,15.667,42.5,15.667,147.334,1.166,161.334,1.166,29.75-6,35.25-18,12.5-29.5,15-41.5,14.75-14.5,26.5-16,29.75-8.666,42.083-25.5,19.5-35,22-44.833,1.167-31.167-10-47.333-17.167-32.834-18.5-49.834,3.5-47.666,9.333-62.666,14-34.167,11.834-55.334-12.667-36.666-26-48.166-19.5-12.334-30.334-15.167-9.5-10.333-8.666-24.833-.334-25-7.334-41.834a86.042,86.042,0,0,0-35.166-40.166c-15.334-9.167-40.334-13.5-55.5-18.667s-48.667-18.833-59-24.167-22.667-5.333-30.334,6.334-24.833,39.166-30.5,47.833-16.767,11.647-29.166,3c-12.667-8.833-24.5-18.667-45.167-33s-69.833-43.5-82.5-51.167-30.667-14.5-48-25.833-71-43.667-82.833-51.667S476.452,3.784,457.285,11.451s-48.666,18-64,34.666a68.14,68.14,0,0,0-18,49.667c.667,13.667,1,21.333,6.5,32.833s10.667,27.167,4.834,43.167-23.667,33.667-34.167,42-30,16-55.833,5.5-39.667-14.833-50.167-18.833-20.667-3.334-25.167,12.333-15.666,51.5-20,64.5-12.606,19.327-33.333,12.167c-18.333-6.334-50.5-17.667-67.667-23.334s-22.666-2-29.5,14.5-14.666,29.834-21,51.834-31.006,96.443-37.333,116c-5.5,17-2.333,23.166,15.5,29.833s46.333,17.167,65.667,24.5,36.666,12.5,43.5-3.333,13.166-29.5,18.666-43.334,20.638-12.169,42.167-11.833c21.333.333,74,0,96.5,1.5s57.167,5.5,83.833,11.167a577.691,577.691,0,0,1,72.667,20c24,8.333,53,22.333,73.667,32s26.166,11,36.166,12.666,22.5-1.166,26.667-9.333,3.167-23.833-12.833-32-57.667-27.833-74.667-37.5-34.333-18.833-48.333-43.833-14.334-44-13.667-61.834,9.667-35.666,13.667-43.5,10.271-9.1,17.333-5.333A236.313,236.313,0,0,1,499.119,306.617Z"/><path id="14533c96-e6cd-4c4f-b5a7-295067ceb362" data-name="Track Inner" class="7f99f13d-b064-4c8d-b2b2-637f0ec66afc" d="M499.119,306.617c21.283,15,76,60.5,87.333,69.834s14.417,10.6,21.208,21.131c9.566,14.838,8.943,27.91,8.459,52.16-.5,25.042-2,84.042-2,103.542s13.5,25,27,31.833,34.666,26.5,41.666,39.834,20.334,28.166,32.334,41.666,20,24.167,26.166,31.667,16,15.667,42.5,15.667,147.334,1.166,161.334,1.166,29.75-6,35.25-18,12.5-29.5,15-41.5,14.75-14.5,26.5-16,29.75-8.666,42.083-25.5,19.5-35,22-44.833,1.167-31.167-10-47.333-17.167-32.834-18.5-49.834,3.5-47.666,9.333-62.666,14-34.167,11.834-55.334-12.667-36.666-26-48.166-19.5-12.334-30.334-15.167-9.5-10.333-8.666-24.833-.334-25-7.334-41.834a86.042,86.042,0,0,0-35.166-40.166c-15.334-9.167-40.334-13.5-55.5-18.667s-48.667-18.833-59-24.167-22.667-5.333-30.334,6.334-24.833,39.166-30.5,47.833-16.767,11.647-29.166,3c-12.667-8.833-24.5-18.667-45.167-33s-69.833-43.5-82.5-51.167-30.667-14.5-48-25.833-71-43.667-82.833-51.667S476.452,3.784,457.285,11.451s-48.666,18-64,34.666a68.14,68.14,0,0,0-18,49.667c.667,13.667,1,21.333,6.5,32.833s10.667,27.167,4.834,43.167-23.667,33.667-34.167,42-30,16-55.833,5.5-39.667-14.833-50.167-18.833-20.667-3.334-25.167,12.333-15.666,51.5-20,64.5-12.606,19.327-33.333,12.167c-18.333-6.334-50.5-17.667-67.667-23.334s-22.666-2-29.5,14.5-14.666,29.834-21,51.834-31.006,96.443-37.333,116c-5.5,17-2.333,23.166,15.5,29.833s46.333,17.167,65.667,24.5,36.666,12.5,43.5-3.333,13.166-29.5,18.666-43.334,20.638-12.169,42.167-11.833c21.333.333,74,0,96.5,1.5s57.167,5.5,83.833,11.167a577.691,577.691,0,0,1,72.667,20c24,8.333,53,22.333,73.667,32s26.166,11,36.166,12.666,22.5-1.166,26.667-9.333,3.167-23.833-12.833-32-57.667-27.833-74.667-37.5-34.333-18.833-48.333-43.833-14.334-44-13.667-61.834,9.667-35.666,13.667-43.5,10.271-9.1,17.333-5.333A236.313,236.313,0,0,1,499.119,306.617Z"/><use id="206fe7cc-f60e-4587-92da-6be84f1dc502" data-name="Start-Finish-Line" width="200" height="103.617" transform="matrix(0.141, -0.197, 0.197, 0.141, 474.8, 319.386)" xlink:href="#dba1f4eb-0501-4d9e-89f9-68071fefa5c3"/></g></g></g></svg>