<svg xmlns="http://www.w3.org/2000/svg" xmlns:xlink="http://www.w3.org/1999/xlink" width="324.352" height="309.378" viewBox="0 0 324.352 309.378"><defs><style>.\34 e778064-e05c-42e0-956a-adc4f0ab304c{fill:#00ff24;}.\31 faff5cc-2747-4a5c-b09d-d3e271201312,.\34 e778064-e05c-42e0-956a-adc4f0ab304c{stroke:#000;stroke-miterlimit:10;stroke-width:5px;}.\31 faff5cc-2747-4a5c-b09d-d3e271201312{fill:#fff;}.\34 2de01c8-e50f-4f51-9175-698292b4e3d9,.\39 736ea18-150f-4232-9065-86d7b69c5603,.f0532416-9f57-4d16-9c1a-777e1845e5db{fill:none;stroke-linejoin:round;}.\39 736ea18-150f-4232-9065-86d7b69c5603,.f0532416-9f57-4d16-9c1a-777e1845e5db{stroke:#0080ff;}.f0532416-9f57-4d16-9c1a-777e1845e5db{stroke-width:19.352px;}.\34 2de01c8-e50f-4f51-9175-698292b4e3d9{stroke:#fff;stroke-width:9.676px;}.\39 736ea18-150f-4232-9065-86d7b69c5603{stroke-width:2px;}</style><symbol id="46e12925-f9ba-48ae-9d47-0f308b103d72" data-name="fd103434-89f2-4089-acf9-54fed79ed404" viewBox="0 0 200 103.617"><rect class="4e778064-e05c-42e0-956a-adc4f0ab304c" x="2.5" y="54.074" width="195" height="47.043"/><rect class="1faff5cc-2747-4a5c-b09d-d3e271201312" x="2.5" y="2.5" width="48.75" height="48.75"/><rect class="1faff5cc-2747-4a5c-b09d-d3e271201312" x="51.25" y="2.5" width="48.75" height="48.75"/><rect class="1faff5cc-2747-4a5c-b09d-d3e271201312" x="100" y="2.5" width="48.75" height="48.75"/><rect class="1faff5cc-2747-4a5c-b09d-d3e271201312" x="148.75" y="2.5" width="48.75" height="48.75"/></symbol></defs><title>Galileo&amp;apos;s Orbit</title><g id="18f68369-429c-4b09-9fe7-3b1a49197364" data-name="Layer 2"><g id="63c12731-9b8f-474f-b866-2b0e3585c1c2" data-name="Meme"><g id="3cc971ba-20a3-4d85-8176-1c56cdfcdd1c" data-name="Galileo&apos;s Orbit"><path id="211c1631-dd04-4b42-a530-48077f3c6157" data-name="Track" class="f0532416-9f57-4d16-9c1a-777e1845e5db" d="M78.092,283.021l-12.786-2.638a42.115,42.115,0,0,0-18.643.367l-5.089,1.26a29.627,29.627,0,0,1-9.709.756h0a17.773,17.773,0,0,1-9.183-3.543h0a58.236,58.236,0,0,1-10.818-10.705h0a10.208,10.208,0,0,1-2.13-5.769h0a51.481,51.481,0,0,1,1.614-15.46h0a27.41,27.41,0,0,1,8.063-13.334l3.836-3.493,22.5-20.039h0a31.336,31.336,0,0,0,7.882-18.9l.379-6.065-2.461-52.735h0A52,52,0,0,1,60.539,103.5l.326-.48,9.1-13.457a88.273,88.273,0,0,1,16.783-18.5L97.325,62.3a84.558,84.558,0,0,1,28.148-15.421l26.1-8.369L247.233,12a66.885,66.885,0,0,1,13.16-2.265h0a22.277,22.277,0,0,1,17.974,7.146l3.736,4.064a48.092,48.092,0,0,1,8.131,12.118h0a46.453,46.453,0,0,1,4.237,15.872l1.065,12.777.688,4.8a85.67,85.67,0,0,0,6.341,22.239l2.815,6.422,4.44,9.867a69.739,69.739,0,0,1,3.21,8.6h0a39.01,39.01,0,0,1,1.47,14.911h0a101.2,101.2,0,0,1-2.372,14.165h0a31.238,31.238,0,0,1-5.776,11.937l-3.569,4.556a55.877,55.877,0,0,1-7.249,7.644l-6.642,5.8a37.172,37.172,0,0,1-4.812,3.56l-26.341,16.378a73.417,73.417,0,0,0-13.958,11.26h0a11.777,11.777,0,0,0-1.694,2.224h0a85.827,85.827,0,0,0-6.656,14.12l-10.208,28.027h0a33.89,33.89,0,0,1-11.344,11.719l-6,3.75L197.376,269a78.736,78.736,0,0,0-17.251,11.844h0a108.418,108.418,0,0,1-9.112,7.381l-11.083,8.025a18.066,18.066,0,0,1-10.171,3.429h0a91.1,91.1,0,0,1-28.021-3.727Z"/><path id="2b9c13e4-7b76-4434-a131-5eae704251ed" data-name="Track" class="42de01c8-e50f-4f51-9175-698292b4e3d9" d="M78.092,283.021l-12.786-2.638a42.115,42.115,0,0,0-18.643.367l-5.089,1.26a29.627,29.627,0,0,1-9.709.756h0a17.773,17.773,0,0,1-9.183-3.543h0a58.236,58.236,0,0,1-10.818-10.705h0a10.208,10.208,0,0,1-2.13-5.769h0a51.481,51.481,0,0,1,1.614-15.46h0a27.41,27.41,0,0,1,8.063-13.334l3.836-3.493,22.5-20.039h0a31.336,31.336,0,0,0,7.882-18.9l.379-6.065-2.461-52.735h0A52,52,0,0,1,60.539,103.5l.326-.48,9.1-13.457a88.273,88.273,0,0,1,16.783-18.5L97.325,62.3a84.558,84.558,0,0,1,28.148-15.421l26.1-8.369L247.233,12a66.885,66.885,0,0,1,13.16-2.265h0a22.277,22.277,0,0,1,17.974,7.146l3.736,4.064a48.092,48.092,0,0,1,8.131,12.118h0a46.453,46.453,0,0,1,4.237,15.872l1.065,12.777.688,4.8a85.67,85.67,0,0,0,6.341,22.239l2.815,6.422,4.44,9.867a69.739,69.739,0,0,1,3.21,8.6h0a39.01,39.01,0,0,1,1.47,14.911h0a101.2,101.2,0,0,1-2.372,14.165h0a31.238,31.238,0,0,1-5.776,11.937l-3.569,4.556a55.877,55.877,0,0,1-7.249,7.644l-6.642,5.8a37.172,37.172,0,0,1-4.812,3.56l-26.341,16.378a73.417,73.417,0,0,0-13.958,11.26h0a11.777,11.777,0,0,0-1.694,2.224h0a85.827,85.827,0,0,0-6.656,14.12l-10.208,28.027h0a33.89,33.89,0,0,1-11.344,11.719l-6,3.75L197.376,269a78.736,78.736,0,0,0-17.251,11.844h0a108.418,108.418,0,0,1-9.112,7.381l-11.083,8.025a18.066,18.066,0,0,1-10.171,3.429h0a91.1,91.1,0,0,1-28.021-3.727Z"/><path id="379f6b22-f533-4d4c-81e7-ae7aa9fc38f7" data-name="Track" class="9736ea18-150f-4232-9065-86d7b69c5603" d="M78.092,283.021l-12.786-2.638a42.115,42.115,0,0,0-18.643.367l-5.089,1.26a29.627,29.627,0,0,1-9.709.756h0a17.773,17.773,0,0,1-9.183-3.543h0a58.236,58.236,0,0,1-10.818-10.705h0a10.208,10.208,0,0,1-2.13-5.769h0a51.481,51.481,0,0,1,1.614-15.46h0a27.41,27.41,0,0,1,8.063-13.334l3.836-3.493,22.5-20.039h0a31.336,31.336,0,0,0,7.882-18.9l.379-6.065-2.461-52.735h0A52,52,0,0,1,60.539,103.5l.326-.48,9.1-13.457a88.273,88.273,0,0,1,16.783-18.5L97.325,62.3a84.558,84.558,0,0,1,28.148-15.421l26.1-8.369L247.233,12a66.885,66.885,0,0,1,13.16-2.265h0a22.277,22.277,0,0,1,17.974,7.146l3.736,4.064a48.092,48.092,0,0,1,8.131,12.118h0a46.453,46.453,0,0,1,4.237,15.872l1.065,12.777.688,4.8a85.67,85.67,0,0,0,6.341,22.239l2.815,6.422,4.44,9.867a69.739,69.739,0,0,1,3.21,8.6h0a39.01,39.01,0,0,1,1.47,14.911h0a101.2,101.2,0,0,1-2.372,14.165h0a31.238,31.238,0,0,1-5.776,11.937l-3.569,4.556a55.877,55.877,0,0,1-7.249,7.644l-6.642,5.8a37.172,37.172,0,0,1-4.812,3.56l-26.341,16.378a73.417,73.417,0,0,0-13.958,11.26h0a11.777,11.777,0,0,0-1.694,2.224h0a85.827,85.827,0,0,0-6.656,14.12l-10.208,28.027h0a33.89,33.89,0,0,1-11.344,11.719l-6,3.75L197.376,269a78.736,78.736,0,0,0-17.251,11.844h0a108.418,108.418,0,0,1-9.112,7.381l-11.083,8.025a18.066,18.066,0,0,1-10.171,3.429h0a91.1,91.1,0,0,1-28.021-3.727Z"/><use id="cdcad7af-329f-4140-a685-2906953ddf66" data-name="start finish line" width="200" height="103.617" transform="matrix(-0.055, 0.194, -0.194, -0.055, 85.498, 264.613)" xlink:href="#46e12925-f9ba-48ae-9d47-0f308b103d72"/></g></g></g></svg>