<svg xmlns="http://www.w3.org/2000/svg" xmlns:xlink="http://www.w3.org/1999/xlink" width="813.352" height="265.923" viewBox="0 0 813.352 265.923"><defs><style>.f96ddd04-8a69-4d7e-b871-f4932eeda903{fill:#00ff24;}.\39 8b5b5ff-657b-441c-933c-9c661e6b8fea,.f96ddd04-8a69-4d7e-b871-f4932eeda903{stroke:#000;stroke-miterlimit:10;}.\38 efb3958-cf90-4b6f-b5de-bb36f14bfafb,.\39 8b5b5ff-657b-441c-933c-9c661e6b8fea,.f96ddd04-8a69-4d7e-b871-f4932eeda903{stroke-width:5px;}.\39 8b5b5ff-657b-441c-933c-9c661e6b8fea{fill:#fff;}.\32 b2c9d7b-06e0-4504-bb73-37b7f0d7d8c9,.\38 efb3958-cf90-4b6f-b5de-bb36f14bfafb,.d7dbcc50-4078-439e-9b24-cb7e2682f6fe{fill:none;stroke-linejoin:round;}.\32 b2c9d7b-06e0-4504-bb73-37b7f0d7d8c9,.d7dbcc50-4078-439e-9b24-cb7e2682f6fe{stroke:#0080ff;}.d7dbcc50-4078-439e-9b24-cb7e2682f6fe{stroke-width:10px;}.\38 efb3958-cf90-4b6f-b5de-bb36f14bfafb{stroke:#fff;}.\32 b2c9d7b-06e0-4504-bb73-37b7f0d7d8c9{stroke-width:1.45px;}</style><symbol id="6cfce133-365e-4bf2-b509-af587bc88934" data-name="fd103434-89f2-4089-acf9-54fed79ed404" viewBox="0 0 200 103.617"><rect class="f96ddd04-8a69-4d7e-b871-f4932eeda903" x="2.5" y="54.074" width="195" height="47.043"/><rect class="98b5b5ff-657b-441c-933c-9c661e6b8fea" x="2.5" y="2.5" width="48.75" height="48.75"/><rect class="98b5b5ff-657b-441c-933c-9c661e6b8fea" x="51.25" y="2.5" width="48.75" height="48.75"/><rect class="98b5b5ff-657b-441c-933c-9c661e6b8fea" x="100" y="2.5" width="48.75" height="48.75"/><rect class="98b5b5ff-657b-441c-933c-9c661e6b8fea" x="148.75" y="2.5" width="48.75" height="48.75"/></symbol></defs><title>Rocket_Kings_Of_Los_Santos</title><g id="76489b3c-2a5b-4b09-ada1-69da471b89b3" data-name="Layer 2"><g id="44e351ca-94b1-49ed-883a-24f2a9145647" data-name="Meme"><g id="e73cba38-4fbe-4a22-97a1-c7e72ac0e46b" data-name="Rocket_Kings_Of_Los_Santos"><path id="97e45f6c-1170-4fd3-a399-a84e57032bba" data-name="inner" class="d7dbcc50-4078-439e-9b24-cb7e2682f6fe" d="M610.275,113.724l-13.5-17.6a31.258,31.258,0,0,0-5.077-4.959l-5-3.883a31.775,31.775,0,0,0-4.818-3.084l-35.425-18.4a20.226,20.226,0,0,0-4.682-1.737l-29.888-7.049a48.041,48.041,0,0,0-9.247-1.251l-37.437-1.392-22.456,1.354a57.993,57.993,0,0,0-23.032,6.316L388.262,78.208,114.823,221.455,58.429,252.611,32.261,259.77a32.525,32.525,0,0,1-21.012-1.316h0a10.108,10.108,0,0,1-3.822-15.908l14.079-16.477a65.23,65.23,0,0,1,20.318-15.918l27.4-13.76L270.079,93.351,392.614,29.3l14.161-7A97.333,97.333,0,0,1,442.3,12.515l34.555-2.71L533.048,5.31q4.724-.378,9.468-.295L616.8,6.324l55.176,3.129a94.677,94.677,0,0,1,24.118,4.554l49.854,16.336,52.332,18.829a15.227,15.227,0,0,1,9.467,18.579L794.331,113.89l-8.006,35.42a28.439,28.439,0,0,1-18.4,20.591l-49.137,17.091L683.733,203.7a20.435,20.435,0,0,1-26.344-7.984L634.549,157.4,610.5,114.234a7.194,7.194,0,0,1,2.049-9.317L635.594,88.13l18.751-12.5a7.192,7.192,0,0,1,10.177,2.32l27.465,46.385,31.254,54.908a4.825,4.825,0,0,1-2.222,6.79l-1.724.772"/><path id="47aa99bd-7dbd-433e-82c9-6f5a2628d697" data-name="inner" class="8efb3958-cf90-4b6f-b5de-bb36f14bfafb" d="M610.275,113.724l-13.5-17.6a31.258,31.258,0,0,0-5.077-4.959l-5-3.883a31.775,31.775,0,0,0-4.818-3.084l-35.425-18.4a20.226,20.226,0,0,0-4.682-1.737l-29.888-7.049a48.041,48.041,0,0,0-9.247-1.251l-37.437-1.392-22.456,1.354a57.993,57.993,0,0,0-23.032,6.316L388.262,78.208,114.823,221.455,58.429,252.611,32.261,259.77a32.525,32.525,0,0,1-21.012-1.316h0a10.108,10.108,0,0,1-3.822-15.908l14.079-16.477a65.23,65.23,0,0,1,20.318-15.918l27.4-13.76L270.079,93.351,392.614,29.3l14.161-7A97.333,97.333,0,0,1,442.3,12.515l34.555-2.71L533.048,5.31q4.724-.378,9.468-.295L616.8,6.324l55.176,3.129a94.677,94.677,0,0,1,24.118,4.554l49.854,16.336,52.332,18.829a15.227,15.227,0,0,1,9.467,18.579L794.331,113.89l-8.006,35.42a28.439,28.439,0,0,1-18.4,20.591l-49.137,17.091L683.733,203.7a20.435,20.435,0,0,1-26.344-7.984L634.549,157.4,610.5,114.234a7.194,7.194,0,0,1,2.049-9.317L635.594,88.13l18.751-12.5a7.192,7.192,0,0,1,10.177,2.32l27.465,46.385,31.254,54.908a4.825,4.825,0,0,1-2.222,6.79l-1.724.772"/><path id="6badb8ab-d5db-49d1-8d9b-8f68e6fbe449" data-name="inner" class="2b2c9d7b-06e0-4504-bb73-37b7f0d7d8c9" d="M610.275,113.724l-13.5-17.6a31.258,31.258,0,0,0-5.077-4.959l-5-3.883a31.775,31.775,0,0,0-4.818-3.084l-35.425-18.4a20.226,20.226,0,0,0-4.682-1.737l-29.888-7.049a48.041,48.041,0,0,0-9.247-1.251l-37.437-1.392-22.456,1.354a57.993,57.993,0,0,0-23.032,6.316L388.262,78.208,114.823,221.455,58.429,252.611,32.261,259.77a32.525,32.525,0,0,1-21.012-1.316h0a10.108,10.108,0,0,1-3.822-15.908l14.079-16.477a65.23,65.23,0,0,1,20.318-15.918l27.4-13.76L270.079,93.351,392.614,29.3l14.161-7A97.333,97.333,0,0,1,442.3,12.515l34.555-2.71L533.048,5.31q4.724-.378,9.468-.295L616.8,6.324l55.176,3.129a94.677,94.677,0,0,1,24.118,4.554l49.854,16.336,52.332,18.829a15.227,15.227,0,0,1,9.467,18.579L794.331,113.89l-8.006,35.42a28.439,28.439,0,0,1-18.4,20.591l-49.137,17.091L683.733,203.7a20.435,20.435,0,0,1-26.344-7.984L634.549,157.4,610.5,114.234a7.194,7.194,0,0,1,2.049-9.317L635.594,88.13l18.751-12.5a7.192,7.192,0,0,1,10.177,2.32l27.465,46.385,31.254,54.908a4.825,4.825,0,0,1-2.222,6.79l-1.724.772"/><use id="3a99dfac-a866-41c4-9ea5-471d48c64238" data-name="start finish line" width="200" height="103.617" transform="translate(74.848 214.337) rotate(-118.056) scale(0.184)" xlink:href="#6cfce133-365e-4bf2-b509-af587bc88934"/></g></g></g></svg>