<svg xmlns="http://www.w3.org/2000/svg" xmlns:xlink="http://www.w3.org/1999/xlink" width="740.541" height="886.36" viewBox="0 0 740.541 886.36"><defs><style>.\33 4a6310e-5981-4707-b0f2-2aa980d2d3a1{fill:#00ff24;}.\33 4a6310e-5981-4707-b0f2-2aa980d2d3a1,.f082c6e4-4b89-492d-8054-8a1639bbcafc{stroke:#000;stroke-miterlimit:10;stroke-width:5px;}.f082c6e4-4b89-492d-8054-8a1639bbcafc{fill:#fff;}.\30 a33b665-4be1-4726-acbf-573a334049bb,.\33 1927dae-1d8f-4978-995c-777346fa3bc2,.\34 fa9be9a-3b26-4a04-9252-762aa0d360db,.\35 ad4b511-9a72-413a-acce-e090b8b3de3a,.f70a5ad8-e0ad-43df-b313-b9cf4883aee1{fill:none;stroke-linejoin:round;}.\30 a33b665-4be1-4726-acbf-573a334049bb,.\33 1927dae-1d8f-4978-995c-777346fa3bc2{stroke:#c91c1c;}.\33 1927dae-1d8f-4978-995c-777346fa3bc2,.\34 fa9be9a-3b26-4a04-9252-762aa0d360db{stroke-width:27.784px;}.f70a5ad8-e0ad-43df-b313-b9cf4883aee1{stroke:#fff;stroke-width:15.281px;}.\30 a33b665-4be1-4726-acbf-573a334049bb,.\35 ad4b511-9a72-413a-acce-e090b8b3de3a{stroke-width:2.778px;}.\34 fa9be9a-3b26-4a04-9252-762aa0d360db,.\35 ad4b511-9a72-413a-acce-e090b8b3de3a{stroke:#0080ff;}</style><symbol id="be21cf76-4377-46f0-80d5-f9a9b7d283d4" data-name="fd103434-89f2-4089-acf9-54fed79ed404" viewBox="0 0 200 103.617"><rect class="34a6310e-5981-4707-b0f2-2aa980d2d3a1" x="2.5" y="54.074" width="195" height="47.043"/><rect class="f082c6e4-4b89-492d-8054-8a1639bbcafc" x="2.5" y="2.5" width="48.75" height="48.75"/><rect class="f082c6e4-4b89-492d-8054-8a1639bbcafc" x="51.25" y="2.5" width="48.75" height="48.75"/><rect class="f082c6e4-4b89-492d-8054-8a1639bbcafc" x="100" y="2.5" width="48.75" height="48.75"/><rect class="f082c6e4-4b89-492d-8054-8a1639bbcafc" x="148.75" y="2.5" width="48.75" height="48.75"/></symbol></defs><title>Bahrain_International</title><g id="ade84372-9b4f-4693-b86d-e682d013577c" data-name="Layer 2"><g id="38910cd7-c42d-4576-90c1-5f23f4a560dd" data-name="Grand Senora Desert"><g id="1223cfaa-3a25-432e-a58d-c321d7f0b74d" data-name="Bahrain_International"><g id="c9567c6e-3ada-45f7-97eb-0b3a1b3b49ab" data-name="fd1a65fd-c6d0-4910-9bf0-0df5dd67b28d"><g id="59ca8242-bdba-473e-8754-f4d87470498e" data-name="6ff44247-9c5c-44b4-ba96-6d436519447d"><path id="6e5fc050-fef8-4aa6-bfc5-61886f0331ff" data-name="a3a91380-4228-4c1a-aea1-a177766aa640" class="31927dae-1d8f-4978-995c-777346fa3bc2" d="M475.721,311.694s148.128-13.336,148.128-22.709c-7.64-7.641-142.575-60.569-142.575-60.569"/><path id="ca7824e3-05f9-4a81-ab24-5b7df352faf8" data-name="1fde7dfa-422e-4d1d-b493-f0193eefd78e" class="f70a5ad8-e0ad-43df-b313-b9cf4883aee1" d="M475.721,311.694s148.128-13.336,148.128-22.709c-7.64-7.641-142.575-60.569-142.575-60.569"/><path id="935368e1-358e-4129-ad7b-479601493931" data-name="a8748fa3-3172-4e08-b3d1-d38f98621763" class="0a33b665-4be1-4726-acbf-573a334049bb" d="M475.721,311.694s148.128-13.336,148.128-22.709c-7.64-7.641-142.575-60.569-142.575-60.569"/><path id="1e2a42f1-3141-4dbc-866b-b778f26a9307" data-name="62ebb3c6-6aba-4750-90c7-88523f6877b8" class="4fa9be9a-3b26-4a04-9252-762aa0d360db" d="M373.8,336.565c25.936-4.324,90.992-22.922,98.632-23.617s64.6-43.065,4.168-88.213-97.243-61.819-141-117.387S293.916,58.726,291.833,51.78s3.473-17.365,16.67-22.227,46.538-18.059,61.124-15.281,36.814,5.557,44.454,11.114,18.755,18.059,34.73,9.029,39.592-7.64,45.844-4.862,29.867,13.892,35.424,18.06S559.947,61.505,567.587,62.2s44.454,15.281,51.4,15.281,40.981,4.168,43.065,4.863,10.419,9.029,13.892,18.059,9.03,29.173,11.114,36.814,13.891,44.454,17.364,48.621,22.228,42.371,22.228,52.79-2.779,52.789-6.946,55.567a41.909,41.909,0,0,1-25.006,6.252c-11.808-.7-40.286-12.5-58.346,6.251s-34.035,29.173-27.089,45.149,18.059,40.286,16.67,65.292-.694,61.819-9.03,70.154-49.316,37.508-55.567,43.759-128.5,106.273-128.5,106.273-22.228,26.4-59.736,29.868-45.148,3.473-47.232,12.5.694,77.795-4.168,86.13-36.813,56.957-39.592,57.3-35.424,32.993-40.286,33.688S149.44,873.14,141.1,872.445s-53.484-25.7-56.609-27.436-56.957-33.688-59.735-37.161-11.809-47.927-10.419-55.221S13.011,684.21,14.2,679.7s3.612-89.256,5-96.9,30.562-80.573,37.508-85.436,59.041-40.981,63.208-44.106,96.549-61.472,107.315-67.029S340.454,342.121,373.8,336.565Z"/><path id="d18c4d85-716d-4c72-833b-9e33eb2576b7" data-name="3d538eca-a9b1-4485-83f2-5a8ef0c3d668" class="f70a5ad8-e0ad-43df-b313-b9cf4883aee1" d="M373.8,336.565c25.936-4.324,90.992-22.922,98.632-23.617s64.6-43.065,4.168-88.213-97.243-61.819-141-117.387S293.916,58.726,291.833,51.78s3.473-17.365,16.67-22.227,46.538-18.059,61.124-15.281,36.814,5.557,44.454,11.114,18.755,18.059,34.73,9.029,39.592-7.64,45.844-4.862,29.867,13.892,35.424,18.06S559.947,61.505,567.587,62.2s44.454,15.281,51.4,15.281,40.981,4.168,43.065,4.863,10.419,9.029,13.892,18.059,9.03,29.173,11.114,36.814,13.891,44.454,17.364,48.621,22.228,42.371,22.228,52.79-2.779,52.789-6.946,55.567a41.909,41.909,0,0,1-25.006,6.252c-11.808-.7-40.286-12.5-58.346,6.251s-34.035,29.173-27.089,45.149,18.059,40.286,16.67,65.292-.694,61.819-9.03,70.154-49.316,37.508-55.567,43.759-128.5,106.273-128.5,106.273-22.228,26.4-59.736,29.868-45.148,3.473-47.232,12.5.694,77.795-4.168,86.13-36.813,56.957-39.592,57.3-35.424,32.993-40.286,33.688S149.44,873.14,141.1,872.445s-53.484-25.7-56.609-27.436-56.957-33.688-59.735-37.161-11.809-47.927-10.419-55.221S13.011,684.21,14.2,679.7s3.612-89.256,5-96.9,30.562-80.573,37.508-85.436,59.041-40.981,63.208-44.106,96.549-61.472,107.315-67.029S340.454,342.121,373.8,336.565Z"/><path id="25df6ad7-9e66-48ac-bf03-833ec4873859" data-name="4d90a051-9da5-4b17-874e-4143c20f8207" class="5ad4b511-9a72-413a-acce-e090b8b3de3a" d="M373.8,336.565c25.936-4.324,90.992-22.922,98.632-23.617s64.6-43.065,4.168-88.213-97.243-61.819-141-117.387S293.916,58.726,291.833,51.78s3.473-17.365,16.67-22.227,46.538-18.059,61.124-15.281,36.814,5.557,44.454,11.114,18.755,18.059,34.73,9.029,39.592-7.64,45.844-4.862,29.867,13.892,35.424,18.06S559.947,61.505,567.587,62.2s44.454,15.281,51.4,15.281,40.981,4.168,43.065,4.863,10.419,9.029,13.892,18.059,9.03,29.173,11.114,36.814,13.891,44.454,17.364,48.621,22.228,42.371,22.228,52.79-2.779,52.789-6.946,55.567a41.909,41.909,0,0,1-25.006,6.252c-11.808-.7-40.286-12.5-58.346,6.251s-34.035,29.173-27.089,45.149,18.059,40.286,16.67,65.292-.694,61.819-9.03,70.154-49.316,37.508-55.567,43.759-128.5,106.273-128.5,106.273-22.228,26.4-59.736,29.868-45.148,3.473-47.232,12.5.694,77.795-4.168,86.13-36.813,56.957-39.592,57.3-35.424,32.993-40.286,33.688S149.44,873.14,141.1,872.445s-53.484-25.7-56.609-27.436-56.957-33.688-59.735-37.161-11.809-47.927-10.419-55.221S13.011,684.21,14.2,679.7s3.612-89.256,5-96.9,30.562-80.573,37.508-85.436,59.041-40.981,63.208-44.106,96.549-61.472,107.315-67.029S340.454,342.121,373.8,336.565Z"/><use id="2ee8bc62-7a0a-460b-b309-182ce1a35af6" data-name="fba35e4e-d052-4301-a318-48c73fba446c" width="200" height="103.617" transform="matrix(0.078, 0.303, 0.303, -0.078, 333.679, 314.983)" xlink:href="#be21cf76-4377-46f0-80d5-f9a9b7d283d4"/></g></g></g></g></g></svg>