<svg xmlns="http://www.w3.org/2000/svg" xmlns:xlink="http://www.w3.org/1999/xlink" width="1563.396" height="2091.583" viewBox="0 0 1563.396 2091.583"><defs><style>.\34 8cc5aee-4479-4f9c-abf7-bdc118bf2479{fill:#00ff24;}.\34 8cc5aee-4479-4f9c-abf7-bdc118bf2479,.a80d51aa-b6c9-4cac-9223-24507c595360{stroke:#000;stroke-miterlimit:10;stroke-width:5px;}.a80d51aa-b6c9-4cac-9223-24507c595360{fill:#fff;}.\32 c9d4e72-5fe9-4131-bb85-f6619b0ba7bd,.\37 d136247-77d0-4309-bc4f-45aa53b93258,.a62acd1f-0e33-4b0c-9f54-a55278108390{fill:none;stroke-linejoin:round;}.\32 c9d4e72-5fe9-4131-bb85-f6619b0ba7bd,.a62acd1f-0e33-4b0c-9f54-a55278108390{stroke:#0080ff;}.a62acd1f-0e33-4b0c-9f54-a55278108390{stroke-width:27.646px;}.\37 d136247-77d0-4309-bc4f-45aa53b93258{stroke:#fff;stroke-width:15.205px;}.\32 c9d4e72-5fe9-4131-bb85-f6619b0ba7bd{stroke-width:2.765px;}</style><symbol id="1844b857-bb9f-48f8-b0b0-d154edc33adf" data-name="start finish line" viewBox="0 0 200 103.617"><rect class="48cc5aee-4479-4f9c-abf7-bdc118bf2479" x="2.5" y="2.5" width="195" height="47.043"/><rect class="a80d51aa-b6c9-4cac-9223-24507c595360" x="2.5" y="52.367" width="48.75" height="48.75"/><rect class="a80d51aa-b6c9-4cac-9223-24507c595360" x="51.25" y="52.367" width="48.75" height="48.75"/><rect class="a80d51aa-b6c9-4cac-9223-24507c595360" x="100" y="52.367" width="48.75" height="48.75"/><rect class="a80d51aa-b6c9-4cac-9223-24507c595360" x="148.75" y="52.367" width="48.75" height="48.75"/></symbol></defs><title>Blaine_County_24h</title><g id="69a3f927-e960-4419-b874-1ff6b36a30f9" data-name="Layer 2"><g id="7178e742-9de6-4fea-8255-2f48767992f7" data-name="Grand Senora Desert"><g id="746744e7-7a55-4712-bec5-2e23a46ba306" data-name="Blaine_County_24h"><path id="4b4019ae-60c5-4738-8884-0f48bafca7a2" data-name="Track-outer" class="a62acd1f-0e33-4b0c-9f54-a55278108390" d="M877.841,1289.152c175.549-93.3,201.009-187.384,207.342-202.5s23.729-57.134,27.645-64.276,5.351-13.362,0-17.278c-11.058-6.221-44.924-38.013-47-83.628-2.3-48.149-7.373-60.129,11.979-114.5s21.656-70.5,20.735-102.749-14.745-74.182-19.813-82.937-18.43-36.86-55.752-76.025-44.694-64.506-123.023-78.79-58.516-12.9-66.81-14.283-14.283-5.069-8.293-29.95,11.058-59.9,11.058-69.113,9.676-22.578-35.479-62.664-147.9-145.6-166.794-181.539c-7.833-18.43-.922-19.812,6.45-24.881s45.155-38.7,53.448-43.311,29.028-21.195,62.2-23.038,52.987-2.3,77.868,5.068,51.144,23.96,58.977,25.8S914.7,62.841,937.74,41.646s25.8-23.5,30.87-25.111,38.243-12.671,41.008,25.572c.461,16.127-6.911,30.41,25.342,48.38s64.045,38.243,70.957,40.086,25.341,12.9,78.79-1.843,85.24-21.195,94.455-23.96,36.861-10.6,40.086,36.861S1328,217.2,1359.8,246.223c12.9,12.9,17.509,19.352,12.441,25.342s2.3,8.755,9.215,20.274,56.212,131.316,60.359,139.149,3.686,17.969,38.7,27.645,59.438,29.028,65.428,97.681,2.764,84.319,2.764,92.613,12.441,44.233-58.055,68.653-107.818,37.322-116.572,40.547-12.9,19.813-5.53,43.311,57.135,140.993,62.2,153.433,45.615,141.914,47,169.1,21.656,95.837,8.294,165.182-42.39,175.779-42.39,175.779l-60.82,161.727s-61.742,151.59-68.192,159.423-66.81,123.022-122.1,174.627S1003.628,2076.82,995.8,2077.741s-56.673-31.331-75.564-36.861-55.752-15.665-114.269-10.136-122.1,24.65-126.708,17.969,54.369-61.281-6.912-93.073-134.541-100.906-132.7-112.886,7.833-15.666,18.891-18.43,59.438-25.8,70.5-40.547c7.833-11.058-16.127-31.332-47.458-30.871s-49.3-.922-83.4,18.891c-9.676,5.99-17.509-17.509-23.959-29.028s-80.172-142.917-86.162-150.668c-7.833-10.137-8.056-17.592-32.714-2.3-17.278,10.713-85.749,26.4-219.437-8.985-70.5-18.66-155.28-21.39-108.76-41.47a134.811,134.811,0,0,0,17.185-9.328c6.047-3.8,6.911-7.257,2.764-20.043s-20.043-51.145-20.734-53.218-3.11-11.749,10.021-15.2,84.131-31,91.576-33.866c26.033-10.021,86.393-35.133,102.289-48.034,8.294-6.911,10.828-5.99,20.273,6.911s29.258,42.16,33.175,47.459S343.36,1514,347.277,1520.683s9.906,13.593,22.116,4.838,229.228-134.541,233.144-136.384,12.441-7.142,3-21.886-56.9-88.466-70.5-136.846c-1.613-8.524-23.959-3.916-56.443,13.132s-69.805,39.395-77.868,45.384-11.519,9.446-23.038-1.843-16.588-15.2-21.195-20.5-7.142-10.137,5.068-20.965,42.62-46.537,92.843-58.286,85.7-12.44,99.524-11.519,38.934-1.613,70.957,56.9,70.727,124.866,75.795,132.929,12.671,18.891,26.033,10.6S877.841,1289.152,877.841,1289.152Z"/><path id="0a265b37-5437-447b-9471-fcf79d17977f" data-name="Track-mid" class="7d136247-77d0-4309-bc4f-45aa53b93258" d="M877.841,1289.152c175.549-93.3,201.009-187.384,207.342-202.5s23.729-57.134,27.645-64.276,5.351-13.362,0-17.278c-11.058-6.221-44.924-38.013-47-83.628-2.3-48.149-7.373-60.129,11.979-114.5s21.656-70.5,20.735-102.749-14.745-74.182-19.813-82.937-18.43-36.86-55.752-76.025-44.694-64.506-123.023-78.79-58.516-12.9-66.81-14.283-14.283-5.069-8.293-29.95,11.058-59.9,11.058-69.113,9.676-22.578-35.479-62.664-147.9-145.6-166.794-181.539c-7.833-18.43-.922-19.812,6.45-24.881s45.155-38.7,53.448-43.311,29.028-21.195,62.2-23.038,52.987-2.3,77.868,5.068,51.144,23.96,58.977,25.8S914.7,62.841,937.74,41.646s25.8-23.5,30.87-25.111,38.243-12.671,41.008,25.572c.461,16.127-6.911,30.41,25.342,48.38s64.045,38.243,70.957,40.086,25.341,12.9,78.79-1.843,85.24-21.195,94.455-23.96,36.861-10.6,40.086,36.861S1328,217.2,1359.8,246.223c12.9,12.9,17.509,19.352,12.441,25.342s2.3,8.755,9.215,20.274,56.212,131.316,60.359,139.149,3.686,17.969,38.7,27.645,59.438,29.028,65.428,97.681,2.764,84.319,2.764,92.613,12.441,44.233-58.055,68.653-107.818,37.322-116.572,40.547-12.9,19.813-5.53,43.311,57.135,140.993,62.2,153.433,45.615,141.914,47,169.1,21.656,95.837,8.294,165.182-42.39,175.779-42.39,175.779l-60.82,161.727s-61.742,151.59-68.192,159.423-66.81,123.022-122.1,174.627S1003.628,2076.82,995.8,2077.741s-56.673-31.331-75.564-36.861-55.752-15.665-114.269-10.136-122.1,24.65-126.708,17.969,54.369-61.281-6.912-93.073-134.541-100.906-132.7-112.886,7.833-15.666,18.891-18.43,59.438-25.8,70.5-40.547c7.833-11.058-16.127-31.332-47.458-30.871s-49.3-.922-83.4,18.891c-9.676,5.99-17.509-17.509-23.959-29.028s-80.172-142.917-86.162-150.668c-7.833-10.137-8.056-17.592-32.714-2.3-17.278,10.713-85.749,26.4-219.437-8.985-70.5-18.66-155.28-21.39-108.76-41.47a134.811,134.811,0,0,0,17.185-9.328c6.047-3.8,6.911-7.257,2.764-20.043s-20.043-51.145-20.734-53.218-3.11-11.749,10.021-15.2,84.131-31,91.576-33.866c26.033-10.021,86.393-35.133,102.289-48.034,8.294-6.911,10.828-5.99,20.273,6.911s29.258,42.16,33.175,47.459S343.36,1514,347.277,1520.683s9.906,13.593,22.116,4.838,229.228-134.541,233.144-136.384,12.441-7.142,3-21.886-56.9-88.466-70.5-136.846c-1.613-8.524-23.959-3.916-56.443,13.132s-69.805,39.395-77.868,45.384-11.519,9.446-23.038-1.843-16.588-15.2-21.195-20.5-7.142-10.137,5.068-20.965,42.62-46.537,92.843-58.286,85.7-12.44,99.524-11.519,38.934-1.613,70.957,56.9,70.727,124.866,75.795,132.929,12.671,18.891,26.033,10.6S877.841,1289.152,877.841,1289.152Z"/><path id="6e3bc213-4e32-44b1-8d32-e67f4997e5da" data-name="Track-inner" class="2c9d4e72-5fe9-4131-bb85-f6619b0ba7bd" d="M877.841,1289.152c175.549-93.3,201.009-187.384,207.342-202.5s23.729-57.134,27.645-64.276,5.351-13.362,0-17.278c-11.058-6.221-44.924-38.013-47-83.628-2.3-48.149-7.373-60.129,11.979-114.5s21.656-70.5,20.735-102.749-14.745-74.182-19.813-82.937-18.43-36.86-55.752-76.025-44.694-64.506-123.023-78.79-58.516-12.9-66.81-14.283-14.283-5.069-8.293-29.95,11.058-59.9,11.058-69.113,9.676-22.578-35.479-62.664-147.9-145.6-166.794-181.539c-7.833-18.43-.922-19.812,6.45-24.881s45.155-38.7,53.448-43.311,29.028-21.195,62.2-23.038,52.987-2.3,77.868,5.068,51.144,23.96,58.977,25.8S914.7,62.841,937.74,41.646s25.8-23.5,30.87-25.111,38.243-12.671,41.008,25.572c.461,16.127-6.911,30.41,25.342,48.38s64.045,38.243,70.957,40.086,25.341,12.9,78.79-1.843,85.24-21.195,94.455-23.96,36.861-10.6,40.086,36.861S1328,217.2,1359.8,246.223c12.9,12.9,17.509,19.352,12.441,25.342s2.3,8.755,9.215,20.274,56.212,131.316,60.359,139.149,3.686,17.969,38.7,27.645,59.438,29.028,65.428,97.681,2.764,84.319,2.764,92.613,12.441,44.233-58.055,68.653-107.818,37.322-116.572,40.547-12.9,19.813-5.53,43.311,57.135,140.993,62.2,153.433,45.615,141.914,47,169.1,21.656,95.837,8.294,165.182-42.39,175.779-42.39,175.779l-60.82,161.727s-61.742,151.59-68.192,159.423-66.81,123.022-122.1,174.627S1003.628,2076.82,995.8,2077.741s-56.673-31.331-75.564-36.861-55.752-15.665-114.269-10.136-122.1,24.65-126.708,17.969,54.369-61.281-6.912-93.073-134.541-100.906-132.7-112.886,7.833-15.666,18.891-18.43,59.438-25.8,70.5-40.547c7.833-11.058-16.127-31.332-47.458-30.871s-49.3-.922-83.4,18.891c-9.676,5.99-17.509-17.509-23.959-29.028s-80.172-142.917-86.162-150.668c-7.833-10.137-8.056-17.592-32.714-2.3-17.278,10.713-85.749,26.4-219.437-8.985-70.5-18.66-155.28-21.39-108.76-41.47a134.811,134.811,0,0,0,17.185-9.328c6.047-3.8,6.911-7.257,2.764-20.043s-20.043-51.145-20.734-53.218-3.11-11.749,10.021-15.2,84.131-31,91.576-33.866c26.033-10.021,86.393-35.133,102.289-48.034,8.294-6.911,10.828-5.99,20.273,6.911s29.258,42.16,33.175,47.459S343.36,1514,347.277,1520.683s9.906,13.593,22.116,4.838,229.228-134.541,233.144-136.384,12.441-7.142,3-21.886-56.9-88.466-70.5-136.846c-1.613-8.524-23.959-3.916-56.443,13.132s-69.805,39.395-77.868,45.384-11.519,9.446-23.038-1.843-16.588-15.2-21.195-20.5-7.142-10.137,5.068-20.965,42.62-46.537,92.843-58.286,85.7-12.44,99.524-11.519,38.934-1.613,70.957,56.9,70.727,124.866,75.795,132.929,12.671,18.891,26.033,10.6S877.841,1289.152,877.841,1289.152Z"/><use id="86c4bc5d-8901-403c-8d40-b6033703d7c8" data-name="start finish line" width="200" height="103.617" transform="matrix(0.164, 0.284, -0.284, 0.164, 854.35, 1264.13)" xlink:href="#1844b857-bb9f-48f8-b0b0-d154edc33adf"/></g></g></g></svg>