<svg xmlns="http://www.w3.org/2000/svg" xmlns:xlink="http://www.w3.org/1999/xlink" width="724.362" height="1227.228" viewBox="0 0 724.362 1227.228"><defs><style>.\34 402a303-4447-426e-9719-8f6c551b3d71{fill:#00ff24;}.\31 49736cf-9e65-4cad-ae40-7039ab1accbc,.\34 402a303-4447-426e-9719-8f6c551b3d71{stroke:#000;stroke-width:5px;}.\31 49736cf-9e65-4cad-ae40-7039ab1accbc,.\32 175e57a-6899-478a-beb9-5467128c54ac,.\34 402a303-4447-426e-9719-8f6c551b3d71,.\35 7b3836e-4d29-4561-900e-5b38aaf15c08,.\37 01167b8-e829-4b5f-9972-a1e77a3277a0,.a04fa5bb-7d52-41d0-a83d-4b76825db2e9,.ccd5b8b4-1f52-487f-9b60-649ce1a235dc,.fc76264e-27b6-45d5-b3f7-689102cffc14{stroke-miterlimit:10;}.\31 49736cf-9e65-4cad-ae40-7039ab1accbc,.\32 329659c-2193-4c69-8b9b-37d838631ec9{fill:#fff;}.\32 175e57a-6899-478a-beb9-5467128c54ac,.\35 7b3836e-4d29-4561-900e-5b38aaf15c08,.a04fa5bb-7d52-41d0-a83d-4b76825db2e9,.ccd5b8b4-1f52-487f-9b60-649ce1a235dc,.fc76264e-27b6-45d5-b3f7-689102cffc14{fill:none;}.a04fa5bb-7d52-41d0-a83d-4b76825db2e9,.fc76264e-27b6-45d5-b3f7-689102cffc14{stroke:#c91d1d;}.\32 175e57a-6899-478a-beb9-5467128c54ac,.fc76264e-27b6-45d5-b3f7-689102cffc14{stroke-width:20px;}.\32 175e57a-6899-478a-beb9-5467128c54ac,.\35 7b3836e-4d29-4561-900e-5b38aaf15c08{stroke:#007fff;}.\37 01167b8-e829-4b5f-9972-a1e77a3277a0,.ccd5b8b4-1f52-487f-9b60-649ce1a235dc{stroke:#fff;}.ccd5b8b4-1f52-487f-9b60-649ce1a235dc{stroke-width:10px;}.\35 7b3836e-4d29-4561-900e-5b38aaf15c08,.a04fa5bb-7d52-41d0-a83d-4b76825db2e9{stroke-width:2px;}.\37 01167b8-e829-4b5f-9972-a1e77a3277a0{fill:#333;stroke-width:1.5px;}</style><symbol id="211f03ee-42e4-4d08-ad5a-119290af4ff7" data-name="fd103434-89f2-4089-acf9-54fed79ed404" viewBox="0 0 200 103.617"><rect class="4402a303-4447-426e-9719-8f6c551b3d71" x="2.5" y="54.074" width="195" height="47.043"/><rect class="149736cf-9e65-4cad-ae40-7039ab1accbc" x="2.5" y="2.5" width="48.75" height="48.75"/><rect class="149736cf-9e65-4cad-ae40-7039ab1accbc" x="51.25" y="2.5" width="48.75" height="48.75"/><rect class="149736cf-9e65-4cad-ae40-7039ab1accbc" x="100" y="2.5" width="48.75" height="48.75"/><rect class="149736cf-9e65-4cad-ae40-7039ab1accbc" x="148.75" y="2.5" width="48.75" height="48.75"/></symbol></defs><title>SilkieSlick_F1</title><g id="ffb4fe81-09e4-4be2-9557-5f0f3026d1aa" data-name="Layer 2"><g id="0aab8076-4186-4f00-adc6-07ff6a65dc4f" data-name="Grand Senora Desert"><g id="fb25eb5f-8c2f-451c-9fe3-ea9ce1257075" data-name="SilkieSlick_F1"><g id="5461768b-ed6f-4ee5-a826-7b39d828ff2d" data-name="Pit-Outer"><path class="fc76264e-27b6-45d5-b3f7-689102cffc14" d="M194.741,358.707c-15.95-13.743-33.953-26.768-40.792-36.763-6.329-9.249-13.108-19.309-18.167-34.166-5.994-17.607-5.938-34.815-5.528-44.832"/></g><g id="ae11950e-e3cc-4620-bb92-77d1f7a441f9" data-name="Track-Outer"><path class="2175e57a-6899-478a-beb9-5467128c54ac" d="M262.8,466.13c-7.161-9.9-18.051-28.584-27.307-42.431-9.347-13.982-22.35-34.629-38.128-60.661-.519-.856-1.167-1.927-1.278-2.111-4.539-7.506-10.06-16.709-21.4-35.946-8.721-14.791-13.053-22.2-15.231-26-4.716-8.22-7.036-12.489-12.782-22.3C126.437,242.166,101,164.99,101,164.99,84.22,110.9,77.384,102.57,69.57,95.551a61.031,61.031,0,0,0-16.009-6.416C34.648,86.8,26.386,76.651,36.287,53.062c6.5-15.476,23.049-21.614,32.281-24.659a4.9,4.9,0,0,1,6.26,3.328c2.809,10.026,9.386,33.205,14.961,50.6,3.882,12.113,11.354,40.04,35.512,101.365,21.245,53.93,33.434,79.858,40.139,93.834,16.415,34.213,40.271,83.092,84.524,134.024,19.827,22.819,39.581,41.256,49.967,50.9,5.677,5.272,17.479,16.072,67.713,57.906,15.076,12.554,27.839,23.1,37.162,30.77a7.165,7.165,0,0,0,7.8.892,40.447,40.447,0,0,0,18.283-17.916c4.872-9.741,4.481-16.117,4.473-24.02-.028-28.026-1.313-55.31-2.022-83.327-.475-18.8-1.112-28.667-1.226-35.024-.618-34.759-4.026-77.14-.875-116.98.512-6.477,2.53-17.3,10.66-23.845a25.7,25.7,0,0,1,14.813-5.233,5.544,5.544,0,0,1,5.87,5.39c.069,2.674.142,5.53.2,7.875a5.141,5.141,0,0,0,5.179,5c21.019-.131,40.729.239,65.545-.746,10-.4,154.819-14.734,167.113-89.425.654-3.975,1.218-12.369,1.5-16.834.7-11.035-3.06-18.73-14.118-18.755-22.417-.053-46.44.279-68.119.05a5.706,5.706,0,0,0-5.769,5.9c.891,27.018,1.9,58.358.3,88.421-1.154,21.683-3.391,41.593-5.6,61.291a438.494,438.494,0,0,1-14.184,65.5c-2.909,9.693-9.053,26.5-17.512,45.706-14.614,33.177-29.264,53.944-42.9,72.149a473.967,473.967,0,0,1-74.076,78.628c-14.634,12.442-26.793,24.167-35.045,31.784a53.692,53.692,0,0,0-15.41,22.882c-3.408,10.087-2.676,18.391-1.869,27.552a81.665,81.665,0,0,0,8.406,31.288c2.537,4.954,5.477,9.316,13.076,18.213,12.111,14.18,19.256,20.213,33.623,34.556,15.286,15.263,25.906,27.114,30.821,32.689,9.1,10.322,14.782,16.771,21.481,26.151a241.215,241.215,0,0,1,20.547,35.024c11.763,24.267,19.825,49.994,29.887,89.194,10.53,41.024,3.973,31.317,19.137,95.285,8.8,37.126,12.293,57.47,14.167,87.667.365,5.88,2.579,28.148-4.435,45.587-6.479,16.111-16.356,26.989-28.964,36.27-20.61,15.171-52.4,23.9-63.6,28.143a4.332,4.332,0,0,1-5.865-3.7c-.749-9.382.447-29.111,1.532-34.966,1.91-10.313,6.984-17.325,10.123-24.529,7.417-17.02,13-22,17.745-31.755,4.355-8.949,15.12-33.647,5.137-49.5-2.671-4.243-3.528-4.325-13.229-13.105-7.245-6.558-13.083-11.546-16.539-15.59-2.063-2.414-5.008-6.156-6.14-7.589-2.039-2.582-3.147-4.088-4.211-5.58a7.5,7.5,0,0,1-1.4-4.5c.1-5.812.334-13.977.9-23.685.936-16.185,2.285-27.928,2.8-32.689,2.192-20.2,2.551-44.44,3.268-92.929.5-33.947.1-40.136-4.2-48.567-4.052-7.939-8.459-11.785-36.891-32.688-35.674-26.228-46.081-32.74-60.708-46.7-10.1-9.641-17.169-17.035-19.527-19.925-6.7-8.208-15.128-13.146-14.775-45.015.212-19.127,6.036-47.635-.554-56.552-7.8-10.556-22.09-19.986-32.368-34.86-13.17-19.058-15.9-21.412-29.441-48.187-4.474-8.843-8.263-13.011-15.214-26.355C278.589,493.484,269.015,476.007,262.8,466.13Z"/></g><g id="6582bbb3-e9bd-4312-a156-0ad9544494dd" data-name="Pit-Mid"><path class="ccd5b8b4-1f52-487f-9b60-649ce1a235dc" d="M194.741,358.707c-15.95-13.743-33.953-26.768-40.792-36.763-6.329-9.249-13.108-19.309-18.167-34.166-5.994-17.607-5.938-34.815-5.528-44.832"/></g><g id="85982dfd-8d11-4812-b3db-8bda8fbb6683" data-name="Track-Mid"><path class="ccd5b8b4-1f52-487f-9b60-649ce1a235dc" d="M262.8,466.13c-7.161-9.9-18.051-28.584-27.307-42.431-9.347-13.982-22.35-34.629-38.128-60.661-.519-.856-1.167-1.927-1.278-2.111-4.539-7.506-10.06-16.709-21.4-35.946-8.721-14.791-13.053-22.2-15.231-26-4.716-8.22-7.036-12.489-12.782-22.3C126.437,242.166,101,164.99,101,164.99,84.22,110.9,77.384,102.57,69.57,95.551a61.031,61.031,0,0,0-16.009-6.416C34.648,86.8,26.386,76.651,36.287,53.062c6.5-15.476,23.049-21.614,32.281-24.659a4.9,4.9,0,0,1,6.26,3.328c2.809,10.026,9.386,33.205,14.961,50.6,3.882,12.113,11.354,40.04,35.512,101.365,21.245,53.93,33.434,79.858,40.139,93.834,16.415,34.213,40.271,83.092,84.524,134.024,19.827,22.819,39.581,41.256,49.967,50.9,5.677,5.272,17.479,16.072,67.713,57.906,15.076,12.554,27.839,23.1,37.162,30.77a7.165,7.165,0,0,0,7.8.892,40.447,40.447,0,0,0,18.283-17.916c4.872-9.741,4.481-16.117,4.473-24.02-.028-28.026-1.313-55.31-2.022-83.327-.475-18.8-1.112-28.667-1.226-35.024-.618-34.759-4.026-77.14-.875-116.98.512-6.477,2.53-17.3,10.66-23.845a25.7,25.7,0,0,1,14.813-5.233,5.544,5.544,0,0,1,5.87,5.39c.069,2.674.142,5.53.2,7.875a5.141,5.141,0,0,0,5.179,5c21.019-.131,40.729.239,65.545-.746,10-.4,154.819-14.734,167.113-89.425.654-3.975,1.218-12.369,1.5-16.834.7-11.035-3.06-18.73-14.118-18.755-22.417-.053-46.44.279-68.119.05a5.706,5.706,0,0,0-5.769,5.9c.891,27.018,1.9,58.358.3,88.421-1.154,21.683-3.391,41.593-5.6,61.291a438.494,438.494,0,0,1-14.184,65.5c-2.909,9.693-9.053,26.5-17.512,45.706-14.614,33.177-29.264,53.944-42.9,72.149a473.967,473.967,0,0,1-74.076,78.628c-14.634,12.442-26.793,24.167-35.045,31.784a53.692,53.692,0,0,0-15.41,22.882c-3.408,10.087-2.676,18.391-1.869,27.552a81.665,81.665,0,0,0,8.406,31.288c2.537,4.954,5.477,9.316,13.076,18.213,12.111,14.18,19.256,20.213,33.623,34.556,15.286,15.263,25.906,27.114,30.821,32.689,9.1,10.322,14.782,16.771,21.481,26.151a241.215,241.215,0,0,1,20.547,35.024c11.763,24.267,19.825,49.994,29.887,89.194,10.53,41.024,3.973,31.317,19.137,95.285,8.8,37.126,12.293,57.47,14.167,87.667.365,5.88,2.579,28.148-4.435,45.587-6.479,16.111-16.356,26.989-28.964,36.27-20.61,15.171-52.4,23.9-63.6,28.143a4.332,4.332,0,0,1-5.865-3.7c-.749-9.382.447-29.111,1.532-34.966,1.91-10.313,6.984-17.325,10.123-24.529,7.417-17.02,13-22,17.745-31.755,4.355-8.949,15.12-33.647,5.137-49.5-2.671-4.243-3.528-4.325-13.229-13.105-7.245-6.558-13.083-11.546-16.539-15.59-2.063-2.414-5.008-6.156-6.14-7.589-2.039-2.582-3.147-4.088-4.211-5.58a7.5,7.5,0,0,1-1.4-4.5c.1-5.812.334-13.977.9-23.685.936-16.185,2.285-27.928,2.8-32.689,2.192-20.2,2.551-44.44,3.268-92.929.5-33.947.1-40.136-4.2-48.567-4.052-7.939-8.459-11.785-36.891-32.688-35.674-26.228-46.081-32.74-60.708-46.7-10.1-9.641-17.169-17.035-19.527-19.925-6.7-8.208-15.128-13.146-14.775-45.015.212-19.127,6.036-47.635-.554-56.552-7.8-10.556-22.09-19.986-32.368-34.86-13.17-19.058-15.9-21.412-29.441-48.187-4.474-8.843-8.263-13.011-15.214-26.355C278.589,493.484,269.015,476.007,262.8,466.13Z"/></g><g id="14142a45-dc6e-4e38-925b-9dd77df841e6" data-name="Pit-Inner"><path class="a04fa5bb-7d52-41d0-a83d-4b76825db2e9" d="M194.741,358.707c-15.95-13.743-33.953-26.768-40.792-36.763-6.329-9.249-13.108-19.309-18.167-34.166-5.994-17.607-5.938-34.815-5.528-44.832"/></g><g id="3e2d3087-086c-4d20-8bb4-12f8cb69a378" data-name="Track-Inner"><path class="57b3836e-4d29-4561-900e-5b38aaf15c08" d="M262.8,466.13c-7.161-9.9-18.051-28.584-27.307-42.431-9.347-13.982-22.35-34.629-38.128-60.661-.519-.856-1.167-1.927-1.278-2.111-4.539-7.506-10.06-16.709-21.4-35.946-8.721-14.791-13.053-22.2-15.231-26-4.716-8.22-7.036-12.489-12.782-22.3C126.437,242.166,101,164.99,101,164.99,84.22,110.9,77.384,102.57,69.57,95.551a61.031,61.031,0,0,0-16.009-6.416C34.648,86.8,26.386,76.651,36.287,53.062c6.5-15.476,23.049-21.614,32.281-24.659a4.9,4.9,0,0,1,6.26,3.328c2.809,10.026,9.386,33.205,14.961,50.6,3.882,12.113,11.354,40.04,35.512,101.365,21.245,53.93,33.434,79.858,40.139,93.834,16.415,34.213,40.271,83.092,84.524,134.024,19.827,22.819,39.581,41.256,49.967,50.9,5.677,5.272,17.479,16.072,67.713,57.906,15.076,12.554,27.839,23.1,37.162,30.77a7.165,7.165,0,0,0,7.8.892,40.447,40.447,0,0,0,18.283-17.916c4.872-9.741,4.481-16.117,4.473-24.02-.028-28.026-1.313-55.31-2.022-83.327-.475-18.8-1.112-28.667-1.226-35.024-.618-34.759-4.026-77.14-.875-116.98.512-6.477,2.53-17.3,10.66-23.845a25.7,25.7,0,0,1,14.813-5.233,5.544,5.544,0,0,1,5.87,5.39c.069,2.674.142,5.53.2,7.875a5.141,5.141,0,0,0,5.179,5c21.019-.131,40.729.239,65.545-.746,10-.4,154.819-14.734,167.113-89.425.654-3.975,1.218-12.369,1.5-16.834.7-11.035-3.06-18.73-14.118-18.755-22.417-.053-46.44.279-68.119.05a5.706,5.706,0,0,0-5.769,5.9c.891,27.018,1.9,58.358.3,88.421-1.154,21.683-3.391,41.593-5.6,61.291a438.494,438.494,0,0,1-14.184,65.5c-2.909,9.693-9.053,26.5-17.512,45.706-14.614,33.177-29.264,53.944-42.9,72.149a473.967,473.967,0,0,1-74.076,78.628c-14.634,12.442-26.793,24.167-35.045,31.784a53.692,53.692,0,0,0-15.41,22.882c-3.408,10.087-2.676,18.391-1.869,27.552a81.665,81.665,0,0,0,8.406,31.288c2.537,4.954,5.477,9.316,13.076,18.213,12.111,14.18,19.256,20.213,33.623,34.556,15.286,15.263,25.906,27.114,30.821,32.689,9.1,10.322,14.782,16.771,21.481,26.151a241.215,241.215,0,0,1,20.547,35.024c11.763,24.267,19.825,49.994,29.887,89.194,10.53,41.024,3.973,31.317,19.137,95.285,8.8,37.126,12.293,57.47,14.167,87.667.365,5.88,2.579,28.148-4.435,45.587-6.479,16.111-16.356,26.989-28.964,36.27-20.61,15.171-52.4,23.9-63.6,28.143a4.332,4.332,0,0,1-5.865-3.7c-.749-9.382.447-29.111,1.532-34.966,1.91-10.313,6.984-17.325,10.123-24.529,7.417-17.02,13-22,17.745-31.755,4.355-8.949,15.12-33.647,5.137-49.5-2.671-4.243-3.528-4.325-13.229-13.105-7.245-6.558-13.083-11.546-16.539-15.59-2.063-2.414-5.008-6.156-6.14-7.589-2.039-2.582-3.147-4.088-4.211-5.58a7.5,7.5,0,0,1-1.4-4.5c.1-5.812.334-13.977.9-23.685.936-16.185,2.285-27.928,2.8-32.689,2.192-20.2,2.551-44.44,3.268-92.929.5-33.947.1-40.136-4.2-48.567-4.052-7.939-8.459-11.785-36.891-32.688-35.674-26.228-46.081-32.74-60.708-46.7-10.1-9.641-17.169-17.035-19.527-19.925-6.7-8.208-15.128-13.146-14.775-45.015.212-19.127,6.036-47.635-.554-56.552-7.8-10.556-22.09-19.986-32.368-34.86-13.17-19.058-15.9-21.412-29.441-48.187-4.474-8.843-8.263-13.011-15.214-26.355C278.589,493.484,269.015,476.007,262.8,466.13Z"/><path class="57b3836e-4d29-4561-900e-5b38aaf15c08" d="M533.478,263.278c10-.4,154.818-14.735,167.112-89.426"/></g><g id="ef32a25b-2828-4ef2-ad0b-ac1da6646649" data-name="Crossover-Outer"><path class="2175e57a-6899-478a-beb9-5467128c54ac" d="M533.478,263.278c10-.4,154.819-14.734,167.112-89.425"/></g><g id="ddffdc8e-dbb3-463e-87a2-e529fa6d4efb" data-name="Crossover-Mid"><path class="ccd5b8b4-1f52-487f-9b60-649ce1a235dc" d="M533.418,263.206c10-.4,154.879-14.662,167.172-89.353"/></g><g id="87e6090a-7d22-4352-ab21-8056740613b9" data-name="Crossover-Inner"><path class="57b3836e-4d29-4561-900e-5b38aaf15c08" d="M533.394,263.207c10-.4,155.026-14.632,167.32-89.322"/></g><g id="61cce382-2b83-45e1-92d6-e4ef2e3a4ae9" data-name="Corner Numbers"><g id="aeccefae-4c87-499f-9329-32f38f84cb34" data-name="1"><path class="701167b8-e829-4b5f-9972-a1e77a3277a0" d="M67.041,115.193a9.494,9.494,0,1,1-9.772-9.207h0c6.9-.2,9.246-1.328,9.915-.7S66.838,108.318,67.041,115.193Z"/><path class="2329659c-2193-4c69-8b9b-37d838631ec9" d="M57.232,111.031H57.2l-1.882,1.057-.3-1.121,2.365-1.318,1.261-.022.187,10.928-1.429.024Z"/></g><g id="f5bf33c0-c291-465f-816f-2f3e4a790fab" data-name="2"><path class="701167b8-e829-4b5f-9972-a1e77a3277a0" d="M17.325,81.5a9.494,9.494,0,1,1-.757-13.4h0c5.148,4.6,7.623,5.4,7.676,6.314S21.907,76.367,17.325,81.5Z"/><path class="2329659c-2193-4c69-8b9b-37d838631ec9" d="M6.6,80.49v-.908l1.16-1.127c2.792-2.656,4.053-4.068,4.071-5.716A1.95,1.95,0,0,0,9.664,70.6a3.719,3.719,0,0,0-2.321.925l-.47-1.043a4.786,4.786,0,0,1,3.093-1.109,3.075,3.075,0,0,1,3.346,3.179c0,2.017-1.463,3.647-3.768,5.867l-.874.807v.034h4.91v1.227Z"/></g><g id="ed358817-0e45-4fdb-bc75-47908cb39f34" data-name="3"><path class="701167b8-e829-4b5f-9972-a1e77a3277a0" d="M75.755,11.9a9.494,9.494,0,1,1,11,7.7h0c-6.8,1.2-8.956,2.653-9.71,2.127S76.952,18.672,75.755,11.9Z"/><path class="2329659c-2193-4c69-8b9b-37d838631ec9" d="M81.647,14.332a4.961,4.961,0,0,0,2.421.692c1.9,0,2.49-1.209,2.474-2.116-.016-1.531-1.394-2.188-2.823-2.189H82.9V9.608h.824c1.076,0,2.439-.553,2.44-1.847,0-.875-.553-1.649-1.915-1.65a4.014,4.014,0,0,0-2.187.72l-.386-1.076a5.2,5.2,0,0,1,2.86-.838c2.152,0,3.126,1.281,3.125,2.61a2.714,2.714,0,0,1-2.02,2.57v.034a2.847,2.847,0,0,1,2.435,2.81c0,1.749-1.365,3.278-3.989,3.276a5.569,5.569,0,0,1-2.841-.743Z"/></g><g id="042eb9a9-c79e-4b74-bc48-fc4d69e7334c" data-name="4"><path class="701167b8-e829-4b5f-9972-a1e77a3277a0" d="M410.346,570.3a9.494,9.494,0,1,1-12.442-5.046h0c6.358-2.689,8.138-4.584,8.99-4.239S407.669,563.962,410.346,570.3Z"/><path class="2329659c-2193-4c69-8b9b-37d838631ec9" d="M402.268,578.678V575.7l-5.079,0v-.976l4.873-6.98h1.6l0,6.793h1.53V575.7h-1.53l0,2.976Zm0-4.137,0-3.649q0-.857.049-1.715h-.05c-.336.639-.6,1.11-.907,1.615l-2.671,3.717v.033Z"/></g><g id="39ea2895-1235-4aff-8a6b-aff9a47b6241" data-name="5"><path class="701167b8-e829-4b5f-9972-a1e77a3277a0" d="M414.353,531.411a9.494,9.494,0,1,1,6.414-11.795h0c1.957,6.62,3.64,8.6,3.2,9.41S420.95,529.464,414.353,531.411Z"/><path class="2329659c-2193-4c69-8b9b-37d838631ec9" d="M414.9,517.867l-4.17,0-.418,2.809a5.762,5.762,0,0,1,.891-.069,4.628,4.628,0,0,1,2.355.587A3.115,3.115,0,0,1,415.125,524a3.792,3.792,0,0,1-4.067,3.736,5.345,5.345,0,0,1-2.724-.67l.369-1.127a4.889,4.889,0,0,0,2.338.6,2.411,2.411,0,0,0,2.587-2.373c-.018-1.412-.96-2.42-3.146-2.419a11.526,11.526,0,0,0-1.513.119l.7-5.246,5.229,0Z"/></g><g id="a48fb1e3-0009-4094-8aab-86508e31d357" data-name="6"><path class="701167b8-e829-4b5f-9972-a1e77a3277a0" d="M418.121,259.36a9.494,9.494,0,1,1,6.414-11.8h0c1.956,6.62,3.64,8.6,3.2,9.41S424.717,257.412,418.121,259.36Z"/><path class="2329659c-2193-4c69-8b9b-37d838631ec9" d="M418.383,245.614a5.354,5.354,0,0,0-1.11.068,4.443,4.443,0,0,0-3.8,3.887h.05a3.332,3.332,0,0,1,5.938,2.266,3.655,3.655,0,0,1-3.63,3.853c-2.336,0-3.868-1.813-3.871-4.654a6.877,6.877,0,0,1,1.846-4.929,5.951,5.951,0,0,1,3.5-1.617,7.156,7.156,0,0,1,1.076-.085Zm-.416,6.306a2.221,2.221,0,0,0-2.255-2.5,2.439,2.439,0,0,0-2.118,1.347,1.259,1.259,0,0,0-.167.656c.035,1.8.86,3.127,2.407,3.126C417.112,254.544,417.968,253.484,417.967,251.92Z"/></g><g id="29fddbd7-2cd1-4ccb-ab21-1329f12f5f25" data-name="7"><path class="701167b8-e829-4b5f-9972-a1e77a3277a0" d="M469.332,232.872a9.494,9.494,0,1,1,8.533,10.366h0c-6.871-.667-9.34.151-9.924-.558S468.666,239.717,469.332,232.872Z"/><path class="2329659c-2193-4c69-8b9b-37d838631ec9" d="M482.005,229.181l0,.975-4.738,9.964-1.53,0,4.722-9.678v-.034l-5.347.011,0-1.227Z"/></g><g id="4783c457-34d0-4e7e-a80c-61201a9367d9" data-name="8"><path class="701167b8-e829-4b5f-9972-a1e77a3277a0" d="M463.953,279.517a9.494,9.494,0,1,1-12.111-5.8h0c6.51-2.3,8.4-4.08,9.232-3.683S461.667,273.031,463.953,279.517Z"/><path class="2329659c-2193-4c69-8b9b-37d838631ec9" d="M451.385,285.264a3.123,3.123,0,0,1,2.158-2.933l-.017-.051a2.707,2.707,0,0,1-1.74-2.449c-.007-1.732,1.452-2.914,3.369-2.92,2.119-.008,3.183,1.316,3.188,2.679a2.776,2.776,0,0,1-1.79,2.562v.05a3.031,3.031,0,0,1,2.213,2.817c.006,1.9-1.619,3.184-3.7,3.191C452.774,288.219,451.391,286.861,451.385,285.264Zm5.885-.088c0-1.328-.932-1.964-2.413-2.379a2.377,2.377,0,0,0-1.96,2.26,2.022,2.022,0,0,0,2.194,2.077A1.978,1.978,0,0,0,457.27,285.176Zm-4.089-5.451c0,1.093.83,1.679,2.092,2.011a2.153,2.153,0,0,0,1.658-1.99,1.7,1.7,0,0,0-1.856-1.776A1.738,1.738,0,0,0,453.181,279.725Z"/></g><g id="bc3ade04-e8bc-48c9-9be7-085b27e0d897" data-name="9"><path class="701167b8-e829-4b5f-9972-a1e77a3277a0" d="M697.569,216.539a9.493,9.493,0,1,1-10.552,8.3h0c.818-6.855.055-9.341.777-9.909S690.74,215.722,697.569,216.539Z"/><path class="2329659c-2193-4c69-8b9b-37d838631ec9" d="M693.621,230.16a6.192,6.192,0,0,0,1.193-.052,4.127,4.127,0,0,0,2.287-1.062,4.8,4.8,0,0,0,1.443-2.91h-.05a3.207,3.207,0,0,1-2.572,1.18,3.168,3.168,0,0,1-3.232-3.344,3.748,3.748,0,0,1,3.73-3.887c2.236,0,3.617,1.812,3.619,4.6a6.907,6.907,0,0,1-1.879,5.13,5.466,5.466,0,0,1-3.177,1.466,6.884,6.884,0,0,1-1.361.085Zm.532-6.29a2.1,2.1,0,0,0,2.1,2.319,2.446,2.446,0,0,0,2.152-1.146.984.984,0,0,0,.133-.538c0-1.866-.692-3.295-2.239-3.294C695.042,221.212,694.152,222.323,694.153,223.87Z"/></g><g id="d12df00b-ba47-448f-ac83-ec978f925d47" data-name="10"><path class="701167b8-e829-4b5f-9972-a1e77a3277a0" d="M704.629,127.415a9.494,9.494,0,1,1,9.793,9.185h0c-6.9.221-9.243,1.349-9.913.72S704.847,134.289,704.629,127.415Z"/><path class="2329659c-2193-4c69-8b9b-37d838631ec9" d="M709.28,124.088h-.03l-1.719.929L707.272,124l2.159-1.158h1.141l.007,9.889h-1.293Z"/><path class="2329659c-2193-4c69-8b9b-37d838631ec9" d="M720.754,127.67c0,3.362-1.243,5.219-3.434,5.22-1.932,0-3.242-1.808-3.275-5.078,0-3.317,1.427-5.143,3.435-5.145C719.564,122.666,720.752,124.521,720.754,127.67Zm-5.37.156c0,2.571.794,4.031,2.012,4.03,1.369,0,2.021-1.6,2.02-4.124,0-2.434-.627-4.031-2.012-4.03C716.233,123.7,715.382,125.133,715.384,127.826Z"/></g><g id="8bab3248-c626-4018-9448-dc231cb682fa" data-name="11"><path class="701167b8-e829-4b5f-9972-a1e77a3277a0" d="M599.693,133.885a9.494,9.494,0,1,1,9.186-9.792h0c.22,6.9,1.348,9.243.719,9.914S606.567,133.667,599.693,133.885Z"/><path class="2329659c-2193-4c69-8b9b-37d838631ec9" d="M595.624,120.855h-.031l-1.718.93-.26-1.02,2.159-1.158h1.142l.007,9.888H595.63Z"/><path class="2329659c-2193-4c69-8b9b-37d838631ec9" d="M603.429,120.849h-.03l-1.719.93-.259-1.019,2.159-1.158h1.141l.008,9.889h-1.293Z"/></g><g id="64f055ae-f8b1-48ef-b9bd-18c65873ebaa" data-name="12"><path class="701167b8-e829-4b5f-9972-a1e77a3277a0" d="M424.239,637.756a9.494,9.494,0,1,1,.429,13.42h0c-5.035-4.723-7.49-5.583-7.519-6.5S419.532,642.771,424.239,637.756Z"/><path class="2329659c-2193-4c69-8b9b-37d838631ec9" d="M426.033,640.406H426l-1.718.929-.26-1.019,2.16-1.158h1.141l.007,9.888H426.04Z"/><path class="2329659c-2193-4c69-8b9b-37d838631ec9" d="M430.939,649.043v-.821l1.049-1.02c2.524-2.406,3.663-3.685,3.678-5.175A1.765,1.765,0,0,0,433.7,640.1a3.375,3.375,0,0,0-2.1.838l-.426-.942a4.33,4.33,0,0,1,2.8-1.006A2.781,2.781,0,0,1,437,641.858c0,1.826-1.32,3.3-3.4,5.312l-.791.731v.031l4.442,0v1.11Z"/></g><g id="5f276aba-7ed0-466a-b552-67e4ac0e164e" data-name="13"><path class="701167b8-e829-4b5f-9972-a1e77a3277a0" d="M546.1,802.1a9.494,9.494,0,1,1,6.338,11.837h0c-6.607-2-9.189-1.68-9.623-2.49S544.1,808.686,546.1,802.1Z"/><path class="2329659c-2193-4c69-8b9b-37d838631ec9" d="M550.706,801.423h-.03l-1.72.928-.258-1.02,2.16-1.155H552v9.888h-1.293Z"/><path class="2329659c-2193-4c69-8b9b-37d838631ec9" d="M555.924,808.528a4.472,4.472,0,0,0,2.191.624c1.719,0,2.252-1.1,2.237-1.916-.015-1.385-1.263-1.978-2.556-1.978h-.745v-1h.745c.974,0,2.206-.5,2.206-1.673,0-.791-.5-1.49-1.734-1.491a3.621,3.621,0,0,0-1.977.655l-.351-.974a4.7,4.7,0,0,1,2.587-.76c1.947,0,2.829,1.156,2.829,2.358a2.454,2.454,0,0,1-1.826,2.327v.03a2.576,2.576,0,0,1,2.206,2.541c0,1.582-1.233,2.967-3.606,2.966a5.027,5.027,0,0,1-2.57-.669Z"/></g><g id="8834e040-6588-4a54-a2c0-be5ed096d38e" data-name="14"><path class="701167b8-e829-4b5f-9972-a1e77a3277a0" d="M613.944,1138.307a9.494,9.494,0,1,1-6.98,11.47h0c-1.632-6.708-3.217-8.769-2.74-9.555S607.261,1139.932,613.944,1138.307Z"/><path class="2329659c-2193-4c69-8b9b-37d838631ec9" d="M611.187,1143.516h-.03l-1.719.929-.259-1.019,2.159-1.157h1.142l0,9.889h-1.293Z"/><path class="2329659c-2193-4c69-8b9b-37d838631ec9" d="M620.227,1152.155v-2.693h-4.6v-.882l4.411-6.315h1.445l0,6.146h1.384v1.049h-1.385v2.693Zm0-3.742v-3.3q0-.777.045-1.552h-.046c-.305.578-.548,1-.822,1.46l-2.418,3.363v.031Z"/></g><g id="bd89ad7b-80a8-4573-b431-2bf3baef0388" data-name="15"><path class="701167b8-e829-4b5f-9972-a1e77a3277a0" d="M500.809,1214.584a9.494,9.494,0,1,1-11.584-6.789h0c6.679-1.743,8.715-3.361,9.508-2.9S499.074,1207.929,500.809,1214.584Z"/><path class="2329659c-2193-4c69-8b9b-37d838631ec9" d="M487.222,1212.911h-.03l-1.7.958-.276-1.016,2.14-1.192,1.141-.019.166,9.887-1.293.022Z"/><path class="2329659c-2193-4c69-8b9b-37d838631ec9" d="M498.022,1212.608l-3.773.063-.338,2.547a5.44,5.44,0,0,1,.805-.075,4.2,4.2,0,0,1,2.139.5,2.821,2.821,0,0,1,1.458,2.517,3.432,3.432,0,0,1-3.625,3.439,4.83,4.83,0,0,1-2.474-.568l.317-1.025a4.423,4.423,0,0,0,2.124.513,2.182,2.182,0,0,0,2.306-2.184c-.037-1.278-.9-2.176-2.881-2.143a10.315,10.315,0,0,0-1.368.129l.56-4.756,4.73-.08Z"/></g><g id="d9ed2e8d-5da3-4c51-b7f7-b3c9ad9a7b2e" data-name="16"><path class="701167b8-e829-4b5f-9972-a1e77a3277a0" d="M495.619,1123.031a9.494,9.494,0,1,1,6.789-11.583h0c1.743,6.68,3.362,8.715,2.9,9.508S502.274,1121.3,495.619,1123.031Z"/><path class="2329659c-2193-4c69-8b9b-37d838631ec9" d="M488.951,1110.856h-.03l-1.7.956-.276-1.014,2.14-1.193,1.141-.019.166,9.887-1.293.021Z"/><path class="2329659c-2193-4c69-8b9b-37d838631ec9" d="M499.489,1110.375a4.813,4.813,0,0,0-1,.077,4.021,4.021,0,0,0-3.379,3.572h.046a3.014,3.014,0,0,1,5.4,1.963,3.307,3.307,0,0,1-3.227,3.539c-2.115.035-3.527-1.584-3.57-4.155a6.217,6.217,0,0,1,1.6-4.484,5.382,5.382,0,0,1,3.14-1.514,6.468,6.468,0,0,1,.972-.092Zm-.285,5.71a2.009,2.009,0,0,0-2.076-2.232,2.205,2.205,0,0,0-1.9,1.249,1.147,1.147,0,0,0-.142.6c.058,1.627.824,2.816,2.223,2.792C498.468,1118.471,499.228,1117.5,499.2,1116.085Z"/></g><g id="ab4a73fd-12ea-4e13-aaf0-e648c8cfedcc" data-name="17"><path class="701167b8-e829-4b5f-9972-a1e77a3277a0" d="M550.184,1051.206a9.494,9.494,0,1,1,3.39,12.992h0c-5.956-3.49-8.54-3.785-8.772-4.674S546.705,1057.139,550.184,1051.206Z"/><path class="2329659c-2193-4c69-8b9b-37d838631ec9" d="M553.381,1052.84h-.03l-1.7.957-.276-1.015,2.141-1.193,1.141-.019.166,9.887-1.293.022Z"/><path class="2329659c-2193-4c69-8b9b-37d838631ec9" d="M564.678,1051.4l.015.883-4.153,9.076-1.384.023,4.142-8.818v-.03l-4.838.081-.018-1.111Z"/></g><g id="bec40d74-8381-4956-b029-1cf36f1f976d" data-name="18"><path class="701167b8-e829-4b5f-9972-a1e77a3277a0" d="M475.962,1020.18a9.494,9.494,0,1,1-3.39-12.991h0c5.956,3.491,8.54,3.785,8.772,4.675S479.441,1014.247,475.962,1020.18Z"/><path class="2329659c-2193-4c69-8b9b-37d838631ec9" d="M463.426,1011.739h-.03l-1.7.957-.276-1.015,2.141-1.192,1.141-.02.166,9.888-1.293.022Z"/><path class="2329659c-2193-4c69-8b9b-37d838631ec9" d="M468.307,1017.788a2.823,2.823,0,0,1,1.917-2.679l-.015-.045a2.45,2.45,0,0,1-1.6-2.195,2.769,2.769,0,0,1,3.013-2.683c1.916-.032,2.895,1.153,2.916,2.386a2.515,2.515,0,0,1-1.59,2.339v.045a2.743,2.743,0,0,1,2.036,2.522c.029,1.72-1.428,2.9-3.314,2.933C469.6,1020.445,468.331,1019.234,468.307,1017.788Zm5.322-.15c-.02-1.2-.866-1.766-2.211-2.123a2.15,2.15,0,0,0-1.746,2.067,1.83,1.83,0,0,0,2.01,1.854A1.789,1.789,0,0,0,473.629,1017.638Zm-3.764-4.881c.017.988.771,1.508,1.917,1.793a1.948,1.948,0,0,0,1.476-1.82,1.537,1.537,0,0,0-1.7-1.584A1.573,1.573,0,0,0,469.865,1012.757Z"/></g><g id="0aed365e-6b3f-4aee-bd0d-5121e569bf1c" data-name="19"><path class="701167b8-e829-4b5f-9972-a1e77a3277a0" d="M480.853,821.747a9.494,9.494,0,1,1-6.952-11.486h0c6.7,1.649,9.264,1.194,9.741,1.98S482.5,815.069,480.853,821.747Z"/><path class="2329659c-2193-4c69-8b9b-37d838631ec9" d="M467.481,815.757h-.03l-1.72.927-.258-1.02,2.161-1.155h1.141l0,9.888h-1.293Z"/><path class="2329659c-2193-4c69-8b9b-37d838631ec9" d="M473.154,823.457a5.583,5.583,0,0,0,1.08-.045,3.729,3.729,0,0,0,2.069-.958,4.334,4.334,0,0,0,1.31-2.631h-.046a2.9,2.9,0,0,1-2.328,1.064,2.865,2.865,0,0,1-2.92-3.029,3.39,3.39,0,0,1,3.379-3.512c2.024,0,3.271,1.645,3.269,4.17a6.249,6.249,0,0,1-1.706,4.639,4.94,4.94,0,0,1-2.875,1.322,6.261,6.261,0,0,1-1.233.076Zm.489-5.69a1.9,1.9,0,0,0,1.9,2.1,2.213,2.213,0,0,0,1.948-1.034.9.9,0,0,0,.122-.486c0-1.689-.623-2.982-2.023-2.983C474.45,815.364,473.644,816.368,473.643,817.767Z"/></g><g id="4d90f668-a91c-4ac2-88e7-07a749b00be4" data-name="20"><path class="701167b8-e829-4b5f-9972-a1e77a3277a0" d="M347.017,694.557a9.494,9.494,0,1,1-2.157-13.252h0c5.6,4.034,8.147,4.569,8.295,5.476S351.037,688.976,347.017,694.557Z"/><path class="2329659c-2193-4c69-8b9b-37d838631ec9" d="M332.917,693.938v-.821l1.051-1.019c2.529-2.4,3.671-3.676,3.689-5.167A1.764,1.764,0,0,0,335.7,685a3.373,3.373,0,0,0-2.1.834l-.424-.943a4.337,4.337,0,0,1,2.8-1A2.783,2.783,0,0,1,339,686.765c0,1.826-1.328,3.3-3.415,5.305l-.792.729v.031l4.442.006,0,1.11Z"/><path class="2329659c-2193-4c69-8b9b-37d838631ec9" d="M347.3,688.906c0,3.362-1.254,5.217-3.445,5.214-1.932,0-3.238-1.815-3.264-5.085,0-3.317,1.437-5.141,3.445-5.138C346.122,683.9,347.307,685.757,347.3,688.906Zm-5.371.146c0,2.57.786,4.032,2,4.033,1.369,0,2.026-1.594,2.029-4.119,0-2.434-.618-4.033-2-4.035C342.789,684.93,341.935,686.359,341.931,689.052Z"/></g><g id="46285c23-cd4e-4a05-81ec-527b3c305b6f" data-name="21"><path class="701167b8-e829-4b5f-9972-a1e77a3277a0" d="M348.017,624.009a9.494,9.494,0,1,1-4.158-12.766h0c6.152,3.129,8.749,3.27,9.034,4.143S351.137,617.879,348.017,624.009Z"/><path class="2329659c-2193-4c69-8b9b-37d838631ec9" d="M333.806,623.982v-.821l1.05-1.02c2.525-2.4,3.666-3.681,3.682-5.172a1.764,1.764,0,0,0-1.963-1.932,3.366,3.366,0,0,0-2.1.837l-.426-.943a4.332,4.332,0,0,1,2.8-1,2.782,2.782,0,0,1,3.027,2.875c0,1.825-1.323,3.3-3.408,5.309l-.791.73v.031h4.443v1.11Z"/><path class="2329659c-2193-4c69-8b9b-37d838631ec9" d="M344.518,615.341h-.031l-1.719.928-.259-1.019,2.16-1.156h1.142v9.888h-1.293Z"/></g></g><g id="48cc6a0c-e20b-4db6-b7d4-652746d41811" data-name="Start-Finish Line"><use width="200" height="103.617" transform="translate(276.564 450.564) rotate(146.251) scale(0.197)" xlink:href="#211f03ee-42e4-4d08-ad5a-119290af4ff7"/></g></g></g></g></svg>