<svg xmlns="http://www.w3.org/2000/svg" xmlns:xlink="http://www.w3.org/1999/xlink" width="1113.372" height="1360.74" viewBox="0 0 1113.372 1360.74"><defs><style>.\36 fa5ad92-d782-44c4-a5f5-6b30c5a95914{fill:#00ff24;}.\36 fa5ad92-d782-44c4-a5f5-6b30c5a95914,.\39 55bf9ae-10e1-4bd1-a5ce-72d163580548{stroke:#000;stroke-width:5px;}.\32 9a5ba19-0b92-429b-914a-04c00f291b64,.\36 fa5ad92-d782-44c4-a5f5-6b30c5a95914,.\39 55bf9ae-10e1-4bd1-a5ce-72d163580548,.a58be43c-1787-4d3a-af12-d22c97dfb6c3,.fe2fa077-a0ef-41a0-8b94-56368707e150{stroke-miterlimit:10;}.\39 55bf9ae-10e1-4bd1-a5ce-72d163580548{fill:#fff;}.\32 9a5ba19-0b92-429b-914a-04c00f291b64,.a58be43c-1787-4d3a-af12-d22c97dfb6c3,.fe2fa077-a0ef-41a0-8b94-56368707e150,.pit-inner,.track-inner,.track-mid,.track-outer{fill:none;}.a58be43c-1787-4d3a-af12-d22c97dfb6c3,.fe2fa077-a0ef-41a0-8b94-56368707e150,.pit-inner{stroke:#c91c1c;}.fe2fa077-a0ef-41a0-8b94-56368707e150,.track-outer{stroke-width:20px;}.\32 9a5ba19-0b92-429b-914a-04c00f291b64,.track-mid{stroke:#fff;}.\32 9a5ba19-0b92-429b-914a-04c00f291b64{stroke-width:12px;}.a58be43c-1787-4d3a-af12-d22c97dfb6c3,.pit-inner,.track-inner{stroke-width:2px;}.pit-inner,.track-inner,.track-mid,.track-outer{stroke-linejoin:round;}.track-mid{stroke-width:11px;}.track-inner,.track-outer{stroke:#0080ff;}</style><symbol id="0407657c-ef64-4b6e-b13e-751f12552f20" data-name="start finish line" viewBox="0 0 200 103.617"><rect class="6fa5ad92-d782-44c4-a5f5-6b30c5a95914" x="2.5" y="2.5" width="195" height="47.043"/><rect class="955bf9ae-10e1-4bd1-a5ce-72d163580548" x="2.5" y="52.367" width="48.75" height="48.75"/><rect class="955bf9ae-10e1-4bd1-a5ce-72d163580548" x="51.25" y="52.367" width="48.75" height="48.75"/><rect class="955bf9ae-10e1-4bd1-a5ce-72d163580548" x="100" y="52.367" width="48.75" height="48.75"/><rect class="955bf9ae-10e1-4bd1-a5ce-72d163580548" x="148.75" y="52.367" width="48.75" height="48.75"/></symbol></defs><title>Banham_canyon_Redux</title><g id="29e2bcf8-47b0-4346-a956-6e74a8ccb05c" data-name="Layer 2"><g id="391f918e-4b96-4f9c-ada4-a23a392fa66f" data-name="Hills"><g id="b023adfd-666c-4e3a-8c7b-376a13e5d306" data-name="Banham_canyon_Redux"><g id="46e7c049-7fcc-47b8-bf93-70c20b5e957d" data-name="Pit-outer"><path class="fe2fa077-a0ef-41a0-8b94-56368707e150" d="M658.9,1232.926c47.9-1.568,76.269,13.568,79.6,14.4s17.667,10,19.5-2-9.833-36.333-11.333-38.5-2.25-10.072-.25-13.9c10-24.6,59.5-70.845,111.75-43.1,5.065,2.69,9.166,13.834,7.166,21.167s-7.666,18.667-7.333,22.333-3.437,24.334,7.333,25.667c16.834,2.083,14-27,23.667-36s17-2.333,19,0,34.223,25.272,34.223,25.272"/><path class="29a5ba19-0b92-429b-914a-04c00f291b64" d="M658.9,1232.926c47.9-1.568,76.269,13.568,79.6,14.4s17.667,10,19.5-2-9.833-36.333-11.333-38.5-2.25-10.072-.25-13.9c10-24.6,59.5-70.845,111.75-43.1,5.065,2.69,9.166,13.834,7.166,21.167s-7.666,18.667-7.333,22.333-3.437,24.334,7.333,25.667c16.834,2.083,14-27,23.667-36s17-2.333,19,0,34.223,25.272,34.223,25.272"/><path class="a58be43c-1787-4d3a-af12-d22c97dfb6c3" d="M658.9,1232.926c47.9-1.568,76.269,13.568,79.6,14.4s17.667,10,19.5-2-9.833-36.333-11.333-38.5-2.25-10.072-.25-13.9c10-24.6,59.5-70.845,111.75-43.1,5.065,2.69,9.166,13.834,7.166,21.167s-7.666,18.667-7.333,22.333-3.437,24.334,7.333,25.667c16.834,2.083,14-27,23.667-36s17-2.333,19,0,34.223,25.272,34.223,25.272"/></g><path id="d4cd687c-0d40-4dfb-867b-cfb405b1e7f9" data-name="Pit-mid" class="track-mid" d="M658.9,1232.926c47.9-1.568,76.269,13.568,79.6,14.4s17.667,10,19.5-2-9.833-36.333-11.333-38.5-2.25-10.072-.25-13.9c10-24.6,59.5-70.845,111.75-43.1,5.065,2.69,9.166,13.834,7.166,21.167s-7.666,18.667-7.333,22.333-3.437,24.334,7.333,25.667c16.834,2.083,14-27,23.667-36s17-2.333,19,0,34.223,25.272,34.223,25.272"/><path id="77538911-eff9-4b81-b062-2fe29c367a87" data-name="Pit-inner" class="pit-inner" d="M658.9,1232.926c47.9-1.568,76.269,13.568,79.6,14.4s17.667,10,19.5-2-9.833-36.333-11.333-38.5-2.25-10.072-.25-13.9c10-24.6,59.5-70.845,111.75-43.1,5.065,2.69,9.166,13.834,7.166,21.167s-7.666,18.667-7.333,22.333-3.437,24.334,7.333,25.667c16.834,2.083,14-27,23.667-36s17-2.333,19,0,34.223,25.272,34.223,25.272"/><path id="1e49015f-28bd-45b0-97e5-9f1ae8434bbd" data-name="Track-outer" class="track-outer" d="M912.667,525.077s-50,23.75-67,91-16.5,76.25-12.75,90.75,10,30.25,9.25,56.75,11.75,70.75,19.25,81.5,25.25,41,29.5,44.25,50.75,35,55.25,39.5,52.25,44,53.75,45.75,50,47.5,52.5,51.75,40.25,66.25,42.25,68.75,16.5,21.25-3.75,54.5-3.917,56.417-3.917,56.417,10.667,13.333,13,16.667,5.378,17.6,1.561,22c-7.228,8.333-21.894,23.333-35.228,40.333s-39,49.667-42,53.333-12.666,14.667-23.666,12S980,1314.661,983,1298.661s17-36,16-41.334-1.667-16-25-23.333-46.667-46.333-50.333-52.333-12.655-32.525-39.667-43.667c-26.667-11-31.667-21-74-16.667-44.421,4.547-67.333,38.334-76.333,50.334s-14.667,40.333-19.334,43.333-11.666,17.667-45,18.667-76.666-33.667-79.333-35.667-47.667-32.667-63.333-38.333-81.667-42-85.667-45.334-42-32.333-53.667-53.333-37.333-47.667-44-51.333-33.333-27.334-71-36.667-85-37-89-41.333-34.333-36-39-66c-4.158-13.631-19.333-15-24.333-15.334s-17.667-5.666-19.333-16.666,3-29.667,4.333-32,16-53.334,16.333-56.334,13.334-34.666,19-44,10.667-50,8.667-56.333-1.667-43-19-65.333-24.667-33-25-36-11-17.667-1.667-32.667-3.666-35.667-6-39.667-26-51-28.666-56.333S36,395.994,25,393.327s-15-38.333-15-43.333,4.667-54.333,8-61.667,14-33.666,16.667-39,9.333-28,10-40.666,3-40.334,6-47.667,5-18.667,14-23.333,32-12.334,36,12.666-9.667,50-11.334,55.334S93.667,224.327,107,221.327s29.333-16.333,32-26.666,10.667-38.667,18-46.667,11.333-16.333,35.333-23,27,3,29.667,10,18.667,22.667,36,22,33.667-13,40-23,21.667-20.333,27.333-41.333,19-50.667,21-58,9.334-28.667,28.667-24,23.667,5.333,27.333,19,9.334,42,4,95.333S409,244.994,409,249.327s-5.667,27.667,36.667,45.667,105,28,115.666,29,48,5.667,58.334-1,22.333-26,27.333-28,19-9.667,39.333,12.667,32,43.333,37.334,46.666,23.333,19.667,46,24.334S809,385.327,811,410.994s-5.667,64.667-6,70-1.667,39.667-.333,43.667,5,25.666,36.333,12.666,51-36.666,53.667-39.666,35-30,40.333-35,23.667-21,46.333,1.333C990.333,472.661,922.911,518.844,912.667,525.077Z"/><path id="cde65aea-af17-4b98-acab-587a9aa3e4da" data-name="Track-mid" class="track-mid" d="M912.372,525.077s-50,23.75-67,91-16.5,76.25-12.75,90.75,10,30.25,9.25,56.75,11.75,70.75,19.25,81.5,25.25,41,29.5,44.25,50.75,35,55.25,39.5,52.25,44,53.75,45.75,50,47.5,52.5,51.75,40.25,66.25,42.25,68.75,16.5,21.25-3.75,54.5-3.917,56.417-3.917,56.417,10.667,13.333,13,16.667,5.378,17.6,1.561,22c-7.228,8.333-21.894,23.333-35.228,40.333s-39,49.667-42,53.333-12.666,14.667-23.666,12-20.667-35.666-17.667-51.666,17-36,16-41.334-1.667-16-25-23.333-46.667-46.333-50.333-52.333-12.655-32.525-39.667-43.667c-26.667-11-31.667-21-74-16.667-44.421,4.547-67.333,38.334-76.333,50.334s-14.667,40.333-19.334,43.333-11.666,17.667-45,18.667-76.666-33.667-79.333-35.667-47.667-32.667-63.333-38.333-81.667-42-85.667-45.334-42-32.333-53.667-53.333-37.333-47.667-44-51.333-33.333-27.334-71-36.667-85-37-89-41.333-34.333-36-39-66c-4.158-13.631-19.333-15-24.333-15.334s-17.667-5.666-19.333-16.666,3-29.667,4.333-32,16-53.334,16.333-56.334,13.334-34.666,19-44,10.667-50,8.667-56.333-1.667-43-19-65.333-24.667-33-25-36-11-17.667-1.667-32.667-3.666-35.667-6-39.667-26-51-28.666-56.333-32.667-19-43.667-21.667-15-38.333-15-43.333,4.667-54.333,8-61.667,14-33.666,16.667-39,9.333-28,10-40.666,3-40.334,6-47.667,5-18.667,14-23.333,32-12.334,36,12.666-9.667,50-11.334,55.334,4.334,18.666,17.667,15.666,29.333-16.333,32-26.666,10.667-38.667,18-46.667,11.333-16.333,35.333-23,27,3,29.667,10,18.667,22.667,36,22,33.667-13,40-23,21.667-20.333,27.333-41.333,19-50.667,21-58,9.334-28.667,28.667-24,23.667,5.333,27.333,19,9.334,42,4,95.333,2.667,120,2.667,124.333-5.667,27.667,36.667,45.667,105,28,115.666,29,48,5.667,58.334-1,22.333-26,27.333-28,19-9.667,39.333,12.667,32,43.333,37.334,46.666,23.333,19.667,46,24.334,39.333,6.666,41.333,32.333-5.667,64.667-6,70-1.667,39.667-.333,43.667,5,25.666,36.333,12.666,51-36.666,53.667-39.666,35-30,40.333-35,23.667-21,46.333,1.333C990.038,472.661,922.617,518.844,912.372,525.077Z"/><path id="d05d4570-6c99-4d63-9c84-1f0c55c07daf" data-name="Track-inner" class="track-inner" d="M912.372,525.077s-50,23.75-67,91-16.5,76.25-12.75,90.75,10,30.25,9.25,56.75,11.75,70.75,19.25,81.5,25.25,41,29.5,44.25,50.75,35,55.25,39.5,52.25,44,53.75,45.75,50,47.5,52.5,51.75,40.25,66.25,42.25,68.75,16.5,21.25-3.75,54.5-3.917,56.417-3.917,56.417,10.667,13.333,13,16.667,5.378,17.6,1.561,22c-7.228,8.333-21.894,23.333-35.228,40.333s-39,49.667-42,53.333-12.666,14.667-23.666,12-20.667-35.666-17.667-51.666,17-36,16-41.334-1.667-16-25-23.333-46.667-46.333-50.333-52.333-12.655-32.525-39.667-43.667c-26.667-11-31.667-21-74-16.667-44.421,4.547-67.333,38.334-76.333,50.334s-14.667,40.333-19.334,43.333-11.666,17.667-45,18.667-76.666-33.667-79.333-35.667-47.667-32.667-63.333-38.333-81.667-42-85.667-45.334-42-32.333-53.667-53.333-37.333-47.667-44-51.333-33.333-27.334-71-36.667-85-37-89-41.333-34.333-36-39-66c-4.158-13.631-19.333-15-24.333-15.334s-17.667-5.666-19.333-16.666,3-29.667,4.333-32,16-53.334,16.333-56.334,13.334-34.666,19-44,10.667-50,8.667-56.333-1.667-43-19-65.333-24.667-33-25-36-11-17.667-1.667-32.667-3.666-35.667-6-39.667-26-51-28.666-56.333-32.667-19-43.667-21.667-15-38.333-15-43.333,4.667-54.333,8-61.667,14-33.666,16.667-39,9.333-28,10-40.666,3-40.334,6-47.667,5-18.667,14-23.333,32-12.334,36,12.666-9.667,50-11.334,55.334,4.334,18.666,17.667,15.666,29.333-16.333,32-26.666,10.667-38.667,18-46.667,11.333-16.333,35.333-23,27,3,29.667,10,18.667,22.667,36,22,33.667-13,40-23,21.667-20.333,27.333-41.333,19-50.667,21-58,9.334-28.667,28.667-24,23.667,5.333,27.333,19,9.334,42,4,95.333,2.667,120,2.667,124.333-5.667,27.667,36.667,45.667,105,28,115.666,29,48,5.667,58.334-1,22.333-26,27.333-28,19-9.667,39.333,12.667,32,43.333,37.334,46.666,23.333,19.667,46,24.334,39.333,6.666,41.333,32.333-5.667,64.667-6,70-1.667,39.667-.333,43.667,5,25.666,36.333,12.666,51-36.666,53.667-39.666,35-30,40.333-35,23.667-21,46.333,1.333C990.038,472.661,922.617,518.844,912.372,525.077Z"/><use width="200" height="103.617" transform="translate(916.751 551.337) rotate(-126.97) scale(0.225)" xlink:href="#0407657c-ef64-4b6e-b13e-751f12552f20"/></g></g></g></svg>