<svg xmlns="http://www.w3.org/2000/svg" xmlns:xlink="http://www.w3.org/1999/xlink" width="1113.372" height="1360.74" viewBox="0 0 1113.372 1360.74"><defs><style>.c3693936-2390-41ed-9cd0-f32ebb052d3f{fill:#00ff24;}.\36 953927c-7b15-4eb5-ae20-bf39f88c6341,.c3693936-2390-41ed-9cd0-f32ebb052d3f{stroke:#000;stroke-miterlimit:10;stroke-width:5px;}.\36 953927c-7b15-4eb5-ae20-bf39f88c6341{fill:#fff;}.track-inner,.track-mid,.track-outer{fill:none;stroke-linejoin:round;}.track-inner,.track-outer{stroke:#0080ff;}.track-outer{stroke-width:20px;}.track-mid{stroke:#fff;stroke-width:11px;}.track-inner{stroke-width:2px;}</style><symbol id="b9cbe8f4-612c-41a3-a454-68d27eecb64f" data-name="start finish line" viewBox="0 0 200 103.617"><rect class="c3693936-2390-41ed-9cd0-f32ebb052d3f" x="2.5" y="2.5" width="195" height="47.043"/><rect class="6953927c-7b15-4eb5-ae20-bf39f88c6341" x="2.5" y="52.367" width="48.75" height="48.75"/><rect class="6953927c-7b15-4eb5-ae20-bf39f88c6341" x="51.25" y="52.367" width="48.75" height="48.75"/><rect class="6953927c-7b15-4eb5-ae20-bf39f88c6341" x="100" y="52.367" width="48.75" height="48.75"/><rect class="6953927c-7b15-4eb5-ae20-bf39f88c6341" x="148.75" y="52.367" width="48.75" height="48.75"/></symbol></defs><title>Grotti_F1_Banham_canyon</title><g id="c558d5ed-3706-4b2f-b628-3a8fcb369934" data-name="Layer 2"><g id="0c15ebf9-7eb3-4065-8405-c35b106d5a92" data-name="Hills"><g id="1e58ae4c-b27f-4642-918b-82ff0f64b4b5" data-name="Grotti_F1_Banham_canyon"><path id="ad027de8-37bc-481c-bd6a-01072f758fad" data-name="Track-outer" class="track-outer" d="M912.667,525.077s-50,23.75-67,91-16.5,76.25-12.75,90.75,10,30.25,9.25,56.75,11.75,70.75,19.25,81.5,25.25,41,29.5,44.25,50.75,35,55.25,39.5,52.25,44,53.75,45.75,50,47.5,52.5,51.75,40.25,66.25,42.25,68.75,16.5,21.25-3.75,54.5-3.917,56.417-3.917,56.417,10.667,13.333,13,16.667,5.378,17.6,1.561,22c-7.228,8.333-21.894,23.333-35.228,40.333s-39,49.667-42,53.333-12.666,14.667-23.666,12S980,1314.661,983,1298.661s17-36,16-41.334-1.667-16-25-23.333-46.667-46.333-50.333-52.333-12.655-32.525-39.667-43.667c-26.667-11-31.667-21-74-16.667-44.421,4.547-67.333,38.334-76.333,50.334s-14.667,40.333-19.334,43.333-11.666,17.667-45,18.667-76.666-33.667-79.333-35.667-47.667-32.667-63.333-38.333-81.667-42-85.667-45.334-42-32.333-53.667-53.333-37.333-47.667-44-51.333-33.333-27.334-71-36.667-85-37-89-41.333-34.333-36-39-66c-4.158-13.631-19.333-15-24.333-15.334s-17.667-5.666-19.333-16.666,3-29.667,4.333-32,16-53.334,16.333-56.334,13.334-34.666,19-44,10.667-50,8.667-56.333-1.667-43-19-65.333-24.667-33-25-36-11-17.667-1.667-32.667-3.666-35.667-6-39.667-26-51-28.666-56.333S36,395.994,25,393.327s-15-38.333-15-43.333,4.667-54.333,8-61.667,14-33.666,16.667-39,9.333-28,10-40.666,3-40.334,6-47.667,5-18.667,14-23.333,32-12.334,36,12.666-9.667,50-11.334,55.334S93.667,224.327,107,221.327s29.333-16.333,32-26.666,10.667-38.667,18-46.667,11.333-16.333,35.333-23,27,3,29.667,10,18.667,22.667,36,22,33.667-13,40-23,21.667-20.333,27.333-41.333,19-50.667,21-58,9.334-28.667,28.667-24,23.667,5.333,27.333,19,9.334,42,4,95.333S409,244.994,409,249.327s-5.667,27.667,36.667,45.667,105,28,115.666,29,48,5.667,58.334-1,22.333-26,27.333-28,19-9.667,39.333,12.667,32,43.333,37.334,46.666,23.333,19.667,46,24.334S809,385.327,811,410.994s-5.667,64.667-6,70-1.667,39.667-.333,43.667,5,25.666,36.333,12.666,51-36.666,53.667-39.666,35-30,40.333-35,23.667-21,46.333,1.333C990.333,472.661,922.911,518.844,912.667,525.077Z"/><path id="32d75576-4651-4994-8303-6ced6ec307bd" data-name="Track-mid" class="track-mid" d="M912.372,525.077s-50,23.75-67,91-16.5,76.25-12.75,90.75,10,30.25,9.25,56.75,11.75,70.75,19.25,81.5,25.25,41,29.5,44.25,50.75,35,55.25,39.5,52.25,44,53.75,45.75,50,47.5,52.5,51.75,40.25,66.25,42.25,68.75,16.5,21.25-3.75,54.5-3.917,56.417-3.917,56.417,10.667,13.333,13,16.667,5.378,17.6,1.561,22c-7.228,8.333-21.894,23.333-35.228,40.333s-39,49.667-42,53.333-12.666,14.667-23.666,12-20.667-35.666-17.667-51.666,17-36,16-41.334-1.667-16-25-23.333-46.667-46.333-50.333-52.333-12.655-32.525-39.667-43.667c-26.667-11-31.667-21-74-16.667-44.421,4.547-67.333,38.334-76.333,50.334s-14.667,40.333-19.334,43.333-11.666,17.667-45,18.667-76.666-33.667-79.333-35.667-47.667-32.667-63.333-38.333-81.667-42-85.667-45.334-42-32.333-53.667-53.333-37.333-47.667-44-51.333-33.333-27.334-71-36.667-85-37-89-41.333-34.333-36-39-66c-4.158-13.631-19.333-15-24.333-15.334s-17.667-5.666-19.333-16.666,3-29.667,4.333-32,16-53.334,16.333-56.334,13.334-34.666,19-44,10.667-50,8.667-56.333-1.667-43-19-65.333-24.667-33-25-36-11-17.667-1.667-32.667-3.666-35.667-6-39.667-26-51-28.666-56.333-32.667-19-43.667-21.667-15-38.333-15-43.333,4.667-54.333,8-61.667,14-33.666,16.667-39,9.333-28,10-40.666,3-40.334,6-47.667,5-18.667,14-23.333,32-12.334,36,12.666-9.667,50-11.334,55.334,4.334,18.666,17.667,15.666,29.333-16.333,32-26.666,10.667-38.667,18-46.667,11.333-16.333,35.333-23,27,3,29.667,10,18.667,22.667,36,22,33.667-13,40-23,21.667-20.333,27.333-41.333,19-50.667,21-58,9.334-28.667,28.667-24,23.667,5.333,27.333,19,9.334,42,4,95.333,2.667,120,2.667,124.333-5.667,27.667,36.667,45.667,105,28,115.666,29,48,5.667,58.334-1,22.333-26,27.333-28,19-9.667,39.333,12.667,32,43.333,37.334,46.666,23.333,19.667,46,24.334,39.333,6.666,41.333,32.333-5.667,64.667-6,70-1.667,39.667-.333,43.667,5,25.666,36.333,12.666,51-36.666,53.667-39.666,35-30,40.333-35,23.667-21,46.333,1.333C990.038,472.661,922.617,518.844,912.372,525.077Z"/><path id="0b29e1fd-93c7-4a29-a0fd-00c286dae9ac" data-name="Track-inner" class="track-inner" d="M912.372,525.077s-50,23.75-67,91-16.5,76.25-12.75,90.75,10,30.25,9.25,56.75,11.75,70.75,19.25,81.5,25.25,41,29.5,44.25,50.75,35,55.25,39.5,52.25,44,53.75,45.75,50,47.5,52.5,51.75,40.25,66.25,42.25,68.75,16.5,21.25-3.75,54.5-3.917,56.417-3.917,56.417,10.667,13.333,13,16.667,5.378,17.6,1.561,22c-7.228,8.333-21.894,23.333-35.228,40.333s-39,49.667-42,53.333-12.666,14.667-23.666,12-20.667-35.666-17.667-51.666,17-36,16-41.334-1.667-16-25-23.333-46.667-46.333-50.333-52.333-12.655-32.525-39.667-43.667c-26.667-11-31.667-21-74-16.667-44.421,4.547-67.333,38.334-76.333,50.334s-14.667,40.333-19.334,43.333-11.666,17.667-45,18.667-76.666-33.667-79.333-35.667-47.667-32.667-63.333-38.333-81.667-42-85.667-45.334-42-32.333-53.667-53.333-37.333-47.667-44-51.333-33.333-27.334-71-36.667-85-37-89-41.333-34.333-36-39-66c-4.158-13.631-19.333-15-24.333-15.334s-17.667-5.666-19.333-16.666,3-29.667,4.333-32,16-53.334,16.333-56.334,13.334-34.666,19-44,10.667-50,8.667-56.333-1.667-43-19-65.333-24.667-33-25-36-11-17.667-1.667-32.667-3.666-35.667-6-39.667-26-51-28.666-56.333-32.667-19-43.667-21.667-15-38.333-15-43.333,4.667-54.333,8-61.667,14-33.666,16.667-39,9.333-28,10-40.666,3-40.334,6-47.667,5-18.667,14-23.333,32-12.334,36,12.666-9.667,50-11.334,55.334,4.334,18.666,17.667,15.666,29.333-16.333,32-26.666,10.667-38.667,18-46.667,11.333-16.333,35.333-23,27,3,29.667,10,18.667,22.667,36,22,33.667-13,40-23,21.667-20.333,27.333-41.333,19-50.667,21-58,9.334-28.667,28.667-24,23.667,5.333,27.333,19,9.334,42,4,95.333,2.667,120,2.667,124.333-5.667,27.667,36.667,45.667,105,28,115.666,29,48,5.667,58.334-1,22.333-26,27.333-28,19-9.667,39.333,12.667,32,43.333,37.334,46.666,23.333,19.667,46,24.334,39.333,6.666,41.333,32.333-5.667,64.667-6,70-1.667,39.667-.333,43.667,5,25.666,36.333,12.666,51-36.666,53.667-39.666,35-30,40.333-35,23.667-21,46.333,1.333C990.038,472.661,922.617,518.844,912.372,525.077Z"/><use width="200" height="103.617" transform="translate(916.751 551.337) rotate(-126.97) scale(0.225)" xlink:href="#b9cbe8f4-612c-41a3-a454-68d27eecb64f"/></g></g></g></svg>