<svg xmlns="http://www.w3.org/2000/svg" xmlns:xlink="http://www.w3.org/1999/xlink" width="1315.201" height="984.146" viewBox="0 0 1315.201 984.146"><defs><style>.a078ab01-d965-4f61-8b3a-e0655e497b6e{fill:#00ff24;}.a078ab01-d965-4f61-8b3a-e0655e497b6e,.f389d361-7561-43d6-aacf-f89d06b2535c{stroke:#000;stroke-miterlimit:10;stroke-width:5px;}.f389d361-7561-43d6-aacf-f89d06b2535c{fill:#fff;}.track-inner,.track-mid,.track-outer{fill:none;stroke-linejoin:round;}.track-inner,.track-outer{stroke:#0080ff;}.track-outer{stroke-width:20px;}.track-mid{stroke:#fff;stroke-width:11px;}.track-inner{stroke-width:2px;}</style><symbol id="5627cc20-65c3-46c1-a5ac-c45790fb17f1" data-name="start finish line" viewBox="0 0 200 103.617"><rect class="a078ab01-d965-4f61-8b3a-e0655e497b6e" x="2.5" y="2.5" width="195" height="47.043"/><rect class="f389d361-7561-43d6-aacf-f89d06b2535c" x="2.5" y="52.367" width="48.75" height="48.75"/><rect class="f389d361-7561-43d6-aacf-f89d06b2535c" x="51.25" y="52.367" width="48.75" height="48.75"/><rect class="f389d361-7561-43d6-aacf-f89d06b2535c" x="100" y="52.367" width="48.75" height="48.75"/><rect class="f389d361-7561-43d6-aacf-f89d06b2535c" x="148.75" y="52.367" width="48.75" height="48.75"/></symbol></defs><title>Parson&amp;apos;s_Tour</title><g id="519b8179-a56c-41eb-8f02-2ce68d9a3a96" data-name="Layer 2"><g id="111550af-a26d-4dde-b7b6-72b69052a195" data-name="Hills"><g id="393b164c-6aab-4a1e-8f1a-75bb0a9e5e22" data-name="Parson&apos;s_Tour"><path id="e73d9ffe-a4d6-41e8-b400-10d890e1fce2" data-name="Track" class="track-outer" d="M654.363,671.521c-6.55,8.851-34.606,36.351-38.8,34.8s-17.363-16.717-21.2-27.551-4.333-16.666-5.5-36.166-7.5-25.167-12.166-34.834-8.167-20.166-8.5-26.333,0-37.5,3.5-67.667,7.833-34.5,22.166-68.833,5.334-56-8.666-70.5-30.167-6.833-52.834-13.333-30-20.5-21.166-36.667,18.166-22.833,29.5-31,28.666-25.833,31-30.333c-8.167-10-43.5-54.667-59.5-76.167s-23-39.833-29.167-53.167-11.167-33.833-27.667-63.333-32.666-38.5-45-45.333S374.03,13.771,365.53,12.271c-30.333-6.333-46.133,2.172-55,6.167s-37,17-58.667,24.167-33.333-6.5-44.5-18.334c-5.666,17.167-19,26-22.5,26.667s-43.333-1-58.5,0-23,13.167-19.5,33.167,32.667,65.166,47.834,94.166,2.166,55.667,0,62.334-31.167,62-41.334,82.666-7.166,32-1.5,50.167,17.5,49.5,15.5,75.5-3.833,48-34.166,76.833-42,43.834-50.334,56.5c0,0-23,41.834-17.333,99.167,14.333,55,5,72.5.5,92.333,0,0-2.333,10-6.5,22.334-4.667,17,1.5,19.166,21.459,25.884,19.208,6.449,66.874,27.116,66.874,27.116s27,8.5,29.667,38.5c3.833,29.333,19.667,85,56,86.5,40.167,1.666,59-46.667,77-83.5,5.21-10.662,11.833-26.5,37-36.334,33.667-13.333,32.833-27.833,33-34.666s1.833-22.5,2-27.834,4.333-17.333,8.5-35c4.833-21,12.5-60.166,64.333-66.166,61.334-6.5,77.667,24.833,83.5,36.333,4.334,7.167,8.167,47.667,17.5,70.333,17.834,43.834,41.667,39,57,35.5s37.667-13,52.5-18.333c27.5-8.194,70-6.167,80.75.583s25,20.75,29.75,28.75,23,29.25,54.5,29.5,39-7,45-12,7.25-22.25,36.75-31.75c20.5-5.5,19.25-21,20.5-26.75s4.75-26,24.5-32,30.25-3.25,37,.5,16,6,27.5,6,22.25-1.5,26.25-2.5a128.364,128.364,0,0,1,36.5-4c19.5.5,52.5-.5,79.25,11.75s27.75,8.25,44.5,26,14,20.5,18.5,26.25,13,28.75,37.75,28.5,31.5-8.75,39.75-28,14-30.75,35.75-30.5c6.667,0,4.667-17.166,4.167-18.666s-1.333-30.834-21.833-56c-14.334-19-18.334-97.667-18.334-102.334s-3-39.666-5.666-42a40.048,40.048,0,0,0-25-11c-14.334-1-14.334-10.666-18.667-13s-8-14-35.333-13-28.334-8-32-12-12-24.333-33.667-15.666c-21,5.666-28.333-18.667-30.333-22s-18.667-28.334-64.334-29-40,36.333-48.333,38.666-12.667-26-33-21.666-82.333,21.666-100.667,31-37.333,39.666-40,46.666c-5.333,3-18.666,16.334-21.666,20s-22,19.334-57-2.333-49.476-6.667-57.071,14-1.738,34,0,41S668.363,652.605,654.363,671.521Z"/><path id="8d1e4368-b128-4be3-b4b0-e0c1a93118bd" data-name="Track" class="track-mid" d="M654.363,671.521c-6.55,8.851-34.606,36.351-38.8,34.8s-17.363-16.717-21.2-27.551-4.333-16.666-5.5-36.166-7.5-25.167-12.166-34.834-8.167-20.166-8.5-26.333,0-37.5,3.5-67.667,7.833-34.5,22.166-68.833,5.334-56-8.666-70.5-30.167-6.833-52.834-13.333-30-20.5-21.166-36.667,18.166-22.833,29.5-31,28.666-25.833,31-30.333c-8.167-10-43.5-54.667-59.5-76.167s-23-39.833-29.167-53.167-11.167-33.833-27.667-63.333-32.666-38.5-45-45.333S374.03,13.771,365.53,12.271c-30.333-6.333-46.133,2.172-55,6.167s-37,17-58.667,24.167-33.333-6.5-44.5-18.334c-5.666,17.167-19,26-22.5,26.667s-43.333-1-58.5,0-23,13.167-19.5,33.167,32.667,65.166,47.834,94.166,2.166,55.667,0,62.334-31.167,62-41.334,82.666-7.166,32-1.5,50.167,17.5,49.5,15.5,75.5-3.833,48-34.166,76.833-42,43.834-50.334,56.5c0,0-23,41.834-17.333,99.167,14.333,55,5,72.5.5,92.333,0,0-2.333,10-6.5,22.334-4.667,17,1.5,19.166,21.459,25.884,19.208,6.449,66.874,27.116,66.874,27.116s27,8.5,29.667,38.5c3.833,29.333,19.667,85,56,86.5,40.167,1.666,59-46.667,77-83.5,5.21-10.662,11.833-26.5,37-36.334,33.667-13.333,32.833-27.833,33-34.666s1.833-22.5,2-27.834,4.333-17.333,8.5-35c4.833-21,12.5-60.166,64.333-66.166,61.334-6.5,77.667,24.833,83.5,36.333,4.334,7.167,8.167,47.667,17.5,70.333,17.834,43.834,41.667,39,57,35.5s37.667-13,52.5-18.333c27.5-8.194,70-6.167,80.75.583s25,20.75,29.75,28.75,23,29.25,54.5,29.5,39-7,45-12,7.25-22.25,36.75-31.75c20.5-5.5,19.25-21,20.5-26.75s4.75-26,24.5-32,30.25-3.25,37,.5,16,6,27.5,6,22.25-1.5,26.25-2.5a128.364,128.364,0,0,1,36.5-4c19.5.5,52.5-.5,79.25,11.75s27.75,8.25,44.5,26,14,20.5,18.5,26.25,13,28.75,37.75,28.5,31.5-8.75,39.75-28,14-30.75,35.75-30.5c6.667,0,4.667-17.166,4.167-18.666s-1.333-30.834-21.833-56c-14.334-19-18.334-97.667-18.334-102.334s-3-39.666-5.666-42a40.048,40.048,0,0,0-25-11c-14.334-1-14.334-10.666-18.667-13s-8-14-35.333-13-28.334-8-32-12-12-24.333-33.667-15.666c-21,5.666-28.333-18.667-30.333-22s-18.667-28.334-64.334-29-40,36.333-48.333,38.666-12.667-26-33-21.666-82.333,21.666-100.667,31-37.333,39.666-40,46.666c-5.333,3-18.666,16.334-21.666,20s-22,19.334-57-2.333-49.476-6.667-57.071,14-1.738,34,0,41S668.363,652.605,654.363,671.521Z"/><path id="2f21cc4f-2bd9-48e6-a595-e80cba59a3e2" data-name="Track" class="track-inner" d="M654.363,671.521c-6.55,8.851-34.606,36.351-38.8,34.8s-17.363-16.717-21.2-27.551-4.333-16.666-5.5-36.166-7.5-25.167-12.166-34.834-8.167-20.166-8.5-26.333,0-37.5,3.5-67.667,7.833-34.5,22.166-68.833,5.334-56-8.666-70.5-30.167-6.833-52.834-13.333-30-20.5-21.166-36.667,18.166-22.833,29.5-31,28.666-25.833,31-30.333c-8.167-10-43.5-54.667-59.5-76.167s-23-39.833-29.167-53.167-11.167-33.833-27.667-63.333-32.666-38.5-45-45.333S374.03,13.771,365.53,12.271c-30.333-6.333-46.133,2.172-55,6.167s-37,17-58.667,24.167-33.333-6.5-44.5-18.334c-5.666,17.167-19,26-22.5,26.667s-43.333-1-58.5,0-23,13.167-19.5,33.167,32.667,65.166,47.834,94.166,2.166,55.667,0,62.334-31.167,62-41.334,82.666-7.166,32-1.5,50.167,17.5,49.5,15.5,75.5-3.833,48-34.166,76.833-42,43.834-50.334,56.5c0,0-23,41.834-17.333,99.167,14.333,55,5,72.5.5,92.333,0,0-2.333,10-6.5,22.334-4.667,17,1.5,19.166,21.459,25.884,19.208,6.449,66.874,27.116,66.874,27.116s27,8.5,29.667,38.5c3.833,29.333,19.667,85,56,86.5,40.167,1.666,59-46.667,77-83.5,5.21-10.662,11.833-26.5,37-36.334,33.667-13.333,32.833-27.833,33-34.666s1.833-22.5,2-27.834,4.333-17.333,8.5-35c4.833-21,12.5-60.166,64.333-66.166,61.334-6.5,77.667,24.833,83.5,36.333,4.334,7.167,8.167,47.667,17.5,70.333,17.834,43.834,41.667,39,57,35.5s37.667-13,52.5-18.333c27.5-8.194,70-6.167,80.75.583s25,20.75,29.75,28.75,23,29.25,54.5,29.5,39-7,45-12,7.25-22.25,36.75-31.75c20.5-5.5,19.25-21,20.5-26.75s4.75-26,24.5-32,30.25-3.25,37,.5,16,6,27.5,6,22.25-1.5,26.25-2.5a128.364,128.364,0,0,1,36.5-4c19.5.5,52.5-.5,79.25,11.75s27.75,8.25,44.5,26,14,20.5,18.5,26.25,13,28.75,37.75,28.5,31.5-8.75,39.75-28,14-30.75,35.75-30.5c6.667,0,4.667-17.166,4.167-18.666s-1.333-30.834-21.833-56c-14.334-19-18.334-97.667-18.334-102.334s-3-39.666-5.666-42a40.048,40.048,0,0,0-25-11c-14.334-1-14.334-10.666-18.667-13s-8-14-35.333-13-28.334-8-32-12-12-24.333-33.667-15.666c-21,5.666-28.333-18.667-30.333-22s-18.667-28.334-64.334-29-40,36.333-48.333,38.666-12.667-26-33-21.666-82.333,21.666-100.667,31-37.333,39.666-40,46.666c-5.333,3-18.666,16.334-21.666,20s-22,19.334-57-2.333-49.476-6.667-57.071,14-1.738,34,0,41S668.363,652.605,654.363,671.521Z"/><use width="200" height="103.617" transform="translate(6.465 760.688) rotate(16.1) scale(0.225)" xlink:href="#5627cc20-65c3-46c1-a5ac-c45790fb17f1"/></g></g></g></svg>