<svg xmlns="http://www.w3.org/2000/svg" xmlns:xlink="http://www.w3.org/1999/xlink" width="641.416" height="984.146" viewBox="0 0 641.416 984.146"><defs><style>.bce59074-46c3-4a2a-b997-fd45ad2b7439{fill:#00ff24;}.bce59074-46c3-4a2a-b997-fd45ad2b7439,.f79abced-ed33-4465-b072-ae79239a5712{stroke:#000;stroke-miterlimit:10;stroke-width:5px;}.f79abced-ed33-4465-b072-ae79239a5712{fill:#fff;}.track-inner,.track-mid,.track-outer{fill:none;stroke-linejoin:round;}.track-inner,.track-outer{stroke:#0080ff;}.track-outer{stroke-width:20px;}.track-mid{stroke:#fff;stroke-width:11px;}.track-inner{stroke-width:2px;}</style><symbol id="064fac11-cb09-4885-afd1-e6920944f408" data-name="start finish line" viewBox="0 0 200 103.617"><rect class="bce59074-46c3-4a2a-b997-fd45ad2b7439" x="2.5" y="2.5" width="195" height="47.043"/><rect class="f79abced-ed33-4465-b072-ae79239a5712" x="2.5" y="52.367" width="48.75" height="48.75"/><rect class="f79abced-ed33-4465-b072-ae79239a5712" x="51.25" y="52.367" width="48.75" height="48.75"/><rect class="f79abced-ed33-4465-b072-ae79239a5712" x="100" y="52.367" width="48.75" height="48.75"/><rect class="f79abced-ed33-4465-b072-ae79239a5712" x="148.75" y="52.367" width="48.75" height="48.75"/></symbol></defs><title>Parson&amp;apos;s_Loop</title><g id="d5297d52-b61a-4325-a24c-29edc5f73897" data-name="Layer 2"><g id="793d9f1b-7b4d-40aa-ad9f-1fa943cc48dc" data-name="Hills"><g id="04a25ec8-35d9-49f7-805a-b0823054a093" data-name="Parson&apos;s_Loop"><path id="092e38f5-fb6c-4879-97a4-3ed64952848e" data-name="Track" class="track-outer" d="M270.53,890.605c5.21-10.662,11.833-26.5,37-36.334,33.667-13.333,32.833-27.833,33-34.666s1.833-22.5,2-27.834,4.333-17.333,8.5-35c4.833-21,12.5-60.166,64.333-66.166,61.334-6.5,77.667,24.833,83.5,36.333,4.334,7.167,8.167,47.667,17.5,70.333,17.834,43.834,41.667,39,57,35.5s37.667-13,52.5-18.333c-1.833-15,4.617-34.667,5-45.167s3.5-42.666-10.666-58-22-21.666-25.834-32.5-4.333-16.666-5.5-36.166-7.5-25.167-12.166-34.834-8.167-20.166-8.5-26.333,0-37.5,3.5-67.667,7.833-34.5,22.166-68.833,5.334-56-8.666-70.5-30.167-6.833-52.834-13.333-30-20.5-21.166-36.667,18.166-22.833,29.5-31,28.666-25.833,31-30.333c-8.167-10-43.5-54.667-59.5-76.167s-23-39.833-29.167-53.167-11.167-33.833-27.667-63.333-32.666-38.5-45-45.333S374.03,13.771,365.53,12.271c-30.333-6.333-46.133,2.172-55,6.167s-37,17-58.667,24.167-33.333-6.5-44.5-18.334c-5.666,17.167-19,26-22.5,26.667s-43.333-1-58.5,0-23,13.167-19.5,33.167,32.667,65.166,47.834,94.166,2.166,55.667,0,62.334-31.167,62-41.334,82.666-7.166,32-1.5,50.167,17.5,49.5,15.5,75.5-3.833,48-34.166,76.833-42,43.834-50.334,56.5c0,0-23,41.834-17.333,99.167,14.333,55,5,72.5.5,92.333,0,0-2.333,10-6.5,22.334-4.667,17,1.5,19.166,21.459,25.884,19.208,6.449,66.874,27.116,66.874,27.116s27,8.5,29.667,38.5c3.833,29.333,19.667,85,56,86.5C233.7,975.771,252.53,927.438,270.53,890.605Z"/><path id="c18a16dc-9f22-42ad-8a46-b99478821a84" data-name="Track" class="track-mid" d="M270.53,890.605c5.21-10.662,11.833-26.5,37-36.334,33.667-13.333,32.833-27.833,33-34.666s1.833-22.5,2-27.834,4.333-17.333,8.5-35c4.833-21,12.5-60.166,64.333-66.166,61.334-6.5,77.667,24.833,83.5,36.333,4.334,7.167,8.167,47.667,17.5,70.333,17.834,43.834,41.667,39,57,35.5s37.667-13,52.5-18.333c-1.833-15,4.617-34.667,5-45.167s3.5-42.666-10.666-58-22-21.666-25.834-32.5-4.333-16.666-5.5-36.166-7.5-25.167-12.166-34.834-8.167-20.166-8.5-26.333,0-37.5,3.5-67.667,7.833-34.5,22.166-68.833,5.334-56-8.666-70.5-30.167-6.833-52.834-13.333-30-20.5-21.166-36.667,18.166-22.833,29.5-31,28.666-25.833,31-30.333c-8.167-10-43.5-54.667-59.5-76.167s-23-39.833-29.167-53.167-11.167-33.833-27.667-63.333-32.666-38.5-45-45.333S374.03,13.771,365.53,12.271c-30.333-6.333-46.133,2.172-55,6.167s-37,17-58.667,24.167-33.333-6.5-44.5-18.334c-5.666,17.167-19,26-22.5,26.667s-43.333-1-58.5,0-23,13.167-19.5,33.167,32.667,65.166,47.834,94.166,2.166,55.667,0,62.334-31.167,62-41.334,82.666-7.166,32-1.5,50.167,17.5,49.5,15.5,75.5-3.833,48-34.166,76.833-42,43.834-50.334,56.5c0,0-23,41.834-17.333,99.167,14.333,55,5,72.5.5,92.333,0,0-2.333,10-6.5,22.334-4.667,17,1.5,19.166,21.459,25.884,19.208,6.449,66.874,27.116,66.874,27.116s27,8.5,29.667,38.5c3.833,29.333,19.667,85,56,86.5C233.7,975.771,252.53,927.438,270.53,890.605Z"/><path id="88c29bd1-d5dd-4a20-9582-039222dda76e" data-name="Track" class="track-inner" d="M270.53,890.605c5.21-10.662,11.833-26.5,37-36.334,33.667-13.333,32.833-27.833,33-34.666s1.833-22.5,2-27.834,4.333-17.333,8.5-35c4.833-21,12.5-60.166,64.333-66.166,61.334-6.5,77.667,24.833,83.5,36.333,4.334,7.167,8.167,47.667,17.5,70.333,17.834,43.834,41.667,39,57,35.5s37.667-13,52.5-18.333c-1.833-15,4.617-34.667,5-45.167s3.5-42.666-10.666-58-22-21.666-25.834-32.5-4.333-16.666-5.5-36.166-7.5-25.167-12.166-34.834-8.167-20.166-8.5-26.333,0-37.5,3.5-67.667,7.833-34.5,22.166-68.833,5.334-56-8.666-70.5-30.167-6.833-52.834-13.333-30-20.5-21.166-36.667,18.166-22.833,29.5-31,28.666-25.833,31-30.333c-8.167-10-43.5-54.667-59.5-76.167s-23-39.833-29.167-53.167-11.167-33.833-27.667-63.333-32.666-38.5-45-45.333S374.03,13.771,365.53,12.271c-30.333-6.333-46.133,2.172-55,6.167s-37,17-58.667,24.167-33.333-6.5-44.5-18.334c-5.666,17.167-19,26-22.5,26.667s-43.333-1-58.5,0-23,13.167-19.5,33.167,32.667,65.166,47.834,94.166,2.166,55.667,0,62.334-31.167,62-41.334,82.666-7.166,32-1.5,50.167,17.5,49.5,15.5,75.5-3.833,48-34.166,76.833-42,43.834-50.334,56.5c0,0-23,41.834-17.333,99.167,14.333,55,5,72.5.5,92.333,0,0-2.333,10-6.5,22.334-4.667,17,1.5,19.166,21.459,25.884,19.208,6.449,66.874,27.116,66.874,27.116s27,8.5,29.667,38.5c3.833,29.333,19.667,85,56,86.5C233.7,975.771,252.53,927.438,270.53,890.605Z"/><use width="200" height="103.617" transform="translate(6.465 760.688) rotate(16.1) scale(0.225)" xlink:href="#064fac11-cb09-4885-afd1-e6920944f408"/></g></g></g></svg>