<svg xmlns="http://www.w3.org/2000/svg" xmlns:xlink="http://www.w3.org/1999/xlink" width="621.432" height="323.803" viewBox="0 0 621.432 323.803"><defs><style>.\38 837a751-1641-4388-819b-a4d9d9175845{fill:#00ff24;}.\38 837a751-1641-4388-819b-a4d9d9175845,.\39 a0a3b7f-ee8c-4e86-b29a-9c70afa9f1df{stroke:#000;stroke-miterlimit:10;stroke-width:5px;}.\39 a0a3b7f-ee8c-4e86-b29a-9c70afa9f1df{fill:#fff;}.\34 cba86c6-1544-4b75-9a04-13a9bed66c8a,.\38 85da24f-49b8-48cb-8d46-eff73aa3d8a5,.b6ceda67-f9e4-48dd-986b-7456c94cf03a,.c1bf5b37-d452-49e9-8fcf-1039c7296992,.e56199d6-5e8e-4e8c-8fee-62b42f20145c{fill:none;stroke-linejoin:round;}.\38 85da24f-49b8-48cb-8d46-eff73aa3d8a5,.c1bf5b37-d452-49e9-8fcf-1039c7296992{stroke:#009e04;}.\38 85da24f-49b8-48cb-8d46-eff73aa3d8a5{stroke-width:10px;}.e56199d6-5e8e-4e8c-8fee-62b42f20145c{stroke:#fff;stroke-width:6px;}.\34 cba86c6-1544-4b75-9a04-13a9bed66c8a,.b6ceda67-f9e4-48dd-986b-7456c94cf03a{stroke:#0080ff;}.\34 cba86c6-1544-4b75-9a04-13a9bed66c8a{stroke-width:11px;}</style><symbol id="ca3b6709-6ecb-4016-af62-f224216ea2a5" data-name="start finish line" viewBox="0 0 200 103.617"><rect class="8837a751-1641-4388-819b-a4d9d9175845" x="2.5" y="2.5" width="195" height="47.043"/><rect class="9a0a3b7f-ee8c-4e86-b29a-9c70afa9f1df" x="2.5" y="52.367" width="48.75" height="48.75"/><rect class="9a0a3b7f-ee8c-4e86-b29a-9c70afa9f1df" x="51.25" y="52.367" width="48.75" height="48.75"/><rect class="9a0a3b7f-ee8c-4e86-b29a-9c70afa9f1df" x="100" y="52.367" width="48.75" height="48.75"/><rect class="9a0a3b7f-ee8c-4e86-b29a-9c70afa9f1df" x="148.75" y="52.367" width="48.75" height="48.75"/></symbol></defs><title>Franor_RX</title><g id="c326ba46-870b-4965-b699-6309f607785a" data-name="Layer 2"><g id="85ef52b3-bdd5-4533-9174-bab84235f844" data-name="Rally X"><g id="758c7a2c-7222-40a5-b1e2-99aba486d73c" data-name="Franor_RX"><path class="885da24f-49b8-48cb-8d46-eff73aa3d8a5" d="M437.083,38.088c15.083,1.083,27.811,12.567,24,26.916-1.417,5.334,10.083,6.167,20.75-6.666s22.833-32,38.083-38.25"/><path class="e56199d6-5e8e-4e8c-8fee-62b42f20145c" d="M437.083,38.088c15.083,1.083,27.811,12.567,24,26.916-1.417,5.334,10.083,6.167,20.75-6.666s22.833-32,38.083-38.25"/><path class="c1bf5b37-d452-49e9-8fcf-1039c7296992" d="M437.083,38.088c15.083,1.083,27.811,12.567,24,26.916-1.417,5.334,10.083,6.167,20.75-6.666s22.833-32,38.083-38.25"/><path class="4cba86c6-1544-4b75-9a04-13a9bed66c8a" d="M468.749,102.5c-9.3,4.427-16,16.5-20,19s-19.5,11.5-22.5,15-31.5,26.5-26.5,52.5,18,38,4.5,63-62,44-66,44.5-26,9.5-32,19.5-4.5-15.5-3-21.5,7.5-18,12.5-25,6-26-8-30.5-33.5-11.5-30-29,10.5-27.5,12.5-33.5,7-37-26.5-23-30,10.5-42,16.5-24,17-25.5,21.5-18,38-31.5,4,3-30.5,0-48-25.5-21-36.5-16-30.5,22-34.5,25.5-13.5,22-22,23-30,2.5-35.5,3-19,6-22,6.5-20-1,3.5-18,69.5-57,85-63,32-12,45.5-11,33,7,48.5,4,59.5-12,75-22.5,59.167-34.333,59.167-34.333S352.249,26,393.583,33.338s62.444,3.949,70,2C476.5,32,522.5,20,529.5,18s25-12.75,42.25-12.5,30,3.5,33,9.75S610.5,42.5,610.5,46.5s-.75,13.25,0,17.25,11,14.5,1.25,19.25-24.5,6.25-31.75,10.75-29,11.5-34.75,12.5-19.166,6.5-25.333,8.75S486,131,482.749,131.5s-21.5,4.75-10.25-10S479.249,97.5,468.749,102.5Z"/><path class="e56199d6-5e8e-4e8c-8fee-62b42f20145c" d="M468.749,102.5c-9.3,4.427-16,16.5-20,19s-19.5,11.5-22.5,15-31.5,26.5-26.5,52.5,18,38,4.5,63-62,44-66,44.5-26,9.5-32,19.5-4.5-15.5-3-21.5,7.5-18,12.5-25,6-26-8-30.5-33.5-11.5-30-29,10.5-27.5,12.5-33.5,7-37-26.5-23-30,10.5-42,16.5-24,17-25.5,21.5-18,38-31.5,4,3-30.5,0-48-25.5-21-36.5-16-30.5,22-34.5,25.5-13.5,22-22,23-30,2.5-35.5,3-19,6-22,6.5-20-1,3.5-18,69.5-57,85-63,32-12,45.5-11,33,7,48.5,4,59.5-12,75-22.5,59.167-34.333,59.167-34.333S352.249,26,393.583,33.338s62.444,3.949,70,2C476.5,32,522.5,20,529.5,18s25-12.75,42.25-12.5,30,3.5,33,9.75S610.5,42.5,610.5,46.5s-.75,13.25,0,17.25,11,14.5,1.25,19.25-24.5,6.25-31.75,10.75-29,11.5-34.75,12.5-19.166,6.5-25.333,8.75S486,131,482.749,131.5s-21.5,4.75-10.25-10S479.249,97.5,468.749,102.5Z"/><path class="b6ceda67-f9e4-48dd-986b-7456c94cf03a" d="M468.749,102.5c-9.3,4.427-16,16.5-20,19s-19.5,11.5-22.5,15-31.5,26.5-26.5,52.5,18,38,4.5,63-62,44-66,44.5-26,9.5-32,19.5-4.5-15.5-3-21.5,7.5-18,12.5-25,6-26-8-30.5-33.5-11.5-30-29,10.5-27.5,12.5-33.5,7-37-26.5-23-30,10.5-42,16.5-24,17-25.5,21.5-18,38-31.5,4,3-30.5,0-48-25.5-21-36.5-16-30.5,22-34.5,25.5-13.5,22-22,23-30,2.5-35.5,3-19,6-22,6.5-20-1,3.5-18,69.5-57,85-63,32-12,45.5-11,33,7,48.5,4,59.5-12,75-22.5,59.167-34.333,59.167-34.333S352.249,26,393.583,33.338s62.444,3.949,70,2C476.5,32,522.5,20,529.5,18s25-12.75,42.25-12.5,30,3.5,33,9.75S610.5,42.5,610.5,46.5s-.75,13.25,0,17.25,11,14.5,1.25,19.25-24.5,6.25-31.75,10.75-29,11.5-34.75,12.5-19.166,6.5-25.333,8.75S486,131,482.749,131.5s-21.5,4.75-10.25-10S479.249,97.5,468.749,102.5Z"/><use width="200" height="103.617" transform="translate(317.801 35.93) rotate(58.359) scale(0.133)" xlink:href="#ca3b6709-6ecb-4016-af62-f224216ea2a5"/></g></g></g></svg>