<svg xmlns="http://www.w3.org/2000/svg" xmlns:xlink="http://www.w3.org/1999/xlink" width="666.335" height="367.105" viewBox="0 0 666.335 367.105"><defs><style>.a49a9194-0db8-482a-b98e-1245a50a4e41{fill:#00ff24;}.\34 f19f7eb-6bb6-4932-abfc-eb8b109b3faa,.a49a9194-0db8-482a-b98e-1245a50a4e41{stroke:#000;stroke-miterlimit:10;stroke-width:5px;}.\34 f19f7eb-6bb6-4932-abfc-eb8b109b3faa{fill:#fff;}.\30 165ecb3-610a-4e58-b3e4-9b4f01dcf074,.\33 d274bc8-9dfd-4a2f-bb0f-9b8d26a9217d,.\34 a8c05c4-c939-467f-a917-f41e5e647883,.\39 32025e1-0bb3-48b7-87ce-10862d247e58,.\39 5ddc831-42d6-471f-83b7-abd2dc9a7e33{fill:none;stroke-linejoin:round;}.\34 a8c05c4-c939-467f-a917-f41e5e647883,.\39 32025e1-0bb3-48b7-87ce-10862d247e58{stroke:#009e04;}.\39 32025e1-0bb3-48b7-87ce-10862d247e58{stroke-width:11px;}.\39 5ddc831-42d6-471f-83b7-abd2dc9a7e33{stroke:#fff;stroke-width:6px;}.\30 165ecb3-610a-4e58-b3e4-9b4f01dcf074,.\33 d274bc8-9dfd-4a2f-bb0f-9b8d26a9217d{stroke:#0080ff;}.\30 165ecb3-610a-4e58-b3e4-9b4f01dcf074{stroke-width:12px;}</style><symbol id="1516857f-be1d-4d11-855f-ac13348a82c8" data-name="start finish line" viewBox="0 0 200 103.617"><rect class="a49a9194-0db8-482a-b98e-1245a50a4e41" x="2.5" y="2.5" width="195" height="47.043"/><rect class="4f19f7eb-6bb6-4932-abfc-eb8b109b3faa" x="2.5" y="52.367" width="48.75" height="48.75"/><rect class="4f19f7eb-6bb6-4932-abfc-eb8b109b3faa" x="51.25" y="52.367" width="48.75" height="48.75"/><rect class="4f19f7eb-6bb6-4932-abfc-eb8b109b3faa" x="100" y="52.367" width="48.75" height="48.75"/><rect class="4f19f7eb-6bb6-4932-abfc-eb8b109b3faa" x="148.75" y="52.367" width="48.75" height="48.75"/></symbol></defs><title>Franor_RX_Update</title><g id="a954d655-40a9-4e90-9ca3-b5ce5b7003eb" data-name="Layer 2"><g id="ded453b3-0854-4e0a-ad3e-d0fe6a646052" data-name="Rally X"><g id="b0cdf9a3-fd00-4126-853b-d543c23b0e29" data-name="Franor_RX_Update"><path class="932025e1-0bb3-48b7-87ce-10862d247e58" d="M464.542,148.59c-19.793-3.429-39.5,29.992-48.126,23.883-8-5.667,8.333-21.167,3.167-25-10.222-7.584-15.5,5.3-18.5,12.648s-13,18.018-11.334,32.352,11.412,43.571,11.412,43.571"/><path class="95ddc831-42d6-471f-83b7-abd2dc9a7e33" d="M464.542,148.59c-19.793-3.429-39.5,29.992-48.126,23.883-8-5.667,8.333-21.167,3.167-25-10.222-7.584-15.5,5.3-18.5,12.648s-13,18.018-11.334,32.352,11.412,43.571,11.412,43.571"/><path class="4a8c05c4-c939-467f-a917-f41e5e647883" d="M464.542,148.59c-19.793-3.429-39.5,29.992-48.126,23.883-8-5.667,8.333-21.167,3.167-25-10.222-7.584-15.5,5.3-18.5,12.648s-13,18.018-11.334,32.352,11.412,43.571,11.412,43.571"/><path class="0165ecb3-610a-4e58-b3e4-9b4f01dcf074" d="M331.416,87.473s21.333-18.667,62.667-11.334,62.666,4.667,70,2,44-30,52.666-35.333,59.334-29.333,66.667-29.333,65.333-8.667,70-7.334,8.667,13.334,5.333,25.334,3.127,48.666,1.23,63.333-6.563,109.333-6.563,121.333-4.667,27.334-4.667,30.667-3.25,19-19,9-28.5-21.5-28-33,10-20,9-26.5-4.5-30-5-34.5,4.5-24.5,5.5-31.5-1.5-24-1.5-31,5.5-15.5,3-20-6-34-37.5-31-51,38.5-53.5,42.5-13.5,32-23,38-20.5,11.5-29.5,16.5-16,16.5-20,19-19.5,11.5-22.5,15-31.5,26.5-26.5,52.5,18,38,4.5,63-62,44-66,44.5-26,9.5-32,19.5-4.5-15.5-3-21.5,7.5-18,12.5-25,6-26-8-30.5-33.5-11.5-30-29,10.5-27.5,12.5-33.5,7-37-26.5-23-30,10.5-42,16.5-24,17-25.5,21.5-18,38-31.5,4,3-30.5,0-48-25.5-21-36.5-16-30.5,22-34.5,25.5-13.5,22-22,23-30,2.5-35.5,3-19,6-22,6.5-20-1,3.5-18,69.5-57,85-63,32-12,45.5-11,33,7,48.5,4,59.5-12,75-22.5S331.416,87.473,331.416,87.473Z"/><path class="95ddc831-42d6-471f-83b7-abd2dc9a7e33" d="M331.416,87.473s21.333-18.667,62.667-11.334,62.666,4.667,70,2,44-30,52.666-35.333,59.334-29.333,66.667-29.333,65.333-8.667,70-7.334,8.667,13.334,5.333,25.334,3.127,48.666,1.23,63.333-6.563,109.333-6.563,121.333-4.667,27.334-4.667,30.667-3.25,19-19,9-28.5-21.5-28-33,10-20,9-26.5-4.5-30-5-34.5,4.5-24.5,5.5-31.5-1.5-24-1.5-31,5.5-15.5,3-20-6-34-37.5-31-51,38.5-53.5,42.5-13.5,32-23,38-20.5,11.5-29.5,16.5-16,16.5-20,19-19.5,11.5-22.5,15-31.5,26.5-26.5,52.5,18,38,4.5,63-62,44-66,44.5-26,9.5-32,19.5-4.5-15.5-3-21.5,7.5-18,12.5-25,6-26-8-30.5-33.5-11.5-30-29,10.5-27.5,12.5-33.5,7-37-26.5-23-30,10.5-42,16.5-24,17-25.5,21.5-18,38-31.5,4,3-30.5,0-48-25.5-21-36.5-16-30.5,22-34.5,25.5-13.5,22-22,23-30,2.5-35.5,3-19,6-22,6.5-20-1,3.5-18,69.5-57,85-63,32-12,45.5-11,33,7,48.5,4,59.5-12,75-22.5S331.416,87.473,331.416,87.473Z"/><path class="3d274bc8-9dfd-4a2f-bb0f-9b8d26a9217d" d="M331.416,87.473s21.333-18.667,62.667-11.334,62.666,4.667,70,2,44-30,52.666-35.333,59.334-29.333,66.667-29.333,65.333-8.667,70-7.334,8.667,13.334,5.333,25.334,3.127,48.666,1.23,63.333-6.563,109.333-6.563,121.333-4.667,27.334-4.667,30.667-3.25,19-19,9-28.5-21.5-28-33,10-20,9-26.5-4.5-30-5-34.5,4.5-24.5,5.5-31.5-1.5-24-1.5-31,5.5-15.5,3-20-6-34-37.5-31-51,38.5-53.5,42.5-13.5,32-23,38-20.5,11.5-29.5,16.5-16,16.5-20,19-19.5,11.5-22.5,15-31.5,26.5-26.5,52.5,18,38,4.5,63-62,44-66,44.5-26,9.5-32,19.5-4.5-15.5-3-21.5,7.5-18,12.5-25,6-26-8-30.5-33.5-11.5-30-29,10.5-27.5,12.5-33.5,7-37-26.5-23-30,10.5-42,16.5-24,17-25.5,21.5-18,38-31.5,4,3-30.5,0-48-25.5-21-36.5-16-30.5,22-34.5,25.5-13.5,22-22,23-30,2.5-35.5,3-19,6-22,6.5-20-1,3.5-18,69.5-57,85-63,32-12,45.5-11,33,7,48.5,4,59.5-12,75-22.5S331.416,87.473,331.416,87.473Z"/><use width="200" height="103.617" transform="translate(318.301 78.732) rotate(58.359) scale(0.133)" xlink:href="#1516857f-be1d-4d11-855f-ac13348a82c8"/></g></g></g></svg>