<svg xmlns="http://www.w3.org/2000/svg" xmlns:xlink="http://www.w3.org/1999/xlink" width="363.32" height="173.659" viewBox="0 0 363.32 173.659"><defs><style>.\38 552208c-6e2c-4ace-9e6f-b07fb5185a61{fill:#00ff24;}.\34 10eda47-18d6-4862-b7d2-73a795f0fbd9,.\38 552208c-6e2c-4ace-9e6f-b07fb5185a61{stroke:#000;stroke-miterlimit:10;stroke-width:5px;}.\34 10eda47-18d6-4862-b7d2-73a795f0fbd9{fill:#fff;}.\30 8b6c709-e520-4e58-a504-568e290b79f0,.\39 1081d27-4cde-4c47-aa4f-4ffdd1695385,.\39 84fb8c1-bddf-496d-b587-ff872eae8173,.e5ae6039-6d5d-42cd-91d6-5f0c510265ad,.fcbb5a7c-f3cb-4b8e-a913-c6c16f7e5426{fill:none;stroke-linejoin:round;}.\30 8b6c709-e520-4e58-a504-568e290b79f0,.e5ae6039-6d5d-42cd-91d6-5f0c510265ad{stroke:#009e04;}.\30 8b6c709-e520-4e58-a504-568e290b79f0,.\39 84fb8c1-bddf-496d-b587-ff872eae8173{stroke-width:11px;}.\39 1081d27-4cde-4c47-aa4f-4ffdd1695385{stroke:#fff;stroke-width:6px;}.\39 84fb8c1-bddf-496d-b587-ff872eae8173,.fcbb5a7c-f3cb-4b8e-a913-c6c16f7e5426{stroke:#0080ff;}</style><symbol id="dd75b44b-97e9-45d7-9a36-e4fb7ce21d52" data-name="start finish line" viewBox="0 0 200 103.617"><rect class="8552208c-6e2c-4ace-9e6f-b07fb5185a61" x="2.5" y="2.5" width="195" height="47.043"/><rect class="410eda47-18d6-4862-b7d2-73a795f0fbd9" x="2.5" y="52.367" width="48.75" height="48.75"/><rect class="410eda47-18d6-4862-b7d2-73a795f0fbd9" x="51.25" y="52.367" width="48.75" height="48.75"/><rect class="410eda47-18d6-4862-b7d2-73a795f0fbd9" x="100" y="52.367" width="48.75" height="48.75"/><rect class="410eda47-18d6-4862-b7d2-73a795f0fbd9" x="148.75" y="52.367" width="48.75" height="48.75"/></symbol></defs><title>Redwood_Rallycross_0.74</title><g id="11d4c066-51b7-46b3-bf1c-2cf89e6efd60" data-name="Layer 2"><g id="256c9b39-33a2-476c-be7e-370abbfed6f8" data-name="Rally X"><g id="1f26f338-9d15-4a35-a1b8-bb486388971b" data-name="Redwood_Rallycross_0.74"><path class="08b6c709-e520-4e58-a504-568e290b79f0" d="M81,103.834s-45.546,7.109-57.638,5.754S3.206,87.794,6.085,78.712s19-18.564,29.078-17.887,69.365,7.362,74.6,3.027"/><path class="91081d27-4cde-4c47-aa4f-4ffdd1695385" d="M81,103.834s-45.546,7.109-57.638,5.754S3.206,87.794,6.085,78.712s19-18.564,29.078-17.887,69.365,7.362,74.6,3.027"/><path class="e5ae6039-6d5d-42cd-91d6-5f0c510265ad" d="M81,103.834s-45.546,7.109-57.638,5.754S3.206,87.794,6.085,78.712s19-18.564,29.078-17.887,69.365,7.362,74.6,3.027"/><path id="0e9211a5-6263-414b-95f5-8550376ce8d9" data-name="Track" class="984fb8c1-bddf-496d-b587-ff872eae8173" d="M204.333,22.124c10.5,3.5,49.834,12,55,20s8,28,8,33.5-8,39.5,11,42,31-30,37-29.5,26.5,24.5,31.5,33.5,22,34,0,38-35,8-40,8.5-36.5-4.5-42.5-8.5-19-13.5-22.5-16-43-35.5-50-38-23.5-8-39-7.5-40,4-46.5,3.5-32,3.5-36.5,3-16.5-7.5-3-17,21.471-18.833,37.5-22.5,29.494-7.482,31-10,12.169-13.191,10.5-21-5-30.5,6.5-28.5S204.333,22.124,204.333,22.124Z"/><path id="107d3cf9-eda7-47eb-af0f-735841d1b28e" data-name="Track" class="91081d27-4cde-4c47-aa4f-4ffdd1695385" d="M204.333,22.124c10.5,3.5,49.834,12,55,20s8,28,8,33.5-8,39.5,11,42,31-30,37-29.5,26.5,24.5,31.5,33.5,22,34,0,38-35,8-40,8.5-36.5-4.5-42.5-8.5-19-13.5-22.5-16-43-35.5-50-38-23.5-8-39-7.5-40,4-46.5,3.5-32,3.5-36.5,3-16.5-7.5-3-17,21.471-18.833,37.5-22.5,29.494-7.482,31-10,12.169-13.191,10.5-21-5-30.5,6.5-28.5S204.333,22.124,204.333,22.124Z"/><path id="0058449b-fccc-40e1-92f0-87e79d55d1de" data-name="Track" class="fcbb5a7c-f3cb-4b8e-a913-c6c16f7e5426" d="M204.333,22.124c10.5,3.5,49.834,12,55,20s8,28,8,33.5-8,39.5,11,42,31-30,37-29.5,26.5,24.5,31.5,33.5,22,34,0,38-35,8-40,8.5-36.5-4.5-42.5-8.5-19-13.5-22.5-16-43-35.5-50-38-23.5-8-39-7.5-40,4-46.5,3.5-32,3.5-36.5,3-16.5-7.5-3-17,21.471-18.833,37.5-22.5,29.494-7.482,31-10,12.169-13.191,10.5-21-5-30.5,6.5-28.5S204.333,22.124,204.333,22.124Z"/><use width="200" height="103.617" transform="translate(224.51 14.75) rotate(105.335) scale(0.124)" xlink:href="#dd75b44b-97e9-45d7-9a36-e4fb7ce21d52"/></g></g></g></svg>