<svg xmlns="http://www.w3.org/2000/svg" xmlns:xlink="http://www.w3.org/1999/xlink" width="1014.788" height="824.155" viewBox="0 0 1014.788 824.155"><defs><style>.\33 465f54e-5131-464f-a52e-b18e2aa169be{fill:#00ff24;}.\33 465f54e-5131-464f-a52e-b18e2aa169be,.\37 6cfa930-9d0e-4ef7-8f5c-b9fe527f1602{stroke:#000;stroke-width:5px;}.\33 465f54e-5131-464f-a52e-b18e2aa169be,.\37 40ea8a4-99ae-48e4-a767-f17dc8f9eaf8,.\37 6cfa930-9d0e-4ef7-8f5c-b9fe527f1602,.\39 1953e6e-910d-4ebc-a2fd-5cb618b60db2,.a5578cfd-a30c-42b5-8fbd-7c6e60e7838d,.b162540f-3255-4203-ab3c-32eb316c488f,.b394ecc9-8878-4b70-b1c2-d3459ae14d66{stroke-miterlimit:10;}.\37 6cfa930-9d0e-4ef7-8f5c-b9fe527f1602{fill:#fff;}.\37 40ea8a4-99ae-48e4-a767-f17dc8f9eaf8,.\39 1953e6e-910d-4ebc-a2fd-5cb618b60db2,.a5578cfd-a30c-42b5-8fbd-7c6e60e7838d,.b162540f-3255-4203-ab3c-32eb316c488f,.b394ecc9-8878-4b70-b1c2-d3459ae14d66{fill:none;}.\37 40ea8a4-99ae-48e4-a767-f17dc8f9eaf8,.b162540f-3255-4203-ab3c-32eb316c488f{stroke:#c91c1c;}.a5578cfd-a30c-42b5-8fbd-7c6e60e7838d,.b162540f-3255-4203-ab3c-32eb316c488f{stroke-width:20px;}.\39 1953e6e-910d-4ebc-a2fd-5cb618b60db2,.a5578cfd-a30c-42b5-8fbd-7c6e60e7838d{stroke:#0080ff;}.b394ecc9-8878-4b70-b1c2-d3459ae14d66{stroke:#fff;stroke-width:12px;}.\37 40ea8a4-99ae-48e4-a767-f17dc8f9eaf8,.\39 1953e6e-910d-4ebc-a2fd-5cb618b60db2{stroke-width:2px;}</style><symbol id="f9865828-156e-469f-b7f8-21230d489ade" data-name="fd103434-89f2-4089-acf9-54fed79ed404" viewBox="0 0 200 103.617"><rect class="3465f54e-5131-464f-a52e-b18e2aa169be" x="2.5" y="54.074" width="195" height="47.043"/><rect class="76cfa930-9d0e-4ef7-8f5c-b9fe527f1602" x="2.5" y="2.5" width="48.75" height="48.75"/><rect class="76cfa930-9d0e-4ef7-8f5c-b9fe527f1602" x="51.25" y="2.5" width="48.75" height="48.75"/><rect class="76cfa930-9d0e-4ef7-8f5c-b9fe527f1602" x="100" y="2.5" width="48.75" height="48.75"/><rect class="76cfa930-9d0e-4ef7-8f5c-b9fe527f1602" x="148.75" y="2.5" width="48.75" height="48.75"/></symbol></defs><title>Coastline_Clash</title><g id="fb7c5e71-25eb-46e6-b8aa-828e10db7af4" data-name="Layer 2"><g id="7fc5fffe-46c6-49fd-87df-504e3553e575" data-name="City - Del Perro"><g id="96b27af5-6204-4cf3-97d2-727b2dd363a4" data-name="Coastline_Clash"><path id="325c7f70-86e0-428d-ab89-4452f78f2e6c" data-name="Pitlane Outer" class="b162540f-3255-4203-ab3c-32eb316c488f" d="M607.2,444.7c-13.333-11.834-46.913-25.682-59.329-29.515-11.594-3.58-34.584-12.667-48.084-20.667s-65.944-48.333-85.944-63.667-32-22.889-46.889-35.111-16.361-22-34.8-37.111"/><path id="c78492f8-4410-4399-b446-176fcb352828" data-name="Track Outer" class="a5578cfd-a30c-42b5-8fbd-7c6e60e7838d" d="M290.763,251.166c15.405,13.049,152.412,130.8,167.079,142.574s32,27.556,44.889,36.667,40.3,25.023,61.333,30.889c23.111,6.444,48.718,10.009,70.889,24.222,17.333,11.111,41,22.167,58,18.333s24.824-10.107,29.833-15.166c16.5-16.667,51.43,11.571,32.667,29.5-15,14.333-17.667,17.666-29,28.333s-23.833,19.333-8.667,40.167,20,27.333,28.167,40.833,36.333,67,42.167,78.5,6.291,12.292,11.125,22.792c4.713,10.238,5.613,13.264,5.291,29.958-.083,4.333,0,25.414,0,38.75,0,19.917,11.854,20.139,31.667,10.167,12.583-6.334,17.417-9.167,23-11.334s24.528-5.166,18.75-23.833-15.222-46.667-17.555-54-5-10.222-8.334-16.667-6.889-11.555-12.333-32.777-14.889-67.889-16.667-78.556-.877-18.235,17.222-30.111c15.834-10.389,30.667-20.389,45-30.056s49.667-35.833,61.334-46,34.833-29.833,46.5-40.666,18.592-19.436,1-39.667c-36.667-42.167-39.947-24.435-62-51.333-22-26.834-11.615-34.758-30.5-57-15-17.667-23-23.834-46.667-6.834s-46.222,35.111-61.555,45.556-30.346,21.944-49.556,35.555c-19.444,13.778-30,22.334-42,31.334-11.069,8.3-16.738,24.7,2.667,40.222,15,12,25.666,24.667,10.666,37.667s-29.555,22.416-48.222,11.75-35.778-23.528-47.889-34.973-47.278-45.277-68.111-61.611-54.5-40.666-96.5-61.666-82-41.167-111.833-65.5S206.509,155.74,187.4,139.962s-61.945-51.111-84.612-63.277C89.061,69.317,69.735,62.272,55.62,53.351,46.425,47.54,37.576,36.3,36.12,29.685c-5.5-25-19.308-25.206-24.5-6.167-4,14.667-2,32.5,22.333,41.5s35.667,11,54.333,22.5,29,20,45.667,33.5,63.752,52.562,83.5,69C237.675,206.851,268.573,232.37,290.763,251.166Z"/><path id="d6278159-1d7c-4a2e-a639-908e21e4b29b" data-name="Track Middle" class="b394ecc9-8878-4b70-b1c2-d3459ae14d66" d="M290.763,251.166c15.405,13.049,152.412,130.8,167.079,142.574s32,27.556,44.889,36.667,40.3,25.023,61.333,30.889c23.111,6.444,48.718,10.009,70.889,24.222,17.333,11.111,41,22.167,58,18.333s24.824-10.107,29.833-15.166c16.5-16.667,51.43,11.571,32.667,29.5-15,14.333-17.667,17.666-29,28.333s-23.833,19.333-8.667,40.167,20,27.333,28.167,40.833,36.333,67,42.167,78.5,6.291,12.292,11.125,22.792c4.713,10.238,5.613,13.264,5.291,29.958-.083,4.333,0,25.414,0,38.75,0,19.917,11.854,20.139,31.667,10.167,12.583-6.334,17.417-9.167,23-11.334s24.528-5.166,18.75-23.833-15.222-46.667-17.555-54-5-10.222-8.334-16.667-6.889-11.555-12.333-32.777-14.889-67.889-16.667-78.556-.877-18.235,17.222-30.111c15.834-10.389,30.667-20.389,45-30.056s49.667-35.833,61.334-46,34.833-29.833,46.5-40.666,18.592-19.436,1-39.667c-36.667-42.167-39.947-24.435-62-51.333-22-26.834-11.615-34.758-30.5-57-15-17.667-23-23.834-46.667-6.834s-46.222,35.111-61.555,45.556-30.346,21.944-49.556,35.555c-19.444,13.778-30,22.334-42,31.334-11.069,8.3-16.738,24.7,2.667,40.222,15,12,25.666,24.667,10.666,37.667s-29.555,22.416-48.222,11.75-35.778-23.528-47.889-34.973-47.278-45.277-68.111-61.611-54.5-40.666-96.5-61.666-82-41.167-111.833-65.5S206.509,155.74,187.4,139.962s-61.945-51.111-84.612-63.277C89.061,69.317,69.735,62.272,55.62,53.351,46.425,47.54,37.576,36.3,36.12,29.685c-5.5-25-19.308-25.206-24.5-6.167-4,14.667-2,32.5,22.333,41.5s35.667,11,54.333,22.5,29,20,45.667,33.5,63.752,52.562,83.5,69C237.675,206.851,268.573,232.37,290.763,251.166Z"/><path id="a4982aab-61d5-4315-8456-c9521b4ce10b" data-name="Pitlane Middle" class="b394ecc9-8878-4b70-b1c2-d3459ae14d66" d="M607.2,444.7c-13.333-11.834-46.913-25.682-59.329-29.515-11.594-3.58-34.584-12.667-48.084-20.667s-65.944-48.333-85.944-63.667-32-22.889-46.889-35.111-16.361-22-34.8-37.111"/><path id="8ca27d13-0a03-40e4-bdcb-0e105e2cc167" data-name="Pitlane Inner" class="740ea8a4-99ae-48e4-a767-f17dc8f9eaf8" d="M607.2,444.7c-13.333-11.834-46.913-25.682-59.329-29.515-11.594-3.58-34.584-12.667-48.084-20.667s-65.944-48.333-85.944-63.667-32-22.889-46.889-35.111-16.361-22-34.8-37.111"/><path id="04a46281-cf92-4aab-a046-148f1a22c074" data-name="Track Inner" class="91953e6e-910d-4ebc-a2fd-5cb618b60db2" d="M290.763,251.166c15.405,13.049,152.412,130.8,167.079,142.574s32,27.556,44.889,36.667,40.3,25.023,61.333,30.889c23.111,6.444,48.718,10.009,70.889,24.222,17.333,11.111,41,22.167,58,18.333s24.824-10.107,29.833-15.166c16.5-16.667,51.43,11.571,32.667,29.5-15,14.333-17.667,17.666-29,28.333s-23.833,19.333-8.667,40.167,20,27.333,28.167,40.833,36.333,67,42.167,78.5,6.291,12.292,11.125,22.792c4.713,10.238,5.613,13.264,5.291,29.958-.083,4.333,0,25.414,0,38.75,0,19.917,11.854,20.139,31.667,10.167,12.583-6.334,17.417-9.167,23-11.334s24.528-5.166,18.75-23.833-15.222-46.667-17.555-54-5-10.222-8.334-16.667-6.889-11.555-12.333-32.777-14.889-67.889-16.667-78.556-.877-18.235,17.222-30.111c15.834-10.389,30.667-20.389,45-30.056s49.667-35.833,61.334-46,34.833-29.833,46.5-40.666,18.592-19.436,1-39.667c-36.667-42.167-39.947-24.435-62-51.333-22-26.834-11.615-34.758-30.5-57-15-17.667-23-23.834-46.667-6.834s-46.222,35.111-61.555,45.556-30.346,21.944-49.556,35.555c-19.444,13.778-30,22.334-42,31.334-11.069,8.3-16.738,24.7,2.667,40.222,15,12,25.666,24.667,10.666,37.667s-29.555,22.416-48.222,11.75-35.778-23.528-47.889-34.973-47.278-45.277-68.111-61.611-54.5-40.666-96.5-61.666-82-41.167-111.833-65.5S206.509,155.74,187.4,139.962s-61.945-51.111-84.612-63.277C89.061,69.317,69.735,62.272,55.62,53.351,46.425,47.54,37.576,36.3,36.12,29.685c-5.5-25-19.308-25.206-24.5-6.167-4,14.667-2,32.5,22.333,41.5s35.667,11,54.333,22.5,29,20,45.667,33.5,63.752,52.562,83.5,69C237.675,206.851,268.573,232.37,290.763,251.166Z"/><use id="6d219657-1222-4421-a9ce-df28ad06429e" data-name="Start-Finish-Line" width="200" height="103.617" transform="translate(264.176 258.799) rotate(-49.262) scale(0.23)" xlink:href="#f9865828-156e-469f-b7f8-21230d489ade"/></g></g></g></svg>