<svg xmlns="http://www.w3.org/2000/svg" xmlns:xlink="http://www.w3.org/1999/xlink" width="1014.788" height="824.155" viewBox="0 0 1014.788 824.155"><defs><style>.d91c3767-a1e6-42e7-9c44-3d6cae1dcc22{fill:#00ff24;}.\31 1144685-48ca-4063-b4bc-af05ad9b6447,.d91c3767-a1e6-42e7-9c44-3d6cae1dcc22{stroke:#000;stroke-width:5px;}.\31 1144685-48ca-4063-b4bc-af05ad9b6447,.\31 c121f4b-dd15-431e-a4ad-aa2543723861,.\35 390306d-4dbc-4ea2-85a7-bda578a5c071,.\37 e421e49-8ae7-4926-8a73-75db4a06064d,.\39 c6e1fd6-8fd7-4633-bdc5-e30e7d0c0b7d,.d91c3767-a1e6-42e7-9c44-3d6cae1dcc22,.e8a490ed-76b2-45e4-acc3-3ebdc5c95f2e{stroke-miterlimit:10;}.\31 1144685-48ca-4063-b4bc-af05ad9b6447{fill:#fff;}.\31 c121f4b-dd15-431e-a4ad-aa2543723861,.\35 390306d-4dbc-4ea2-85a7-bda578a5c071,.\37 e421e49-8ae7-4926-8a73-75db4a06064d,.\39 c6e1fd6-8fd7-4633-bdc5-e30e7d0c0b7d,.e8a490ed-76b2-45e4-acc3-3ebdc5c95f2e{fill:none;}.\37 e421e49-8ae7-4926-8a73-75db4a06064d,.e8a490ed-76b2-45e4-acc3-3ebdc5c95f2e{stroke:#c91c1c;}.\31 c121f4b-dd15-431e-a4ad-aa2543723861,.e8a490ed-76b2-45e4-acc3-3ebdc5c95f2e{stroke-width:20px;}.\31 c121f4b-dd15-431e-a4ad-aa2543723861,.\35 390306d-4dbc-4ea2-85a7-bda578a5c071{stroke:#0080ff;}.\39 c6e1fd6-8fd7-4633-bdc5-e30e7d0c0b7d{stroke:#fff;stroke-width:12px;}.\35 390306d-4dbc-4ea2-85a7-bda578a5c071,.\37 e421e49-8ae7-4926-8a73-75db4a06064d{stroke-width:2px;}</style><symbol id="6d495225-9c20-41df-bb00-f629f3f07ad0" data-name="fd103434-89f2-4089-acf9-54fed79ed404" viewBox="0 0 200 103.617"><rect class="d91c3767-a1e6-42e7-9c44-3d6cae1dcc22" x="2.5" y="54.074" width="195" height="47.043"/><rect class="11144685-48ca-4063-b4bc-af05ad9b6447" x="2.5" y="2.5" width="48.75" height="48.75"/><rect class="11144685-48ca-4063-b4bc-af05ad9b6447" x="51.25" y="2.5" width="48.75" height="48.75"/><rect class="11144685-48ca-4063-b4bc-af05ad9b6447" x="100" y="2.5" width="48.75" height="48.75"/><rect class="11144685-48ca-4063-b4bc-af05ad9b6447" x="148.75" y="2.5" width="48.75" height="48.75"/></symbol></defs><title>Coastline_Clash_5M</title><g id="ca49f443-7465-4b7b-9416-419fc63c25a9" data-name="Layer 2"><g id="1ea858ef-b775-406d-9b26-987cfa11323b" data-name="City - Del Perro"><g id="baf2d7b2-36cc-4eb8-9d2d-56788aabdffc" data-name="Coastline_Clash_5M"><path id="7dbe2ee6-d99e-4aa1-bdf1-6cda6285c408" data-name="Pitlane Outer" class="e8a490ed-76b2-45e4-acc3-3ebdc5c95f2e" d="M607.2,444.7c-13.333-11.834-46.913-25.682-59.329-29.515-11.594-3.58-34.584-12.667-48.084-20.667s-65.944-48.333-85.944-63.667-32-22.889-46.889-35.111-16.361-22-34.8-37.111"/><path id="62c81582-55dc-4a8a-8c47-4549007a3c14" data-name="Track Outer" class="1c121f4b-dd15-431e-a4ad-aa2543723861" d="M290.763,251.166c15.405,13.049,152.412,130.8,167.079,142.574s32,27.556,44.889,36.667,40.3,25.023,61.333,30.889c23.111,6.444,48.718,10.009,70.889,24.222,17.333,11.111,41,22.167,58,18.333s24.824-10.107,29.833-15.166c16.5-16.667,51.43,11.571,32.667,29.5-15,14.333-17.667,17.666-29,28.333s-23.833,19.333-8.667,40.167,20,27.333,28.167,40.833,36.333,67,42.167,78.5,6.291,12.292,11.125,22.792c4.713,10.238,5.613,13.264,5.291,29.958-.083,4.333,0,25.414,0,38.75,0,19.917,11.854,20.139,31.667,10.167,12.583-6.334,17.417-9.167,23-11.334s24.528-5.166,18.75-23.833-15.222-46.667-17.555-54-5-10.222-8.334-16.667-6.889-11.555-12.333-32.777-14.889-67.889-16.667-78.556-.877-18.235,17.222-30.111c15.834-10.389,30.667-20.389,45-30.056s49.667-35.833,61.334-46,34.833-29.833,46.5-40.666,18.592-19.436,1-39.667c-36.667-42.167-39.947-24.435-62-51.333-22-26.834-11.615-34.758-30.5-57-15-17.667-23-23.834-46.667-6.834s-46.222,35.111-61.555,45.556-30.346,21.944-49.556,35.555c-19.444,13.778-30,22.334-42,31.334-11.069,8.3-16.738,24.7,2.667,40.222,15,12,25.666,24.667,10.666,37.667s-29.555,22.416-48.222,11.75-35.778-23.528-47.889-34.973-47.278-45.277-68.111-61.611-54.5-40.666-96.5-61.666-82-41.167-111.833-65.5S206.509,155.74,187.4,139.962s-61.945-51.111-84.612-63.277C89.061,69.317,69.735,62.272,55.62,53.351,46.425,47.54,37.576,36.3,36.12,29.685c-5.5-25-19.308-25.206-24.5-6.167-4,14.667-2,32.5,22.333,41.5s35.667,11,54.333,22.5,29,20,45.667,33.5,63.752,52.562,83.5,69C237.675,206.851,268.573,232.37,290.763,251.166Z"/><path id="11f9bc84-ca6d-4b1c-98f6-14d6f1c93a46" data-name="Track Middle" class="9c6e1fd6-8fd7-4633-bdc5-e30e7d0c0b7d" d="M290.763,251.166c15.405,13.049,152.412,130.8,167.079,142.574s32,27.556,44.889,36.667,40.3,25.023,61.333,30.889c23.111,6.444,48.718,10.009,70.889,24.222,17.333,11.111,41,22.167,58,18.333s24.824-10.107,29.833-15.166c16.5-16.667,51.43,11.571,32.667,29.5-15,14.333-17.667,17.666-29,28.333s-23.833,19.333-8.667,40.167,20,27.333,28.167,40.833,36.333,67,42.167,78.5,6.291,12.292,11.125,22.792c4.713,10.238,5.613,13.264,5.291,29.958-.083,4.333,0,25.414,0,38.75,0,19.917,11.854,20.139,31.667,10.167,12.583-6.334,17.417-9.167,23-11.334s24.528-5.166,18.75-23.833-15.222-46.667-17.555-54-5-10.222-8.334-16.667-6.889-11.555-12.333-32.777-14.889-67.889-16.667-78.556-.877-18.235,17.222-30.111c15.834-10.389,30.667-20.389,45-30.056s49.667-35.833,61.334-46,34.833-29.833,46.5-40.666,18.592-19.436,1-39.667c-36.667-42.167-39.947-24.435-62-51.333-22-26.834-11.615-34.758-30.5-57-15-17.667-23-23.834-46.667-6.834s-46.222,35.111-61.555,45.556-30.346,21.944-49.556,35.555c-19.444,13.778-30,22.334-42,31.334-11.069,8.3-16.738,24.7,2.667,40.222,15,12,25.666,24.667,10.666,37.667s-29.555,22.416-48.222,11.75-35.778-23.528-47.889-34.973-47.278-45.277-68.111-61.611-54.5-40.666-96.5-61.666-82-41.167-111.833-65.5S206.509,155.74,187.4,139.962s-61.945-51.111-84.612-63.277C89.061,69.317,69.735,62.272,55.62,53.351,46.425,47.54,37.576,36.3,36.12,29.685c-5.5-25-19.308-25.206-24.5-6.167-4,14.667-2,32.5,22.333,41.5s35.667,11,54.333,22.5,29,20,45.667,33.5,63.752,52.562,83.5,69C237.675,206.851,268.573,232.37,290.763,251.166Z"/><path id="11dd2ee5-55a6-4493-a370-af8702a42322" data-name="Pitlane Middle" class="9c6e1fd6-8fd7-4633-bdc5-e30e7d0c0b7d" d="M607.2,444.7c-13.333-11.834-46.913-25.682-59.329-29.515-11.594-3.58-34.584-12.667-48.084-20.667s-65.944-48.333-85.944-63.667-32-22.889-46.889-35.111-16.361-22-34.8-37.111"/><path id="f5b58180-a23d-46d2-a88d-43b462b4229f" data-name="Pitlane Inner" class="7e421e49-8ae7-4926-8a73-75db4a06064d" d="M607.2,444.7c-13.333-11.834-46.913-25.682-59.329-29.515-11.594-3.58-34.584-12.667-48.084-20.667s-65.944-48.333-85.944-63.667-32-22.889-46.889-35.111-16.361-22-34.8-37.111"/><path id="ad5d1884-077d-4bc6-ad6b-50f26feede29" data-name="Track Inner" class="5390306d-4dbc-4ea2-85a7-bda578a5c071" d="M290.763,251.166c15.405,13.049,152.412,130.8,167.079,142.574s32,27.556,44.889,36.667,40.3,25.023,61.333,30.889c23.111,6.444,48.718,10.009,70.889,24.222,17.333,11.111,41,22.167,58,18.333s24.824-10.107,29.833-15.166c16.5-16.667,51.43,11.571,32.667,29.5-15,14.333-17.667,17.666-29,28.333s-23.833,19.333-8.667,40.167,20,27.333,28.167,40.833,36.333,67,42.167,78.5,6.291,12.292,11.125,22.792c4.713,10.238,5.613,13.264,5.291,29.958-.083,4.333,0,25.414,0,38.75,0,19.917,11.854,20.139,31.667,10.167,12.583-6.334,17.417-9.167,23-11.334s24.528-5.166,18.75-23.833-15.222-46.667-17.555-54-5-10.222-8.334-16.667-6.889-11.555-12.333-32.777-14.889-67.889-16.667-78.556-.877-18.235,17.222-30.111c15.834-10.389,30.667-20.389,45-30.056s49.667-35.833,61.334-46,34.833-29.833,46.5-40.666,18.592-19.436,1-39.667c-36.667-42.167-39.947-24.435-62-51.333-22-26.834-11.615-34.758-30.5-57-15-17.667-23-23.834-46.667-6.834s-46.222,35.111-61.555,45.556-30.346,21.944-49.556,35.555c-19.444,13.778-30,22.334-42,31.334-11.069,8.3-16.738,24.7,2.667,40.222,15,12,25.666,24.667,10.666,37.667s-29.555,22.416-48.222,11.75-35.778-23.528-47.889-34.973-47.278-45.277-68.111-61.611-54.5-40.666-96.5-61.666-82-41.167-111.833-65.5S206.509,155.74,187.4,139.962s-61.945-51.111-84.612-63.277C89.061,69.317,69.735,62.272,55.62,53.351,46.425,47.54,37.576,36.3,36.12,29.685c-5.5-25-19.308-25.206-24.5-6.167-4,14.667-2,32.5,22.333,41.5s35.667,11,54.333,22.5,29,20,45.667,33.5,63.752,52.562,83.5,69C237.675,206.851,268.573,232.37,290.763,251.166Z"/><use id="6748bc66-1e6c-4f10-838c-bd74606b3018" data-name="Start-Finish-Line" width="200" height="103.617" transform="translate(264.176 258.799) rotate(-49.262) scale(0.23)" xlink:href="#6d495225-9c20-41df-bb00-f629f3f07ad0"/></g></g></g></svg>