<svg xmlns="http://www.w3.org/2000/svg" xmlns:xlink="http://www.w3.org/1999/xlink" width="515.313" height="415.561" viewBox="0 0 515.313 415.561"><defs><style>.\39 1706b9b-d96f-475e-869b-20f76917186f{fill:#00ff24;}.\39 1706b9b-d96f-475e-869b-20f76917186f,.\39 6f4599b-64d8-4652-acd6-26a089e2f16f{stroke:#000;stroke-width:5px;}.\33 2352020-ef8b-46ed-81cb-7b33944f18e1,.\36 0dd78c3-1114-481d-bed1-40d06801c8bf,.\38 31a7754-1f72-4e1e-936c-023c07c2dd9e,.\39 1706b9b-d96f-475e-869b-20f76917186f,.\39 6f4599b-64d8-4652-acd6-26a089e2f16f,.f2514885-4da0-4068-b62d-9e531d8d31bb,.f872dcad-7830-47ae-a651-13f517ed039c{stroke-miterlimit:10;}.\39 6f4599b-64d8-4652-acd6-26a089e2f16f{fill:#fff;}.\33 2352020-ef8b-46ed-81cb-7b33944f18e1,.\36 0dd78c3-1114-481d-bed1-40d06801c8bf,.\38 31a7754-1f72-4e1e-936c-023c07c2dd9e,.f2514885-4da0-4068-b62d-9e531d8d31bb,.f872dcad-7830-47ae-a651-13f517ed039c{fill:none;}.\38 31a7754-1f72-4e1e-936c-023c07c2dd9e,.f872dcad-7830-47ae-a651-13f517ed039c{stroke:#c91c1c;}.\36 0dd78c3-1114-481d-bed1-40d06801c8bf,.f872dcad-7830-47ae-a651-13f517ed039c{stroke-width:20px;}.\36 0dd78c3-1114-481d-bed1-40d06801c8bf,.f2514885-4da0-4068-b62d-9e531d8d31bb{stroke:#0080ff;}.\33 2352020-ef8b-46ed-81cb-7b33944f18e1{stroke:#fff;stroke-width:12px;}.\38 31a7754-1f72-4e1e-936c-023c07c2dd9e,.f2514885-4da0-4068-b62d-9e531d8d31bb{stroke-width:2px;}</style><symbol id="ab2e81ec-2478-4643-8603-dc4dab9e0a5b" data-name="fd103434-89f2-4089-acf9-54fed79ed404" viewBox="0 0 200 103.617"><rect class="91706b9b-d96f-475e-869b-20f76917186f" x="2.5" y="54.074" width="195" height="47.043"/><rect class="96f4599b-64d8-4652-acd6-26a089e2f16f" x="2.5" y="2.5" width="48.75" height="48.75"/><rect class="96f4599b-64d8-4652-acd6-26a089e2f16f" x="51.25" y="2.5" width="48.75" height="48.75"/><rect class="96f4599b-64d8-4652-acd6-26a089e2f16f" x="100" y="2.5" width="48.75" height="48.75"/><rect class="96f4599b-64d8-4652-acd6-26a089e2f16f" x="148.75" y="2.5" width="48.75" height="48.75"/></symbol></defs><title>Coastal_Sprint</title><g id="596702c4-78be-4d76-b8a1-828bb7be7270" data-name="Layer 2"><g id="ab9c689d-d401-4fea-b428-51913539ba75" data-name="City - Del Perro"><g id="b202498f-b80a-40e5-9f82-30eb633359cb" data-name="Coastal_Sprint"><path id="045439d9-7201-43ba-95d0-1a340cb69a3f" data-name="Pit Outer" class="f872dcad-7830-47ae-a651-13f517ed039c" d="M418.513,331.986c9.973,11.084,68.552,52.282,77.089,58.107,14.166,9.667,13.833,23.667-7.667,9.333S456.268,377.01,445.1,368.843s-17.355-15.558-24.189-8.1"/><path id="3facef8f-65ab-4a39-bc10-cabef2d48d2d" data-name="Track Outer" class="60dd78c3-1114-481d-bed1-40d06801c8bf" d="M81.768,207.843c-15.413-6.439-36.833-15.333-47.5-19.167s-29.293-11.387-23-42c4.5-21.889,13.959-51.936,26-70.666,8.5-13.223,28.667-35,48.334-46.5s28.166-15,43.833-18.834S180.99,20.4,203.324,23.9s60.32,9.315,81.555,27.333c14.667,12.444,26.445,34.222,33.111,45.111s19.334,29.778,34,44.222,32.445,29.334,49.778,33.556,48.667,21.333,32.889,42.444-21.333,26.889-28,37.111-13.252,28.884-7.555,47.556c4,13.111,9.986,20.591,19.333,30.667,17.111,18.444,1.395,51.139-38.667,25.333C355.1,341.343,179.435,224.343,169.1,217.676a63.459,63.459,0,0,0-43.778-8.666C107.99,211.9,98.657,214.9,81.768,207.843Z"/><path id="46eb0444-4209-4b02-8754-90c5a0ac6f03" data-name="Track Middle" class="32352020-ef8b-46ed-81cb-7b33944f18e1" d="M81.768,207.843c-15.413-6.439-36.833-15.333-47.5-19.167s-29.293-11.387-23-42c4.5-21.889,13.959-51.936,26-70.666,8.5-13.223,28.667-35,48.334-46.5s28.166-15,43.833-18.834S180.99,20.4,203.324,23.9s60.32,9.315,81.555,27.333c14.667,12.444,26.445,34.222,33.111,45.111s19.334,29.778,34,44.222,32.445,29.334,49.778,33.556,48.667,21.333,32.889,42.444-21.333,26.889-28,37.111-13.252,28.884-7.555,47.556c4,13.111,9.986,20.591,19.333,30.667,17.111,18.444,1.395,51.139-38.667,25.333C355.1,341.343,179.435,224.343,169.1,217.676a63.459,63.459,0,0,0-43.778-8.666C107.99,211.9,98.657,214.9,81.768,207.843Z"/><path id="cd076b5b-217c-4ac7-987e-0afb2bcbca92" data-name="Pit Middle" class="32352020-ef8b-46ed-81cb-7b33944f18e1" d="M418.513,331.986c9.973,11.084,68.552,52.282,77.089,58.107,14.166,9.667,13.833,23.667-7.667,9.333S456.268,377.01,445.1,368.843s-17.355-15.558-24.189-8.1"/><path id="2426f36b-9353-4993-a300-3e879d83c5a1" data-name="Pit Inner" class="831a7754-1f72-4e1e-936c-023c07c2dd9e" d="M418.513,331.986c9.973,11.084,68.552,52.282,77.089,58.107,14.166,9.667,13.833,23.667-7.667,9.333S456.268,377.01,445.1,368.843s-17.355-15.558-24.189-8.1"/><path id="d91fbe01-74fa-4147-a062-9b71c7239393" data-name="Track Inner" class="f2514885-4da0-4068-b62d-9e531d8d31bb" d="M81.768,207.843c-15.413-6.439-36.833-15.333-47.5-19.167s-29.293-11.387-23-42c4.5-21.889,13.959-51.936,26-70.666,8.5-13.223,28.667-35,48.334-46.5s28.166-15,43.833-18.834S180.99,20.4,203.324,23.9s60.32,9.315,81.555,27.333c14.667,12.444,26.445,34.222,33.111,45.111s19.334,29.778,34,44.222,32.445,29.334,49.778,33.556,48.667,21.333,32.889,42.444-21.333,26.889-28,37.111-13.252,28.884-7.555,47.556c4,13.111,9.986,20.591,19.333,30.667,17.111,18.444,1.395,51.139-38.667,25.333C355.1,341.343,179.435,224.343,169.1,217.676a63.459,63.459,0,0,0-43.778-8.666C107.99,211.9,98.657,214.9,81.768,207.843Z"/><use id="22cb411d-da6d-4603-ac48-36441b2134cc" data-name="Start-Finish-Line" width="200" height="103.617" transform="translate(105.727 185.875) rotate(112.728) scale(0.287)" xlink:href="#ab2e81ec-2478-4643-8603-dc4dab9e0a5b"/></g></g></g></svg>