<svg xmlns="http://www.w3.org/2000/svg" viewBox="0 0 525.669 508.895"><defs><style>.\30 d33fcb6-9d0c-4faf-a2a7-b564bea83048,.\36 231d7e9-ee31-4ee1-b675-80868cb92c94,.\36 ad31193-259b-449c-b3f6-8c91010f1f57,.\38 8d7eb18-1c1a-4fe6-8621-a728b0a10820,.c753e69e-64b2-4a33-9e48-a53cb4e39653{fill:none;stroke-linejoin:round;}.\36 231d7e9-ee31-4ee1-b675-80868cb92c94,.\38 8d7eb18-1c1a-4fe6-8621-a728b0a10820{stroke:#c91c1c;}.\30 d33fcb6-9d0c-4faf-a2a7-b564bea83048,.\38 8d7eb18-1c1a-4fe6-8621-a728b0a10820{stroke-width:20px;}.\38 c0dc0eb-4377-46b0-831a-22003ab7e0a2,.c753e69e-64b2-4a33-9e48-a53cb4e39653{stroke:#fff;}.c753e69e-64b2-4a33-9e48-a53cb4e39653{stroke-width:11px;}.\36 231d7e9-ee31-4ee1-b675-80868cb92c94,.aac932d9-7cdb-4b98-9f2b-c5a38a3bcc66,.f3aad0d0-649b-46b3-ab13-e057d073437e{stroke-width:2px;}.\30 d33fcb6-9d0c-4faf-a2a7-b564bea83048,.\36 ad31193-259b-449c-b3f6-8c91010f1f57{stroke:#0080ff;}.aac932d9-7cdb-4b98-9f2b-c5a38a3bcc66{fill:#00ff24;}.aac932d9-7cdb-4b98-9f2b-c5a38a3bcc66,.f3aad0d0-649b-46b3-ab13-e057d073437e{stroke:#000;}.\38 c0dc0eb-4377-46b0-831a-22003ab7e0a2,.aac932d9-7cdb-4b98-9f2b-c5a38a3bcc66,.f3aad0d0-649b-46b3-ab13-e057d073437e{stroke-miterlimit:10;}.f3aad0d0-649b-46b3-ab13-e057d073437e,.f6600d04-8031-4f8c-b9f0-d4f10f534ff3{fill:#fff;}.\38 c0dc0eb-4377-46b0-831a-22003ab7e0a2{fill:#3a3a3a;stroke-width:3px;}.\30 0d40b68-71cb-4ba3-a25f-e262f304ec9a{isolation:isolate;}</style></defs><title>City - Del Perro</title><g id="870f4645-046a-489b-8361-7ba7a97fb2d2" data-name="Layer 2"><g id="600c7d9b-2439-4447-923b-e05b3bb50bfb" data-name="Layer 1"><g id="a297e978-327a-4b69-94d7-41bf8a8e1c15" data-name="City - Del Perro"><g id="df2d67fe-39ce-4b7a-808d-c9c74d47a060" data-name="Del Perro Road Course"><path id="f84b4782-8cfb-4adc-b78a-0f34d300b158" data-name="Pit Outer" class="88d7eb18-1c1a-4fe6-8621-a728b0a10820" d="M248.214,241.114s-29.93-24-59.21-47.74-58.94-45.5-59.73-61.72-.4-31.65,10.28-39.56,13.45-17,22.95-4.75c0,0,15.82,29.67,45.89,41.54s49.84,16.81,66.06,14.24,26.54-17,26.54-17"/><path id="a00764d7-4c4c-4b92-857b-4d61f52bc3fc" data-name="Pit Mid" class="c753e69e-64b2-4a33-9e48-a53cb4e39653" d="M248.214,241.114s-29.93-24-59.21-47.74-58.94-45.5-59.73-61.72-.4-31.65,10.28-39.56,13.45-17,22.95-4.75c0,0,15.82,29.67,45.89,41.54s49.84,16.81,66.06,14.24,26.54-17,26.54-17"/><path id="96667094-16cc-45e5-9c55-0e17c6990949" data-name="Pit inner" class="6231d7e9-ee31-4ee1-b675-80868cb92c94" d="M248.214,241.114s-29.93-24-59.21-47.74-58.94-45.5-59.73-61.72-.4-31.65,10.28-39.56,13.45-17,22.95-4.75c0,0,15.82,29.67,45.89,41.54s49.84,16.81,66.06,14.24,26.54-17,26.54-17"/><path id="1b7a4e97-9fa1-48ef-9422-696873f0a6a6" data-name="Track Outer" class="0d33fcb6-9d0c-4faf-a2a7-b564bea83048" d="M75.074,208.8s-19.78-17.51-35.61-29.06,0-28.44,17.81-20.79S213.794,265.5,232,272.364s31.65-4.75,22.15-20.31-19.25-37.45-2.9-60.93,42.47-51.95,51.43-67.78,16.09-27.69,21.89-51.42,14-29.28,18.2-25.32-19.52,46.68-5.8,59.87,28.48,27.69,19,38.76-50.9,50.91-40.88,61.72,34.28,34.81,48,26.11,55.38-43.52,68-29.54,53.28,74.11,43.78,79.65-93.1,55.38-89.93,65.93,93.76,79.91,93.43,89.15-17.48,37.18-63.1,16.08-68.05-25-92.57-37.18-137.13-115.26-137.13-115.26Z"/><path id="3474243d-a173-4358-883e-ca0d631fe81b" data-name="Track Mid" class="c753e69e-64b2-4a33-9e48-a53cb4e39653" d="M75.074,208.8s-19.78-17.51-35.61-29.06,0-28.44,17.81-20.79S213.794,265.5,232,272.364s31.65-4.75,22.15-20.31-19.25-37.45-2.9-60.93,42.47-51.95,51.43-67.78,16.09-27.69,21.89-51.42,14-29.28,18.2-25.32-19.52,46.68-5.8,59.87,28.48,27.69,19,38.76-50.9,50.91-40.88,61.72,34.28,34.81,48,26.11,55.38-43.52,68-29.54,53.28,74.11,43.78,79.65-93.1,55.38-89.93,65.93,93.76,79.91,93.43,89.15-17.48,37.18-63.1,16.08-68.05-25-92.57-37.18-137.13-115.26-137.13-115.26Z"/><path id="3fe749a9-0edf-40b2-b78e-1fa0c7b5f503" data-name="Track Inner" class="6ad31193-259b-449c-b3f6-8c91010f1f57" d="M75.074,208.8s-19.78-17.51-35.61-29.06,0-28.44,17.81-20.79S213.794,265.5,232,272.364s31.65-4.75,22.15-20.31-19.25-37.45-2.9-60.93,42.47-51.95,51.43-67.78,16.09-27.69,21.89-51.42,14-29.28,18.2-25.32-19.52,46.68-5.8,59.87,28.48,27.69,19,38.76-50.9,50.91-40.88,61.72,34.28,34.81,48,26.11,55.38-43.52,68-29.54,53.28,74.11,43.78,79.65-93.1,55.38-89.93,65.93,93.76,79.91,93.43,89.15-17.48,37.18-63.1,16.08-68.05-25-92.57-37.18-137.13-115.26-137.13-115.26Z"/><rect class="aac932d9-7cdb-4b98-9f2b-c5a38a3bcc66" x="44.228" y="192.304" width="36.48" height="8.8" transform="translate(-130.038 122.3) rotate(-51.25)"/><rect class="f3aad0d0-649b-46b3-ab13-e057d073437e" x="56.74" y="208.753" width="9.12" height="9.12" transform="translate(-143.429 127.602) rotate(-51.25)"/><rect class="f3aad0d0-649b-46b3-ab13-e057d073437e" x="62.449" y="201.639" width="9.12" height="9.12" transform="translate(-135.745 129.393) rotate(-51.25)"/><rect class="f3aad0d0-649b-46b3-ab13-e057d073437e" x="68.158" y="194.526" width="9.12" height="9.12" transform="translate(-128.062 131.185) rotate(-51.25)"/><rect class="f3aad0d0-649b-46b3-ab13-e057d073437e" x="73.877" y="187.422" width="9.12" height="9.12" transform="translate(-120.383 132.988) rotate(-51.25)"/><g id="e02e77fb-b8b5-4ee6-8b47-38fa70179dfb" data-name="Corner Numbers"><g id="717ca15e-843d-431e-a55d-f197494cc294" data-name="Layer 35"><path id="125d9ec2-b434-452e-a87a-21e8315ea750" data-name="Elipse l" class="8c0dc0eb-4377-46b0-831a-22003ab7e0a2" d="M14,151.294a14.76,14.76,0,1,1,16.844-12.328l0,.028c-1.68,10.62-.63,14.52-1.8,15.35S24.494,152.994,14,151.294Z"/><g id="228ce5a1-14e7-43b3-bb3a-56562f417bbf" data-name="Number l" class="00d40b68-71cb-4ba3-a25f-e262f304ec9a"><path class="f6600d04-8031-4f8c-b9f0-d4f10f534ff3" d="M18.747,144.824H16.805V132.447a10.112,10.112,0,0,1-1.84,1.338,13.154,13.154,0,0,1-2.045,1v-1.878a11.742,11.742,0,0,0,2.85-1.857,7.312,7.312,0,0,0,1.726-2.115h1.251Z"/></g></g><g id="9f4a5a94-376d-4fd3-832a-426e52e1e3ad" data-name="Layer 36"><path id="b94b0cd5-fbc9-4c75-a747-0872a6fa23e7" data-name="Elipse l-2" class="8c0dc0eb-4377-46b0-831a-22003ab7e0a2" d="M275.894,279.754a14.76,14.76,0,1,1-15.16,14.35c.3-10.75-1.24-14.48-.19-15.46S265.234,279.464,275.894,279.754Z"/><g id="029f3409-af01-4fd0-839a-4697cdd273c9" data-name="Number l-2" class="00d40b68-71cb-4ba3-a25f-e262f304ec9a"><path class="f6600d04-8031-4f8c-b9f0-d4f10f534ff3" d="M280.01,299.667v1.867H269.553a3.452,3.452,0,0,1,.226-1.349,7.125,7.125,0,0,1,1.28-2.1,19.939,19.939,0,0,1,2.541-2.4,21.522,21.522,0,0,0,3.485-3.351,4.006,4.006,0,0,0,.906-2.335,2.594,2.594,0,0,0-.825-1.949,2.98,2.98,0,0,0-2.152-.793,3.034,3.034,0,0,0-2.245.842,3.189,3.189,0,0,0-.853,2.331l-2-.2a4.918,4.918,0,0,1,1.543-3.405,5.269,5.269,0,0,1,3.594-1.171,5.016,5.016,0,0,1,3.6,1.263,4.142,4.142,0,0,1,1.327,3.13,4.765,4.765,0,0,1-.388,1.866,7.235,7.235,0,0,1-1.29,1.931,31.333,31.333,0,0,1-3,2.785q-1.748,1.467-2.244,1.991a6.333,6.333,0,0,0-.82,1.052Z"/></g></g><g id="bc69b21f-967c-4bd8-8d68-f91d490476ef" data-name="Layer 37"><path id="c4e563f0-dfeb-4700-82fb-ea793e49d626" data-name="Elipse l-3" class="8c0dc0eb-4377-46b0-831a-22003ab7e0a2" d="M218.784,199.734a14.77,14.77,0,1,1,16.882-12.3l0,.011c-1.66,10.63-.66,14.55-1.79,15.36S229.324,201.394,218.784,199.734Z"/><g id="59ff2e0e-4661-43e4-b081-03967ace2fa3" data-name="Number l-3" class="00d40b68-71cb-4ba3-a25f-e262f304ec9a"><path class="f6600d04-8031-4f8c-b9f0-d4f10f534ff3" d="M216.262,189.078l1.943-.26a4.274,4.274,0,0,0,1.138,2.38,2.814,2.814,0,0,0,1.958.728,3.136,3.136,0,0,0,2.315-.95,3.2,3.2,0,0,0,.945-2.351,2.982,2.982,0,0,0-.875-2.208,3.021,3.021,0,0,0-2.223-.869,5.619,5.619,0,0,0-1.37.216l.216-1.705a2.866,2.866,0,0,0,.313.023,4,4,0,0,0,2.234-.649,2.217,2.217,0,0,0,.992-2,2.363,2.363,0,0,0-.723-1.77,2.571,2.571,0,0,0-1.867-.7,2.649,2.649,0,0,0-1.888.712,3.584,3.584,0,0,0-.972,2.137l-1.942-.346a4.993,4.993,0,0,1,1.619-3.026,4.678,4.678,0,0,1,3.14-1.074,5.182,5.182,0,0,1,2.385.555,4.018,4.018,0,0,1,1.667,1.517,3.894,3.894,0,0,1,.577,2.039,3.335,3.335,0,0,1-.55,1.867,3.747,3.747,0,0,1-1.629,1.338,3.668,3.668,0,0,1,2.179,1.344,4.087,4.087,0,0,1,.778,2.552,4.669,4.669,0,0,1-1.511,3.512,5.312,5.312,0,0,1-3.82,1.441,4.968,4.968,0,0,1-3.459-1.241A4.8,4.8,0,0,1,216.262,189.078Z"/></g></g><g id="9af5e568-a604-4e69-83e4-946e6c2c49d7" data-name="Layer 38"><path id="3acacd42-2b30-47bb-900c-4eb4889038c1" data-name="Elipse l-4" class="8c0dc0eb-4377-46b0-831a-22003ab7e0a2" d="M339.154,22.314a14.76,14.76,0,1,1,19.52,7.41c-9.81,4.41-12.5,7.42-13.84,6.9S343.534,32.044,339.154,22.314Z"/><g id="5a32466d-dcc2-4535-91fa-2f1b20b52522" data-name="Number l-4" class="00d40b68-71cb-4ba3-a25f-e262f304ec9a"><path class="f6600d04-8031-4f8c-b9f0-d4f10f534ff3" d="M353.348,24.444V20.656h-6.864V18.875l7.22-10.25h1.586v10.25h2.137v1.781H355.29v3.788Zm0-5.569V11.743L348.4,18.875Z"/></g></g><g id="768d8180-dc02-4164-8b3f-fab6e5a4e461" data-name="Layer 39"><path id="1f0eaba7-e5a4-421c-bbcf-a8c66673f8e1" data-name="Elipse l-5" class="8c0dc0eb-4377-46b0-831a-22003ab7e0a2" d="M352.724,81.6A14.76,14.76,0,1,1,356.13,102.2l-.006,0c-8.74-6.26-12.7-7.08-12.92-8.49S346.514,90.274,352.724,81.6Z"/><g id="c3be744a-f89c-42b7-b704-4301bd8197c7" data-name="Number l-5" class="00d40b68-71cb-4ba3-a25f-e262f304ec9a"><path class="f6600d04-8031-4f8c-b9f0-d4f10f534ff3" d="M358.8,93.69l2.04-.173a3.657,3.657,0,0,0,1.052,2.239,2.854,2.854,0,0,0,1.991.75,3.1,3.1,0,0,0,2.374-1.057,3.989,3.989,0,0,0,.972-2.806,3.606,3.606,0,0,0-.934-2.622,3.255,3.255,0,0,0-2.444-.961,3.393,3.393,0,0,0-1.695.427,3.275,3.275,0,0,0-1.186,1.105l-1.824-.237,1.532-8.125h7.867v1.855h-6.314l-.852,4.252a5.148,5.148,0,0,1,2.989-.993,4.732,4.732,0,0,1,3.5,1.436,5.015,5.015,0,0,1,1.425,3.69,5.757,5.757,0,0,1-1.252,3.712,5.012,5.012,0,0,1-4.154,1.921A5.119,5.119,0,0,1,360.36,96.9,4.719,4.719,0,0,1,358.8,93.69Z"/></g></g><g id="2fb703bb-5201-4f8b-8d2f-431acf6ba327" data-name="Layer 40"><path id="2d5d4556-4b66-4265-b9bc-082521232ed5" data-name="Elipse l-6" class="8c0dc0eb-4377-46b0-831a-22003ab7e0a2" d="M377.714,126.574a14.76,14.76,0,1,1,3.362,20.6h0c-8.73-6.28-12.69-7.1-12.9-8.52S371.484,135.234,377.714,126.574Z"/><g id="83bdbaf6-a147-4779-92d4-136a7bc4f37e" data-name="Number l-6" class="00d40b68-71cb-4ba3-a25f-e262f304ec9a"><path class="f6600d04-8031-4f8c-b9f0-d4f10f534ff3" d="M393.86,130.878l-1.931.151a3.649,3.649,0,0,0-.735-1.661,2.562,2.562,0,0,0-1.942-.831,2.671,2.671,0,0,0-1.629.517,4.432,4.432,0,0,0-1.446,1.953,10.2,10.2,0,0,0-.55,3.659,4.482,4.482,0,0,1,1.716-1.586,4.606,4.606,0,0,1,2.125-.519,4.4,4.4,0,0,1,3.307,1.431,5.126,5.126,0,0,1,1.366,3.7,6.087,6.087,0,0,1-.642,2.769,4.7,4.7,0,0,1-1.765,1.958,4.818,4.818,0,0,1-2.546.679,4.97,4.97,0,0,1-3.96-1.786q-1.533-1.785-1.533-5.886,0-4.585,1.694-6.669a4.87,4.87,0,0,1,3.982-1.813,4.237,4.237,0,0,1,4.489,3.939Zm-7.931,6.82a4.5,4.5,0,0,0,.426,1.921,3.174,3.174,0,0,0,1.192,1.4,2.985,2.985,0,0,0,1.608.481,2.739,2.739,0,0,0,2.116-.994,3.908,3.908,0,0,0,.884-2.7,3.661,3.661,0,0,0-.874-2.585,2.873,2.873,0,0,0-2.2-.944,3,3,0,0,0-2.234.944A3.4,3.4,0,0,0,385.929,137.7Z"/></g></g><g id="0f6a15bd-b773-49ea-a7c0-fef688369ea5" data-name="Layer 41"><path id="93f537b9-2fa4-4876-b5f6-0fcd651c396d" data-name="Elipse l-7" class="8c0dc0eb-4377-46b0-831a-22003ab7e0a2" d="M293.074,213.574a14.76,14.76,0,1,1,.08-20.88c7.57,7.64,11.34,9.1,11.32,10.53S300.644,206.054,293.074,213.574Z"/><g id="c953e914-9373-409a-bda2-fcd2f9f8bde3" data-name="Number l-7" class="00d40b68-71cb-4ba3-a25f-e262f304ec9a"><path class="f6600d04-8031-4f8c-b9f0-d4f10f534ff3" d="M278.261,196.906V195.04H288.5v1.51a21.536,21.536,0,0,0-3,4.273,26.053,26.053,0,0,0-2.293,5.482,20.347,20.347,0,0,0-.745,4.349h-2a19.294,19.294,0,0,1,.734-4.511,23.707,23.707,0,0,1,2.012-5.1,21.922,21.922,0,0,1,2.79-4.138Z"/></g></g><g id="ffbe8be5-8064-469d-869e-d44fcc436c72" data-name="Layer 42"><path id="a3923e95-368b-4132-8675-702892098239" data-name="Elipse l-8" class="8c0dc0eb-4377-46b0-831a-22003ab7e0a2" d="M363.054,257.824a14.76,14.76,0,1,1-20.31-4.818l.02-.012c9.17-5.62,11.46-9,12.84-8.6S357.484,248.734,363.054,257.824Z"/><g id="2a38bda9-12c2-4863-8a97-e1c7a9985685" data-name="Number l-8" class="00d40b68-71cb-4ba3-a25f-e262f304ec9a"><path class="f6600d04-8031-4f8c-b9f0-d4f10f534ff3" d="M348.41,263.825a3.66,3.66,0,0,1-1.791-1.263,3.3,3.3,0,0,1-.583-1.964,3.838,3.838,0,0,1,1.241-2.9,5.222,5.222,0,0,1,6.637.026,3.9,3.9,0,0,1,1.262,2.931,3.232,3.232,0,0,1-.576,1.915,3.654,3.654,0,0,1-1.754,1.257,4.035,4.035,0,0,1,2.978,4.057,4.542,4.542,0,0,1-1.435,3.41,5.847,5.847,0,0,1-7.554,0,4.612,4.612,0,0,1-1.436-3.458,4.177,4.177,0,0,1,.783-2.585A3.912,3.912,0,0,1,348.41,263.825Zm-1.013,4.014a3.52,3.52,0,0,0,.392,1.608,2.783,2.783,0,0,0,1.172,1.2,3.423,3.423,0,0,0,1.672.427,3.138,3.138,0,0,0,2.3-.9,3.067,3.067,0,0,0,.906-2.277,3.118,3.118,0,0,0-.934-2.321,3.2,3.2,0,0,0-2.336-.916,3.087,3.087,0,0,0-3.171,3.172Zm.625-7.305a2.47,2.47,0,0,0,.722,1.835,2.569,2.569,0,0,0,1.879.712,2.514,2.514,0,0,0,1.84-.707,2.342,2.342,0,0,0,.717-1.732,2.422,2.422,0,0,0-.739-1.8,2.718,2.718,0,0,0-3.685-.016A2.288,2.288,0,0,0,348.022,260.534Z"/></g></g><g id="18b30794-f8dc-4c08-a8f5-b72e05e284ee" data-name="Layer 43"><path id="02ca1429-9f9e-48fc-bc3d-fa6ee5da6dcc" data-name="Elipse l-9" class="8c0dc0eb-4377-46b0-831a-22003ab7e0a2" d="M429.764,176.624a14.76,14.76,0,1,1,17.744,10.994l-.024.006c-10.48,2.44-13.7,4.88-14.91,4.11S432.174,186.994,429.764,176.624Z"/><g id="e99e6d7a-9cb1-4ce9-9f19-8583501e0df3" data-name="Number l-9" class="00d40b68-71cb-4ba3-a25f-e262f304ec9a"><path class="f6600d04-8031-4f8c-b9f0-d4f10f534ff3" d="M438.822,177.735l1.868-.172a3.239,3.239,0,0,0,.906,1.91,2.492,2.492,0,0,0,1.716.593,2.957,2.957,0,0,0,1.57-.41,3.354,3.354,0,0,0,1.106-1.095,6.457,6.457,0,0,0,.723-1.851,9.755,9.755,0,0,0,.291-2.374c0-.086,0-.216-.011-.388a4.449,4.449,0,0,1-1.592,1.5,4.319,4.319,0,0,1-2.184.577,4.417,4.417,0,0,1-3.324-1.424,5.212,5.212,0,0,1-1.36-3.755,5.336,5.336,0,0,1,1.419-3.874,4.74,4.74,0,0,1,3.556-1.468,5.073,5.073,0,0,1,2.822.831,5.2,5.2,0,0,1,1.943,2.369,11.671,11.671,0,0,1,.663,4.451,14.4,14.4,0,0,1-.659,4.829,5.65,5.65,0,0,1-1.958,2.736,5.068,5.068,0,0,1-3.048.938,4.179,4.179,0,0,1-4.447-3.928Zm7.953-6.981a3.807,3.807,0,0,0-.889-2.655,2.792,2.792,0,0,0-2.143-.982,2.957,2.957,0,0,0-2.255,1.058,3.919,3.919,0,0,0-.961,2.74,3.38,3.38,0,0,0,.913,2.455,3,3,0,0,0,2.25.944,2.877,2.877,0,0,0,2.217-.944A3.717,3.717,0,0,0,446.775,170.754Z"/></g></g><g id="79226c01-eb87-43e2-afc9-d8a0f798c802" data-name="Layer 44"><path id="8a657d97-c905-4020-a67b-18fedd078cc5" data-name="Elipse l-10" class="8c0dc0eb-4377-46b0-831a-22003ab7e0a2" d="M498.384,271.734a14.76,14.76,0,1,1-2.55,20.72c-6.62-8.48-10.18-10.37-10-11.79S490,278.3,498.384,271.734Z"/><g id="54f81fb1-81fc-4f06-b492-6209a7a43be1" data-name="Number l-10" class="00d40b68-71cb-4ba3-a25f-e262f304ec9a"><path class="f6600d04-8031-4f8c-b9f0-d4f10f534ff3" d="M503.207,290.8h-1.942V278.426a10.018,10.018,0,0,1-1.84,1.338,13.154,13.154,0,0,1-2.045,1V278.89a11.769,11.769,0,0,0,2.85-1.856,7.328,7.328,0,0,0,1.726-2.116h1.251Z"/><path class="f6600d04-8031-4f8c-b9f0-d4f10f534ff3" d="M508.182,283a14.471,14.471,0,0,1,.578-4.516,5.607,5.607,0,0,1,1.716-2.638,4.382,4.382,0,0,1,2.864-.929,4.668,4.668,0,0,1,2.234.513,4.272,4.272,0,0,1,1.586,1.479,7.946,7.946,0,0,1,.983,2.352A15.663,15.663,0,0,1,518.5,283a14.532,14.532,0,0,1-.571,4.5,5.622,5.622,0,0,1-1.711,2.643,4.814,4.814,0,0,1-6.469-.706Q508.183,287.459,508.182,283Zm2,0q0,3.9.911,5.185a2.6,2.6,0,0,0,4.5,0q.912-1.295.912-5.18,0-3.906-.912-5.19a2.707,2.707,0,0,0-2.272-1.284,2.49,2.49,0,0,0-2.136,1.133Q510.179,279.106,510.179,283Z"/></g></g><g id="977a61f1-38de-428d-9f76-11c568d8fae5" data-name="Layer 45"><path id="9a7abef5-8fe0-4766-85af-707a32efa9f0" data-name="Elipse l-11" class="8c0dc0eb-4377-46b0-831a-22003ab7e0a2" d="M360.934,353.524a14.77,14.77,0,1,1,5.627-20.116l0,.006c5.27,9.38,8.51,11.79,8.11,13.16S370.224,348.294,360.934,353.524Z"/><g id="86d5c0ee-01dd-4e6b-9ff6-e962c4c1b91b" data-name="Number l-11" class="00d40b68-71cb-4ba3-a25f-e262f304ec9a"><path class="f6600d04-8031-4f8c-b9f0-d4f10f534ff3" d="M350.777,348.394h-1.942V336.017a10.1,10.1,0,0,1-1.84,1.338,13.11,13.11,0,0,1-2.045,1v-1.878a11.743,11.743,0,0,0,2.849-1.856,7.3,7.3,0,0,0,1.726-2.116h1.252Z"/><path class="f6600d04-8031-4f8c-b9f0-d4f10f534ff3" d="M361.428,348.394h-1.942V336.017a10.124,10.124,0,0,1-1.839,1.338,13.241,13.241,0,0,1-2.045,1v-1.878a11.756,11.756,0,0,0,2.848-1.856,7.317,7.317,0,0,0,1.727-2.116h1.251Z"/></g></g><g id="f0dc9ef5-13e8-4027-aeb6-d94cda607bf1" data-name="Layer 46"><path id="24b81d4b-95df-4850-86b0-e5169996c52f" data-name="Elipse l-12" class="8c0dc0eb-4377-46b0-831a-22003ab7e0a2" d="M498.484,424.884a14.76,14.76,0,1,1,1,20.85c-7.95-7.24-11.79-8.51-11.84-9.94S491.294,432.764,498.484,424.884Z"/><g id="2bd6f838-e340-4d2c-afc6-c3e73f222891" data-name="Number l-12" class="00d40b68-71cb-4ba3-a25f-e262f304ec9a"><path class="f6600d04-8031-4f8c-b9f0-d4f10f534ff3" d="M505.117,442.374h-1.942V430a10.065,10.065,0,0,1-1.84,1.337,12.934,12.934,0,0,1-2.045,1V430.46a11.71,11.71,0,0,0,2.85-1.856,7.339,7.339,0,0,0,1.726-2.115h1.251Z"/><path class="f6600d04-8031-4f8c-b9f0-d4f10f534ff3" d="M520.3,440.506v1.868H509.844a3.452,3.452,0,0,1,.226-1.349,7.142,7.142,0,0,1,1.28-2.1,20.013,20.013,0,0,1,2.541-2.4,21.522,21.522,0,0,0,3.485-3.351,4.006,4.006,0,0,0,.906-2.336,2.592,2.592,0,0,0-.825-1.948,2.978,2.978,0,0,0-2.152-.793,3.03,3.03,0,0,0-2.245.842,3.189,3.189,0,0,0-.853,2.331l-2-.2a4.918,4.918,0,0,1,1.543-3.4,5.264,5.264,0,0,1,3.594-1.171,5.02,5.02,0,0,1,3.6,1.262,4.145,4.145,0,0,1,1.327,3.13,4.766,4.766,0,0,1-.388,1.867,7.251,7.251,0,0,1-1.29,1.931,31.221,31.221,0,0,1-3,2.784q-1.747,1.469-2.244,1.992a6.369,6.369,0,0,0-.82,1.051Z"/></g></g><g id="31cdebb9-173c-4337-b37c-457f23b8497c" data-name="Layer 47"><path id="f97471a5-74a3-49fd-8b6d-ed6950c0c77e" data-name="Elipse l-13" class="8c0dc0eb-4377-46b0-831a-22003ab7e0a2" d="M456.394,481.634a14.76,14.76,0,1,1-20.841,1.161h0c7.17-8,8.41-11.87,9.84-11.93S448.444,474.514,456.394,481.634Z"/><g id="900e8409-59cc-463a-93eb-5b1a94c6294d" data-name="Number l-13" class="00d40b68-71cb-4ba3-a25f-e262f304ec9a"><path class="f6600d04-8031-4f8c-b9f0-d4f10f534ff3" d="M442.947,499.474h-1.942V487.1a10.1,10.1,0,0,1-1.84,1.338,13.11,13.11,0,0,1-2.045,1v-1.878a11.743,11.743,0,0,0,2.849-1.856,7.311,7.311,0,0,0,1.726-2.116h1.252Z"/><path class="f6600d04-8031-4f8c-b9f0-d4f10f534ff3" d="M447.934,495.3l1.941-.259a4.275,4.275,0,0,0,1.139,2.379,2.811,2.811,0,0,0,1.959.729,3.135,3.135,0,0,0,2.314-.95,3.205,3.205,0,0,0,.944-2.352,2.979,2.979,0,0,0-.874-2.207,3.022,3.022,0,0,0-2.222-.869,5.577,5.577,0,0,0-1.371.216l.216-1.705a3.074,3.074,0,0,0,.313.022,4.006,4.006,0,0,0,2.233-.648,2.217,2.217,0,0,0,.994-2,2.368,2.368,0,0,0-.724-1.77,2.566,2.566,0,0,0-1.866-.7,2.645,2.645,0,0,0-1.889.712,3.575,3.575,0,0,0-.972,2.137l-1.942-.346a4.99,4.99,0,0,1,1.619-3.026,4.68,4.68,0,0,1,3.14-1.075,5.189,5.189,0,0,1,2.386.556,4.021,4.021,0,0,1,1.666,1.517,3.9,3.9,0,0,1,.578,2.039,3.34,3.34,0,0,1-.551,1.867,3.754,3.754,0,0,1-1.629,1.338,3.673,3.673,0,0,1,2.18,1.344,4.091,4.091,0,0,1,.777,2.551,4.667,4.667,0,0,1-1.512,3.513,5.309,5.309,0,0,1-3.82,1.44,4.969,4.969,0,0,1-3.458-1.24A4.8,4.8,0,0,1,447.934,495.3Z"/></g></g></g></g></g></g></g></svg>