<svg xmlns="http://www.w3.org/2000/svg" xmlns:xlink="http://www.w3.org/1999/xlink" width="1531.025" height="639.311" viewBox="0 0 1531.025 639.311"><defs><style>.\34 3f8d119-c67e-4222-9b9b-daba76c0ab58{fill:#00ff24;}.\34 3f8d119-c67e-4222-9b9b-daba76c0ab58,.dccf6f19-8d64-4a11-8bc9-ca6fda2e304d{stroke:#000;stroke-width:5px;}.\34 3f8d119-c67e-4222-9b9b-daba76c0ab58,.\35 f392308-969f-493d-8401-48954a63ac1b,.a820317a-e2f9-4afa-b4d9-6dfbd8229251,.d8465237-2091-49be-8657-da9c11238810,.dccf6f19-8d64-4a11-8bc9-ca6fda2e304d,.e164d034-2d7e-4456-882d-e120d22849b2,.f5074d23-ac95-4213-8ca7-76cab1905e01{stroke-miterlimit:10;}.c6f61c19-67f0-4f96-9572-025f0b5b2efd,.dccf6f19-8d64-4a11-8bc9-ca6fda2e304d{fill:#fff;}.\35 f392308-969f-493d-8401-48954a63ac1b,.a820317a-e2f9-4afa-b4d9-6dfbd8229251,.d8465237-2091-49be-8657-da9c11238810,.e164d034-2d7e-4456-882d-e120d22849b2,.f5074d23-ac95-4213-8ca7-76cab1905e01{fill:none;}.\35 f392308-969f-493d-8401-48954a63ac1b,.f5074d23-ac95-4213-8ca7-76cab1905e01{stroke:#c91c1c;}.\35 f392308-969f-493d-8401-48954a63ac1b,.d8465237-2091-49be-8657-da9c11238810{stroke-width:20px;}.d8465237-2091-49be-8657-da9c11238810,.e164d034-2d7e-4456-882d-e120d22849b2{stroke:#0080ff;}.a820317a-e2f9-4afa-b4d9-6dfbd8229251{stroke:#fff;stroke-width:12px;}.e164d034-2d7e-4456-882d-e120d22849b2,.f5074d23-ac95-4213-8ca7-76cab1905e01{stroke-width:2px;}.\30 93835da-dc22-4a2f-9a00-b3c5a2157d2a{opacity:0.28;}</style><symbol id="8d567e48-2a15-42be-9d79-0c805f2c9851" data-name="fd103434-89f2-4089-acf9-54fed79ed404" viewBox="0 0 200 103.617"><rect class="43f8d119-c67e-4222-9b9b-daba76c0ab58" x="2.5" y="54.074" width="195" height="47.043"/><rect class="dccf6f19-8d64-4a11-8bc9-ca6fda2e304d" x="2.5" y="2.5" width="48.75" height="48.75"/><rect class="dccf6f19-8d64-4a11-8bc9-ca6fda2e304d" x="51.25" y="2.5" width="48.75" height="48.75"/><rect class="dccf6f19-8d64-4a11-8bc9-ca6fda2e304d" x="100" y="2.5" width="48.75" height="48.75"/><rect class="dccf6f19-8d64-4a11-8bc9-ca6fda2e304d" x="148.75" y="2.5" width="48.75" height="48.75"/></symbol></defs><title>FISH_Phaethons_Fall</title><g id="3ce59a00-2cb1-420e-8fd3-df255a4ffe49" data-name="Layer 2"><g id="42e78c82-b40b-4698-95fd-33a700e4e77a" data-name="City - Del Perro"><g id="1bd37828-87b5-4320-932b-e721d9d56d6d" data-name="FISH_Phaethons_Fall"><path id="4cec0ed7-bd6a-4329-8901-f25645cfa73e" data-name="Pitlane Outer" class="5f392308-969f-493d-8401-48954a63ac1b" d="M1250.964,58.282c-14.667,7.111-25.382,34.035-44.049,45.368s-66.889,37.556-85.556,47.556-93.916,48.389-111.333,57.722c-17.3,9.271-28.75,16.417-41.778-.389-14.544-18.762-13.532-16.619-21.309-27.064"/><path id="bc4bbfa7-6932-4fd4-9e5a-c8f90d0701ea" data-name="Track Outer" class="d8465237-2091-49be-8657-da9c11238810" d="M1113.693,381.1c-9.167-12.334-28.334-26.167-36.667-40.834s-9.333-31.333-2.5-41.833,29.5-29.778,42.611-40.333,30.56-18.379,48.056-20.25c17.916-1.917,47.831-4.872,66-13.75,14.666-7.167,53.666-27,72.5-36.834s71.833-38.166,92.5-50,38.374-13.047,62.666-2.166c16,7.166,44.167,17.666,53.667,9s11.711-23.877,3.167-39.167c-9.5-17-34.778-59.5-43.667-75.5s-19.018-25.657-38.5-14.833c-20.5,11.389-54.5,29.055-64.944,33.944s-20.556,12.111-39.778,6.222-41.611-12-63.111-2.833-44.667,19.333-62.167,30.667-61.121,41.1-76.833,49.333c-20.667,10.833-31.111,15.722-59.111,30.611s-49.778,26-62.667,32.889-35.556,14.445-55.111-10.222-27.556-48.667-46-67.778-44-49.778-56.667-62.222S801.359,30.1,786.248,53.873s-19.333,39.333-16.889,54.444,8.445,29.111,21.112,41.556,26.222,24,6.444,49.555S767.359,236.1,754.693,252.1s-43.885,56.534-56,72c-10.445,13.333-31.778,17.111-50.222.889s-41.334-35.556-60.223-52.445-53.777-45.111-72.444-61.778-31.556-27.555-36.222-55.555,7.111-41.333,11.555-63.333S485.8,39.65,459.582,28.984s-60.445-5.778-95.556,7.555-61.111,46-71.111,65.334-13.333,49.555-34,58.222-44.444,12.889-81.111,1.555-56.889-28.889-74.667-42.889S65.5,92.892,39.359,99.428c-22.222,5.556-28.737,21.471-29.333,33.778-.667,13.778,11.331,35.967,46.222,41.111,34.667,5.111,61.064,1.345,82.731.126,20.766-1.169,66.38.1,92.6,22.985s32.222,32.889,44.444,56,46.222,33.556,69.556,22.889,43.444-20.889,84.444,13.778,122.167,104.833,148.917,127.25c14.6,12.233,60.156,47.645,76.75,61.75,20,17,52.333,44.5,76,62.666s37.333,29.889,58.666,38.445,47.556,13.333,73.112,23.222,41.111,24.889,61.444,25.778,37.111-3.778,45-16.445,6.333-23.555-4.889-31.444-31.778-19.556-26.555-35.222,13.666-21,32.222-33.556,116.833-84.444,128.333-92.778,28.811-16.637,14.739-38.152"/><path id="c9a11c4f-7a44-418b-a63c-fbdd4b5042f0" data-name="Track Middle" class="a820317a-e2f9-4afa-b4d9-6dfbd8229251" d="M1113.693,381.1c-9.167-12.334-28.334-26.167-36.667-40.834s-9.333-31.333-2.5-41.833,29.5-29.778,42.611-40.333,30.56-18.379,48.056-20.25c17.916-1.917,47.831-4.872,66-13.75,14.666-7.167,53.666-27,72.5-36.834s71.833-38.166,92.5-50,38.374-13.047,62.666-2.166c16,7.166,44.167,17.666,53.667,9s11.711-23.877,3.167-39.167c-9.5-17-34.778-59.5-43.667-75.5s-19.018-25.657-38.5-14.833c-20.5,11.389-54.5,29.055-64.944,33.944s-20.556,12.111-39.778,6.222-41.611-12-63.111-2.833-44.667,19.333-62.167,30.667-61.121,41.1-76.833,49.333c-20.667,10.833-31.111,15.722-59.111,30.611s-49.778,26-62.667,32.889-35.556,14.445-55.111-10.222-27.556-48.667-46-67.778-44-49.778-56.667-62.222S801.359,30.1,786.248,53.873s-19.333,39.333-16.889,54.444,8.445,29.111,21.112,41.556,26.222,24,6.444,49.555S767.359,236.1,754.693,252.1s-43.885,56.534-56,72c-10.445,13.333-31.778,17.111-50.222.889s-41.334-35.556-60.223-52.445-53.777-45.111-72.444-61.778-31.556-27.555-36.222-55.555,7.111-41.333,11.555-63.333S485.8,39.65,459.582,28.984s-60.445-5.778-95.556,7.555-61.111,46-71.111,65.334-13.333,49.555-34,58.222-44.444,12.889-81.111,1.555-56.889-28.889-74.667-42.889S65.5,92.892,39.359,99.428c-22.222,5.556-28.737,21.471-29.333,33.778-.667,13.778,11.331,35.967,46.222,41.111,34.667,5.111,61.064,1.345,82.731.126,20.766-1.169,66.38.1,92.6,22.985s32.222,32.889,44.444,56,46.222,33.556,69.556,22.889,43.444-20.889,84.444,13.778,122.167,104.833,148.917,127.25c14.6,12.233,60.156,47.645,76.75,61.75,20,17,52.333,44.5,76,62.666s37.333,29.889,58.666,38.445,47.556,13.333,73.112,23.222,41.111,24.889,61.444,25.778,37.111-3.778,45-16.445,6.333-23.555-4.889-31.444-31.778-19.556-26.555-35.222,13.666-21,32.222-33.556,116.833-84.444,128.333-92.778,28.811-16.637,14.739-38.152"/><path id="639f74f7-c7d4-4ee1-8026-02f48d82f453" data-name="Pitlane Middle" class="a820317a-e2f9-4afa-b4d9-6dfbd8229251" d="M1250.964,58.282c-14.667,7.111-25.382,34.035-44.049,45.368s-66.889,37.556-85.556,47.556-93.916,48.389-111.333,57.722c-17.3,9.271-28.75,16.417-41.778-.389-14.544-18.762-13.532-16.619-21.309-27.064"/><path id="b2abde61-00c2-4c4c-a058-3ff84884b4d4" data-name="Pitlane Inner" class="f5074d23-ac95-4213-8ca7-76cab1905e01" d="M1250.964,58.282c-14.667,7.111-25.382,34.035-44.049,45.368s-66.889,37.556-85.556,47.556-93.916,48.389-111.333,57.722c-17.3,9.271-28.75,16.417-41.778-.389-14.544-18.762-13.532-16.619-21.309-27.064"/><path id="fec528d4-4370-4a12-baf1-6fd951b7d39b" data-name="Track Inner" class="e164d034-2d7e-4456-882d-e120d22849b2" d="M1113.693,381.1c-9.167-12.334-28.334-26.167-36.667-40.834s-9.333-31.333-2.5-41.833,29.5-29.778,42.611-40.333,30.56-18.379,48.056-20.25c17.916-1.917,47.831-4.872,66-13.75,14.666-7.167,53.666-27,72.5-36.834s71.833-38.166,92.5-50,38.374-13.047,62.666-2.166c16,7.166,44.167,17.666,53.667,9s11.711-23.877,3.167-39.167c-9.5-17-34.778-59.5-43.667-75.5s-19.018-25.657-38.5-14.833c-20.5,11.389-54.5,29.055-64.944,33.944s-20.556,12.111-39.778,6.222-41.611-12-63.111-2.833-44.667,19.333-62.167,30.667-61.121,41.1-76.833,49.333c-20.667,10.833-31.111,15.722-59.111,30.611s-49.778,26-62.667,32.889-35.556,14.445-55.111-10.222-27.556-48.667-46-67.778-44-49.778-56.667-62.222S801.359,30.1,786.248,53.873s-19.333,39.333-16.889,54.444,8.445,29.111,21.112,41.556,26.222,24,6.444,49.555S767.359,236.1,754.693,252.1s-43.885,56.534-56,72c-10.445,13.333-31.778,17.111-50.222.889s-41.334-35.556-60.223-52.445-53.777-45.111-72.444-61.778-31.556-27.555-36.222-55.555,7.111-41.333,11.555-63.333S485.8,39.65,459.582,28.984s-60.445-5.778-95.556,7.555-61.111,46-71.111,65.334-13.333,49.555-34,58.222-44.444,12.889-81.111,1.555-56.889-28.889-74.667-42.889S65.5,92.892,39.359,99.428c-22.222,5.556-28.737,21.471-29.333,33.778-.667,13.778,11.331,35.967,46.222,41.111,34.667,5.111,61.064,1.345,82.731.126,20.766-1.169,66.38.1,92.6,22.985s32.222,32.889,44.444,56,46.222,33.556,69.556,22.889,43.444-20.889,84.444,13.778,122.167,104.833,148.917,127.25c14.6,12.233,60.156,47.645,76.75,61.75,20,17,52.333,44.5,76,62.666s37.333,29.889,58.666,38.445,47.556,13.333,73.112,23.222,41.111,24.889,61.444,25.778,37.111-3.778,45-16.445,6.333-23.555-4.889-31.444-31.778-19.556-26.555-35.222,13.666-21,32.222-33.556,116.833-84.444,128.333-92.778,28.811-16.637,14.739-38.152"/><g id="bb78ca02-3d3c-4e9f-a0e8-101bd3cccc4d" data-name="Draft" class="093835da-dc22-4a2f-9a00-b3c5a2157d2a"><path class="c6f61c19-67f0-4f96-9572-025f0b5b2efd" d="M582.854,407.589a108.779,108.779,0,0,0-11.915,12.758c-1.188,1.5.921,3.633,2.121,2.121a108.858,108.858,0,0,1,11.915-12.758c1.43-1.3-.7-3.42-2.121-2.121Z"/><path class="c6f61c19-67f0-4f96-9572-025f0b5b2efd" d="M571.2,420.632c-1.412-.237-2.544-1.478-3.571-2.406-1.081-.977-2.114-2-3.148-3.031a1.5,1.5,0,0,0-2.121,2.121c1.292,1.282,2.584,2.568,3.966,3.754,1.2,1.033,2.463,2.184,4.076,2.455,1.889.317,2.7-2.573.8-2.893Z"/><path class="c6f61c19-67f0-4f96-9572-025f0b5b2efd" d="M586.379,405.2c-1.914-1.2-2.961-3.437-4.786-4.795a1.51,1.51,0,0,0-2.053.538,1.536,1.536,0,0,0,.539,2.052c1.837,1.368,2.8,3.547,4.786,4.8,1.638,1.031,3.146-1.564,1.514-2.59Z"/><path class="c6f61c19-67f0-4f96-9572-025f0b5b2efd" d="M579.6,416.188c4.54,4.2,9.764,7.376,14.853,10.848a112.924,112.924,0,0,1,15.317,13.226c10.7,10.508,22.3,19.993,33.78,29.613,21.767,18.236,43.015,38.038,67.557,52.546a1.5,1.5,0,0,0,1.514-2.59c-24.872-14.7-46.387-34.85-68.451-53.334-10.985-9.2-22.052-18.3-32.278-28.356a121.106,121.106,0,0,0-13.235-11.812c-5.65-4.124-11.774-7.487-16.936-12.262-1.416-1.31-3.542.807-2.121,2.121Z"/><path class="c6f61c19-67f0-4f96-9572-025f0b5b2efd" d="M711.8,525.679c3.011,4.154,7.172,6.925,11.271,9.915l16.479,12.02c10.845,7.911,21.462,16.312,33.3,22.715,22.8,12.332,48.3,19.917,72.565,28.8,1.816.664,2.6-2.234.8-2.893-23.483-8.592-48.064-15.993-70.256-27.645-10.765-5.653-20.39-12.984-30.185-20.129l-15.694-11.447c-5.309-3.873-11.781-7.457-15.688-12.847-1.122-1.548-3.726-.052-2.59,1.515Z"/><path class="c6f61c19-67f0-4f96-9572-025f0b5b2efd" d="M846.009,600.188q9.408,3.339,18.924,6.361c6.483,2.048,13.416,3.509,19.524,6.556,5.268,2.627,9.917,6.317,15.212,8.924a75.824,75.824,0,0,0,46.682,6.639c11.8-2.119,19.434-8.449,27.184-17.2,1.276-1.441-.838-3.57-2.121-2.121-3.666,4.138-7.382,8.392-12.055,11.43-5.055,3.286-11,4.687-16.909,5.462a72.907,72.907,0,0,1-33.152-3.43c-10.283-3.547-18.451-10.861-28.6-14.5-11.169-4.007-22.7-7.04-33.894-11.013-1.823-.646-2.607,2.251-.8,2.893Z"/><path class="c6f61c19-67f0-4f96-9572-025f0b5b2efd" d="M974.591,610.091c.986-8.121,3.065-17.7-2.244-24.823-5.05-6.774-14.169-10.116-21.491-13.674-9.956-4.838-13.393-17.674-10.049-27.846,3.361-10.221,11.984-17.176,20.072-23.675,1.5-1.209-.63-3.32-2.122-2.121-7.618,6.121-15.493,12.577-19.575,21.711a30.182,30.182,0,0,0,.271,24.7c4.062,8.771,13.042,10.767,20.806,15.27,5.689,3.3,11.124,6.919,12.241,13.889.875,5.457-.25,11.142-.909,16.571-.233,1.912,2.769,1.895,3,0Z"/><path class="c6f61c19-67f0-4f96-9572-025f0b5b2efd" d="M961.545,520.513c14.042-8.934,28.231-17.676,42.107-26.866,13.085-8.666,24.445-19.423,37.11-28.637,24.09-17.524,50.993-30.829,74.181-49.646,1.5-1.217-.635-3.328-2.122-2.121-23.438,19.02-50.761,32.325-74.992,50.217-12.376,9.138-23.577,19.63-36.463,28.1-13.65,8.977-27.551,17.589-41.335,26.359-1.625,1.033-.121,3.631,1.514,2.59Z"/><path class="c6f61c19-67f0-4f96-9572-025f0b5b2efd" d="M1111.893,415.843c2.988-3.473,6.08-5.6,7.177-10.261a31.117,31.117,0,0,0-.156-14.029,47.363,47.363,0,0,0-5.107-13.347c-2.711-4.4-7.679-6.531-10.446-11.067-1-1.646-3.6-.14-2.591,1.514a25.515,25.515,0,0,0,5.751,6.681c4.39,3.593,6.082,6.852,8.018,12.171a32.322,32.322,0,0,1,2.176,13.259c-.4,6.076-3.28,8.7-6.944,12.958-1.253,1.456.86,3.587,2.122,2.121Z"/><path class="c6f61c19-67f0-4f96-9572-025f0b5b2efd" d="M1103.225,367.9c-3.791-7.059-11.111-10.22-16.5-15.789-7.127-7.368-11.53-19.543-13.388-29.454-2.15-11.478,1.971-22.314,6.952-32.543a63.065,63.065,0,0,1,19.093-22.928c1.529-1.142.035-3.747-1.514-2.59a66.344,66.344,0,0,0-19.033,21.761c-5.008,9.352-9.926,20.717-9.151,31.511.74,10.3,4.959,21.274,10.237,30.112s15.922,12.516,20.711,21.434c.914,1.7,3.5.188,2.591-1.514Z"/><path class="c6f61c19-67f0-4f96-9572-025f0b5b2efd" d="M1103.1,264.706l24.508-12.174c7.944-3.947,15.764-8.144,24.343-10.568,8.181-2.311,16.63-3.464,24.951-5.135,8.722-1.751,17.351-3.944,25.876-6.48,32.9-9.786,64.024-24.546,94.956-39.225,1.743-.827.223-3.415-1.514-2.59-31.805,15.093-63.817,30.269-97.77,39.951-16.411,4.68-33.671,6.227-49.9,11.368-7.537,2.387-14.525,6.148-21.581,9.654l-25.383,12.609c-1.73.859-.212,3.448,1.514,2.59Z"/><path class="c6f61c19-67f0-4f96-9572-025f0b5b2efd" d="M1300.151,190.436l74.922-40c12.025-6.421,24.025-14.1,36.784-18.972a55.811,55.811,0,0,1,39.6.186c1.81.678,2.592-2.22.8-2.893a58.731,58.731,0,0,0-37.039-1.594c-12.817,3.737-24.668,11.613-36.366,17.858l-80.211,42.828c-1.7.909-.19,3.5,1.514,2.59Z"/><path class="c6f61c19-67f0-4f96-9572-025f0b5b2efd" d="M1451.328,132.617c4.855,2.486,9.318,5.265,13.966,8.05,4.671,2.8,10.655,3.724,15.9,4.83,1.884.4,2.689-2.494.8-2.893-5.479-1.156-11.572-2.145-16.314-5.288a130.6,130.6,0,0,0-12.832-7.29c-1.716-.878-3.235,1.709-1.515,2.591Z"/><path class="c6f61c19-67f0-4f96-9572-025f0b5b2efd" d="M1483.8,146.349c4.436-.871,8.394,1.407,12.679,1.947a37.644,37.644,0,0,0,8.912-.15c5.159-.586,9.5-2.3,12.528-6.661,6.507-9.372,5.737-22.305.187-31.86a1.5,1.5,0,0,0-2.591,1.514c5.046,8.687,6.544,23.856-2.212,31.021-4.47,3.658-12.235,4-17.724,2.983-4.386-.811-8.056-2.575-12.576-1.687-1.893.372-1.092,3.264.8,2.893Z"/><path class="c6f61c19-67f0-4f96-9572-025f0b5b2efd" d="M1517.381,106.921c-4.665-5.891-8.653-11.626-11.293-18.707a130.216,130.216,0,0,0-6.8-15.542c-5.9-11.154-13.343-21.384-19.873-32.162a134.386,134.386,0,0,1-8.6-16.271c-1.914-4.432-3.119-9.4-7.354-12.243-10.179-6.832-19.938-4.463-29.962,1.044-1.693.93-.181,3.522,1.514,2.591,5.86-3.22,11.92-6.34,18.78-4.624a25.041,25.041,0,0,1,8.154,3.579c3.066,2.269,4.1,5.916,5.474,9.266,4.1,9.97,9.849,19.106,15.69,28.126,5.921,9.146,12.009,18.262,16.545,28.2,2.273,4.98,3.757,10.3,6.2,15.2,2.481,4.969,5.966,9.331,9.4,13.666,1.2,1.513,3.308-.623,2.122-2.121Z"/><path class="c6f61c19-67f0-4f96-9572-025f0b5b2efd" d="M1431.627,14.417q-22.144,12.767-45.1,24.041-11.053,5.41-22.28,10.454c-8.26,3.711-16.9,8.231-26.225,6.732-7.965-1.28-15.275-5.181-23.238-6.674a86.582,86.582,0,0,0-21.708-1.191c-16.231,1.085-31.788,6.183-46.727,12.362-1.759.727-.988,3.631.8,2.892,15.769-6.522,32.3-11.924,49.5-12.426a78.086,78.086,0,0,1,25.963,3.429c6.995,2.222,13.715,5.449,21.24,4.887,7.136-.533,13.746-3.775,20.184-6.647q11.671-5.207,23.157-10.812,23.4-11.419,45.949-24.457a1.5,1.5,0,0,0-1.514-2.59Z"/><path class="c6f61c19-67f0-4f96-9572-025f0b5b2efd" d="M1244.505,62.926a44.9,44.9,0,0,1-4.463,4.529c-1.452,1.278.676,3.393,2.121,2.121a44.69,44.69,0,0,0,4.463-4.529c1.248-1.46-.865-3.592-2.121-2.121Z"/><path class="c6f61c19-67f0-4f96-9572-025f0b5b2efd" d="M1230.058,76c-.1.195-.2.386-.319.57s-.267.385-.3.42a6.5,6.5,0,0,1-.448.476c-.078.076-.159.149-.241.221-.023.02-.271.213-.145.119a1.546,1.546,0,0,0-.538,2.053,1.511,1.511,0,0,0,2.052.538,8.224,8.224,0,0,0,2.526-2.883,1.534,1.534,0,0,0-.538-2.052,1.516,1.516,0,0,0-2.052.538Z"/><path class="c6f61c19-67f0-4f96-9572-025f0b5b2efd" d="M1219.632,87.034l-2.333,2.333a1.5,1.5,0,0,0,2.121,2.122l2.333-2.334a1.5,1.5,0,1,0-2.121-2.121Z"/><path class="c6f61c19-67f0-4f96-9572-025f0b5b2efd" d="M1209.606,97.472l-5.078,3.209c-1.628,1.029-.125,3.626,1.514,2.591l5.078-3.209c1.628-1.029.125-3.626-1.514-2.591Z"/><path class="c6f61c19-67f0-4f96-9572-025f0b5b2efd" d="M1193.307,108.184l-2.683,1.978a1.545,1.545,0,0,0-.539,2.052,1.513,1.513,0,0,0,2.053.538l2.683-1.977a1.545,1.545,0,0,0,.538-2.052,1.511,1.511,0,0,0-2.052-.539Z"/><path class="c6f61c19-67f0-4f96-9572-025f0b5b2efd" d="M1169.954,121.5l-2.351,1.3a1.5,1.5,0,0,0,1.514,2.591l2.351-1.3a1.5,1.5,0,0,0-1.514-2.59Z"/><path class="c6f61c19-67f0-4f96-9572-025f0b5b2efd" d="M1152.658,130.245l-3.741,1.85c-1.731.856-.212,3.444,1.514,2.59l3.741-1.85c1.73-.856.212-3.444-1.514-2.59Z"/><path class="c6f61c19-67f0-4f96-9572-025f0b5b2efd" d="M1246.081,59.615c-30.829,10.39-56.342,30.814-82.847,48.966-29.381,20.121-61.507,34.5-94.172,48.375-1.771.752-.244,3.337,1.514,2.59,32.117-13.638,63.824-27.719,92.77-47.418,26.782-18.226,52.43-39.138,83.533-49.62,1.82-.613,1.039-3.512-.8-2.893Z"/><path class="c6f61c19-67f0-4f96-9572-025f0b5b2efd" d="M1069.693,159.6a1.5,1.5,0,0,0,0-3,1.5,1.5,0,0,0,0,3Z"/><path class="c6f61c19-67f0-4f96-9572-025f0b5b2efd" d="M1069.066,157.063c-21.058,11.422-42.618,22.192-62.385,35.785-19.044,13.1-46.384,4.371-61.333-11.1-1.344-1.391-3.464.732-2.121,2.122,13.893,14.376,39.079,23.937,58.513,15.365,5.229-2.307,9.746-6.188,14.534-9.26,5.644-3.621,11.457-6.969,17.319-10.222,12.268-6.808,24.654-13.412,36.987-20.1,1.7-.921.185-3.512-1.514-2.59Z"/><path class="c6f61c19-67f0-4f96-9572-025f0b5b2efd" d="M944.925,181.138c-9.323-8.449-14.553-19.773-19.51-31.105-5.1-11.659-10.344-22.814-18.632-32.607C887.457,94.59,863.277,76.32,846.093,51.6c-1.094-1.574-3.7-.076-2.59,1.514,16.986,24.438,40.577,42.793,60.006,65.093,9.034,10.369,14.452,22.279,19.927,34.74,4.88,11.106,10.245,22.047,19.368,30.313,1.428,1.294,3.556-.821,2.121-2.121Z"/><path class="c6f61c19-67f0-4f96-9572-025f0b5b2efd" d="M843.787,49.66C827.649,36.684,800.853,37.9,784.058,49.1c-18.445,12.3-25.865,35.3-19.588,56.332.551,1.846,3.448,1.06,2.893-.8-5.877-19.689.875-41.39,18.209-52.944,15.557-10.371,41.011-12.035,56.094.093,1.491,1.2,3.627-.911,2.121-2.121Z"/><path class="c6f61c19-67f0-4f96-9572-025f0b5b2efd" d="M764.925,105.726c1.906,16.506,13.229,28.531,24.359,39.889,6.319,6.449,13.24,13.122,17.25,21.332,5.151,10.546.571,20.065-4.942,29.318a1.5,1.5,0,0,0,2.59,1.515c4.087-6.86,8.351-14.4,7.78-22.676-.566-8.212-5.827-15.289-10.969-21.341-12.51-14.722-30.683-27.379-33.068-48.037-.218-1.895-3.221-1.918-3,0Z"/><path class="c6f61c19-67f0-4f96-9572-025f0b5b2efd" d="M802.405,195.4c-9.035,9.322-17.838,18.746-25.382,29.339a143.259,143.259,0,0,1-12.116,15.432c-4.44,4.716-9.189,9.128-13.559,13.913-8.4,9.2-15.375,19.457-22.462,29.674l-24.612,35.482c-1.1,1.59,1.5,3.092,2.59,1.515l23.493-33.87c7.654-11.035,15.136-22.146,24.324-31.992,8.147-8.731,16.493-16.728,23.43-26.515,7.9-11.147,16.921-21.06,26.415-30.857,1.344-1.387-.775-3.51-2.121-2.121Z"/><path class="c6f61c19-67f0-4f96-9572-025f0b5b2efd" d="M704.4,319.767c-6.506,7.733-13.3,20.144-24.671,19.627-10.078-.458-19.591-6.564-25.983-14.015-1.259-1.467-3.373.663-2.122,2.122,6.968,8.121,17.216,14.305,28.105,14.893,12.709.686,19.586-11.941,26.792-20.506,1.236-1.468-.876-3.6-2.121-2.121Z"/><path class="c6f61c19-67f0-4f96-9572-025f0b5b2efd" d="M653.753,324.628c-11.435-9.769-22.958-19.445-34.3-29.319-10.037-8.736-18.489-18.611-29.544-26.211-1.595-1.1-3.1,1.5-1.514,2.59,11.349,7.8,20.015,18.06,30.373,26.98,10.918,9.4,21.911,18.721,32.867,28.081,1.46,1.248,3.592-.864,2.121-2.121Z"/><path class="c6f61c19-67f0-4f96-9572-025f0b5b2efd" d="M588.347,267.158c-14.11-16.2-32.385-27.557-49.118-40.737-17.9-14.1-32.94-31.317-47.6-48.656-7.913-9.361-14.322-19.193-14.6-31.851-.265-12,3.784-23.651,7.911-34.748,7.018-18.868,14.72-40.184,4.144-59.3-11.4-20.6-35.086-28.512-56.166-35.109-1.847-.578-2.637,2.317-.8,2.893,20.326,6.362,43.366,13.839,54.372,33.73,12,21.7-.961,45.418-7.792,66.459-3.208,9.882-5.639,20.421-4.324,30.861,1.213,9.634,5.9,17.748,11.869,25.233,13.7,17.185,28.752,34.234,45.625,48.363,18.055,15.119,38.751,27.073,54.354,44.981,1.27,1.459,3.385-.67,2.121-2.121Z"/><path class="c6f61c19-67f0-4f96-9572-025f0b5b2efd" d="M445.011,21.567c-29.485-4.9-59.293,1.793-85.61,15.407a214,214,0,0,0-35.965,23.845c-11.7,9.456-20.586,19.625-27.418,33.069A344.162,344.162,0,0,0,275.7,143.175c-.6,1.839,2.3,2.628,2.893.8a317.758,317.758,0,0,1,22.383-53.114c8.814-16.246,23.29-27.805,38.268-38.183C369.77,31.524,406.791,18.242,444.214,24.46c1.888.314,2.7-2.576.8-2.893Z"/><path class="c6f61c19-67f0-4f96-9572-025f0b5b2efd" d="M275.42,142.847a56.149,56.149,0,0,1-35.278,23c-7.965,1.511-16.367,1.324-24.444,1.271-8.828-.059-17.536-.817-25.955-3.611-1.837-.609-2.624,2.287-.8,2.893,8.971,2.977,18.28,3.7,27.681,3.723,8.563.024,17.379.159,25.786-1.684a59.3,59.3,0,0,0,35.6-24.073c1.111-1.584-1.489-3.085-2.59-1.514Z"/><path class="c6f61c19-67f0-4f96-9572-025f0b5b2efd" d="M184.788,162.873c-8.986-2.968-18.041-5.788-26.964-8.941-8.713-3.078-16.071-7.964-23.529-13.3-1.573-1.126-3.072,1.475-1.515,2.59,7.111,5.091,14.243,9.894,22.483,12.97,9.442,3.525,19.158,6.417,28.728,9.578,1.837.607,2.625-2.289.8-2.893Z"/><path class="c6f61c19-67f0-4f96-9572-025f0b5b2efd" d="M131.026,140.928a1.5,1.5,0,0,0,0-3,1.5,1.5,0,0,0,0,3Z"/><path class="c6f61c19-67f0-4f96-9572-025f0b5b2efd" d="M132.312,138.878a147.745,147.745,0,0,0-21.234-19.18c-8.4-6.451-16.8-13.188-26.6-17.413-16.384-7.067-36.211-8.449-52.629-.709C17.265,108.451,6.661,123.327,8.275,139.84c1.6,16.4,13.654,27.476,28.508,32.818,21.355,7.68,46.156,8.537,68.562,7.119,1.918-.121,1.932-3.122,0-3a206.87,206.87,0,0,1-55.235-3.569c-15.407-3.216-31.86-9.983-37.262-26.179-5.46-16.371,2.94-33.073,17.5-41.308,15.67-8.86,35.747-7.827,51.979-1.1,9.281,3.848,17.174,10.025,25.12,16.053,8.13,6.167,15.978,12.647,22.741,20.321,1.279,1.451,3.394-.677,2.121-2.121Z"/><path class="c6f61c19-67f0-4f96-9572-025f0b5b2efd" d="M109.005,178.773c27.7-2.615,55.755-7.91,82.494,2.46,1.8.7,2.581-2.2.8-2.893-27.013-10.476-55.3-5.21-83.291-2.567-1.905.179-1.924,3.181,0,3Z"/><path class="c6f61c19-67f0-4f96-9572-025f0b5b2efd" d="M193.861,181.613c8.155.556,14.9,2.9,22.393,5.92,7.456,3.006,14.135,9.267,20.615,13.932,1.569,1.129,3.069-1.472,1.514-2.591-6.7-4.821-13.531-11.28-21.332-14.234-3.567-1.351-7.067-3.094-10.714-4.229-4.022-1.253-8.3-1.513-12.476-1.8-1.927-.131-1.918,2.87,0,3Z"/><path class="c6f61c19-67f0-4f96-9572-025f0b5b2efd" d="M236.9,203.363c7.19,4.875,14.3,9.889,19.493,16.969,4.065,5.538,7.087,11.755,10.021,17.939,5.748,12.118,11.516,24.325,22.67,32.422,11.433,8.3,27.72,13.244,41.852,11.945,14.573-1.34,25.509-11.71,39.019-16.106,19.63-6.387,38.85,4.12,53.287,16.765,1.447,1.267,3.577-.847,2.121-2.122-11-9.63-23.805-17.832-38.68-19.323-15.267-1.53-26.751,6.149-39.779,12.677-16.034,8.035-34.575,5.786-50.148-2.579-14.321-7.691-21.071-21.109-27.752-35.193-3.207-6.76-6.539-13.526-11.164-19.45-5.32-6.815-12.339-11.729-19.426-16.535-1.6-1.086-3.1,1.512-1.514,2.591Z"/><path class="c6f61c19-67f0-4f96-9572-025f0b5b2efd" d="M423.18,283.594c8.28,11.165,19.634,18.915,30.884,26.794,13.66,9.568,26.249,20.388,38.65,31.515q39.534,35.471,78.993,71.027c1.432,1.288,3.56-.827,2.121-2.121q-38.8-34.892-77.6-69.782c-11.619-10.438-23.335-20.808-36.018-29.952-12.2-8.8-25.336-16.727-34.434-29-1.138-1.534-3.743-.039-2.591,1.514Z"/></g><use id="59eafdcd-95c6-4201-95d8-c5356a9890cd" data-name="Start-Finish-Line" width="200" height="103.617" transform="translate(551.638 422.487) rotate(-49.262) scale(0.219)" xlink:href="#8d567e48-2a15-42be-9d79-0c805f2c9851"/></g></g></g></svg>