<svg xmlns="http://www.w3.org/2000/svg" xmlns:xlink="http://www.w3.org/1999/xlink" width="1212.644" height="2752.297" viewBox="0 0 1212.644 2752.297"><defs><style>.c90eb010-6660-4807-9e89-336a8db16018{fill:#00ff24;}.\30 4da6b80-f8c0-4bfe-afa5-2e0783c88a16,.c90eb010-6660-4807-9e89-336a8db16018{stroke:#000;stroke-width:5px;}.\30 456df29-276e-40c7-a5dd-c3c0ca1f3d67,.\30 4da6b80-f8c0-4bfe-afa5-2e0783c88a16,.\30 e395e44-4390-4b0f-8f82-20e9c8a863bf,.\31 c3e2aa4-4fb2-4fad-9aea-e83f06b08404,.\39 605ee05-38de-42e5-a1dc-32661b0bd9da,.c90eb010-6660-4807-9e89-336a8db16018,.d4fb217b-0f17-429e-b26a-73008546cda6{stroke-miterlimit:10;}.\30 4da6b80-f8c0-4bfe-afa5-2e0783c88a16{fill:#fff;}.\30 456df29-276e-40c7-a5dd-c3c0ca1f3d67,.\30 e395e44-4390-4b0f-8f82-20e9c8a863bf,.\31 c3e2aa4-4fb2-4fad-9aea-e83f06b08404,.\39 605ee05-38de-42e5-a1dc-32661b0bd9da,.d4fb217b-0f17-429e-b26a-73008546cda6{fill:none;}.\39 605ee05-38de-42e5-a1dc-32661b0bd9da,.d4fb217b-0f17-429e-b26a-73008546cda6{stroke:#c91c1c;}.\31 c3e2aa4-4fb2-4fad-9aea-e83f06b08404,.d4fb217b-0f17-429e-b26a-73008546cda6{stroke-width:22px;}.\30 456df29-276e-40c7-a5dd-c3c0ca1f3d67,.\31 c3e2aa4-4fb2-4fad-9aea-e83f06b08404{stroke:#0080ff;}.\30 e395e44-4390-4b0f-8f82-20e9c8a863bf{stroke:#fff;stroke-width:12.5px;}.\30 456df29-276e-40c7-a5dd-c3c0ca1f3d67,.\39 605ee05-38de-42e5-a1dc-32661b0bd9da{stroke-width:2.2px;}</style><symbol id="91997a21-cd12-47ff-bbf7-74ead7fd5952" data-name="fd103434-89f2-4089-acf9-54fed79ed404" viewBox="0 0 200 103.617"><rect class="c90eb010-6660-4807-9e89-336a8db16018" x="2.5" y="54.074" width="195" height="47.043"/><rect class="04da6b80-f8c0-4bfe-afa5-2e0783c88a16" x="2.5" y="2.5" width="48.75" height="48.75"/><rect class="04da6b80-f8c0-4bfe-afa5-2e0783c88a16" x="51.25" y="2.5" width="48.75" height="48.75"/><rect class="04da6b80-f8c0-4bfe-afa5-2e0783c88a16" x="100" y="2.5" width="48.75" height="48.75"/><rect class="04da6b80-f8c0-4bfe-afa5-2e0783c88a16" x="148.75" y="2.5" width="48.75" height="48.75"/></symbol></defs><title>Lemon_Hell</title><g id="f7240da1-f549-4a9b-8af8-dc811a3723e5" data-name="Layer 2"><g id="c79484b4-4c60-409b-9578-ee56149f10ba" data-name="City - Del Perro"><g id="f7c2fbee-e3a6-478b-bfe2-5f3d66eeb70b" data-name="Lemon_Hell"><path id="a49fab48-8e6d-4458-b56a-7c248f0a75dc" data-name="Pitlane Outer" class="d4fb217b-0f17-429e-b26a-73008546cda6" d="M540.39,2593.568c-11.444-8-3.521-18.642-17.521-27.309s-40.833-18.889-49.25-29.806c-4.463-5.788-6.128-15.509-6.583-24.666-.667-13.417-6.462-24.306-.823-37.417"/><path id="89204389-ab3e-4593-998b-6c7b49977420" data-name="Track Outer" class="1c3e2aa4-4fb2-4fad-9aea-e83f06b08404" d="M532.2,2588.537a287.4,287.4,0,0,0-38-18.167c-15.667-6.333-33.111-11.556-38.334-24.778s-5.111-24.333-.444-39.778,13.74-47.554,34.611-70.944c19.333-21.667,38.988-34.947,63.167-45.167,16.166-6.833,32-10.666,57.166-11.166s41.723,3.389,65.278,12.277,43.556,26,52.222,34.667a193.729,193.729,0,0,1,33.778,46.889c11.333,22,40,49.556,53.111,59.556s37.278,20.777,58.778,17.944,31.222-6.833,45.667-17.944,19.333-22.667,26.666-33.556,17.111-15.556,20.445-33.556,7.555-28,16.444-39.555,23.778-29.778,8-54-41.333-70-50-86.667-48.444-56.889-73.555-79.555-81.008-70.226-93.111-79.556c-21.334-16.444-53.334-13.778-76-4.889s-69.728,15.785-91.778-11.778c-16-20-26.445-36-37.556-49.777s-24.444-17.778-29.778-32.445a577.038,577.038,0,0,0-29.333-64.666c-11.333-20.889-18.1-42.2-22.889-61.334-7.778-31.111-8-33.333-11.555-48s0-28.222,12.666-52.222,62.334-119.333,72.667-148-2-37.333-8.667-48.333-16.666-33.334,4.667-52,27-25,31-55.667c0,0,4.111-27.111,5.333-41.667,1.275-15.179,2.889-29.222-.666-46.333s-7.778-21.667-14.889-27.556-21.667-8.777-33.445-10.555-32.111-8-41.222-13.333-23.222-15.223-34.333-28.667-16.556-22.778-28.667-36.333-26.778-30-36.333-35.778-17.778-8.889-24.778-7.667-13.778,4.889-26,20.111-23,26.889-37.444,29-19.778-1-34.112-2.555-53.222-6-68.555-8.556-60.722-9.444-80.222-16.611-38.5-12.5-54.834-22.333S59.2,1236.814,52.2,1230.592s-9.778-12.222-12.111-18-3.889-34.333-4.778-46.666-5.111-49-4.556-66.667.111-27.889,1.778-49.222,4.333-54.5,4.833-71.5.389-27.278-.5-46.834-3.333-35.444-6.333-44.333-6.111-12.778-13.778-17.778-6.778-13-2.555-19.333S25.036,834.2,25.536,824.37s-4.167-14-4.667-22-.833-21.333,4-30.833,11.334-26.5,16.334-34,10.111-11.723,19.333-16.723,13.222-5.666,17.889-7.444,15.555-4.222,29.555-3.889,21,.667,28.556-4.889,11-7.666,11.889-19.666.861-20.889,3.944-25.056,6.278-10.389,17.278-16.167,14-12.555,15.111-17-.333-9.889-3-16.889-10.222-22.444-17.444-30.333-12.695-13.528-19.611-19.194-19.584-20.917-24.25-28.334-10.139-15.694-10.584-22.472-1-13.111,3-19.333,11.778-16,18.223-21.334,14.888-9.444,26.555-12,14.111-3.555,27.556-3.888,31.666,2,48,5.555a114.036,114.036,0,0,1,34.333,13.445c7.889,4.444,10.778,6.888,13.667,13.222s5.333,20.555,9.555,26.444,8.667,13.222,24.222,17.111,29.223,5.778,38,.889,21.556-27.666,28.112-31.444,9.333-10.222,33.555-18,29.222-15.222,32.333-21.778,4.667-18.333,11.667-25.333,16.333-18,30.556-19.667,8.777.111,25.222-3,21-6.222,29.889-7.778,15.555-3.222,21,.111,10.666,10.667,7.889,18.778-12.223,22.778-14.445,29.889-4.222,10.222-.666,17.556,11.555,12.777,23.444,15.444,29.222,3.778,37.222,6.222,15.445,5.278,19.778,10.778A26.994,26.994,0,0,1,642.7,527.2c-3.834,10.834-4.5,15.167-14.5,32.5s-17.167,29.834-19.667,38.334-2.5,12.833,2,18.333,14,12.167,28,12.333,35.167-1.5,46.333-7.166,22.334-9.334,27.167-20,3-19.334,6.167-25.667,9.333-16,22.833-17.167,44.833-1.111,50.389-5.777,11.444-10.667,5.444-27-26.111-45-36.666-54.556-12.111-12.889-23.556-23.778-19.333-19.222-19.222-28.666,1.444-25.889,11-31.556,11.778-7.556,22.889-8.222,28.333-.556,40.666-5.445,41.723-37.166,51.889-47.166,30-27.611,40.556-32.945,23-12.111,30.778-17.778,17.555-16.222,19.444-26.777,2-13.111,1.556-21-5.223-12.334-16.556-16.889-29.555-11.334-35.333-14.556-16.556-9.333-25-27.778S843.7,144.7,831.036,140.7s-30-7-66.333-7.5-32.834-1.5-46-1.833-23.667-.167-54.5,10-29.834,15.667-62.5,15.667-24-.334-38.334,0-32.5-1-40.166-14.667,3-17.333,9.166-19,24.334-8.667,44.334-17,26-13,42.5-17S636.7,87.2,645.536,84.2s33.333-12.166,40.833-14S702.7,65.37,708.2,65.037,734.536,61.2,742.036,58.7s29.667-6,53-19.333S831.092,18.7,840.869,15.481s20.334-5.222,36.778-4.222,34.333,3.444,49.222,8,37.889,14.222,53.223,17.889,36.444,10,55.333,9.333,42-1.444,54.889-3.778,44.117-7.6,59.111-13.722c13.611-5.555,19.055-7.722,24.778-9.944,4.4-1.708,7.333-2.667,10.416-2.417s7.584.5,11,4.833,5.071,10.232,5.709,15.042c.5,3.8.375,10.042-.163,17.878s-1.629,15.5-2.407,25.33c-.907,11.473-5.111,37.778-4.889,69.334s.223,76.889-3.777,90.222-11.334,31.111-26.667,34-36.222,1.555-57.333,1.333-35.112,1.334-42.223,8.222-13.777,11.778-9.111,33.556a192.492,192.492,0,0,0,19.556,53.778c9.111,17.333,32.889,60.222,36.444,66s10.445,15.555,15.611,27.889,5.5,18.833,5,24.833-3.333,21.667-7.333,36.5-18,43.667-23.833,55.167-29,53.333-34.5,62.333-13.834,31.833-12.167,47.5,1.333,19.667,5.833,31.5,17.667,51.5,19,62.667,4.167,16,3.5,30.166-6.833,56.5-12.333,68.167-17,33.5-31.5,47.333-45.667,42-53,52.167-19.167,19.333-27.5,44-11,43.667-14.5,65-3.333,54.333-.167,67.833,6.167,25.667,8,36.167,1.167,33.833-1.166,48.5-13.389,54.944-21.389,76.722-30.913,79.991-43.778,102.889c-8.833,15.722-23.722,38.222-30.944,47.556a255.155,255.155,0,0,1-28.848,31.25c-15.43,14.194-28.291,25.166-41.125,33.833,0,0-20.861,15.694-31.639,22.25s-30.222,20.889-40.333,28.889-22.611,16.778-36.944,35.444-19.334,33.334-24.334,44.334-8.333,31.333-13.833,54.166-16.5,52-16.667,67.5,11.5,47,14.167,68.334,5,77.333,12.167,107,16,49.5,25,65.166a340.141,340.141,0,0,0,27.333,40c7.667,9.667,39.5,42.025,52.222,52.723,15.334,12.888,25.334,22.444,41.556,36.222s28.666,16.666,44.666,1.111,21.514-8.573,36-16.889c12-6.889,24.889-16.222,38-24.889s41.334-22.889,67.556-34.667,47.667-21.777,60.667-30.111,23.666-22.833,32.833-35.5,16.722-19.277,31.611-19.5,22.222,5.334,34.222,23.778,20.445,33.333,8.223,52.667-17.778,34.444-18.445,51.778,0,39.777,2.222,56,4.889,28.888,7.111,41.333-2.666,27.333,2,44.889,15.334,29.333,15.556,43.333,1.778,27.778.889,39.333-1.111,23.556-11.556,34.667-22.444,19.111-38,37.556-30,32.444-40,42.444-21.333,22.222-27.777,32.445-24,33.555-30.445,41.777-22.444,29.556-38.222,49.556-41.778,55.333-53.111,68.889-33.334,39.111-40.667,51.111-7.778,26.667-18.444,30.889-24.889-4-38.223-11.556-94.111-63.055-115.444-77.389-60-41.333-74.167-49.166-19.927-12.353-26-16.334c-15-9.833-34.708,4.462-18.166,17.5,14.166,11.167,36.355,29.787,44.666,37,8.834,7.667,81.5,70,93.334,80.167s1.262,24.419-12,13.333c-11.167-9.333-23.834-19.333-47.334-39.5s-65.58-55.46-70.25-59.333C575.536,2619.87,549.7,2598.378,532.2,2588.537Z"/><path id="141b2617-4fe7-491f-978e-01b23ddac4f6" data-name="Track Middle" class="0e395e44-4390-4b0f-8f82-20e9c8a863bf" d="M532.2,2588.537a287.4,287.4,0,0,0-38-18.167c-15.667-6.333-33.111-11.556-38.334-24.778s-5.111-24.333-.444-39.778,13.74-47.554,34.611-70.944c19.333-21.667,38.988-34.947,63.167-45.167,16.166-6.833,32-10.666,57.166-11.166s41.723,3.389,65.278,12.277,43.556,26,52.222,34.667a193.729,193.729,0,0,1,33.778,46.889c11.333,22,40,49.556,53.111,59.556s37.278,20.777,58.778,17.944,31.222-6.833,45.667-17.944,19.333-22.667,26.666-33.556,17.111-15.556,20.445-33.556,7.555-28,16.444-39.555,23.778-29.778,8-54-41.333-70-50-86.667-48.444-56.889-73.555-79.555-81.008-70.226-93.111-79.556c-21.334-16.444-53.334-13.778-76-4.889s-69.728,15.785-91.778-11.778c-16-20-26.445-36-37.556-49.777s-24.444-17.778-29.778-32.445a577.038,577.038,0,0,0-29.333-64.666c-11.333-20.889-18.1-42.2-22.889-61.334-7.778-31.111-8-33.333-11.555-48s0-28.222,12.666-52.222,62.334-119.333,72.667-148-2-37.333-8.667-48.333-16.666-33.334,4.667-52,27-25,31-55.667c0,0,4.111-27.111,5.333-41.667,1.275-15.179,2.889-29.222-.666-46.333s-7.778-21.667-14.889-27.556-21.667-8.777-33.445-10.555-32.111-8-41.222-13.333-23.222-15.223-34.333-28.667-16.556-22.778-28.667-36.333-26.778-30-36.333-35.778-17.778-8.889-24.778-7.667-13.778,4.889-26,20.111-23,26.889-37.444,29-19.778-1-34.112-2.555-53.222-6-68.555-8.556-60.722-9.444-80.222-16.611-38.5-12.5-54.834-22.333S59.2,1236.814,52.2,1230.592s-9.778-12.222-12.111-18-3.889-34.333-4.778-46.666-5.111-49-4.556-66.667.111-27.889,1.778-49.222,4.333-54.5,4.833-71.5.389-27.278-.5-46.834-3.333-35.444-6.333-44.333-6.111-12.778-13.778-17.778-6.778-13-2.555-19.333S25.036,834.2,25.536,824.37s-4.167-14-4.667-22-.833-21.333,4-30.833,11.334-26.5,16.334-34,10.111-11.723,19.333-16.723,13.222-5.666,17.889-7.444,15.555-4.222,29.555-3.889,21,.667,28.556-4.889,11-7.666,11.889-19.666.861-20.889,3.944-25.056,6.278-10.389,17.278-16.167,14-12.555,15.111-17-.333-9.889-3-16.889-10.222-22.444-17.444-30.333-12.695-13.528-19.611-19.194-19.584-20.917-24.25-28.334-10.139-15.694-10.584-22.472-1-13.111,3-19.333,11.778-16,18.223-21.334,14.888-9.444,26.555-12,14.111-3.555,27.556-3.888,31.666,2,48,5.555a114.036,114.036,0,0,1,34.333,13.445c7.889,4.444,10.778,6.888,13.667,13.222s5.333,20.555,9.555,26.444,8.667,13.222,24.222,17.111,29.223,5.778,38,.889,21.556-27.666,28.112-31.444,9.333-10.222,33.555-18,29.222-15.222,32.333-21.778,4.667-18.333,11.667-25.333,16.333-18,30.556-19.667,8.777.111,25.222-3,21-6.222,29.889-7.778,15.555-3.222,21,.111,10.666,10.667,7.889,18.778-12.223,22.778-14.445,29.889-4.222,10.222-.666,17.556,11.555,12.777,23.444,15.444,29.222,3.778,37.222,6.222,15.445,5.278,19.778,10.778A26.994,26.994,0,0,1,642.7,527.2c-3.834,10.834-4.5,15.167-14.5,32.5s-17.167,29.834-19.667,38.334-2.5,12.833,2,18.333,14,12.167,28,12.333,35.167-1.5,46.333-7.166,22.334-9.334,27.167-20,3-19.334,6.167-25.667,9.333-16,22.833-17.167,44.833-1.111,50.389-5.777,11.444-10.667,5.444-27-26.111-45-36.666-54.556-12.111-12.889-23.556-23.778-19.333-19.222-19.222-28.666,1.444-25.889,11-31.556,11.778-7.556,22.889-8.222,28.333-.556,40.666-5.445,41.723-37.166,51.889-47.166,30-27.611,40.556-32.945,23-12.111,30.778-17.778,17.555-16.222,19.444-26.777,2-13.111,1.556-21-5.223-12.334-16.556-16.889-29.555-11.334-35.333-14.556-16.556-9.333-25-27.778S843.7,144.7,831.036,140.7s-30-7-66.333-7.5-32.834-1.5-46-1.833-23.667-.167-54.5,10-29.834,15.667-62.5,15.667-24-.334-38.334,0-32.5-1-40.166-14.667,3-17.333,9.166-19,24.334-8.667,44.334-17,26-13,42.5-17S636.7,87.2,645.536,84.2s33.333-12.166,40.833-14S702.7,65.37,708.2,65.037,734.536,61.2,742.036,58.7s29.667-6,53-19.333S831.092,18.7,840.869,15.481s20.334-5.222,36.778-4.222,34.333,3.444,49.222,8,37.889,14.222,53.223,17.889,36.444,10,55.333,9.333,42-1.444,54.889-3.778,44.117-7.6,59.111-13.722c13.611-5.555,19.055-7.722,24.778-9.944,4.4-1.708,7.333-2.667,10.416-2.417s7.584.5,11,4.833,5.071,10.232,5.709,15.042c.5,3.8.375,10.042-.163,17.878s-1.629,15.5-2.407,25.33c-.907,11.473-5.111,37.778-4.889,69.334s.223,76.889-3.777,90.222-11.334,31.111-26.667,34-36.222,1.555-57.333,1.333-35.112,1.334-42.223,8.222-13.777,11.778-9.111,33.556a192.492,192.492,0,0,0,19.556,53.778c9.111,17.333,32.889,60.222,36.444,66s10.445,15.555,15.611,27.889,5.5,18.833,5,24.833-3.333,21.667-7.333,36.5-18,43.667-23.833,55.167-29,53.333-34.5,62.333-13.834,31.833-12.167,47.5,1.333,19.667,5.833,31.5,17.667,51.5,19,62.667,4.167,16,3.5,30.166-6.833,56.5-12.333,68.167-17,33.5-31.5,47.333-45.667,42-53,52.167-19.167,19.333-27.5,44-11,43.667-14.5,65-3.333,54.333-.167,67.833,6.167,25.667,8,36.167,1.167,33.833-1.166,48.5-13.389,54.944-21.389,76.722-30.913,79.991-43.778,102.889c-8.833,15.722-23.722,38.222-30.944,47.556a255.155,255.155,0,0,1-28.848,31.25c-15.43,14.194-28.291,25.166-41.125,33.833,0,0-20.861,15.694-31.639,22.25s-30.222,20.889-40.333,28.889-22.611,16.778-36.944,35.444-19.334,33.334-24.334,44.334-8.333,31.333-13.833,54.166-16.5,52-16.667,67.5,11.5,47,14.167,68.334,5,77.333,12.167,107,16,49.5,25,65.166a340.141,340.141,0,0,0,27.333,40c7.667,9.667,39.5,42.025,52.222,52.723,15.334,12.888,25.334,22.444,41.556,36.222s28.666,16.666,44.666,1.111,21.514-8.573,36-16.889c12-6.889,24.889-16.222,38-24.889s41.334-22.889,67.556-34.667,47.667-21.777,60.667-30.111,23.666-22.833,32.833-35.5,16.722-19.277,31.611-19.5,22.222,5.334,34.222,23.778,20.445,33.333,8.223,52.667-17.778,34.444-18.445,51.778,0,39.777,2.222,56,4.889,28.888,7.111,41.333-2.666,27.333,2,44.889,15.334,29.333,15.556,43.333,1.778,27.778.889,39.333-1.111,23.556-11.556,34.667-22.444,19.111-38,37.556-30,32.444-40,42.444-21.333,22.222-27.777,32.445-24,33.555-30.445,41.777-22.444,29.556-38.222,49.556-41.778,55.333-53.111,68.889-33.334,39.111-40.667,51.111-7.778,26.667-18.444,30.889-24.889-4-38.223-11.556-94.111-63.055-115.444-77.389-60-41.333-74.167-49.166-19.927-12.353-26-16.334c-15-9.833-34.708,4.462-18.166,17.5,14.166,11.167,36.355,29.787,44.666,37,8.834,7.667,81.5,70,93.334,80.167s1.262,24.419-12,13.333c-11.167-9.333-23.834-19.333-47.334-39.5s-65.58-55.46-70.25-59.333C575.536,2619.87,549.7,2598.378,532.2,2588.537Z"/><path id="9e054873-4796-440c-bd26-20a4f301728e" data-name="Pitlane Middle" class="0e395e44-4390-4b0f-8f82-20e9c8a863bf" d="M540.39,2593.568c-11.444-8-3.521-18.642-17.521-27.309s-40.833-18.889-49.25-29.806c-4.463-5.788-6.128-15.509-6.583-24.666-.667-13.417-6.462-24.306-.823-37.417"/><path id="2636283b-a448-44c4-b2ea-5b970bc4b3ea" data-name="Pitlane Inner" class="9605ee05-38de-42e5-a1dc-32661b0bd9da" d="M540.39,2593.568c-11.444-8-3.521-18.642-17.521-27.309s-40.833-18.889-49.25-29.806c-4.463-5.788-6.128-15.509-6.583-24.666-.667-13.417-6.462-24.306-.823-37.417"/><path id="5c4b88a3-5539-4bb2-ae76-3f32753ccba1" data-name="Track Inner" class="0456df29-276e-40c7-a5dd-c3c0ca1f3d67" d="M532.2,2588.537a287.4,287.4,0,0,0-38-18.167c-15.667-6.333-33.111-11.556-38.334-24.778s-5.111-24.333-.444-39.778,13.74-47.554,34.611-70.944c19.333-21.667,38.988-34.947,63.167-45.167,16.166-6.833,32-10.666,57.166-11.166s41.723,3.389,65.278,12.277,43.556,26,52.222,34.667a193.729,193.729,0,0,1,33.778,46.889c11.333,22,40,49.556,53.111,59.556s37.278,20.777,58.778,17.944,31.222-6.833,45.667-17.944,19.333-22.667,26.666-33.556,17.111-15.556,20.445-33.556,7.555-28,16.444-39.555,23.778-29.778,8-54-41.333-70-50-86.667-48.444-56.889-73.555-79.555-81.008-70.226-93.111-79.556c-21.334-16.444-53.334-13.778-76-4.889s-69.728,15.785-91.778-11.778c-16-20-26.445-36-37.556-49.777s-24.444-17.778-29.778-32.445a577.038,577.038,0,0,0-29.333-64.666c-11.333-20.889-18.1-42.2-22.889-61.334-7.778-31.111-8-33.333-11.555-48s0-28.222,12.666-52.222,62.334-119.333,72.667-148-2-37.333-8.667-48.333-16.666-33.334,4.667-52,27-25,31-55.667c0,0,4.111-27.111,5.333-41.667,1.275-15.179,2.889-29.222-.666-46.333s-7.778-21.667-14.889-27.556-21.667-8.777-33.445-10.555-32.111-8-41.222-13.333-23.222-15.223-34.333-28.667-16.556-22.778-28.667-36.333-26.778-30-36.333-35.778-17.778-8.889-24.778-7.667-13.778,4.889-26,20.111-23,26.889-37.444,29-19.778-1-34.112-2.555-53.222-6-68.555-8.556-60.722-9.444-80.222-16.611-38.5-12.5-54.834-22.333S59.2,1236.814,52.2,1230.592s-9.778-12.222-12.111-18-3.889-34.333-4.778-46.666-5.111-49-4.556-66.667.111-27.889,1.778-49.222,4.333-54.5,4.833-71.5.389-27.278-.5-46.834-3.333-35.444-6.333-44.333-6.111-12.778-13.778-17.778-6.778-13-2.555-19.333S25.036,834.2,25.536,824.37s-4.167-14-4.667-22-.833-21.333,4-30.833,11.334-26.5,16.334-34,10.111-11.723,19.333-16.723,13.222-5.666,17.889-7.444,15.555-4.222,29.555-3.889,21,.667,28.556-4.889,11-7.666,11.889-19.666.861-20.889,3.944-25.056,6.278-10.389,17.278-16.167,14-12.555,15.111-17-.333-9.889-3-16.889-10.222-22.444-17.444-30.333-12.695-13.528-19.611-19.194-19.584-20.917-24.25-28.334-10.139-15.694-10.584-22.472-1-13.111,3-19.333,11.778-16,18.223-21.334,14.888-9.444,26.555-12,14.111-3.555,27.556-3.888,31.666,2,48,5.555a114.036,114.036,0,0,1,34.333,13.445c7.889,4.444,10.778,6.888,13.667,13.222s5.333,20.555,9.555,26.444,8.667,13.222,24.222,17.111,29.223,5.778,38,.889,21.556-27.666,28.112-31.444,9.333-10.222,33.555-18,29.222-15.222,32.333-21.778,4.667-18.333,11.667-25.333,16.333-18,30.556-19.667,8.777.111,25.222-3,21-6.222,29.889-7.778,15.555-3.222,21,.111,10.666,10.667,7.889,18.778-12.223,22.778-14.445,29.889-4.222,10.222-.666,17.556,11.555,12.777,23.444,15.444,29.222,3.778,37.222,6.222,15.445,5.278,19.778,10.778A26.994,26.994,0,0,1,642.7,527.2c-3.834,10.834-4.5,15.167-14.5,32.5s-17.167,29.834-19.667,38.334-2.5,12.833,2,18.333,14,12.167,28,12.333,35.167-1.5,46.333-7.166,22.334-9.334,27.167-20,3-19.334,6.167-25.667,9.333-16,22.833-17.167,44.833-1.111,50.389-5.777,11.444-10.667,5.444-27-26.111-45-36.666-54.556-12.111-12.889-23.556-23.778-19.333-19.222-19.222-28.666,1.444-25.889,11-31.556,11.778-7.556,22.889-8.222,28.333-.556,40.666-5.445,41.723-37.166,51.889-47.166,30-27.611,40.556-32.945,23-12.111,30.778-17.778,17.555-16.222,19.444-26.777,2-13.111,1.556-21-5.223-12.334-16.556-16.889-29.555-11.334-35.333-14.556-16.556-9.333-25-27.778S843.7,144.7,831.036,140.7s-30-7-66.333-7.5-32.834-1.5-46-1.833-23.667-.167-54.5,10-29.834,15.667-62.5,15.667-24-.334-38.334,0-32.5-1-40.166-14.667,3-17.333,9.166-19,24.334-8.667,44.334-17,26-13,42.5-17S636.7,87.2,645.536,84.2s33.333-12.166,40.833-14S702.7,65.37,708.2,65.037,734.536,61.2,742.036,58.7s29.667-6,53-19.333S831.092,18.7,840.869,15.481s20.334-5.222,36.778-4.222,34.333,3.444,49.222,8,37.889,14.222,53.223,17.889,36.444,10,55.333,9.333,42-1.444,54.889-3.778,44.117-7.6,59.111-13.722c13.611-5.555,19.055-7.722,24.778-9.944,4.4-1.708,7.333-2.667,10.416-2.417s7.584.5,11,4.833,5.071,10.232,5.709,15.042c.5,3.8.375,10.042-.163,17.878s-1.629,15.5-2.407,25.33c-.907,11.473-5.111,37.778-4.889,69.334s.223,76.889-3.777,90.222-11.334,31.111-26.667,34-36.222,1.555-57.333,1.333-35.112,1.334-42.223,8.222-13.777,11.778-9.111,33.556a192.492,192.492,0,0,0,19.556,53.778c9.111,17.333,32.889,60.222,36.444,66s10.445,15.555,15.611,27.889,5.5,18.833,5,24.833-3.333,21.667-7.333,36.5-18,43.667-23.833,55.167-29,53.333-34.5,62.333-13.834,31.833-12.167,47.5,1.333,19.667,5.833,31.5,17.667,51.5,19,62.667,4.167,16,3.5,30.166-6.833,56.5-12.333,68.167-17,33.5-31.5,47.333-45.667,42-53,52.167-19.167,19.333-27.5,44-11,43.667-14.5,65-3.333,54.333-.167,67.833,6.167,25.667,8,36.167,1.167,33.833-1.166,48.5-13.389,54.944-21.389,76.722-30.913,79.991-43.778,102.889c-8.833,15.722-23.722,38.222-30.944,47.556a255.155,255.155,0,0,1-28.848,31.25c-15.43,14.194-28.291,25.166-41.125,33.833,0,0-20.861,15.694-31.639,22.25s-30.222,20.889-40.333,28.889-22.611,16.778-36.944,35.444-19.334,33.334-24.334,44.334-8.333,31.333-13.833,54.166-16.5,52-16.667,67.5,11.5,47,14.167,68.334,5,77.333,12.167,107,16,49.5,25,65.166a340.141,340.141,0,0,0,27.333,40c7.667,9.667,39.5,42.025,52.222,52.723,15.334,12.888,25.334,22.444,41.556,36.222s28.666,16.666,44.666,1.111,21.514-8.573,36-16.889c12-6.889,24.889-16.222,38-24.889s41.334-22.889,67.556-34.667,47.667-21.777,60.667-30.111,23.666-22.833,32.833-35.5,16.722-19.277,31.611-19.5,22.222,5.334,34.222,23.778,20.445,33.333,8.223,52.667-17.778,34.444-18.445,51.778,0,39.777,2.222,56,4.889,28.888,7.111,41.333-2.666,27.333,2,44.889,15.334,29.333,15.556,43.333,1.778,27.778.889,39.333-1.111,23.556-11.556,34.667-22.444,19.111-38,37.556-30,32.444-40,42.444-21.333,22.222-27.777,32.445-24,33.555-30.445,41.777-22.444,29.556-38.222,49.556-41.778,55.333-53.111,68.889-33.334,39.111-40.667,51.111-7.778,26.667-18.444,30.889-24.889-4-38.223-11.556-94.111-63.055-115.444-77.389-60-41.333-74.167-49.166-19.927-12.353-26-16.334c-15-9.833-34.708,4.462-18.166,17.5,14.166,11.167,36.355,29.787,44.666,37,8.834,7.667,81.5,70,93.334,80.167s1.262,24.419-12,13.333c-11.167-9.333-23.834-19.333-47.334-39.5s-65.58-55.46-70.25-59.333C575.536,2619.87,549.7,2598.378,532.2,2588.537Z"/><use id="5ee0bd92-0815-43ff-a7c2-6bb7ca33edc9" data-name="Start-Finish-Line" width="200" height="103.617" transform="translate(616.866 2624.138) rotate(129.559) scale(0.232)" xlink:href="#91997a21-cd12-47ff-bbf7-74ead7fd5952"/><g id="b65bed24-bfe1-482c-a33e-cabf0419f75a" data-name="Crossover"><path id="6acb990d-905d-499a-b3bf-d58cb20fa1ff" data-name="Crossover Outer" class="1c3e2aa4-4fb2-4fad-9aea-e83f06b08404" d="M867.2,2205.044c-25.111-22.667-81.008-70.226-93.111-79.556-21.334-16.444-53.334-13.778-76-4.889s-69.728,15.785-91.778-11.778"/><path id="71c58d0f-e124-4d7d-97df-b3fe7e1362a7" data-name="Crossover Middle" class="0e395e44-4390-4b0f-8f82-20e9c8a863bf" d="M867.2,2205.044c-25.111-22.667-81.008-70.226-93.111-79.556-21.334-16.444-53.334-13.778-76-4.889s-69.728,15.785-91.778-11.778"/><path id="a623c939-8ae2-43d6-9630-4a05b28554e4" data-name="Crossover Inner" class="0456df29-276e-40c7-a5dd-c3c0ca1f3d67" d="M867.2,2205.044c-25.111-22.667-81.008-70.226-93.111-79.556-21.334-16.444-53.334-13.778-76-4.889s-69.728,15.785-91.778-11.778"/></g></g></g></g></svg>