<svg xmlns="http://www.w3.org/2000/svg" xmlns:xlink="http://www.w3.org/1999/xlink" width="1011.093" height="950.79" viewBox="0 0 1011.093 950.79"><defs><style>.\34 277ba81-dc82-41f9-8002-7642a939bab8{fill:#00ff24;}.\34 277ba81-dc82-41f9-8002-7642a939bab8,.d80c194b-6700-45dd-a409-c7cb874f2d4e{stroke:#000;stroke-width:5px;}.\32 6e2cdb9-3fdb-4899-9781-1be72ae92a5c,.\33 be5fbe7-78f7-4eb7-ac90-a47eee6d88df,.\34 277ba81-dc82-41f9-8002-7642a939bab8,.\38 a556120-3880-41c6-b5c5-5eb78c5268d1,.\39 60b158d-5946-41d1-8c13-a229b842afa5,.c2ecc589-238b-4986-bdcc-695e699f343c,.d80c194b-6700-45dd-a409-c7cb874f2d4e{stroke-miterlimit:10;}.d80c194b-6700-45dd-a409-c7cb874f2d4e{fill:#fff;}.\32 6e2cdb9-3fdb-4899-9781-1be72ae92a5c,.\33 be5fbe7-78f7-4eb7-ac90-a47eee6d88df,.\38 a556120-3880-41c6-b5c5-5eb78c5268d1,.\39 60b158d-5946-41d1-8c13-a229b842afa5,.c2ecc589-238b-4986-bdcc-695e699f343c{fill:none;}.\38 a556120-3880-41c6-b5c5-5eb78c5268d1,.c2ecc589-238b-4986-bdcc-695e699f343c{stroke:#c91c1c;}.\33 be5fbe7-78f7-4eb7-ac90-a47eee6d88df,.\38 a556120-3880-41c6-b5c5-5eb78c5268d1{stroke-width:20px;}.\32 6e2cdb9-3fdb-4899-9781-1be72ae92a5c,.\33 be5fbe7-78f7-4eb7-ac90-a47eee6d88df{stroke:#0080ff;}.\39 60b158d-5946-41d1-8c13-a229b842afa5{stroke:#fff;stroke-width:12px;}.\32 6e2cdb9-3fdb-4899-9781-1be72ae92a5c,.c2ecc589-238b-4986-bdcc-695e699f343c{stroke-width:2px;}</style><symbol id="4a2dbc09-1661-4276-935e-15e0f2b15292" data-name="fd103434-89f2-4089-acf9-54fed79ed404" viewBox="0 0 200 103.617"><rect class="4277ba81-dc82-41f9-8002-7642a939bab8" x="2.5" y="54.074" width="195" height="47.043"/><rect class="d80c194b-6700-45dd-a409-c7cb874f2d4e" x="2.5" y="2.5" width="48.75" height="48.75"/><rect class="d80c194b-6700-45dd-a409-c7cb874f2d4e" x="51.25" y="2.5" width="48.75" height="48.75"/><rect class="d80c194b-6700-45dd-a409-c7cb874f2d4e" x="100" y="2.5" width="48.75" height="48.75"/><rect class="d80c194b-6700-45dd-a409-c7cb874f2d4e" x="148.75" y="2.5" width="48.75" height="48.75"/></symbol></defs><title>SAGTC_Morningwood_GP</title><g id="aff65417-d828-44a8-addc-6614f2f75215" data-name="Layer 2"><g id="78ea0864-16cb-415c-8c03-475ddf65ad56" data-name="City - Del Perro"><g id="6159ed8c-de77-4c38-8eda-38e81a06da9c" data-name="SAGTC_Morningwood_GP"><path id="6eef611b-64ea-4376-91c6-bc033ff7234b" data-name="Pitlane Outer" class="8a556120-3880-41c6-b5c5-5eb78c5268d1" d="M726.139,730.526c-7-12-18.074-9.339-23.074-16.839-9.657-14.484-14.961-23.609-29.5-31.833-11-6.223-34-15.834-53-24.834s-30.667-14.166-37-18.333-13.5-2.333-19.334,4.167-9.166,10.166-12.666,13.777-10.5.334-6.056-5.555,7.722-9.181,12.222-14.619,8.334-9.437-1.833-17.937-31.167-23.833-41.833-33.833-43.167-38.167-56-51-20.18-26.563-33.4-37.751"/><path id="4ed9c86d-f041-42bf-9d31-83976fa08117" data-name="Track Outer" class="3be5fbe7-78f7-4eb7-ac90-a47eee6d88df" d="M252.342,347.965c-14.275-11.713-42.585-34.658-60.444-49.334-22.445-18.444-58.445-48.666-70.222-58.666s-27.556-22-46.889-30.889-30.445-13.111-41.778-16.667S6.342,188.187,10.787,163.52,21.171,113.159,29.231,97.3c6.889-13.556,23.556-36.444,35.334-46s30-22.667,46.888-29.111,33.556-10.667,48.223-11.778,39.777-.444,64.889,8.222,41.555,18.445,57.111,32.445A175.753,175.753,0,0,1,316.12,93.742c7.333,12.889,20.712,33.857,31.445,45.334,11.222,12,26.934,25.675,35,30a146.658,146.658,0,0,0,24.777,10.555c7.445,2.223,18.778,8.778,13.223,21s-7.112,16.445-11.445,28.334-12.222,20.444-16.667,29.111c-4.988,9.727,3.077,18.993,14.223,3.778,9.889-13.5,28.222-37.667,35.222-48s16.283-29.622,31.167-43.667c11.833-11.167,19.166-18.667,24.5-26.5s17.833-16,33-4,26.166,24.667,39.666,37,40.138,38.459,51.5,48.833a370.232,370.232,0,0,1,33.334,34.167C665.9,272.52,677.806,293.1,684.4,304.02c5.833,9.667,22.333,35.834,28.667,44.5s16.166,23.834,35.5,10.334S778.9,336.02,786.731,329.02s7-16.5,18.334-17.5,17.333,7.667,16.833,18.334-4.13,19.9,1.667,27c6.666,8.166,18.833,22.666,26.666,30.5s23.334,10.833,36,23.833,62.334,69.167,75,84.333,20.667,24.834,28,33,21.667,27.167,1.667,43.834-59.833,52-69.667,59.666-53.333,33-69,42.5-40.055,17.308-34.666,41.334c4,17.833,10.5,42,14.833,57.166s8.667,36.667,15.833,51.5,18.167,43,22.5,58,10,29-7.333,37.667-30.333,15.333-39.5,19.167-21.167.5-21-16.167-.167-29.5,0-39.333-.333-14.667-7-28.5-43.667-80.667-49.5-91.5-24.667-40.334-31.833-51.5-9.167-18.667,4-32,28-28.667,35.166-36.834,5.167-18.333-2.5-25.666-20.833-10.5-33.5.666-24.333,13.167-34,13.5-28.333-5.166-40.166-12.5-23.5-16-44.834-21.5-46.333-11-63.5-19.5-53.666-34.333-71.666-49.833-61.834-51.333-79.834-68.333-60.833-53.5-77.166-66.167S265.681,358.909,252.342,347.965Z"/><path id="adb5cb12-fc3f-4691-a210-523e66000b84" data-name="Track Middle" class="960b158d-5946-41d1-8c13-a229b842afa5" d="M252.342,347.965c-14.275-11.713-42.585-34.658-60.444-49.334-22.445-18.444-58.445-48.666-70.222-58.666s-27.556-22-46.889-30.889-30.445-13.111-41.778-16.667S6.342,188.187,10.787,163.52,21.171,113.159,29.231,97.3c6.889-13.556,23.556-36.444,35.334-46s30-22.667,46.888-29.111,33.556-10.667,48.223-11.778,39.777-.444,64.889,8.222,41.555,18.445,57.111,32.445A175.753,175.753,0,0,1,316.12,93.742c7.333,12.889,20.712,33.857,31.445,45.334,11.222,12,26.934,25.675,35,30a146.658,146.658,0,0,0,24.777,10.555c7.445,2.223,18.778,8.778,13.223,21s-7.112,16.445-11.445,28.334-12.222,20.444-16.667,29.111c-4.988,9.727,3.077,18.993,14.223,3.778,9.889-13.5,28.222-37.667,35.222-48s16.283-29.622,31.167-43.667c11.833-11.167,19.166-18.667,24.5-26.5s17.833-16,33-4,26.166,24.667,39.666,37,40.138,38.459,51.5,48.833a370.232,370.232,0,0,1,33.334,34.167C665.9,272.52,677.806,293.1,684.4,304.02c5.833,9.667,22.333,35.834,28.667,44.5s16.166,23.834,35.5,10.334S778.9,336.02,786.731,329.02s7-16.5,18.334-17.5,17.333,7.667,16.833,18.334-4.13,19.9,1.667,27c6.666,8.166,18.833,22.666,26.666,30.5s23.334,10.833,36,23.833,62.334,69.167,75,84.333,20.667,24.834,28,33,21.667,27.167,1.667,43.834-59.833,52-69.667,59.666-53.333,33-69,42.5-40.055,17.308-34.666,41.334c4,17.833,10.5,42,14.833,57.166s8.667,36.667,15.833,51.5,18.167,43,22.5,58,10,29-7.333,37.667-30.333,15.333-39.5,19.167-21.167.5-21-16.167-.167-29.5,0-39.333-.333-14.667-7-28.5-43.667-80.667-49.5-91.5-24.667-40.334-31.833-51.5-9.167-18.667,4-32,28-28.667,35.166-36.834,5.167-18.333-2.5-25.666-20.833-10.5-33.5.666-24.333,13.167-34,13.5-28.333-5.166-40.166-12.5-23.5-16-44.834-21.5-46.333-11-63.5-19.5-53.666-34.333-71.666-49.833-61.834-51.333-79.834-68.333-60.833-53.5-77.166-66.167S265.681,358.909,252.342,347.965Z"/><path id="1eaa659e-f66b-4939-8391-af0b6640a138" data-name="Pitlane Middle" class="960b158d-5946-41d1-8c13-a229b842afa5" d="M726.139,730.526c-7-12-18.074-9.339-23.074-16.839-9.657-14.484-14.961-23.609-29.5-31.833-11-6.223-34-15.834-53-24.834s-30.667-14.166-37-18.333-13.5-2.333-19.334,4.167-9.166,10.166-12.666,13.777-10.5.334-6.056-5.555,7.722-9.181,12.222-14.619,8.334-9.437-1.833-17.937-31.167-23.833-41.833-33.833-43.167-38.167-56-51-20.18-26.563-33.4-37.751"/><path id="16293c30-444b-4504-a809-5d7d33ba5423" data-name="Pitlane Inner" class="c2ecc589-238b-4986-bdcc-695e699f343c" d="M726.139,730.526c-7-12-18.074-9.339-23.074-16.839-9.657-14.484-14.961-23.609-29.5-31.833-11-6.223-34-15.834-53-24.834s-30.667-14.166-37-18.333-13.5-2.333-19.334,4.167-9.166,10.166-12.666,13.777-10.5.334-6.056-5.555,7.722-9.181,12.222-14.619,8.334-9.437-1.833-17.937-31.167-23.833-41.833-33.833-43.167-38.167-56-51-20.18-26.563-33.4-37.751"/><path id="d373ffe4-9607-4813-93fc-798002fbda93" data-name="Track Inner" class="26e2cdb9-3fdb-4899-9781-1be72ae92a5c" d="M252.342,347.965c-14.275-11.713-42.585-34.658-60.444-49.334-22.445-18.444-58.445-48.666-70.222-58.666s-27.556-22-46.889-30.889-30.445-13.111-41.778-16.667S6.342,188.187,10.787,163.52,21.171,113.159,29.231,97.3c6.889-13.556,23.556-36.444,35.334-46s30-22.667,46.888-29.111,33.556-10.667,48.223-11.778,39.777-.444,64.889,8.222,41.555,18.445,57.111,32.445A175.753,175.753,0,0,1,316.12,93.742c7.333,12.889,20.712,33.857,31.445,45.334,11.222,12,26.934,25.675,35,30a146.658,146.658,0,0,0,24.777,10.555c7.445,2.223,18.778,8.778,13.223,21s-7.112,16.445-11.445,28.334-12.222,20.444-16.667,29.111c-4.988,9.727,3.077,18.993,14.223,3.778,9.889-13.5,28.222-37.667,35.222-48s16.283-29.622,31.167-43.667c11.833-11.167,19.166-18.667,24.5-26.5s17.833-16,33-4,26.166,24.667,39.666,37,40.138,38.459,51.5,48.833a370.232,370.232,0,0,1,33.334,34.167C665.9,272.52,677.806,293.1,684.4,304.02c5.833,9.667,22.333,35.834,28.667,44.5s16.166,23.834,35.5,10.334S778.9,336.02,786.731,329.02s7-16.5,18.334-17.5,17.333,7.667,16.833,18.334-4.13,19.9,1.667,27c6.666,8.166,18.833,22.666,26.666,30.5s23.334,10.833,36,23.833,62.334,69.167,75,84.333,20.667,24.834,28,33,21.667,27.167,1.667,43.834-59.833,52-69.667,59.666-53.333,33-69,42.5-40.055,17.308-34.666,41.334c4,17.833,10.5,42,14.833,57.166s8.667,36.667,15.833,51.5,18.167,43,22.5,58,10,29-7.333,37.667-30.333,15.333-39.5,19.167-21.167.5-21-16.167-.167-29.5,0-39.333-.333-14.667-7-28.5-43.667-80.667-49.5-91.5-24.667-40.334-31.833-51.5-9.167-18.667,4-32,28-28.667,35.166-36.834,5.167-18.333-2.5-25.666-20.833-10.5-33.5.666-24.333,13.167-34,13.5-28.333-5.166-40.166-12.5-23.5-16-44.834-21.5-46.333-11-63.5-19.5-53.666-34.333-71.666-49.833-61.834-51.333-79.834-68.333-60.833-53.5-77.166-66.167S265.681,358.909,252.342,347.965Z"/><use id="d9c59283-ffc2-417a-8145-8cfed3276fff" data-name="Start-Finish-Line" width="200" height="103.617" transform="matrix(-0.15, 0.177, -0.177, -0.15, 279.708, 340.8)" xlink:href="#4a2dbc09-1661-4276-935e-15e0f2b15292"/></g></g></g></svg>