<svg xmlns="http://www.w3.org/2000/svg" xmlns:xlink="http://www.w3.org/1999/xlink" width="840.66" height="524.407" viewBox="0 0 840.66 524.407"><defs><style>.ce81e9ca-0b97-4703-bb9e-55106ff2aa2f{fill:#00ff24;}.\31 29b70f1-5700-46e6-8921-677fda3dbb83,.ce81e9ca-0b97-4703-bb9e-55106ff2aa2f{stroke:#000;stroke-width:5px;}.\31 29b70f1-5700-46e6-8921-677fda3dbb83,.\31 a04ec89-d628-4cba-8c98-87feca905619,.\37 9db9a48-6918-4c2e-8d99-9dde741dcfbf,.b7363092-91e9-4ae9-b32b-a8bb06365a7a,.c6b15e1c-72d8-4170-b4d1-71fbed3ec1d2,.ce81e9ca-0b97-4703-bb9e-55106ff2aa2f{stroke-miterlimit:10;}.\31 29b70f1-5700-46e6-8921-677fda3dbb83,.\34 37ac22b-9850-4835-a270-f73eda03a57f{fill:#fff;}.\37 9db9a48-6918-4c2e-8d99-9dde741dcfbf,.b7363092-91e9-4ae9-b32b-a8bb06365a7a,.c6b15e1c-72d8-4170-b4d1-71fbed3ec1d2{fill:none;}.b7363092-91e9-4ae9-b32b-a8bb06365a7a,.c6b15e1c-72d8-4170-b4d1-71fbed3ec1d2{stroke:#007fff;}.b7363092-91e9-4ae9-b32b-a8bb06365a7a{stroke-width:20px;}.\31 a04ec89-d628-4cba-8c98-87feca905619,.\37 9db9a48-6918-4c2e-8d99-9dde741dcfbf{stroke:#fff;}.\37 9db9a48-6918-4c2e-8d99-9dde741dcfbf{stroke-width:10px;}.c6b15e1c-72d8-4170-b4d1-71fbed3ec1d2{stroke-width:2px;}.\31 a04ec89-d628-4cba-8c98-87feca905619{fill:#333;stroke-width:1.5px;}</style><symbol id="bca6213c-2962-4ce6-b358-4b214f939279" data-name="fd103434-89f2-4089-acf9-54fed79ed404" viewBox="0 0 200 103.617"><rect class="ce81e9ca-0b97-4703-bb9e-55106ff2aa2f" x="2.5" y="54.074" width="195" height="47.043"/><rect class="129b70f1-5700-46e6-8921-677fda3dbb83" x="2.5" y="2.5" width="48.75" height="48.75"/><rect class="129b70f1-5700-46e6-8921-677fda3dbb83" x="51.25" y="2.5" width="48.75" height="48.75"/><rect class="129b70f1-5700-46e6-8921-677fda3dbb83" x="100" y="2.5" width="48.75" height="48.75"/><rect class="129b70f1-5700-46e6-8921-677fda3dbb83" x="148.75" y="2.5" width="48.75" height="48.75"/></symbol></defs><title>Sex_On_The_Beach_5M</title><g id="ee9778fb-a10b-427a-91a2-96adf541810f" data-name="Layer 2"><g id="8102d781-0474-4c13-bdb0-51dbdd874d5c" data-name="City - Del Perro"><g id="7756fcb2-8b42-4f13-bf31-f047a9f5c023" data-name="Sex_On_The_Beach_5M"><g id="b29d49c3-5cba-4aa0-a141-b53bb475bddb" data-name="Track-Outer"><path class="b7363092-91e9-4ae9-b32b-a8bb06365a7a" d="M245.521,274.346c-16.487-14.773-36.07-32.335-51.666-46.334-16.306-14.635-33.342-30.543-43.342-39.043-4.9-4.168-12.38-5.818-17.5-.7-2.5,2.5-11.565,11.377-14.1,13.849a11.794,11.794,0,0,1-16.282.18C85.761,186.56,55.169,161.906,38.3,146.166a12.347,12.347,0,0,1-.533-17.509c3.149-3.34,32.5-32.736,37.191-36,5-3.476,21.167-13.166,43.165-1.147,9.749,5.328,29.824,20.761,37.5,26.814,22.062,17.4,54.583,45,62.333,51.5.389.327,2.125,1.75,3.833,3.167a9.742,9.742,0,0,0,9.667,0,9.574,9.574,0,0,0,4.666-7.167c.406-4.032-2.026-7.247-4.333-9.5a53.674,53.674,0,0,0-5.5-4.667C205.039,134,179.623,113.273,155.956,94.5c-36.587-29.03-52.365-41.277-58.229-45.438-3.036-2.153-5.122-4.108-9.438-7.729a13.445,13.445,0,0,1-3.666-4c-2.2-4.028-1.154-8.342-.834-9.667a14.651,14.651,0,0,1,5.334-8.5A14.853,14.853,0,0,1,99.456,16.5a19.422,19.422,0,0,1,8.562,2.958c12.589,8.067,25.441,15.418,37.771,23.875,11.439,7.846,9.575,5.62,25.334,16.167,10.138,6.785,14.23,9.928,25,17.5,11.042,7.763,13.2,9,34.166,23.166,32.123,21.705,28.624,19.861,45.5,31,36.429,24.045,32.983,19.6,41.333,26.5,4.835,3.993,10.668,7.273,22.334,13.834a27.788,27.788,0,0,0,11.5,3.833c2.219.2,6.978.62,11.666-1.833,3.221-1.685,3.237-3.069,6.667-4.834a20.91,20.91,0,0,1,9.333-2.166c8.4-.23,15.233,4.454,17.667,6.166,26.859,18.9,36.667,27.834,36.667,27.834q.16.146,41.166,35A158.773,158.773,0,0,0,505.456,257c9.054,4.652,15.269,6.623,22.333,6.667a40.157,40.157,0,0,0,19.833-5,43.163,43.163,0,0,0,6.334-4.5c8.586-6.768,16.459-12.983,25.166-19.167,13.989-9.935,28.376-18.735,51.167-32.167,21.759-12.823,24.032-14.134,39.25-23.833,21.068-13.428,31.75-20.834,31.75-20.834s4.254-3.261,10.667-7.666c8.254-5.67,11.679-7.426,14-8.5a46.189,46.189,0,0,1,10.666-3.834,38.945,38.945,0,0,1,21.167,2c7.676,2.793,12.173,7.029,21.167,15.5A132.186,132.186,0,0,1,794.622,173.5c7.164,9.409,8.791,13.591,9.667,16.666a32.33,32.33,0,0,1,1.167,12.5,25.714,25.714,0,0,1-3.5,10.834,27.483,27.483,0,0,1-8.334,8.333c-8.362,6.045-15.549,11.793-25.083,18.833-8.642,6.382-8.162,5.531-22.25,16.334-9.092,6.971-15.279,11.176-27.167,19.333-25.074,17.2-37.611,25.805-40.833,28.167-16.241,11.906-36.914,27.06-55.333,47.667-.064.072-5.644,6.032-16.167,18.5-11.226,13.3-16.35,19.815-18.5,22.666-6.132,8.131-7.236,9.607-11.333,13-6.48,5.366-13.1,7.226-19.667,9-11.5,3.1-20.771,2.894-28.333,2.667-8.4-.253-16.809-.507-27.334-4a95.029,95.029,0,0,1-23.833-12.333A122.628,122.628,0,0,1,467.622,394c-14.522-12.036-17.731-15.456-37.5-32.833-8.137-7.153-9.518-8.179-11.5-11.334-3.862-6.151-7.7-16.723-4.333-28.5.874-3.056,4.874-15.42,17.667-21.333.9-.416,12.238-5.451,24.333-1,3.527,1.3,5.727,2.89,9.5,5.667,14.768,10.868,22.152,16.3,24.167,18,17.326,14.6,30.873,26.9,33,28.833,14.827,13.485,15.734,14.786,28,25.667,6.013,5.334,11.62,10.055,22.833,19.5,14.474,12.19,18.418,15.2,24.667,18.5,11.082,5.844,18.823,6.989,21.833,7.333,4.845.552,10.676,1.218,17.333-1.167,1.686-.6,2.574-1.1,14-8.166,9.433-5.834,9.754-6.071,11.167-6.667a39.371,39.371,0,0,1,18.167-3c3.991.349,10.346.9,16.333,5.667,5.952,4.733,13.567,13.043,14.084,14.749.454,1.5.833,7.417-3.917,13.584-3.1,4.024-5.675,6.666-11.167,12.5-14.241,15.127-13.333,15.333-22.916,24.333-6.247,5.866-9.006,8.356-14.917,11.583a36.557,36.557,0,0,1-13.167,4.334,26.7,26.7,0,0,1-14.333-2.75c-4.535-2.034-25.292-11.206-30.667-13.667-24.75-11.333-29.465-13.146-43.167-19.333-8.322-3.759-14.77-7.125-24.5-11.833a30.461,30.461,0,0,0-11.666-4.167,15.549,15.549,0,0,0-8.334.833c-2.556,1.116-3.255,2.472-7,6.167a100,100,0,0,1-8,7c-5.32,4.32-10.415,9.665-13.434,10.684a24.385,24.385,0,0,1-12.9.688,36.994,36.994,0,0,1-10.771-4.188c-18.525-10.006-23.833-14-23.833-14-17.322-13.036-25.983-19.554-36.333-29.667C380.819,396.925,324.328,345.61,245.521,274.346Z"/></g><g id="ccec9255-855c-4204-add2-812f23a64e8e" data-name="Track-Mid"><path class="79db9a48-6918-4c2e-8d99-9dde741dcfbf" d="M245.521,274.346c-16.487-14.773-36.07-32.335-51.666-46.334-16.306-14.635-33.342-30.543-43.342-39.043-4.9-4.168-12.38-5.818-17.5-.7-2.5,2.5-11.565,11.377-14.1,13.849a11.794,11.794,0,0,1-16.282.18C85.761,186.56,55.169,161.906,38.3,146.166a12.347,12.347,0,0,1-.533-17.509c3.149-3.34,32.5-32.736,37.191-36,5-3.476,21.167-13.166,43.165-1.147,9.749,5.328,29.824,20.761,37.5,26.814,22.062,17.4,54.583,45,62.333,51.5.389.327,2.125,1.75,3.833,3.167a9.742,9.742,0,0,0,9.667,0,9.574,9.574,0,0,0,4.666-7.167c.406-4.032-2.026-7.247-4.333-9.5a53.674,53.674,0,0,0-5.5-4.667C205.039,134,179.623,113.273,155.956,94.5c-36.587-29.03-52.365-41.277-58.229-45.438-3.036-2.153-5.122-4.108-9.438-7.729a13.445,13.445,0,0,1-3.666-4c-2.2-4.028-1.154-8.342-.834-9.667a14.651,14.651,0,0,1,5.334-8.5A14.853,14.853,0,0,1,99.456,16.5a19.422,19.422,0,0,1,8.562,2.958c12.589,8.067,25.441,15.418,37.771,23.875,11.439,7.846,9.575,5.62,25.334,16.167,10.138,6.785,14.23,9.928,25,17.5,11.042,7.763,13.2,9,34.166,23.166,32.123,21.705,28.624,19.861,45.5,31,36.429,24.045,32.983,19.6,41.333,26.5,4.835,3.993,10.668,7.273,22.334,13.834a27.788,27.788,0,0,0,11.5,3.833c2.219.2,6.978.62,11.666-1.833,3.221-1.685,3.237-3.069,6.667-4.834a20.91,20.91,0,0,1,9.333-2.166c8.4-.23,15.233,4.454,17.667,6.166,26.859,18.9,36.667,27.834,36.667,27.834q.16.146,41.166,35A158.773,158.773,0,0,0,505.456,257c9.054,4.652,15.269,6.623,22.333,6.667a40.157,40.157,0,0,0,19.833-5,43.163,43.163,0,0,0,6.334-4.5c8.586-6.768,16.459-12.983,25.166-19.167,13.989-9.935,28.376-18.735,51.167-32.167,21.759-12.823,24.032-14.134,39.25-23.833,21.068-13.428,31.75-20.834,31.75-20.834s4.254-3.261,10.667-7.666c8.254-5.67,11.679-7.426,14-8.5a46.189,46.189,0,0,1,10.666-3.834,38.945,38.945,0,0,1,21.167,2c7.676,2.793,12.173,7.029,21.167,15.5A132.186,132.186,0,0,1,794.622,173.5c7.164,9.409,8.791,13.591,9.667,16.666a32.33,32.33,0,0,1,1.167,12.5,25.714,25.714,0,0,1-3.5,10.834,27.483,27.483,0,0,1-8.334,8.333c-8.362,6.045-15.549,11.793-25.083,18.833-8.642,6.382-8.162,5.531-22.25,16.334-9.092,6.971-15.279,11.176-27.167,19.333-25.074,17.2-37.611,25.805-40.833,28.167-16.241,11.906-36.914,27.06-55.333,47.667-.064.072-5.644,6.032-16.167,18.5-11.226,13.3-16.35,19.815-18.5,22.666-6.132,8.131-7.236,9.607-11.333,13-6.48,5.366-13.1,7.226-19.667,9-11.5,3.1-20.771,2.894-28.333,2.667-8.4-.253-16.809-.507-27.334-4a95.029,95.029,0,0,1-23.833-12.333A122.628,122.628,0,0,1,467.622,394c-14.522-12.036-17.731-15.456-37.5-32.833-8.137-7.153-9.518-8.179-11.5-11.334-3.862-6.151-7.7-16.723-4.333-28.5.874-3.056,4.874-15.42,17.667-21.333.9-.416,12.238-5.451,24.333-1,3.527,1.3,5.727,2.89,9.5,5.667,14.768,10.868,22.152,16.3,24.167,18,17.326,14.6,30.873,26.9,33,28.833,14.827,13.485,15.734,14.786,28,25.667,6.013,5.334,11.62,10.055,22.833,19.5,14.474,12.19,18.418,15.2,24.667,18.5,11.082,5.844,18.823,6.989,21.833,7.333,4.845.552,10.676,1.218,17.333-1.167,1.686-.6,2.574-1.1,14-8.166,9.433-5.834,9.754-6.071,11.167-6.667a39.371,39.371,0,0,1,18.167-3c3.991.349,10.346.9,16.333,5.667,5.952,4.733,13.567,13.043,14.084,14.749.454,1.5.833,7.417-3.917,13.584-3.1,4.024-5.675,6.666-11.167,12.5-14.241,15.127-13.333,15.333-22.916,24.333-6.247,5.866-9.006,8.356-14.917,11.583a36.557,36.557,0,0,1-13.167,4.334,26.7,26.7,0,0,1-14.333-2.75c-4.535-2.034-25.292-11.206-30.667-13.667-24.75-11.333-29.465-13.146-43.167-19.333-8.322-3.759-14.77-7.125-24.5-11.833a30.461,30.461,0,0,0-11.666-4.167,15.549,15.549,0,0,0-8.334.833c-2.556,1.116-3.672,2.306-7.416,6-2.885,2.847-4.313,4.271-7.584,7.167-5.131,4.543-10.415,9.665-13.434,10.684a24.385,24.385,0,0,1-12.9.688,36.994,36.994,0,0,1-10.771-4.188c-18.525-10.006-23.833-14-23.833-14-17.322-13.036-25.983-19.554-36.333-29.667C380.819,396.925,324.328,345.61,245.521,274.346Z"/></g><g id="44b57237-a0d1-41ca-881c-2146b52ac7ee" data-name="Track-Inner"><path class="c6b15e1c-72d8-4170-b4d1-71fbed3ec1d2" d="M245.521,274.346c-16.487-14.773-36.07-32.335-51.666-46.334-16.306-14.635-33.342-30.543-43.342-39.043-4.9-4.168-12.38-5.818-17.5-.7-2.5,2.5-11.565,11.377-14.1,13.849a11.794,11.794,0,0,1-16.282.18C85.761,186.56,55.169,161.906,38.3,146.166a12.347,12.347,0,0,1-.533-17.509c3.149-3.34,32.5-32.736,37.191-36,5-3.476,21.167-13.166,43.165-1.147,9.749,5.328,29.824,20.761,37.5,26.814,22.062,17.4,54.583,45,62.333,51.5.389.327,2.125,1.75,3.833,3.167a9.742,9.742,0,0,0,9.667,0,9.574,9.574,0,0,0,4.666-7.167c.406-4.032-2.026-7.247-4.333-9.5a53.674,53.674,0,0,0-5.5-4.667C205.039,134,179.623,113.273,155.956,94.5c-36.587-29.03-52.365-41.277-58.229-45.438-3.036-2.153-5.122-4.108-9.438-7.729a13.445,13.445,0,0,1-3.666-4c-2.2-4.028-1.154-8.342-.834-9.667a14.651,14.651,0,0,1,5.334-8.5A14.853,14.853,0,0,1,99.456,16.5a19.422,19.422,0,0,1,8.562,2.958c12.589,8.067,25.441,15.418,37.771,23.875,11.439,7.846,9.575,5.62,25.334,16.167,10.138,6.785,14.23,9.928,25,17.5,11.042,7.763,13.2,9,34.166,23.166,32.123,21.705,28.624,19.861,45.5,31,36.429,24.045,32.983,19.6,41.333,26.5,4.835,3.993,10.668,7.273,22.334,13.834a27.788,27.788,0,0,0,11.5,3.833c2.219.2,6.978.62,11.666-1.833,3.221-1.685,3.237-3.069,6.667-4.834a20.91,20.91,0,0,1,9.333-2.166c8.4-.23,15.233,4.454,17.667,6.166,26.859,18.9,36.667,27.834,36.667,27.834q.16.146,41.166,35A158.773,158.773,0,0,0,505.456,257c9.054,4.652,15.269,6.623,22.333,6.667a40.157,40.157,0,0,0,19.833-5,43.163,43.163,0,0,0,6.334-4.5c8.586-6.768,16.459-12.983,25.166-19.167,13.989-9.935,28.376-18.735,51.167-32.167,21.759-12.823,24.032-14.134,39.25-23.833,21.068-13.428,31.75-20.834,31.75-20.834s4.254-3.261,10.667-7.666c8.254-5.67,11.679-7.426,14-8.5a46.189,46.189,0,0,1,10.666-3.834,38.945,38.945,0,0,1,21.167,2c7.676,2.793,12.173,7.029,21.167,15.5A132.186,132.186,0,0,1,794.622,173.5c7.164,9.409,8.791,13.591,9.667,16.666a32.33,32.33,0,0,1,1.167,12.5,25.714,25.714,0,0,1-3.5,10.834,27.483,27.483,0,0,1-8.334,8.333c-8.362,6.045-15.549,11.793-25.083,18.833-8.642,6.382-8.162,5.531-22.25,16.334-9.092,6.971-15.279,11.176-27.167,19.333-25.074,17.2-37.611,25.805-40.833,28.167-16.241,11.906-36.914,27.06-55.333,47.667-.064.072-5.644,6.032-16.167,18.5-11.226,13.3-16.35,19.815-18.5,22.666-6.132,8.131-7.236,9.607-11.333,13-6.48,5.366-13.1,7.226-19.667,9-11.5,3.1-20.771,2.894-28.333,2.667-8.4-.253-16.809-.507-27.334-4a95.029,95.029,0,0,1-23.833-12.333A122.628,122.628,0,0,1,467.622,394c-14.522-12.036-17.731-15.456-37.5-32.833-8.137-7.153-9.518-8.179-11.5-11.334-3.862-6.151-7.7-16.723-4.333-28.5.874-3.056,4.874-15.42,17.667-21.333.9-.416,12.238-5.451,24.333-1,3.527,1.3,5.727,2.89,9.5,5.667,14.768,10.868,22.152,16.3,24.167,18,17.326,14.6,30.873,26.9,33,28.833,14.827,13.485,15.734,14.786,28,25.667,6.013,5.334,11.62,10.055,22.833,19.5,14.474,12.19,18.418,15.2,24.667,18.5,11.082,5.844,18.823,6.989,21.833,7.333,4.845.552,10.676,1.218,17.333-1.167,1.686-.6,2.574-1.1,14-8.166,9.433-5.834,9.754-6.071,11.167-6.667a39.371,39.371,0,0,1,18.167-3c3.991.349,10.346.9,16.333,5.667,5.952,4.733,13.567,13.043,14.084,14.749.454,1.5.833,7.417-3.917,13.584-3.1,4.024-5.675,6.666-11.167,12.5-14.241,15.127-13.333,15.333-22.916,24.333-6.247,5.866-9.006,8.356-14.917,11.583a36.557,36.557,0,0,1-13.167,4.334,26.7,26.7,0,0,1-14.333-2.75c-4.535-2.034-25.292-11.206-30.667-13.667-24.75-11.333-29.465-13.146-43.167-19.333-8.322-3.759-14.77-7.125-24.5-11.833a30.461,30.461,0,0,0-11.666-4.167,15.549,15.549,0,0,0-8.334.833c-2.556,1.116-3.672,2.139-7.416,5.833-2.885,2.847-4.6,4.654-7.584,7.334-5.1,4.578-10.415,9.665-13.434,10.684a24.385,24.385,0,0,1-12.9.688,36.994,36.994,0,0,1-10.771-4.188c-18.525-10.006-23.833-14-23.833-14-17.322-13.036-25.983-19.554-36.333-29.667C380.819,396.925,324.328,345.61,245.521,274.346Z"/></g><g id="38fc70a0-8356-44ab-82cf-74fc98570829" data-name="Crossover-Outer"><path class="b7363092-91e9-4ae9-b32b-a8bb06365a7a" d="M559.663,414.677a46.234,46.234,0,0,0,16.626-7.765c5.167-3.959,7.188-7.417,15.317-17.847,4.569-5.861,8.394-10.36,10.764-13.143"/></g><g id="1a8f67bb-44c4-4811-81d4-d3bdb2f144f5" data-name="Crossover-Mid"><path class="79db9a48-6918-4c2e-8d99-9dde741dcfbf" d="M559.663,414.677a46.234,46.234,0,0,0,16.626-7.765c5.167-3.959,7.188-7.417,15.317-17.847,4.569-5.861,8.394-10.36,10.764-13.143"/></g><g id="1eb22b68-0253-469a-809c-7a83cccb0266" data-name="Crossover-Inner"><path class="c6b15e1c-72d8-4170-b4d1-71fbed3ec1d2" d="M559.663,414.677a46.234,46.234,0,0,0,16.626-7.765c5.167-3.959,7.188-7.417,15.317-17.847,4.569-5.861,8.394-10.36,10.764-13.143"/></g><g id="6becf458-1015-40b1-899d-06a96c5e561f" data-name="Corner Numbers"><g id="a470a5a6-f2f6-453c-8692-24aadf1c9eb5" data-name="1"><path class="1a04ec89-d628-4cba-8c98-87feca905619" d="M134.4,169.082a10.417,10.417,0,1,1,14.725-.438h0c-5.195,5.512-6.144,8.2-7.152,8.234S139.892,174.258,134.4,169.082Z"/><path class="437ac22b-9850-4835-a270-f73eda03a57f" d="M141.207,157.152h-.036l-2.065,1.16-.335-1.229,2.6-1.448,1.383-.023.2,11.989-1.568.027Z"/></g><g id="72a978c6-d6e9-4f98-b07f-498aaf27210b" data-name="2"><path class="1a04ec89-d628-4cba-8c98-87feca905619" d="M120.433,221.181a10.812,10.812,0,1,1-15.265.862h0c5.236-5.863,6.146-8.681,7.191-8.741S114.592,215.963,120.433,221.181Z"/><path class="437ac22b-9850-4835-a270-f73eda03a57f" d="M109.016,234.357v-1.034l1.321-1.283c3.179-3.026,4.616-4.633,4.635-6.51a2.221,2.221,0,0,0-2.47-2.433,4.239,4.239,0,0,0-2.643,1.053l-.536-1.187a5.462,5.462,0,0,1,3.524-1.264,3.5,3.5,0,0,1,3.81,3.62c0,2.3-1.666,4.156-4.29,6.683l-1,.919v.039h5.592v1.4Z"/></g><g id="89896847-d717-41e7-9804-c2b3375c0e53" data-name="3"><path class="1a04ec89-d628-4cba-8c98-87feca905619" d="M18.944,147.745a10.512,10.512,0,1,1-.5-14.858h0c5.586,5.218,8.305,6.164,8.34,7.182S24.144,142.181,18.944,147.745Z"/><path class="437ac22b-9850-4835-a270-f73eda03a57f" d="M7.893,144.882a5.46,5.46,0,0,0,2.68.764c2.1,0,2.756-1.339,2.738-2.345-.019-1.693-1.545-2.42-3.127-2.421H9.272v-1.228h.912c1.192,0,2.7-.613,2.7-2.047,0-.968-.613-1.824-2.121-1.825a4.45,4.45,0,0,0-2.421.8l-.428-1.193a5.76,5.76,0,0,1,3.165-.929c2.383,0,3.462,1.416,3.462,2.886a3,3,0,0,1-2.235,2.848v.037a3.152,3.152,0,0,1,2.7,3.109c0,1.937-1.51,3.63-4.414,3.629a6.15,6.15,0,0,1-3.146-.82Z"/></g><g id="3c067a78-f21d-478d-b334-68bec7610b28" data-name="4"><path class="1a04ec89-d628-4cba-8c98-87feca905619" d="M105.559,102.456a10.195,10.195,0,1,1-14.283-1.967h0c5.908-4.478,7.26-6.921,8.238-6.787S101.1,96.569,105.559,102.456Z"/><path class="437ac22b-9850-4835-a270-f73eda03a57f" d="M97.949,112.985l0-3.195-5.451,0v-1.047l5.239-7.487h1.716l-.006,7.293h1.643v1.246H99.45l0,3.2Zm0-4.44,0-3.917q0-.922.055-1.842h-.054c-.362.686-.651,1.19-.976,1.732l-2.873,3.987v.037Z"/></g><g id="b2bcf6a4-a7aa-41e2-a6f7-c3d4e29b400b" data-name="5"><path class="1a04ec89-d628-4cba-8c98-87feca905619" d="M250.647,176.922a10.195,10.195,0,1,1-9.215,11.089h0c-.681-7.382-2.041-9.821-1.41-10.58S243.293,177.6,250.647,176.922Z"/><path class="437ac22b-9850-4835-a270-f73eda03a57f" d="M254.505,182.128l-4.477,0-.453,3.015a6.158,6.158,0,0,1,.956-.072,4.958,4.958,0,0,1,2.527.633,3.347,3.347,0,0,1,1.677,3.017,4.071,4.071,0,0,1-4.371,4A5.751,5.751,0,0,1,247.44,192l.4-1.21a5.258,5.258,0,0,0,2.509.653,2.591,2.591,0,0,0,2.782-2.544c-.018-1.517-1.028-2.6-3.374-2.6a12.2,12.2,0,0,0-1.625.125l.762-5.631,5.614,0Z"/></g><g id="3d02eb1b-c9a7-4189-aa59-61ebc0842f8b" data-name="6"><path class="1a04ec89-d628-4cba-8c98-87feca905619" d="M68.46,21.352A10.52,10.52,0,1,1,75.522,8.257h0c2.193,7.329,4.066,9.519,3.583,10.416S75.762,19.169,68.46,21.352Z"/><path class="437ac22b-9850-4835-a270-f73eda03a57f" d="M68.491,6.567a5.945,5.945,0,0,0-1.23.076,4.923,4.923,0,0,0-4.2,4.309h.056a3.692,3.692,0,0,1,6.58,2.508,4.05,4.05,0,0,1-4.019,4.271c-2.589,0-4.288-2.007-4.292-5.155a7.613,7.613,0,0,1,2.043-5.462A6.594,6.594,0,0,1,67.3,5.321a8.007,8.007,0,0,1,1.192-.1Zm-.457,6.987a2.461,2.461,0,0,0-2.5-2.772,2.7,2.7,0,0,0-2.346,1.493A1.407,1.407,0,0,0,63,13c.04,1.993.954,3.464,2.668,3.462C67.087,16.463,68.036,15.288,68.034,13.554Z"/></g><g id="bc642cc7-ada3-482c-a957-92d9c3f55dc7" data-name="7"><path class="1a04ec89-d628-4cba-8c98-87feca905619" d="M365.043,190.089a10.468,10.468,0,1,1-14.71,1.671h0c4.74-5.955,5.465-8.73,6.472-8.845S359.11,185.365,365.043,190.089Z"/><path class="437ac22b-9850-4835-a270-f73eda03a57f" d="M362.439,192.014v1.075l-5.253,10.973H355.5l5.234-10.658v-.037l-5.9,0v-1.354Z"/></g><g id="55855271-f175-471c-9f4a-e6509ddb90b2" data-name="8"><path class="1a04ec89-d628-4cba-8c98-87feca905619" d="M373.273,150.33a10.468,10.468,0,1,1,14.8.016h0c-5.388,5.376-6.425,8.05-7.438,8.049S378.628,155.7,373.273,150.33Z"/><path class="437ac22b-9850-4835-a270-f73eda03a57f" d="M376.7,146.345a3.444,3.444,0,0,1,2.389-3.228l-.018-.055a2.987,2.987,0,0,1-1.913-2.705c0-1.91,1.612-3.209,3.725-3.211,2.336,0,3.5,1.462,3.506,2.963a3.062,3.062,0,0,1-1.981,2.82v.055a3.343,3.343,0,0,1,2.431,3.113c0,2.095-1.795,3.506-4.094,3.508C378.22,149.607,376.7,148.107,376.7,146.345Zm6.49-.08c0-1.464-1.022-2.168-2.655-2.63a2.618,2.618,0,0,0-2.166,2.486,2.228,2.228,0,0,0,2.413,2.3A2.181,2.181,0,0,0,383.186,146.265Zm-4.492-6.021c0,1.205.91,1.853,2.3,2.223a2.374,2.374,0,0,0,1.833-2.19,1.872,1.872,0,0,0-2.04-1.963A1.917,1.917,0,0,0,378.694,140.244Z"/></g><g id="51e0f1c6-f83e-4269-b291-b20d8cb513da" data-name="9"><path class="1a04ec89-d628-4cba-8c98-87feca905619" d="M539.059,279.37a10.468,10.468,0,1,1-14.787.719h0c5.115-5.637,6.017-8.359,7.029-8.409S533.444,274.273,539.059,279.37Z"/><path class="437ac22b-9850-4835-a270-f73eda03a57f" d="M529.09,291.05a6.814,6.814,0,0,0,1.315-.053,4.552,4.552,0,0,0,2.524-1.165,5.293,5.293,0,0,0,1.6-3.206h-.056a3.542,3.542,0,0,1-2.839,1.3,3.492,3.492,0,0,1-3.556-3.694,4.133,4.133,0,0,1,4.121-4.278c2.466,0,3.985,2.007,3.981,5.085a7.614,7.614,0,0,1-2.083,5.651,6.036,6.036,0,0,1-3.506,1.61,7.657,7.657,0,0,1-1.5.09Zm.6-6.932a2.318,2.318,0,0,0,2.314,2.56,2.7,2.7,0,0,0,2.374-1.257,1.085,1.085,0,0,0,.149-.593c0-2.059-.755-3.635-2.461-3.637C530.677,281.189,529.694,282.412,529.692,284.118Z"/></g><g id="9f1c16fe-a537-48b0-9138-e815a40fc00f" data-name="10"><path class="1a04ec89-d628-4cba-8c98-87feca905619" d="M742.872,120.565a10.468,10.468,0,1,1,14.7,1.759h0c-5.984,4.7-7.328,7.237-8.334,7.117S747.558,126.527,742.872,120.565Z"/><path class="437ac22b-9850-4835-a270-f73eda03a57f" d="M745.782,109.957h-.037l-2.093,1.132-.317-1.242,2.632-1.41,1.391,0,.008,12.051H745.79Z"/><path class="437ac22b-9850-4835-a270-f73eda03a57f" d="M759.763,114.321c0,4.1-1.516,6.361-4.186,6.363-2.354,0-3.95-2.2-3.991-6.189,0-4.042,1.739-6.268,4.187-6.27C758.313,108.223,759.76,110.484,759.763,114.321Zm-6.545.191c0,3.133.968,4.912,2.451,4.911,1.669,0,2.465-1.949,2.462-5.026,0-2.967-.763-4.913-2.45-4.911C754.253,109.487,753.216,111.23,753.218,114.512Z"/></g><g id="fb4968bb-b778-4c48-ad55-60052eec0249" data-name="11"><path class="1a04ec89-d628-4cba-8c98-87feca905619" d="M822.094,193.4a10.468,10.468,0,1,1-.108,14.8h0c-5.343-5.422-8.01-6.475-8-7.488S816.692,198.723,822.094,193.4Z"/><path class="437ac22b-9850-4835-a270-f73eda03a57f" d="M824.565,196.548h-.037l-2.1,1.128-.315-1.242,2.634-1.406h1.391l-.012,12.051-1.576,0Z"/><path class="437ac22b-9850-4835-a270-f73eda03a57f" d="M834.073,196.557h-.037l-2.095,1.129-.315-1.243,2.634-1.406,1.391,0-.012,12.05h-1.576Z"/></g><g id="96653e11-2dc4-402f-9dc9-751d4f972a61" data-name="12"><path class="1a04ec89-d628-4cba-8c98-87feca905619" d="M521.839,401.735a10.468,10.468,0,1,1,14.789.658h0c-5.616,5.137-6.767,7.764-7.78,7.719S526.957,407.331,521.839,401.735Z"/><path class="437ac22b-9850-4835-a270-f73eda03a57f" d="M523.473,390.1h-.037l-2.1,1.131-.315-1.242,2.632-1.408h1.391l0,12.05h-1.576Z"/><path class="437ac22b-9850-4835-a270-f73eda03a57f" d="M529.439,400.632v-1l1.28-1.242c3.078-2.928,4.468-4.485,4.486-6.3a2.148,2.148,0,0,0-2.39-2.355,4.1,4.1,0,0,0-2.558,1.02l-.52-1.15a5.285,5.285,0,0,1,3.412-1.223,3.389,3.389,0,0,1,3.688,3.5c0,2.225-1.613,4.023-4.152,6.47l-.966.89v.037h5.414v1.353Z"/></g><g id="d7fbef73-8cb0-4ed3-9165-f60da5ff8afd" data-name="13"><path class="1a04ec89-d628-4cba-8c98-87feca905619" d="M406.376,300.117A10.468,10.468,0,1,1,417.089,289.9h0c-.18,7.61.918,10.259.185,10.958S413.957,300.3,406.376,300.117Z"/><path class="437ac22b-9850-4835-a270-f73eda03a57f" d="M401.224,285.518h-.037l-2.1,1.13-.314-1.242L401.409,284H402.8l0,12.05h-1.576Z"/><path class="437ac22b-9850-4835-a270-f73eda03a57f" d="M407.577,294.179a5.447,5.447,0,0,0,2.669.761c2.1,0,2.744-1.333,2.726-2.334-.018-1.687-1.536-2.411-3.112-2.412h-.909V288.97h.909c1.186,0,2.688-.61,2.689-2.038,0-.964-.611-1.817-2.112-1.817a4.41,4.41,0,0,0-2.41.8l-.427-1.187a5.712,5.712,0,0,1,3.151-.926c2.373,0,3.448,1.411,3.447,2.875a2.991,2.991,0,0,1-2.225,2.836v.037a3.138,3.138,0,0,1,2.686,3.1c0,1.929-1.5,3.615-4.394,3.613a6.122,6.122,0,0,1-3.134-.817Z"/></g><g id="956f98a8-370f-4d74-b627-b7a0c16a307e" data-name="14"><path class="1a04ec89-d628-4cba-8c98-87feca905619" d="M635.381,439.13a10.468,10.468,0,1,1-14.8-.351h0c5.508-5.253,6.605-7.9,7.618-7.879S630.149,433.641,635.381,439.13Z"/><path class="437ac22b-9850-4835-a270-f73eda03a57f" d="M622.084,441.411h-.037l-2.1,1.13-.314-1.243,2.633-1.408h1.39l0,12.05h-1.576Z"/><path class="437ac22b-9850-4835-a270-f73eda03a57f" d="M633.09,451.946v-3.281l-5.6,0v-1.075l5.379-7.692h1.762l0,7.489h1.687v1.28H634.63v3.281Zm0-4.561,0-4.023q0-.947.057-1.891H633.1c-.372.7-.668,1.223-1,1.78l-2.95,4.1v.037Z"/></g><g id="ca55877f-3010-42b9-b864-252af72e0502" data-name="15"><path class="1a04ec89-d628-4cba-8c98-87feca905619" d="M674.974,387.734a10.468,10.468,0,1,1,14.8.351h0c-5.508,5.253-6.605,7.9-7.618,7.879S680.207,393.223,674.974,387.734Z"/><path class="437ac22b-9850-4835-a270-f73eda03a57f" d="M677.16,376.994h-.037l-2.1,1.13-.315-1.243,2.633-1.408h1.39l0,12.051h-1.577Z"/><path class="437ac22b-9850-4835-a270-f73eda03a57f" d="M690.321,376.851l-4.6,0-.465,3.1a6.588,6.588,0,0,1,.982-.073,5.1,5.1,0,0,1,2.6.649,3.437,3.437,0,0,1,1.724,3.1,4.181,4.181,0,0,1-4.489,4.113,5.906,5.906,0,0,1-3-.743l.409-1.241a5.388,5.388,0,0,0,2.576.668,2.659,2.659,0,0,0,2.856-2.613c-.018-1.557-1.055-2.67-3.465-2.672a12.737,12.737,0,0,0-1.668.129l.78-5.783,5.765,0Z"/></g><g id="6103fc1c-ff5f-48f9-a1dd-7758c1f82e09" data-name="16"><path class="1a04ec89-d628-4cba-8c98-87feca905619" d="M727.7,420.931a10.468,10.468,0,1,1-.351,14.8h0c-5.253-5.508-7.9-6.605-7.879-7.618S722.209,426.164,727.7,420.931Z"/><path class="437ac22b-9850-4835-a270-f73eda03a57f" d="M728.887,424.067h-.037l-2.1,1.13-.314-1.242,2.632-1.409h1.391l0,12.05h-1.576Z"/><path class="437ac22b-9850-4835-a270-f73eda03a57f" d="M741.734,423.7a5.862,5.862,0,0,0-1.224.073,4.9,4.9,0,0,0-4.192,4.281h.055a3.673,3.673,0,0,1,6.543,2.506,4.029,4.029,0,0,1-4.006,4.243c-2.577,0-4.263-2-4.262-5.136a7.574,7.574,0,0,1,2.043-5.432,6.547,6.547,0,0,1,3.855-1.778,7.852,7.852,0,0,1,1.188-.092Zm-.467,6.952a2.45,2.45,0,0,0-2.484-2.764,2.686,2.686,0,0,0-2.337,1.483,1.382,1.382,0,0,0-.185.722c.036,1.984.943,3.449,2.649,3.45C740.319,433.546,741.266,432.378,741.267,430.654Z"/></g><g id="f1d97355-48a1-4d56-bcf2-b02affc02975" data-name="17"><path class="1a04ec89-d628-4cba-8c98-87feca905619" d="M659.827,504.61a10.468,10.468,0,1,1-14.578,2.578h0c4.363-6.237,4.915-9.051,5.913-9.228S653.614,500.262,659.827,504.61Z"/><path class="437ac22b-9850-4835-a270-f73eda03a57f" d="M648.324,509.832h-.037l-2.093,1.132-.318-1.241,2.632-1.412H649.9l.01,12.051h-1.576Z"/><path class="437ac22b-9850-4835-a270-f73eda03a57f" d="M662.114,508.3v1.076l-5.237,10.98h-1.686l5.217-10.664v-.037l-5.895.005v-1.354Z"/></g><g id="10f8fd10-c172-428a-9d40-dc107f829028" data-name="18"><path class="1a04ec89-d628-4cba-8c98-87feca905619" d="M526.848,452.989a10.468,10.468,0,1,1-14.606,2.416h0c4.432-6.188,5.015-9,6.015-9.161S520.683,448.573,526.848,452.989Z"/><path class="437ac22b-9850-4835-a270-f73eda03a57f" d="M514.986,457.27h-.038l-2.092,1.135-.319-1.242,2.631-1.413,1.391,0,.02,12.049-1.576,0Z"/><path class="437ac22b-9850-4835-a270-f73eda03a57f" d="M520.818,464.732a3.442,3.442,0,0,1,2.385-3.23l-.018-.056a2.986,2.986,0,0,1-1.914-2.7c0-1.91,1.608-3.21,3.721-3.214,2.336,0,3.506,1.459,3.509,2.96a3.063,3.063,0,0,1-1.978,2.822v.055a3.34,3.34,0,0,1,2.433,3.111c0,2.1-1.793,3.507-4.092,3.511C522.343,467.992,520.82,466.493,520.818,464.732Zm6.489-.086c0-1.464-1.024-2.167-2.656-2.628a2.618,2.618,0,0,0-2.165,2.488,2.228,2.228,0,0,0,2.414,2.3A2.182,2.182,0,0,0,527.307,464.646Zm-4.5-6.017c0,1.2.911,1.852,2.3,2.22a2.373,2.373,0,0,0,1.832-2.19A1.873,1.873,0,0,0,524.9,456.7,1.917,1.917,0,0,0,522.81,458.629Z"/></g><g id="ea100b58-515e-4c26-9241-22ba6b3d15f0" data-name="19"><path class="1a04ec89-d628-4cba-8c98-87feca905619" d="M469.89,449.416a10.468,10.468,0,1,1,14.6-2.471h0c-4.408,6.2-4.981,9.015-5.98,9.184S476.071,453.809,469.89,449.416Z"/><path class="437ac22b-9850-4835-a270-f73eda03a57f" d="M470.46,436.942h-.037l-2.094,1.132-.316-1.242,2.633-1.411h1.39l0,12.051h-1.576Z"/><path class="437ac22b-9850-4835-a270-f73eda03a57f" d="M477.376,446.322a6.793,6.793,0,0,0,1.316-.057,4.541,4.541,0,0,0,2.521-1.168,5.288,5.288,0,0,0,1.595-3.208h-.056a3.537,3.537,0,0,1-2.837,1.3,3.49,3.49,0,0,1-3.56-3.688,4.132,4.132,0,0,1,4.115-4.285c2.466,0,3.986,2,3.987,5.08a7.61,7.61,0,0,1-2.076,5.655,6.019,6.019,0,0,1-3.5,1.613,7.708,7.708,0,0,1-1.5.094Zm.592-6.935a2.319,2.319,0,0,0,2.318,2.559,2.7,2.7,0,0,0,2.372-1.262,1.074,1.074,0,0,0,.149-.593c0-2.058-.761-3.633-2.467-3.633C478.949,436.459,477.968,437.682,477.968,439.387Z"/></g></g><g id="77459df2-a6dd-4c28-810a-93bc0e3e4836" data-name="Start-Finish Line"><use width="200" height="103.617" transform="matrix(-0.124, 0.133, -0.133, -0.124, 275.419, 277.394)" xlink:href="#bca6213c-2962-4ce6-b358-4b214f939279"/></g></g></g></g></svg>