<svg xmlns="http://www.w3.org/2000/svg" xmlns:xlink="http://www.w3.org/1999/xlink" width="818.356" height="492.577" viewBox="0 0 818.356 492.577"><defs><style>.f2ca6af6-8bbb-44a9-a2b2-ff46445c6f3c{fill:#00ff24;}.\39 3b28d53-638c-4b41-a947-c195d3bb3238,.f2ca6af6-8bbb-44a9-a2b2-ff46445c6f3c{stroke:#000;stroke-width:5px;}.\38 ca7e518-4376-4c3f-a4ef-77fb9877288a,.\39 3b28d53-638c-4b41-a947-c195d3bb3238,.ac2ab7e9-ef09-41c9-af2c-11c6c8983c31,.e59be35c-a3c1-4f3d-8693-b65e01883e94,.ee82744a-7667-4d8d-9e5d-3eb63e45adb3,.f0b03e0a-7e85-4a5b-a0d9-2babe30618e1,.f2ca6af6-8bbb-44a9-a2b2-ff46445c6f3c{stroke-miterlimit:10;}.\39 3b28d53-638c-4b41-a947-c195d3bb3238{fill:#fff;}.\38 ca7e518-4376-4c3f-a4ef-77fb9877288a,.ac2ab7e9-ef09-41c9-af2c-11c6c8983c31,.e59be35c-a3c1-4f3d-8693-b65e01883e94,.ee82744a-7667-4d8d-9e5d-3eb63e45adb3,.f0b03e0a-7e85-4a5b-a0d9-2babe30618e1{fill:none;}.ac2ab7e9-ef09-41c9-af2c-11c6c8983c31,.e59be35c-a3c1-4f3d-8693-b65e01883e94{stroke:#c91c1c;}.ac2ab7e9-ef09-41c9-af2c-11c6c8983c31,.f0b03e0a-7e85-4a5b-a0d9-2babe30618e1{stroke-width:20px;}.ee82744a-7667-4d8d-9e5d-3eb63e45adb3,.f0b03e0a-7e85-4a5b-a0d9-2babe30618e1{stroke:#0080ff;}.\38 ca7e518-4376-4c3f-a4ef-77fb9877288a{stroke:#fff;stroke-width:12px;}.e59be35c-a3c1-4f3d-8693-b65e01883e94,.ee82744a-7667-4d8d-9e5d-3eb63e45adb3{stroke-width:2px;}</style><symbol id="f2f3fc9a-d47c-4eb3-98da-da0c643b85ff" data-name="fd103434-89f2-4089-acf9-54fed79ed404" viewBox="0 0 200 103.617"><rect class="f2ca6af6-8bbb-44a9-a2b2-ff46445c6f3c" x="2.5" y="54.074" width="195" height="47.043"/><rect class="93b28d53-638c-4b41-a947-c195d3bb3238" x="2.5" y="2.5" width="48.75" height="48.75"/><rect class="93b28d53-638c-4b41-a947-c195d3bb3238" x="51.25" y="2.5" width="48.75" height="48.75"/><rect class="93b28d53-638c-4b41-a947-c195d3bb3238" x="100" y="2.5" width="48.75" height="48.75"/><rect class="93b28d53-638c-4b41-a947-c195d3bb3238" x="148.75" y="2.5" width="48.75" height="48.75"/></symbol></defs><title>Sex_on_the_Beach</title><g id="07d041ea-1bc2-4cd0-aa0e-0cd99e4246ff" data-name="Layer 2"><g id="e3295ed8-e496-40b3-8f48-b5595ec9bb07" data-name="City - Del Perro"><g id="657181e4-8f94-4f1e-9298-efad28eec3f1" data-name="Sex_on_the_Beach"><path id="d17d4b48-dd78-4ae6-90bc-7afe0658561c" data-name="Pitlane Outer" class="ac2ab7e9-ef09-41c9-af2c-11c6c8983c31" d="M455.575,212.812c15.111,11.111,24.667,10.739,38.89,19.85s34.444,18.889,57.333,3.778S594.242,205.551,611.576,196s28.444-14.889,38.222-21.111,18.889-15.778,30-19.556,15.054-1.814,25.054-9.147"/><path id="67ee48dc-b9e1-47a3-ad6c-679b62bad298" data-name="Track Outer" class="f0b03e0a-7e85-4a5b-a0d9-2babe30618e1" d="M224.632,255.77c-12.989-11.077-77.621-65.631-98.654-84.8-13.778-12.555-30-12.679-43.621-1.093-9.41,8.007-21.559,20.562-41.448,6.339-6.432-4.6-16.01-13.33-24.912-21.532-11.919-10.98-3.5-23.844,3.144-30.125C30.949,113.391,49.169,92.57,59.02,82.44s33.85-19.223,56-2.445,79.778,66.556,95.111,79,26.313-1.714,12.334-13.333c-13.167-10.945-67.334-56.278-80.834-67.278s-42.333-34.5-52.166-42.5-9.167-16-5.667-21,11.333-8.333,25.5,1.167,71.167,46.611,87.389,57.5,112.99,74.915,131.657,86.248,25.739,10.435,34.621.918c7-7.5,14.5-8,29.833,4.167s95.333,72.333,109.333,83.667,25.889,17,42.556,5,38.778-28.334,53.778-37.667,39.717-23.256,56.333-34.333c20-13.334,50.128-35.42,66.128-47.086s31.045-21.137,47.983-.248c13.333,16.445,20.889,25.111,30.889,36.667s14.667,26-5.556,41.111-48.888,35.556-64,46.889-45.111,31.778-55.555,39.778-35.478,23.486-53.556,44.222c-15.111,17.333-64.889,76.444-72.222,85.556S532.1,441.553,513.354,426c-20.889-17.333-71.112-57.333-84.667-69.333S362.909,296,344.909,278.44s-57.555-57.334-74.667-71.556c-17.162-14.265-6.594-26.04,10.889-11.778,16.889,13.778,42.445,26.445,68.889,38A632.848,632.848,0,0,1,427.8,274.44c20.667,13.111,56.889,36.888,74,52.444s47.333,44.667,59.333,55.333,27.556,24,39.556,28.445,21.555,9.111,36.444,3.111,32.387-16.234,48.223-4.889c14.888,10.667,15.777,25.556,6.222,34.667s-21.111,20.889-29.556,29.333-16.889,14-37.333,5.333-70.445-30.666-90.222-40.444-26-10.445-36.445,3.111-25.889,22.333-49.889,1.667S240.132,268.99,224.632,255.77Z"/><path id="7cd50dce-1ac1-4d75-8fe8-320efd5cb37a" data-name="Track Middle" class="8ca7e518-4376-4c3f-a4ef-77fb9877288a" d="M224.632,255.77c-12.989-11.077-77.621-65.631-98.654-84.8-13.778-12.555-30-12.679-43.621-1.093-9.41,8.007-21.559,20.562-41.448,6.339-6.432-4.6-16.01-13.33-24.912-21.532-11.919-10.98-3.5-23.844,3.144-30.125C30.949,113.391,49.169,92.57,59.02,82.44s33.85-19.223,56-2.445,79.778,66.556,95.111,79,26.313-1.714,12.334-13.333c-13.167-10.945-67.334-56.278-80.834-67.278s-42.333-34.5-52.166-42.5-9.167-16-5.667-21,11.333-8.333,25.5,1.167,71.167,46.611,87.389,57.5,112.99,74.915,131.657,86.248,25.739,10.435,34.621.918c7-7.5,14.5-8,29.833,4.167s95.333,72.333,109.333,83.667,25.889,17,42.556,5,38.778-28.334,53.778-37.667,39.717-23.256,56.333-34.333c20-13.334,50.128-35.42,66.128-47.086s31.045-21.137,47.983-.248c13.333,16.445,20.889,25.111,30.889,36.667s14.667,26-5.556,41.111-48.888,35.556-64,46.889-45.111,31.778-55.555,39.778-35.478,23.486-53.556,44.222c-15.111,17.333-64.889,76.444-72.222,85.556S532.1,441.553,513.354,426c-20.889-17.333-71.112-57.333-84.667-69.333S362.909,296,344.909,278.44s-57.555-57.334-74.667-71.556c-17.162-14.265-6.594-26.04,10.889-11.778,16.889,13.778,42.445,26.445,68.889,38A632.848,632.848,0,0,1,427.8,274.44c20.667,13.111,56.889,36.888,74,52.444s47.333,44.667,59.333,55.333,27.556,24,39.556,28.445,21.555,9.111,36.444,3.111,32.387-16.234,48.223-4.889c14.888,10.667,15.777,25.556,6.222,34.667s-21.111,20.889-29.556,29.333-16.889,14-37.333,5.333-70.445-30.666-90.222-40.444-26-10.445-36.445,3.111-25.889,22.333-49.889,1.667S240.132,268.99,224.632,255.77Z"/><path id="98b76d37-7bb3-4608-9ab6-5fe1fbcf6475" data-name="Pitlane Middle" class="8ca7e518-4376-4c3f-a4ef-77fb9877288a" d="M455.575,212.812c15.111,11.111,24.667,10.739,38.89,19.85s34.444,18.889,57.333,3.778S594.242,205.551,611.576,196s28.444-14.889,38.222-21.111,18.889-15.778,30-19.556,15.054-1.814,25.054-9.147"/><path id="4bd00797-f63c-42ff-a4b1-d058fa2e9ce4" data-name="Pitlane Inner" class="e59be35c-a3c1-4f3d-8693-b65e01883e94" d="M455.575,212.812c15.111,11.111,24.667,10.739,38.89,19.85s34.444,18.889,57.333,3.778S594.242,205.551,611.576,196s28.444-14.889,38.222-21.111,18.889-15.778,30-19.556,15.054-1.814,25.054-9.147"/><path id="57002333-b23a-4153-90cd-c9380b5f0b85" data-name="Track Inner" class="ee82744a-7667-4d8d-9e5d-3eb63e45adb3" d="M224.632,255.77c-12.989-11.077-77.621-65.631-98.654-84.8-13.778-12.555-30-12.679-43.621-1.093-9.41,8.007-21.559,20.562-41.448,6.339-6.432-4.6-16.01-13.33-24.912-21.532-11.919-10.98-3.5-23.844,3.144-30.125C30.949,113.391,49.169,92.57,59.02,82.44s33.85-19.223,56-2.445,79.778,66.556,95.111,79,26.313-1.714,12.334-13.333c-13.167-10.945-67.334-56.278-80.834-67.278s-42.333-34.5-52.166-42.5-9.167-16-5.667-21,11.333-8.333,25.5,1.167,71.167,46.611,87.389,57.5,112.99,74.915,131.657,86.248,25.739,10.435,34.621.918c7-7.5,14.5-8,29.833,4.167s95.333,72.333,109.333,83.667,25.889,17,42.556,5,38.778-28.334,53.778-37.667,39.717-23.256,56.333-34.333c20-13.334,50.128-35.42,66.128-47.086s31.045-21.137,47.983-.248c13.333,16.445,20.889,25.111,30.889,36.667s14.667,26-5.556,41.111-48.888,35.556-64,46.889-45.111,31.778-55.555,39.778-35.478,23.486-53.556,44.222c-15.111,17.333-64.889,76.444-72.222,85.556S532.1,441.553,513.354,426c-20.889-17.333-71.112-57.333-84.667-69.333S362.909,296,344.909,278.44s-57.555-57.334-74.667-71.556c-17.162-14.265-6.594-26.04,10.889-11.778,16.889,13.778,42.445,26.445,68.889,38A632.848,632.848,0,0,1,427.8,274.44c20.667,13.111,56.889,36.888,74,52.444s47.333,44.667,59.333,55.333,27.556,24,39.556,28.445,21.555,9.111,36.444,3.111,32.387-16.234,48.223-4.889c14.888,10.667,15.777,25.556,6.222,34.667s-21.111,20.889-29.556,29.333-16.889,14-37.333,5.333-70.445-30.666-90.222-40.444-26-10.445-36.445,3.111-25.889,22.333-49.889,1.667S240.132,268.99,224.632,255.77Z"/><g id="b80f45a5-f443-4cd9-9806-b7f5f146aeca" data-name="Crossover"><path id="46712723-bfe8-4d4f-ade0-e0bb28f1aac0" data-name="Crossover Outer" class="f0b03e0a-7e85-4a5b-a0d9-2babe30618e1" d="M620.795,343.27c-15.111,17.333-64.553,76.058-71.886,85.17S532.1,441.553,513.354,426c-20.889-17.333-70.827-57.082-84.383-69.082"/><path id="b4ca1b2b-3871-45cd-a93d-ad79775d28e3" data-name="Crossover Middle" class="8ca7e518-4376-4c3f-a4ef-77fb9877288a" d="M621.131,342.884c-15.111,17.333-64.889,76.444-72.222,85.556S532.1,441.553,513.354,426c-20.889-17.333-71.112-57.333-84.667-69.333"/><path id="5592349d-411f-4ed4-afa3-7e5f39552d46" data-name="Crossover Inner" class="ee82744a-7667-4d8d-9e5d-3eb63e45adb3" d="M621.446,342.524c-15.111,17.334-65.2,76.8-72.537,85.916S532.1,441.553,513.354,426c-20.889-17.333-71.464-57.645-85.019-69.645"/></g><use id="b3fe49e8-f609-4db6-8419-370ac2d2e32d" data-name="Start-Finish-Line" width="200" height="103.617" transform="matrix(-0.135, 0.159, -0.159, -0.135, 245.962, 246.46)" xlink:href="#f2f3fc9a-d47c-4eb3-98da-da0c643b85ff"/></g></g></g></svg>