<svg xmlns="http://www.w3.org/2000/svg" xmlns:xlink="http://www.w3.org/1999/xlink" width="892.337" height="696.393" viewBox="0 0 892.337 696.393"><defs><style>.ef92ae00-3e16-4115-9682-701462ec442f{fill:#00ff24;}.\33 bf569ad-b069-40b8-931a-796346db3132,.ef92ae00-3e16-4115-9682-701462ec442f{stroke:#000;stroke-width:5px;}.\33 bf569ad-b069-40b8-931a-796346db3132,.\37 659e0cf-0199-4e25-a8c0-37b381f0cb21,.ef92ae00-3e16-4115-9682-701462ec442f{stroke-miterlimit:10;}.\33 bf569ad-b069-40b8-931a-796346db3132,.ae73b93b-3543-449d-b165-4bc41e266981{fill:#fff;}.\34 4a59ea3-01cf-4bf3-96a3-6f65c9aa6800,.\34 4ab69b1-e9d1-4b98-b254-43a574756da2,.\36 567e6a7-d54d-4dcf-86a5-c27ab0148bfe,.\38 16cf2cd-5593-45dc-86de-4c1e8c172e2b,.c48eedec-765e-4e54-b767-5583f7451ed9{fill:none;stroke-linejoin:round;}.\34 4ab69b1-e9d1-4b98-b254-43a574756da2,.\38 16cf2cd-5593-45dc-86de-4c1e8c172e2b{stroke:#c91c1c;}.\36 567e6a7-d54d-4dcf-86a5-c27ab0148bfe,.\38 16cf2cd-5593-45dc-86de-4c1e8c172e2b{stroke-width:27.646px;}.\36 567e6a7-d54d-4dcf-86a5-c27ab0148bfe,.c48eedec-765e-4e54-b767-5583f7451ed9{stroke:#0080ff;}.\34 4a59ea3-01cf-4bf3-96a3-6f65c9aa6800,.\37 659e0cf-0199-4e25-a8c0-37b381f0cb21{stroke:#fff;}.\34 4a59ea3-01cf-4bf3-96a3-6f65c9aa6800{stroke-width:15.205px;}.\34 4ab69b1-e9d1-4b98-b254-43a574756da2,.\37 659e0cf-0199-4e25-a8c0-37b381f0cb21,.c48eedec-765e-4e54-b767-5583f7451ed9{stroke-width:2.765px;}.\37 659e0cf-0199-4e25-a8c0-37b381f0cb21{fill:#3a3a3a;}</style><symbol id="7ee8f85a-1e62-4393-9d03-2a635df6a2d9" data-name="start finish line" viewBox="0 0 200 103.617"><rect class="ef92ae00-3e16-4115-9682-701462ec442f" x="2.5" y="2.5" width="195" height="47.043"/><rect class="3bf569ad-b069-40b8-931a-796346db3132" x="2.5" y="52.367" width="48.75" height="48.75"/><rect class="3bf569ad-b069-40b8-931a-796346db3132" x="51.25" y="52.367" width="48.75" height="48.75"/><rect class="3bf569ad-b069-40b8-931a-796346db3132" x="100" y="52.367" width="48.75" height="48.75"/><rect class="3bf569ad-b069-40b8-931a-796346db3132" x="148.75" y="52.367" width="48.75" height="48.75"/></symbol></defs><title>Atomic_Tire_International</title><g id="f2aef72c-4e3f-4839-a6c8-c3418c7d520e" data-name="Layer 2"><g id="66875289-043b-43f0-9d51-f2f4c8176219" data-name="Airport"><g id="4fc1e8fc-161a-452e-abf8-5bd65f6dd2ad" data-name="Atomic_Tire_International"><path id="4b579ea0-9119-40df-8264-7c9ea5094c3d" data-name="Pit" class="816cf2cd-5593-45dc-86de-4c1e8c172e2b" d="M561.988,466.359c13.711,77.765,24.475,108.726,27.521,118.758,3.662,13.136,6.708,27.989,28.453,39.413,0,0,84.315,49.008,95.419,53.121s41.29,14.736,66.62-18.507S869.174,509.72,875.42,497.725s4.51-51.065-19.084-64.431l-170.6-58.8"/><path id="90311beb-e44c-4e01-b0fb-5569731b101d" data-name="Track" class="6567e6a7-d54d-4dcf-86a5-c27ab0148bfe" d="M391.549,191.794S363.4,174.9,376.068,155.208s0-30.962-30.969-49.263-139.306-80.02-139.306-80.02S135.419-13.452,96.006,49.85L34.819,156.187S-21.48,239.231,50.3,281.455s92.117,55.66,117.382,71.221,124.187,18.969,140.824-.427c7.421-8.8-10.56-24.634-10.56-24.634L251.5,286.825s-7.037-15.481,19.7-12.662,80.232,4.218,80.232,4.218,14.074-5.631-15.481-23.924-118.231-69-118.231-69-11.263-8.45-16.894,0-30.962,50.669-30.962,50.669-21.113,12.669-26.744-29.556,0-77.419,28.15-112.628S327.509,164.325,375.365,262.85,464.04,431.778,492.19,433.169s40.819-42.224,47.856-47.856,5.7-14.075,91.566,39.413c11.255,7.037-2.717,22.518-36.5,26.736s-53.559,12.7-1.484,40.85,49.269,23.925,90.088-35.151c1.435-7.045-26.744-12.669-35.195-23.932s53.488-36.586,39.413-56.3c-5.476-7.67-46.864-36.223-102.146-69.937C498.982,254.051,391.549,191.794,391.549,191.794Z"/><path id="72f90351-7ff5-42f8-8b5c-faee3b8d40c2" data-name="Pit" class="44a59ea3-01cf-4bf3-96a3-6f65c9aa6800" d="M561.988,466.359c13.711,77.765,24.475,108.726,27.521,118.758,3.662,13.136,6.708,27.989,28.453,39.413,0,0,84.315,49.008,95.419,53.121s41.29,14.736,66.62-18.507S869.174,509.72,875.42,497.725s4.51-51.065-19.084-64.431l-170.6-58.8"/><path id="adb674dc-3dbf-47ec-9ddb-b7a05e26b614" data-name="Track" class="44a59ea3-01cf-4bf3-96a3-6f65c9aa6800" d="M391.549,191.794S363.4,174.9,376.068,155.208s0-30.962-30.969-49.263-139.306-80.02-139.306-80.02S135.419-13.452,96.006,49.85L34.819,156.187S-21.48,239.231,50.3,281.455s92.117,55.66,117.382,71.221,124.187,18.969,140.824-.427c7.421-8.8-10.56-24.634-10.56-24.634L251.5,286.825s-7.037-15.481,19.7-12.662,80.232,4.218,80.232,4.218,14.074-5.631-15.481-23.924-118.231-69-118.231-69-11.263-8.45-16.894,0-30.962,50.669-30.962,50.669-21.113,12.669-26.744-29.556,0-77.419,28.15-112.628S327.509,164.325,375.365,262.85,464.04,431.778,492.19,433.169s40.819-42.224,47.856-47.856,5.7-14.075,91.566,39.413c11.255,7.037-2.717,22.518-36.5,26.736s-53.559,12.7-1.484,40.85,49.269,23.925,90.088-35.151c1.435-7.045-26.744-12.669-35.195-23.932s53.488-36.586,39.413-56.3c-5.476-7.67-46.864-36.223-102.146-69.937C498.982,254.051,391.549,191.794,391.549,191.794Z"/><path id="c103c9f9-81da-4b6a-8620-223de800ed37" data-name="Pit" class="44ab69b1-e9d1-4b98-b254-43a574756da2" d="M561.988,466.359c13.711,77.765,24.475,108.726,27.521,118.758,3.662,13.136,6.708,27.989,28.453,39.413,0,0,84.315,49.008,95.419,53.121s41.29,14.736,66.62-18.507S869.174,509.72,875.42,497.725s4.51-51.065-19.084-64.431l-170.6-58.8"/><path id="5cf8f4c8-56a2-4374-a72b-28bcb50990d1" data-name="Track" class="c48eedec-765e-4e54-b767-5583f7451ed9" d="M391.549,191.794S363.4,174.9,376.068,155.208s0-30.962-30.969-49.263-139.306-80.02-139.306-80.02S135.419-13.452,96.006,49.85L34.819,156.187S-21.48,239.231,50.3,281.455s92.117,55.66,117.382,71.221,124.187,18.969,140.824-.427c7.421-8.8-10.56-24.634-10.56-24.634L251.5,286.825s-7.037-15.481,19.7-12.662,80.232,4.218,80.232,4.218,14.074-5.631-15.481-23.924-118.231-69-118.231-69-11.263-8.45-16.894,0-30.962,50.669-30.962,50.669-21.113,12.669-26.744-29.556,0-77.419,28.15-112.628S327.509,164.325,375.365,262.85,464.04,431.778,492.19,433.169s40.819-42.224,47.856-47.856,5.7-14.075,91.566,39.413c11.255,7.037-2.717,22.518-36.5,26.736s-53.559,12.7-1.484,40.85,49.269,23.925,90.088-35.151c1.435-7.045-26.744-12.669-35.195-23.932s53.488-36.586,39.413-56.3c-5.476-7.67-46.864-36.223-102.146-69.937C498.982,254.051,391.549,191.794,391.549,191.794Z"/><g id="dd2316cd-038f-4ebd-8c79-c346b8e8a1c9" data-name="Numbers"><path class="7659e0cf-0199-4e25-a8c0-37b381f0cb21" d="M392.6,162.941a11.078,11.078,0,1,1-.656,15.652c-5.379-5.849-8.159-7.107-8.19-8.168C383.723,169.33,386.616,168.445,392.6,162.941Z"/><path class="7659e0cf-0199-4e25-a8c0-37b381f0cb21" d="M360.3,148.431a11.077,11.077,0,1,1,2.854-15.4c4.573,6.652,7.158,8.236,6.951,9.29S366.9,143.9,360.3,148.431Z"/><path class="7659e0cf-0199-4e25-a8c0-37b381f0cb21" d="M162.444,33.726a11.078,11.078,0,1,1-15.666,0c5.709-5.708,6.8-8.538,7.869-8.527S156.783,28.065,162.444,33.726Z"/><path class="7659e0cf-0199-4e25-a8c0-37b381f0cb21" d="M36.051,219.437a11.077,11.077,0,1,1,2.682,15.434c-6.338-4.461-9.333-5.179-9.714-6.167C28.605,227.633,31.258,226.245,36.051,219.437Z"/><path class="7659e0cf-0199-4e25-a8c0-37b381f0cb21" d="M175.1,255.548a11.078,11.078,0,1,1-15.132,4.055c3.953-6.847,4.338-9.88,5.329-10.253C166.329,248.962,168.021,251.463,175.1,255.548Z"/><path class="7659e0cf-0199-4e25-a8c0-37b381f0cb21" d="M229.473,275.887a11.078,11.078,0,1,1,7.477-13.766c2.292,7.741,4.261,10.046,3.737,10.984S237.149,273.615,229.473,275.887Z"/><path class="7659e0cf-0199-4e25-a8c0-37b381f0cb21" d="M201.115,162.1a11.078,11.078,0,1,1,15.644.84c-5.993,5.382-7.237,8.15-8.308,8.093S206.476,168.072,201.115,162.1Z"/><path class="7659e0cf-0199-4e25-a8c0-37b381f0cb21" d="M189.637,69.066A11.077,11.077,0,1,1,205.2,70.822c-6.312,5.033-7.708,7.724-8.774,7.591S194.628,75.326,189.637,69.066Z"/><path class="7659e0cf-0199-4e25-a8c0-37b381f0cb21" d="M236.46,386.56a11.077,11.077,0,1,1-15.637-.951c6.044-5.352,7.3-8.111,8.371-8.034S231.153,380.566,236.46,386.56Z"/><path class="7659e0cf-0199-4e25-a8c0-37b381f0cb21" d="M332.175,356.492a11.077,11.077,0,1,1-9.723,12.284c-.933-8.019-2.479-10.627-1.8-11.462S324.223,357.417,332.175,356.492Z"/><path class="7659e0cf-0199-4e25-a8c0-37b381f0cb21" d="M362.555,297.124a11.077,11.077,0,1,1-15.575,1.684c5.009-6.223,5.821-9.158,6.873-9.319C354.928,289.324,356.253,292.052,362.555,297.124Z"/><path class="7659e0cf-0199-4e25-a8c0-37b381f0cb21" d="M500.213,451.547a11.078,11.078,0,1,1-15.666,0c5.645-5.645,6.77-8.475,7.833-8.526C493.467,442.969,494.489,445.823,500.213,451.547Z"/><path class="7659e0cf-0199-4e25-a8c0-37b381f0cb21" d="M535.789,365.065a11.077,11.077,0,1,1,15.314-3.3c-4.378,6.783-4.843,9.779-5.895,9.993S542.515,369.406,535.789,365.065Z"/><path class="7659e0cf-0199-4e25-a8c0-37b381f0cb21" d="M605.725,437.657a11.077,11.077,0,1,1,0-15.665c5.645,5.644,8.476,6.769,8.526,7.832C614.3,430.911,611.449,431.934,605.725,437.657Z"/><path class="7659e0cf-0199-4e25-a8c0-37b381f0cb21" d="M545.922,477.132A11.077,11.077,0,1,1,541.867,462c6.992,4.036,10.007,4.353,10.273,5.393S549.925,470.2,545.922,477.132Z"/><path class="7659e0cf-0199-4e25-a8c0-37b381f0cb21" d="M627.322,492.089A11.078,11.078,0,1,1,642.9,490.4c-5.062,6.289-5.837,9.22-6.907,9.324S633.558,497.108,627.322,492.089Z"/><path class="7659e0cf-0199-4e25-a8c0-37b381f0cb21" d="M702.659,451.037a11.077,11.077,0,1,1-2.445,15.474c-4.713-6.481-7.335-8.021-7.2-9.08S696.136,455.78,702.659,451.037Z"/><path class="7659e0cf-0199-4e25-a8c0-37b381f0cb21" d="M670.653,420.993a11.077,11.077,0,1,1,2.235,15.5c-6.352-4.751-9.317-5.482-9.552-6.516C663.092,428.911,665.774,427.515,670.653,420.993Z"/><path class="7659e0cf-0199-4e25-a8c0-37b381f0cb21" d="M692.158,355.079a11.077,11.077,0,1,1,10.378,11.735c-8.057-.494-10.9.568-11.6-.245S691.668,363.07,692.158,355.079Z"/><path class="ae73b93b-3543-449d-b165-4bc41e266981" d="M400.14,167.557h-.033l-1.873,1.01-.281-1.109,2.353-1.26h1.243v10.771H400.14Z"/><path class="ae73b93b-3543-449d-b165-4bc41e266981" d="M351.014,144.4V143.5l1.143-1.11c2.751-2.619,3.994-4.012,4.011-5.635a1.923,1.923,0,0,0-2.138-2.1,3.669,3.669,0,0,0-2.287.912l-.464-1.027a4.73,4.73,0,0,1,3.049-1.094,3.032,3.032,0,0,1,3.3,3.133c0,1.988-1.442,3.595-3.712,5.783l-.862.795v.033h4.839V144.4Z"/><path class="ae73b93b-3543-449d-b165-4bc41e266981" d="M151.539,45.645a4.862,4.862,0,0,0,2.386.68c1.873,0,2.453-1.194,2.436-2.088-.017-1.508-1.375-2.154-2.784-2.154h-.812V40.989h.812c1.06,0,2.4-.547,2.4-1.822,0-.862-.547-1.625-1.89-1.625a3.972,3.972,0,0,0-2.154.712l-.381-1.06a5.127,5.127,0,0,1,2.817-.828c2.121,0,3.083,1.26,3.083,2.568a2.673,2.673,0,0,1-1.989,2.535V41.5a2.807,2.807,0,0,1,2.4,2.768c0,1.725-1.342,3.232-3.927,3.232a5.475,5.475,0,0,1-2.8-.73Z"/><path class="ae73b93b-3543-449d-b165-4bc41e266981" d="M45.308,230.325v-2.934H40.3v-.961l4.806-6.877h1.574v6.7h1.508v1.142H46.683v2.934Zm0-4.076v-3.6c0-.563.016-1.125.05-1.69h-.05c-.332.629-.6,1.094-.9,1.592l-2.635,3.662v.034Z"/><path class="ae73b93b-3543-449d-b165-4bc41e266981" d="M230.936,390.1h-4.11l-.414,2.768a5.749,5.749,0,0,1,.878-.067,4.569,4.569,0,0,1,2.32.58,3.072,3.072,0,0,1,1.541,2.768,3.737,3.737,0,0,1-4.01,3.68,5.27,5.27,0,0,1-2.685-.664l.365-1.11a4.813,4.813,0,0,0,2.3.6,2.376,2.376,0,0,0,2.552-2.336c-.016-1.393-.944-2.387-3.1-2.387a10.9,10.9,0,0,0-1.491.118l.7-5.172h5.154Z"/><path class="ae73b93b-3543-449d-b165-4bc41e266981" d="M336.1,362.381a5.2,5.2,0,0,0-1.094.067,4.376,4.376,0,0,0-3.745,3.828h.05a3.282,3.282,0,0,1,5.849,2.236,3.6,3.6,0,0,1-3.579,3.8c-2.3,0-3.811-1.789-3.811-4.59a6.773,6.773,0,0,1,1.822-4.855,5.863,5.863,0,0,1,3.447-1.592,7.3,7.3,0,0,1,1.061-.082Zm-.414,6.215a2.19,2.19,0,0,0-2.221-2.47,2.4,2.4,0,0,0-2.088,1.326,1.245,1.245,0,0,0-.166.646c.033,1.774.845,3.082,2.37,3.082C334.84,371.18,335.685,370.137,335.685,368.6Z"/><path class="ae73b93b-3543-449d-b165-4bc41e266981" d="M229.819,260.452v.963l-4.689,9.808h-1.509L228.3,261.7v-.033h-5.27v-1.211Z"/><path class="ae73b93b-3543-449d-b165-4bc41e266981" d="M351.973,307.877A3.078,3.078,0,0,1,354.111,305l-.017-.049a2.671,2.671,0,0,1-1.707-2.42c0-1.707,1.442-2.867,3.331-2.867,2.088,0,3.132,1.308,3.132,2.652a2.735,2.735,0,0,1-1.773,2.518v.05a2.986,2.986,0,0,1,2.171,2.784c0,1.873-1.608,3.132-3.662,3.132C353.332,310.8,351.973,309.452,351.973,307.877Zm5.8-.066c0-1.309-.912-1.937-2.37-2.352a2.338,2.338,0,0,0-1.938,2.221,1.992,1.992,0,0,0,2.154,2.055A1.95,1.95,0,0,0,357.773,307.811Zm-4.01-5.385c0,1.076.812,1.657,2.055,1.989a2.121,2.121,0,0,0,1.64-1.956,1.673,1.673,0,0,0-1.823-1.755A1.712,1.712,0,0,0,353.763,302.426Z"/><path class="ae73b93b-3543-449d-b165-4bc41e266981" d="M206.7,159.344a6.151,6.151,0,0,0,1.177-.049,4.071,4.071,0,0,0,2.253-1.044,4.73,4.73,0,0,0,1.425-2.868h-.049a3.158,3.158,0,0,1-2.536,1.16,3.119,3.119,0,0,1-3.182-3.3,3.694,3.694,0,0,1,3.679-3.829c2.2,0,3.563,1.79,3.563,4.541a6.8,6.8,0,0,1-1.856,5.055,5.4,5.4,0,0,1-3.132,1.442,6.811,6.811,0,0,1-1.342.082Zm.53-6.2a2.072,2.072,0,0,0,2.071,2.287,2.41,2.41,0,0,0,2.122-1.127.965.965,0,0,0,.132-.531c0-1.838-.679-3.246-2.2-3.246C208.109,150.53,207.23,151.624,207.23,153.147Z"/><path class="ae73b93b-3543-449d-b165-4bc41e266981" d="M164.686,261.334h-.033l-1.873,1.012-.281-1.111,2.353-1.26h1.242v10.772h-1.408Z"/><path class="ae73b93b-3543-449d-b165-4bc41e266981" d="M177.178,265.245c0,3.662-1.358,5.685-3.745,5.685-2.1,0-3.529-1.972-3.562-5.535,0-3.613,1.557-5.6,3.745-5.6C175.886,259.793,177.178,261.815,177.178,265.245Zm-5.849.166c0,2.8.862,4.392,2.187,4.392,1.491,0,2.2-1.74,2.2-4.492,0-2.65-.679-4.391-2.187-4.391C172.257,260.92,171.329,262.479,171.329,265.411Z"/><path class="ae73b93b-3543-449d-b165-4bc41e266981" d="M193.712,57.9h-.034l-1.872,1.012-.282-1.112,2.354-1.259h1.242V67.309h-1.408Z"/><path class="ae73b93b-3543-449d-b165-4bc41e266981" d="M202.211,57.9h-.034l-1.872,1.012-.282-1.112,2.354-1.259h1.242V67.309h-1.408Z"/><path class="ae73b93b-3543-449d-b165-4bc41e266981" d="M486.145,455.3h-.038l-2.158,1.012-.324-1.111,2.711-1.26h1.431v10.771h-1.622Z"/><path class="ae73b93b-3543-449d-b165-4bc41e266981" d="M492.29,464.715v-.894l1.318-1.11c3.168-2.619,4.6-4.011,4.619-5.634,0-1.094-.611-2.106-2.463-2.106a4.587,4.587,0,0,0-2.634.912l-.534-1.027a5.965,5.965,0,0,1,3.512-1.094c2.672,0,3.8,1.592,3.8,3.133,0,1.988-1.661,3.6-4.276,5.783l-.993.8v.033h5.574v1.209Z"/><path class="ae73b93b-3543-449d-b165-4bc41e266981" d="M537.207,351.635h-.033l-1.873,1.012-.281-1.111,2.353-1.26h1.243v10.771h-1.409Z"/><path class="ae73b93b-3543-449d-b165-4bc41e266981" d="M542.889,359.374a4.878,4.878,0,0,0,2.387.679c1.872,0,2.452-1.193,2.436-2.088-.017-1.507-1.376-2.154-2.785-2.154h-.812v-1.094h.812c1.061,0,2.4-.547,2.4-1.822,0-.861-.547-1.625-1.889-1.625a3.969,3.969,0,0,0-2.154.713l-.381-1.061a5.121,5.121,0,0,1,2.817-.828c2.121,0,3.082,1.26,3.082,2.569a2.674,2.674,0,0,1-1.988,2.535v.033a2.807,2.807,0,0,1,2.4,2.768c0,1.724-1.342,3.232-3.927,3.232a5.488,5.488,0,0,1-2.8-.73Z"/><path class="ae73b93b-3543-449d-b165-4bc41e266981" d="M592.216,426.29h-.033L590.31,427.3l-.281-1.111,2.353-1.26h1.243V435.7h-1.409Z"/><path class="ae73b93b-3543-449d-b165-4bc41e266981" d="M602.057,435.7V432.77h-5v-.963l4.806-6.877h1.574v6.7h1.508v1.144h-1.508V435.7Zm0-4.076v-3.6q0-.844.05-1.69h-.05c-.331.629-.6,1.094-.894,1.59l-2.635,3.662v.034Z"/><path class="ae73b93b-3543-449d-b165-4bc41e266981" d="M531.165,467.508h-.033l-1.873,1.01-.282-1.109,2.354-1.26h1.242V476.92h-1.408Z"/><path class="ae73b93b-3543-449d-b165-4bc41e266981" d="M542.928,467.376h-4.109l-.415,2.767a5.8,5.8,0,0,1,.879-.066,4.542,4.542,0,0,1,2.32.58,3.069,3.069,0,0,1,1.541,2.767,3.737,3.737,0,0,1-4.011,3.678,5.289,5.289,0,0,1-2.684-.662l.365-1.111a4.82,4.82,0,0,0,2.3.6,2.377,2.377,0,0,0,2.552-2.338c-.016-1.39-.945-2.384-3.1-2.384a11.271,11.271,0,0,0-1.491.115l.7-5.17h5.153Z"/><path class="ae73b93b-3543-449d-b165-4bc41e266981" d="M628.759,479.989h-.033L626.854,481l-.282-1.11,2.353-1.26h1.243V489.4h-1.409Z"/><path class="ae73b93b-3543-449d-b165-4bc41e266981" d="M640.241,479.657a5.179,5.179,0,0,0-1.093.066,4.377,4.377,0,0,0-3.745,3.828h.049a3.283,3.283,0,0,1,5.85,2.237,3.6,3.6,0,0,1-3.58,3.8c-2.3,0-3.811-1.79-3.811-4.59a6.777,6.777,0,0,1,1.823-4.856,5.863,5.863,0,0,1,3.447-1.592,7.28,7.28,0,0,1,1.06-.082Zm-.414,6.215a2.19,2.19,0,0,0-2.22-2.471,2.4,2.4,0,0,0-2.088,1.326,1.237,1.237,0,0,0-.166.647c.033,1.773.845,3.082,2.369,3.082C638.982,488.456,639.827,487.413,639.827,485.872Z"/><path class="ae73b93b-3543-449d-b165-4bc41e266981" d="M703.444,456.458h-.034l-1.872,1.011-.281-1.111,2.353-1.26h1.242V465.87h-1.408Z"/><path class="ae73b93b-3543-449d-b165-4bc41e266981" d="M715.771,455.1v.963l-4.69,9.809h-1.508l4.673-9.528v-.033h-5.27V455.1Z"/><path class="ae73b93b-3543-449d-b165-4bc41e266981" d="M674.066,423.52h-.033l-1.873,1.01-.281-1.11,2.353-1.259h1.243v10.771h-1.409Z"/><path class="ae73b93b-3543-449d-b165-4bc41e266981" d="M679.268,430.2a3.075,3.075,0,0,1,2.137-2.883l-.016-.051a2.664,2.664,0,0,1-1.707-2.42c0-1.707,1.442-2.865,3.331-2.865,2.088,0,3.132,1.309,3.132,2.65a2.738,2.738,0,0,1-1.774,2.52v.049a2.985,2.985,0,0,1,2.171,2.785c0,1.871-1.607,3.131-3.662,3.131C680.627,433.114,679.268,431.772,679.268,430.2Zm5.8-.067c0-1.308-.912-1.939-2.37-2.353A2.34,2.34,0,0,0,680.759,430a1.991,1.991,0,0,0,2.154,2.054A1.95,1.95,0,0,0,685.068,430.131Zm-4.011-5.386c0,1.078.812,1.658,2.055,1.99a2.126,2.126,0,0,0,1.641-1.957,1.674,1.674,0,0,0-1.823-1.756A1.713,1.713,0,0,0,681.057,424.745Z"/><path class="ae73b93b-3543-449d-b165-4bc41e266981" d="M697.935,351.635H697.9l-1.873,1.012-.281-1.111,2.353-1.26h1.242v10.771h-1.408Z"/><path class="ae73b93b-3543-449d-b165-4bc41e266981" d="M704.114,360.02a6.151,6.151,0,0,0,1.177-.049,4.072,4.072,0,0,0,2.253-1.045,4.722,4.722,0,0,0,1.425-2.867h-.049a3.158,3.158,0,0,1-2.536,1.16,3.119,3.119,0,0,1-3.182-3.3,3.693,3.693,0,0,1,3.68-3.828c2.2,0,3.562,1.789,3.562,4.541a6.806,6.806,0,0,1-1.856,5.055,5.388,5.388,0,0,1-3.132,1.441,6.735,6.735,0,0,1-1.342.082Zm.53-6.2a2.072,2.072,0,0,0,2.071,2.287,2.412,2.412,0,0,0,2.122-1.127.965.965,0,0,0,.132-.531c0-1.838-.679-3.246-2.2-3.246C705.523,351.206,704.644,352.3,704.644,353.823Z"/></g><use width="200" height="103.617" transform="matrix(0.166, -0.279, 0.279, 0.166, 489.459, 286.795)" xlink:href="#7ee8f85a-1e62-4393-9d03-2a635df6a2d9"/></g></g></g></svg>