<svg xmlns="http://www.w3.org/2000/svg" xmlns:xlink="http://www.w3.org/1999/xlink" width="596.961" height="574.87" viewBox="0 0 596.961 574.87"><defs><style>.ac5d6c27-a6de-49a8-9256-8fa2051a58c7{fill:#00ff24;}.ac5d6c27-a6de-49a8-9256-8fa2051a58c7,.b4d79edc-390a-4946-9f18-bbbcfaf8605b{stroke:#000;stroke-width:5px;}.\32 64820f8-814a-483f-b884-5e56fd1a8e91,.\39 169cfe5-8d3a-4df3-9363-1b2386d55e6a,.\39 2943b90-5d22-4b65-b6d9-171fdc30ea24,.ac5d6c27-a6de-49a8-9256-8fa2051a58c7,.b4d79edc-390a-4946-9f18-bbbcfaf8605b,.c4fb93e0-b583-488c-be8b-8a92ffab285e,.cba6f0ab-ceed-4613-a7fd-477b138d3b72,.cefba175-00c7-4517-8c71-61c3cdea429d{stroke-miterlimit:10;}.b4d79edc-390a-4946-9f18-bbbcfaf8605b,.d5aeff54-437d-447a-85fd-52c00df3e0cb{fill:#fff;}.\32 64820f8-814a-483f-b884-5e56fd1a8e91,.\39 169cfe5-8d3a-4df3-9363-1b2386d55e6a,.\39 2943b90-5d22-4b65-b6d9-171fdc30ea24,.c4fb93e0-b583-488c-be8b-8a92ffab285e,.cba6f0ab-ceed-4613-a7fd-477b138d3b72{fill:none;}.\39 2943b90-5d22-4b65-b6d9-171fdc30ea24,.cba6f0ab-ceed-4613-a7fd-477b138d3b72{stroke:#c91d1d;}.\39 169cfe5-8d3a-4df3-9363-1b2386d55e6a,.cba6f0ab-ceed-4613-a7fd-477b138d3b72{stroke-width:20px;}.\39 169cfe5-8d3a-4df3-9363-1b2386d55e6a,.c4fb93e0-b583-488c-be8b-8a92ffab285e{stroke:#007fff;}.\32 64820f8-814a-483f-b884-5e56fd1a8e91,.cefba175-00c7-4517-8c71-61c3cdea429d{stroke:#fff;}.\32 64820f8-814a-483f-b884-5e56fd1a8e91{stroke-width:10px;}.\39 2943b90-5d22-4b65-b6d9-171fdc30ea24,.c4fb93e0-b583-488c-be8b-8a92ffab285e{stroke-width:2px;}.cefba175-00c7-4517-8c71-61c3cdea429d{fill:#333;stroke-width:1.5px;}</style><symbol id="c6f3f781-3922-4a00-95c3-4095ac512293" data-name="fd103434-89f2-4089-acf9-54fed79ed404" viewBox="0 0 200 103.617"><rect class="ac5d6c27-a6de-49a8-9256-8fa2051a58c7" x="2.5" y="54.074" width="195" height="47.043"/><rect class="b4d79edc-390a-4946-9f18-bbbcfaf8605b" x="2.5" y="2.5" width="48.75" height="48.75"/><rect class="b4d79edc-390a-4946-9f18-bbbcfaf8605b" x="51.25" y="2.5" width="48.75" height="48.75"/><rect class="b4d79edc-390a-4946-9f18-bbbcfaf8605b" x="100" y="2.5" width="48.75" height="48.75"/><rect class="b4d79edc-390a-4946-9f18-bbbcfaf8605b" x="148.75" y="2.5" width="48.75" height="48.75"/></symbol></defs><title>Barracks_Obama</title><g id="1193fe2d-9d70-4042-b4ad-990c58280ed8" data-name="Layer 2"><g id="bec69ffa-3731-47b3-be21-78ea1a043eb0" data-name="Airport"><g id="9740889e-9dd2-442c-8c20-5e5c8b08f03c" data-name="Barracks_Obama"><g id="a2947be9-3943-45e6-a0e1-88591db81002" data-name="Pit-Outer"><path class="cba6f0ab-ceed-4613-a7fd-477b138d3b72" d="M76.74,96.706c5.747,3.249,14.167,8.685,19.914,11.933a6.745,6.745,0,0,0,9.132-2.419c8.372-14.115,17.16-29.213,25.45-43.018A8.016,8.016,0,0,1,141.988,60.3c35.324,19.588,70.514,41.116,105.839,60.708a7.165,7.165,0,0,1,2.769,9.8l-36.658,64.629a6.154,6.154,0,0,1-8.372,2.326l-63.85-35.943a5.949,5.949,0,0,0-6.95.806l-.107.1a5.451,5.451,0,0,0,.822,8.6c15.358,9.689,15.735,9.842,18.506,11.534.229.139,7.3,4.476,8.174,5.038,6.476,4.168,3.351,19.509,12.332,25.832"/></g><g id="c686714b-740d-420e-9ecf-ec18b7b42e91" data-name="Track-Outer"><path class="9169cfe5-8d3a-4df3-9363-1b2386d55e6a" d="M177.762,215.611q78.146,44.052,156.289,88.106a12.794,12.794,0,0,0,17.371-4.761l.326-.567a11.929,11.929,0,0,0-4.492-16.352l-43.944-24.7a14.176,14.176,0,0,1-5.3-19.5L392.792,75.142a9.9,9.9,0,0,1,13.513-3.58l57.019,33.051a11.4,11.4,0,0,1,4.194,15.486l-34.872,61.4c-3.081,5.426-.911,11.84,4.459,15.017,7.265,4.3,15.08,8.584,22.345,12.882a10.309,10.309,0,0,1,3.822,13.769c-13.821,25.6-28.527,51.7-42.348,77.3a7.573,7.573,0,0,0,2.877,10.155l88.113,50.89a7.572,7.572,0,0,1,2.794,10.3L423.157,532.725a7.572,7.572,0,0,0,2.807,10.31l.133.076a7.573,7.573,0,0,0,10.4-2.89l31.287-56.369a7.572,7.572,0,0,1,10.249-2.972l49.151,26.834a7.583,7.583,0,0,0,9.93-2.444,146.283,146.283,0,0,0,21.652-50.993,141.645,141.645,0,0,0,2.667-40.333c-.3-3.709-.571-5.222-4.667-26.333-6.948-35.813-8.05-41.193-10-52.334-2.14-12.229-1.409-10.305-4.333-26-5.587-29.991-5.549-30.967-6.607-36.78-.276-1.522-.73-7.717-2.609-12.849-2.218-6.058-5.146-9.306-5.951-9.933a110.06,110.06,0,0,0-10.166-7.1c-75.771-43.4-171.382-99.364-257.667-148-23.577-13.29-58.8-34.122-102.07-59.7A13.884,13.884,0,0,0,150.978,33c-16.044-.778-28.576-1.238-47.132-1.394-15.042-.126-34.167-.455-48.146-.333a7.328,7.328,0,0,0-6.161,3.75l-15.1,26.954a7.572,7.572,0,0,0,2.478,10.206c12.733,8.095,26.3,15.926,39.175,23.976A18.438,18.438,0,0,1,84.052,106.8c5.1,18.076,9.579,36.351,14.65,54.437a21.8,21.8,0,0,0,9.778,12.808Z"/></g><g id="ded9a96c-b836-41fa-9287-f07af20facc8" data-name="Pit-Mid"><path class="264820f8-814a-483f-b884-5e56fd1a8e91" d="M76.74,96.706c5.747,3.249,14.167,8.685,19.914,11.933a6.745,6.745,0,0,0,9.132-2.419c8.372-14.115,17.16-29.213,25.45-43.018A8.016,8.016,0,0,1,141.988,60.3c35.324,19.588,70.514,41.116,105.839,60.708a7.165,7.165,0,0,1,2.769,9.8l-36.658,64.629a6.154,6.154,0,0,1-8.372,2.326l-63.85-35.943a5.949,5.949,0,0,0-6.95.806l-.107.1a5.451,5.451,0,0,0,.822,8.6c15.358,9.689,15.735,9.842,18.506,11.534.229.139,7.3,4.476,8.174,5.038,6.476,4.168,3.351,19.509,12.332,25.832"/></g><g id="3860cfc0-a3f2-40fa-a756-249345170769" data-name="Track-Mid"><path class="264820f8-814a-483f-b884-5e56fd1a8e91" d="M177.639,215.611l156.289,88.106a12.794,12.794,0,0,0,17.371-4.761l.326-.567a11.929,11.929,0,0,0-4.492-16.352l-43.944-24.7a14.177,14.177,0,0,1-5.3-19.5L392.669,75.142a9.9,9.9,0,0,1,13.513-3.58L463.2,104.613A11.4,11.4,0,0,1,467.4,120.1l-34.872,61.4c-3.081,5.426-.912,11.84,4.459,15.017,7.265,4.3,15.08,8.584,22.345,12.882a10.309,10.309,0,0,1,3.822,13.769c-13.821,25.6-28.527,51.7-42.348,77.3a7.573,7.573,0,0,0,2.877,10.155l88.113,50.89a7.572,7.572,0,0,1,2.794,10.3L423.034,532.725a7.572,7.572,0,0,0,2.807,10.31l.133.076a7.573,7.573,0,0,0,10.4-2.89l31.287-56.369a7.572,7.572,0,0,1,10.249-2.972l49.151,26.834a7.583,7.583,0,0,0,9.93-2.444,146.283,146.283,0,0,0,21.652-50.993,141.645,141.645,0,0,0,2.667-40.333c-.3-3.709-.571-5.222-4.667-26.333-6.948-35.813-8.05-41.193-10-52.334-2.14-12.229-1.409-10.305-4.333-26-5.587-29.991-5.549-30.967-6.607-36.78-.276-1.522-.73-7.717-2.609-12.849-2.218-6.058-5.146-9.306-5.951-9.933a109.864,109.864,0,0,0-10.167-7.1c-75.77-43.4-171.381-99.364-257.666-148-23.577-13.29-58.8-34.122-102.07-59.7A13.884,13.884,0,0,0,150.854,33c-16.043-.778-28.575-1.238-47.131-1.394-15.042-.126-34.167-.455-48.146-.333a7.328,7.328,0,0,0-6.161,3.75l-15.1,26.954A7.572,7.572,0,0,0,36.79,72.187c12.733,8.095,26.3,15.926,39.175,23.976A18.438,18.438,0,0,1,83.929,106.8c5.1,18.076,9.579,36.351,14.65,54.437a21.8,21.8,0,0,0,9.778,12.808Z"/></g><g id="0a738130-200f-4e4d-9599-74f940db074c" data-name="Pit-Inner"><path class="92943b90-5d22-4b65-b6d9-171fdc30ea24" d="M76.74,96.706c5.747,3.249,14.167,8.685,19.914,11.933a6.745,6.745,0,0,0,9.132-2.419c8.372-14.115,17.16-29.213,25.45-43.018A8.016,8.016,0,0,1,141.988,60.3c35.324,19.588,70.514,41.116,105.839,60.708a7.165,7.165,0,0,1,2.769,9.8l-36.658,64.629a6.154,6.154,0,0,1-8.372,2.326l-63.85-35.943a5.949,5.949,0,0,0-6.95.806l-.107.1a5.451,5.451,0,0,0,.822,8.6c15.358,9.689,15.735,9.842,18.506,11.534.229.139,7.3,4.476,8.174,5.038,6.476,4.168,3.351,19.509,12.332,25.832"/></g><g id="865ac8ca-a449-420c-882d-6bbc134d7985" data-name="Track-Inner"><path class="c4fb93e0-b583-488c-be8b-8a92ffab285e" d="M177.639,215.611q78.145,44.052,156.289,88.106a12.794,12.794,0,0,0,17.371-4.761l.326-.567a11.929,11.929,0,0,0-4.492-16.352l-43.944-24.7a14.178,14.178,0,0,1-5.3-19.5q47.392-81.346,94.783-162.695a9.9,9.9,0,0,1,13.513-3.58L463.2,104.613A11.4,11.4,0,0,1,467.4,120.1l-34.872,61.4c-3.081,5.426-.912,11.84,4.459,15.017,7.265,4.3,15.08,8.584,22.345,12.882a10.309,10.309,0,0,1,3.822,13.769c-13.821,25.6-28.527,51.7-42.348,77.3a7.573,7.573,0,0,0,2.877,10.155l88.113,50.89a7.573,7.573,0,0,1,2.794,10.3L423.034,532.725a7.573,7.573,0,0,0,2.807,10.31l.133.077a7.574,7.574,0,0,0,10.4-2.891l31.287-56.369a7.571,7.571,0,0,1,10.249-2.971l49.151,26.833a7.583,7.583,0,0,0,9.93-2.444,146.283,146.283,0,0,0,21.652-50.993,141.645,141.645,0,0,0,2.667-40.333c-.3-3.709-.571-5.222-4.667-26.333-6.948-35.813-8.05-41.193-10-52.334-2.14-12.229-1.409-10.305-4.333-26-5.587-29.991-5.549-30.967-6.606-36.78-.278-1.522-.731-7.717-2.61-12.848-2.218-6.058-5.146-9.307-5.951-9.934a109.864,109.864,0,0,0-10.167-7.1c-75.77-43.4-171.381-99.364-257.666-148-23.577-13.29-58.8-34.122-102.07-59.7A13.884,13.884,0,0,0,150.854,33c-16.043-.778-28.575-1.238-47.132-1.393-15.041-.127-34.166-.457-48.145-.334a7.33,7.33,0,0,0-6.161,3.75l-15.1,26.954A7.572,7.572,0,0,0,36.79,72.187c12.733,8.095,26.3,15.926,39.175,23.976A18.437,18.437,0,0,1,83.929,106.8c5.1,18.075,9.579,36.35,14.65,54.437a21.8,21.8,0,0,0,9.778,12.807c18.81,11.285,28.891,17.493,66.707,40.025C175.064,214.066,175.914,214.638,177.639,215.611Z"/></g><g id="22a0dcd6-2238-4d97-aa98-63281ea8f9c0" data-name="Crossover-Outer"><line class="9169cfe5-8d3a-4df3-9363-1b2386d55e6a" x1="333.047" y1="177.484" x2="375.338" y2="104.89"/><line class="9169cfe5-8d3a-4df3-9363-1b2386d55e6a" x1="509.3" y1="238.212" x2="392.357" y2="170.735"/></g><g id="8de5d15b-23de-4239-9eea-ab6d850cd01c" data-name="Crossover-Mid"><line class="264820f8-814a-483f-b884-5e56fd1a8e91" x1="333.047" y1="177.484" x2="375.338" y2="104.89"/><line class="264820f8-814a-483f-b884-5e56fd1a8e91" x1="509.3" y1="238.212" x2="392.357" y2="170.735"/></g><g id="1cf5ff16-e958-4eb6-9e6e-51a2a1059783" data-name="Crossover-Inner"><line class="c4fb93e0-b583-488c-be8b-8a92ffab285e" x1="333.047" y1="177.484" x2="375.338" y2="104.89"/><line class="c4fb93e0-b583-488c-be8b-8a92ffab285e" x1="509.3" y1="238.212" x2="392.357" y2="170.735"/></g><g id="c51a1346-4676-47d5-ac71-13c76aff2cf8" data-name="Corner Numbers"><g id="a8eca755-a19b-4683-ae9f-cbafa65f41a2" data-name="1"><path class="cefba175-00c7-4517-8c71-61c3cdea429d" d="M368.822,301.572a10.417,10.417,0,1,1-8.108,12.3h0c-1.524-7.419-3.18-9.743-2.626-10.585S361.429,303.088,368.822,301.572Z"/><path class="d5aeff54-437d-447a-85fd-52c00df3e0cb" d="M370.223,307.209h-.037l-2.085,1.124-.313-1.236,2.621-1.4h1.384l-.011,11.992-1.568,0Z"/></g><g id="9eb4c9e7-6ce8-4c3b-a4b8-257abc0b01ec" data-name="2"><path class="cefba175-00c7-4517-8c71-61c3cdea429d" d="M311.175,236.835a10.812,10.812,0,1,1,4.042,14.746h0c-6.831-3.891-9.777-4.191-10.054-5.2S307.3,243.64,311.175,236.835Z"/><path class="d5aeff54-437d-447a-85fd-52c00df3e0cb" d="M316.024,248.093v-1.034l1.322-1.283c3.178-3.025,4.614-4.634,4.633-6.511a2.22,2.22,0,0,0-2.47-2.431,4.244,4.244,0,0,0-2.643,1.052l-.537-1.187a5.462,5.462,0,0,1,3.524-1.264,3.5,3.5,0,0,1,3.811,3.619c0,2.3-1.665,4.157-4.289,6.684l-1,.919v.039h5.592v1.4Z"/></g><g id="d8d88e8a-e286-4209-af43-88427e840c95" data-name="3"><path class="cefba175-00c7-4517-8c71-61c3cdea429d" d="M389.521,55.771a10.512,10.512,0,1,1,14.639-2.589h0c-4.381,6.263-4.935,9.089-5.937,9.267S395.761,60.137,389.521,55.771Z"/><path class="d5aeff54-437d-447a-85fd-52c00df3e0cb" d="M392.723,51.23A5.469,5.469,0,0,0,395.4,52c2.1,0,2.756-1.337,2.739-2.343-.017-1.693-1.543-2.422-3.125-2.423h-.912V46h.912c1.192,0,2.7-.613,2.7-2.046,0-.968-.613-1.824-2.121-1.826a4.444,4.444,0,0,0-2.421.8l-.427-1.192a5.748,5.748,0,0,1,3.166-.927c2.383,0,3.461,1.417,3.46,2.888a3.007,3.007,0,0,1-2.237,2.847v.037a3.152,3.152,0,0,1,2.7,3.111c0,1.937-1.511,3.629-4.416,3.626a6.161,6.161,0,0,1-3.145-.822Z"/></g><g id="efb78888-fe9e-4e5d-ba96-d03870cba25f" data-name="4"><path class="cefba175-00c7-4517-8c71-61c3cdea429d" d="M482.789,102.122a10.2,10.2,0,1,1,2.512,14.2h0c-6.075-4.248-8.815-4.786-8.988-5.758S478.555,108.173,482.789,102.122Z"/><path class="d5aeff54-437d-447a-85fd-52c00df3e0cb" d="M491.573,113.269l0-3.2-5.451,0v-1.047l5.242-7.487,1.715,0-.007,7.293,1.643,0,0,1.245-1.642,0,0,3.2Zm0-4.441,0-3.917q0-.921.057-1.841h-.055c-.361.685-.651,1.19-.976,1.732l-2.874,3.986v.036Z"/></g><g id="509144c3-2af0-42b0-b51c-240cf0525c64" data-name="6"><path class="cefba175-00c7-4517-8c71-61c3cdea429d" d="M449.753,227.5a10.521,10.521,0,1,1-3.851-14.371h0c6.625,3.825,9.49,4.132,9.754,5.116S453.565,220.9,449.753,227.5Z"/><path class="d5aeff54-437d-447a-85fd-52c00df3e0cb" d="M443.093,216.862a5.937,5.937,0,0,0-1.23.075,4.923,4.923,0,0,0-4.207,4.307h.056a3.692,3.692,0,0,1,6.579,2.51,4.05,4.05,0,0,1-4.021,4.27c-2.589,0-4.287-2.009-4.289-5.158a7.619,7.619,0,0,1,2.045-5.461,6.6,6.6,0,0,1,3.873-1.791,7.962,7.962,0,0,1,1.192-.094Zm-.46,6.986a2.46,2.46,0,0,0-2.5-2.773,2.7,2.7,0,0,0-2.346,1.493,1.391,1.391,0,0,0-.186.726c.039,1.993.953,3.465,2.667,3.463C441.685,226.756,442.634,225.581,442.633,223.848Z"/></g><g id="850b638d-2ef7-4968-88b0-7ac8ec089d25" data-name="7"><path class="cefba175-00c7-4517-8c71-61c3cdea429d" d="M437.057,293.775a10.468,10.468,0,1,1,3.682,14.339h0c-6.551-3.875-9.4-4.21-9.651-5.192S433.2,300.3,437.057,293.775Z"/><path class="d5aeff54-437d-447a-85fd-52c00df3e0cb" d="M450.239,293.54v1.075L445,305.6h-1.687l5.22-10.664V294.9l-5.9,0v-1.354Z"/></g><g id="000fe0e1-d714-42be-b77f-54da37a1c962" data-name="8"><path class="cefba175-00c7-4517-8c71-61c3cdea429d" d="M500.277,378.109A10.468,10.468,0,1,1,495.791,364h0c6.76,3.5,9.622,3.673,9.93,4.639S503.764,371.375,500.277,378.109Z"/><path class="d5aeff54-437d-447a-85fd-52c00df3e0cb" d="M487.161,376.341a3.444,3.444,0,0,1,2.391-3.226l-.018-.056a2.986,2.986,0,0,1-1.91-2.706c0-1.91,1.613-3.208,3.726-3.208,2.336,0,3.5,1.464,3.5,2.965a3.064,3.064,0,0,1-1.982,2.819v.055A3.34,3.34,0,0,1,495.3,376.1c0,2.1-1.8,3.5-4.1,3.5C488.682,379.6,487.162,378.1,487.161,376.341Zm6.489-.075c0-1.465-1.02-2.169-2.651-2.632a2.617,2.617,0,0,0-2.169,2.484,2.229,2.229,0,0,0,2.411,2.3A2.18,2.18,0,0,0,493.65,376.266Zm-4.487-6.025c0,1.205.908,1.854,2.3,2.225a2.375,2.375,0,0,0,1.834-2.188,1.872,1.872,0,0,0-2.039-1.965A1.916,1.916,0,0,0,489.163,370.241Z"/></g><g id="759dab59-7b27-4185-8fcb-892976976a11" data-name="9"><path class="cefba175-00c7-4517-8c71-61c3cdea429d" d="M425.219,561.648a10.468,10.468,0,1,1-12.277-8.272h0c7.471-1.456,9.823-3.1,10.663-2.531S423.77,554.2,425.219,561.648Z"/><path class="d5aeff54-437d-447a-85fd-52c00df3e0cb" d="M412.521,567.853a6.773,6.773,0,0,0,1.315-.056,4.539,4.539,0,0,0,2.521-1.169,5.293,5.293,0,0,0,1.594-3.208H417.9a3.54,3.54,0,0,1-2.837,1.3,3.49,3.49,0,0,1-3.56-3.688,4.131,4.131,0,0,1,4.114-4.284c2.466,0,3.986,2,3.988,5.078a7.618,7.618,0,0,1-2.074,5.655,6.027,6.027,0,0,1-3.5,1.615,7.533,7.533,0,0,1-1.5.093Zm.59-6.933a2.318,2.318,0,0,0,2.318,2.557,2.7,2.7,0,0,0,2.372-1.262,1.074,1.074,0,0,0,.149-.593c0-2.058-.762-3.634-2.468-3.633C414.091,557.989,413.11,559.214,413.111,560.92Z"/></g><g id="9f8d79e2-570b-4ccf-b260-4c8bd872e71e" data-name="10"><path class="cefba175-00c7-4517-8c71-61c3cdea429d" d="M484.093,495.424a10.468,10.468,0,1,1-14.234,4.069h0c3.7-6.654,3.954-9.51,4.928-9.789S477.464,491.74,484.093,495.424Z"/><path class="d5aeff54-437d-447a-85fd-52c00df3e0cb" d="M473.461,500.076h-.038l-2.1,1.129-.315-1.242,2.634-1.407h1.391l-.01,12.051h-1.576Z"/><path class="d5aeff54-437d-447a-85fd-52c00df3e0cb" d="M487.434,504.464c0,4.1-1.525,6.357-4.2,6.355-2.355,0-3.947-2.209-3.982-6.2,0-4.041,1.748-6.264,4.2-6.262C485.993,498.363,487.438,500.626,487.434,504.464Zm-6.545.179c0,3.134.96,4.914,2.444,4.915,1.669,0,2.466-1.944,2.469-5.022,0-2.966-.756-4.913-2.443-4.915C481.931,499.62,480.892,501.362,480.889,504.643Z"/></g><g id="9ca4762f-62c4-47a7-b83f-aa6b58a72e15" data-name="11"><path class="cefba175-00c7-4517-8c71-61c3cdea429d" d="M546.055,520.479a10.468,10.468,0,1,1-13.664,5.7h0c2.9-7.038,2.822-9.9,3.757-10.295S539.044,517.591,546.055,520.479Z"/><path class="d5aeff54-437d-447a-85fd-52c00df3e0cb" d="M537.075,525.6h-.037l-2.094,1.132-.316-1.242,2.631-1.41h1.391l.008,12.051h-1.576Z"/><path class="d5aeff54-437d-447a-85fd-52c00df3e0cb" d="M546.584,525.594h-.038l-2.093,1.132-.317-1.241,2.632-1.411h1.391l.008,12.051H546.59Z"/></g><g id="7d669c6c-1edd-4383-8380-f6825a4f9bd7" data-name="12"><path class="cefba175-00c7-4517-8c71-61c3cdea429d" d="M578.144,426.027a10.468,10.468,0,1,1,.4,14.8h0c-5.525-5.235-8.227-6.2-8.255-7.209S572.927,431.53,578.144,426.027Z"/><path class="d5aeff54-437d-447a-85fd-52c00df3e0cb" d="M579.5,428.6h-.037l-2.1,1.13-.316-1.242,2.633-1.408h1.391l0,12.05h-1.576Z"/><path class="d5aeff54-437d-447a-85fd-52c00df3e0cb" d="M585.461,439.136v-1l1.28-1.242c3.079-2.928,4.469-4.485,4.488-6.3a2.15,2.15,0,0,0-2.391-2.356,4.1,4.1,0,0,0-2.557,1.019l-.52-1.15a5.289,5.289,0,0,1,3.411-1.222,3.391,3.391,0,0,1,3.689,3.5c0,2.225-1.614,4.022-4.154,6.469l-.965.889v.037l5.414,0v1.353Z"/></g><g id="2fff77eb-b45f-4722-9e3e-087a6af2f02b" data-name="13"><path class="cefba175-00c7-4517-8c71-61c3cdea429d" d="M542.837,242.167a10.468,10.468,0,1,1,6.64,13.232h0c-7.224-2.4-10.078-2.121-10.533-3.027S540.448,249.364,542.837,242.167Z"/><path class="d5aeff54-437d-447a-85fd-52c00df3e0cb" d="M546.8,241.636h-.037l-2.1,1.131-.315-1.242,2.633-1.409h1.39v12.05h-1.576Z"/><path class="d5aeff54-437d-447a-85fd-52c00df3e0cb" d="M553.164,250.293a5.452,5.452,0,0,0,2.67.76c2.094,0,2.743-1.335,2.723-2.336-.018-1.687-1.538-2.41-3.114-2.41h-.908v-1.223h.908c1.186,0,2.688-.613,2.688-2.04,0-.964-.612-1.817-2.113-1.817a4.421,4.421,0,0,0-2.41.8l-.427-1.187a5.732,5.732,0,0,1,3.152-.927c2.373,0,3.448,1.409,3.448,2.873a2.993,2.993,0,0,1-2.225,2.837v.037a3.139,3.139,0,0,1,2.689,3.1c0,1.928-1.5,3.615-4.393,3.615a6.116,6.116,0,0,1-3.134-.815Z"/></g><g id="e29db1ea-b257-4510-8401-ff779b4a05a4" data-name="14"><path class="cefba175-00c7-4517-8c71-61c3cdea429d" d="M153.521,15.667a10.468,10.468,0,1,1,13.628,5.783h0c-7.057,2.851-9.054,4.91-9.987,4.515S156.361,22.7,153.521,15.667Z"/><path class="d5aeff54-437d-447a-85fd-52c00df3e0cb" d="M157.591,7.414h-.037l-2.1,1.129L155.144,7.3l2.634-1.406h1.391l-.013,12.051-1.576,0Z"/><path class="d5aeff54-437d-447a-85fd-52c00df3e0cb" d="M168.59,17.956l0-3.281-5.6-.006V13.593l5.383-7.688,1.762,0-.008,7.49,1.687,0v1.278h-1.687l0,3.281Zm0-4.561,0-4.023q0-.945.058-1.891H168.6c-.372.7-.669,1.223-1,1.779l-2.953,4.094v.037Z"/></g><g id="ac7004b4-6961-4f64-886c-753757566451" data-name="15"><path class="cefba175-00c7-4517-8c71-61c3cdea429d" d="M38.627,21.058A10.468,10.468,0,1,1,52.044,14.8h0c-2.6,7.152-2.409,10.013-3.327,10.442S45.753,23.653,38.627,21.058Z"/><path class="d5aeff54-437d-447a-85fd-52c00df3e0cb" d="M36.578,7.3h-.037L34.446,8.428,34.13,7.186l2.633-1.409h1.391V17.828H36.577Z"/><path class="d5aeff54-437d-447a-85fd-52c00df3e0cb" d="M49.739,7.15h-4.6l-.463,3.1a6.45,6.45,0,0,1,.983-.074,5.088,5.088,0,0,1,2.594.649,3.433,3.433,0,0,1,1.725,3.1,4.18,4.18,0,0,1-4.487,4.115,5.909,5.909,0,0,1-3-.741l.409-1.242a5.4,5.4,0,0,0,2.576.667A2.659,2.659,0,0,0,48.33,14.1c-.019-1.557-1.057-2.67-3.467-2.67a12.542,12.542,0,0,0-1.668.13l.778-5.784h5.766Z"/></g><g id="8fe75be2-5b07-418d-8673-cdc449550cbb" data-name="16"><path class="cefba175-00c7-4517-8c71-61c3cdea429d" d="M20.437,80.793a10.468,10.468,0,1,1-4.254-14.18h0c6.7,3.609,9.561,3.83,9.852,4.8S24.034,74.117,20.437,80.793Z"/><path class="d5aeff54-437d-447a-85fd-52c00df3e0cb" d="M5.816,70.759H5.779l-2.1,1.13-.314-1.242L6,69.239h1.39l0,12.051H5.812Z"/><path class="d5aeff54-437d-447a-85fd-52c00df3e0cb" d="M18.663,70.393a5.939,5.939,0,0,0-1.224.074,4.9,4.9,0,0,0-4.192,4.281H13.3a3.673,3.673,0,0,1,6.543,2.5,4.028,4.028,0,0,1-4,4.244c-2.577,0-4.264-2-4.262-5.137a7.572,7.572,0,0,1,2.042-5.431,6.559,6.559,0,0,1,3.855-1.778,7.883,7.883,0,0,1,1.188-.093ZM18.2,77.345a2.449,2.449,0,0,0-2.484-2.763,2.684,2.684,0,0,0-2.335,1.482,1.391,1.391,0,0,0-.187.723c.037,1.984.944,3.449,2.65,3.45C17.25,80.237,18.2,79.07,18.2,77.345Z"/></g><g id="f3f8c737-3f86-4850-ac6e-aad615468edf" data-name="17"><path class="cefba175-00c7-4517-8c71-61c3cdea429d" d="M71.412,116.722A10.468,10.468,0,1,1,63.7,104.084h0c7.4,1.792,10.219,1.281,10.747,2.146S73.2,109.352,71.412,116.722Z"/><path class="d5aeff54-437d-447a-85fd-52c00df3e0cb" d="M56.839,110.159H56.8l-2.094,1.131-.316-1.242,2.634-1.409h1.391l-.005,12.05H56.836Z"/><path class="d5aeff54-437d-447a-85fd-52c00df3e0cb" d="M70.632,108.644v1.075L65.38,120.693H63.694l5.231-10.658V110l-5.895,0v-1.354Z"/></g><g id="d7b26734-82b7-43da-ae47-407c7961c4a9" data-name="18"><path class="cefba175-00c7-4517-8c71-61c3cdea429d" d="M92.384,184.065a10.468,10.468,0,1,1-8.313-12.25h0c7.476,1.432,10.269.785,10.839,1.623S93.811,176.617,92.384,184.065Z"/><path class="d5aeff54-437d-447a-85fd-52c00df3e0cb" d="M76.91,177.267h-.037L74.779,178.4l-.318-1.242,2.631-1.412,1.391,0L78.5,187.8l-1.577,0Z"/><path class="d5aeff54-437d-447a-85fd-52c00df3e0cb" d="M82.739,184.73a3.445,3.445,0,0,1,2.388-3.229l-.019-.055a2.987,2.987,0,0,1-1.913-2.7c0-1.909,1.608-3.209,3.722-3.212,2.336,0,3.5,1.459,3.507,2.961a3.062,3.062,0,0,1-1.979,2.821v.055a3.342,3.342,0,0,1,2.432,3.112c0,2.094-1.793,3.506-4.092,3.51C84.264,187.991,82.742,186.491,82.739,184.73Zm6.489-.083c0-1.465-1.022-2.168-2.655-2.629a2.618,2.618,0,0,0-2.165,2.488,2.228,2.228,0,0,0,2.413,2.295A2.18,2.18,0,0,0,89.228,184.647Zm-4.494-6.019c0,1.205.91,1.853,2.3,2.221a2.374,2.374,0,0,0,1.832-2.19,1.873,1.873,0,0,0-2.042-1.962A1.916,1.916,0,0,0,84.734,178.628Z"/></g><g id="f90cd1f9-7dcd-4dda-bf6f-bbb61ccc0248" data-name="5"><path class="cefba175-00c7-4517-8c71-61c3cdea429d" d="M446.488,177.936a10.195,10.195,0,1,1,4.187,13.8h0c-6.538-3.494-9.323-3.7-9.61-4.645S443.006,184.449,446.488,177.936Z"/><path class="d5aeff54-437d-447a-85fd-52c00df3e0cb" d="M458.561,178.468l-4.476.006-.448,3.016a6.244,6.244,0,0,1,.956-.074,4.958,4.958,0,0,1,2.529.629,3.344,3.344,0,0,1,1.682,3.012,4.072,4.072,0,0,1-4.363,4.013,5.734,5.734,0,0,1-2.926-.719l.4-1.21a5.26,5.26,0,0,0,2.51.648,2.59,2.59,0,0,0,2.777-2.549c-.02-1.517-1.032-2.6-3.379-2.6a12.313,12.313,0,0,0-1.625.128l.751-5.633,5.614-.006Z"/></g></g><g id="16f96265-c85d-4a18-b1ba-ca1bd14dc378" data-name="Start-Finish Line"><use width="200" height="103.617" transform="translate(178.123 235.621) rotate(-60.537) scale(0.172)" xlink:href="#c6f3f781-3922-4a00-95c3-4095ac512293"/></g></g></g></g></svg>