<svg xmlns="http://www.w3.org/2000/svg" xmlns:xlink="http://www.w3.org/1999/xlink" width="679.172" height="851.684" viewBox="0 0 679.172 851.684"><defs><style>.\39 73e4b1f-c3bb-421b-a4bd-87b4b82d2d1f{fill:#00ff24;}.\39 73e4b1f-c3bb-421b-a4bd-87b4b82d2d1f,.ce45a9c5-c8df-4afa-b384-73564b30b305{stroke:#000;stroke-width:5px;}.\32 5c1ae97-35ca-4f1e-b68f-cd20263ef5c8,.\36 81f701a-9489-4c65-a52d-4b5e6b38f646,.\39 73e4b1f-c3bb-421b-a4bd-87b4b82d2d1f,.ce45a9c5-c8df-4afa-b384-73564b30b305,.d39e57c7-7374-421d-8fe3-10824ae0d5f1,.ea2b9746-58f8-4d30-8d2a-d944c4fea8d2{stroke-miterlimit:10;}.\33 81b2d45-cc3b-48aa-84cf-d156ca5aa0a9,.ce45a9c5-c8df-4afa-b384-73564b30b305{fill:#fff;}.\32 5c1ae97-35ca-4f1e-b68f-cd20263ef5c8,.\36 81f701a-9489-4c65-a52d-4b5e6b38f646,.d39e57c7-7374-421d-8fe3-10824ae0d5f1{fill:none;}.\32 5c1ae97-35ca-4f1e-b68f-cd20263ef5c8,.d39e57c7-7374-421d-8fe3-10824ae0d5f1{stroke:#007fff;}.\32 5c1ae97-35ca-4f1e-b68f-cd20263ef5c8{stroke-width:20px;}.\36 81f701a-9489-4c65-a52d-4b5e6b38f646,.ea2b9746-58f8-4d30-8d2a-d944c4fea8d2{stroke:#fff;}.\36 81f701a-9489-4c65-a52d-4b5e6b38f646{stroke-width:10px;}.d39e57c7-7374-421d-8fe3-10824ae0d5f1{stroke-width:2px;}.ea2b9746-58f8-4d30-8d2a-d944c4fea8d2{fill:#333;stroke-width:1.5px;}</style><symbol id="3b0b34ac-d91b-48a6-8e72-f4da4d2f4ede" data-name="fd103434-89f2-4089-acf9-54fed79ed404" viewBox="0 0 200 103.617"><rect class="973e4b1f-c3bb-421b-a4bd-87b4b82d2d1f" x="2.5" y="54.074" width="195" height="47.043"/><rect class="ce45a9c5-c8df-4afa-b384-73564b30b305" x="2.5" y="2.5" width="48.75" height="48.75"/><rect class="ce45a9c5-c8df-4afa-b384-73564b30b305" x="51.25" y="2.5" width="48.75" height="48.75"/><rect class="ce45a9c5-c8df-4afa-b384-73564b30b305" x="100" y="2.5" width="48.75" height="48.75"/><rect class="ce45a9c5-c8df-4afa-b384-73564b30b305" x="148.75" y="2.5" width="48.75" height="48.75"/></symbol></defs><title>Behind_The_Planes</title><g id="65d5e08f-c5ef-4ca8-8218-437249d8785d" data-name="Layer 2"><g id="86d93d23-75be-4829-95c8-db59045f243f" data-name="Airport"><g id="7c2706f2-3be3-4263-8f21-82a13ae19e4f" data-name="Behind_The_Planes"><g id="0c9dc8cb-2aef-4baf-8728-dba47409d564" data-name="Track-Outer"><path class="25c1ae97-35ca-4f1e-b68f-cd20263ef5c8" d="M198.553,203.37l-36.138,58.406a38.861,38.861,0,0,1-22.48,16.979A137.8,137.8,0,0,0,75.5,318.9c-7.313,8.066-21.91,24-29.562,48.937A152.137,152.137,0,0,0,40.434,392c-.6,3.828-.741,5.316-2.5,18.333-2.963,21.926-3.285,25.675-3.667,37.917-.266,8.524-.692,16.917-.118,20.708a63.991,63.991,0,0,0,6.785,20.625c12.552,23.662,16.764,32.862,18.666,36,7.3,12.046,13.988,23.078,27,33.167,6.047,4.689,10.555,6.922,18.334,11,32.313,16.942,23.831,13.85,48.666,27.166,5.731,3.073,16.152,8.583,25.8,13.67a25.073,25.073,0,0,0,33.69-10.133q.8-1.464,1.611-2.919a9.8,9.8,0,0,1,13.638-3.606l57.729,34.885a34.927,34.927,0,0,1,15.348,19.7c5.324,17.462,8.689,32.139,10.856,42.905,7.75,38.507,6.362,57.743,21.833,82a130.206,130.206,0,0,0,21.334,25c5.168,4.915,22.03,19.306,48.75,30.917,20.577,8.943,30.395,13.544,44.25,12.083,24.5-2.583,33.911-14.03,43-23.958,8.2-8.954,21.373-27.134,23.333-50.708,1.793-21.574-7.519-37.9-11-44-7.579-13.284-17.169-21.379-26-28.834-7.867-6.64-14.185-10.572-26.5-18.166-6.307-3.888-14.3-8.608-23.808-13.737a13.4,13.4,0,0,1-5.668-17.686c16-32.627,31.22-60.18,44.143-82.244,24.857-42.441,37.392-58.052,53.833-71.167,4.229-3.378,12.133-9.321,27.667-21,29.751-22.369,33.543-24.555,40.833-31.166,13.541-12.279,20.943-23.9,33.833-43,5.554-8.227,10.352-15.94,14.437-22.883a19.061,19.061,0,0,0-7.6-26.537l-20.778-10.9a14.073,14.073,0,0,1-5.607-19.576l11.79-20.128a7.468,7.468,0,0,0-3.194-10.5l-4.337-2.1a9.034,9.034,0,0,1-4.05-12.395q3.327-6.187,7.17-12.656c5.488-9.206,11.066-17.533,16.5-25l15.835-19.423a8.985,8.985,0,0,0-1.014-12.417c-9.844-8.695-22.662-20.557-36.988-35.327-7.906-8.151-13.45-14.278-15.167-16.166-13.928-15.311-43.322-46.023-107-107.25a8.979,8.979,0,0,0-12.524.085c-16.787,16.521-33.211,33.93-49.917,50.651a15.561,15.561,0,0,1-15.019,4.047l-31.089-8.291a5.2,5.2,0,0,1-.555-.18,171.284,171.284,0,0,1-35.729-18.9c-8.076-5.585-14.207-11.485-19.833-16.833-4.084-3.75-9.26-10.514-17.834-15.833-5.611-3.48-15.365-9.53-28.333-8.667a61,61,0,0,0-35.833,15.5c-9.654,8.306-13.243,16.038-16.625,23.125-6.538,13.7-4.25,28.459-4.25,43.625,0,16.807.183,17.842-1.125,33.583a292.691,292.691,0,0,1-4.642,32.867A78.671,78.671,0,0,1,198.553,203.37Z"/></g><g id="aa01d699-49aa-49db-9fae-4a8c1adead1d" data-name="Track-Mid"><path class="681f701a-9489-4c65-a52d-4b5e6b38f646" d="M198.546,203.406l-36.139,58.406a38.855,38.855,0,0,1-22.479,16.979,137.8,137.8,0,0,0-64.44,40.142c-7.313,8.066-21.909,24-29.562,48.937a152.246,152.246,0,0,0-5.5,24.167c-.6,3.828-.741,5.316-2.5,18.333-2.963,21.926-3.285,25.675-3.667,37.917-.266,8.524-.691,16.917-.118,20.708a63.991,63.991,0,0,0,6.785,20.625c12.552,23.662,16.764,32.862,18.667,36,7.3,12.046,13.988,23.078,27,33.167,6.046,4.689,10.554,6.922,18.333,11,32.314,16.942,23.831,13.85,48.667,27.166,5.73,3.073,16.151,8.583,25.8,13.67a25.072,25.072,0,0,0,33.689-10.133q.8-1.464,1.611-2.919a9.806,9.806,0,0,1,13.639-3.606l57.729,34.885a34.934,34.934,0,0,1,15.348,19.7c5.323,17.461,8.688,32.138,10.855,42.9,7.75,38.507,6.362,57.744,21.834,82a130.176,130.176,0,0,0,21.333,25c5.168,4.915,22.03,19.306,48.75,30.917,20.578,8.943,30.4,13.544,44.25,12.083,24.5-2.583,33.912-14.03,43-23.958,8.2-8.954,21.373-27.133,23.333-50.708,1.794-21.574-7.518-37.9-11-44-7.578-13.284-17.169-21.379-26-28.834-7.866-6.64-14.184-10.572-26.5-18.166-6.307-3.888-14.3-8.608-23.808-13.737a13.4,13.4,0,0,1-5.668-17.686c16-32.627,31.22-60.18,44.143-82.244,24.858-42.441,37.392-58.051,53.833-71.167,4.229-3.378,12.133-9.321,27.667-21,29.751-22.369,33.544-24.555,40.833-31.166,13.541-12.279,20.943-23.9,33.834-43,5.553-8.227,10.352-15.94,14.436-22.882a19.062,19.062,0,0,0-7.6-26.538l-20.778-10.9a14.073,14.073,0,0,1-5.607-19.576l11.791-20.128a7.469,7.469,0,0,0-3.194-10.5l-4.337-2.1a9.032,9.032,0,0,1-4.05-12.394q3.326-6.189,7.169-12.657c5.488-9.206,11.066-17.533,16.5-25q7.917-9.711,15.835-19.423a8.986,8.986,0,0,0-1.013-12.417c-9.844-8.694-22.663-20.557-36.989-35.327-7.906-8.151-13.449-14.278-15.166-16.166-13.929-15.311-43.322-46.023-107-107.25a8.979,8.979,0,0,0-12.524.085c-16.787,16.521-33.212,33.93-49.917,50.651a15.563,15.563,0,0,1-15.02,4.047l-31.088-8.291a5.06,5.06,0,0,1-.555-.18,171.216,171.216,0,0,1-35.73-18.9c-8.076-5.585-14.206-11.485-19.833-16.833-4.083-3.75-9.26-10.514-17.833-15.833-5.612-3.48-15.365-9.53-28.334-8.667a61,61,0,0,0-35.833,15.5c-9.654,8.306-13.243,16.038-16.625,23.125-6.537,13.7-4.25,28.459-4.25,43.625,0,16.807.184,17.842-1.125,33.583a292.653,292.653,0,0,1-4.641,32.867A78.714,78.714,0,0,1,198.546,203.406Z"/></g><g id="964dd7bd-f63f-4b0d-8bbc-ec9cfa95e1db" data-name="Track-Inner"><path class="d39e57c7-7374-421d-8fe3-10824ae0d5f1" d="M198.546,203.37l-36.139,58.406a38.859,38.859,0,0,1-22.479,16.979A137.8,137.8,0,0,0,75.488,318.9c-7.313,8.066-21.909,24-29.562,48.937A152.246,152.246,0,0,0,40.426,392c-.6,3.828-.741,5.316-2.5,18.333-2.963,21.926-3.285,25.675-3.667,37.917-.266,8.524-.691,16.917-.118,20.708a63.991,63.991,0,0,0,6.785,20.625c12.552,23.662,16.764,32.862,18.667,36,7.3,12.046,13.988,23.078,27,33.167,6.046,4.689,10.554,6.922,18.333,11,32.314,16.942,23.831,13.85,48.667,27.166,5.73,3.073,16.151,8.583,25.8,13.67a25.072,25.072,0,0,0,33.689-10.133q.8-1.464,1.611-2.919a9.806,9.806,0,0,1,13.639-3.606l57.729,34.885a34.935,34.935,0,0,1,15.348,19.7c5.323,17.462,8.688,32.139,10.855,42.905,7.75,38.507,6.362,57.743,21.834,82a130.208,130.208,0,0,0,21.333,25c5.168,4.915,22.03,19.306,48.75,30.917,20.578,8.943,30.4,13.544,44.25,12.083,24.5-2.583,33.912-14.03,43-23.958,8.2-8.954,21.373-27.134,23.333-50.708,1.794-21.574-7.518-37.9-11-44-7.578-13.284-17.169-21.379-26-28.834-7.866-6.64-14.184-10.572-26.5-18.166-6.307-3.888-14.3-8.608-23.808-13.737a13.4,13.4,0,0,1-5.668-17.686c16-32.627,31.22-60.18,44.143-82.244,24.858-42.441,37.392-58.052,53.833-71.167,4.229-3.378,12.133-9.321,27.667-21,29.751-22.369,33.544-24.555,40.833-31.166,13.541-12.279,20.943-23.9,33.834-43,5.553-8.227,10.352-15.94,14.436-22.883a19.061,19.061,0,0,0-7.6-26.537l-20.778-10.9a14.073,14.073,0,0,1-5.607-19.576q5.895-10.064,11.791-20.128a7.469,7.469,0,0,0-3.194-10.5l-4.337-2.1a9.033,9.033,0,0,1-4.05-12.395q3.326-6.187,7.169-12.656c5.488-9.206,11.066-17.533,16.5-25q7.917-9.711,15.835-19.423a8.985,8.985,0,0,0-1.013-12.417c-9.844-8.695-22.663-20.557-36.989-35.327-7.906-8.151-13.449-14.278-15.166-16.166-13.929-15.311-43.322-46.023-107-107.25a8.979,8.979,0,0,0-12.524.085c-16.787,16.521-33.212,33.93-49.917,50.651a15.563,15.563,0,0,1-15.02,4.047l-31.088-8.291a5.06,5.06,0,0,1-.555-.18,171.264,171.264,0,0,1-35.73-18.9c-8.076-5.585-14.206-11.485-19.833-16.833-4.083-3.75-9.26-10.514-17.833-15.833-5.612-3.48-15.365-9.53-28.334-8.667a61,61,0,0,0-35.833,15.5c-9.654,8.306-13.243,16.038-16.625,23.125-6.537,13.7-4.25,28.459-4.25,43.625,0,16.807.184,17.842-1.125,33.583a292.653,292.653,0,0,1-4.641,32.867A78.714,78.714,0,0,1,198.546,203.37Z"/></g><g id="a6eb0631-4e9c-46b3-b737-a215c28b5f0c" data-name="Corner Numbers"><g id="27a8ae7a-f3cf-45b8-b428-ddc77dc5bc64" data-name="1"><path class="ea2b9746-58f8-4d30-8d2a-d944c4fea8d2" d="M171.343,276.584a10.417,10.417,0,1,1-10.1,10.722h0c-.225-7.571-1.457-10.145-.766-10.879S163.8,276.807,171.343,276.584Z"/><path class="381b2d45-cc3b-48aa-84cf-d156ca5aa0a9" d="M170.6,282.361h-.037l-2.065,1.16-.334-1.23,2.595-1.447,1.383-.023.2,11.989-1.568.026Z"/></g><g id="ca18a938-5ebc-4b75-94f9-3e2c05073726" data-name="2"><path class="ea2b9746-58f8-4d30-8d2a-d944c4fea8d2" d="M42.762,333.548a10.811,10.811,0,1,1,9.028-12.34h0c1.2,7.769,2.8,10.262,2.185,11.107S50.5,332.35,42.762,333.548Z"/><path class="381b2d45-cc3b-48aa-84cf-d156ca5aa0a9" d="M37.51,328.7v-1.034l1.321-1.284c3.177-3.026,4.613-4.636,4.631-6.513a2.221,2.221,0,0,0-2.472-2.43,4.24,4.24,0,0,0-2.642,1.054l-.537-1.187a5.466,5.466,0,0,1,3.523-1.266,3.5,3.5,0,0,1,3.813,3.617c0,2.3-1.664,4.158-4.286,6.686l-.995.92v.039l5.592,0v1.4Z"/></g><g id="de80a38f-7fe5-4618-905e-be33a8ad870d" data-name="3"><path class="ea2b9746-58f8-4d30-8d2a-d944c4fea8d2" d="M19.281,480.059a10.512,10.512,0,1,1-1.22-14.817h0c5.83,4.943,8.592,5.757,8.677,6.771S24.207,474.251,19.281,480.059Z"/><path class="381b2d45-cc3b-48aa-84cf-d156ca5aa0a9" d="M8.06,477.477a5.483,5.483,0,0,0,2.681.763c2.1,0,2.755-1.339,2.737-2.345-.019-1.694-1.545-2.42-3.127-2.421H9.438v-1.229h.913c1.191,0,2.7-.613,2.7-2.047,0-.967-.614-1.824-2.122-1.824a4.438,4.438,0,0,0-2.42.8l-.428-1.191a5.738,5.738,0,0,1,3.165-.93c2.382,0,3.462,1.414,3.462,2.885a3,3,0,0,1-2.234,2.848v.037a3.153,3.153,0,0,1,2.7,3.109c0,1.936-1.508,3.631-4.413,3.631a6.159,6.159,0,0,1-3.146-.821Z"/></g><g id="20def4ff-dae2-4427-b594-4377078679c5" data-name="4"><path class="ea2b9746-58f8-4d30-8d2a-d944c4fea8d2" d="M74.537,569.989a10.195,10.195,0,1,1-9.593-10.764h0c7.4.426,10.015-.556,10.672.181S74.962,562.615,74.537,569.989Z"/><path class="381b2d45-cc3b-48aa-84cf-d156ca5aa0a9" d="M65.613,574.883l0-3.2-5.451,0v-1.047l5.241-7.486,1.716,0-.007,7.293h1.642v1.245H67.115l0,3.195Zm0-4.44,0-3.917q0-.923.056-1.842h-.054c-.362.686-.651,1.191-.977,1.732L61.772,570.4v.036Z"/></g><g id="290099b8-c29f-4b55-8476-00f0f2e474fa" data-name="6"><path class="ea2b9746-58f8-4d30-8d2a-d944c4fea8d2" d="M213.605,576.64a10.521,10.521,0,1,1,14.864-.655h0c-5.166,5.642-6.086,8.373-7.1,8.419S219.225,581.788,213.605,576.64Z"/><path class="381b2d45-cc3b-48aa-84cf-d156ca5aa0a9" d="M223.58,564.377a5.927,5.927,0,0,0-1.229.075,4.923,4.923,0,0,0-4.209,4.3h.056a3.692,3.692,0,0,1,6.577,2.513,4.049,4.049,0,0,1-4.022,4.268c-2.589,0-4.286-2.01-4.287-5.159a7.616,7.616,0,0,1,2.047-5.46,6.6,6.6,0,0,1,3.874-1.789,7.864,7.864,0,0,1,1.193-.1Zm-.462,6.987a2.461,2.461,0,0,0-2.5-2.775,2.7,2.7,0,0,0-2.348,1.491,1.417,1.417,0,0,0-.185.727c.038,1.993.952,3.466,2.665,3.465C222.168,574.272,223.118,573.1,223.118,571.364Z"/></g><g id="36cb1eff-3e95-46d0-b9cf-c6fb50bb14b3" data-name="7"><path class="ea2b9746-58f8-4d30-8d2a-d944c4fea8d2" d="M308.345,624.858a10.468,10.468,0,1,1,6.125,13.477h0c-7.126-2.673-9.989-2.507-10.409-3.43S305.681,631.958,308.345,624.858Z"/><path class="381b2d45-cc3b-48aa-84cf-d156ca5aa0a9" d="M322.755,622.873v1.075L317.5,634.919h-1.687l5.236-10.656v-.037l-5.9,0v-1.354Z"/></g><g id="b459acb2-e34d-485c-a065-e21df39f3ac2" data-name="8"><path class="ea2b9746-58f8-4d30-8d2a-d944c4fea8d2" d="M310.592,765.01a10.468,10.468,0,1,1-3.362-14.417h0c6.464,4.019,9.3,4.419,9.534,5.405S314.6,758.571,310.592,765.01Z"/><path class="381b2d45-cc3b-48aa-84cf-d156ca5aa0a9" d="M297.855,762.306a3.444,3.444,0,0,1,2.392-3.226l-.019-.055a2.983,2.983,0,0,1-1.908-2.707c0-1.91,1.614-3.207,3.727-3.207,2.336,0,3.5,1.465,3.5,2.966a3.062,3.062,0,0,1-1.985,2.819v.055A3.343,3.343,0,0,1,306,762.066c0,2.095-1.8,3.5-4.1,3.5C299.375,765.57,297.855,764.068,297.855,762.306Zm6.49-.073c0-1.465-1.02-2.169-2.652-2.633a2.617,2.617,0,0,0-2.169,2.484,2.229,2.229,0,0,0,2.411,2.3A2.18,2.18,0,0,0,304.345,762.233Zm-4.486-6.026c0,1.205.908,1.854,2.3,2.225a2.377,2.377,0,0,0,1.836-2.188,1.872,1.872,0,0,0-2.039-1.964A1.915,1.915,0,0,0,299.859,756.207Z"/></g><g id="37df5336-84e6-4795-b1ed-c3ae9f17b28f" data-name="9"><path class="ea2b9746-58f8-4d30-8d2a-d944c4fea8d2" d="M520.281,805.1a10.468,10.468,0,1,1-8.554,12.082h0c-1.283-7.5-2.868-9.892-2.283-10.72S512.806,806.375,520.281,805.1Z"/><path class="381b2d45-cc3b-48aa-84cf-d156ca5aa0a9" d="M518.966,820.146a6.748,6.748,0,0,0,1.315-.06,4.531,4.531,0,0,0,2.519-1.175,5.282,5.282,0,0,0,1.586-3.212h-.056a3.534,3.534,0,0,1-2.833,1.3,3.491,3.491,0,0,1-3.57-3.68,4.131,4.131,0,0,1,4.105-4.293c2.466-.006,3.991,1.992,4,5.069a7.615,7.615,0,0,1-2.062,5.66,6.024,6.024,0,0,1-3.5,1.623,7.663,7.663,0,0,1-1.5.1Zm.574-6.936a2.318,2.318,0,0,0,2.324,2.552,2.7,2.7,0,0,0,2.37-1.267,1.074,1.074,0,0,0,.147-.593c-.006-2.058-.77-3.632-2.476-3.627C520.515,810.279,519.535,811.5,519.54,813.21Z"/></g><g id="d7afadb5-98e7-41ab-8438-d5a6e1ab8f7f" data-name="10"><path class="ea2b9746-58f8-4d30-8d2a-d944c4fea8d2" d="M407.229,665.577a10.468,10.468,0,1,1-2.5-14.592h0c6.212,4.4,9.023,4.966,9.194,5.965S411.612,659.389,407.229,665.577Z"/><path class="381b2d45-cc3b-48aa-84cf-d156ca5aa0a9" d="M393.19,655.4h-.037l-2.092,1.136-.318-1.242,2.629-1.416,1.391,0,.033,12.051-1.576,0Z"/><path class="381b2d45-cc3b-48aa-84cf-d156ca5aa0a9" d="M407.18,659.734c.011,4.1-1.5,6.363-4.173,6.37-2.355.007-3.955-2.2-4-6.181-.011-4.042,1.726-6.271,4.174-6.278C405.718,653.638,407.17,655.9,407.18,659.734Zm-6.544.2c.008,3.133.977,4.91,2.461,4.906,1.669,0,2.46-1.953,2.452-5.03-.009-2.967-.774-4.911-2.461-4.907C401.66,654.909,400.627,656.656,400.636,659.937Z"/></g><g id="ee5c9fac-a343-4d4b-8ca0-4bcc25590695" data-name="11"><path class="ea2b9746-58f8-4d30-8d2a-d944c4fea8d2" d="M495.909,491.221a10.468,10.468,0,1,1,10.941-9.973h0c-.352,7.6.686,10.277-.063,10.96S503.485,491.573,495.909,491.221Z"/><path class="381b2d45-cc3b-48aa-84cf-d156ca5aa0a9" d="M491.741,477.064H491.7l-2.1,1.13-.315-1.243,2.633-1.408h1.39l0,12.051h-1.576Z"/><path class="381b2d45-cc3b-48aa-84cf-d156ca5aa0a9" d="M501.25,477.065h-.037l-2.1,1.131-.315-1.243,2.633-1.409h1.39l0,12.051h-1.576Z"/></g><g id="78ec3871-f395-4cfb-a9d6-2f68bcf16bc1" data-name="12"><path class="ea2b9746-58f8-4d30-8d2a-d944c4fea8d2" d="M614.045,435.67a10.468,10.468,0,1,1-10.289,10.644h0c-.129-7.611-1.334-10.213-.63-10.942S606.462,435.8,614.045,435.67Z"/><path class="381b2d45-cc3b-48aa-84cf-d156ca5aa0a9" d="M608.282,441.059h-.037l-2.093,1.134-.317-1.243,2.631-1.412,1.39,0,.017,12.051-1.576,0Z"/><path class="381b2d45-cc3b-48aa-84cf-d156ca5aa0a9" d="M614.265,451.581l0-1,1.278-1.244c3.074-2.933,4.462-4.492,4.478-6.309a2.15,2.15,0,0,0-2.395-2.352,4.114,4.114,0,0,0-2.557,1.023l-.52-1.148a5.277,5.277,0,0,1,3.409-1.228,3.391,3.391,0,0,1,3.694,3.5c0,2.224-1.608,4.025-4.143,6.475l-.964.892v.037l5.414-.008,0,1.354Z"/></g><g id="916a472b-51e7-4db8-8b0b-258a412041f4" data-name="13"><path class="ea2b9746-58f8-4d30-8d2a-d944c4fea8d2" d="M653.046,351.034a10.468,10.468,0,1,1,3.586,14.363h0c-6.525-3.918-9.371-4.273-9.617-5.256S649.141,357.535,653.046,351.034Z"/><path class="381b2d45-cc3b-48aa-84cf-d156ca5aa0a9" d="M656.188,352.226h-.037l-2.094,1.13-.316-1.242,2.633-1.409h1.391l0,12.051h-1.577Z"/><path class="381b2d45-cc3b-48aa-84cf-d156ca5aa0a9" d="M662.544,360.884a5.451,5.451,0,0,0,2.67.761c2.095,0,2.743-1.334,2.725-2.335-.018-1.688-1.538-2.411-3.114-2.411h-.908v-1.224h.908c1.187,0,2.689-.611,2.689-2.039,0-.964-.612-1.816-2.113-1.817a4.429,4.429,0,0,0-2.41.8l-.427-1.186a5.724,5.724,0,0,1,3.152-.926c2.373,0,3.448,1.409,3.448,2.874a2.993,2.993,0,0,1-2.226,2.836v.037a3.14,3.14,0,0,1,2.689,3.1c0,1.928-1.5,3.614-4.395,3.614a6.128,6.128,0,0,1-3.133-.816Z"/></g><g id="3ad9825c-1bde-4ad9-bf65-40046507849b" data-name="14"><path class="ea2b9746-58f8-4d30-8d2a-d944c4fea8d2" d="M586.585,338.2a10.468,10.468,0,1,1-2.555-14.581h0c6.23,4.372,9.043,4.928,9.219,5.926S590.943,331.99,586.585,338.2Z"/><path class="381b2d45-cc3b-48aa-84cf-d156ca5aa0a9" d="M572.424,327.468h-.037l-2.094,1.133-.316-1.242,2.631-1.411H574l.008,12.05h-1.576Z"/><path class="381b2d45-cc3b-48aa-84cf-d156ca5aa0a9" d="M583.441,337.99l0-3.281-5.6,0v-1.075l5.371-7.7,1.762,0,0,7.49h1.686v1.279h-1.687l0,3.281Zm0-4.56,0-4.023q0-.945.054-1.891h-.055c-.372.7-.666,1.224-1,1.78l-2.946,4.1v.037Z"/></g><g id="87e659b9-6ad5-40ca-a930-bfb5e4030084" data-name="15"><path class="ea2b9746-58f8-4d30-8d2a-d944c4fea8d2" d="M628.13,279.806a10.468,10.468,0,1,1,4.719,14.031h0c-6.817-3.386-9.682-3.513-10-4.473S624.755,286.6,628.13,279.806Z"/><path class="381b2d45-cc3b-48aa-84cf-d156ca5aa0a9" d="M631.6,280.524h-.038l-2.1,1.128-.314-1.243L631.789,279l1.391,0-.013,12.05h-1.576Z"/><path class="381b2d45-cc3b-48aa-84cf-d156ca5aa0a9" d="M644.764,280.389l-4.6,0-.467,3.1a6.45,6.45,0,0,1,.983-.074,5.091,5.091,0,0,1,2.594.653,3.43,3.43,0,0,1,1.721,3.1,4.179,4.179,0,0,1-4.49,4.111,5.906,5.906,0,0,1-3-.744l.41-1.242a5.405,5.405,0,0,0,2.576.67,2.659,2.659,0,0,0,2.858-2.611c-.017-1.558-1.054-2.671-3.464-2.674a12.588,12.588,0,0,0-1.668.128l.784-5.783,5.766.007Z"/></g><g id="aa36bc7f-7c47-4941-be14-2f37bebb272a" data-name="16"><path class="ea2b9746-58f8-4d30-8d2a-d944c4fea8d2" d="M586,286.867a10.468,10.468,0,1,1-.5-14.8h0c5.56,5.2,8.268,6.141,8.3,7.154S591.182,281.329,586,286.867Z"/><path class="381b2d45-cc3b-48aa-84cf-d156ca5aa0a9" d="M572.585,275.489h-.037l-2.093,1.133-.317-1.241,2.631-1.413,1.39,0,.018,12.051-1.576,0Z"/><path class="381b2d45-cc3b-48aa-84cf-d156ca5aa0a9" d="M585.432,275.1a5.886,5.886,0,0,0-1.224.076,4.9,4.9,0,0,0-4.185,4.289h.056a3.673,3.673,0,0,1,6.548,2.493,4.029,4.029,0,0,1-4,4.251c-2.577,0-4.268-2-4.273-5.129a7.578,7.578,0,0,1,2.033-5.435,6.558,6.558,0,0,1,3.853-1.785,7.8,7.8,0,0,1,1.188-.095Zm-.454,6.953a2.45,2.45,0,0,0-2.489-2.759,2.687,2.687,0,0,0-2.334,1.487,1.389,1.389,0,0,0-.184.723c.04,1.984.95,3.447,2.656,3.445C584.036,284.946,584.979,283.777,584.978,282.052Z"/></g><g id="6edac98a-d5ff-4d39-8863-561cc8d4951e" data-name="17"><path class="ea2b9746-58f8-4d30-8d2a-d944c4fea8d2" d="M660.73,201.831a10.468,10.468,0,1,1-.351,14.8h0c-5.253-5.508-7.9-6.6-7.879-7.618S655.241,207.063,660.73,201.831Z"/><path class="381b2d45-cc3b-48aa-84cf-d156ca5aa0a9" d="M661.629,205.332h-.037l-2.1,1.13-.314-1.242,2.632-1.408h1.391l0,12.05h-1.576Z"/><path class="381b2d45-cc3b-48aa-84cf-d156ca5aa0a9" d="M675.421,203.818v1.075l-5.252,10.973h-1.687l5.233-10.658v-.037l-5.9,0v-1.353Z"/></g><g id="eda6aaa6-0d5b-4870-847d-491e2290bbbd" data-name="18"><path class="ea2b9746-58f8-4d30-8d2a-d944c4fea8d2" d="M468.4,23.973a10.468,10.468,0,1,1,14.8.351h0c-5.508,5.253-6.6,7.9-7.618,7.879S473.636,29.462,468.4,23.973Z"/><path class="381b2d45-cc3b-48aa-84cf-d156ca5aa0a9" d="M470.153,12.168h-.037l-2.1,1.13-.314-1.242,2.633-1.408h1.39l0,12.049h-1.577Z"/><path class="381b2d45-cc3b-48aa-84cf-d156ca5aa0a9" d="M475.969,19.642a3.444,3.444,0,0,1,2.393-3.225l-.018-.055a2.987,2.987,0,0,1-1.908-2.708c0-1.91,1.614-3.206,3.727-3.206,2.336,0,3.5,1.466,3.5,2.968a3.06,3.06,0,0,1-1.984,2.817v.055a3.342,3.342,0,0,1,2.426,3.117c0,2.094-1.8,3.5-4.1,3.5C477.488,22.906,475.968,21.4,475.969,19.642Zm6.489-.071c0-1.465-1.019-2.17-2.649-2.634a2.617,2.617,0,0,0-2.171,2.483,2.228,2.228,0,0,0,2.409,2.3A2.179,2.179,0,0,0,482.458,19.571Zm-4.483-6.028c0,1.205.907,1.855,2.3,2.226a2.373,2.373,0,0,0,1.836-2.187,1.872,1.872,0,0,0-2.038-1.966A1.916,1.916,0,0,0,477.975,13.543Z"/></g><g id="6293c190-bf6c-48f6-955b-163506bad7ed" data-name="19"><path class="ea2b9746-58f8-4d30-8d2a-d944c4fea8d2" d="M423.906,111.223a10.468,10.468,0,1,1-14.46,3.174h0c4.1-6.411,4.539-9.245,5.529-9.463S417.519,107.133,423.906,111.223Z"/><path class="381b2d45-cc3b-48aa-84cf-d156ca5aa0a9" d="M412.834,115.97H412.8L410.7,117.1l-.317-1.241,2.631-1.413h1.39l.016,12.05-1.576,0Z"/><path class="381b2d45-cc3b-48aa-84cf-d156ca5aa0a9" d="M419.759,125.342a6.732,6.732,0,0,0,1.316-.058,4.546,4.546,0,0,0,2.521-1.17,5.287,5.287,0,0,0,1.59-3.209h-.056a3.534,3.534,0,0,1-2.835,1.3,3.491,3.491,0,0,1-3.565-3.684,4.134,4.134,0,0,1,4.112-4.288c2.466,0,3.989,2,3.992,5.075a7.615,7.615,0,0,1-2.069,5.657,6.027,6.027,0,0,1-3.5,1.617,7.569,7.569,0,0,1-1.5.1Zm.585-6.935a2.319,2.319,0,0,0,2.321,2.556,2.7,2.7,0,0,0,2.371-1.264,1.066,1.066,0,0,0,.148-.593c0-2.058-.764-3.633-2.47-3.631C421.323,115.477,420.342,116.7,420.344,118.407Z"/></g><g id="bcbb41f7-208b-416b-806c-188ae2b2ca98" data-name="20"><path class="ea2b9746-58f8-4d30-8d2a-d944c4fea8d2" d="M239.912,20.914a10.468,10.468,0,1,1,13.646-5.74h0c-2.875,7.048-2.791,9.914-3.725,10.308S246.933,23.779,239.912,20.914Z"/><path class="381b2d45-cc3b-48aa-84cf-d156ca5aa0a9" d="M236.334,16.776V15.85l1.193-1.149c2.869-2.708,4.166-4.147,4.185-5.828a2,2,0,0,0-2.227-2.18,3.842,3.842,0,0,0-2.385.941l-.483-1.063a4.945,4.945,0,0,1,3.18-1.13,3.148,3.148,0,0,1,3.434,3.245c0,2.057-1.5,3.72-3.873,5.982l-.9.822v.035l5.043,0v1.252Z"/><path class="381b2d45-cc3b-48aa-84cf-d156ca5aa0a9" d="M252.664,11.093c0,3.791-1.421,5.882-3.908,5.88-2.194,0-3.678-2.044-3.709-5.732,0-3.738,1.628-5.795,3.907-5.793C251.321,5.449,252.667,7.543,252.664,11.093Zm-6.1.167c0,2.9.9,4.546,2.277,4.547,1.555,0,2.3-1.8,2.3-4.647,0-2.744-.705-4.546-2.277-4.546C247.537,6.613,246.569,8.224,246.566,11.26Z"/></g><g id="6a1a8a6a-39f7-400e-8d4d-172790bb901f" data-name="21"><path class="ea2b9746-58f8-4d30-8d2a-d944c4fea8d2" d="M225.574,179.172a10.468,10.468,0,1,1-3.909,14.278h0c-3.77-6.612-6.077-8.315-5.809-9.293S218.985,182.926,225.574,179.172Z"/><path class="381b2d45-cc3b-48aa-84cf-d156ca5aa0a9" d="M223.622,193.241v-.925l1.19-1.151c2.863-2.715,4.157-4.157,4.172-5.838a2,2,0,0,0-2.232-2.174,3.833,3.833,0,0,0-2.382.946l-.485-1.063a4.952,4.952,0,0,1,3.177-1.136,3.148,3.148,0,0,1,3.441,3.237c0,2.058-1.5,3.724-3.86,5.991l-.9.824v.035l5.043-.007,0,1.252Z"/><path class="381b2d45-cc3b-48aa-84cf-d156ca5aa0a9" d="M235.77,183.483h-.034l-1.95,1.048-.3-1.148,2.451-1.308,1.295,0,.016,11.149-1.468,0Z"/></g><g id="0b30e9e6-0c0b-4f5c-b2eb-203a9d0d75d9" data-name="5"><path class="ea2b9746-58f8-4d30-8d2a-d944c4fea8d2" d="M212.045,623.724a10.195,10.195,0,1,1-13.4,5.331h0c2.933-6.808,2.905-9.6,3.821-9.966S205.263,620.8,212.045,623.724Z"/><path class="381b2d45-cc3b-48aa-84cf-d156ca5aa0a9" d="M210.905,628.219h-4.477l-.451,3.015a6.265,6.265,0,0,1,.956-.073,4.96,4.96,0,0,1,2.527.632,3.344,3.344,0,0,1,1.679,3.015,4.071,4.071,0,0,1-4.369,4.007,5.746,5.746,0,0,1-2.924-.722l.4-1.21a5.25,5.25,0,0,0,2.509.65,2.588,2.588,0,0,0,2.78-2.544c-.017-1.517-1.028-2.6-3.375-2.6a12.157,12.157,0,0,0-1.624.126l.758-5.632h5.614Z"/></g></g><g id="8a87d0c6-def0-4764-a6fe-eeafea95240c" data-name="Start-Finish Line"><use width="200" height="103.617" transform="matrix(0.156, 0.093, -0.093, 0.156, 190.243, 181.317)" xlink:href="#3b0b34ac-d91b-48a6-8e72-f4da4d2f4ede"/></g></g></g></g></svg>