<svg xmlns="http://www.w3.org/2000/svg" xmlns:xlink="http://www.w3.org/1999/xlink" width="572.51" height="573.558" viewBox="0 0 572.51 573.558"><defs><style>.\34 44d7bc2-de91-4f47-b829-f801dab30e15{fill:#00ff24;}.\34 44d7bc2-de91-4f47-b829-f801dab30e15,.b641dc13-523c-4ea3-be8f-5fc59ae11fe4{stroke:#000;stroke-width:5px;}.\31 54f7ed5-0597-464b-b213-433556e35eca,.\34 44d7bc2-de91-4f47-b829-f801dab30e15,.\38 eb86c4b-b577-47c4-a050-a210c8ea4966,.a5c8b54e-2e6b-48cc-a8f9-92d3678ec5dc,.b641dc13-523c-4ea3-be8f-5fc59ae11fe4,.fa34d8ed-b865-4605-9e5c-433ee1ee86b9{stroke-miterlimit:10;}.b641dc13-523c-4ea3-be8f-5fc59ae11fe4,.ef92fce0-1537-4dbf-a8f7-ff1084e37d1a{fill:#fff;}.\31 54f7ed5-0597-464b-b213-433556e35eca,.a5c8b54e-2e6b-48cc-a8f9-92d3678ec5dc,.fa34d8ed-b865-4605-9e5c-433ee1ee86b9{fill:none;}.\31 54f7ed5-0597-464b-b213-433556e35eca,.fa34d8ed-b865-4605-9e5c-433ee1ee86b9{stroke:#007fff;}.\31 54f7ed5-0597-464b-b213-433556e35eca{stroke-width:20px;}.\38 eb86c4b-b577-47c4-a050-a210c8ea4966,.a5c8b54e-2e6b-48cc-a8f9-92d3678ec5dc{stroke:#fff;}.a5c8b54e-2e6b-48cc-a8f9-92d3678ec5dc{stroke-width:10px;}.fa34d8ed-b865-4605-9e5c-433ee1ee86b9{stroke-width:2px;}.\38 eb86c4b-b577-47c4-a050-a210c8ea4966{fill:#333;stroke-width:1.5px;}</style><symbol id="c8e062b7-63c2-4a15-bb93-a0368a3564b8" data-name="fd103434-89f2-4089-acf9-54fed79ed404" viewBox="0 0 200 103.617"><rect class="444d7bc2-de91-4f47-b829-f801dab30e15" x="2.5" y="54.074" width="195" height="47.043"/><rect class="b641dc13-523c-4ea3-be8f-5fc59ae11fe4" x="2.5" y="2.5" width="48.75" height="48.75"/><rect class="b641dc13-523c-4ea3-be8f-5fc59ae11fe4" x="51.25" y="2.5" width="48.75" height="48.75"/><rect class="b641dc13-523c-4ea3-be8f-5fc59ae11fe4" x="100" y="2.5" width="48.75" height="48.75"/><rect class="b641dc13-523c-4ea3-be8f-5fc59ae11fe4" x="148.75" y="2.5" width="48.75" height="48.75"/></symbol></defs><title>CRE8_Mercedes_Autodrome</title><g id="974ae32e-c765-4388-b95d-5ff3a05cfb25" data-name="Layer 2"><g id="e6433f4f-da5e-4728-931a-80ad07cb48c6" data-name="Airport"><g id="5fae7ed4-69dc-4a61-a0e8-23dd055e9929" data-name="CRE8_Mercedes_Autodrome"><g id="f60699fd-1fcb-4599-ac19-2df88620c4bf" data-name="Track-Outer"><path class="154f7ed5-0597-464b-b213-433556e35eca" d="M436.776,476.314c-19.816-9.916-34.068-34.15-14.478-68.856l5.322-8.142s3.961-6.126,53.593-87.367a7.322,7.322,0,0,1,10.809-1.913l10.421,6.065a7.3,7.3,0,0,1,3.4,10.1c-12.036,22.415-18.515,36.308-22.88,44.366-1.17,2.161-4.364,9.178-10.25,13.5-6.4,4.7-15.49,3.931-18.187,3.75-2.54-.172-10.027-.892-17.063-9.75a26.982,26.982,0,0,1-5.5-17c-.011-6.029,1.922-10.555,3.5-14.25a47.627,47.627,0,0,1,2.872-5.65c2.075-3.487,2.952-9.041-.562-11.071l-88.435-51.081c-7.195-4.156-17.373-5.483-25.674-5.867l-102.944-4.778c-13.147-.61-18.4,16.678-7.173,23.545,16.914,10.344,34.8,19.531,51.795,29.779a7.311,7.311,0,0,1,2.6,9.836c-11.552,20.589-27.553,45.726-39.106,66.316a25.508,25.508,0,0,0,9.571,34.619L454.173,556.01a57.028,57.028,0,0,0,77.71-20.951,51.809,51.809,0,0,0-18.9-70.765L357.96,374.565,83,217.34c-59.848-34.222-78.944-108.3-45.348-168.5h0a28.472,28.472,0,0,1,38.7-11.006c14.69,8.17,26.255,15.228,40.944,23.4,11.068,6.155,16.086,19.312,9.848,30.334L105.53,129.756a7.315,7.315,0,0,0,2.706,9.936L443.508,333.526c3.415,1.731,7.05.856,11.1-.633a22.46,22.46,0,0,1,6.854-1.4c5.7-.23,7.777.553,10.236,2.032,25.408,14.756,41.142,23.75,66.5,38.6,4.393,2.573,5.206,9.26,2.8,12.737l-.692,1.2a8.9,8.9,0,0,1-12.5,3.054c-3.153-2.028-6.6-4.064-10.338-6.039-9.727-5.138-14.051-6.71-16.333-7.334-4.158-1.135-7.909-2.209-12.917-1.916-2.685.157-11.5.672-18,7.25-5.676,5.746-8.571,14.481-9.166,20.333-.445,4.371.394,13.9,6.666,23.667,1.99,3.1,5.625,5.8,12.584,10.833a156.8,156.8,0,0,0,18.61,11.073,6.766,6.766,0,0,1,2.674,9.492C486.58,481.792,451.938,483.9,436.776,476.314Z"/></g><g id="4b3428c9-4bfe-4022-9d71-72329a19a43b" data-name="Track-Mid"><path class="a5c8b54e-2e6b-48cc-a8f9-92d3678ec5dc" d="M436.776,476.314c-19.816-9.916-34.068-34.15-14.478-68.856l5.322-8.142s3.961-6.126,53.593-87.367a7.322,7.322,0,0,1,10.809-1.913l10.421,6.065a7.3,7.3,0,0,1,3.4,10.1c-12.036,22.415-18.515,36.308-22.88,44.366-1.17,2.161-4.364,9.178-10.25,13.5-6.4,4.7-15.49,3.931-18.187,3.75-2.54-.172-10.027-.892-17.063-9.75a26.982,26.982,0,0,1-5.5-17c-.011-6.029,1.922-10.555,3.5-14.25a47.627,47.627,0,0,1,2.872-5.65c2.075-3.487,2.952-9.041-.562-11.071l-88.435-51.081c-7.195-4.156-17.373-5.483-25.674-5.867l-102.944-4.778c-13.147-.61-18.4,16.678-7.173,23.545,16.914,10.344,34.8,19.531,51.795,29.779a7.311,7.311,0,0,1,2.6,9.836c-11.552,20.589-27.553,45.726-39.106,66.316a25.508,25.508,0,0,0,9.571,34.619L454.173,556.01a57.028,57.028,0,0,0,77.71-20.951,51.809,51.809,0,0,0-18.9-70.765L357.96,374.565,83,217.34c-59.848-34.222-78.944-108.3-45.348-168.5h0a28.472,28.472,0,0,1,38.7-11.006c14.69,8.17,26.255,15.228,40.944,23.4,11.068,6.155,16.086,19.312,9.848,30.334L105.53,129.756a7.315,7.315,0,0,0,2.706,9.936L443.508,333.526c3.415,1.731,7.05.856,11.1-.633a22.46,22.46,0,0,1,6.854-1.4c5.7-.23,7.777.553,10.236,2.032,25.408,14.756,41.142,23.75,66.5,38.6,4.393,2.573,5.206,9.26,2.8,12.737l-.692,1.2a8.9,8.9,0,0,1-12.5,3.054c-3.153-2.028-6.6-4.064-10.338-6.039-9.727-5.138-14.051-6.71-16.333-7.334-4.158-1.135-7.909-2.209-12.917-1.916-2.685.157-11.5.672-18,7.25-5.676,5.746-8.571,14.481-9.166,20.333-.445,4.371.394,13.9,6.666,23.667,1.99,3.1,5.625,5.8,12.584,10.833a156.8,156.8,0,0,0,18.61,11.073,6.766,6.766,0,0,1,2.674,9.492C486.58,481.792,451.938,483.9,436.776,476.314Z"/></g><g id="a41a563d-60e9-46e4-ae1e-b8c3c8dfc6ec" data-name="Track-Inner"><path class="fa34d8ed-b865-4605-9e5c-433ee1ee86b9" d="M436.776,476.314c-19.816-9.916-34.068-34.15-14.478-68.856l5.322-8.143s3.961-6.125,53.593-87.366a7.322,7.322,0,0,1,10.809-1.913l10.422,6.065a7.3,7.3,0,0,1,3.4,10.1c-12.036,22.415-18.515,36.308-22.88,44.366-1.17,2.161-4.364,9.178-10.25,13.5-6.4,4.7-15.49,3.931-18.187,3.75-2.54-.172-10.027-.892-17.063-9.75a26.982,26.982,0,0,1-5.5-17c-.011-6.029,1.922-10.555,3.5-14.25a47.55,47.55,0,0,1,2.872-5.65c2.075-3.487,2.952-9.041-.562-11.071l-88.435-51.081c-7.195-4.157-17.373-5.483-25.674-5.867l-102.944-4.778c-13.147-.61-18.4,16.678-7.173,23.545,16.914,10.344,34.8,19.53,51.795,29.778a7.313,7.313,0,0,1,2.6,9.837c-11.552,20.589-27.553,45.726-39.106,66.316a25.508,25.508,0,0,0,9.571,34.619L454.173,556.01a57.028,57.028,0,0,0,77.71-20.951,51.809,51.809,0,0,0-18.9-70.765L357.96,374.565,83,217.34c-59.848-34.222-78.944-108.3-45.348-168.5a28.472,28.472,0,0,1,38.7-11.006c14.69,8.171,26.255,15.228,40.944,23.4,11.067,6.156,16.086,19.312,9.848,30.334L105.53,129.756a7.315,7.315,0,0,0,2.706,9.936L443.508,333.526c3.415,1.731,7.05.857,11.1-.633a22.46,22.46,0,0,1,6.854-1.4c5.7-.229,7.777.553,10.236,2.032,25.408,14.756,41.142,23.751,66.5,38.6,4.393,2.573,5.206,9.26,2.8,12.737l-.692,1.2a8.9,8.9,0,0,1-12.5,3.054c-3.153-2.028-6.6-4.064-10.338-6.039-9.727-5.138-14.051-6.71-16.333-7.334-4.158-1.135-7.909-2.209-12.917-1.916-2.685.157-11.5.672-18,7.25-5.676,5.746-8.571,14.481-9.166,20.333-.445,4.371.394,13.9,6.666,23.667,1.99,3.1,5.625,5.8,12.584,10.833a159.535,159.535,0,0,0,18.61,11.073,6.772,6.772,0,0,1,2.674,9.492C486.58,481.792,451.938,483.9,436.776,476.314Z"/></g><g id="1f89678c-36cf-4575-9186-5fa943fef0ba" data-name="Crossover-Outer"><path class="154f7ed5-0597-464b-b213-433556e35eca" d="M447.523,334.48c3.042.1,6.634-1.628,10.318-2.529a23.032,23.032,0,0,1,4.618-.493c.195-.008,2.377.021,2.794.053a13.865,13.865,0,0,1,4.427.959,45.93,45.93,0,0,1,4.6,2.545c2.049,1.136,2.539,1.486,4.114,2.4,3.294,1.9,5.443,3.185,6.978,4.043,4.537,2.535,5.928,3.431,12.846,7.432,2.676,1.548,6.561,3.795,11.556,6.687"/><path class="154f7ed5-0597-464b-b213-433556e35eca" d="M506.27,377.606a47.788,47.788,0,0,0-9.018-2.916,32.451,32.451,0,0,0-16.192.224,23.468,23.468,0,0,0-13.636,9.493,36.3,36.3,0,0,0-3.964,7.432,31.87,31.87,0,0,0-2,6.824"/><path class="154f7ed5-0597-464b-b213-433556e35eca" d="M461.554,410.5a40.3,40.3,0,0,0,6.448,15c2.208,3.16,4.984,4.805,8.3,7.49a83.147,83.147,0,0,0,8.408,6.045c3.118,1.949,13.673,7.671,14.783,8.281a4.676,4.676,0,0,1,1.083.788,7.031,7.031,0,0,1,1.1,1.543,6.881,6.881,0,0,1,.852,2.934,7.319,7.319,0,0,1-1.5,4.794,51.691,51.691,0,0,1-7.357,9l-11.695,8.017"/><path class="154f7ed5-0597-464b-b213-433556e35eca" d="M413.49,431.185a57.062,57.062,0,0,1,3.212-11.92c.3-.794.929-2.448,1.982-4.727.409-.886,1.022-2.171,1.776-3.679a45.731,45.731,0,0,1,2.822-4.907c3.015-4.444,5.821-9.071,8.678-13.619,2.874-4.574,7.87-12.781,17.975-29.315"/><line class="154f7ed5-0597-464b-b213-433556e35eca" x1="311.103" y1="347.772" x2="160.108" y2="261.432"/><path class="154f7ed5-0597-464b-b213-433556e35eca" d="M297.726,249.29c69.262,40.164,95.091,54.885,105.079,60.654,9.757,5.635,19.375,11.127,29.171,16.9,1.95,1.148,3.207,1.839,5.534,3.262,1.6.976,2.918,1.667,4.951,2.862a8.507,8.507,0,0,0,4.223,1.5,10.112,10.112,0,0,0,3.783-.312c1.787-.428,4.125-1.3,7.17-2.131"/></g><g id="424add3f-5629-4167-a111-d9cff9b25540" data-name="Crossover-Mid"><path class="a5c8b54e-2e6b-48cc-a8f9-92d3678ec5dc" d="M447.523,334.48c3.042.1,6.634-1.628,10.318-2.529a23.032,23.032,0,0,1,4.618-.493c.195-.008,2.377.021,2.794.053a13.865,13.865,0,0,1,4.427.959,45.93,45.93,0,0,1,4.6,2.545c2.049,1.136,2.539,1.486,4.114,2.4,3.294,1.9,5.443,3.185,6.978,4.043,4.537,2.535,5.928,3.431,12.846,7.432,2.676,1.548,6.561,3.795,11.556,6.687"/><path class="a5c8b54e-2e6b-48cc-a8f9-92d3678ec5dc" d="M506.27,377.606a47.788,47.788,0,0,0-9.018-2.916,32.451,32.451,0,0,0-16.192.224,23.468,23.468,0,0,0-13.636,9.493,36.3,36.3,0,0,0-3.964,7.432,31.87,31.87,0,0,0-2,6.824"/><path class="a5c8b54e-2e6b-48cc-a8f9-92d3678ec5dc" d="M461.519,410.5a40.871,40.871,0,0,0,6.264,15c2.208,3.16,4.984,4.805,8.3,7.49a83.147,83.147,0,0,0,8.408,6.045c3.118,1.949,13.673,7.671,14.783,8.281a4.676,4.676,0,0,1,1.083.788,7.068,7.068,0,0,1,1.1,1.543,6.9,6.9,0,0,1,.851,2.934,7.313,7.313,0,0,1-1.5,4.794,51.691,51.691,0,0,1-7.357,9,81.945,81.945,0,0,1-12.081,8.281"/><path class="a5c8b54e-2e6b-48cc-a8f9-92d3678ec5dc" d="M413.49,431.185a57.062,57.062,0,0,1,3.212-11.92c.3-.794.929-2.448,1.982-4.727.409-.886,1.022-2.171,1.776-3.679a45.731,45.731,0,0,1,2.822-4.907c3.015-4.444,5.821-9.071,8.678-13.619,2.874-4.574,7.87-12.781,17.975-29.315"/><line class="a5c8b54e-2e6b-48cc-a8f9-92d3678ec5dc" x1="311.103" y1="347.772" x2="159.981" y2="261.355"/><line class="fa34d8ed-b865-4605-9e5c-433ee1ee86b9" x1="311.171" y1="347.81" x2="159.981" y2="261.355"/><path class="a5c8b54e-2e6b-48cc-a8f9-92d3678ec5dc" d="M297.726,249.29c69.262,40.164,95.091,54.885,105.079,60.654,9.757,5.635,19.375,11.127,29.171,16.9,1.95,1.148,3.207,1.839,5.534,3.262,1.6.976,2.918,1.667,4.951,2.862a8.507,8.507,0,0,0,4.223,1.5,10.112,10.112,0,0,0,3.783-.312c1.787-.428,4.125-1.3,7.17-2.131"/></g><g id="68090979-eeec-40a5-81f1-bddb55b42b60" data-name="Crossover-Inner"><path class="fa34d8ed-b865-4605-9e5c-433ee1ee86b9" d="M447.523,334.48c3.042.1,6.634-1.628,10.318-2.529a23.032,23.032,0,0,1,4.618-.493c.195-.008,2.377.021,2.794.053a13.865,13.865,0,0,1,4.427.959,45.93,45.93,0,0,1,4.6,2.545c2.049,1.136,2.539,1.486,4.114,2.4,3.294,1.9,5.443,3.185,6.978,4.043,4.537,2.535,5.928,3.431,12.846,7.432,2.676,1.548,6.561,3.795,11.556,6.687"/><path class="fa34d8ed-b865-4605-9e5c-433ee1ee86b9" d="M506.27,377.606a47.788,47.788,0,0,0-9.018-2.916,32.451,32.451,0,0,0-16.192.224,23.468,23.468,0,0,0-13.636,9.493,36.3,36.3,0,0,0-3.964,7.432,31.87,31.87,0,0,0-2,6.824"/><path class="fa34d8ed-b865-4605-9e5c-433ee1ee86b9" d="M461.692,410.438c1.75,7.844,4.322,12.53,6.091,15.06,2.208,3.16,4.984,4.805,8.3,7.49a83.147,83.147,0,0,0,8.408,6.045c3.118,1.949,13.673,7.671,14.783,8.281a4.676,4.676,0,0,1,1.083.788,7.068,7.068,0,0,1,1.1,1.543,6.9,6.9,0,0,1,.851,2.934,7.313,7.313,0,0,1-1.5,4.794,51.691,51.691,0,0,1-7.357,9,81.945,81.945,0,0,1-12.081,8.281"/><path class="fa34d8ed-b865-4605-9e5c-433ee1ee86b9" d="M413.49,431.185a57.062,57.062,0,0,1,3.212-11.92c.3-.794.929-2.448,1.982-4.727.409-.886,1.022-2.171,1.776-3.679a45.731,45.731,0,0,1,2.822-4.907c3.015-4.444,5.821-9.071,8.678-13.619,2.874-4.574,7.87-12.781,17.975-29.315"/><path class="fa34d8ed-b865-4605-9e5c-433ee1ee86b9" d="M297.726,249.29c69.262,40.164,95.091,54.885,105.079,60.654,9.757,5.635,19.375,11.127,29.171,16.9,1.95,1.148,3.207,1.839,5.534,3.262,1.6.976,2.918,1.667,4.951,2.862a8.507,8.507,0,0,0,4.223,1.5,10.112,10.112,0,0,0,3.783-.312c1.787-.428,4.125-1.3,7.17-2.131"/></g><g id="4a2ed14d-ca2d-46bf-b9c2-01f4b3de26ec" data-name="Corner Numbers"><g id="f1dc9113-b62b-43b7-a211-f8ae3590cc61" data-name="1"><path class="8eb86c4b-b577-47c4-a050-a210c8ea4966" d="M20.968,176.141a10.417,10.417,0,1,1-6.262-13.335h0c7.125,2.572,9.971,2.372,10.4,3.284S23.532,169.043,20.968,176.141Z"/><path class="ef92fce0-1537-4dbf-a8f7-ff1084e37d1a" d="M10.65,168.085h-.036l-2.079,1.135-.32-1.234,2.612-1.415,1.384-.007.059,11.991-1.568.008Z"/></g><g id="9e6dae75-e4ab-46ee-afb2-98eb073513f1" data-name="2"><path class="8eb86c4b-b577-47c4-a050-a210c8ea4966" d="M45.761,20.232a10.812,10.812,0,1,1,15.129-2.21h0c-4.7,6.3-5.354,9.191-6.389,9.343S52.041,24.913,45.761,20.232Z"/><path class="ef92fce0-1537-4dbf-a8f7-ff1084e37d1a" d="M48.64,18.284V17.25l1.319-1.285c3.177-3.028,4.611-4.638,4.629-6.515a2.221,2.221,0,0,0-2.473-2.429,4.24,4.24,0,0,0-2.642,1.055l-.537-1.187a5.463,5.463,0,0,1,3.523-1.267,3.5,3.5,0,0,1,3.813,3.615c0,2.3-1.662,4.159-4.283,6.688l-.994.92v.039l5.591,0,0,1.4Z"/></g><g id="4bd5e41e-c51f-4978-8d8b-668d772c9ce2" data-name="3"><path class="8eb86c4b-b577-47c4-a050-a210c8ea4966" d="M143.814,68.794a10.512,10.512,0,1,1,2.59,14.64h0c-6.264-4.381-9.09-4.935-9.268-5.938S139.448,75.034,143.814,68.794Z"/><path class="ef92fce0-1537-4dbf-a8f7-ff1084e37d1a" d="M149.21,78.708a5.469,5.469,0,0,0,2.68.766c2.1,0,2.756-1.337,2.739-2.343-.017-1.693-1.543-2.422-3.125-2.423h-.912V73.479h.912c1.192,0,2.7-.613,2.7-2.046,0-.968-.612-1.825-2.12-1.827a4.444,4.444,0,0,0-2.421.8l-.427-1.192a5.748,5.748,0,0,1,3.166-.927c2.383,0,3.461,1.417,3.46,2.888a3.008,3.008,0,0,1-2.237,2.847v.037a3.151,3.151,0,0,1,2.7,3.111c0,1.936-1.512,3.629-4.416,3.626a6.161,6.161,0,0,1-3.145-.822Z"/></g><g id="221aaefa-6b2c-40e7-9044-b2475e3a423a" data-name="4"><path class="8eb86c4b-b577-47c4-a050-a210c8ea4966" d="M91.894,147.354a10.195,10.195,0,1,1-3.126-14.075h0c6.253,3.98,9.015,4.4,9.229,5.361S95.861,141.125,91.894,147.354Z"/><path class="ef92fce0-1537-4dbf-a8f7-ff1084e37d1a" d="M84.472,147.172v-3.195l-5.451,0v-1.047l5.238-7.488h1.715l0,7.292h1.642v1.246H85.972l0,3.195Zm0-4.441,0-3.916q0-.923.055-1.842h-.054c-.361.686-.651,1.191-.975,1.732l-2.872,3.988v.037Z"/></g><g id="19190491-11ec-4855-b206-c142c6d94873" data-name="6"><path class="8eb86c4b-b577-47c4-a050-a210c8ea4966" d="M479.562,346.67a10.52,10.52,0,1,1-14.743,2h0c4.633-6.087,5.3-8.891,6.31-9.028S473.5,342.052,479.562,346.67Z"/><path class="ef92fce0-1537-4dbf-a8f7-ff1084e37d1a" d="M475.836,349.616a5.993,5.993,0,0,0-1.229.074A4.923,4.923,0,0,0,470.4,354h.056a3.692,3.692,0,0,1,6.577,2.514,4.049,4.049,0,0,1-4.024,4.267c-2.589,0-4.285-2.011-4.286-5.16a7.617,7.617,0,0,1,2.049-5.459,6.592,6.592,0,0,1,3.874-1.789,7.974,7.974,0,0,1,1.193-.094Zm-.464,6.987a2.461,2.461,0,0,0-2.5-2.776,2.7,2.7,0,0,0-2.348,1.491,1.4,1.4,0,0,0-.185.727c.037,1.993.95,3.465,2.664,3.465C474.422,359.51,475.372,358.336,475.372,356.6Z"/></g><g id="05a2f094-dadc-43f1-a000-ec30a55cf1f1" data-name="7"><path class="8eb86c4b-b577-47c4-a050-a210c8ea4966" d="M558.076,385.568a10.468,10.468,0,1,1-6.749,13.176h0c-2.336-7.244-4.246-9.383-3.784-10.285S550.858,387.9,558.076,385.568Z"/><path class="ef92fce0-1537-4dbf-a8f7-ff1084e37d1a" d="M564.893,390.082v1.075l-5.249,10.975h-1.687l5.23-10.658v-.037l-5.9,0V390.08Z"/></g><g id="7571b945-de95-4dc9-aa92-bbd5b0e09bd3" data-name="8"><path class="8eb86c4b-b577-47c4-a050-a210c8ea4966" d="M476.256,405.563a10.468,10.468,0,1,1,5.1,13.9h0c-6.908-3.2-9.775-3.246-10.125-4.2S473.069,412.444,476.256,405.563Z"/><path class="ef92fce0-1537-4dbf-a8f7-ff1084e37d1a" d="M481.264,413.079a3.442,3.442,0,0,1,2.392-3.225l-.019-.056a2.986,2.986,0,0,1-1.909-2.707c0-1.909,1.613-3.207,3.727-3.207,2.335,0,3.5,1.465,3.5,2.967a3.061,3.061,0,0,1-1.983,2.817v.056a3.342,3.342,0,0,1,2.429,3.115c0,2.1-1.8,3.5-4.1,3.5C482.785,416.343,481.264,414.841,481.264,413.079Zm6.489-.073c0-1.465-1.019-2.17-2.651-2.633a2.617,2.617,0,0,0-2.169,2.484,2.228,2.228,0,0,0,2.41,2.3A2.18,2.18,0,0,0,487.753,413.006Zm-4.486-6.025c0,1.2.908,1.853,2.3,2.224a2.374,2.374,0,0,0,1.835-2.187,1.873,1.873,0,0,0-2.039-1.966A1.916,1.916,0,0,0,483.267,406.981Z"/></g><g id="9ebb5fab-aeeb-44a7-ab2f-1ef21575ad43" data-name="9"><path class="8eb86c4b-b577-47c4-a050-a210c8ea4966" d="M512.7,435.169a10.468,10.468,0,1,1,7.137,12.97h0c-7.31-2.121-10.152-1.737-10.641-2.625S510.585,442.451,512.7,435.169Z"/><path class="ef92fce0-1537-4dbf-a8f7-ff1084e37d1a" d="M520.141,442.618a6.84,6.84,0,0,0,1.316-.054,4.533,4.533,0,0,0,2.523-1.166,5.279,5.279,0,0,0,1.6-3.205h-.056a3.532,3.532,0,0,1-2.838,1.294,3.49,3.49,0,0,1-3.556-3.692,4.132,4.132,0,0,1,4.121-4.278c2.466,0,3.985,2.006,3.981,5.084a7.617,7.617,0,0,1-2.083,5.652,6.028,6.028,0,0,1-3.506,1.609,7.591,7.591,0,0,1-1.5.091Zm.6-6.933a2.318,2.318,0,0,0,2.314,2.561,2.7,2.7,0,0,0,2.375-1.258,1.074,1.074,0,0,0,.149-.593c0-2.058-.755-3.635-2.461-3.637C521.728,432.757,520.744,433.98,520.742,435.685Z"/></g><g id="0026cfb8-5bc6-4d99-904a-eaa60c4142c6" data-name="10"><path class="8eb86c4b-b577-47c4-a050-a210c8ea4966" d="M433.305,493.839a10.468,10.468,0,1,1-12.082-8.555h0c7.5-1.282,9.892-2.868,10.719-2.283S432.029,486.364,433.305,493.839Z"/><path class="ef92fce0-1537-4dbf-a8f7-ff1084e37d1a" d="M417.565,491.389h-.037l-2.1,1.128-.314-1.243,2.634-1.406,1.391,0-.016,12.051-1.576,0Z"/><path class="ef92fce0-1537-4dbf-a8f7-ff1084e37d1a" d="M431.537,495.782c0,4.1-1.529,6.357-4.2,6.354-2.354,0-3.946-2.212-3.978-6.2.006-4.042,1.751-6.265,4.2-6.261C430.1,489.681,431.541,491.944,431.537,495.782Zm-6.545.177c0,3.133.958,4.914,2.441,4.916,1.669,0,2.468-1.943,2.472-5.021,0-2.966-.753-4.914-2.441-4.916C426.037,490.936,425,492.678,424.992,495.959Z"/></g><g id="773a85e1-d3ca-41b3-8c47-789d2285640c" data-name="11"><path class="8eb86c4b-b577-47c4-a050-a210c8ea4966" d="M475.954,293.776a10.468,10.468,0,1,1,14.592-2.5h0c-4.4,6.212-4.966,9.023-5.965,9.194S482.142,298.159,475.954,293.776Z"/><path class="ef92fce0-1537-4dbf-a8f7-ff1084e37d1a" d="M477.6,280.992h-.037l-2.092,1.137-.318-1.242,2.629-1.416,1.39,0,.033,12.051-1.576.005Z"/><path class="ef92fce0-1537-4dbf-a8f7-ff1084e37d1a" d="M487.113,280.966h-.037l-2.092,1.137-.319-1.242,2.629-1.416,1.391,0,.033,12.051-1.576,0Z"/></g><g id="a2248b3e-e836-42e9-95a6-28ea644edcf1" data-name="12"><path class="8eb86c4b-b577-47c4-a050-a210c8ea4966" d="M520.116,310.06a10.468,10.468,0,1,1,4.355,14.149h0c-6.727-3.561-9.588-3.762-9.887-4.73S516.567,316.762,520.116,310.06Z"/><path class="ef92fce0-1537-4dbf-a8f7-ff1084e37d1a" d="M523.582,310.2h-.037l-2.093,1.133-.317-1.242,2.632-1.411h1.391l.009,12.051h-1.576Z"/><path class="ef92fce0-1537-4dbf-a8f7-ff1084e37d1a" d="M529.559,320.722v-1l1.278-1.243c3.076-2.932,4.464-4.491,4.482-6.307a2.15,2.15,0,0,0-2.394-2.353,4.094,4.094,0,0,0-2.557,1.022l-.52-1.15a5.292,5.292,0,0,1,3.41-1.226,3.39,3.39,0,0,1,3.692,3.5c0,2.225-1.61,4.024-4.147,6.474l-.964.891v.036l5.414,0v1.354Z"/></g><g id="c71bf715-1ad3-4ba7-96da-7dafb4527496" data-name="13"><path class="8eb86c4b-b577-47c4-a050-a210c8ea4966" d="M418.617,378.678a10.468,10.468,0,1,1-2.965-14.5h0c6.351,4.2,9.178,4.672,9.382,5.665S422.8,372.352,418.617,378.678Z"/><path class="ef92fce0-1537-4dbf-a8f7-ff1084e37d1a" d="M404.856,368.6h-.037l-2.094,1.131-.316-1.243,2.632-1.409h1.391l0,12.05h-1.576Z"/><path class="ef92fce0-1537-4dbf-a8f7-ff1084e37d1a" d="M411.216,377.252a5.452,5.452,0,0,0,2.67.76c2.095,0,2.742-1.336,2.724-2.337-.019-1.688-1.538-2.41-3.114-2.409h-.909v-1.224h.909c1.186,0,2.688-.612,2.688-2.04,0-.964-.613-1.816-2.114-1.816a4.411,4.411,0,0,0-2.409.8l-.428-1.186a5.72,5.72,0,0,1,3.151-.928c2.373,0,3.448,1.408,3.449,2.873a2.993,2.993,0,0,1-2.224,2.837v.037a3.138,3.138,0,0,1,2.689,3.1c0,1.929-1.5,3.616-4.392,3.617a6.133,6.133,0,0,1-3.134-.815Z"/></g><g id="2bcb8f1c-90d9-4b42-878d-0b4fdbed67c8" data-name="14"><path class="8eb86c4b-b577-47c4-a050-a210c8ea4966" d="M424.915,344.782a10.468,10.468,0,1,1-2.8-14.537h0c6.3,4.269,9.123,4.779,9.315,5.774S429.17,338.505,424.915,344.782Z"/><path class="ef92fce0-1537-4dbf-a8f7-ff1084e37d1a" d="M410.721,334.142h-.037l-2.1,1.129-.313-1.243,2.634-1.406h1.39l-.012,12.051-1.577,0Z"/><path class="ef92fce0-1537-4dbf-a8f7-ff1084e37d1a" d="M421.72,344.684l0-3.282-5.6,0v-1.076l5.384-7.688,1.762,0-.008,7.49,1.687,0v1.279l-1.687,0,0,3.282Zm0-4.561,0-4.022q0-.946.059-1.892h-.056c-.372.7-.669,1.223-1,1.779l-2.953,4.094v.037Z"/></g><g id="44217204-2e5f-469b-b3be-535044d9f6db" data-name="15"><path class="8eb86c4b-b577-47c4-a050-a210c8ea4966" d="M345.216,293.887a10.468,10.468,0,1,1-14.188-4.227h0c6.695-3.621,8.45-5.889,9.421-5.6S341.61,287.216,345.216,293.887Z"/><path class="ef92fce0-1537-4dbf-a8f7-ff1084e37d1a" d="M330.349,294.476h-.037l-2.1,1.13-.315-1.242,2.633-1.409h1.39v12.05h-1.576Z"/><path class="ef92fce0-1537-4dbf-a8f7-ff1084e37d1a" d="M343.51,294.329h-4.6l-.463,3.1a6.435,6.435,0,0,1,.982-.074,5.089,5.089,0,0,1,2.595.649,3.431,3.431,0,0,1,1.723,3.1,4.179,4.179,0,0,1-4.486,4.115,5.9,5.9,0,0,1-3-.742l.408-1.241a5.421,5.421,0,0,0,2.578.667,2.657,2.657,0,0,0,2.854-2.614c-.018-1.557-1.056-2.67-3.466-2.67a12.766,12.766,0,0,0-1.668.129l.779-5.784h5.765Z"/></g><g id="11811d7e-8436-4630-aad1-80b0e8a66a15" data-name="16"><path class="8eb86c4b-b577-47c4-a050-a210c8ea4966" d="M196.5,261.846a10.468,10.468,0,1,1,11.875-8.84h0c-1.1,7.531-.336,10.294-1.149,10.9S204,262.947,196.5,261.846Z"/><path class="ef92fce0-1537-4dbf-a8f7-ff1084e37d1a" d="M192.354,247.634h-.037l-2.094,1.132-.316-1.243,2.632-1.41h1.39l.008,12.051h-1.576Z"/><path class="ef92fce0-1537-4dbf-a8f7-ff1084e37d1a" d="M205.2,247.254a5.878,5.878,0,0,0-1.224.075,4.9,4.9,0,0,0-4.188,4.285h.056a3.673,3.673,0,0,1,6.546,2.5,4.03,4.03,0,0,1-4,4.248c-2.577,0-4.266-2-4.267-5.132a7.575,7.575,0,0,1,2.036-5.434,6.561,6.561,0,0,1,3.854-1.782,8.041,8.041,0,0,1,1.188-.094Zm-.459,6.953a2.449,2.449,0,0,0-2.487-2.761,2.685,2.685,0,0,0-2.335,1.485,1.389,1.389,0,0,0-.185.723c.039,1.984.948,3.448,2.654,3.447C203.8,257.1,204.743,255.931,204.742,254.207Z"/></g><g id="84a3f8b8-57f8-4d0f-81bf-34241719041b" data-name="17"><path class="8eb86c4b-b577-47c4-a050-a210c8ea4966" d="M252.881,337.944a10.468,10.468,0,1,1-4.106-14.223h0c6.664,3.678,9.52,3.93,9.8,4.9S256.547,331.306,252.881,337.944Z"/><path class="ef92fce0-1537-4dbf-a8f7-ff1084e37d1a" d="M239.114,329.113h-.037l-2.1,1.13L236.666,329l2.634-1.408h1.391l-.007,12.051h-1.576Z"/><path class="ef92fce0-1537-4dbf-a8f7-ff1084e37d1a" d="M252.907,327.6v1.076l-5.253,10.972h-1.687l5.234-10.659v-.037l-5.9,0V327.6Z"/></g><g id="543147b6-6125-471f-8f4f-5d36b55cdfbf" data-name="18"><path class="8eb86c4b-b577-47c4-a050-a210c8ea4966" d="M211.419,426.083a10.468,10.468,0,1,1-2.7-14.555h0c6.275,4.308,9.093,4.836,9.279,5.832S215.713,419.832,211.419,426.083Z"/><path class="ef92fce0-1537-4dbf-a8f7-ff1084e37d1a" d="M197.394,415.655h-.037l-2.094,1.132-.316-1.242,2.632-1.41h1.39l.007,12.051H197.4Z"/><path class="ef92fce0-1537-4dbf-a8f7-ff1084e37d1a" d="M203.217,423.123a3.442,3.442,0,0,1,2.39-3.226l-.019-.056a2.986,2.986,0,0,1-1.91-2.706c0-1.909,1.611-3.208,3.725-3.209,2.336,0,3.5,1.462,3.506,2.964a3.063,3.063,0,0,1-1.983,2.819v.056a3.34,3.34,0,0,1,2.431,3.113c0,2.1-1.8,3.5-4.1,3.506C204.74,426.385,203.218,424.885,203.217,423.123Zm6.489-.077c0-1.465-1.02-2.169-2.652-2.632a2.618,2.618,0,0,0-2.168,2.485,2.228,2.228,0,0,0,2.411,2.3A2.18,2.18,0,0,0,209.706,423.046Zm-4.489-6.023c0,1.2.909,1.853,2.3,2.223a2.374,2.374,0,0,0,1.834-2.188,1.873,1.873,0,0,0-2.04-1.964A1.915,1.915,0,0,0,205.217,417.023Z"/></g><g id="8f3e352a-c0d0-4152-80f8-8ae88cdf166c" data-name="19"><path class="8eb86c4b-b577-47c4-a050-a210c8ea4966" d="M549.806,538.5a10.468,10.468,0,1,1-8.8,11.9h0c-1.126-7.528-2.662-9.949-2.059-10.764S542.306,539.615,549.806,538.5Z"/><path class="ef92fce0-1537-4dbf-a8f7-ff1084e37d1a" d="M545.205,544.327h-.038l-2.094,1.131-.316-1.242,2.633-1.409h1.391v12.05H545.2Z"/><path class="ef92fce0-1537-4dbf-a8f7-ff1084e37d1a" d="M552.118,553.708a6.785,6.785,0,0,0,1.316-.056,4.527,4.527,0,0,0,2.521-1.168,5.277,5.277,0,0,0,1.595-3.207H557.5a3.536,3.536,0,0,1-2.837,1.3,3.491,3.491,0,0,1-3.56-3.689,4.132,4.132,0,0,1,4.116-4.283c2.466,0,3.987,2,3.987,5.08a7.61,7.61,0,0,1-2.078,5.654,6.019,6.019,0,0,1-3.5,1.613,7.547,7.547,0,0,1-1.5.093Zm.593-6.934a2.319,2.319,0,0,0,2.318,2.559,2.7,2.7,0,0,0,2.373-1.261,1.074,1.074,0,0,0,.148-.593c0-2.058-.76-3.634-2.466-3.634C553.694,543.845,552.711,545.068,552.711,546.774Z"/></g><g id="579913ea-4f39-4a19-a033-bdd39c57ca3c" data-name="5"><path class="8eb86c4b-b577-47c4-a050-a210c8ea4966" d="M439.665,317.863a10.195,10.195,0,1,1,14.417.048h0c-5.259,5.224-6.274,7.826-7.261,7.823S444.869,323.1,439.665,317.863Z"/><path class="ef92fce0-1537-4dbf-a8f7-ff1084e37d1a" d="M450.388,306.727l-4.473.166-.339,3.029a6.155,6.155,0,0,1,.953-.107,4.927,4.927,0,0,1,2.549.538,3.341,3.341,0,0,1,1.789,2.95,4.07,4.07,0,0,1-4.216,4.166,5.739,5.739,0,0,1-2.949-.613l.351-1.224a5.27,5.27,0,0,0,2.533.558,2.59,2.59,0,0,0,2.683-2.648c-.074-1.514-1.125-2.56-3.47-2.473a12.382,12.382,0,0,0-1.619.187l.549-5.656,5.61-.208Z"/></g></g><g id="86e0e1c0-cc94-4c5e-accb-e7df6a3c4de3" data-name="Start-Finish Line"><use width="200" height="103.617" transform="translate(389.184 367.759) rotate(118.873) scale(0.215)" xlink:href="#c8e062b7-63c2-4a15-bb93-a0368a3564b8"/></g></g></g></g></svg>