<svg xmlns="http://www.w3.org/2000/svg" xmlns:xlink="http://www.w3.org/1999/xlink" width="711.485" height="455.489" viewBox="0 0 711.485 455.489"><defs><style>.\33 fd013ce-6888-409b-b510-54711e39dc59{fill:#00ff24;}.\33 2629462-fb41-4a93-b78a-0b51befcffad,.\33 fd013ce-6888-409b-b510-54711e39dc59{stroke:#000;stroke-width:5px;}.\30 37f310e-9579-4b1b-94fe-372143ad3873,.\30 39094cb-c078-4cea-a985-f94585d9232d,.\32 0d8d125-a28d-40b7-9aaa-5174e723d970,.\33 2629462-fb41-4a93-b78a-0b51befcffad,.\33 fd013ce-6888-409b-b510-54711e39dc59,.\37 c4db56d-cfac-4dbb-841c-48e43f3219db,.b37ffcce-cd86-4deb-b6bf-c2e777f187c8,.d38ad4d5-3da5-41ff-bd49-347f19e78d3e{stroke-miterlimit:10;}.\33 2629462-fb41-4a93-b78a-0b51befcffad,.\39 43cec8b-eab2-498f-b927-8d59ed701d7c{fill:#fff;}.\30 37f310e-9579-4b1b-94fe-372143ad3873,.\30 39094cb-c078-4cea-a985-f94585d9232d,.\37 c4db56d-cfac-4dbb-841c-48e43f3219db,.b37ffcce-cd86-4deb-b6bf-c2e777f187c8,.d38ad4d5-3da5-41ff-bd49-347f19e78d3e{fill:none;}.\30 37f310e-9579-4b1b-94fe-372143ad3873,.d38ad4d5-3da5-41ff-bd49-347f19e78d3e{stroke:#c91d1d;}.b37ffcce-cd86-4deb-b6bf-c2e777f187c8,.d38ad4d5-3da5-41ff-bd49-347f19e78d3e{stroke-width:20px;}.\30 39094cb-c078-4cea-a985-f94585d9232d,.b37ffcce-cd86-4deb-b6bf-c2e777f187c8{stroke:#007fff;}.\32 0d8d125-a28d-40b7-9aaa-5174e723d970,.\37 c4db56d-cfac-4dbb-841c-48e43f3219db{stroke:#fff;}.\37 c4db56d-cfac-4dbb-841c-48e43f3219db{stroke-width:10px;}.\30 37f310e-9579-4b1b-94fe-372143ad3873,.\30 39094cb-c078-4cea-a985-f94585d9232d{stroke-width:2px;}.\32 0d8d125-a28d-40b7-9aaa-5174e723d970{fill:#333;stroke-width:1.5px;}</style><symbol id="4e813a3e-b54d-459a-9e6d-68eed7ad937a" data-name="fd103434-89f2-4089-acf9-54fed79ed404" viewBox="0 0 200 103.617"><rect class="3fd013ce-6888-409b-b510-54711e39dc59" x="2.5" y="54.074" width="195" height="47.043"/><rect class="32629462-fb41-4a93-b78a-0b51befcffad" x="2.5" y="2.5" width="48.75" height="48.75"/><rect class="32629462-fb41-4a93-b78a-0b51befcffad" x="51.25" y="2.5" width="48.75" height="48.75"/><rect class="32629462-fb41-4a93-b78a-0b51befcffad" x="100" y="2.5" width="48.75" height="48.75"/><rect class="32629462-fb41-4a93-b78a-0b51befcffad" x="148.75" y="2.5" width="48.75" height="48.75"/></symbol></defs><title>Gruppe_6_GP_Long</title><g id="27634eeb-256a-4594-9534-517c0ceefa52" data-name="Layer 2"><g id="cad4ad43-1b95-4af7-8540-1ee3f006d28d" data-name="Airport"><g id="6317653d-4fd3-4729-bdbc-3fd9a64f996f" data-name="Gruppe_6_GP_Long"><g id="3faf5041-c129-4159-a732-a5593065c529" data-name="Pit-Outer"><path class="d38ad4d5-3da5-41ff-bd49-347f19e78d3e" d="M615.13,406.976,515.191,347.95a10.412,10.412,0,0,0-14.5,4.1l-13.467,25.485a13.8,13.8,0,0,1-17.054,6.446c-5.752-2.146-12.011-4.215-18.753-6.083-11.974-3.316-27.556-1.25-35.889-5.4"/></g><g id="b5232eca-031c-49cd-a3ac-a21a5b44d1a3" data-name="Track-Outer"><path class="b37ffcce-cd86-4deb-b6bf-c2e777f187c8" d="M315.922,315.4q-48.774-26.484-97.548-52.968c-9.195-4.992-5.25-18.985,5.2-18.441l81.835,4.264c10.329.538,14.367-13.2,5.389-18.335l-133.161-76.2a9.822,9.822,0,0,0-13.509,3.834l-25.722,47.319a9.823,9.823,0,0,1-13.548,3.812c-26.724-15.454-78.649-43.622-90.625-79.324-7.31-21.795-7.1-36.922-1.31-46.378,4.083-6.667,9.535-6.714,14.864-3.7,17.331,9.807,34.138,19.926,51.469,29.732a9.821,9.821,0,0,0,13.26-3.5l25.143-41.9a9.825,9.825,0,0,1,13.268-3.491c54.115,30.679,103.772,58.32,157.887,89a9.826,9.826,0,0,0,13.449-3.8L380.638,39.447a9.819,9.819,0,0,1,13.484-3.781C410.507,45.069,416.5,48.9,432.89,58.3c10.039,5.761,26.435,3.443,32.044-4.316,2.4-3.327,3.446-4.855,6.251-8.609a11.041,11.041,0,0,1,14.257-3c17.266,10.182,126.052,73.377,138.205,80.387a19.07,19.07,0,0,0,9.21,2.4c4.915.1,10.285-1.209,16.451,4.658a20.964,20.964,0,0,1,5.6,9.142c2.6,8.665-1.462,13.229-3.3,16.217-9.521,15.465-28.178,45.549-49.858,81.49a9.821,9.821,0,0,1-10.233,4.646l-11.6-1.754a171.155,171.155,0,0,1-17.314-8.093c-69.079-40.285-135.453-78.227-204.53-118.511a9.8,9.8,0,0,0-13.265,3.34c-6.5,10.439-12.024,21.621-18.02,31.977a9.8,9.8,0,0,0,3.6,13.391c67.754,39.125,141.163,80.971,208.918,120.1a67.267,67.267,0,0,0,15.72,6.588l36.526,10.1a78.235,78.235,0,0,1,17.964,7.474l59.47,33.958a19.122,19.122,0,0,1,7.176,26q-13.864,24.591-27.728,49.184a9.822,9.822,0,0,1-13.568,3.624q-9.6-5.7-19.2-11.394a19.57,19.57,0,0,0-18.8-.657,131.9,131.9,0,0,1-18.606,7.675,135.285,135.285,0,0,1-39.75,6.5c-23.825.294-42.47-4.789-52-9.5C459.165,397.8,398.255,362.817,315.922,315.4Z"/></g><g id="67376a5e-89b4-466d-b01e-1b47e2257e5d" data-name="Pit-Mid"><path class="7c4db56d-cfac-4dbb-841c-48e43f3219db" d="M615.13,406.976,515.191,347.95a10.412,10.412,0,0,0-14.5,4.1l-13.467,25.485a13.8,13.8,0,0,1-17.054,6.446c-5.752-2.146-12.011-4.215-18.753-6.083-11.974-3.316-27.556-1.25-35.889-5.4"/></g><g id="38b92272-3614-4d3b-8092-e508353255b4" data-name="Track-Mid"><path class="7c4db56d-cfac-4dbb-841c-48e43f3219db" d="M315.922,315.4q-48.774-26.484-97.548-52.968c-9.195-4.992-5.25-18.985,5.2-18.441l81.835,4.264c10.329.538,14.367-13.2,5.389-18.335l-133.161-76.2a9.822,9.822,0,0,0-13.509,3.834l-25.722,47.319a9.823,9.823,0,0,1-13.548,3.812c-26.724-15.454-78.649-43.622-90.625-79.324-7.31-21.795-7.1-36.922-1.31-46.378,4.083-6.667,9.535-6.714,14.864-3.7,17.331,9.807,34.138,19.926,51.469,29.732a9.821,9.821,0,0,0,13.26-3.5l25.143-41.9a9.825,9.825,0,0,1,13.268-3.491c54.115,30.679,103.772,58.32,157.887,89a9.826,9.826,0,0,0,13.449-3.8L380.638,39.447a9.819,9.819,0,0,1,13.484-3.781C410.507,45.069,416.5,48.9,432.89,58.3c10.039,5.761,26.435,3.443,32.044-4.316,2.4-3.327,3.446-4.855,6.251-8.609a11.041,11.041,0,0,1,14.257-3c17.266,10.182,126.052,73.377,138.205,80.387a19.07,19.07,0,0,0,9.21,2.4c4.915.1,10.285-1.209,16.451,4.658a20.964,20.964,0,0,1,5.6,9.142c2.6,8.665-1.462,13.229-3.3,16.217-9.521,15.465-28.178,45.549-49.858,81.49a9.821,9.821,0,0,1-10.233,4.646l-11.6-1.754a171.155,171.155,0,0,1-17.314-8.093c-69.079-40.285-135.453-78.227-204.53-118.511a9.8,9.8,0,0,0-13.265,3.34c-6.5,10.439-12.024,21.621-18.02,31.977a9.8,9.8,0,0,0,3.6,13.391c67.754,39.125,141.163,80.971,208.918,120.1a67.267,67.267,0,0,0,15.72,6.588l36.526,10.1a78.235,78.235,0,0,1,17.964,7.474l59.47,33.958a19.122,19.122,0,0,1,7.176,26q-13.864,24.591-27.728,49.184a9.822,9.822,0,0,1-13.568,3.624q-9.6-5.7-19.2-11.394a19.57,19.57,0,0,0-18.8-.657,131.9,131.9,0,0,1-18.606,7.675,135.285,135.285,0,0,1-39.75,6.5c-23.825.294-42.47-4.789-52-9.5C459.165,397.8,398.255,362.817,315.922,315.4Z"/></g><g id="6f5bd385-eaef-42ee-bc96-8ea10b4a65de" data-name="Pit-Inner"><path class="037f310e-9579-4b1b-94fe-372143ad3873" d="M615.13,406.976,515.191,347.95a10.412,10.412,0,0,0-14.5,4.1l-13.467,25.485a13.8,13.8,0,0,1-17.054,6.446c-5.752-2.146-12.011-4.215-18.753-6.083-11.974-3.316-27.556-1.25-35.889-5.4"/></g><g id="1d09bddc-5743-4361-bace-ade34c654474" data-name="Track-Inner"><path class="039094cb-c078-4cea-a985-f94585d9232d" d="M315.922,315.4q-48.774-26.484-97.548-52.968c-9.195-4.992-5.25-18.985,5.2-18.441l81.835,4.264c10.329.538,14.367-13.2,5.389-18.335l-133.161-76.2a9.822,9.822,0,0,0-13.509,3.834l-25.722,47.319a9.823,9.823,0,0,1-13.548,3.812c-26.724-15.454-78.649-43.622-90.625-79.324-7.31-21.795-7.1-36.922-1.31-46.378,4.083-6.667,9.535-6.714,14.864-3.7,17.331,9.807,34.138,19.926,51.469,29.732a9.821,9.821,0,0,0,13.26-3.5l25.143-41.9a9.825,9.825,0,0,1,13.268-3.491c54.115,30.679,103.772,58.32,157.887,89a9.826,9.826,0,0,0,13.449-3.8L380.638,39.447a9.819,9.819,0,0,1,13.484-3.781C410.507,45.069,416.5,48.9,432.89,58.3c10.039,5.761,26.435,3.443,32.044-4.316,2.4-3.327,3.446-4.855,6.251-8.609a11.041,11.041,0,0,1,14.257-3c17.266,10.182,126.052,73.377,138.205,80.387a19.07,19.07,0,0,0,9.21,2.4c4.915.1,10.285-1.209,16.451,4.658a20.964,20.964,0,0,1,5.6,9.142c2.6,8.665-1.462,13.229-3.3,16.217-9.521,15.465-28.178,45.549-49.858,81.49a9.821,9.821,0,0,1-10.233,4.646l-11.6-1.754a170.928,170.928,0,0,1-17.314-8.093c-69.079-40.285-135.453-78.227-204.53-118.511a9.8,9.8,0,0,0-13.265,3.34c-6.5,10.439-12.024,21.621-18.02,31.977a9.8,9.8,0,0,0,3.6,13.391c67.754,39.125,141.163,80.971,208.918,120.1a67.267,67.267,0,0,0,15.72,6.588l36.526,10.1a78.235,78.235,0,0,1,17.964,7.474l59.47,33.958a19.122,19.122,0,0,1,7.176,26q-13.864,24.591-27.728,49.184a9.822,9.822,0,0,1-13.568,3.624q-9.6-5.7-19.2-11.394a19.57,19.57,0,0,0-18.8-.657,131.9,131.9,0,0,1-18.606,7.675,135.285,135.285,0,0,1-39.75,6.5c-23.825.294-42.47-4.789-52-9.5C459.165,397.8,398.255,362.817,315.922,315.4Z"/></g><g id="5bff0b03-ff20-4330-a71b-65cacb2475a6" data-name="Corner Numbers"><g id="52652d52-35de-4edd-87b7-10a6e200b1ba" data-name="1"><path class="20d8d125-a28d-40b7-9aaa-5174e723d970" d="M197.276,261.439a10.417,10.417,0,1,1-.439-14.725h0c5.512,5.194,8.2,6.143,8.234,7.151S202.452,255.948,197.276,261.439Z"/><path class="943cec8b-eab2-498f-b927-8d59ed701d7c" d="M189.126,249.55h-.037l-2.065,1.16-.334-1.23,2.595-1.447,1.383-.023.2,11.989-1.568.026Z"/></g><g id="8038ebd9-7740-4373-8a38-45f92e473f2d" data-name="2"><path class="20d8d125-a28d-40b7-9aaa-5174e723d970" d="M332.544,243.178a10.811,10.811,0,1,1-5.693,14.19h0c-3.089-7.228-5.256-9.248-4.867-10.219S325.341,246.254,332.544,243.178Z"/><path class="943cec8b-eab2-498f-b927-8d59ed701d7c" d="M332.572,258.933V257.9l1.323-1.281c3.181-3.022,4.619-4.63,4.64-6.507a2.22,2.22,0,0,0-2.468-2.433,4.246,4.246,0,0,0-2.644,1.049l-.535-1.187a5.456,5.456,0,0,1,3.525-1.261,3.5,3.5,0,0,1,3.807,3.623c0,2.3-1.669,4.154-4.3,6.68l-1,.918v.039l5.592,0,0,1.4Z"/></g><g id="dd81cb15-4f03-412a-b96f-4256ec829724" data-name="3"><path class="20d8d125-a28d-40b7-9aaa-5174e723d970" d="M160.467,137.881a10.512,10.512,0,1,1,14.64-2.59h0c-4.381,6.264-4.935,9.09-5.937,9.268S166.707,142.247,160.467,137.881Z"/><path class="943cec8b-eab2-498f-b927-8d59ed701d7c" d="M163.75,133.672a5.473,5.473,0,0,0,2.68.765c2.1,0,2.757-1.337,2.739-2.342-.017-1.694-1.543-2.422-3.125-2.423h-.912l0-1.229h.912c1.191,0,2.7-.612,2.7-2.046,0-.967-.612-1.824-2.12-1.826a4.445,4.445,0,0,0-2.422.8l-.426-1.192a5.742,5.742,0,0,1,3.166-.927c2.382,0,3.461,1.417,3.459,2.888a3,3,0,0,1-2.237,2.846v.037a3.152,3.152,0,0,1,2.7,3.112c0,1.936-1.511,3.629-4.415,3.626a6.15,6.15,0,0,1-3.145-.823Z"/></g><g id="d7a17850-e73a-4fdc-8fbc-37230448d3e9" data-name="4"><path class="20d8d125-a28d-40b7-9aaa-5174e723d970" d="M145.237,222.6a10.195,10.195,0,1,1-13.9,3.82h0c3.666-6.443,3.946-9.221,4.9-9.483S138.819,218.942,145.237,222.6Z"/><path class="943cec8b-eab2-498f-b927-8d59ed701d7c" d="M140.291,237.127v-3.2H134.84v-1.046l5.234-7.492h1.715v7.293h1.642v1.245H141.79v3.2Zm0-4.441v-3.917q0-.921.054-1.841h-.054c-.361.686-.65,1.191-.975,1.733l-2.87,3.989v.036Z"/></g><g id="b37ca51d-8169-4ad6-b441-6f189a320339" data-name="6"><path class="20d8d125-a28d-40b7-9aaa-5174e723d970" d="M32.278,61.007a10.521,10.521,0,1,1,14.864-.655h0c-5.166,5.642-6.086,8.374-7.1,8.419S37.9,66.155,32.278,61.007Z"/><path class="943cec8b-eab2-498f-b927-8d59ed701d7c" d="M42.253,48.62a5.87,5.87,0,0,0-1.229.076A4.922,4.922,0,0,0,36.815,53h.056a3.691,3.691,0,0,1,6.578,2.512,4.052,4.052,0,0,1-4.023,4.269c-2.589,0-4.286-2.012-4.287-5.16a7.612,7.612,0,0,1,2.048-5.459,6.575,6.575,0,0,1,3.874-1.789,7.736,7.736,0,0,1,1.192-.1Zm-.462,6.986a2.46,2.46,0,0,0-2.5-2.773,2.7,2.7,0,0,0-2.347,1.49,1.412,1.412,0,0,0-.186.727c.038,1.994.952,3.466,2.666,3.464C40.842,58.514,41.792,57.341,41.791,55.606Z"/></g><g id="0dbbcae0-1643-4ba3-b770-6df6863a82d4" data-name="7"><path class="20d8d125-a28d-40b7-9aaa-5174e723d970" d="M115.2,125.89a10.468,10.468,0,1,1-14.79.641h0c5.144-5.61,6.061-8.327,7.073-8.371S109.607,120.764,115.2,125.89Z"/><path class="943cec8b-eab2-498f-b927-8d59ed701d7c" d="M112.188,127.4v1.076l-5.248,10.975h-1.686l5.227-10.66v-.037h-5.895V127.4Z"/></g><g id="8cd7d575-afc6-4bad-8a6c-f319e62ba3cd" data-name="8"><path class="20d8d125-a28d-40b7-9aaa-5174e723d970" d="M134.917,43.983a10.468,10.468,0,1,1,14.677-1.93h0c-4.635,6.038-5.311,8.825-6.316,8.957S140.931,48.6,134.917,43.983Z"/><path class="943cec8b-eab2-498f-b927-8d59ed701d7c" d="M137.37,39.318a3.442,3.442,0,0,1,2.4-3.221l-.019-.056a2.985,2.985,0,0,1-1.9-2.71c0-1.91,1.618-3.205,3.731-3.2,2.336,0,3.5,1.47,3.5,2.972a3.063,3.063,0,0,1-1.988,2.815v.056a3.341,3.341,0,0,1,2.424,3.118c0,2.095-1.806,3.5-4.1,3.5C138.885,42.584,137.367,41.079,137.37,39.318Zm6.489-.063c0-1.465-1.015-2.171-2.646-2.637a2.617,2.617,0,0,0-2.173,2.48,2.227,2.227,0,0,0,2.405,2.3A2.18,2.18,0,0,0,143.859,39.255Zm-4.475-6.033c0,1.2.905,1.855,2.3,2.229a2.375,2.375,0,0,0,1.839-2.185,1.873,1.873,0,0,0-2.037-1.968A1.915,1.915,0,0,0,139.384,33.222Z"/></g><g id="c4a5a9d7-d37a-4765-a9dc-ba331d97e495" data-name="9"><path class="20d8d125-a28d-40b7-9aaa-5174e723d970" d="M304.811,135.868a10.468,10.468,0,1,1,14.058-4.638h0c-3.425,6.8-3.568,9.661-4.53,9.979S311.583,139.282,304.811,135.868Z"/><path class="943cec8b-eab2-498f-b927-8d59ed701d7c" d="M306.628,131.428a6.867,6.867,0,0,0,1.315-.057,4.545,4.545,0,0,0,2.521-1.169,5.287,5.287,0,0,0,1.593-3.209H312a3.537,3.537,0,0,1-2.836,1.3,3.491,3.491,0,0,1-3.561-3.688,4.133,4.133,0,0,1,4.114-4.285c2.466,0,3.987,2,3.988,5.078a7.618,7.618,0,0,1-2.073,5.656,6.031,6.031,0,0,1-3.5,1.615,7.7,7.7,0,0,1-1.5.094Zm.589-6.935a2.318,2.318,0,0,0,2.318,2.558,2.7,2.7,0,0,0,2.373-1.263,1.066,1.066,0,0,0,.148-.593c0-2.057-.762-3.634-2.468-3.633C308.2,121.563,307.216,122.788,307.217,124.493Z"/></g><g id="1faa1f1d-e830-4e94-8484-de393e3db6b2" data-name="10"><path class="20d8d125-a28d-40b7-9aaa-5174e723d970" d="M377.359,19.762a10.468,10.468,0,1,1,14.592-2.494h0c-4.4,6.212-4.967,9.023-5.966,9.194S383.547,24.146,377.359,19.762Z"/><path class="943cec8b-eab2-498f-b927-8d59ed701d7c" d="M377.815,6.962h-.038L375.686,8.1l-.319-1.241L378,5.441l1.391,0,.033,12.051-1.576,0Z"/><path class="943cec8b-eab2-498f-b927-8d59ed701d7c" d="M391.8,11.3c.011,4.1-1.5,6.363-4.173,6.37-2.355.007-3.955-2.2-4-6.181-.011-4.042,1.727-6.271,4.174-6.278C390.342,5.2,391.794,7.462,391.8,11.3Zm-6.544.2c.009,3.133.977,4.91,2.461,4.906,1.669,0,2.46-1.953,2.452-5.031-.009-2.966-.774-4.91-2.461-4.906C386.284,6.475,385.251,8.222,385.26,11.5Z"/></g><g id="3cfc57be-573f-44c1-8f82-72f50bca7955" data-name="11"><path class="20d8d125-a28d-40b7-9aaa-5174e723d970" d="M466,73.277a10.468,10.468,0,1,1-14.2,4.177h0c3.645-6.681,3.882-9.539,4.855-9.825S459.347,69.644,466,73.277Z"/><path class="943cec8b-eab2-498f-b927-8d59ed701d7c" d="M456.111,77.833h-.037l-2.1,1.129-.315-1.242,2.634-1.407h1.391l-.011,12.051-1.576,0Z"/><path class="943cec8b-eab2-498f-b927-8d59ed701d7c" d="M465.62,77.842h-.037l-2.1,1.129-.314-1.243,2.634-1.406h1.39l-.01,12.051-1.577,0Z"/></g><g id="8e249b28-88e0-410b-9928-6b2910ee082a" data-name="12"><path class="20d8d125-a28d-40b7-9aaa-5174e723d970" d="M469.268,25.618a10.468,10.468,0,1,1,14.712-1.645h0c-4.751,5.947-5.481,8.72-6.488,8.833S475.192,30.353,469.268,25.618Z"/><path class="943cec8b-eab2-498f-b927-8d59ed701d7c" d="M469.7,12.92h-.037l-2.094,1.133-.316-1.243,2.632-1.411h1.39l.011,12.051h-1.576Z"/><path class="943cec8b-eab2-498f-b927-8d59ed701d7c" d="M475.676,23.444v-1l1.278-1.243c3.075-2.932,4.464-4.49,4.481-6.308a2.15,2.15,0,0,0-2.394-2.352,4.1,4.1,0,0,0-2.557,1.022l-.52-1.149a5.29,5.29,0,0,1,3.41-1.227,3.39,3.39,0,0,1,3.692,3.5c0,2.225-1.609,4.025-4.146,6.474l-.964.891v.037l5.414,0v1.353Z"/></g><g id="c563f16b-ea6b-4a60-9f6c-464259930a59" data-name="13"><path class="20d8d125-a28d-40b7-9aaa-5174e723d970" d="M628.666,143.293a10.468,10.468,0,1,1-12.869-7.317h0c7.339-2.018,9.56-3.833,10.441-3.332S626.657,135.981,628.666,143.293Z"/><path class="943cec8b-eab2-498f-b927-8d59ed701d7c" d="M613.522,141.3h-.038l-2.1,1.13-.315-1.243,2.634-1.408H615.1l-.007,12.051h-1.576Z"/><path class="943cec8b-eab2-498f-b927-8d59ed701d7c" d="M619.874,149.962a5.451,5.451,0,0,0,2.67.761c2.1,0,2.744-1.333,2.726-2.334-.018-1.687-1.538-2.411-3.114-2.412h-.908v-1.223h.908c1.187,0,2.689-.611,2.69-2.038,0-.964-.612-1.818-2.113-1.818a4.416,4.416,0,0,0-2.41.8l-.426-1.187a5.724,5.724,0,0,1,3.152-.925c2.373,0,3.447,1.411,3.446,2.875a2.992,2.992,0,0,1-2.225,2.836v.037a3.138,3.138,0,0,1,2.686,3.1c0,1.927-1.5,3.614-4.395,3.612a6.134,6.134,0,0,1-3.133-.817Z"/></g><g id="dda0cdde-4c64-4316-9b80-ecb63e3c3ec1" data-name="14"><path class="20d8d125-a28d-40b7-9aaa-5174e723d970" d="M667.545,125.833A10.468,10.468,0,1,1,671.49,140.1h0c-6.622-3.753-9.475-4.037-9.746-5.013S663.8,132.429,667.545,125.833Z"/><path class="943cec8b-eab2-498f-b927-8d59ed701d7c" d="M671.021,126.97h-.038L668.89,128.1l-.317-1.242,2.632-1.411H672.6l.01,12.051h-1.577Z"/><path class="943cec8b-eab2-498f-b927-8d59ed701d7c" d="M682.04,137.49l0-3.281-5.6,0v-1.075l5.369-7.7,1.761,0,.006,7.491,1.687,0,0,1.279-1.687,0,0,3.281Zm0-4.56,0-4.023q0-.947.054-1.892h-.056c-.37.706-.666,1.225-1,1.781l-2.945,4.1v.037Z"/></g><g id="23927d3b-59df-40b6-8aff-2c33b9aad7fb" data-name="15"><path class="20d8d125-a28d-40b7-9aaa-5174e723d970" d="M362.818,127.61a10.468,10.468,0,1,1-14.367,3.569h0c3.926-6.521,4.285-9.366,5.268-9.611S356.323,123.7,362.818,127.61Z"/><path class="943cec8b-eab2-498f-b927-8d59ed701d7c" d="M351.324,132.563h-.037l-2.095,1.131-.315-1.241,2.633-1.41h1.39v12.051h-1.576Z"/><path class="943cec8b-eab2-498f-b927-8d59ed701d7c" d="M364.485,132.414h-4.6l-.463,3.1a6.289,6.289,0,0,1,.982-.075,5.086,5.086,0,0,1,2.6.649,3.434,3.434,0,0,1,1.725,3.1,4.181,4.181,0,0,1-4.487,4.116,5.9,5.9,0,0,1-3-.741l.409-1.243a5.394,5.394,0,0,0,2.577.667,2.658,2.658,0,0,0,2.854-2.614c-.018-1.557-1.056-2.669-3.467-2.669a12.4,12.4,0,0,0-1.668.13l.778-5.784h5.765Z"/></g><g id="335aabb5-ad3a-4023-b49b-f33ffe393496" data-name="16"><path class="20d8d125-a28d-40b7-9aaa-5174e723d970" d="M318.032,173.854a10.468,10.468,0,1,1-9.111-11.668h0c7.554.929,10.3.1,10.923.9S318.96,166.327,318.032,173.854Z"/><path class="943cec8b-eab2-498f-b927-8d59ed701d7c" d="M302.262,167.606h-.037l-2.1,1.128-.314-1.242,2.634-1.406,1.391,0-.015,12.051-1.576,0Z"/><path class="943cec8b-eab2-498f-b927-8d59ed701d7c" d="M315.108,167.25a5.853,5.853,0,0,0-1.223.073,4.9,4.9,0,0,0-4.195,4.277h.055a3.673,3.673,0,0,1,6.541,2.511,4.029,4.029,0,0,1-4.009,4.241c-2.577,0-4.261-2.007-4.258-5.14a7.578,7.578,0,0,1,2.046-5.43,6.558,6.558,0,0,1,3.858-1.775,7.85,7.85,0,0,1,1.187-.092Zm-.471,6.952a2.449,2.449,0,0,0-2.482-2.766,2.686,2.686,0,0,0-2.337,1.481,1.381,1.381,0,0,0-.186.722c.034,1.985.941,3.451,2.647,3.453C313.689,177.093,314.635,175.926,314.637,174.2Z"/></g><g id="72e4109e-2e70-4fa1-ae83-d3caeb434e7d" data-name="17"><path class="20d8d125-a28d-40b7-9aaa-5174e723d970" d="M551.334,304.207a10.468,10.468,0,1,1-13.811-5.331h0c6.959-3.082,8.887-5.206,9.833-4.841S548.264,297.273,551.334,304.207Z"/><path class="943cec8b-eab2-498f-b927-8d59ed701d7c" d="M535.916,304.538h-.037l-2.1,1.131-.315-1.242,2.633-1.41h1.39v12.051h-1.576Z"/><path class="943cec8b-eab2-498f-b927-8d59ed701d7c" d="M549.708,303.016v1.076l-5.246,10.975h-1.687L548,304.407v-.037h-5.9v-1.354Z"/></g><g id="301c90b9-d943-4b73-9aaf-534ba06eade0" data-name="18"><path class="20d8d125-a28d-40b7-9aaa-5174e723d970" d="M601.99,284.07a10.468,10.468,0,1,1,13.312,6.478h0c-7.194,2.484-9.294,4.437-10.206,3.994S604.464,291.238,601.99,284.07Z"/><path class="943cec8b-eab2-498f-b927-8d59ed701d7c" d="M605.782,276.933h-.037l-2.094,1.133-.317-1.242,2.632-1.411h1.39l.011,12.05-1.576,0Z"/><path class="943cec8b-eab2-498f-b927-8d59ed701d7c" d="M611.607,284.4A3.446,3.446,0,0,1,614,281.172l-.018-.056a2.987,2.987,0,0,1-1.912-2.7c0-1.91,1.611-3.209,3.724-3.211,2.336,0,3.5,1.462,3.507,2.964a3.061,3.061,0,0,1-1.982,2.819v.056a3.34,3.34,0,0,1,2.432,3.112c0,2.095-1.8,3.506-4.095,3.508C613.131,287.661,611.609,286.161,611.607,284.4Zm6.49-.08c0-1.464-1.022-2.168-2.654-2.63a2.618,2.618,0,0,0-2.167,2.487,2.23,2.23,0,0,0,2.413,2.3A2.182,2.182,0,0,0,618.1,284.319Zm-4.491-6.02c0,1.205.909,1.852,2.3,2.222a2.374,2.374,0,0,0,1.833-2.189,1.874,1.874,0,0,0-2.041-1.964A1.917,1.917,0,0,0,613.606,278.3Z"/></g><g id="c59b4d1f-d392-486f-acc9-61efa18626cb" data-name="19"><path class="20d8d125-a28d-40b7-9aaa-5174e723d970" d="M690.877,340.961a10.468,10.468,0,1,1,4.757,14.019h0c-6.826-3.368-9.691-3.487-10.018-4.447S687.521,347.761,690.877,340.961Z"/><path class="943cec8b-eab2-498f-b927-8d59ed701d7c" d="M694.6,341.648h-.038l-2.094,1.131-.316-1.242,2.633-1.409h1.391v12.05H694.6Z"/><path class="943cec8b-eab2-498f-b927-8d59ed701d7c" d="M701.516,351.03a6.785,6.785,0,0,0,1.316-.056,4.532,4.532,0,0,0,2.522-1.167,5.293,5.293,0,0,0,1.595-3.207h-.055a3.538,3.538,0,0,1-2.838,1.3,3.49,3.49,0,0,1-3.559-3.689,4.132,4.132,0,0,1,4.116-4.282c2.466,0,3.987,2,3.987,5.08a7.618,7.618,0,0,1-2.078,5.654,6.02,6.02,0,0,1-3.5,1.612,7.547,7.547,0,0,1-1.5.093Zm.594-6.933a2.319,2.319,0,0,0,2.318,2.558,2.7,2.7,0,0,0,2.373-1.26,1.074,1.074,0,0,0,.148-.593c0-2.058-.759-3.634-2.466-3.634C703.093,341.168,702.11,342.391,702.11,344.1Z"/></g><g id="14435d35-1ee0-4339-a680-ce7df50a3e1b" data-name="20"><path class="20d8d125-a28d-40b7-9aaa-5174e723d970" d="M655.422,433.067a10.468,10.468,0,1,1-14.175,4.272h0c3.6-6.706,3.817-9.565,4.788-9.858S648.741,429.479,655.422,433.067Z"/><path class="943cec8b-eab2-498f-b927-8d59ed701d7c" d="M642.735,447.557v-.925l1.193-1.149c2.869-2.708,4.166-4.147,4.185-5.828a2,2,0,0,0-2.227-2.181,3.848,3.848,0,0,0-2.385.942l-.482-1.064a4.956,4.956,0,0,1,3.179-1.129,3.147,3.147,0,0,1,3.434,3.245c0,2.057-1.5,3.72-3.874,5.982l-.9.823v.034l5.043,0v1.252Z"/><path class="943cec8b-eab2-498f-b927-8d59ed701d7c" d="M659.065,441.876c0,3.791-1.421,5.882-3.909,5.88-2.194,0-3.677-2.044-3.708-5.732,0-3.738,1.628-5.8,3.908-5.794C657.722,436.232,659.068,438.326,659.065,441.876Zm-6.1.167c0,2.9.895,4.546,2.277,4.547,1.554,0,2.3-1.8,2.3-4.647,0-2.744-.7-4.546-2.277-4.547C653.939,437.4,652.97,439.007,652.967,442.043Z"/></g><g id="92cf5f6a-b076-4226-8f37-ccaf6d3255f7" data-name="21"><path class="20d8d125-a28d-40b7-9aaa-5174e723d970" d="M613.474,420.972a10.468,10.468,0,1,1-14.792.6h0c5.161-5.6,6.085-8.309,7.1-8.351S607.9,415.829,613.474,420.972Z"/><path class="943cec8b-eab2-498f-b927-8d59ed701d7c" d="M599.617,433.93V433l1.192-1.15c2.868-2.71,4.164-4.149,4.182-5.83a2,2,0,0,0-2.228-2.179,3.843,3.843,0,0,0-2.385.943l-.482-1.064a4.949,4.949,0,0,1,3.178-1.131,3.148,3.148,0,0,1,3.436,3.243c0,2.057-1.5,3.721-3.87,5.984l-.9.823v.035h5.043v1.252Z"/><path class="943cec8b-eab2-498f-b927-8d59ed701d7c" d="M611.781,424.19h-.034l-1.953,1.045-.292-1.149,2.452-1.3h1.3l0,11.148h-1.469Z"/></g><g id="c8687e90-3a58-4b15-9d40-053fb140dd68" data-name="22"><path class="20d8d125-a28d-40b7-9aaa-5174e723d970" d="M547.3,436.9a10.468,10.468,0,1,1-14.8-.066h0c5.407-5.357,6.453-8.027,7.466-8.023S541.962,431.515,547.3,436.9Z"/><path class="943cec8b-eab2-498f-b927-8d59ed701d7c" d="M532,449.428V448.5l1.192-1.149c2.869-2.709,4.165-4.148,4.183-5.829a2,2,0,0,0-2.227-2.179,3.834,3.834,0,0,0-2.385.942l-.483-1.064a4.95,4.95,0,0,1,3.179-1.13,3.148,3.148,0,0,1,3.436,3.243c0,2.057-1.5,3.721-3.872,5.984l-.9.822v.035l5.043,0v1.252Z"/><path class="943cec8b-eab2-498f-b927-8d59ed701d7c" d="M540.862,449.431v-.925l1.193-1.149c2.868-2.709,4.164-4.149,4.182-5.83a1.994,1.994,0,0,0-2.227-2.179,3.845,3.845,0,0,0-2.384.942l-.483-1.064a4.95,4.95,0,0,1,3.178-1.13,3.148,3.148,0,0,1,3.436,3.244c0,2.057-1.5,3.72-3.872,5.983l-.9.823v.035h5.043v1.252Z"/></g><g id="e1a697c7-b228-4680-9e85-af5782807c5e" data-name="5"><path class="20d8d125-a28d-40b7-9aaa-5174e723d970" d="M20.04,137.131a10.195,10.195,0,1,1-4.483-13.7h0c6.611,3.352,9.4,3.5,9.708,4.437S23.381,130.544,20.04,137.131Z"/><path class="943cec8b-eab2-498f-b927-8d59ed701d7c" d="M14.212,127.83l-4.477,0-.453,3.014a6.3,6.3,0,0,1,.957-.072,4.951,4.951,0,0,1,2.527.634,3.344,3.344,0,0,1,1.676,3.016,4.07,4.07,0,0,1-4.37,4,5.751,5.751,0,0,1-2.924-.724l.4-1.21a5.248,5.248,0,0,0,2.509.652,2.588,2.588,0,0,0,2.781-2.543c-.017-1.516-1.027-2.6-3.374-2.6a12.382,12.382,0,0,0-1.625.125l.762-5.631,5.614,0Z"/></g></g><g id="305f1804-b8cd-4c20-82e5-d0d4b042de39" data-name="Start-Finish Line"><use width="200" height="103.617" transform="matrix(-0.101, 0.177, -0.177, -0.101, 347.149, 309.636)" xlink:href="#4e813a3e-b54d-459a-9e6d-68eed7ad937a"/></g></g></g></g></svg>