<svg xmlns="http://www.w3.org/2000/svg" xmlns:xlink="http://www.w3.org/1999/xlink" width="658.215" height="829.559" viewBox="0 0 658.215 829.559"><defs><style>.ceb060ee-b8e4-4519-bbd2-5b6c960459b0{fill:#00ff24;}.\38 cf2b1bb-ca8d-466d-a144-c2d6297a15f3,.ceb060ee-b8e4-4519-bbd2-5b6c960459b0{stroke:#000;stroke-miterlimit:10;stroke-width:5px;}.\38 cf2b1bb-ca8d-466d-a144-c2d6297a15f3{fill:#fff;}.\31 aaa380c-bec9-45a1-844d-c1f29841d4fa,.\36 a198552-443a-4a69-b855-a7fd4564e12c,.a4eeac3f-df59-4729-8e28-6ec30c532b5a,.d31a2afc-f144-4e67-822c-2184d779c889,.dd6936fc-e3d8-4f8d-b729-9e354e5289fa{fill:none;stroke-linejoin:round;}.\36 a198552-443a-4a69-b855-a7fd4564e12c,.d31a2afc-f144-4e67-822c-2184d779c889{stroke:#c91c1c;}.\36 a198552-443a-4a69-b855-a7fd4564e12c,.a4eeac3f-df59-4729-8e28-6ec30c532b5a{stroke-width:27px;}.\31 aaa380c-bec9-45a1-844d-c1f29841d4fa,.a4eeac3f-df59-4729-8e28-6ec30c532b5a{stroke:#0080ff;}.dd6936fc-e3d8-4f8d-b729-9e354e5289fa{stroke:#fff;stroke-width:15px;}.\31 aaa380c-bec9-45a1-844d-c1f29841d4fa,.d31a2afc-f144-4e67-822c-2184d779c889{stroke-width:2.7px;}</style><symbol id="0579afcc-26d9-4666-ac7c-6611634d6241" data-name="fd103434-89f2-4089-acf9-54fed79ed404" viewBox="0 0 200 103.617"><rect class="ceb060ee-b8e4-4519-bbd2-5b6c960459b0" x="2.5" y="54.074" width="195" height="47.043"/><rect class="8cf2b1bb-ca8d-466d-a144-c2d6297a15f3" x="2.5" y="2.5" width="48.75" height="48.75"/><rect class="8cf2b1bb-ca8d-466d-a144-c2d6297a15f3" x="51.25" y="2.5" width="48.75" height="48.75"/><rect class="8cf2b1bb-ca8d-466d-a144-c2d6297a15f3" x="100" y="2.5" width="48.75" height="48.75"/><rect class="8cf2b1bb-ca8d-466d-a144-c2d6297a15f3" x="148.75" y="2.5" width="48.75" height="48.75"/></symbol></defs><title>LSIA_Speed_Trial</title><g id="2d1a8cd3-066e-4e6d-9e20-826a1b70b87b" data-name="Layer 2"><g id="1c8b3051-1836-4c3d-b0a0-8ec2c568ba32" data-name="Airport"><g id="06833a97-5de1-4e2f-a157-ac18c3c1fb70" data-name="LSIA_Speed_Trial"><path id="5f45b60f-26f6-48c2-9491-3f7dbf4d5dc2" data-name="Pitlane Outer" class="6a198552-443a-4a69-b855-a7fd4564e12c" d="M151.445,17.187c20.667,8.778,44.359,16.762,46.222,30.694,1.75,13.084-11.82,32.494-17.5,41.778-5.749,9.4-42.733,72.245-67.777,113.333"/><path id="28bace04-7dc9-4149-a214-bf453063c7c9" data-name="Track Outer" class="a4eeac3f-df59-4729-8e28-6ec30c532b5a" d="M320.7,408.27s36.473,19.416,50.139,28.861,19.861,26.7,23.417,40.25-2.386,26.642,3.028,36.278c8.013,14.264,46.444,27.556,54.055,44.667,5.141,11.558-.333,18.25-4.5,25.5-5.24,9.118-8.917,14.139-12.375,25.1-2.9,9.2-.553,16.583,6.208,24.875,6.5,7.972,16.137,12.808,24.667,18.417,8.111,5.333,17.528,9.445,33.75,14.833a443.062,443.062,0,0,1,43.667,17.666c7.055,3.445,57.416,31.39,69.639,42.834,11.4,10.677,22.222,19.111,27.889,31.111,4.411,9.341,7.333,21.667-.2,35.806-6.972,10.111-16.167,20.166-29.333,21.416-12.534,1.19-25.807-3.813-35.917-8.833-11.917-5.917-16.5-8.333-26.833-16.167-10.038-7.609-18.945-18.555-26.75-25.666-7.376-6.72-21.084-12.667-29.084-13.5-7.27-.758-18.666,1.583-26.833,7.666-8.564,6.379-13.917,25.917-23.972,31.556-11.079,6.213-21.139,6.833-32.334,5.556-7.481-.854-19.021-1.881-32-15.779-10.194-10.916-14.261-19.835-14.638-39.055-.556-28.333-2.223-39.778-11-57.111-9.864-19.477-26.153-28.611-38.889-36.333s-43.424-23.549-52-28c-10.167-5.278-21.845-9.84-45.556-8-25.778,2-43.278,10.833-52.028,13.083-8.556,2.2-36.583,12.139-51.916,10.25s-34.179-12.9-44.639-20.167c-14.278-9.916-34.861-26.5-41.695-34.166-6.69-7.507-13.722-21.445-10.25-35.084S29,517.27,38.584,511.631s22.874-6.757,38.667-4.75c15.083,1.917,56.666,15.5,56.666,15.5s26.195,9,47.112,9.778,32.916,3.916,45.138-5.111,14.389-13.25,14.167-31.083-16.278-42.583-24.667-55.084-37-41.916-45.583-48.5c-8.167-6.5-71.389-43-71.389-43-16.952-9.781-39.333-23-51.333-29.555s-29.333-21.834-19.278-41.778c13.389-27.694,39.945-55.722,46.722-66.444S90.251,188.715,85.7,171.715c-6.273-23.41-27.778-23.556-27-48.667C59.363,101.5,74.029,79.6,74.029,79.6l29.222-48.445c11-13.807,28.4-23.653,49.333-13.444,20.038,9.132,25.371,31.421,15.917,53.833,0,0-41.267,69.71-46.667,79.444-7.889,14.222-3.689,38.436-7.111,47.112-4.778,12.111-21.28,30.012-20.889,45.444.445,17.556,7.923,32.087,16.972,44.056,5.25,6.944,22.9,20.836,43.528,33.666C174.612,333.881,254.362,373.6,254.362,373.6Z"/><path id="168de4eb-b572-46c0-82ff-08653f749da5" data-name="Track Middle" class="dd6936fc-e3d8-4f8d-b729-9e354e5289fa" d="M320.7,408.27s36.473,19.416,50.139,28.861,19.861,26.7,23.417,40.25-2.386,26.642,3.028,36.278c8.013,14.264,46.444,27.556,54.055,44.667,5.141,11.558-.333,18.25-4.5,25.5-5.24,9.118-8.917,14.139-12.375,25.1-2.9,9.2-.553,16.583,6.208,24.875,6.5,7.972,16.137,12.808,24.667,18.417,8.111,5.333,17.528,9.445,33.75,14.833a443.062,443.062,0,0,1,43.667,17.666c7.055,3.445,57.416,31.39,69.639,42.834,11.4,10.677,22.222,19.111,27.889,31.111,4.411,9.341,7.333,21.667-.2,35.806-6.972,10.111-16.167,20.166-29.333,21.416-12.534,1.19-25.807-3.813-35.917-8.833-11.917-5.917-16.5-8.333-26.833-16.167-10.038-7.609-18.945-18.555-26.75-25.666-7.376-6.72-21.084-12.667-29.084-13.5-7.27-.758-18.666,1.583-26.833,7.666-8.564,6.379-13.917,25.917-23.972,31.556-11.079,6.213-21.139,6.833-32.334,5.556-7.481-.854-19.021-1.881-32-15.779-10.194-10.916-14.261-19.835-14.638-39.055-.556-28.333-2.223-39.778-11-57.111-9.864-19.477-26.153-28.611-38.889-36.333s-43.424-23.549-52-28c-10.167-5.278-21.845-9.84-45.556-8-25.778,2-43.278,10.833-52.028,13.083-8.556,2.2-36.583,12.139-51.916,10.25s-34.179-12.9-44.639-20.167c-14.278-9.916-34.861-26.5-41.695-34.166-6.69-7.507-13.722-21.445-10.25-35.084S29,517.27,38.584,511.631s22.874-6.757,38.667-4.75c15.083,1.917,56.666,15.5,56.666,15.5s26.195,9,47.112,9.778,32.916,3.916,45.138-5.111,14.389-13.25,14.167-31.083-16.278-42.583-24.667-55.084-37-41.916-45.583-48.5c-8.167-6.5-71.389-43-71.389-43-16.952-9.781-39.333-23-51.333-29.555s-29.333-21.834-19.278-41.778c13.389-27.694,39.945-55.722,46.722-66.444S90.251,188.715,85.7,171.715c-6.273-23.41-27.778-23.556-27-48.667C59.363,101.5,74.029,79.6,74.029,79.6l29.222-48.445c11-13.807,28.4-23.653,49.333-13.444,20.038,9.132,25.371,31.421,15.917,53.833,0,0-41.267,69.377-46.667,79.111-7.889,14.222-3.689,38.769-7.111,47.445-4.778,12.111-21.28,30.012-20.889,45.444.445,17.556,7.923,32.087,16.972,44.056,5.25,6.944,22.9,20.836,43.528,33.666C174.612,333.881,254.362,373.6,254.362,373.6Z"/><path id="ef4525d8-0ae7-4c4d-8762-ba8cd20b81f5" data-name="Pitlane Middle" class="dd6936fc-e3d8-4f8d-b729-9e354e5289fa" d="M151.445,17.187c20.667,8.778,44.359,16.762,46.222,30.694,1.75,13.084-11.82,32.494-17.5,41.778-5.749,9.4-42.733,72.245-67.777,113.333"/><path id="60bd402d-bab2-4ca8-a900-638b99e7ec13" data-name="Pitlane Inner" class="d31a2afc-f144-4e67-822c-2184d779c889" d="M151.445,17.187c20.667,8.778,44.359,16.762,46.222,30.694,1.75,13.084-11.82,32.494-17.5,41.778-5.749,9.4-42.733,72.245-67.777,113.333"/><path id="bace2af8-8de5-4e88-bc23-0143f172beb4" data-name="Track Inner" class="1aaa380c-bec9-45a1-844d-c1f29841d4fa" d="M320.7,408.27s36.473,19.416,50.139,28.861,19.861,26.694,23.417,40.25-2.386,26.642,3.027,36.278c8.014,14.264,46.445,27.556,54.056,44.666,5.141,11.559-.333,18.251-4.5,25.5-5.24,9.118-8.917,14.14-12.375,25.1-2.9,9.2-.553,16.583,6.208,24.875,6.5,7.973,16.137,12.808,24.667,18.417,8.111,5.333,17.528,9.444,33.75,14.833a443.062,443.062,0,0,1,43.667,17.666c7.055,3.445,57.416,31.39,69.639,42.834,11.4,10.677,22.222,19.111,27.888,31.111,4.412,9.341,7.334,21.666-.194,35.806-6.972,10.11-16.167,20.166-29.333,21.416-12.534,1.19-25.807-3.814-35.917-8.833-11.917-5.917-16.5-8.333-26.833-16.167-10.038-7.608-18.945-18.556-26.75-25.666-7.376-6.72-21.084-12.667-29.084-13.5-7.27-.758-18.666,1.583-26.833,7.666-8.564,6.379-13.917,25.917-23.972,31.556-11.079,6.213-21.139,6.834-32.334,5.555-7.48-.853-19.021-1.88-32-15.778-10.194-10.916-14.262-19.835-14.638-39.055-.556-28.334-2.223-39.778-11-57.111-9.864-19.478-26.153-28.611-38.889-36.333s-43.424-23.549-52-28c-10.167-5.278-21.845-9.84-45.556-8-25.778,2-43.278,10.833-52.028,13.083-8.556,2.2-36.583,12.139-51.916,10.25s-34.179-12.9-44.639-20.167c-14.278-9.916-34.861-26.5-41.695-34.166-6.69-7.507-13.722-21.444-10.25-35.084S29,517.27,38.584,511.631s22.874-6.757,38.667-4.75c15.083,1.917,56.666,15.5,56.666,15.5s26.195,9,47.111,9.778,32.917,3.916,45.139-5.111,14.389-13.25,14.167-31.083-16.278-42.583-24.667-55.084-37-41.916-45.583-48.5c-8.167-6.5-71.389-43-71.389-43-16.952-9.781-39.333-23-51.333-29.556s-29.334-21.833-19.278-41.777c13.389-27.694,39.944-55.723,46.722-66.444S90.251,188.715,85.7,171.715c-6.273-23.41-27.778-23.556-27-48.667C59.362,101.5,74.028,79.6,74.028,79.6l29.223-48.446c11-13.806,28.4-23.652,49.333-13.443,20.038,9.133,25.371,31.421,15.917,53.833,0,0-41.267,69.71-46.667,79.444-7.889,14.222-3.689,38.436-7.111,47.112-4.778,12.111-21.28,30.011-20.889,45.444.444,17.556,7.923,32.087,16.972,44.056,5.25,6.944,22.9,20.836,43.528,33.667,20.278,12.61,100.028,52.333,100.028,52.333Z"/><use id="732aad24-9b83-4e15-baaf-073490184c1c" data-name="Start-Finish-Line" width="200" height="103.617" transform="translate(288.264 423.479) rotate(-61.759) scale(0.287)" xlink:href="#0579afcc-26d9-4666-ac7c-6611634d6241"/></g></g></g></svg>