<svg xmlns="http://www.w3.org/2000/svg" xmlns:xlink="http://www.w3.org/1999/xlink" width="734.476" height="642.9" viewBox="0 0 734.476 642.9"><defs><style>.fd04c393-325b-4767-83f1-e36275c27aca{fill:#00ff24;}.d1783be5-f6b3-4a53-8393-d64afaca8839,.fd04c393-325b-4767-83f1-e36275c27aca{stroke:#000;stroke-width:5px;}.\33 33ec70c-554a-44b8-b6ca-fe4937b295dd,.\34 0257626-d50e-43e5-999f-3c77d1d15975,.\34 30fa613-1b14-44e9-9481-22a6a2f2e546,.\35 f0857ef-0eaa-427c-87b4-11eb795a24a8,.\37 4b11831-82a3-4608-abe6-70910b68821f,.\38 5adade7-cbbd-478a-931f-d4989e5f5deb,.d1783be5-f6b3-4a53-8393-d64afaca8839,.fd04c393-325b-4767-83f1-e36275c27aca{stroke-miterlimit:10;}.\34 cd5ce44-8592-4e04-862c-bafed8f83dab,.d1783be5-f6b3-4a53-8393-d64afaca8839{fill:#fff;}.\33 33ec70c-554a-44b8-b6ca-fe4937b295dd,.\34 30fa613-1b14-44e9-9481-22a6a2f2e546,.\35 f0857ef-0eaa-427c-87b4-11eb795a24a8,.\37 4b11831-82a3-4608-abe6-70910b68821f,.\38 5adade7-cbbd-478a-931f-d4989e5f5deb{fill:none;}.\34 30fa613-1b14-44e9-9481-22a6a2f2e546,.\37 4b11831-82a3-4608-abe6-70910b68821f{stroke:#c91d1d;}.\34 30fa613-1b14-44e9-9481-22a6a2f2e546,.\35 f0857ef-0eaa-427c-87b4-11eb795a24a8{stroke-width:20px;}.\35 f0857ef-0eaa-427c-87b4-11eb795a24a8,.\38 5adade7-cbbd-478a-931f-d4989e5f5deb{stroke:#007fff;}.\33 33ec70c-554a-44b8-b6ca-fe4937b295dd,.\34 0257626-d50e-43e5-999f-3c77d1d15975{stroke:#fff;}.\33 33ec70c-554a-44b8-b6ca-fe4937b295dd{stroke-width:10px;}.\37 4b11831-82a3-4608-abe6-70910b68821f,.\38 5adade7-cbbd-478a-931f-d4989e5f5deb{stroke-width:2px;}.\34 0257626-d50e-43e5-999f-3c77d1d15975{fill:#333;stroke-width:1.5px;}</style><symbol id="4dff77f6-424e-420e-84ef-5613b75809cf" data-name="fd103434-89f2-4089-acf9-54fed79ed404" viewBox="0 0 200 103.617"><rect class="fd04c393-325b-4767-83f1-e36275c27aca" x="2.5" y="54.074" width="195" height="47.043"/><rect class="d1783be5-f6b3-4a53-8393-d64afaca8839" x="2.5" y="2.5" width="48.75" height="48.75"/><rect class="d1783be5-f6b3-4a53-8393-d64afaca8839" x="51.25" y="2.5" width="48.75" height="48.75"/><rect class="d1783be5-f6b3-4a53-8393-d64afaca8839" x="100" y="2.5" width="48.75" height="48.75"/><rect class="d1783be5-f6b3-4a53-8393-d64afaca8839" x="148.75" y="2.5" width="48.75" height="48.75"/></symbol></defs><title>Rubyrock_Raceway</title><g id="1fdd1778-a942-4995-9760-eba763b1bde1" data-name="Layer 2"><g id="3a27de9b-91ea-4348-9f41-904bb312d24d" data-name="Airport"><g id="a1dc2e5d-640f-4761-8867-4ec771ebfa9c" data-name="Rubyrock_Raceway"><g id="1ede6278-b2a0-4725-b330-d02d9240e77c" data-name="Pit-Outer"><path class="430fa613-1b14-44e9-9481-22a6a2f2e546" d="M115.443,158.1c-1.341,6.056-2.393,10.993-3.727,16.731A5.174,5.174,0,0,0,113,179.554l3.35,3.532a8.225,8.225,0,0,1,1.431,9.248l-36.835,75.9a31.418,31.418,0,0,0,12.734,41.02c87.389,49.713,123.538,70.635,126.918,73.123a15.221,15.221,0,0,0,2.833,1.667c5.05,2.288,10,1.192,12.167.833,4.035-.671,12.983-.1,21.432,2.8"/></g><g id="d3ed03a3-ee15-4280-a04d-8041e9242bd8" data-name="Track-Outer"><path class="5f0857ef-0eaa-427c-87b4-11eb795a24a8" d="M251.086,384.307l90.251,51.19a13.119,13.119,0,0,0,17.888-4.942l25.35-43.086a29.674,29.674,0,0,0,2.007-24.97c-.267-.719-.558-1.507-.877-2.372-2.257-6.114.327-12.906,3.827-17.364l4.083-4.917c3.583-4.02,9.711-5.339,16.708-1.395,37.183,20.954,69.041,40.2,106.312,61a17.778,17.778,0,0,1,6.585,24.668L483.93,487.6a20.973,20.973,0,0,0,7.99,29.23h0a18.976,18.976,0,0,0,25.571-7.358l51.73-91.693a34.254,34.254,0,0,1,46.554-13.065l64.812,36.247a39.042,39.042,0,0,1,14.644,53.784L646.543,578a16.8,16.8,0,0,1-22.527,6.282L563.249,551.26a15.677,15.677,0,0,0-20.965,5.769q-8.625,14.52-17.249,29.042a15.7,15.7,0,0,1-20.986,5.783l-18.378-9.97a22.378,22.378,0,0,0-30.162,8.676L434.3,628.148a9.339,9.339,0,0,1-12.827,3.486L291.04,555.825a86.647,86.647,0,0,0-37.3-11.528c-28.056-2.023-52.291-3.072-86-5.659-7.544-.579-19.27-1.325-37.266-2.706-14.208-1.091-22.49-1.835-30.649-4.3-12.378-3.744-21.589-9.481-32.849-15.428a12.922,12.922,0,0,1-5.231-17.963l62.35-108.448a15.765,15.765,0,0,0-5.876-21.564l-98.326-55.9a19.534,19.534,0,0,1-8.131-25.077,50.3,50.3,0,0,1,2.568-4.737A26.884,26.884,0,0,1,28.9,270.578l8.635-2.941a38.188,38.188,0,0,0,20.635-16.843l34.371-58.66A15.536,15.536,0,0,0,86,170.342l-13.605-6.7a16.163,16.163,0,0,1-6.9-22.515c19.114-33.459,39.1-68,57.916-101.093,6.832-12.012,22.016-16.816,34.216-10.327A25.41,25.41,0,0,1,167.7,64.875c-16.182,27.938-33.635,57.459-50.066,85.706-2.918,5.016-3.509,9.875,1.569,12.682,2.324,1.284,13.737,7.182,16.061,8.467A10.463,10.463,0,0,1,139.38,185.9l-33.757,61.778c-11.175,22.456-2.05,48.831,12.743,58.009Z"/></g><g id="e4dda3d1-c42b-4de7-a3a4-9de8dd437432" data-name="Pit-Mid"><path class="333ec70c-554a-44b8-b6ca-fe4937b295dd" d="M115.443,158.1c-1.341,6.056-2.393,10.993-3.727,16.731A5.174,5.174,0,0,0,113,179.554l3.35,3.532a8.225,8.225,0,0,1,1.431,9.248l-36.835,75.9a31.418,31.418,0,0,0,12.734,41.02c87.389,49.713,123.538,70.635,126.918,73.123a15.221,15.221,0,0,0,2.833,1.667c5.05,2.288,10,1.192,12.167.833,4.035-.671,12.983-.1,21.432,2.8"/></g><g id="96a9e32e-e068-4ecf-a65e-9831c197de11" data-name="Track-Mid"><path class="333ec70c-554a-44b8-b6ca-fe4937b295dd" d="M251.086,384.307l90.251,51.19a13.119,13.119,0,0,0,17.888-4.942l25.35-43.086a29.674,29.674,0,0,0,2.007-24.97c-.267-.719-.558-1.507-.877-2.372-2.257-6.114.327-12.906,3.827-17.364l4.083-4.917c3.583-4.02,9.711-5.339,16.708-1.395,37.183,20.954,69.041,40.2,106.312,61a17.778,17.778,0,0,1,6.585,24.668L483.93,487.6a20.973,20.973,0,0,0,7.99,29.23h0a18.976,18.976,0,0,0,25.571-7.358l51.73-91.693a34.254,34.254,0,0,1,46.554-13.065l64.812,36.247a39.042,39.042,0,0,1,14.644,53.784L646.543,578a16.8,16.8,0,0,1-22.527,6.282L563.249,551.26a15.677,15.677,0,0,0-20.965,5.769q-8.625,14.52-17.249,29.042a15.7,15.7,0,0,1-20.986,5.783l-18.378-9.97a22.378,22.378,0,0,0-30.162,8.676L434.3,628.148a9.339,9.339,0,0,1-12.827,3.486L291.04,555.825a86.647,86.647,0,0,0-37.3-11.528c-28.056-2.023-52.291-3.072-86-5.659-7.544-.579-19.27-1.325-37.266-2.706-14.208-1.091-22.49-1.835-30.649-4.3-12.378-3.744-21.589-9.481-32.849-15.428a12.922,12.922,0,0,1-5.231-17.963l62.35-108.448a15.765,15.765,0,0,0-5.876-21.564l-98.326-55.9a19.534,19.534,0,0,1-8.131-25.077,50.3,50.3,0,0,1,2.568-4.737A26.884,26.884,0,0,1,28.9,270.578l8.635-2.941a38.188,38.188,0,0,0,20.635-16.843l34.371-58.66A15.536,15.536,0,0,0,86,170.342l-13.605-6.7a16.163,16.163,0,0,1-6.9-22.515c19.114-33.459,39.1-68,57.916-101.093,6.832-12.012,22.016-16.816,34.216-10.327A25.41,25.41,0,0,1,167.7,64.875c-16.182,27.938-33.635,57.459-50.066,85.706-2.918,5.016-3.509,9.875,1.569,12.682,2.324,1.284,13.737,7.182,16.061,8.467A10.463,10.463,0,0,1,139.38,185.9l-33.757,61.778c-11.175,22.456-2.05,48.831,12.743,58.009Z"/></g><g id="53d5e712-c5dd-4463-af58-6015b21bcfcb" data-name="Pit-Inner"><path class="74b11831-82a3-4608-abe6-70910b68821f" d="M115.443,158.1c-1.341,6.056-2.393,10.993-3.727,16.731A5.174,5.174,0,0,0,113,179.554l3.35,3.532a8.225,8.225,0,0,1,1.431,9.248l-36.835,75.9a31.418,31.418,0,0,0,12.734,41.02c87.389,49.713,123.538,70.635,126.918,73.123a15.221,15.221,0,0,0,2.833,1.667c5.05,2.288,10,1.192,12.167.833,4.035-.671,12.983-.1,21.432,2.8"/></g><g id="5b53d5c7-015d-4a79-8b26-19fe332997ce" data-name="Track-Inner"><path class="85adade7-cbbd-478a-931f-d4989e5f5deb" d="M251.086,384.307l90.251,51.19a13.119,13.119,0,0,0,17.888-4.942l25.35-43.086a29.674,29.674,0,0,0,2.007-24.97c-.267-.719-.558-1.507-.877-2.372-2.257-6.114.327-12.906,3.827-17.364l4.083-4.917c3.583-4.02,9.711-5.339,16.708-1.395,37.183,20.954,69.041,40.2,106.312,61a17.778,17.778,0,0,1,6.585,24.668L483.93,487.6a20.973,20.973,0,0,0,7.99,29.23h0a18.976,18.976,0,0,0,25.571-7.358l51.73-91.693a34.254,34.254,0,0,1,46.554-13.065l64.812,36.247a39.042,39.042,0,0,1,14.644,53.784L646.543,578a16.8,16.8,0,0,1-22.527,6.282L563.249,551.26a15.677,15.677,0,0,0-20.965,5.769q-8.625,14.52-17.249,29.042a15.7,15.7,0,0,1-20.986,5.783l-18.378-9.97a22.378,22.378,0,0,0-30.162,8.676L434.3,628.148a9.339,9.339,0,0,1-12.827,3.486L291.04,555.825a86.647,86.647,0,0,0-37.3-11.528c-28.056-2.023-52.291-3.072-86-5.659-7.544-.579-19.27-1.325-37.266-2.706-14.208-1.091-22.49-1.835-30.649-4.3-12.378-3.744-21.589-9.481-32.849-15.428a12.922,12.922,0,0,1-5.231-17.963l62.35-108.448a15.765,15.765,0,0,0-5.876-21.564l-98.326-55.9a19.534,19.534,0,0,1-8.131-25.077,50.3,50.3,0,0,1,2.568-4.737A26.884,26.884,0,0,1,28.9,270.578l8.635-2.941a38.188,38.188,0,0,0,20.635-16.843l34.371-58.66A15.536,15.536,0,0,0,86,170.342l-13.605-6.7a16.163,16.163,0,0,1-6.9-22.515c19.114-33.459,39.1-68,57.916-101.093,6.832-12.012,22.016-16.816,34.216-10.327A25.41,25.41,0,0,1,167.7,64.875c-16.182,27.938-33.635,57.459-50.066,85.706-2.918,5.016-3.509,9.875,1.569,12.682,2.324,1.284,13.737,7.182,16.061,8.467A10.463,10.463,0,0,1,139.38,185.9l-33.757,61.778c-11.175,22.456-2.05,48.831,12.743,58.009Z"/></g><g id="18920b5c-6a09-4bfa-aa70-687533d4f112" data-name="Start-Finish Line"><use width="200" height="103.617" transform="translate(241.198 402.641) rotate(-60.823) scale(0.21)" xlink:href="#4dff77f6-424e-420e-84ef-5613b75809cf"/></g><g id="d5270789-d8a8-4eaf-b2d5-772c7ca6def4" data-name="Corner Numbers"><g id="f27d93dd-f9c2-4d9f-b75a-7ba07bf978a4" data-name="1"><path class="40257626-d50e-43e5-999f-3c77d1d15975" d="M363.317,449.679a10.417,10.417,0,1,1-14.142,4.128h0c3.641-6.642,3.882-9.486,4.85-9.769S356.7,446.05,363.317,449.679Z"/><path class="4cd5ce44-8592-4e04-862c-bafed8f83dab" d="M357.574,453.935h-.037l-2.084,1.127-.315-1.235,2.618-1.406h1.384l.014,11.991-1.569,0Z"/></g><g id="6d9b45f9-f297-41ff-9ce7-702a99af1984" data-name="2"><path class="40257626-d50e-43e5-999f-3c77d1d15975" d="M404.78,366.151a10.812,10.812,0,1,1,.863,15.266h0c-5.863-5.237-8.682-6.147-8.741-7.192S399.562,371.992,404.78,366.151Z"/><path class="4cd5ce44-8592-4e04-862c-bafed8f83dab" d="M408.962,379.117v-1.034l1.321-1.283c3.18-3.024,4.617-4.632,4.637-6.509a2.221,2.221,0,0,0-2.47-2.432,4.246,4.246,0,0,0-2.643,1.051l-.536-1.187a5.465,5.465,0,0,1,3.525-1.263,3.5,3.5,0,0,1,3.809,3.62c0,2.3-1.667,4.157-4.292,6.683l-1,.919v.039h5.591v1.4Z"/></g><g id="b676368d-1e7a-472e-bc9f-fc42dcda6fc2" data-name="3"><path class="40257626-d50e-43e5-999f-3c77d1d15975" d="M369.39,362.862a10.512,10.512,0,1,1-1.341-14.806h0c5.871,4.9,8.639,5.687,8.732,6.7S374.269,357.014,369.39,362.862Z"/><path class="4cd5ce44-8592-4e04-862c-bafed8f83dab" d="M358.36,360.037a5.476,5.476,0,0,0,2.681.763c2.1,0,2.755-1.34,2.737-2.346-.019-1.693-1.546-2.42-3.128-2.42h-.912v-1.228h.912c1.192,0,2.7-.614,2.7-2.048,0-.968-.614-1.824-2.122-1.824a4.446,4.446,0,0,0-2.42.8l-.429-1.192a5.752,5.752,0,0,1,3.165-.93c2.383,0,3.463,1.414,3.463,2.884a3,3,0,0,1-2.234,2.849v.037a3.151,3.151,0,0,1,2.7,3.109c0,1.936-1.507,3.63-4.411,3.63a6.151,6.151,0,0,1-3.146-.819Z"/></g><g id="8a10c77e-2b5f-4377-81d4-9ac1b15a70d5" data-name="4"><path class="40257626-d50e-43e5-999f-3c77d1d15975" d="M392.448,318.622a10.195,10.195,0,1,1,14.407-.551h0c-5.037,5.438-5.944,8.079-6.93,8.118S397.864,323.642,392.448,318.622Z"/><path class="4cd5ce44-8592-4e04-862c-bafed8f83dab" d="M400.405,317.337v-3.195h-5.452V313.1l5.232-7.492H401.9l0,7.293h1.642v1.245H401.9v3.195Zm0-4.44V308.98q0-.921.054-1.842H400.4c-.361.687-.65,1.191-.974,1.733l-2.87,3.991v.036Z"/></g><g id="cf83db5f-cd90-41ff-9a45-8317725e8c0f" data-name="5"><path class="40257626-d50e-43e5-999f-3c77d1d15975" d="M510.8,420.074a10.195,10.195,0,1,1-3.583-13.966h0c6.38,3.774,9.153,4.1,9.4,5.058S514.557,413.718,510.8,420.074Z"/><path class="4cd5ce44-8592-4e04-862c-bafed8f83dab" d="M505.622,410.112h-4.476l-.451,3.014a6.285,6.285,0,0,1,.956-.072,4.953,4.953,0,0,1,2.528.631,3.347,3.347,0,0,1,1.679,3.015,4.072,4.072,0,0,1-4.368,4.007,5.747,5.747,0,0,1-2.924-.721l.4-1.21a5.25,5.25,0,0,0,2.509.65,2.591,2.591,0,0,0,2.78-2.546c-.019-1.516-1.03-2.6-3.376-2.6a12.174,12.174,0,0,0-1.625.126l.757-5.632h5.614Z"/></g><g id="30f0fd48-1f61-40f7-a5d6-5846ca5d92d9" data-name="6"><path class="40257626-d50e-43e5-999f-3c77d1d15975" d="M490.335,534.525a10.521,10.521,0,1,1-12.726-7.708h0c7.429-1.824,9.71-3.585,10.582-3.058S488.519,527.123,490.335,534.525Z"/><path class="4cd5ce44-8592-4e04-862c-bafed8f83dab" d="M482.918,531.413a5.931,5.931,0,0,0-1.229.075,4.924,4.924,0,0,0-4.209,4.306h.056a3.692,3.692,0,0,1,6.579,2.512,4.05,4.05,0,0,1-4.022,4.269c-2.59,0-4.287-2.01-4.289-5.159a7.616,7.616,0,0,1,2.047-5.46,6.6,6.6,0,0,1,3.874-1.791,7.93,7.93,0,0,1,1.192-.093Zm-.462,6.987a2.461,2.461,0,0,0-2.5-2.775,2.7,2.7,0,0,0-2.346,1.492,1.4,1.4,0,0,0-.186.727c.038,1.993.952,3.465,2.666,3.464C481.508,541.308,482.457,540.133,482.456,538.4Z"/></g><g id="2b360e7a-0105-4aa0-9723-2088d1da285c" data-name="7"><path class="40257626-d50e-43e5-999f-3c77d1d15975" d="M583.645,386.536a10.468,10.468,0,1,1,14.507-2.947h0c-4.2,6.346-4.683,9.173-5.677,9.375S589.966,390.725,583.645,386.536Z"/><path class="4cd5ce44-8592-4e04-862c-bafed8f83dab" d="M593.723,372.168v1.075l-5.244,10.977h-1.687l5.225-10.662v-.037l-5.9,0V372.17Z"/></g><g id="d8a47ec3-45dd-48d3-8f6f-c3670dd85a21" data-name="8"><path class="40257626-d50e-43e5-999f-3c77d1d15975" d="M714.56,457.312a10.468,10.468,0,1,1,2.871,14.523h0c-6.324-4.236-9.148-4.732-9.345-5.726S710.338,463.611,714.56,457.312Z"/><path class="4cd5ce44-8592-4e04-862c-bafed8f83dab" d="M718.987,466.009a3.443,3.443,0,0,1,2.392-3.225l-.019-.056a2.987,2.987,0,0,1-1.909-2.707c0-1.909,1.613-3.207,3.727-3.207,2.336,0,3.5,1.465,3.5,2.967A3.061,3.061,0,0,1,724.7,462.6v.056a3.342,3.342,0,0,1,2.429,3.115c0,2.095-1.8,3.5-4.1,3.5C720.507,469.272,718.987,467.771,718.987,466.009Zm6.49-.074c0-1.464-1.02-2.169-2.652-2.632a2.616,2.616,0,0,0-2.169,2.483,2.228,2.228,0,0,0,2.41,2.3A2.18,2.18,0,0,0,725.477,465.935Zm-4.487-6.026c0,1.206.908,1.855,2.3,2.226a2.374,2.374,0,0,0,1.835-2.188,1.872,1.872,0,0,0-2.039-1.965A1.916,1.916,0,0,0,720.99,459.909Z"/></g><g id="311aba47-3bb0-48a4-a677-7f1073c49b11" data-name="9"><path class="40257626-d50e-43e5-999f-3c77d1d15975" d="M652.428,596.121a10.468,10.468,0,1,1-12.893,7.275h0c2.042-7.332,1.628-10.17,2.51-10.668S645.123,594.085,652.428,596.121Z"/><path class="4cd5ce44-8592-4e04-862c-bafed8f83dab" d="M647.022,610.838a6.845,6.845,0,0,0,1.315-.055,4.555,4.555,0,0,0,2.521-1.169,5.29,5.29,0,0,0,1.593-3.208H652.4a3.539,3.539,0,0,1-2.836,1.3A3.491,3.491,0,0,1,646,604.017a4.132,4.132,0,0,1,4.114-4.285c2.466,0,3.988,2,3.989,5.078a7.6,7.6,0,0,1-2.075,5.655,6.022,6.022,0,0,1-3.5,1.615,7.533,7.533,0,0,1-1.5.093Zm.589-6.933a2.319,2.319,0,0,0,2.319,2.557A2.7,2.7,0,0,0,652.3,605.2a1.078,1.078,0,0,0,.147-.594c0-2.058-.761-3.634-2.467-3.633C648.593,600.975,647.61,602.2,647.611,603.905Z"/></g><g id="40b3bd67-7d00-456e-a8f6-e17cc16b75cc" data-name="10"><path class="40257626-d50e-43e5-999f-3c77d1d15975" d="M563.505,564.3a10.468,10.468,0,1,1-14.388,3.483h0c3.965-6.5,4.34-9.34,5.325-9.579S557.033,560.345,563.505,564.3Z"/><path class="4cd5ce44-8592-4e04-862c-bafed8f83dab" d="M552.258,569.036h-.037l-2.1,1.129-.314-1.242,2.633-1.407h1.391l-.01,12.051h-1.576Z"/><path class="4cd5ce44-8592-4e04-862c-bafed8f83dab" d="M566.231,573.422c0,4.1-1.525,6.359-4.2,6.356-2.354,0-3.947-2.209-3.981-6.2,0-4.042,1.748-6.265,4.2-6.263C564.79,567.322,566.234,569.584,566.231,573.422Zm-6.544.181c0,3.133.96,4.913,2.443,4.915,1.669,0,2.468-1.945,2.47-5.023,0-2.966-.756-4.914-2.444-4.915C560.729,568.579,559.689,570.322,559.687,573.6Z"/></g><g id="e35910cb-ff4f-4c3d-a334-95115336f8db" data-name="11"><path class="40257626-d50e-43e5-999f-3c77d1d15975" d="M504.133,579.3a10.468,10.468,0,1,1,14.378-3.527h0c-3.945,6.509-4.312,9.353-5.3,9.6S510.617,583.228,504.133,579.3Z"/><path class="4cd5ce44-8592-4e04-862c-bafed8f83dab" d="M504.621,565.743h-.037l-2.094,1.133-.317-1.242,2.632-1.411h1.39l.011,12.051H504.63Z"/><path class="4cd5ce44-8592-4e04-862c-bafed8f83dab" d="M514.13,565.736h-.037L512,566.868l-.317-1.242,2.632-1.411h1.39l.011,12.051h-1.576Z"/></g><g id="5ffa7b3a-f2d2-43d6-bac5-6a22e2806de3" data-name="12"><path class="40257626-d50e-43e5-999f-3c77d1d15975" d="M481.242,594.581a10.468,10.468,0,1,1-14.592,2.494h0c4.4-6.212,4.967-9.022,5.966-9.194S475.054,590.2,481.242,594.581Z"/><path class="4cd5ce44-8592-4e04-862c-bafed8f83dab" d="M469.365,598.4h-.037l-2.092,1.137-.318-1.243,2.629-1.416,1.391,0,.033,12.051-1.576,0Z"/><path class="4cd5ce44-8592-4e04-862c-bafed8f83dab" d="M475.362,608.909l0-1,1.276-1.247c3.07-2.937,4.456-4.5,4.47-6.315a2.15,2.15,0,0,0-2.4-2.348,4.1,4.1,0,0,0-2.555,1.027l-.522-1.148a5.288,5.288,0,0,1,3.408-1.233,3.389,3.389,0,0,1,3.7,3.494c.006,2.225-1.6,4.027-4.134,6.481l-.962.893v.037l5.414-.015,0,1.354Z"/></g><g id="66e03143-98eb-4a95-8e3d-f04950d0ff32" data-name="13"><path class="40257626-d50e-43e5-999f-3c77d1d15975" d="M417.033,617.737a10.468,10.468,0,1,1,14.266-3.955h0c-3.748,6.624-4.03,9.478-5.006,9.749S423.633,621.474,417.033,617.737Z"/><path class="4cd5ce44-8592-4e04-862c-bafed8f83dab" d="M416.565,604.307h-.037l-2.093,1.133-.318-1.241,2.632-1.413,1.391,0,.013,12.051-1.576,0Z"/><path class="4cd5ce44-8592-4e04-862c-bafed8f83dab" d="M422.933,612.957a5.46,5.46,0,0,0,2.671.757c2.094,0,2.741-1.338,2.721-2.339-.02-1.687-1.541-2.408-3.117-2.406H424.3v-1.224h.908c1.187,0,2.688-.615,2.686-2.043,0-.963-.615-1.816-2.116-1.814a4.429,4.429,0,0,0-2.409.8l-.428-1.186a5.725,5.725,0,0,1,3.151-.93c2.373,0,3.449,1.4,3.451,2.869a2.993,2.993,0,0,1-2.222,2.84v.037a3.138,3.138,0,0,1,2.693,3.092c0,1.928-1.5,3.617-4.39,3.621a6.126,6.126,0,0,1-3.135-.813Z"/></g><g id="7bbf7259-4352-49ac-b359-67985366d3f7" data-name="14"><path class="40257626-d50e-43e5-999f-3c77d1d15975" d="M275.764,566.388a10.468,10.468,0,1,1-14.068-4.611h0c6.791-3.438,8.606-5.657,9.569-5.342S272.34,559.622,275.764,566.388Z"/><path class="4cd5ce44-8592-4e04-862c-bafed8f83dab" d="M260.483,566.743h-.037l-2.093,1.131-.317-1.241,2.633-1.41h1.391l0,12.051h-1.576Z"/><path class="4cd5ce44-8592-4e04-862c-bafed8f83dab" d="M271.5,577.269l0-3.281-5.6,0v-1.076l5.374-7.7h1.761l0,7.49h1.687v1.28h-1.687l0,3.281Zm0-4.561,0-4.023q0-.945.055-1.891h-.056c-.37.7-.666,1.224-1,1.781l-2.946,4.1v.037Z"/></g><g id="56eee902-ad16-465e-9121-af664336743d" data-name="15"><path class="40257626-d50e-43e5-999f-3c77d1d15975" d="M107.3,550.8a10.468,10.468,0,1,1-14.074-4.59h0c6.786-3.448,8.6-5.67,9.561-5.356S103.862,544.036,107.3,550.8Z"/><path class="4cd5ce44-8592-4e04-862c-bafed8f83dab" d="M92.191,551.522h-.037l-2.094,1.133-.316-1.243L92.376,550h1.391l.007,12.05-1.576,0Z"/><path class="4cd5ce44-8592-4e04-862c-bafed8f83dab" d="M105.353,551.365l-4.6,0-.461,3.1a6.435,6.435,0,0,1,.982-.074,5.087,5.087,0,0,1,2.595.646,3.438,3.438,0,0,1,1.727,3.1,4.179,4.179,0,0,1-4.484,4.118,5.907,5.907,0,0,1-3-.739l.408-1.242a5.4,5.4,0,0,0,2.577.665,2.657,2.657,0,0,0,2.852-2.615c-.019-1.558-1.057-2.669-3.467-2.668a12.519,12.519,0,0,0-1.668.131L99.586,550l5.766,0Z"/></g><g id="3ccab7a2-1627-40bf-a2a8-575d92dcf8a3" data-name="16"><path class="40257626-d50e-43e5-999f-3c77d1d15975" d="M46.2,519.349a10.468,10.468,0,1,1-3.259-14.44h0c6.435,4.065,9.272,4.484,9.5,5.473S50.251,512.939,46.2,519.349Z"/><path class="4cd5ce44-8592-4e04-862c-bafed8f83dab" d="M31.944,509.3h-.037l-2.094,1.132L29.5,509.19l2.632-1.409H33.52l0,12.05H31.947Z"/><path class="4cd5ce44-8592-4e04-862c-bafed8f83dab" d="M44.79,508.925a6.019,6.019,0,0,0-1.224.075,4.9,4.9,0,0,0-4.188,4.284h.056a3.673,3.673,0,0,1,6.545,2.5,4.03,4.03,0,0,1-4,4.248c-2.578,0-4.266-2-4.267-5.134a7.582,7.582,0,0,1,2.039-5.433,6.551,6.551,0,0,1,3.855-1.781,7.863,7.863,0,0,1,1.187-.093Zm-.461,6.953a2.448,2.448,0,0,0-2.485-2.761,2.685,2.685,0,0,0-2.336,1.483,1.383,1.383,0,0,0-.185.724c.037,1.983.947,3.448,2.653,3.447C43.385,518.771,44.329,517.6,44.329,515.878Z"/></g><g id="38ea0b03-c766-4193-9286-088367af7086" data-name="17"><path class="40257626-d50e-43e5-999f-3c77d1d15975" d="M111.934,389.227a10.468,10.468,0,1,1-3.677-14.34h0c6.55,3.877,9.4,4.213,9.65,5.195S115.8,382.7,111.934,389.227Z"/><path class="4cd5ce44-8592-4e04-862c-bafed8f83dab" d="M98.215,380.154h-.037l-2.093,1.133-.317-1.241,2.63-1.413,1.391,0,.018,12.051-1.576,0Z"/><path class="4cd5ce44-8592-4e04-862c-bafed8f83dab" d="M112.005,378.614l0,1.075-5.232,10.983-1.686,0,5.212-10.667v-.037l-5.9.008,0-1.354Z"/></g><g id="f7c07dd9-23b5-4f2c-9f9f-9d59d8d60923" data-name="18"><path class="40257626-d50e-43e5-999f-3c77d1d15975" d="M28.321,286.046A10.468,10.468,0,1,1,27.3,300.815h0c-5-5.741-7.6-6.957-7.526-7.968S22.6,291.024,28.321,286.046Z"/><path class="4cd5ce44-8592-4e04-862c-bafed8f83dab" d="M28.981,289.761h-.038l-2.094,1.131-.316-1.242,2.633-1.409h1.391v12.05H28.981Z"/><path class="4cd5ce44-8592-4e04-862c-bafed8f83dab" d="M34.8,297.232a3.443,3.443,0,0,1,2.391-3.226l-.018-.055a2.987,2.987,0,0,1-1.909-2.708c0-1.909,1.613-3.207,3.726-3.207,2.336,0,3.5,1.465,3.5,2.966a3.064,3.064,0,0,1-1.983,2.819v.055a3.341,3.341,0,0,1,2.428,3.115c0,2.094-1.8,3.5-4.1,3.5C36.32,300.494,34.8,298.993,34.8,297.232Zm6.489-.074c0-1.465-1.019-2.169-2.651-2.633a2.618,2.618,0,0,0-2.169,2.484,2.228,2.228,0,0,0,2.41,2.3A2.18,2.18,0,0,0,41.289,297.158ZM36.8,291.132c0,1.2.908,1.855,2.3,2.225a2.374,2.374,0,0,0,1.835-2.188A1.873,1.873,0,0,0,38.9,289.2,1.916,1.916,0,0,0,36.8,291.132Z"/></g><g id="a9e3dd61-19a1-4dcf-9db8-8696799a8a42" data-name="19"><path class="40257626-d50e-43e5-999f-3c77d1d15975" d="M32.02,253.848A10.468,10.468,0,1,1,44.311,245.6h0c-1.469,7.468-.836,10.265-1.677,10.83S39.461,255.312,32.02,253.848Z"/><path class="4cd5ce44-8592-4e04-862c-bafed8f83dab" d="M28.647,239.885h-.038l-2.093,1.131-.317-1.242,2.633-1.409h1.391l0,12.05H28.648Z"/><path class="4cd5ce44-8592-4e04-862c-bafed8f83dab" d="M35.562,249.265a6.719,6.719,0,0,0,1.316-.057A4.541,4.541,0,0,0,39.4,248.04a5.282,5.282,0,0,0,1.594-3.208h-.055a3.534,3.534,0,0,1-2.837,1.3,3.49,3.49,0,0,1-3.56-3.688,4.13,4.13,0,0,1,4.115-4.284c2.466,0,3.987,2,3.988,5.079a7.614,7.614,0,0,1-2.077,5.655,6.022,6.022,0,0,1-3.5,1.613,7.623,7.623,0,0,1-1.5.093Zm.592-6.935a2.319,2.319,0,0,0,2.318,2.559,2.7,2.7,0,0,0,2.373-1.262,1.069,1.069,0,0,0,.148-.593c0-2.057-.761-3.633-2.467-3.633C37.136,239.4,36.153,240.625,36.154,242.33Z"/></g><g id="bea1b88e-e4d9-4920-9ee5-0cbbaaa7a3c3" data-name="20"><path class="40257626-d50e-43e5-999f-3c77d1d15975" d="M80.556,191.448a10.468,10.468,0,1,1-4.538-14.091h0c6.773,3.473,9.636,3.637,9.947,4.6S84.018,184.7,80.556,191.448Z"/><path class="4cd5ce44-8592-4e04-862c-bafed8f83dab" d="M63.72,191.752v-.926l1.193-1.148c2.869-2.708,4.165-4.148,4.184-5.829a2,2,0,0,0-2.227-2.18,3.842,3.842,0,0,0-2.385.942L64,181.547a4.95,4.95,0,0,1,3.18-1.13,3.147,3.147,0,0,1,3.434,3.244c0,2.058-1.505,3.721-3.873,5.984l-.9.822v.034l5.043,0v1.252Z"/><path class="4cd5ce44-8592-4e04-862c-bafed8f83dab" d="M80.049,186.069c0,3.791-1.42,5.882-3.907,5.88-2.194,0-3.678-2.043-3.71-5.731,0-3.738,1.628-5.8,3.907-5.795C78.706,180.425,80.052,182.519,80.049,186.069Zm-6.1.168c0,2.9.895,4.545,2.277,4.546,1.554,0,2.3-1.8,2.3-4.647,0-2.744-.7-4.546-2.277-4.547C74.922,181.588,73.954,183.2,73.952,186.237Z"/></g><g id="f99891d8-096a-48c2-96f6-4e0817ab28e7" data-name="21"><path class="40257626-d50e-43e5-999f-3c77d1d15975" d="M77.745,141.843a10.468,10.468,0,1,1,3.761,14.318h0c-6.573-3.838-9.422-4.158-9.68-5.138S73.92,148.391,77.745,141.843Z"/><path class="4cd5ce44-8592-4e04-862c-bafed8f83dab" d="M79.271,152.484v-.926l1.192-1.149c2.867-2.71,4.162-4.152,4.179-5.833a2,2,0,0,0-2.229-2.177,3.837,3.837,0,0,0-2.383.943l-.484-1.063a4.948,4.948,0,0,1,3.178-1.132,3.148,3.148,0,0,1,3.438,3.241c0,2.058-1.5,3.722-3.868,5.986l-.9.824v.034h5.043v1.252Z"/><path class="4cd5ce44-8592-4e04-862c-bafed8f83dab" d="M91.431,142.741H91.4l-1.952,1.046-.293-1.149,2.452-1.305h1.3l0,11.149H91.433Z"/></g><g id="bef323c5-1894-4075-8dc5-48b651415df3" data-name="22"><path class="40257626-d50e-43e5-999f-3c77d1d15975" d="M163.028,12.4a10.468,10.468,0,1,1,11.581,9.222h0c-7.563.857-10.038,2.306-10.831,1.675S163.881,19.933,163.028,12.4Z"/><path class="4cd5ce44-8592-4e04-862c-bafed8f83dab" d="M165.21,16.853l0-.926,1.193-1.147c2.872-2.706,4.169-4.145,4.189-5.826a2,2,0,0,0-2.225-2.181,3.835,3.835,0,0,0-2.385.939L165.5,6.648a4.945,4.945,0,0,1,3.18-1.127,3.148,3.148,0,0,1,3.432,3.247c0,2.058-1.508,3.72-3.878,5.979l-.9.823V15.6l5.043.008,0,1.252Z"/><path class="4cd5ce44-8592-4e04-862c-bafed8f83dab" d="M174.074,16.866V15.94l1.194-1.148c2.871-2.706,4.169-4.144,4.189-5.825a2,2,0,0,0-2.226-2.182,3.841,3.841,0,0,0-2.385.94l-.482-1.064a4.959,4.959,0,0,1,3.18-1.127,3.149,3.149,0,0,1,3.433,3.248c0,2.057-1.509,3.718-3.879,5.979l-.9.822v.034l5.044.007,0,1.252Z"/></g><g id="c9817e61-b546-4e7d-997b-5ce3babc9873" data-name="23"><path class="40257626-d50e-43e5-999f-3c77d1d15975" d="M131.329,146.823a10.468,10.468,0,1,1,4.444,14.121h0c-6.749-3.518-9.611-3.7-9.916-4.667S127.822,153.547,131.329,146.823Z"/><path class="4cd5ce44-8592-4e04-862c-bafed8f83dab" d="M132.5,157.69v-.926l1.193-1.149c2.869-2.708,4.165-4.148,4.183-5.829a2,2,0,0,0-2.227-2.179,3.833,3.833,0,0,0-2.384.941l-.483-1.063a4.944,4.944,0,0,1,3.179-1.13A3.148,3.148,0,0,1,139.4,149.6c0,2.058-1.5,3.721-3.873,5.982l-.9.824v.034l5.043,0v1.252Z"/><path class="4cd5ce44-8592-4e04-862c-bafed8f83dab" d="M141.728,155.962a5.092,5.092,0,0,0,2.486.705c1.952,0,2.558-1.233,2.541-2.16-.016-1.56-1.432-2.23-2.9-2.23h-.847v-1.132h.847c1.105,0,2.505-.565,2.506-1.886,0-.892-.569-1.681-1.968-1.682a4.135,4.135,0,0,0-2.246.737l-.4-1.1a5.367,5.367,0,0,1,2.937-.855c2.211,0,3.212,1.3,3.211,2.66a2.771,2.771,0,0,1-2.074,2.623v.035a2.91,2.91,0,0,1,2.5,2.865c0,1.783-1.4,3.343-4.1,3.342a5.73,5.73,0,0,1-2.918-.757Z"/></g><g id="f4405a90-80cb-4dba-be81-2274acf620b9" data-name="24"><path class="40257626-d50e-43e5-999f-3c77d1d15975" d="M155.6,169.637a10.468,10.468,0,1,1,1.589,14.719h0c-5.929-4.774-8.7-5.514-8.808-6.522S150.842,175.543,155.6,169.637Z"/><path class="4cd5ce44-8592-4e04-862c-bafed8f83dab" d="M155.176,181.548v-.926l1.192-1.149c2.867-2.71,4.163-4.15,4.18-5.831a2,2,0,0,0-2.229-2.179,3.84,3.84,0,0,0-2.384.944l-.483-1.064a4.951,4.951,0,0,1,3.178-1.132,3.149,3.149,0,0,1,3.438,3.241c0,2.058-1.5,3.723-3.869,5.987l-.9.823v.034h5.043v1.252Z"/><path class="4cd5ce44-8592-4e04-862c-bafed8f83dab" d="M168.738,181.547v-3.036h-5.217v-.994l5.009-7.118h1.641v6.929h1.572v1.183h-1.572v3.036Zm0-4.219v-3.721q0-.876.051-1.75h-.052c-.346.652-.622,1.132-.932,1.646l-2.747,3.791v.034Z"/></g><g id="e5095dc6-ca50-42d3-b201-cdfeffe29959" data-name="25"><path class="40257626-d50e-43e5-999f-3c77d1d15975" d="M116.745,274.972a10.468,10.468,0,1,1,5.468,13.757h0c-6.989-3.014-9.857-2.986-10.231-3.928S113.741,281.935,116.745,274.972Z"/><path class="4cd5ce44-8592-4e04-862c-bafed8f83dab" d="M118.59,284.873l-.03-.881,1.1-1.132c2.644-2.674,3.831-4.088,3.793-5.69a1.9,1.9,0,0,0-2.194-2,3.657,3.657,0,0,0-2.24.977l-.495-1a4.717,4.717,0,0,1,2.991-1.18,3,3,0,0,1,3.38,2.974c.067,1.96-1.311,3.593-3.492,5.827l-.829.812v.033l4.805-.164.04,1.192Z"/><path class="4cd5ce44-8592-4e04-862c-bafed8f83dab" d="M133.094,274.961l-4.081.14-.318,2.741a5.579,5.579,0,0,1,.869-.095,4.547,4.547,0,0,1,2.324.493,3.026,3.026,0,0,1,1.623,2.675,3.7,3.7,0,0,1-3.859,3.762,5.3,5.3,0,0,1-2.688-.561l.325-1.109a4.812,4.812,0,0,0,2.308.511,2.354,2.354,0,0,0,2.455-2.39c-.063-1.37-1.018-2.318-3.157-2.246a11.455,11.455,0,0,0-1.477.165l.518-5.119,5.117-.175Z"/></g></g></g></g></g></svg>