<svg xmlns="http://www.w3.org/2000/svg" viewBox="0 0 432.674 428.894"><defs><style>.\30 2a9c60f-4ea9-4071-a100-ebc55c848394,.\32 23db808-9dcc-4e71-87b7-c8db3aee81d6,.\32 42e35a2-bbb2-4d77-b8fa-252aae231361,.d180525b-3c38-4497-8964-5640333336e3,.e9927499-8f67-48a9-937f-ed7df1c384ae{fill:none;stroke-linejoin:round;}.\30 2a9c60f-4ea9-4071-a100-ebc55c848394,.\32 23db808-9dcc-4e71-87b7-c8db3aee81d6{stroke:#c91c1c;}.\30 2a9c60f-4ea9-4071-a100-ebc55c848394,.e9927499-8f67-48a9-937f-ed7df1c384ae{stroke-width:14px;}.\31 171125e-2773-4351-be8f-6d8b4d37f878,.d180525b-3c38-4497-8964-5640333336e3{stroke:#fff;}.d180525b-3c38-4497-8964-5640333336e3{stroke-width:7px;}.\31 171125e-2773-4351-be8f-6d8b4d37f878,.\32 23db808-9dcc-4e71-87b7-c8db3aee81d6,.\32 42e35a2-bbb2-4d77-b8fa-252aae231361,.\38 b995cc8-1ab9-4db9-ac41-af84e7b3da33,.d46f271e-e7c3-4bbe-8ec6-9535b01d7f93{stroke-width:2px;}.\32 42e35a2-bbb2-4d77-b8fa-252aae231361,.e9927499-8f67-48a9-937f-ed7df1c384ae{stroke:#0080ff;}.\31 171125e-2773-4351-be8f-6d8b4d37f878{fill:#3a3a3a;}.\31 171125e-2773-4351-be8f-6d8b4d37f878,.\38 b995cc8-1ab9-4db9-ac41-af84e7b3da33,.d46f271e-e7c3-4bbe-8ec6-9535b01d7f93{stroke-miterlimit:10;}.\39 18d701a-7e8d-4f02-a81e-533eb4b6e067{isolation:isolate;}.\34 8dc0acd-b183-41c8-b582-5b9faea8a895,.d46f271e-e7c3-4bbe-8ec6-9535b01d7f93{fill:#fff;}.\38 b995cc8-1ab9-4db9-ac41-af84e7b3da33{fill:#00ff24;}.\38 b995cc8-1ab9-4db9-ac41-af84e7b3da33,.d46f271e-e7c3-4bbe-8ec6-9535b01d7f93{stroke:#000;}</style></defs><title>Through_the_Barracks_Revisited</title><g id="4c066721-e3ff-4c98-af97-80432d31193a" data-name="Layer 2"><g id="5807aa55-e55c-4e44-96d8-abf6a0dfd932" data-name="Airport"><g id="1cc152c1-87ed-420a-a31e-31b9c01f2949" data-name="Through_the_Barracks_Revisited"><path id="83edba35-94e6-41f5-9c31-6bfd5625a847" data-name="Pit Outer" class="02a9c60f-4ea9-4071-a100-ebc55c848394" d="M246.682,217c-4.41,8.11-15.43,12.22-28.62,5.55s-77.69-41.21-83.6-44.38,3.43-12.56-2.8-15.9"/><path id="214e9cfb-2f28-41b6-9620-346c2d6c7188" data-name="Pit Mid" class="d180525b-3c38-4497-8964-5640333336e3" d="M246.682,217c-4.41,8.11-15.43,12.22-28.62,5.55s-77.69-41.21-83.6-44.38,3.43-12.56-2.8-15.9"/><path id="f767ac54-9aef-481f-a7e9-9175b3c5310c" data-name="Pit Inner" class="223db808-9dcc-4e71-87b7-c8db3aee81d6" d="M246.682,217c-4.41,8.11-15.43,12.22-28.62,5.55s-77.69-41.21-83.6-44.38,3.43-12.56-2.8-15.9"/><path id="158c244a-9493-416f-a67b-1f6a46ebc4c6" data-name="Track Outer" class="e9927499-8f67-48a9-937f-ed7df1c384ae" d="M230.4,28.881c7.38,0,62.77,29.27,62.51,33.49s-33.5,56.7-31.26,60.4,46.29,26.9,51.83,26.9,31.38-55.67,36.39-55.91,50.64,26.63,52,32.17-25.32,57-30.86,57-19.03-13.22-24.83-11.93-41.71,60-39.82,66,73.84,34.29,74.11,41.15-5.49,11.85-8.71,18.42,6.07,20,2.9,28.48S335.1,400,330.362,400s-62.51-33.81-69.38-38.29-3-12.79,5.28-8.17,51.43,32.43,56.17,31.38,12.14-15.82,11.61-22.68-68.06-34.24-68.83-41.14,28.22-45.1,31.92-63.3-9-38.63-23.74-45.63-49.32-18.2-49.85-23.73,27.7-44.05,26.64-49.06-54.07-32.17-59.08-32.44-36.92,52.75-35.07,58.29,74.37,36.79,85.18,43,5.05,15.45-6.06,9.49S112.512,152,96.422,143.341s-21.62-26.11-24.53-35.87-4.66-20.89-11.6-25.06-30.31-9.79-30.31-18.19,11.6-26.38,20-27.7,56.71-2.9,69.1,2.38,52,34.81,59.08,33.23,24-26.37,30.86-32.7S222.982,28.881,230.4,28.881Z"/><path id="495fcdf4-62b4-4eac-87c5-8dfb2ccd71f4" data-name="Track Mid" class="d180525b-3c38-4497-8964-5640333336e3" d="M230.4,28.881c7.38,0,62.77,29.27,62.51,33.49s-33.5,56.7-31.26,60.4,46.29,26.9,51.83,26.9,31.38-55.67,36.39-55.91,50.64,26.63,52,32.17-25.32,57-30.86,57-19.03-13.22-24.83-11.93-41.71,60-39.82,66,73.84,34.29,74.11,41.15-5.49,11.85-8.71,18.42,6.07,20,2.9,28.48S335.1,400,330.362,400s-62.51-33.81-69.38-38.29-3-12.79,5.28-8.17,51.43,32.43,56.17,31.38,12.14-15.82,11.61-22.68-68.06-34.24-68.83-41.14,28.22-45.1,31.92-63.3-9-38.63-23.74-45.63-49.32-18.2-49.85-23.73,27.7-44.05,26.64-49.06-54.07-32.17-59.08-32.44-36.92,52.75-35.07,58.29,74.37,36.79,85.18,43,5.05,15.45-6.06,9.49S112.512,152,96.422,143.341s-21.62-26.11-24.53-35.87-4.66-20.89-11.6-25.06-30.31-9.79-30.31-18.19,11.6-26.38,20-27.7,56.71-2.9,69.1,2.38,52,34.81,59.08,33.23,24-26.37,30.86-32.7S222.982,28.881,230.4,28.881Z"/><path id="616d8447-3fc4-4df2-9ecd-04b478208821" data-name="Track Inner" class="242e35a2-bbb2-4d77-b8fa-252aae231361" d="M230.4,28.881c7.38,0,62.77,29.27,62.51,33.49s-33.5,56.7-31.26,60.4,46.29,26.9,51.83,26.9,31.38-55.67,36.39-55.91,50.64,26.63,52,32.17-25.32,57-30.86,57-19.03-13.22-24.83-11.93-41.71,60-39.82,66,73.84,34.29,74.11,41.15-5.49,11.85-8.71,18.42,6.07,20,2.9,28.48S335.1,400,330.362,400s-62.51-33.81-69.38-38.29-3-12.79,5.28-8.17,51.43,32.43,56.17,31.38,12.14-15.82,11.61-22.68-68.06-34.24-68.83-41.14,28.22-45.1,31.92-63.3-9-38.63-23.74-45.63-49.32-18.2-49.85-23.73,27.7-44.05,26.64-49.06-54.07-32.17-59.08-32.44-36.92,52.75-35.07,58.29,74.37,36.79,85.18,43,5.05,15.45-6.06,9.49S112.512,152,96.422,143.341s-21.62-26.11-24.53-35.87-4.66-20.89-11.6-25.06-30.31-9.79-30.31-18.19,11.6-26.38,20-27.7,56.71-2.9,69.1,2.38,52,34.81,59.08,33.23,24-26.37,30.86-32.7S222.982,28.881,230.4,28.881Z"/><g id="f5633fa2-1bb5-4804-b55b-c6ae3fc345f1" data-name="Corner Numbers"><path id="39d5f737-ddde-49cc-a367-3ec7f4dbd8a0" data-name="Elipse l" class="1171125e-2773-4351-be8f-6d8b4d37f878" d="M66.062,129.371a9,9,0,1,1-4.615-11.862l0,0c6,2.64,8.46,2.63,8.77,3.45S68.682,123.421,66.062,129.371Z"/><g id="fd47ebf0-addf-43c5-aa25-8e3fce5e9385" data-name="Number l" class="918d701a-7e8d-4f02-a81e-533eb4b6e067"><path class="48dc0acd-b183-41c8-b582-5b9faea8a895" d="M59.389,130.2h-1.1v-7a5.629,5.629,0,0,1-1.041.757,7.413,7.413,0,0,1-1.156.568v-1.062a6.647,6.647,0,0,0,1.611-1.05,4.148,4.148,0,0,0,.977-1.2h.708Z"/></g><path id="074e13fe-a629-4e6c-a23d-469d382ea5ac" data-name="Elipse l-2" class="1171125e-2773-4351-be8f-6d8b4d37f878" d="M67.552,71.331a9,9,0,1,1,8.678,9.31h-.008c-6.55-.23-8.83.69-9.42,0S67.322,77.831,67.552,71.331Z"/><g id="34d481a2-2850-466d-b9eb-0419a6c85d4d" data-name="Number l-2" class="918d701a-7e8d-4f02-a81e-533eb4b6e067"><path class="48dc0acd-b183-41c8-b582-5b9faea8a895" d="M79.024,75.465v1.056H73.11a1.919,1.919,0,0,1,.128-.763,4.03,4.03,0,0,1,.724-1.19A11.37,11.37,0,0,1,75.4,73.212a12.2,12.2,0,0,0,1.972-1.894A2.27,2.27,0,0,0,77.883,70a1.468,1.468,0,0,0-.467-1.1,1.682,1.682,0,0,0-1.218-.449,1.717,1.717,0,0,0-1.269.476,1.8,1.8,0,0,0-.483,1.319l-1.129-.117A2.776,2.776,0,0,1,74.19,68.2a2.976,2.976,0,0,1,2.033-.663,2.844,2.844,0,0,1,2.039.714,2.349,2.349,0,0,1,.75,1.771,2.69,2.69,0,0,1-.22,1.055,4.134,4.134,0,0,1-.729,1.093,17.644,17.644,0,0,1-1.694,1.574q-.989.831-1.269,1.126a3.712,3.712,0,0,0-.464.6Z"/></g><path id="3041dd8b-b09e-4aa7-a274-aaaa35edfb80" data-name="Elipse l-3" class="1171125e-2773-4351-be8f-6d8b4d37f878" d="M16.982,71.711a9,9,0,1,1-1.3-12.661h0c5.09,4.14,7.46,4.78,7.54,5.65S21.062,66.671,16.982,71.711Z"/><g id="e72ac019-ac5d-44d1-96e5-b28ce2481de6" data-name="Number l-3" class="918d701a-7e8d-4f02-a81e-533eb4b6e067"><path class="48dc0acd-b183-41c8-b582-5b9faea8a895" d="M7.427,68.228l1.1-.146a2.421,2.421,0,0,0,.644,1.346,1.59,1.59,0,0,0,1.108.412,1.774,1.774,0,0,0,1.309-.537,1.814,1.814,0,0,0,.535-1.331,1.689,1.689,0,0,0-.5-1.248,1.708,1.708,0,0,0-1.257-.491,3.172,3.172,0,0,0-.776.121l.122-.964a1.763,1.763,0,0,0,.178.013,2.264,2.264,0,0,0,1.263-.367,1.253,1.253,0,0,0,.561-1.129,1.34,1.34,0,0,0-.408-1,1.452,1.452,0,0,0-1.057-.4,1.492,1.492,0,0,0-1.068.4,2.025,2.025,0,0,0-.549,1.208l-1.1-.195a2.821,2.821,0,0,1,.915-1.712,2.641,2.641,0,0,1,1.776-.608,2.922,2.922,0,0,1,1.349.315,2.278,2.278,0,0,1,.943.857,2.2,2.2,0,0,1,.327,1.153,1.889,1.889,0,0,1-.311,1.056,2.138,2.138,0,0,1-.922.758,2.07,2.07,0,0,1,1.233.76,2.308,2.308,0,0,1,.439,1.443,2.642,2.642,0,0,1-.854,1.986,3.007,3.007,0,0,1-2.161.815,2.813,2.813,0,0,1-1.956-.7A2.714,2.714,0,0,1,7.427,68.228Z"/></g><path id="ef17fa08-61b4-46f1-b64f-23f8eecaadf8" data-name="Elipse l-4" class="1171125e-2773-4351-be8f-6d8b4d37f878" d="M34.112,26.611a9,9,0,1,1,11.16-6.12h0c-1.84,6.3-1.5,8.74-2.27,9.15S40.362,28.431,34.112,26.611Z"/><g id="9722a3e7-a498-4822-a11f-2abc2df1908a" data-name="Number l-4" class="918d701a-7e8d-4f02-a81e-533eb4b6e067"><path class="48dc0acd-b183-41c8-b582-5b9faea8a895" d="M37.372,22.941V20.8H33.49V19.791l4.084-5.8h.9v5.8h1.208V20.8H38.471v2.143Zm0-3.15V15.757l-2.8,4.034Z"/></g><path id="86b3d81e-554c-42bf-a36b-916a01c8668e" data-name="Elipse l-5" class="1171125e-2773-4351-be8f-6d8b4d37f878" d="M113.592,22.651a9,9,0,1,1,12.37,3c-5.59,3.43-7,5.46-7.82,5.25S116.982,28.191,113.592,22.651Z"/><g id="07550117-b530-4db4-a2b3-1a6f56c7db6f" data-name="Number l-5" class="918d701a-7e8d-4f02-a81e-533eb4b6e067"><path class="48dc0acd-b183-41c8-b582-5b9faea8a895" d="M118.17,20.6l1.154-.1a2.074,2.074,0,0,0,.595,1.267,1.615,1.615,0,0,0,1.126.424,1.753,1.753,0,0,0,1.343-.6,2.256,2.256,0,0,0,.549-1.587,2.04,2.04,0,0,0-.527-1.483,1.839,1.839,0,0,0-1.383-.543,1.91,1.91,0,0,0-.958.241,1.858,1.858,0,0,0-.672.625l-1.031-.134.867-4.6h4.449v1.05h-3.57l-.483,2.405a2.916,2.916,0,0,1,1.691-.562,2.678,2.678,0,0,1,1.977.812,2.838,2.838,0,0,1,.806,2.088,3.258,3.258,0,0,1-.708,2.1,2.836,2.836,0,0,1-2.35,1.086,2.885,2.885,0,0,1-1.992-.684A2.667,2.667,0,0,1,118.17,20.6Z"/></g><path id="0a44b408-06c7-488e-97b4-5dabc70eb116" data-name="Elipse l-6" class="1171125e-2773-4351-be8f-6d8b4d37f878" d="M167.9,59.381a9,9,0,1,1,12.326-3.171l-.006.011c-3.34,5.65-3.62,8.09-4.47,8.3S173.492,62.7,167.9,59.381Z"/><g id="66ffff80-dfe0-4cc2-b706-6573f73d54a7" data-name="Number l-6" class="918d701a-7e8d-4f02-a81e-533eb4b6e067"><path class="48dc0acd-b183-41c8-b582-5b9faea8a895" d="M175.3,49.894l-1.093.086a2.056,2.056,0,0,0-.415-.941,1.452,1.452,0,0,0-1.1-.469,1.507,1.507,0,0,0-.922.293,2.5,2.5,0,0,0-.818,1.1,5.779,5.779,0,0,0-.311,2.069,2.543,2.543,0,0,1,.971-.9,2.611,2.611,0,0,1,1.2-.293,2.49,2.49,0,0,1,1.87.809,2.9,2.9,0,0,1,.772,2.09,3.456,3.456,0,0,1-.362,1.566,2.65,2.65,0,0,1-1,1.107,2.724,2.724,0,0,1-1.441.385,2.814,2.814,0,0,1-2.24-1.01,5.1,5.1,0,0,1-.867-3.33,5.966,5.966,0,0,1,.959-3.771,2.753,2.753,0,0,1,2.252-1.026,2.4,2.4,0,0,1,2.539,2.228Zm-4.486,3.857a2.545,2.545,0,0,0,.241,1.087,1.789,1.789,0,0,0,.674.79,1.682,1.682,0,0,0,.91.272,1.548,1.548,0,0,0,1.2-.562,2.207,2.207,0,0,0,.5-1.525,2.066,2.066,0,0,0-.494-1.462,1.619,1.619,0,0,0-1.245-.534,1.7,1.7,0,0,0-1.264.534A1.928,1.928,0,0,0,170.815,53.751Z"/></g><path id="14461091-abba-4e1a-ba33-e2fb0ce0b3b1" data-name="Elipse l-7" class="1171125e-2773-4351-be8f-6d8b4d37f878" d="M218.582,17.811a9,9,0,1,1,12.283-3.336l0,.006c-3.26,5.69-3.51,8.14-4.35,8.35S224.222,21,218.582,17.811Z"/><g id="ecc15c26-e4f5-4bdc-abb6-aa6274e36b07" data-name="Number l-7" class="918d701a-7e8d-4f02-a81e-533eb4b6e067"><path class="48dc0acd-b183-41c8-b582-5b9faea8a895" d="M220.253,7.235V6.179h5.793v.854a12.206,12.206,0,0,0-1.694,2.417,14.687,14.687,0,0,0-1.3,3.1,11.512,11.512,0,0,0-.421,2.46h-1.129a10.908,10.908,0,0,1,.415-2.551,13.4,13.4,0,0,1,1.138-2.885,12.437,12.437,0,0,1,1.578-2.34Z"/></g><path id="3c3fbe50-4bf2-44b2-b2ea-f7286783eb00" data-name="Elipse l-8" class="1171125e-2773-4351-be8f-6d8b4d37f878" d="M304.982,54.631a9,9,0,1,1,1.836,12.6l-.006,0c-5.26-3.92-7.66-4.47-7.77-5.33S301.082,59.841,304.982,54.631Z"/><g id="6bd79f15-56cd-4356-892a-2189789fd57c" data-name="Number l-8" class="918d701a-7e8d-4f02-a81e-533eb4b6e067"><path class="48dc0acd-b183-41c8-b582-5b9faea8a895" d="M310.481,59.808a2.064,2.064,0,0,1-1.013-.713,1.869,1.869,0,0,1-.329-1.112,2.17,2.17,0,0,1,.7-1.641,2.956,2.956,0,0,1,3.754.015,2.2,2.2,0,0,1,.714,1.657,1.82,1.82,0,0,1-.327,1.083,2.045,2.045,0,0,1-.992.711,2.406,2.406,0,0,1,1.255.868,2.377,2.377,0,0,1,.43,1.427,2.569,2.569,0,0,1-.812,1.929,3.307,3.307,0,0,1-4.272,0,2.608,2.608,0,0,1-.812-1.956,2.366,2.366,0,0,1,.443-1.462A2.219,2.219,0,0,1,310.481,59.808Zm-.574,2.271a1.985,1.985,0,0,0,.223.91,1.563,1.563,0,0,0,.662.68,1.932,1.932,0,0,0,.946.241,1.771,1.771,0,0,0,1.3-.507,1.73,1.73,0,0,0,.513-1.287,1.76,1.76,0,0,0-.528-1.312,1.81,1.81,0,0,0-1.321-.519,1.748,1.748,0,0,0-1.8,1.794Zm.355-4.132a1.393,1.393,0,0,0,.408,1.038,1.452,1.452,0,0,0,1.062.4,1.421,1.421,0,0,0,1.041-.4,1.322,1.322,0,0,0,.406-.979,1.372,1.372,0,0,0-.418-1.017,1.536,1.536,0,0,0-2.084-.009A1.291,1.291,0,0,0,310.262,57.947Z"/></g><path id="8e625f45-2b02-4e14-9fd8-14f3165e7f3f" data-name="Elipse l-9" class="1171125e-2773-4351-be8f-6d8b4d37f878" d="M275.5,111.591a9,9,0,1,1,2.7,12.44c-5.51-3.55-8-3.92-8.12-4.77S271.982,117.061,275.5,111.591Z"/><g id="5922c6d1-3749-4ee5-a989-8d06ca52d58c" data-name="Number l-9" class="918d701a-7e8d-4f02-a81e-533eb4b6e067"><path class="48dc0acd-b183-41c8-b582-5b9faea8a895" d="M279.845,119.061l1.056-.1a1.849,1.849,0,0,0,.512,1.081,1.415,1.415,0,0,0,.971.335,1.67,1.67,0,0,0,.888-.232,1.9,1.9,0,0,0,.626-.62,3.65,3.65,0,0,0,.409-1.046,5.558,5.558,0,0,0,.165-1.344c0-.048,0-.121-.007-.218a2.5,2.5,0,0,1-.9.85,2.443,2.443,0,0,1-1.235.327,2.5,2.5,0,0,1-1.88-.8,2.947,2.947,0,0,1-.77-2.124,3.023,3.023,0,0,1,.8-2.192,2.682,2.682,0,0,1,2.011-.83,2.87,2.87,0,0,1,1.6.47,2.941,2.941,0,0,1,1.1,1.34,6.6,6.6,0,0,1,.375,2.517,8.159,8.159,0,0,1-.372,2.732,3.2,3.2,0,0,1-1.108,1.547,2.866,2.866,0,0,1-1.724.531,2.364,2.364,0,0,1-2.515-2.222Zm4.5-3.948a2.15,2.15,0,0,0-.5-1.5,1.58,1.58,0,0,0-1.212-.556,1.672,1.672,0,0,0-1.275.6,2.217,2.217,0,0,0-.544,1.55,1.915,1.915,0,0,0,.516,1.389,1.7,1.7,0,0,0,1.273.534,1.63,1.63,0,0,0,1.254-.534A2.1,2.1,0,0,0,284.343,115.113Z"/></g><path id="7d023e75-4656-4c64-8cd4-525115fd51dd" data-name="Elipse l-10" class="1171125e-2773-4351-be8f-6d8b4d37f878" d="M302.982,137.1a9,9,0,1,1,12.212-3.585l0,0c-3.14,5.75-3.34,8.21-4.18,8.44S308.7,140.221,302.982,137.1Z"/><g id="d2fc2efb-6080-42c0-b70b-f64ff7e26114" data-name="Number l-10" class="918d701a-7e8d-4f02-a81e-533eb4b6e067"><path class="48dc0acd-b183-41c8-b582-5b9faea8a895" d="M305.369,134.211h-1.1v-7a5.629,5.629,0,0,1-1.041.757,7.37,7.37,0,0,1-1.156.568v-1.063a6.625,6.625,0,0,0,1.611-1.049,4.137,4.137,0,0,0,.977-1.2h.708Z"/><path class="48dc0acd-b183-41c8-b582-5b9faea8a895" d="M308.183,129.8a8.174,8.174,0,0,1,.326-2.554,3.163,3.163,0,0,1,.97-1.492,2.48,2.48,0,0,1,1.622-.526,2.644,2.644,0,0,1,1.262.29,2.425,2.425,0,0,1,.9.836,4.489,4.489,0,0,1,.555,1.331,8.852,8.852,0,0,1,.2,2.115,8.2,8.2,0,0,1-.324,2.542,3.183,3.183,0,0,1-.968,1.5,2.483,2.483,0,0,1-1.625.527,2.455,2.455,0,0,1-2.034-.928A5.9,5.9,0,0,1,308.183,129.8Zm1.128,0a5.6,5.6,0,0,0,.516,2.932,1.473,1.473,0,0,0,2.546,0,8.591,8.591,0,0,0,0-5.865,1.532,1.532,0,0,0-1.285-.726,1.4,1.4,0,0,0-1.208.641A5.665,5.665,0,0,0,309.311,129.8Z"/></g><path id="f615cf2b-62c4-4ec1-8ca8-0ae922b4ddf6" data-name="Elipse l-11" class="1171125e-2773-4351-be8f-6d8b4d37f878" d="M341.912,82.361A9,9,0,1,1,354.6,81.352l-.007.009c-4.25,5-4.94,7.36-5.81,7.42S346.862,86.581,341.912,82.361Z"/><g id="b6203c3f-9ed1-45be-a0c4-1bbe9ad93374" data-name="Number l-11" class="918d701a-7e8d-4f02-a81e-533eb4b6e067"><path class="48dc0acd-b183-41c8-b582-5b9faea8a895" d="M345.719,80.531h-1.1v-7a5.663,5.663,0,0,1-1.041.757,7.37,7.37,0,0,1-1.156.568V73.793a6.647,6.647,0,0,0,1.611-1.05,4.148,4.148,0,0,0,.977-1.2h.708Z"/><path class="48dc0acd-b183-41c8-b582-5b9faea8a895" d="M351.743,80.531h-1.1v-7a5.6,5.6,0,0,1-1.041.757,7.37,7.37,0,0,1-1.156.568V73.793a6.654,6.654,0,0,0,1.612-1.05,4.143,4.143,0,0,0,.976-1.2h.708Z"/></g><path id="1a3f95bc-9376-48b0-a1cc-e3d98c9e1ab9" data-name="Elipse l-12" class="1171125e-2773-4351-be8f-6d8b4d37f878" d="M415.852,117.791a9,9,0,1,1,.952,12.692l0,0c-5-4.28-7.33-5-7.39-5.86S411.612,122.721,415.852,117.791Z"/><g id="0f1cc5b0-6951-4eb7-8966-71b4396ce9b0" data-name="Number l-12" class="918d701a-7e8d-4f02-a81e-533eb4b6e067"><path class="48dc0acd-b183-41c8-b582-5b9faea8a895" d="M420.2,128.271h-1.1v-7a5.663,5.663,0,0,1-1.041.757,7.37,7.37,0,0,1-1.156.568v-1.062a6.677,6.677,0,0,0,1.611-1.05,4.137,4.137,0,0,0,.977-1.2h.708Z"/><path class="48dc0acd-b183-41c8-b582-5b9faea8a895" d="M428.787,127.215v1.056h-5.915a1.955,1.955,0,0,1,.128-.763,4.03,4.03,0,0,1,.724-1.19,11.319,11.319,0,0,1,1.437-1.356,12.229,12.229,0,0,0,1.971-1.894,2.27,2.27,0,0,0,.513-1.322,1.468,1.468,0,0,0-.467-1.1,1.68,1.68,0,0,0-1.218-.449,1.717,1.717,0,0,0-1.269.476,1.8,1.8,0,0,0-.483,1.319l-1.128-.117a2.776,2.776,0,0,1,.873-1.925,2.972,2.972,0,0,1,2.032-.663,2.839,2.839,0,0,1,2.038.714,2.346,2.346,0,0,1,.751,1.771,2.672,2.672,0,0,1-.22,1.055,4.11,4.11,0,0,1-.729,1.093,17.769,17.769,0,0,1-1.694,1.574q-.988.831-1.269,1.126a3.712,3.712,0,0,0-.464.6Z"/></g><path id="2838f81c-0c9b-447e-8952-40a150464066" data-name="Elipse l-13" class="1171125e-2773-4351-be8f-6d8b4d37f878" d="M381.3,192.5a9,9,0,1,1-11.854,4.637l0-.007c2.63-6,2.62-8.47,3.44-8.78S375.352,189.891,381.3,192.5Z"/><g id="3ec78ad4-652c-487d-b147-02f6d52e6e84" data-name="Number l-13" class="918d701a-7e8d-4f02-a81e-533eb4b6e067"><path class="48dc0acd-b183-41c8-b582-5b9faea8a895" d="M375.5,204.941h-1.1v-7a5.629,5.629,0,0,1-1.041.757,7.37,7.37,0,0,1-1.156.568V198.2a6.645,6.645,0,0,0,1.611-1.049,4.121,4.121,0,0,0,.977-1.2h.708Z"/><path class="48dc0acd-b183-41c8-b582-5b9faea8a895" d="M378.319,202.578l1.1-.146a2.421,2.421,0,0,0,.644,1.346,1.59,1.59,0,0,0,1.108.412,1.774,1.774,0,0,0,1.309-.537,1.813,1.813,0,0,0,.535-1.33,1.682,1.682,0,0,0-.5-1.248,1.7,1.7,0,0,0-1.257-.492,3.172,3.172,0,0,0-.776.121l.122-.963c.074.007.133.012.178.012a2.264,2.264,0,0,0,1.263-.367,1.253,1.253,0,0,0,.561-1.129,1.34,1.34,0,0,0-.408-1,1.457,1.457,0,0,0-1.057-.4,1.488,1.488,0,0,0-1.067.4,2.023,2.023,0,0,0-.55,1.208l-1.1-.195a2.821,2.821,0,0,1,.915-1.712,2.641,2.641,0,0,1,1.776-.608,2.922,2.922,0,0,1,1.349.315,2.278,2.278,0,0,1,.943.857,2.2,2.2,0,0,1,.327,1.154,1.888,1.888,0,0,1-.311,1.055,2.119,2.119,0,0,1-.922.758,2.07,2.07,0,0,1,1.233.76,2.31,2.31,0,0,1,.439,1.443,2.64,2.64,0,0,1-.854,1.986,3.007,3.007,0,0,1-2.161.815,2.81,2.81,0,0,1-1.956-.7A2.712,2.712,0,0,1,378.319,202.578Z"/></g><path id="d2f3b81b-abba-40f0-92c6-c7dcd7e6ff6b" data-name="Elipse l-14" class="1171125e-2773-4351-be8f-6d8b4d37f878" d="M341.342,157.651a9,9,0,1,1,12.728-.008l-.008.008c-4.65,4.62-5.54,6.91-6.41,6.9S345.922,162.271,341.342,157.651Z"/><g id="14967b17-0103-45bd-a938-2408ce86e7cb" data-name="Number l-14" class="918d701a-7e8d-4f02-a81e-533eb4b6e067"><path class="48dc0acd-b183-41c8-b582-5b9faea8a895" d="M345.669,156.331h-1.1v-7a5.629,5.629,0,0,1-1.041.757,7.37,7.37,0,0,1-1.156.568v-1.062a6.647,6.647,0,0,0,1.611-1.05,4.137,4.137,0,0,0,.977-1.2h.708Z"/><path class="48dc0acd-b183-41c8-b582-5b9faea8a895" d="M352,156.331v-2.143h-3.882v-1.007l4.084-5.8h.9v5.8h1.208v1.007H353.1v2.143Zm0-3.15v-4.034l-2.8,4.034Z"/></g><path id="4d5e5ea1-2b12-4737-ac33-afe8cde4b995" data-name="Elipse l-15" class="1171125e-2773-4351-be8f-6d8b4d37f878" d="M322.292,224.751a9,9,0,1,1,3.53,12.25c-5.74-3.17-8.19-3.38-8.43-4.22S319.152,230.441,322.292,224.751Z"/><g id="d39def96-1371-4fac-a34d-b4a3cdb6b7a1" data-name="Number l-15" class="918d701a-7e8d-4f02-a81e-533eb4b6e067"><path class="48dc0acd-b183-41c8-b582-5b9faea8a895" d="M327.719,233.8h-1.1v-7a5.662,5.662,0,0,1-1.041.756,7.384,7.384,0,0,1-1.156.569v-1.063a6.645,6.645,0,0,0,1.611-1.049,4.15,4.15,0,0,0,.977-1.2h.708Z"/><path class="48dc0acd-b183-41c8-b582-5b9faea8a895" d="M330.532,231.457l1.154-.1a2.068,2.068,0,0,0,.6,1.267,1.615,1.615,0,0,0,1.126.424,1.756,1.756,0,0,0,1.343-.6,2.256,2.256,0,0,0,.549-1.587,2.036,2.036,0,0,0-.528-1.483,1.838,1.838,0,0,0-1.382-.543,1.91,1.91,0,0,0-.958.241,1.858,1.858,0,0,0-.672.625l-1.032-.134.868-4.6h4.449v1.051h-3.57l-.483,2.4a2.914,2.914,0,0,1,1.691-.561,2.677,2.677,0,0,1,1.977.811,2.841,2.841,0,0,1,.806,2.088,3.259,3.259,0,0,1-.708,2.1,2.836,2.836,0,0,1-2.35,1.086,2.894,2.894,0,0,1-1.993-.684A2.662,2.662,0,0,1,330.532,231.457Z"/></g><path id="8231f2c8-124c-4ccb-8e84-636fdf14148c" data-name="Elipse l-16" class="1171125e-2773-4351-be8f-6d8b4d37f878" d="M391.892,270.211a9,9,0,1,1,2.36,12.51c-5.42-3.7-7.84-4.14-8-5S388.222,275.581,391.892,270.211Z"/><g id="bdfcb3a8-3616-404b-b4f4-8725c566df0a" data-name="Number l-16" class="918d701a-7e8d-4f02-a81e-533eb4b6e067"><path class="48dc0acd-b183-41c8-b582-5b9faea8a895" d="M396.859,279.951h-1.1v-7a5.629,5.629,0,0,1-1.041.757,7.37,7.37,0,0,1-1.156.568v-1.062a6.647,6.647,0,0,0,1.611-1.05,4.148,4.148,0,0,0,.977-1.2h.708Z"/><path class="48dc0acd-b183-41c8-b582-5b9faea8a895" d="M405.373,273.194l-1.092.086a2.068,2.068,0,0,0-.415-.94,1.451,1.451,0,0,0-1.1-.47,1.514,1.514,0,0,0-.922.293,2.5,2.5,0,0,0-.817,1.1,5.782,5.782,0,0,0-.312,2.07,2.546,2.546,0,0,1,.971-.9,2.611,2.611,0,0,1,1.2-.293,2.492,2.492,0,0,1,1.871.809,2.908,2.908,0,0,1,.772,2.091,3.44,3.44,0,0,1-.363,1.565,2.64,2.64,0,0,1-1,1.108,2.73,2.73,0,0,1-1.441.384,2.813,2.813,0,0,1-2.239-1.009,5.1,5.1,0,0,1-.868-3.331,5.966,5.966,0,0,1,.959-3.771,2.754,2.754,0,0,1,2.252-1.025,2.4,2.4,0,0,1,2.539,2.227Zm-4.486,3.858a2.541,2.541,0,0,0,.241,1.086,1.8,1.8,0,0,0,.675.791,1.686,1.686,0,0,0,.909.271,1.55,1.55,0,0,0,1.2-.562,2.21,2.21,0,0,0,.5-1.525,2.068,2.068,0,0,0-.5-1.462,1.623,1.623,0,0,0-1.245-.534,1.7,1.7,0,0,0-1.263.534A1.926,1.926,0,0,0,400.887,277.052Z"/></g><path id="2f2379c7-a161-40db-b005-2d2d9cb5af6d" data-name="Elipse l-17" class="1171125e-2773-4351-be8f-6d8b4d37f878" d="M383.082,299.551a9,9,0,1,1,1.906,12.584l-.006,0c-5.27-3.89-7.68-4.42-7.8-5.29S379.222,304.781,383.082,299.551Z"/><g id="d0546d51-834b-4452-adc7-704accf5842d" data-name="Number l-17" class="918d701a-7e8d-4f02-a81e-533eb4b6e067"><path class="48dc0acd-b183-41c8-b582-5b9faea8a895" d="M387.859,309.531h-1.1v-7a5.629,5.629,0,0,1-1.041.757,7.37,7.37,0,0,1-1.156.568v-1.062a6.647,6.647,0,0,0,1.611-1.05,4.148,4.148,0,0,0,.977-1.2h.708Z"/><path class="48dc0acd-b183-41c8-b582-5b9faea8a895" d="M390.746,301.756V300.7h5.792v.855a12.206,12.206,0,0,0-1.694,2.417,14.732,14.732,0,0,0-1.3,3.1,11.575,11.575,0,0,0-.421,2.46H392a10.916,10.916,0,0,1,.415-2.551,13.426,13.426,0,0,1,1.138-2.884,12.4,12.4,0,0,1,1.578-2.34Z"/></g><path id="69ad14d1-baa4-4664-9a9e-8fd7a2c3d6fc" data-name="Elipse l-18" class="1171125e-2773-4351-be8f-6d8b4d37f878" d="M338.982,411.631a9,9,0,1,1-12.58,1.95c3.87-5.29,4.39-7.7,5.26-7.82S333.752,407.791,338.982,411.631Z"/><g id="beb1258d-25cb-4e1b-996f-0d7d899e0647" data-name="Number l-18" class="918d701a-7e8d-4f02-a81e-533eb4b6e067"><path class="48dc0acd-b183-41c8-b582-5b9faea8a895" d="M331.589,423.071h-1.1v-7a5.629,5.629,0,0,1-1.041.757,7.37,7.37,0,0,1-1.156.568v-1.062a6.647,6.647,0,0,0,1.611-1.05,4.148,4.148,0,0,0,.977-1.2h.708Z"/><path class="48dc0acd-b183-41c8-b582-5b9faea8a895" d="M336.093,418.219a2.075,2.075,0,0,1-1.013-.714,1.87,1.87,0,0,1-.33-1.112,2.171,2.171,0,0,1,.7-1.641,2.956,2.956,0,0,1,3.754.015,2.2,2.2,0,0,1,.714,1.658,1.828,1.828,0,0,1-.326,1.083,2.064,2.064,0,0,1-.993.711,2.282,2.282,0,0,1,1.685,2.294,2.568,2.568,0,0,1-.811,1.929,3.308,3.308,0,0,1-4.273,0,2.607,2.607,0,0,1-.811-1.956,2.365,2.365,0,0,1,.442-1.462A2.216,2.216,0,0,1,336.093,418.219Zm-.574,2.27a2,2,0,0,0,.223.91,1.569,1.569,0,0,0,.662.68,1.936,1.936,0,0,0,.947.241,1.77,1.77,0,0,0,1.3-.507,1.73,1.73,0,0,0,.513-1.287,1.76,1.76,0,0,0-.528-1.312,1.808,1.808,0,0,0-1.321-.519,1.748,1.748,0,0,0-1.8,1.794Zm.354-4.132a1.4,1.4,0,0,0,.409,1.038,1.453,1.453,0,0,0,1.063.4,1.418,1.418,0,0,0,1.04-.4,1.321,1.321,0,0,0,.406-.979,1.374,1.374,0,0,0-.418-1.017,1.537,1.537,0,0,0-2.085-.009A1.3,1.3,0,0,0,335.873,416.357Z"/></g><path id="a84d00a7-2670-4c60-bd1e-e29cb87ecd91" data-name="Elipse l-19" class="1171125e-2773-4351-be8f-6d8b4d37f878" d="M240.382,350a9,9,0,1,1,9.49-8.482v0c-.37,6.55.5,8.85-.15,9.42S246.872,350.361,240.382,350Z"/><g id="44ae6b23-c489-4524-b181-35da23322367" data-name="Number l-19" class="918d701a-7e8d-4f02-a81e-533eb4b6e067"><path class="48dc0acd-b183-41c8-b582-5b9faea8a895" d="M239.119,345.93h-1.1v-7a5.629,5.629,0,0,1-1.041.757,7.384,7.384,0,0,1-1.156.569v-1.063a6.6,6.6,0,0,0,1.611-1.05,4.135,4.135,0,0,0,.977-1.2h.708Z"/><path class="48dc0acd-b183-41c8-b582-5b9faea8a895" d="M242.1,343.861l1.055-.1a1.843,1.843,0,0,0,.513,1.082,1.411,1.411,0,0,0,.971.334,1.675,1.675,0,0,0,.887-.231,1.9,1.9,0,0,0,.626-.62,3.662,3.662,0,0,0,.409-1.046,5.515,5.515,0,0,0,.165-1.344c0-.049,0-.121-.006-.218a2.515,2.515,0,0,1-.9.85,2.443,2.443,0,0,1-1.235.327,2.5,2.5,0,0,1-1.88-.805,2.95,2.95,0,0,1-.769-2.124,3.021,3.021,0,0,1,.8-2.192,2.678,2.678,0,0,1,2.011-.83,2.868,2.868,0,0,1,1.6.47,2.945,2.945,0,0,1,1.1,1.34,6.6,6.6,0,0,1,.375,2.517,8.159,8.159,0,0,1-.372,2.732,3.2,3.2,0,0,1-1.108,1.547,2.866,2.866,0,0,1-1.724.531,2.363,2.363,0,0,1-2.514-2.222Zm4.5-3.948a2.15,2.15,0,0,0-.5-1.5,1.579,1.579,0,0,0-1.211-.556,1.67,1.67,0,0,0-1.276.6,2.216,2.216,0,0,0-.544,1.55,1.911,1.911,0,0,0,.516,1.388,1.7,1.7,0,0,0,1.274.535,1.627,1.627,0,0,0,1.253-.535A2.1,2.1,0,0,0,246.6,339.913Z"/></g><path id="d56ddc3d-dc7a-4b97-9245-934c74eb81cb" data-name="Elipse l-20" class="1171125e-2773-4351-be8f-6d8b4d37f878" d="M317.182,374.921a9,9,0,1,1,7.836-10.03l0,.03c.79,6.51,2.06,8.62,1.52,9.31S323.632,374.131,317.182,374.921Z"/><g id="84168562-c098-4745-b55f-9473b8c0775b" data-name="Number l-20" class="918d701a-7e8d-4f02-a81e-533eb4b6e067"><path class="48dc0acd-b183-41c8-b582-5b9faea8a895" d="M316.005,369.8v1.056H310.09a1.937,1.937,0,0,1,.129-.763,4,4,0,0,1,.722-1.19,11.407,11.407,0,0,1,1.438-1.356,12.2,12.2,0,0,0,1.972-1.894,2.273,2.273,0,0,0,.512-1.322,1.468,1.468,0,0,0-.467-1.1,1.679,1.679,0,0,0-1.217-.449,1.716,1.716,0,0,0-1.27.476,1.8,1.8,0,0,0-.482,1.319l-1.129-.117a2.776,2.776,0,0,1,.873-1.925,2.971,2.971,0,0,1,2.032-.662,2.839,2.839,0,0,1,2.038.713,2.346,2.346,0,0,1,.751,1.771,2.681,2.681,0,0,1-.22,1.056,4.082,4.082,0,0,1-.729,1.092,17.835,17.835,0,0,1-1.693,1.575q-.99.829-1.27,1.126a3.663,3.663,0,0,0-.464.6Z"/><path class="48dc0acd-b183-41c8-b582-5b9faea8a895" d="M317.183,366.438a8.178,8.178,0,0,1,.326-2.554,3.173,3.173,0,0,1,.97-1.492,2.479,2.479,0,0,1,1.622-.525,2.632,2.632,0,0,1,1.262.29,2.414,2.414,0,0,1,.9.835,4.484,4.484,0,0,1,.555,1.332,8.837,8.837,0,0,1,.2,2.114,8.2,8.2,0,0,1-.324,2.542,3.183,3.183,0,0,1-.968,1.5A2.483,2.483,0,0,1,320.1,371a2.452,2.452,0,0,1-2.034-.928A5.9,5.9,0,0,1,317.183,366.438Zm1.128,0a5.6,5.6,0,0,0,.516,2.932,1.473,1.473,0,0,0,2.546,0,8.591,8.591,0,0,0,0-5.865,1.532,1.532,0,0,0-1.285-.726,1.407,1.407,0,0,0-1.208.641A5.665,5.665,0,0,0,318.311,366.438Z"/></g><path id="433c7ee6-611b-45ad-831b-bf9c9f8e4a14" data-name="Elipse l-21" class="1171125e-2773-4351-be8f-6d8b4d37f878" d="M250.712,325.651a9,9,0,1,1,2.538-12.472l0,0c3.62,5.47,5.7,6.79,5.51,7.65S256.142,322.061,250.712,325.651Z"/><g id="0e83b470-6cc6-4a7b-869c-c63f613e0ce7" data-name="Number l-21" class="918d701a-7e8d-4f02-a81e-533eb4b6e067"><path class="48dc0acd-b183-41c8-b582-5b9faea8a895" d="M245.755,321.785v1.056H239.84a1.937,1.937,0,0,1,.129-.763,4,4,0,0,1,.722-1.19,11.407,11.407,0,0,1,1.438-1.356,12.247,12.247,0,0,0,1.972-1.894,2.275,2.275,0,0,0,.512-1.322,1.467,1.467,0,0,0-.467-1.1,1.68,1.68,0,0,0-1.217-.45,1.717,1.717,0,0,0-1.27.477,1.8,1.8,0,0,0-.482,1.318l-1.129-.116a2.779,2.779,0,0,1,.873-1.926,2.976,2.976,0,0,1,2.032-.662,2.839,2.839,0,0,1,2.038.714,2.346,2.346,0,0,1,.751,1.771,2.672,2.672,0,0,1-.22,1.055,4.086,4.086,0,0,1-.729,1.093,17.855,17.855,0,0,1-1.693,1.574q-.99.831-1.27,1.126a3.712,3.712,0,0,0-.464.6Z"/><path class="48dc0acd-b183-41c8-b582-5b9faea8a895" d="M251.071,322.841h-1.1v-7a5.65,5.65,0,0,1-1.041.756,7.433,7.433,0,0,1-1.157.569V316.1a6.632,6.632,0,0,0,1.612-1.049,4.145,4.145,0,0,0,.976-1.2h.708Z"/></g><path id="41a21957-cf94-4d90-903d-2ff0a2f115ee" data-name="Elipse l-22" class="1171125e-2773-4351-be8f-6d8b4d37f878" d="M285.872,248.911a9,9,0,1,1-6.06-11.2c6.29,1.88,8.73,1.56,9.13,2.33S287.722,242.671,285.872,248.911Z"/><g id="92bf9b74-3bc7-447c-afcc-b04a0efbcf22" data-name="Number l-22" class="918d701a-7e8d-4f02-a81e-533eb4b6e067"><path class="48dc0acd-b183-41c8-b582-5b9faea8a895" d="M277.215,249.685v1.056H271.3a1.937,1.937,0,0,1,.129-.763,4.013,4.013,0,0,1,.722-1.19,11.407,11.407,0,0,1,1.438-1.356,12.1,12.1,0,0,0,1.971-1.894,2.268,2.268,0,0,0,.513-1.321,1.469,1.469,0,0,0-.467-1.1,1.679,1.679,0,0,0-1.217-.449,1.716,1.716,0,0,0-1.27.476,1.8,1.8,0,0,0-.482,1.319l-1.129-.116a2.777,2.777,0,0,1,.873-1.926,2.971,2.971,0,0,1,2.032-.662,2.835,2.835,0,0,1,2.038.714,2.343,2.343,0,0,1,.751,1.77,2.681,2.681,0,0,1-.22,1.056,4.082,4.082,0,0,1-.729,1.092,17.749,17.749,0,0,1-1.694,1.575q-.989.829-1.269,1.126a3.608,3.608,0,0,0-.464.595Z"/><path class="48dc0acd-b183-41c8-b582-5b9faea8a895" d="M284.167,249.685v1.056h-5.915a1.937,1.937,0,0,1,.129-.763,4.013,4.013,0,0,1,.722-1.19,11.407,11.407,0,0,1,1.438-1.356,12.117,12.117,0,0,0,1.972-1.894,2.273,2.273,0,0,0,.512-1.321,1.472,1.472,0,0,0-.466-1.1,1.683,1.683,0,0,0-1.218-.449,1.718,1.718,0,0,0-1.27.476,1.8,1.8,0,0,0-.482,1.319l-1.129-.116a2.777,2.777,0,0,1,.873-1.926,2.973,2.973,0,0,1,2.032-.662,2.833,2.833,0,0,1,2.038.714,2.343,2.343,0,0,1,.751,1.77,2.681,2.681,0,0,1-.22,1.056,4.082,4.082,0,0,1-.729,1.092,17.835,17.835,0,0,1-1.693,1.575q-.99.829-1.27,1.126a3.663,3.663,0,0,0-.464.595Z"/></g><path id="861f045b-1d58-4634-b98c-b2093d2fdfd6" data-name="Elipse l-23" class="1171125e-2773-4351-be8f-6d8b4d37f878" d="M260.322,217.921a9,9,0,1,1-5.52,11.47c-2.17-6.19-3.86-8-3.47-8.76S254.182,220.071,260.322,217.921Z"/><g id="f4cb8246-3140-459f-b028-3be1d64ef7a0" data-name="Number l-23" class="918d701a-7e8d-4f02-a81e-533eb4b6e067"><path class="48dc0acd-b183-41c8-b582-5b9faea8a895" d="M262.466,229.792l-.022,1.056-5.914-.119a1.932,1.932,0,0,1,.144-.76,4.024,4.024,0,0,1,.747-1.176,11.294,11.294,0,0,1,1.465-1.326,12.139,12.139,0,0,0,2.008-1.855,2.268,2.268,0,0,0,.54-1.311,1.475,1.475,0,0,0-.445-1.112,1.685,1.685,0,0,0-1.209-.473,1.711,1.711,0,0,0-1.278.451,1.8,1.8,0,0,0-.509,1.309l-1.128-.139a2.784,2.784,0,0,1,.912-1.908,2.98,2.98,0,0,1,2.045-.622,2.84,2.84,0,0,1,2.025.755,2.345,2.345,0,0,1,.715,1.785,2.661,2.661,0,0,1-.241,1.052,4.078,4.078,0,0,1-.751,1.078,17.719,17.719,0,0,1-1.725,1.54q-1,.811-1.291,1.1a3.624,3.624,0,0,0-.476.586Z"/><path class="48dc0acd-b183-41c8-b582-5b9faea8a895" d="M263.851,223.1l.021-1.056,5.793.116-.018.854a12.245,12.245,0,0,0-1.742,2.383,14.789,14.789,0,0,0-1.359,3.075,11.534,11.534,0,0,0-.47,2.451l-1.129-.022a11.019,11.019,0,0,1,.466-2.543,13.47,13.47,0,0,1,1.2-2.861,12.392,12.392,0,0,1,1.625-2.31Z"/></g><path id="4d6c801b-4624-47b2-a63c-4aca70c162f3" data-name="Elipse l-24" class="1171125e-2773-4351-be8f-6d8b4d37f878" d="M238.662,177.621a9,9,0,1,1,3.47,12.25c-5.73-3.2-8.18-3.42-8.41-4.26S235.492,183.3,238.662,177.621Z"/><g id="c08f9d50-16d7-4e51-8c7a-aae63480dc4b" data-name="Number l-24" class="918d701a-7e8d-4f02-a81e-533eb4b6e067"><path class="48dc0acd-b183-41c8-b582-5b9faea8a895" d="M245.694,185.655v1.056H239.78a1.919,1.919,0,0,1,.128-.763,4.03,4.03,0,0,1,.724-1.19,11.37,11.37,0,0,1,1.436-1.356,12.2,12.2,0,0,0,1.972-1.894,2.27,2.27,0,0,0,.513-1.322,1.468,1.468,0,0,0-.467-1.1,1.682,1.682,0,0,0-1.218-.449,1.717,1.717,0,0,0-1.269.476,1.8,1.8,0,0,0-.483,1.318l-1.129-.116a2.779,2.779,0,0,1,.873-1.926,2.981,2.981,0,0,1,2.033-.662,2.844,2.844,0,0,1,2.039.714,2.349,2.349,0,0,1,.75,1.771,2.69,2.69,0,0,1-.22,1.055,4.134,4.134,0,0,1-.729,1.093,17.769,17.769,0,0,1-1.694,1.574q-.988.831-1.27,1.126a3.76,3.76,0,0,0-.463.6Z"/><path class="48dc0acd-b183-41c8-b582-5b9faea8a895" d="M246.879,184.348l1.1-.146a2.421,2.421,0,0,0,.644,1.346,1.589,1.589,0,0,0,1.107.412,1.775,1.775,0,0,0,1.31-.537,1.813,1.813,0,0,0,.534-1.33,1.686,1.686,0,0,0-.494-1.248,1.705,1.705,0,0,0-1.258-.492,3.165,3.165,0,0,0-.775.121l.122-.963c.073.007.133.012.178.012a2.261,2.261,0,0,0,1.262-.367,1.252,1.252,0,0,0,.562-1.129,1.34,1.34,0,0,0-.408-1,1.457,1.457,0,0,0-1.057-.4,1.487,1.487,0,0,0-1.067.4,2.017,2.017,0,0,0-.55,1.208l-1.1-.2a2.827,2.827,0,0,1,.916-1.712,2.646,2.646,0,0,1,1.776-.608,2.922,2.922,0,0,1,1.349.315,2.278,2.278,0,0,1,.943.857,2.213,2.213,0,0,1,.327,1.154,1.889,1.889,0,0,1-.312,1.055,2.113,2.113,0,0,1-.922.758,2.069,2.069,0,0,1,1.234.76,2.31,2.31,0,0,1,.439,1.443,2.64,2.64,0,0,1-.854,1.986,3.009,3.009,0,0,1-2.161.815,2.807,2.807,0,0,1-1.956-.7A2.712,2.712,0,0,1,246.879,184.348Z"/></g><path id="83631887-cd5e-4156-9b4f-ae3c2c5a3cee" data-name="Elipse l-25" class="1171125e-2773-4351-be8f-6d8b4d37f878" d="M235.282,148.551a9,9,0,1,1-2.627-12.454l.007,0c5.49,3.58,7.93,4,8.09,4.83S238.832,143.111,235.282,148.551Z"/><g id="964bbb3b-1887-40bd-a651-e3075dbbadaa" data-name="Number l-25" class="918d701a-7e8d-4f02-a81e-533eb4b6e067"><path class="48dc0acd-b183-41c8-b582-5b9faea8a895" d="M227.755,147.1v1.056H221.84a1.937,1.937,0,0,1,.129-.763,4,4,0,0,1,.722-1.19,11.407,11.407,0,0,1,1.438-1.356,12.247,12.247,0,0,0,1.972-1.894,2.275,2.275,0,0,0,.512-1.322,1.468,1.468,0,0,0-.467-1.1,1.68,1.68,0,0,0-1.217-.45,1.717,1.717,0,0,0-1.27.477,1.8,1.8,0,0,0-.482,1.318l-1.129-.116a2.779,2.779,0,0,1,.873-1.926,2.976,2.976,0,0,1,2.032-.662,2.839,2.839,0,0,1,2.038.714,2.346,2.346,0,0,1,.751,1.771,2.672,2.672,0,0,1-.22,1.055,4.086,4.086,0,0,1-.729,1.093,17.855,17.855,0,0,1-1.693,1.574q-.99.831-1.27,1.126a3.712,3.712,0,0,0-.464.6Z"/><path class="48dc0acd-b183-41c8-b582-5b9faea8a895" d="M232.454,148.151v-2.143h-3.882V145l4.084-5.8h.9V145h1.209v1.007h-1.209v2.143Zm0-3.15v-4.034l-2.8,4.034Z"/></g><path id="09f94e14-5940-43db-a9ff-d522da8096f6" data-name="Elipse l-26" class="1171125e-2773-4351-be8f-6d8b4d37f878" d="M182.622,94.371A9,9,0,1,1,195.3,93.205l0,.006c-4.19,5-4.86,7.41-5.73,7.48S187.622,98.531,182.622,94.371Z"/><g id="c49b3718-aad7-4ceb-9d84-dee0393a3547" data-name="Number l-26" class="918d701a-7e8d-4f02-a81e-533eb4b6e067"><path class="48dc0acd-b183-41c8-b582-5b9faea8a895" d="M188,91.415v1.056H182.08a1.955,1.955,0,0,1,.128-.763,4.034,4.034,0,0,1,.724-1.191,11.394,11.394,0,0,1,1.437-1.355,12.181,12.181,0,0,0,1.971-1.9,2.265,2.265,0,0,0,.513-1.321,1.467,1.467,0,0,0-.467-1.1,1.681,1.681,0,0,0-1.218-.45,1.714,1.714,0,0,0-1.269.477,1.8,1.8,0,0,0-.483,1.318l-1.128-.116a2.779,2.779,0,0,1,.873-1.926,2.976,2.976,0,0,1,2.032-.662,2.835,2.835,0,0,1,2.038.714,2.345,2.345,0,0,1,.751,1.771,2.676,2.676,0,0,1-.22,1.055,4.11,4.11,0,0,1-.729,1.093,17.769,17.769,0,0,1-1.694,1.574q-.988.831-1.269,1.126a3.668,3.668,0,0,0-.464.6Z"/><path class="48dc0acd-b183-41c8-b582-5b9faea8a895" d="M189.172,90.127l1.154-.1a2.074,2.074,0,0,0,.595,1.267,1.615,1.615,0,0,0,1.126.424,1.756,1.756,0,0,0,1.343-.6,2.258,2.258,0,0,0,.549-1.587,2.04,2.04,0,0,0-.527-1.483,1.84,1.84,0,0,0-1.383-.543,1.91,1.91,0,0,0-.958.241,1.858,1.858,0,0,0-.672.625l-1.031-.134.867-4.6h4.449V84.7h-3.57l-.483,2.4a2.914,2.914,0,0,1,1.691-.561,2.677,2.677,0,0,1,1.977.811,2.84,2.84,0,0,1,.806,2.088,3.259,3.259,0,0,1-.708,2.1,2.836,2.836,0,0,1-2.35,1.086,2.89,2.89,0,0,1-1.992-.684A2.663,2.663,0,0,1,189.172,90.127Z"/></g><path id="df65053a-c43f-460f-a2af-7684223677ce" data-name="Elipse l-27" class="1171125e-2773-4351-be8f-6d8b4d37f878" d="M170.832,153.5a9,9,0,1,1,4.25,12c-5.92-2.82-8.38-2.88-8.66-3.71S168.032,159.371,170.832,153.5Z"/><g id="66a1f5b1-b9c9-415d-ad6e-61fa14dc133d" data-name="Number l-27" class="918d701a-7e8d-4f02-a81e-533eb4b6e067"><path class="48dc0acd-b183-41c8-b582-5b9faea8a895" d="M178.144,161.035v1.056H172.23a1.955,1.955,0,0,1,.128-.763,4.026,4.026,0,0,1,.723-1.19,11.459,11.459,0,0,1,1.437-1.356,12.2,12.2,0,0,0,1.972-1.894,2.27,2.27,0,0,0,.513-1.322,1.467,1.467,0,0,0-.467-1.1,1.681,1.681,0,0,0-1.218-.45,1.716,1.716,0,0,0-1.269.477,1.8,1.8,0,0,0-.483,1.318l-1.129-.116a2.787,2.787,0,0,1,.873-1.926,2.981,2.981,0,0,1,2.033-.662,2.839,2.839,0,0,1,2.038.714,2.346,2.346,0,0,1,.751,1.771,2.672,2.672,0,0,1-.22,1.055,4.11,4.11,0,0,1-.729,1.093,17.769,17.769,0,0,1-1.694,1.574q-.988.831-1.269,1.126a3.712,3.712,0,0,0-.464.6Z"/><path class="48dc0acd-b183-41c8-b582-5b9faea8a895" d="M185.023,155.334l-1.092.086a2.078,2.078,0,0,0-.415-.941,1.456,1.456,0,0,0-1.1-.469,1.507,1.507,0,0,0-.922.293,2.49,2.49,0,0,0-.817,1.1,5.753,5.753,0,0,0-.312,2.069,2.543,2.543,0,0,1,.971-.9,2.611,2.611,0,0,1,1.2-.293,2.49,2.49,0,0,1,1.871.809,2.907,2.907,0,0,1,.772,2.09,3.457,3.457,0,0,1-.363,1.566,2.643,2.643,0,0,1-1,1.107,2.724,2.724,0,0,1-1.441.385,2.81,2.81,0,0,1-2.239-1.01,5.094,5.094,0,0,1-.868-3.33,5.966,5.966,0,0,1,.959-3.771,2.753,2.753,0,0,1,2.252-1.026,2.4,2.4,0,0,1,2.539,2.228Zm-4.486,3.857a2.545,2.545,0,0,0,.241,1.087,1.785,1.785,0,0,0,.675.79,1.679,1.679,0,0,0,.909.272,1.55,1.55,0,0,0,1.2-.562,2.212,2.212,0,0,0,.5-1.525,2.066,2.066,0,0,0-.5-1.462,1.619,1.619,0,0,0-1.245-.534,1.691,1.691,0,0,0-1.263.534A1.924,1.924,0,0,0,180.537,159.191Z"/></g></g><rect class="8b995cc8-1ab9-4db9-ac41-af84e7b3da33" x="117.11" y="159.497" width="36.48" height="8.8" transform="translate(-74.736 196.235) rotate(-59.2)"/><rect class="d46f271e-e7c3-4bbe-8ec6-9535b01d7f93" x="131.931" y="175.943" width="9.12" height="9.12" transform="translate(-88.443 205.318) rotate(-59.2)"/><rect class="d46f271e-e7c3-4bbe-8ec6-9535b01d7f93" x="136.598" y="168.107" width="9.12" height="9.12" transform="translate(-79.435 205.504) rotate(-59.2)"/><rect class="d46f271e-e7c3-4bbe-8ec6-9535b01d7f93" x="141.274" y="160.277" width="9.12" height="9.12" transform="translate(-70.427 205.699) rotate(-59.2)"/><rect class="d46f271e-e7c3-4bbe-8ec6-9535b01d7f93" x="145.95" y="152.446" width="9.12" height="9.12" transform="translate(-61.42 205.894) rotate(-59.2)"/></g></g></g></svg>