<svg xmlns="http://www.w3.org/2000/svg" xmlns:xlink="http://www.w3.org/1999/xlink" width="963.799" height="1221.175" viewBox="0 0 963.799 1221.175"><defs><style>.\37 a668d5f-dd7f-4f03-b017-e5d27319bf7e{fill:#00ff24;}.\31 dc86f71-8e47-44e1-90f3-dadeec55f397,.\37 a668d5f-dd7f-4f03-b017-e5d27319bf7e{stroke:#000;stroke-width:5px;}.\31 dc86f71-8e47-44e1-90f3-dadeec55f397,.\33 b7e8926-0647-41bb-9df0-91bf0407201a,.\37 a668d5f-dd7f-4f03-b017-e5d27319bf7e,.ca5bbb97-9c06-485f-a5a3-c88bbcbebcc1,.d20dd500-b12b-477a-9d19-6ea0248f2a79,.d267d8b4-f7dd-4e88-814e-2b1069ae639a{stroke-miterlimit:10;}.\31 dc86f71-8e47-44e1-90f3-dadeec55f397,.\32 b88608b-c9b9-42bc-93c5-28a22e5be87b{fill:#fff;}.\33 b7e8926-0647-41bb-9df0-91bf0407201a,.d20dd500-b12b-477a-9d19-6ea0248f2a79,.d267d8b4-f7dd-4e88-814e-2b1069ae639a{fill:none;}.d20dd500-b12b-477a-9d19-6ea0248f2a79,.d267d8b4-f7dd-4e88-814e-2b1069ae639a{stroke:#007fff;}.d267d8b4-f7dd-4e88-814e-2b1069ae639a{stroke-width:25px;}.\33 b7e8926-0647-41bb-9df0-91bf0407201a,.ca5bbb97-9c06-485f-a5a3-c88bbcbebcc1{stroke:#fff;}.\33 b7e8926-0647-41bb-9df0-91bf0407201a{stroke-width:12.5px;}.d20dd500-b12b-477a-9d19-6ea0248f2a79{stroke-width:4px;}.ca5bbb97-9c06-485f-a5a3-c88bbcbebcc1{fill:#333;stroke-width:1.5px;}</style><symbol id="4de4c17c-7ff9-4dbf-b423-173f1724e1db" data-name="fd103434-89f2-4089-acf9-54fed79ed404" viewBox="0 0 200 103.617"><rect class="7a668d5f-dd7f-4f03-b017-e5d27319bf7e" x="2.5" y="54.074" width="195" height="47.043"/><rect class="1dc86f71-8e47-44e1-90f3-dadeec55f397" x="2.5" y="2.5" width="48.75" height="48.75"/><rect class="1dc86f71-8e47-44e1-90f3-dadeec55f397" x="51.25" y="2.5" width="48.75" height="48.75"/><rect class="1dc86f71-8e47-44e1-90f3-dadeec55f397" x="100" y="2.5" width="48.75" height="48.75"/><rect class="1dc86f71-8e47-44e1-90f3-dadeec55f397" x="148.75" y="2.5" width="48.75" height="48.75"/></symbol></defs><title>Zancudo_International</title><g id="ebac770a-0622-4b8e-b007-7ee6f8ccf5b9" data-name="Layer 2"><g id="c4d5c6d6-31ef-4c9e-84ad-6f1a1ae496b5" data-name="Airport"><g id="7f53bc87-cb3a-4499-8907-b493d693d322" data-name="Zancudo_International"><g id="91ffdf5d-4f39-4ff5-895c-0edbbfe6d7ed" data-name="Track-Outer"><path class="d267d8b4-f7dd-4e88-814e-2b1069ae639a" d="M748.444,651.739c-66.1-57.336-81.689-72.719-96.583-90.5-23.544-28.107-36.718-49.706-43.667-62-19.449-34.406-28.414-62.36-30.667-69.666-4.808-15.6-7.026-27.389-10.666-46.334-6.1-31.743-7.049-44.855-12.792-72.75-2.057-9.992-3.685-18.6-5.2-25.94a35.5,35.5,0,0,0-18.028-24.086c-.456-.245-.9-.486-1.312-.724-8.554-4.87-10.94-15.2-5.916-23.666,10.2-17.192,20.7-34.682,31.587-52.061a14.61,14.61,0,0,0-5.029-20.389L337.915,40.167a26.974,26.974,0,0,0-31.2,2.907l-29.99,25.915a92.319,92.319,0,0,0-14.343,16.188c-.415.574-2.373,3.838-2.75,4.437-4.282,6.8-.065,13.215,6.894,17.229L471.409,225.019a12.5,12.5,0,0,1,4.605,17.029q-19.664,34.383-39.324,68.766a12.057,12.057,0,0,1-9.773,6.051L397.7,318.548a33.014,33.014,0,0,0-24.694,13.394l-.558.757a39.489,39.489,0,0,0-6.507,32.969l5.826,23.34a7.385,7.385,0,0,1-10.72,8.261L176.9,296.115a19.3,19.3,0,0,1-7.373-26.656l2.538-4.343a77.984,77.984,0,0,1,21.5-23.746l24.544-17.827a62.721,62.721,0,0,0,17.807-20l27.237-48.421a13.262,13.262,0,0,0-5.131-18.1l-18.037-9.993a33.049,33.049,0,0,1-16.914-26.094l-.4-4.7a30.456,30.456,0,0,0-14.987-23.7l-30.42-17.763a38.554,38.554,0,0,0-18.7-5.249c-5.149-.1-11.321-.253-18.613-.4-24.416-.485-32.791-.208-50.25-.458-13.849-.2-20.723,5.786-25.75,10.208a36.033,36.033,0,0,0-10.125,14.75c-1.318,3.71-2.924,8.447-.875,13.375a14.3,14.3,0,0,0,4.5,5.75L96.971,116.4a10.908,10.908,0,0,1,3.773,14.947c-19.794,33.2-66.81,111.743-81.179,135.744a8.005,8.005,0,0,0,2.98,11.11l2.447,1.362a11.141,11.141,0,0,0,12.028-.775,92.91,92.91,0,0,1,11.008-7.172,29.48,29.48,0,0,1,28.079.467l162.028,91.289a13.551,13.551,0,0,1-3.185,24.906L178.2,403.29a11.184,11.184,0,0,0-2.719,20.5l127.606,73.47a37.817,37.817,0,0,0,29.229,3.6l9.269-2.64a41.221,41.221,0,0,1,31.626,3.787l48.04,27.244a39.108,39.108,0,0,1,16.634,18.572l1.6,3.722a6.916,6.916,0,0,0,12.348.719l58.6-101.832a11.435,11.435,0,0,1,20.193.7l103.291,212.3a135.246,135.246,0,0,0,38.633,47.625L717.1,745.665c12.47,9.69,5.322,29.677-10.465,29.26l-25.313-.668a88.869,88.869,0,0,0-37.64,7.279L441.577,869A23.266,23.266,0,0,0,428.553,897.1l5.916,19.5a20.135,20.135,0,0,0,27.371,12.609c.228-.1.458-.2.687-.306,9.824-4.4,12.9-7.183,28.834-16.167,13.154-7.413,19.731-11.12,26-13.333a107.9,107.9,0,0,1,31.666-5.667c2.37-.075,4.667-.073,6.884-.008A22.718,22.718,0,0,1,577.4,912.639q.129.712.291,1.434c2,8.947,6.8,14.952,9.833,18.666,1.517,1.857.714.626,9.167,9.167,3.031,3.062,7.133,7.26,13.5,13.667a99.217,99.217,0,0,0,8.333,7.666,32.942,32.942,0,0,0,7,4.834c3.768,1.773,7.015,1.968,11,2.166,10.724.536,16.086.8,19.167.834,11.113.111,13.49-.08,18,1.166,3.1.858,6.272,1.768,9.5,4.334,4.761,3.785,6.558,8.715,8,12.833.55,1.571,2.2,6.548,2.667,16.167.653,13.371-.584,16.812.458,26.854.226,2.174,1.354,5.986,3.042,11.312,2.321,7.326,5.084,16.623,7.666,27.5,1.893,7.974,2.84,11.96,3.334,16.167a81.386,81.386,0,0,1-.334,25.333c-.17.924-1.114,5.561-3,14.834-.947,4.66-1.267,6.209-1.333,8.5a32.393,32.393,0,0,0,2.667,13.333c2.515,6.345,6.544,16.522,11.851,29.493a8.409,8.409,0,0,0,15.4.383l.48-1.028a35.835,35.835,0,0,1,31.7-20.654c19.464-.414,46.459-1.092,65.913-1.89,35.861-1.471,41.112-35.766,41.111-62.846,0-15.1.388-21.669,0-32.125-.614-16.545-.261-26.31.375-45.166.159-4.71.859-23.674,3.5-49,1.832-17.569,2.711-20.1,3.833-32.667.832-9.307,1.232-17.794,1.381-25.246a53.792,53.792,0,0,1,15.979-37.235l17.635-17.406A38.421,38.421,0,0,0,913.6,797.54q-5.775-4.966-12.069-10.467c-26.608-23.271-42.774-37.255-57.583-50.5C811.113,707.208,813.015,707.748,748.444,651.739Z"/></g><g id="cecc7cba-7d31-43f9-a5a7-050a887f966e" data-name="Track-Mid"><path class="3b7e8926-0647-41bb-9df0-91bf0407201a" d="M748.444,651.739c-66.1-57.336-81.689-72.719-96.583-90.5-23.544-28.107-36.718-49.706-43.667-62-19.449-34.406-28.414-62.36-30.667-69.666-4.808-15.6-7.026-27.389-10.666-46.334-6.1-31.743-7.049-44.855-12.792-72.75-2.106-10.229-3.763-19.008-5.31-26.462a34.173,34.173,0,0,0-17.445-23.312c-.628-.331-1.227-.657-1.787-.976-8.554-4.87-10.94-15.2-5.916-23.666,10.2-17.192,20.7-34.682,31.587-52.061a14.61,14.61,0,0,0-5.029-20.389L337.915,40.167a26.974,26.974,0,0,0-31.2,2.907l-29.99,25.915a92.319,92.319,0,0,0-14.343,16.188c-.415.574-2.373,3.838-2.75,4.437-4.282,6.8-.065,13.215,6.894,17.229L471.409,225.019a12.5,12.5,0,0,1,4.605,17.029q-19.664,34.383-39.324,68.766a12.057,12.057,0,0,1-9.773,6.051L397.7,318.548a33.014,33.014,0,0,0-24.694,13.394l-.558.757a39.489,39.489,0,0,0-6.507,32.969l5.826,23.34a7.385,7.385,0,0,1-10.72,8.261L176.9,296.115a19.3,19.3,0,0,1-7.373-26.656l2.538-4.343a77.984,77.984,0,0,1,21.5-23.746l24.544-17.827a62.721,62.721,0,0,0,17.807-20l27.237-48.421a13.262,13.262,0,0,0-5.131-18.1l-18.037-9.993a33.049,33.049,0,0,1-16.914-26.094l-.4-4.7a30.456,30.456,0,0,0-14.987-23.7l-29.94-17.483A40.6,40.6,0,0,0,158.057,49.5c-5.047-.1-11.055-.248-18.113-.389-24.416-.485-32.791-.208-50.25-.458-13.849-.2-20.723,5.786-25.75,10.208a36.033,36.033,0,0,0-10.125,14.75c-1.318,3.71-2.924,8.447-.875,13.375a14.3,14.3,0,0,0,4.5,5.75L96.971,116.4a10.908,10.908,0,0,1,3.773,14.947c-19.794,33.2-66.81,111.743-81.179,135.744a8.005,8.005,0,0,0,2.98,11.11l2.447,1.362a11.141,11.141,0,0,0,12.028-.775,92.91,92.91,0,0,1,11.008-7.172,29.48,29.48,0,0,1,28.079.467l162.028,91.289a13.551,13.551,0,0,1-3.185,24.906L178.2,403.29a11.184,11.184,0,0,0-2.719,20.5l127.606,73.47a37.817,37.817,0,0,0,29.229,3.6l9.269-2.64a41.221,41.221,0,0,1,31.626,3.787l48.04,27.244a39.108,39.108,0,0,1,16.634,18.572l1.6,3.722a6.916,6.916,0,0,0,12.348.719l58.6-101.832a11.435,11.435,0,0,1,20.193.7l103.291,212.3a135.246,135.246,0,0,0,38.633,47.625L717.1,745.665c12.47,9.69,5.322,29.677-10.465,29.26l-25.313-.668a88.869,88.869,0,0,0-37.64,7.279L441.577,869A23.266,23.266,0,0,0,428.553,897.1l5.916,19.5a20.135,20.135,0,0,0,27.371,12.609c.228-.1.458-.2.687-.306,9.824-4.4,12.9-7.183,28.834-16.167,13.154-7.413,19.731-11.12,26-13.333a107.9,107.9,0,0,1,31.666-5.667c2.37-.075,4.667-.073,6.884-.008A22.718,22.718,0,0,1,577.4,912.639q.129.712.291,1.434c2,8.947,6.8,14.952,9.833,18.666,1.517,1.857.714.626,9.167,9.167,3.031,3.062,7.133,7.26,13.5,13.667a99.217,99.217,0,0,0,8.333,7.666,32.942,32.942,0,0,0,7,4.834c3.768,1.773,7.015,1.968,11,2.166,10.724.536,16.086.8,19.167.834,11.113.111,13.49-.08,18,1.166,3.1.858,6.272,1.768,9.5,4.334,4.761,3.785,6.558,8.715,8,12.833.55,1.571,2.2,6.548,2.667,16.167.653,13.371-.584,16.812.458,26.854.226,2.174,1.354,5.986,3.042,11.312,2.321,7.326,5.084,16.623,7.666,27.5,1.893,7.974,2.84,11.96,3.334,16.167a81.386,81.386,0,0,1-.334,25.333c-.17.924-1.114,5.561-3,14.834-.947,4.66-1.267,6.209-1.333,8.5a32.393,32.393,0,0,0,2.667,13.333c2.515,6.345,6.544,16.522,11.851,29.493a8.409,8.409,0,0,0,15.4.383l.48-1.028a35.835,35.835,0,0,1,31.7-20.654c19.464-.414,46.459-1.092,65.913-1.89,35.861-1.471,41.112-35.766,41.111-62.846,0-15.1.388-21.669,0-32.125-.614-16.545-.261-26.31.375-45.166.159-4.71.859-23.674,3.5-49,1.832-17.569,2.711-20.1,3.833-32.667.832-9.307,1.232-17.794,1.381-25.246a53.792,53.792,0,0,1,15.979-37.235l17.635-17.406A38.421,38.421,0,0,0,913.6,797.54q-5.775-4.966-12.069-10.467c-26.608-23.271-42.774-37.255-57.583-50.5C811.113,707.208,813.015,707.748,748.444,651.739Z"/></g><g id="4197e225-27a3-4ed4-9ab0-4b490e156ffb" data-name="Track-Inner"><path class="d20dd500-b12b-477a-9d19-6ea0248f2a79" d="M748.444,651.739c-66.1-57.336-81.689-72.719-96.583-90.5-23.544-28.107-36.718-49.706-43.667-62-19.449-34.406-28.414-62.36-30.667-69.666-4.808-15.6-7.026-27.389-10.666-46.334-6.1-31.743-7.049-44.855-12.792-72.75-2.245-10.9-3.979-20.157-5.615-27.918a31.4,31.4,0,0,0-16.321-21.428c-.928-.479-1.806-.948-2.606-1.4-8.554-4.87-10.94-15.2-5.916-23.666,10.2-17.192,20.7-34.682,31.587-52.061a14.61,14.61,0,0,0-5.029-20.389L337.915,40.167a26.978,26.978,0,0,0-31.2,2.907L276.725,68.989a92.319,92.319,0,0,0-14.343,16.188c-.415.574-2.373,3.838-2.75,4.437-4.282,6.8-.065,13.215,6.894,17.229L471.409,225.019a12.5,12.5,0,0,1,4.605,17.029q-19.664,34.383-39.325,68.766a12.054,12.054,0,0,1-9.772,6.051L397.7,318.548a33.014,33.014,0,0,0-24.694,13.394l-.558.757a39.489,39.489,0,0,0-6.507,32.969l5.826,23.34a7.385,7.385,0,0,1-10.72,8.261L176.9,296.115a19.3,19.3,0,0,1-7.373-26.656l2.538-4.343a77.984,77.984,0,0,1,21.5-23.746l24.544-17.827a62.721,62.721,0,0,0,17.807-20l27.237-48.421a13.262,13.262,0,0,0-5.131-18.1l-18.037-9.993a33.049,33.049,0,0,1-16.914-26.094l-.4-4.7a30.456,30.456,0,0,0-14.987-23.7L178.955,55.752a46.128,46.128,0,0,0-22.31-6.278c-4.745-.1-10.29-.232-16.7-.36-24.416-.485-32.791-.208-50.25-.458-13.849-.2-20.723,5.786-25.75,10.208a36.033,36.033,0,0,0-10.125,14.75c-1.318,3.71-2.924,8.447-.875,13.375a14.3,14.3,0,0,0,4.5,5.75L96.971,116.4a10.908,10.908,0,0,1,3.773,14.947c-19.794,33.2-66.81,111.743-81.179,135.744a8.005,8.005,0,0,0,2.98,11.11l2.447,1.362a11.141,11.141,0,0,0,12.028-.775,92.91,92.91,0,0,1,11.008-7.172,29.48,29.48,0,0,1,28.079.467l162.028,91.289a13.551,13.551,0,0,1-3.185,24.906L178.2,403.29a11.184,11.184,0,0,0-2.719,20.5l127.606,73.47a37.817,37.817,0,0,0,29.229,3.6l9.269-2.64a41.221,41.221,0,0,1,31.626,3.787l48.04,27.244a39.108,39.108,0,0,1,16.634,18.572l1.6,3.722a6.916,6.916,0,0,0,12.348.719l58.6-101.832a11.435,11.435,0,0,1,20.193.7l103.291,212.3a135.246,135.246,0,0,0,38.633,47.625L717.1,745.665c12.47,9.69,5.322,29.677-10.465,29.26l-25.313-.668a88.869,88.869,0,0,0-37.64,7.279L441.577,869A23.266,23.266,0,0,0,428.553,897.1l5.916,19.5a20.135,20.135,0,0,0,27.371,12.609c.228-.1.458-.2.687-.306,9.824-4.4,12.9-7.183,28.834-16.167,13.154-7.413,19.731-11.12,26-13.333a107.9,107.9,0,0,1,31.666-5.667c2.37-.075,4.667-.073,6.884-.008A22.718,22.718,0,0,1,577.4,912.639q.129.712.291,1.434c2,8.947,6.8,14.952,9.833,18.666,1.517,1.857.714.626,9.167,9.167,3.031,3.062,7.133,7.26,13.5,13.667a99.217,99.217,0,0,0,8.333,7.666,32.942,32.942,0,0,0,7,4.834c3.768,1.773,7.015,1.968,11,2.166,10.724.536,16.086.8,19.167.834,11.113.111,13.49-.08,18,1.166,3.1.858,6.272,1.768,9.5,4.334,4.761,3.785,6.558,8.715,8,12.833.55,1.571,2.2,6.548,2.667,16.167.653,13.371-.584,16.812.458,26.854.226,2.174,1.354,5.986,3.042,11.312,2.321,7.326,5.084,16.623,7.666,27.5,1.893,7.974,2.84,11.96,3.334,16.167a81.386,81.386,0,0,1-.334,25.333c-.17.924-1.114,5.561-3,14.834-.947,4.66-1.267,6.209-1.333,8.5a32.393,32.393,0,0,0,2.667,13.333c2.515,6.345,6.544,16.522,11.851,29.493a8.409,8.409,0,0,0,15.4.383l.48-1.028a35.835,35.835,0,0,1,31.7-20.654c19.464-.414,46.459-1.092,65.913-1.89,35.861-1.471,41.112-35.766,41.111-62.846,0-15.1.388-21.669,0-32.125-.614-16.545-.261-26.31.375-45.166.159-4.71.859-23.674,3.5-49,1.832-17.569,2.711-20.1,3.833-32.667.832-9.307,1.232-17.794,1.381-25.246a53.792,53.792,0,0,1,15.979-37.235l17.635-17.406A38.421,38.421,0,0,0,913.6,797.54q-5.775-4.966-12.069-10.467c-26.608-23.271-42.774-37.255-57.583-50.5C811.113,707.208,813.015,707.748,748.444,651.739Z"/></g><g id="cf61c4f7-5979-4f85-8046-801a2afc67c1" data-name="Start-Finish Line"><use width="200" height="103.617" transform="translate(752.778 617.67) rotate(131.764) scale(0.281)" xlink:href="#4de4c17c-7ff9-4dbf-b423-173f1724e1db"/></g><g id="b729aea8-20d0-4520-8ef9-6eb2b760c1f2" data-name="Corner Numbers"><g id="cbf50ea6-4f39-4daf-86b8-78c9c9314843" data-name="1"><path class="ca5bbb97-9c06-485f-a5a3-c88bbcbebcc1" d="M532.414,286.623a10.417,10.417,0,1,1-9.485-11.272h0c7.546.65,10.245-.277,10.895.494S533.063,279.105,532.414,286.623Z"/><path class="2b88608b-c9b9-42bc-93c5-28a22e5be87b" d="M521.629,281.33h-.037l-2.086,1.121-.312-1.236,2.622-1.4,1.384,0-.021,11.991-1.568,0Z"/></g><g id="5f853e63-d9e5-452d-befe-bd0a94a290f0" data-name="2"><path class="ca5bbb97-9c06-485f-a5a3-c88bbcbebcc1" d="M537.6,237.237a10.811,10.811,0,1,1,4.118,14.725h0c-6.851-3.856-9.8-4.14-10.081-5.148S533.759,244.062,537.6,237.237Z"/><path class="2b88608b-c9b9-42bc-93c5-28a22e5be87b" d="M543.276,248.66l0-1.034,1.324-1.282c3.184-3.019,4.624-4.625,4.647-6.5a2.222,2.222,0,0,0-2.466-2.437,4.24,4.24,0,0,0-2.645,1.048l-.534-1.189a5.466,5.466,0,0,1,3.526-1.256,3.5,3.5,0,0,1,3.8,3.626c0,2.3-1.674,4.153-4.3,6.675l-1,.917v.039l5.591.011,0,1.4Z"/></g><g id="98db4630-9a85-45df-81f5-fe91dcbb7b62" data-name="3"><path class="ca5bbb97-9c06-485f-a5a3-c88bbcbebcc1" d="M573.855,165.421a10.512,10.512,0,1,1,2.59,14.639h0c-6.263-4.381-9.089-4.935-9.267-5.937S569.489,171.661,573.855,165.421Z"/><path class="2b88608b-c9b9-42bc-93c5-28a22e5be87b" d="M579.155,175.335a5.474,5.474,0,0,0,2.681.765c2.1,0,2.756-1.337,2.738-2.342-.017-1.694-1.543-2.422-3.125-2.423h-.912l0-1.229h.912c1.191,0,2.7-.612,2.7-2.046,0-.967-.612-1.824-2.12-1.826a4.448,4.448,0,0,0-2.422.8l-.426-1.192a5.742,5.742,0,0,1,3.166-.927c2.383,0,3.461,1.417,3.459,2.888a3,3,0,0,1-2.237,2.846v.037a3.152,3.152,0,0,1,2.7,3.112c0,1.936-1.511,3.629-4.415,3.626a6.15,6.15,0,0,1-3.145-.823Z"/></g><g id="c29b35cd-be89-4f7a-8004-9f488c75c631" data-name="4"><path class="ca5bbb97-9c06-485f-a5a3-c88bbcbebcc1" d="M313.9,18.926a10.195,10.195,0,1,1,14.324-1.637h0c-4.613,5.8-5.317,8.5-6.3,8.618S319.677,23.523,313.9,18.926Z"/><path class="2b88608b-c9b9-42bc-93c5-28a22e5be87b" d="M321.152,16.883v-3.2l-5.452,0V12.643l5.231-7.493h1.715l0,7.293h1.643v1.245h-1.643l0,3.2Zm0-4.441,0-3.917q0-.921.053-1.842h-.054c-.361.688-.65,1.193-.974,1.735l-2.868,3.991v.036Z"/></g><g id="e5eeb843-4281-4cb2-b9a2-af8ec2a01699" data-name="5"><path class="ca5bbb97-9c06-485f-a5a3-c88bbcbebcc1" d="M275.268,86.691a10.195,10.195,0,1,1,3.432,14h0c-6.339-3.843-9.108-4.2-9.344-5.159S271.438,93.005,275.268,86.691Z"/><path class="2b88608b-c9b9-42bc-93c5-28a22e5be87b" d="M287.119,87.656l-4.477,0-.448,3.016a6.119,6.119,0,0,1,.956-.074,4.964,4.964,0,0,1,2.528.629,3.344,3.344,0,0,1,1.682,3.013A4.071,4.071,0,0,1,283,98.257a5.743,5.743,0,0,1-2.925-.719l.4-1.21a5.258,5.258,0,0,0,2.51.647,2.588,2.588,0,0,0,2.777-2.548c-.02-1.516-1.031-2.6-3.378-2.6a12.151,12.151,0,0,0-1.625.127l.752-5.632,5.614-.007Z"/></g><g id="e8c0de67-121c-43c9-bc1c-9ae9899cf700" data-name="6"><path class="ca5bbb97-9c06-485f-a5a3-c88bbcbebcc1" d="M461.123,244.811a10.52,10.52,0,1,1-3.77-14.392h0c6.6,3.862,9.467,4.185,9.725,5.171S464.972,238.233,461.123,244.811Z"/><path class="2b88608b-c9b9-42bc-93c5-28a22e5be87b" d="M454.915,234.475a5.927,5.927,0,0,0-1.229.075,4.921,4.921,0,0,0-4.212,4.3h.056a3.692,3.692,0,0,1,6.576,2.518,4.049,4.049,0,0,1-4.025,4.265c-2.589,0-4.285-2.013-4.284-5.162a7.615,7.615,0,0,1,2.051-5.459,6.6,6.6,0,0,1,3.875-1.787,7.951,7.951,0,0,1,1.193-.093Zm-.467,6.987a2.46,2.46,0,0,0-2.5-2.776,2.7,2.7,0,0,0-2.348,1.49,1.4,1.4,0,0,0-.186.726c.037,1.993.949,3.467,2.663,3.467C453.5,244.369,454.448,243.2,454.448,241.462Z"/></g><g id="743c9e44-b0d7-4d81-94f0-6b0e95c45da2" data-name="7"><path class="ca5bbb97-9c06-485f-a5a3-c88bbcbebcc1" d="M450.208,325.664a10.468,10.468,0,1,1-11.822,8.91h0c1.059-7.538.275-10.3,1.084-10.906S442.7,324.607,450.208,325.664Z"/><path class="2b88608b-c9b9-42bc-93c5-28a22e5be87b" d="M452.508,330.332v1.075l-5.24,10.979h-1.686l5.221-10.663v-.037l-5.9,0v-1.354Z"/></g><g id="c87fd8b1-f900-4ab1-954e-5a10d5087007" data-name="8"><path class="ca5bbb97-9c06-485f-a5a3-c88bbcbebcc1" d="M352.644,328.462a10.468,10.468,0,1,1,8.735-11.952h0c1.169,7.521,2.719,9.934,2.121,10.752S360.137,327.3,352.644,328.462Z"/><path class="2b88608b-c9b9-42bc-93c5-28a22e5be87b" d="M347.359,321.112a3.443,3.443,0,0,1,2.4-3.223l-.019-.056a2.984,2.984,0,0,1-1.906-2.709c0-1.909,1.616-3.205,3.729-3.2,2.336,0,3.5,1.468,3.5,2.97a3.063,3.063,0,0,1-1.986,2.816v.055a3.342,3.342,0,0,1,2.425,3.118c0,2.094-1.8,3.5-4.1,3.5C348.877,324.377,347.357,322.873,347.359,321.112Zm6.49-.067c0-1.465-1.017-2.171-2.649-2.636a2.621,2.621,0,0,0-2.172,2.482,2.229,2.229,0,0,0,2.408,2.3A2.181,2.181,0,0,0,353.849,321.045Zm-4.48-6.03c0,1.2.906,1.854,2.3,2.227a2.376,2.376,0,0,0,1.838-2.186,1.872,1.872,0,0,0-2.037-1.967A1.916,1.916,0,0,0,349.369,315.015Z"/></g><g id="8ee0ba65-1248-4306-961f-9dedb52f3dd2" data-name="9"><path class="ca5bbb97-9c06-485f-a5a3-c88bbcbebcc1" d="M388.129,401.947a10.468,10.468,0,1,1-8.554,12.083h0c-1.283-7.5-2.868-9.891-2.283-10.719S380.654,403.224,388.129,401.947Z"/><path class="2b88608b-c9b9-42bc-93c5-28a22e5be87b" d="M386.849,417.036a6.778,6.778,0,0,0,1.315-.056,4.538,4.538,0,0,0,2.52-1.168,5.283,5.283,0,0,0,1.595-3.207h-.055a3.539,3.539,0,0,1-2.837,1.3,3.491,3.491,0,0,1-3.56-3.689,4.132,4.132,0,0,1,4.116-4.283c2.466,0,3.987,2,3.987,5.079a7.615,7.615,0,0,1-2.078,5.655,6.016,6.016,0,0,1-3.5,1.613,7.6,7.6,0,0,1-1.5.093Zm.591-6.934a2.318,2.318,0,0,0,2.318,2.558,2.7,2.7,0,0,0,2.373-1.26,1.078,1.078,0,0,0,.148-.594c0-2.058-.76-3.633-2.466-3.633C388.423,407.173,387.44,408.4,387.44,410.1Z"/></g><g id="0aa8d1c8-e8e6-4401-b943-291d96ed6265" data-name="10"><path class="ca5bbb97-9c06-485f-a5a3-c88bbcbebcc1" d="M182.466,273.2a10.468,10.468,0,1,1,5.487,13.749h0c-6.994-3-9.861-2.972-10.237-3.913S179.471,280.166,182.466,273.2Z"/><path class="2b88608b-c9b9-42bc-93c5-28a22e5be87b" d="M186.341,273.2H186.3l-2.094,1.131-.317-1.242,2.633-1.41h1.391l0,12.05h-1.576Z"/><path class="2b88608b-c9b9-42bc-93c5-28a22e5be87b" d="M200.32,277.568c0,4.1-1.518,6.359-4.188,6.36-2.355,0-3.95-2.2-3.989-6.191,0-4.041,1.742-6.267,4.189-6.268C198.872,271.468,200.319,273.73,200.32,277.568Zm-6.545.187c0,3.133.965,4.913,2.449,4.912,1.668,0,2.465-1.947,2.464-5.025,0-2.966-.761-4.912-2.449-4.912C194.811,272.731,193.774,274.473,193.775,277.755Z"/></g><g id="33755d16-720b-41d8-b894-6ae01f5cec3f" data-name="11"><path class="ca5bbb97-9c06-485f-a5a3-c88bbcbebcc1" d="M166.53,241.119a10.468,10.468,0,1,1,10.394-10.541h0c.054,7.611,1.232,10.225.521,10.947S174.113,241.067,166.53,241.119Z"/><path class="2b88608b-c9b9-42bc-93c5-28a22e5be87b" d="M161.675,226.712h-.037l-2.08,1.159-.332-1.238,2.614-1.444,1.39-.019.163,12.049-1.576.021Z"/><path class="2b88608b-c9b9-42bc-93c5-28a22e5be87b" d="M171.183,226.583h-.037l-2.08,1.159-.332-1.238,2.615-1.445,1.389-.018.163,12.049-1.575.022Z"/></g><g id="55d2498a-b801-4a9a-b400-1e776649d8dd" data-name="12"><path class="ca5bbb97-9c06-485f-a5a3-c88bbcbebcc1" d="M248.337,219.2a10.468,10.468,0,1,1-8.884,11.842h0c-1.075-7.535-2.595-9.967-1.987-10.778S240.829,220.268,248.337,219.2Z"/><path class="2b88608b-c9b9-42bc-93c5-28a22e5be87b" d="M243.57,224.677h-.037l-2.1,1.128-.314-1.242,2.635-1.407,1.39,0-.013,12.051-1.577,0Z"/><path class="2b88608b-c9b9-42bc-93c5-28a22e5be87b" d="M249.526,235.214v-1l1.28-1.241c3.083-2.926,4.474-4.482,4.5-6.3a2.151,2.151,0,0,0-2.39-2.358,4.1,4.1,0,0,0-2.559,1.017l-.517-1.15a5.283,5.283,0,0,1,3.412-1.22,3.39,3.39,0,0,1,3.685,3.508c0,2.225-1.618,4.021-4.159,6.466l-.966.889v.037l5.415.006v1.353Z"/></g><g id="d0e9e661-85bc-455a-b346-930a36cd0b98" data-name="13"><path class="ca5bbb97-9c06-485f-a5a3-c88bbcbebcc1" d="M248.157,157.153a10.468,10.468,0,1,1-3.458-14.395h0c6.49,3.977,9.332,4.357,9.57,5.342S252.12,150.687,248.157,157.153Z"/><path class="2b88608b-c9b9-42bc-93c5-28a22e5be87b" d="M234.045,147.182h-.037l-2.1,1.13-.314-1.242,2.632-1.408h1.391l0,12.051H234.04Z"/><path class="2b88608b-c9b9-42bc-93c5-28a22e5be87b" d="M240.4,155.843a5.457,5.457,0,0,0,2.669.761c2.095,0,2.744-1.334,2.726-2.335-.018-1.687-1.536-2.41-3.112-2.411h-.909v-1.223h.909c1.186,0,2.688-.61,2.689-2.038,0-.964-.611-1.817-2.112-1.818a4.426,4.426,0,0,0-2.41.8l-.427-1.187a5.737,5.737,0,0,1,3.151-.925c2.373,0,3.448,1.411,3.447,2.875a2.992,2.992,0,0,1-2.225,2.836v.037a3.138,3.138,0,0,1,2.686,3.1c0,1.928-1.5,3.615-4.394,3.613a6.122,6.122,0,0,1-3.134-.817Z"/></g><g id="9b1573a0-28e5-4d8e-b05c-e29c600995cf" data-name="14"><path class="ca5bbb97-9c06-485f-a5a3-c88bbcbebcc1" d="M217.5,133.281a10.468,10.468,0,1,1-7.658-12.67h0c7.39,1.822,10.214,1.323,10.739,2.19S219.312,125.918,217.5,133.281Z"/><path class="2b88608b-c9b9-42bc-93c5-28a22e5be87b" d="M202.029,125.478h-.037l-2.095,1.131-.315-1.243,2.633-1.408h1.39l0,12.051h-1.576Z"/><path class="2b88608b-c9b9-42bc-93c5-28a22e5be87b" d="M213.038,136.011v-3.282h-5.6v-1.075l5.377-7.693h1.762v7.489h1.687v1.279h-1.687v3.281Zm0-4.561v-4.023q0-.945.056-1.891h-.056c-.371.7-.667,1.224-1,1.78l-2.949,4.1v.037Z"/></g><g id="e6843a50-5f9e-4320-b333-01b15c7c4a9e" data-name="15"><path class="ca5bbb97-9c06-485f-a5a3-c88bbcbebcc1" d="M230.264,67.845A10.468,10.468,0,1,1,238.3,80.281h0c-7.441-1.6-10.249-1.018-10.8-1.869S228.668,75.259,230.264,67.845Z"/><path class="2b88608b-c9b9-42bc-93c5-28a22e5be87b" d="M234.41,66.394h-.037l-2.095,1.131-.315-1.243,2.633-1.409h1.39V76.924H234.41Z"/><path class="2b88608b-c9b9-42bc-93c5-28a22e5be87b" d="M247.571,66.244h-4.6l-.463,3.1a6.435,6.435,0,0,1,.982-.074,5.089,5.089,0,0,1,2.595.648,3.434,3.434,0,0,1,1.724,3.1,4.18,4.18,0,0,1-4.486,4.116,5.892,5.892,0,0,1-3-.741l.408-1.242a5.4,5.4,0,0,0,2.577.667,2.658,2.658,0,0,0,2.855-2.614c-.019-1.558-1.057-2.67-3.467-2.669a12.593,12.593,0,0,0-1.668.129l.779-5.784h5.765Z"/></g><g id="1fd805e9-e8b2-42c0-9443-3b50857d90ea" data-name="16"><path class="ca5bbb97-9c06-485f-a5a3-c88bbcbebcc1" d="M169.845,70.4a10.468,10.468,0,1,1-14.027-4.733h0c6.82-3.379,8.655-5.583,9.615-5.259S166.48,63.605,169.845,70.4Z"/><path class="2b88608b-c9b9-42bc-93c5-28a22e5be87b" d="M154.745,70.584h-.037l-2.094,1.132-.316-1.242,2.632-1.411h1.39l.007,12.051h-1.576Z"/><path class="2b88608b-c9b9-42bc-93c5-28a22e5be87b" d="M167.592,70.206a5.947,5.947,0,0,0-1.224.075,4.9,4.9,0,0,0-4.188,4.285h.055a3.673,3.673,0,0,1,6.545,2.5,4.028,4.028,0,0,1-4,4.248c-2.577,0-4.265-2-4.267-5.134a7.579,7.579,0,0,1,2.037-5.433,6.557,6.557,0,0,1,3.854-1.781,7.775,7.775,0,0,1,1.188-.094Zm-.461,6.953a2.448,2.448,0,0,0-2.486-2.761,2.684,2.684,0,0,0-2.335,1.484,1.394,1.394,0,0,0-.185.723c.038,1.984.947,3.448,2.653,3.447C166.187,80.052,167.132,78.883,167.131,77.159Z"/></g><g id="093bf945-ceba-4c33-92f7-5bf801b70347" data-name="17"><path class="ca5bbb97-9c06-485f-a5a3-c88bbcbebcc1" d="M44.123,52.934A10.468,10.468,0,1,1,54.3,42.179h0c.211,7.609,1.444,10.2.748,10.935S51.7,52.725,44.123,52.934Z"/><path class="2b88608b-c9b9-42bc-93c5-28a22e5be87b" d="M37.731,38.981h-.037l-2.1,1.132-.315-1.242,2.632-1.41h1.391l0,12.05H37.736Z"/><path class="2b88608b-c9b9-42bc-93c5-28a22e5be87b" d="M51.522,37.454V38.53L46.281,49.508H44.6l5.222-10.663v-.037l-5.9,0V37.458Z"/></g><g id="cab75af0-880a-427e-81e3-15bfd4161f77" data-name="18"><path class="ca5bbb97-9c06-485f-a5a3-c88bbcbebcc1" d="M85.29,135.268A10.468,10.468,0,1,1,80.6,121.225h0c6.809,3.4,9.674,3.536,10,4.5S88.68,128.485,85.29,135.268Z"/><path class="2b88608b-c9b9-42bc-93c5-28a22e5be87b" d="M70.8,125.465h-.037l-2.1,1.129-.314-1.242,2.633-1.407h1.391L72.365,136H70.789Z"/><path class="2b88608b-c9b9-42bc-93c5-28a22e5be87b" d="M76.61,132.94A3.443,3.443,0,0,1,79,129.716l-.019-.056a2.986,2.986,0,0,1-1.907-2.708c0-1.909,1.615-3.206,3.729-3.2,2.335,0,3.5,1.468,3.5,2.969a3.059,3.059,0,0,1-1.985,2.817v.056a3.341,3.341,0,0,1,2.427,3.116c0,2.095-1.8,3.5-4.1,3.5C78.129,136.2,76.609,134.7,76.61,132.94Zm6.489-.07c0-1.464-1.017-2.169-2.649-2.634a2.619,2.619,0,0,0-2.171,2.483,2.228,2.228,0,0,0,2.409,2.3A2.179,2.179,0,0,0,83.1,132.87Zm-4.482-6.028c0,1.2.907,1.855,2.3,2.227a2.374,2.374,0,0,0,1.836-2.187,1.872,1.872,0,0,0-2.037-1.967A1.917,1.917,0,0,0,78.617,126.842Z"/></g><g id="6efce8e3-d854-4add-a09d-f10d09487f57" data-name="19"><path class="ca5bbb97-9c06-485f-a5a3-c88bbcbebcc1" d="M21.54,300.088a10.468,10.468,0,1,1-12.073-8.567h0c7.5-1.275,9.895-2.858,10.722-2.272S20.272,292.612,21.54,300.088Z"/><path class="2b88608b-c9b9-42bc-93c5-28a22e5be87b" d="M5.849,297.284H5.812l-2.1,1.13L3.4,297.172l2.634-1.408H7.427l-.008,12.051H5.843Z"/><path class="2b88608b-c9b9-42bc-93c5-28a22e5be87b" d="M12.756,306.67a6.693,6.693,0,0,0,1.316-.055,4.53,4.53,0,0,0,2.523-1.166,5.281,5.281,0,0,0,1.6-3.206h-.055a3.538,3.538,0,0,1-2.838,1.3,3.492,3.492,0,0,1-3.558-3.692,4.131,4.131,0,0,1,4.119-4.279c2.466,0,3.986,2,3.984,5.082a7.615,7.615,0,0,1-2.081,5.653,6.02,6.02,0,0,1-3.505,1.61,7.549,7.549,0,0,1-1.5.092Zm.6-6.933a2.319,2.319,0,0,0,2.317,2.56,2.7,2.7,0,0,0,2.374-1.259,1.074,1.074,0,0,0,.148-.593c0-2.058-.757-3.634-2.463-3.636C14.34,296.808,13.356,298.031,13.354,299.737Z"/></g><g id="bb6f0419-bb26-4e39-b1ce-67dfab42bad4" data-name="20"><path class="ca5bbb97-9c06-485f-a5a3-c88bbcbebcc1" d="M68.449,286.909a10.468,10.468,0,1,1-14.8.065h0c5.359-5.406,6.381-8.085,7.394-8.09S63.064,281.569,68.449,286.909Z"/><path class="2b88608b-c9b9-42bc-93c5-28a22e5be87b" d="M53.531,299.972v-.926l1.192-1.148c2.869-2.709,4.165-4.149,4.184-5.829a2,2,0,0,0-2.227-2.18,3.848,3.848,0,0,0-2.385.941l-.482-1.063a4.945,4.945,0,0,1,3.178-1.13,3.148,3.148,0,0,1,3.435,3.244c0,2.058-1.5,3.721-3.872,5.983l-.9.823v.034l5.044,0v1.252Z"/><path class="2b88608b-c9b9-42bc-93c5-28a22e5be87b" d="M69.86,294.286c0,3.791-1.42,5.882-3.907,5.881-2.194,0-3.678-2.043-3.711-5.73,0-3.739,1.627-5.8,3.907-5.8C68.516,288.643,69.862,290.737,69.86,294.286Zm-6.1.169c0,2.9.9,4.545,2.278,4.546,1.554,0,2.3-1.8,2.3-4.647,0-2.744-.706-4.545-2.278-4.546C64.733,289.807,63.764,291.419,63.762,294.455Z"/></g><g id="0e4aec4f-ec23-4ef0-b9c3-5c480329d2db" data-name="21"><path class="ca5bbb97-9c06-485f-a5a3-c88bbcbebcc1" d="M263.765,382a10.468,10.468,0,1,1-5.591,13.708h0c-2.95-7.017-5.037-8.984-4.655-9.922S256.774,384.941,263.765,382Z"/><path class="2b88608b-c9b9-42bc-93c5-28a22e5be87b" d="M261.007,396.948v-.926l1.193-1.149c2.869-2.708,4.166-4.147,4.185-5.828a2,2,0,0,0-2.227-2.181,3.848,3.848,0,0,0-2.385.942l-.483-1.064a4.95,4.95,0,0,1,3.18-1.129,3.147,3.147,0,0,1,3.434,3.245c0,2.057-1.5,3.72-3.873,5.982l-.9.822v.035l5.043,0v1.252Z"/><path class="2b88608b-c9b9-42bc-93c5-28a22e5be87b" d="M273.177,387.215h-.035l-1.952,1.044-.293-1.149,2.454-1.3h1.3l-.008,11.148h-1.469Z"/></g><g id="4c58dcec-a137-4351-8678-f35e15d56773" data-name="22"><path class="ca5bbb97-9c06-485f-a5a3-c88bbcbebcc1" d="M151.96,422.654a10.468,10.468,0,1,1-.832-14.781h0c5.676,5.071,8.4,5.953,8.462,6.965S157.013,417,151.96,422.654Z"/><path class="2b88608b-c9b9-42bc-93c5-28a22e5be87b" d="M136.394,420.8v-.926l1.192-1.151c2.867-2.709,4.162-4.15,4.179-5.831a2,2,0,0,0-2.228-2.178,3.832,3.832,0,0,0-2.384.944l-.483-1.063a4.939,4.939,0,0,1,3.178-1.133,3.148,3.148,0,0,1,3.437,3.242c0,2.058-1.5,3.722-3.869,5.985l-.9.824v.034h5.043V420.8Z"/><path class="2b88608b-c9b9-42bc-93c5-28a22e5be87b" d="M145.257,420.8v-.926l1.192-1.151c2.867-2.709,4.162-4.15,4.18-5.831a2,2,0,0,0-2.229-2.178,3.834,3.834,0,0,0-2.384.944l-.483-1.063a4.941,4.941,0,0,1,3.178-1.133,3.148,3.148,0,0,1,3.437,3.242c0,2.058-1.5,3.722-3.869,5.985l-.9.824v.034h5.043v1.252Z"/></g><g id="9c6d5775-308c-458d-bbb0-d617319be59c" data-name="23"><path class="ca5bbb97-9c06-485f-a5a3-c88bbcbebcc1" d="M314.843,483.213a10.468,10.468,0,1,1,14.752,1.233h0c-5.811,4.915-7.064,7.495-8.074,7.411S319.739,489.005,314.843,483.213Z"/><path class="2b88608b-c9b9-42bc-93c5-28a22e5be87b" d="M315.265,482.27v-.926l1.191-1.15c2.865-2.712,4.16-4.153,4.176-5.834a2,2,0,0,0-2.23-2.177,3.83,3.83,0,0,0-2.383.946l-.484-1.064a4.95,4.95,0,0,1,3.177-1.135,3.15,3.15,0,0,1,3.44,3.241c0,2.057-1.5,3.722-3.865,5.988l-.9.823v.034l5.043,0v1.252Z"/><path class="2b88608b-c9b9-42bc-93c5-28a22e5be87b" d="M324.49,480.531a5.1,5.1,0,0,0,2.488.7c1.951,0,2.555-1.236,2.537-2.163-.018-1.56-1.435-2.228-2.9-2.227h-.846v-1.132h.847c1.105,0,2.5-.568,2.5-1.889,0-.892-.571-1.68-1.971-1.679a4.129,4.129,0,0,0-2.244.74l-.4-1.1a5.354,5.354,0,0,1,2.936-.859c2.211,0,3.214,1.3,3.215,2.655a2.771,2.771,0,0,1-2.071,2.626v.035a2.909,2.909,0,0,1,2.507,2.862c0,1.783-1.4,3.345-4.091,3.347a5.735,5.735,0,0,1-2.92-.753Z"/></g><g id="65f8bd81-fa70-4a8c-9cd2-0aa0091e3b5c" data-name="24"><path class="ca5bbb97-9c06-485f-a5a3-c88bbcbebcc1" d="M362.608,515.672a10.468,10.468,0,1,1-14.8-.308h0c5.493-5.269,6.583-7.922,7.6-7.9S357.36,510.2,362.608,515.672Z"/><path class="2b88608b-c9b9-42bc-93c5-28a22e5be87b" d="M347.447,528.278v-.926l1.191-1.15c2.865-2.713,4.159-4.154,4.175-5.835a2,2,0,0,0-2.23-2.177,3.847,3.847,0,0,0-2.383.945l-.485-1.062a4.951,4.951,0,0,1,3.178-1.135,3.148,3.148,0,0,1,3.44,3.239c0,2.057-1.5,3.723-3.864,5.989l-.9.824v.034l5.044,0v1.252Z"/><path class="2b88608b-c9b9-42bc-93c5-28a22e5be87b" d="M361.008,528.265l0-3.036-5.216,0v-.994l5-7.123h1.641l.007,6.93,1.571,0v1.182l-1.571,0,0,3.036Zm0-4.218,0-3.722q0-.876.05-1.75H361c-.345.652-.621,1.133-.931,1.647l-2.743,3.794v.035Z"/></g><g id="58f93644-3651-4556-8d42-19361ee9d7b8" data-name="25"><path class="ca5bbb97-9c06-485f-a5a3-c88bbcbebcc1" d="M421.066,554.085a10.468,10.468,0,1,1-9.234-11.571h0c7.563.85,10.3-.01,10.931.782S421.914,546.55,421.066,554.085Z"/><path class="2b88608b-c9b9-42bc-93c5-28a22e5be87b" d="M403.881,557.537v-.882l1.135-1.1c2.731-2.585,3.965-3.959,3.98-5.561a1.9,1.9,0,0,0-2.126-2.073,3.655,3.655,0,0,0-2.271.9l-.461-1.013a4.717,4.717,0,0,1,3.028-1.08,3,3,0,0,1,3.279,3.085c0,1.961-1.43,3.547-3.684,5.707l-.855.785v.032l4.807,0v1.193Z"/><path class="2b88608b-c9b9-42bc-93c5-28a22e5be87b" d="M418.706,548.112l-4.083,0-.409,2.731a5.7,5.7,0,0,1,.872-.066,4.553,4.553,0,0,1,2.306.569,3.026,3.026,0,0,1,1.533,2.728,3.7,3.7,0,0,1-3.981,3.631,5.276,5.276,0,0,1-2.668-.651l.362-1.1a4.8,4.8,0,0,0,2.289.587,2.355,2.355,0,0,0,2.533-2.307c-.017-1.372-.941-2.351-3.081-2.349a11.13,11.13,0,0,0-1.481.115l.687-5.1,5.12,0Z"/></g><g id="94acd8f6-0c75-4bb7-9131-897ceca96b8a" data-name="26"><path class="ca5bbb97-9c06-485f-a5a3-c88bbcbebcc1" d="M454.807,573.637a10.468,10.468,0,1,1-14.777.893h0c5.048-5.7,5.918-8.429,6.93-8.49S449.132,568.606,454.807,573.637Z"/><path class="2b88608b-c9b9-42bc-93c5-28a22e5be87b" d="M440.489,586.7v-.883l1.134-1.1c2.73-2.586,3.963-3.96,3.977-5.561a1.9,1.9,0,0,0-2.126-2.072,3.651,3.651,0,0,0-2.271.9l-.462-1.014a4.715,4.715,0,0,1,3.027-1.082,3,3,0,0,1,3.281,3.084c0,1.961-1.428,3.549-3.681,5.709l-.855.785v.033l4.808-.007v1.193Z"/><path class="2b88608b-c9b9-42bc-93c5-28a22e5be87b" d="M455.029,577.073a5.257,5.257,0,0,0-1.086.067,4.332,4.332,0,0,0-3.716,3.781h.049a3.2,3.2,0,0,1,2.583-1.23,3.165,3.165,0,0,1,3.232,3.428,3.562,3.562,0,0,1-3.551,3.746c-2.289,0-3.789-1.759-3.793-4.521a6.654,6.654,0,0,1,1.805-4.792,5.842,5.842,0,0,1,3.422-1.572,6.981,6.981,0,0,1,1.054-.084Zm-.4,6.13a2.165,2.165,0,0,0-2.21-2.433,2.384,2.384,0,0,0-2.072,1.31,1.22,1.22,0,0,0-.164.638c.035,1.749.843,3.039,2.358,3.036C453.789,585.753,454.628,584.722,454.626,583.2Z"/></g><g id="364d934d-aa81-498f-89c6-2c1a1038ac1e" data-name="27"><path class="ca5bbb97-9c06-485f-a5a3-c88bbcbebcc1" d="M511.649,427.012a10.468,10.468,0,1,1,14.763-1.1h0c-4.968,5.766-5.8,8.51-6.811,8.586S517.393,431.964,511.649,427.012Z"/><path class="2b88608b-c9b9-42bc-93c5-28a22e5be87b" d="M511.577,425.575v-.883l1.137-1.094c2.735-2.58,3.97-3.952,3.988-5.553a1.9,1.9,0,0,0-2.122-2.077,3.662,3.662,0,0,0-2.273.9l-.459-1.015a4.716,4.716,0,0,1,3.03-1.075,3,3,0,0,1,3.274,3.091c0,1.961-1.436,3.545-3.693,5.7l-.857.784v.033l4.808,0v1.194Z"/><path class="2b88608b-c9b9-42bc-93c5-28a22e5be87b" d="M526.979,414.966v.947l-4.668,9.671h-1.5l4.651-9.393v-.033l-5.236,0V414.96Z"/></g><g id="00e4d0fb-39f6-4fe0-a863-7a12779a1608" data-name="28"><path class="ca5bbb97-9c06-485f-a5a3-c88bbcbebcc1" d="M652.533,720.426a10.468,10.468,0,1,1-9-11.753h0c7.546,1,10.3.2,10.914,1S653.532,712.909,652.533,720.426Z"/><path class="2b88608b-c9b9-42bc-93c5-28a22e5be87b" d="M635.058,724.168v-.883l1.137-1.095c2.734-2.581,3.969-3.953,3.986-5.555a1.9,1.9,0,0,0-2.123-2.076,3.649,3.649,0,0,0-2.272.9l-.461-1.014a4.712,4.712,0,0,1,3.03-1.077,3,3,0,0,1,3.275,3.089c0,1.961-1.434,3.547-3.69,5.7l-.857.783v.032l4.808,0v1.194Z"/><path class="2b88608b-c9b9-42bc-93c5-28a22e5be87b" d="M643.372,721.474a3.036,3.036,0,0,1,2.125-2.842l-.016-.049a2.634,2.634,0,0,1-1.7-2.387c0-1.684,1.433-2.826,3.31-2.826,2.075,0,3.111,1.293,3.111,2.616a2.7,2.7,0,0,1-1.763,2.483v.049a2.948,2.948,0,0,1,2.156,2.746c0,1.847-1.6,3.088-3.64,3.087C644.721,724.35,643.371,723.027,643.372,721.474Zm5.763-.063c0-1.291-.9-1.912-2.354-2.321a2.311,2.311,0,0,0-1.927,2.188,1.972,1.972,0,0,0,2.14,2.027A1.93,1.93,0,0,0,649.135,721.411Zm-3.983-5.313c0,1.063.806,1.635,2.041,1.961a2.1,2.1,0,0,0,1.631-1.926,1.658,1.658,0,0,0-1.81-1.734A1.7,1.7,0,0,0,645.152,716.1Z"/></g><g id="8cd59142-594a-46c7-8a3b-ddb6a96ebb6c" data-name="29"><path class="ca5bbb97-9c06-485f-a5a3-c88bbcbebcc1" d="M741.292,764.6a10.468,10.468,0,1,1-3.709,14.332h0c-3.862-6.559-6.192-8.23-5.939-9.211S734.757,768.442,741.292,764.6Z"/><path class="2b88608b-c9b9-42bc-93c5-28a22e5be87b" d="M739.449,779.316v-.883l1.137-1.093c2.736-2.58,3.972-3.951,3.991-5.552a1.9,1.9,0,0,0-2.122-2.078,3.654,3.654,0,0,0-2.273.9l-.46-1.014a4.71,4.71,0,0,1,3.031-1.075,3,3,0,0,1,3.273,3.092c0,1.961-1.437,3.545-3.7,5.7l-.857.784v.032l4.808.006v1.193Z"/><path class="2b88608b-c9b9-42bc-93c5-28a22e5be87b" d="M748.735,778.313a6.138,6.138,0,0,0,1.169-.048,4.041,4.041,0,0,0,2.24-1.027,4.648,4.648,0,0,0,1.419-2.825h-.049a3.151,3.151,0,0,1-2.52,1.14,3.086,3.086,0,0,1-3.158-3.254,3.654,3.654,0,0,1,3.659-3.771c2.19,0,3.538,1.769,3.535,4.482a6.691,6.691,0,0,1-1.849,4.982,5.373,5.373,0,0,1-3.114,1.418,6.858,6.858,0,0,1-1.333.08Zm.533-6.111a2.05,2.05,0,0,0,2.056,2.257,2.4,2.4,0,0,0,2.109-1.109.946.946,0,0,0,.132-.522c0-1.815-.672-3.2-2.186-3.2C750.144,769.621,749.27,770.7,749.268,772.2Z"/></g><g id="f1ada4bc-17ba-428d-8c8a-a97e9a5c6cf0" data-name="30"><path class="ca5bbb97-9c06-485f-a5a3-c88bbcbebcc1" d="M410.306,882.17a10.468,10.468,0,1,1,3.779-14.314h0c3.83,6.578,6.152,8.26,5.894,9.24S416.861,878.355,410.306,882.17Z"/><path class="2b88608b-c9b9-42bc-93c5-28a22e5be87b" d="M398.731,877.032a4.853,4.853,0,0,0,2.372.667c1.861,0,2.435-1.18,2.418-2.063-.018-1.486-1.369-2.122-2.769-2.12h-.806l0-1.079h.807c1.054,0,2.387-.542,2.385-1.8,0-.849-.545-1.6-1.878-1.6a3.95,3.95,0,0,0-2.14.705l-.38-1.046a5.122,5.122,0,0,1,2.8-.819c2.107,0,3.064,1.237,3.065,2.528a2.64,2.64,0,0,1-1.972,2.5v.032a2.775,2.775,0,0,1,2.39,2.727c0,1.7-1.33,3.188-3.9,3.191a5.469,5.469,0,0,1-2.783-.715Z"/><path class="2b88608b-c9b9-42bc-93c5-28a22e5be87b" d="M413.939,873.238c0,3.611-1.343,5.607-3.715,5.61-2.09,0-3.508-1.94-3.545-5.454,0-3.562,1.541-5.525,3.714-5.527C412.648,867.864,413.935,869.855,413.939,873.238Zm-5.812.172c0,2.762.862,4.329,2.179,4.327,1.481,0,2.188-1.719,2.184-4.432,0-2.614-.68-4.329-2.179-4.327C409.044,868.979,408.124,870.517,408.127,873.41Z"/></g><g id="51ca87b7-6dd6-400e-acf3-65cb52d02ef7" data-name="31"><path class="ca5bbb97-9c06-485f-a5a3-c88bbcbebcc1" d="M451.562,950.669a10.468,10.468,0,1,1-13.913-5.057h0c6.9-3.22,8.782-5.381,9.735-5.035S448.356,943.8,451.562,950.669Z"/><path class="2b88608b-c9b9-42bc-93c5-28a22e5be87b" d="M435.778,959.084a4.867,4.867,0,0,0,2.371.67c1.861,0,2.437-1.176,2.421-2.058-.016-1.487-1.367-2.124-2.766-2.125H437v-1.08h.807c1.054,0,2.388-.538,2.388-1.795,0-.85-.543-1.6-1.877-1.6a3.956,3.956,0,0,0-2.14.7l-.379-1.046a5.113,5.113,0,0,1,2.8-.815c2.108,0,3.062,1.241,3.062,2.532a2.642,2.642,0,0,1-1.976,2.5V955a2.774,2.774,0,0,1,2.387,2.73c0,1.7-1.334,3.186-3.9,3.185a5.482,5.482,0,0,1-2.782-.718Z"/><path class="2b88608b-c9b9-42bc-93c5-28a22e5be87b" d="M447.023,951.454h-.032l-1.861,1-.28-1.1,2.338-1.241h1.235l0,10.623h-1.4Z"/></g><g id="f35d9703-1606-4867-a9a9-d2921223e2f7" data-name="32"><path class="ca5bbb97-9c06-485f-a5a3-c88bbcbebcc1" d="M562.532,917.917a10.468,10.468,0,1,1-10.73-10.2h0c7.609-.192,10.2-1.419,10.936-.721S562.342,910.336,562.532,917.917Z"/><path class="2b88608b-c9b9-42bc-93c5-28a22e5be87b" d="M545,921.355a4.878,4.878,0,0,0,2.371.669c1.86,0,2.436-1.179,2.419-2.062-.018-1.486-1.368-2.123-2.768-2.122h-.807v-1.079h.807c1.053,0,2.387-.541,2.386-1.8,0-.849-.545-1.6-1.878-1.6a3.953,3.953,0,0,0-2.14.7l-.38-1.046a5.126,5.126,0,0,1,2.8-.819c2.107,0,3.063,1.24,3.064,2.531a2.642,2.642,0,0,1-1.974,2.5v.032a2.775,2.775,0,0,1,2.389,2.728c0,1.7-1.331,3.188-3.9,3.19a5.487,5.487,0,0,1-2.783-.717Z"/><path class="2b88608b-c9b9-42bc-93c5-28a22e5be87b" d="M553.1,923v-.883l1.135-1.1c2.731-2.584,3.965-3.957,3.98-5.559a1.9,1.9,0,0,0-2.125-2.074,3.658,3.658,0,0,0-2.272.9l-.461-1.013a4.719,4.719,0,0,1,3.028-1.08,3,3,0,0,1,3.279,3.085c0,1.96-1.43,3.548-3.684,5.707l-.855.785v.032l4.807,0v1.193Z"/></g><g id="812c8b5a-ded2-48b1-b499-b98db01d9ca1" data-name="33"><path class="ca5bbb97-9c06-485f-a5a3-c88bbcbebcc1" d="M597.114,914.016a10.468,10.468,0,1,1,8.234,12.3h0c-7.466-1.48-10.264-.851-10.828-1.693S595.638,921.454,597.114,914.016Z"/><path class="2b88608b-c9b9-42bc-93c5-28a22e5be87b" d="M599.954,920.305a4.863,4.863,0,0,0,2.371.67c1.86,0,2.437-1.176,2.42-2.059-.017-1.487-1.367-2.124-2.766-2.124h-.807v-1.079h.807c1.054,0,2.387-.539,2.387-1.8,0-.85-.543-1.6-1.877-1.6a3.956,3.956,0,0,0-2.14.7l-.379-1.046a5.121,5.121,0,0,1,2.8-.816c2.107,0,3.062,1.241,3.062,2.532a2.64,2.64,0,0,1-1.975,2.5v.032a2.775,2.775,0,0,1,2.387,2.73c0,1.7-1.333,3.186-3.9,3.186a5.476,5.476,0,0,1-2.783-.718Z"/><path class="2b88608b-c9b9-42bc-93c5-28a22e5be87b" d="M608.4,920.305a4.861,4.861,0,0,0,2.371.669c1.86,0,2.436-1.176,2.42-2.059-.016-1.487-1.366-2.124-2.766-2.124h-.807v-1.079h.807c1.054,0,2.387-.539,2.387-1.8,0-.85-.543-1.6-1.877-1.6a3.956,3.956,0,0,0-2.14.7l-.379-1.046a5.118,5.118,0,0,1,2.8-.817c2.108,0,3.062,1.241,3.062,2.532a2.639,2.639,0,0,1-1.975,2.5v.032a2.775,2.775,0,0,1,2.387,2.73c0,1.7-1.333,3.187-3.9,3.187a5.472,5.472,0,0,1-2.782-.718Z"/></g><g id="fab64a36-1578-40d6-bf2c-1a624b6c7b60" data-name="34"><path class="ca5bbb97-9c06-485f-a5a3-c88bbcbebcc1" d="M624.683,989.078a10.468,10.468,0,1,1-13-7.087h0c7.3-2.149,9.49-4,10.38-3.518S622.544,981.8,624.683,989.078Z"/><path class="2b88608b-c9b9-42bc-93c5-28a22e5be87b" d="M607.84,995.243a4.851,4.851,0,0,0,2.371.668c1.86,0,2.436-1.178,2.419-2.061-.018-1.486-1.368-2.122-2.768-2.121h-.806V990.65h.807c1.053,0,2.386-.541,2.385-1.8,0-.85-.544-1.6-1.878-1.6a3.956,3.956,0,0,0-2.14.7l-.379-1.046a5.126,5.126,0,0,1,2.8-.818c2.107,0,3.063,1.239,3.064,2.53a2.641,2.641,0,0,1-1.974,2.5v.033a2.773,2.773,0,0,1,2.389,2.727c0,1.7-1.331,3.188-3.9,3.19a5.467,5.467,0,0,1-2.783-.717Z"/><path class="2b88608b-c9b9-42bc-93c5-28a22e5be87b" d="M620.418,996.885l0-2.893-4.972,0v-.948l4.769-6.784h1.564l0,6.6h1.5v1.127h-1.5l0,2.893Zm0-4.021,0-3.545c0-.556.016-1.112.048-1.667h-.049c-.329.621-.592,1.079-.888,1.569l-2.615,3.613v.032Z"/></g><g id="ea34f45e-69d0-4895-a91a-38519543ca16" data-name="35"><path class="ca5bbb97-9c06-485f-a5a3-c88bbcbebcc1" d="M695.086,961.855A10.468,10.468,0,1,1,705.161,972.7h0c-7.606-.281-10.27.782-10.96.04S694.805,969.434,695.086,961.855Z"/><path class="2b88608b-c9b9-42bc-93c5-28a22e5be87b" d="M698.2,966.529a4.884,4.884,0,0,0,2.371.671c1.86,0,2.437-1.174,2.422-2.057-.016-1.487-1.365-2.126-2.765-2.127h-.807v-1.079h.807c1.054,0,2.388-.537,2.389-1.795,0-.85-.542-1.6-1.876-1.6a3.954,3.954,0,0,0-2.141.7l-.378-1.045a5.111,5.111,0,0,1,2.8-.815c2.108,0,3.062,1.243,3.061,2.534a2.643,2.643,0,0,1-1.978,2.5v.033a2.774,2.774,0,0,1,2.385,2.731c0,1.7-1.336,3.186-3.9,3.184a5.468,5.468,0,0,1-2.782-.722Z"/><path class="2b88608b-c9b9-42bc-93c5-28a22e5be87b" d="M712.7,958.778l-4.083,0L708.2,961.5a5.63,5.63,0,0,1,.873-.064,4.547,4.547,0,0,1,2.3.572,3.027,3.027,0,0,1,1.529,2.731,3.7,3.7,0,0,1-3.987,3.624,5.274,5.274,0,0,1-2.667-.655l.363-1.1a4.812,4.812,0,0,0,2.288.59,2.354,2.354,0,0,0,2.538-2.3c-.016-1.373-.937-2.354-3.077-2.356a11.192,11.192,0,0,0-1.482.113l.7-5.1,5.12,0Z"/></g><g id="174adeaf-ff30-407a-a8bf-c7486853a6de" data-name="36"><path class="ca5bbb97-9c06-485f-a5a3-c88bbcbebcc1" d="M677.221,1045.006a10.468,10.468,0,1,1-2.122-14.651h0c6.1,4.555,8.893,5.195,9.039,6.2S681.76,1038.932,677.221,1045.006Z"/><path class="2b88608b-c9b9-42bc-93c5-28a22e5be87b" d="M662.2,1042.379a4.862,4.862,0,0,0,2.371.668c1.86,0,2.436-1.179,2.419-2.061-.018-1.487-1.368-2.123-2.768-2.122h-.807v-1.079h.806c1.054,0,2.387-.54,2.386-1.8,0-.85-.544-1.6-1.878-1.6a3.956,3.956,0,0,0-2.14.7l-.379-1.045a5.11,5.11,0,0,1,2.8-.818c2.107,0,3.063,1.238,3.064,2.529a2.643,2.643,0,0,1-1.974,2.5v.032a2.775,2.775,0,0,1,2.389,2.728c0,1.7-1.331,3.187-3.9,3.189a5.467,5.467,0,0,1-2.783-.717Z"/><path class="2b88608b-c9b9-42bc-93c5-28a22e5be87b" d="M676.4,1034.409a5.327,5.327,0,0,0-1.086.067,4.333,4.333,0,0,0-3.719,3.778h.05a3.2,3.2,0,0,1,2.584-1.227,3.163,3.163,0,0,1,3.229,3.429,3.562,3.562,0,0,1-3.553,3.744c-2.289,0-3.788-1.761-3.79-4.523a6.649,6.649,0,0,1,1.808-4.79,5.844,5.844,0,0,1,3.423-1.571,7.083,7.083,0,0,1,1.054-.083Zm-.407,6.13a2.165,2.165,0,0,0-2.208-2.434,2.389,2.389,0,0,0-2.074,1.309,1.225,1.225,0,0,0-.164.638c.035,1.748.842,3.038,2.357,3.037C675.159,1043.088,676,1042.059,676,1040.539Z"/></g><g id="42b55171-fdb4-4701-b3a1-e3411522f1f0" data-name="37"><path class="ca5bbb97-9c06-485f-a5a3-c88bbcbebcc1" d="M727.08,1089.285a10.468,10.468,0,1,1,2.122,14.651h0c-6.1-4.555-8.893-5.195-9.039-6.2S722.541,1095.359,727.08,1089.285Z"/><path class="2b88608b-c9b9-42bc-93c5-28a22e5be87b" d="M728.18,1099.427a4.87,4.87,0,0,0,2.372.668c1.86,0,2.435-1.179,2.418-2.062-.017-1.486-1.368-2.123-2.767-2.122H729.4v-1.079h.807c1.054,0,2.387-.54,2.386-1.8,0-.849-.544-1.6-1.878-1.6a3.956,3.956,0,0,0-2.14.7l-.379-1.045a5.106,5.106,0,0,1,2.8-.818c2.108,0,3.063,1.238,3.064,2.529a2.642,2.642,0,0,1-1.974,2.5v.032a2.774,2.774,0,0,1,2.39,2.728c0,1.7-1.332,3.187-3.9,3.189a5.467,5.467,0,0,1-2.783-.717Z"/><path class="2b88608b-c9b9-42bc-93c5-28a22e5be87b" d="M743.221,1090.445v.947l-4.653,9.678h-1.5l4.636-9.4v-.033l-5.235,0v-1.193Z"/></g><g id="48dfe01c-faec-418f-9cc3-9535fef34ace" data-name="38"><path class="ca5bbb97-9c06-485f-a5a3-c88bbcbebcc1" d="M685.7,1150a10.468,10.468,0,1,1-2.121-14.651h0c6.1,4.556,8.893,5.195,9.039,6.2S690.242,1143.929,685.7,1150Z"/><path class="2b88608b-c9b9-42bc-93c5-28a22e5be87b" d="M670.392,1147.17a4.88,4.88,0,0,0,2.372.668c1.86,0,2.435-1.179,2.418-2.062-.017-1.486-1.368-2.123-2.767-2.122h-.807v-1.079h.807c1.054,0,2.387-.54,2.386-1.8,0-.85-.544-1.6-1.878-1.6a3.948,3.948,0,0,0-2.14.7l-.379-1.045a5.106,5.106,0,0,1,2.8-.819c2.108,0,3.063,1.239,3.064,2.53a2.643,2.643,0,0,1-1.974,2.5v.032a2.774,2.774,0,0,1,2.39,2.727c0,1.7-1.332,3.188-3.9,3.19a5.467,5.467,0,0,1-2.783-.717Z"/><path class="2b88608b-c9b9-42bc-93c5-28a22e5be87b" d="M678.359,1146.118a3.039,3.039,0,0,1,2.122-2.846l-.017-.049a2.628,2.628,0,0,1-1.7-2.383c0-1.684,1.43-2.829,3.307-2.83,2.075,0,3.113,1.289,3.114,2.612a2.7,2.7,0,0,1-1.76,2.485v.049a2.948,2.948,0,0,1,2.159,2.744c0,1.847-1.6,3.09-3.637,3.091C679.711,1148.993,678.36,1147.671,678.359,1146.118Zm5.762-.069c0-1.291-.907-1.913-2.356-2.319a2.312,2.312,0,0,0-1.924,2.191,1.971,1.971,0,0,0,2.141,2.024A1.93,1.93,0,0,0,684.121,1146.049Zm-3.988-5.309c0,1.062.808,1.634,2.043,1.959a2.1,2.1,0,0,0,1.629-1.929,1.658,1.658,0,0,0-1.812-1.731A1.7,1.7,0,0,0,680.133,1140.74Z"/></g><g id="69dc96b8-b340-4c92-afd2-44205c9525a8" data-name="39"><path class="ca5bbb97-9c06-485f-a5a3-c88bbcbebcc1" d="M736.885,1201.57a10.468,10.468,0,1,1-14.651,2.122h0c4.555-6.1,5.195-8.894,6.2-9.039S730.81,1197.03,736.885,1201.57Z"/><path class="2b88608b-c9b9-42bc-93c5-28a22e5be87b" d="M723.606,1213.2a4.865,4.865,0,0,0,2.371.668c1.861,0,2.436-1.178,2.419-2.061-.017-1.486-1.368-2.123-2.767-2.122h-.807v-1.079h.807c1.054,0,2.387-.54,2.386-1.8,0-.85-.545-1.6-1.878-1.6a3.953,3.953,0,0,0-2.14.7l-.38-1.045a5.11,5.11,0,0,1,2.8-.818c2.107,0,3.063,1.238,3.064,2.529a2.641,2.641,0,0,1-1.974,2.5v.033a2.773,2.773,0,0,1,2.389,2.727c0,1.7-1.331,3.188-3.9,3.19a5.467,5.467,0,0,1-2.783-.717Z"/><path class="2b88608b-c9b9-42bc-93c5-28a22e5be87b" d="M732.545,1213.829a5.986,5.986,0,0,0,1.169-.049,4.047,4.047,0,0,0,2.239-1.031,4.649,4.649,0,0,0,1.413-2.828h-.049a3.152,3.152,0,0,1-2.518,1.146,3.087,3.087,0,0,1-3.163-3.25,3.654,3.654,0,0,1,3.652-3.778c2.19,0,3.541,1.763,3.543,4.476a6.685,6.685,0,0,1-1.841,4.985,5.364,5.364,0,0,1-3.11,1.424,6.731,6.731,0,0,1-1.334.082Zm.523-6.111a2.049,2.049,0,0,0,2.06,2.253,2.4,2.4,0,0,0,2.106-1.112.939.939,0,0,0,.131-.523c0-1.814-.677-3.2-2.192-3.2C733.939,1205.135,733.067,1206.214,733.068,1207.718Z"/></g><g id="dc2d4cb4-a9f1-4c3b-8b06-b2e0e4ad6245" data-name="40"><path class="ca5bbb97-9c06-485f-a5a3-c88bbcbebcc1" d="M881.2,1146.661a10.468,10.468,0,1,1-8.859,11.861h0c-1.091-7.532-2.615-9.961-2.009-10.774S873.69,1147.746,881.2,1146.661Z"/><path class="2b88608b-c9b9-42bc-93c5-28a22e5be87b" d="M879.805,1162.21l0-2.893-4.972,0v-.948l4.77-6.784h1.564l0,6.6h1.5v1.128h-1.5v2.893Zm0-4.021,0-3.546c0-.555.016-1.111.048-1.667H879.8c-.329.621-.592,1.079-.888,1.57l-2.616,3.613v.032Z"/><path class="2b88608b-c9b9-42bc-93c5-28a22e5be87b" d="M890.881,1156.776c0,3.611-1.346,5.607-3.717,5.608-2.091,0-3.509-1.942-3.544-5.456,0-3.562,1.544-5.524,3.717-5.526C889.593,1151.4,890.878,1153.393,890.881,1156.776Zm-5.812.168c0,2.762.859,4.329,2.176,4.328,1.482,0,2.189-1.717,2.187-4.429,0-2.615-.678-4.331-2.177-4.33C885.988,1152.514,885.067,1154.052,885.069,1156.944Z"/></g><g id="a1f7f0b4-9dc7-4972-8d3e-f0a646adb7c2" data-name="41"><path class="ca5bbb97-9c06-485f-a5a3-c88bbcbebcc1" d="M906.173,890.994a10.468,10.468,0,1,1-6.14,13.471h0c-2.665-7.13-4.67-9.18-4.25-10.1S899.069,893.648,906.173,890.994Z"/><path class="2b88608b-c9b9-42bc-93c5-28a22e5be87b" d="M907,905.921v-2.892H902.03v-.949L906.8,895.3h1.565v6.6h1.5v1.128h-1.5v2.892Zm0-4.02v-3.546q0-.834.049-1.667H907c-.329.621-.593,1.079-.889,1.569l-2.618,3.611v.033Z"/><path class="2b88608b-c9b9-42bc-93c5-28a22e5be87b" d="M914.113,896.639h-.033l-1.86,1-.28-1.1,2.338-1.241h1.235v10.622h-1.4Z"/></g><g id="d3f646a9-e10a-45a0-bad6-b65f8cf1a9f7" data-name="42"><path class="ca5bbb97-9c06-485f-a5a3-c88bbcbebcc1" d="M944.851,819.67a10.468,10.468,0,1,1,.67,14.789h0c-5.62-5.133-8.339-6.044-8.385-7.057S939.736,825.268,944.851,819.67Z"/><path class="2b88608b-c9b9-42bc-93c5-28a22e5be87b" d="M949.751,831.647l0-2.892-4.972,0v-.949l4.767-6.786,1.564,0,.007,6.6,1.5,0v1.128l-1.5,0,0,2.892Zm0-4.02,0-3.546c0-.556.015-1.112.048-1.667h-.05c-.328.621-.591,1.079-.887,1.57L946.24,827.6v.033Z"/><path class="2b88608b-c9b9-42bc-93c5-28a22e5be87b" d="M953.718,831.642v-.882l1.135-1.1c2.73-2.585,3.963-3.959,3.978-5.561a1.9,1.9,0,0,0-2.126-2.073,3.658,3.658,0,0,0-2.271.9l-.462-1.012A4.712,4.712,0,0,1,957,820.838a3,3,0,0,1,3.28,3.084c0,1.961-1.429,3.548-3.682,5.708l-.855.785v.032l4.807,0v1.193Z"/></g></g></g></g></g></svg>